{
  "header": {
    "PPQ": 120,
    "timeSignature": [
      4,
      4
    ],
    "bpm": 155.00031000062,
    "name": ""
  },
  "startTime": 0,
  "duration": 151.7416319999993,
  "tracks": [
    {
      "startTime": 0,
      "duration": 0,
      "length": 0,
      "notes": [],
      "controlChanges": {},
      "id": 0
    },
    {
      "startTime": 3.096768,
      "duration": 151.54808400000044,
      "length": 356,
      "notes": [
        {
          "name": "A2",
          "midi": 45,
          "time": 3.096768,
          "velocity": 0.6692913385826772,
          "duration": 0.5806439999999999
        },
        {
          "name": "E3",
          "midi": 52,
          "time": 3.8709599999999997,
          "velocity": 0.6771653543307087,
          "duration": 0.5806439999999999
        },
        {
          "name": "D3",
          "midi": 50,
          "time": 4.6451519999999995,
          "velocity": 0.5511811023622047,
          "duration": 0.5806439999999995
        },
        {
          "name": "A2",
          "midi": 45,
          "time": 5.419343999999999,
          "velocity": 0.7401574803149606,
          "duration": 0.5806439999999995
        },
        {
          "name": "G3",
          "midi": 55,
          "time": 6.193535999999998,
          "velocity": 0.6062992125984252,
          "duration": 0.5806439999999995
        },
        {
          "name": "D3",
          "midi": 50,
          "time": 6.9677279999999975,
          "velocity": 0.6220472440944882,
          "duration": 0.5806439999999995
        },
        {
          "name": "C3",
          "midi": 48,
          "time": 7.741919999999997,
          "velocity": 0.6141732283464567,
          "duration": 0.5806439999999995
        },
        {
          "name": "G3",
          "midi": 55,
          "time": 8.516111999999996,
          "velocity": 0.7244094488188977,
          "duration": 0.5806439999999995
        },
        {
          "name": "F#3",
          "midi": 54,
          "time": 9.290303999999995,
          "velocity": 0.5905511811023622,
          "duration": 0.5806439999999995
        },
        {
          "name": "C4",
          "midi": 60,
          "time": 10.064495999999995,
          "velocity": 0.7165354330708661,
          "duration": 0.5806439999999995
        },
        {
          "name": "B2",
          "midi": 47,
          "time": 10.838687999999994,
          "velocity": 0.5118110236220472,
          "duration": 0.5806439999999995
        },
        {
          "name": "F#2",
          "midi": 42,
          "time": 11.612879999999993,
          "velocity": 0.6062992125984252,
          "duration": 0.5806439999999995
        },
        {
          "name": "E3",
          "midi": 52,
          "time": 12.387071999999993,
          "velocity": 0.49606299212598426,
          "duration": 0.5806439999999995
        },
        {
          "name": "B3",
          "midi": 59,
          "time": 13.161263999999992,
          "velocity": 0.7086614173228346,
          "duration": 0.5806439999999995
        },
        {
          "name": "E3",
          "midi": 52,
          "time": 13.935455999999991,
          "velocity": 0.5511811023622047,
          "duration": 0.5806439999999995
        },
        {
          "name": "E3",
          "midi": 52,
          "time": 14.70964799999999,
          "velocity": 0.6614173228346457,
          "duration": 0.5806439999999995
        },
        {
          "name": "A2",
          "midi": 45,
          "time": 15.48383999999999,
          "velocity": 0.4881889763779528,
          "duration": 0.5806439999999995
        },
        {
          "name": "E3",
          "midi": 52,
          "time": 16.25803199999999,
          "velocity": 0.7401574803149606,
          "duration": 0.5806439999999995
        },
        {
          "name": "D3",
          "midi": 50,
          "time": 17.03222399999999,
          "velocity": 0.5984251968503937,
          "duration": 0.5806439999999995
        },
        {
          "name": "A2",
          "midi": 45,
          "time": 17.806415999999988,
          "velocity": 0.6141732283464567,
          "duration": 0.5806439999999995
        },
        {
          "name": "G3",
          "midi": 55,
          "time": 18.580607999999987,
          "velocity": 0.4881889763779528,
          "duration": 0.5806439999999995
        },
        {
          "name": "D3",
          "midi": 50,
          "time": 19.354799999999987,
          "velocity": 0.7007874015748031,
          "duration": 0.5806439999999995
        },
        {
          "name": "C3",
          "midi": 48,
          "time": 20.128991999999986,
          "velocity": 0.4645669291338583,
          "duration": 0.5806439999999995
        },
        {
          "name": "G3",
          "midi": 55,
          "time": 20.903183999999985,
          "velocity": 0.6456692913385826,
          "duration": 0.5806439999999995
        },
        {
          "name": "F#3",
          "midi": 54,
          "time": 21.677375999999985,
          "velocity": 0.6062992125984252,
          "duration": 0.5806439999999995
        },
        {
          "name": "C3",
          "midi": 48,
          "time": 22.451567999999984,
          "velocity": 0.6299212598425197,
          "duration": 0.5806439999999995
        },
        {
          "name": "B2",
          "midi": 47,
          "time": 23.225759999999983,
          "velocity": 0.5590551181102362,
          "duration": 0.5806439999999995
        },
        {
          "name": "F#3",
          "midi": 54,
          "time": 23.999951999999983,
          "velocity": 0.6062992125984252,
          "duration": 0.5806439999999995
        },
        {
          "name": "E3",
          "midi": 52,
          "time": 24.774143999999982,
          "velocity": 0.5905511811023622,
          "duration": 0.5806439999999995
        },
        {
          "name": "B2",
          "midi": 47,
          "time": 25.54833599999998,
          "velocity": 0.5984251968503937,
          "duration": 0.5806439999999995
        },
        {
          "name": "E3",
          "midi": 52,
          "time": 26.32252799999998,
          "velocity": 0.5826771653543307,
          "duration": 0.29032199999999975
        },
        {
          "name": "D#3",
          "midi": 51,
          "time": 26.70962399999998,
          "velocity": 0.7952755905511811,
          "duration": 0.29032199999999975
        },
        {
          "name": "E3",
          "midi": 52,
          "time": 27.09671999999998,
          "velocity": 0.6220472440944882,
          "duration": 0.29032199999999975
        },
        {
          "name": "F3",
          "midi": 53,
          "time": 27.48381599999998,
          "velocity": 0.8267716535433071,
          "duration": 0.29032199999999975
        },
        {
          "name": "F#3",
          "midi": 54,
          "time": 27.87091199999998,
          "velocity": 0.6299212598425197,
          "duration": 0.3161284000000002
        },
        {
          "name": "E3",
          "midi": 52,
          "time": 28.25800799999998,
          "velocity": 0.6929133858267716,
          "duration": 0.32580580000000126
        },
        {
          "name": "D3",
          "midi": 50,
          "time": 28.64510399999998,
          "velocity": 0.6692913385826772,
          "duration": 0.32257999999999853
        },
        {
          "name": "C3",
          "midi": 48,
          "time": 29.03219999999998,
          "velocity": 0.7165354330708661,
          "duration": 0.22580599999999862
        },
        {
          "name": "C3",
          "midi": 48,
          "time": 29.290263999999976,
          "velocity": 0.7952755905511811,
          "duration": 0.09999979999999908
        },
        {
          "name": "B2",
          "midi": 47,
          "time": 29.419295999999974,
          "velocity": 0.6141732283464567,
          "duration": 0.19354799999999983
        },
        {
          "name": "B1",
          "midi": 35,
          "time": 29.709617999999974,
          "velocity": 0.8740157480314961,
          "duration": 0.03225799999999879
        },
        {
          "name": "A2",
          "midi": 45,
          "time": 29.806391999999974,
          "velocity": 0.7559055118110236,
          "duration": 0.3161284000000002
        },
        {
          "name": "G2",
          "midi": 43,
          "time": 30.193487999999974,
          "velocity": 0.6850393700787402,
          "duration": 0.3290316000000004
        },
        {
          "name": "F#2",
          "midi": 42,
          "time": 30.580583999999973,
          "velocity": 0.7716535433070866,
          "duration": 0.21935440000000028
        },
        {
          "name": "F3",
          "midi": 53,
          "time": 30.838647999999974,
          "velocity": 0.7874015748031497,
          "duration": 0.10322559999999825
        },
        {
          "name": "E3",
          "midi": 52,
          "time": 30.967679999999973,
          "velocity": 0.7086614173228346,
          "duration": 0.31935419999999937
        },
        {
          "name": "G3",
          "midi": 55,
          "time": 31.354775999999973,
          "velocity": 0.8110236220472441,
          "duration": 0.31290260000000103
        },
        {
          "name": "A3",
          "midi": 57,
          "time": 31.741871999999972,
          "velocity": 0.6062992125984252,
          "duration": 0.33225740000000314
        },
        {
          "name": "A#3",
          "midi": 58,
          "time": 32.12896799999997,
          "velocity": 0.7401574803149606,
          "duration": 0.31290260000000103
        },
        {
          "name": "B3",
          "midi": 59,
          "time": 32.51606399999997,
          "velocity": 0.6141732283464567,
          "duration": 0.21935440000000028
        },
        {
          "name": "F#3",
          "midi": 54,
          "time": 32.77412799999997,
          "velocity": 0.8818897637795275,
          "duration": 0.1032256000000018
        },
        {
          "name": "D#3",
          "midi": 51,
          "time": 32.90315999999997,
          "velocity": 0.7559055118110236,
          "duration": 0.3258057999999977
        },
        {
          "name": "E3",
          "midi": 52,
          "time": 33.29025599999997,
          "velocity": 0.7401574803149606,
          "duration": 0.31935419999999937
        },
        {
          "name": "E3",
          "midi": 52,
          "time": 33.67735199999997,
          "velocity": 0.7716535433070866,
          "duration": 0.3225800000000021
        },
        {
          "name": "A2",
          "midi": 45,
          "time": 34.06444799999997,
          "velocity": 0.6692913385826772,
          "duration": 0.31612839999999665
        },
        {
          "name": "B2",
          "midi": 47,
          "time": 34.45154399999997,
          "velocity": 0.7007874015748031,
          "duration": 0.3290316000000004
        },
        {
          "name": "C3",
          "midi": 48,
          "time": 34.83863999999997,
          "velocity": 0.6692913385826772,
          "duration": 0.19354799999999983
        },
        {
          "name": "A1",
          "midi": 33,
          "time": 35.12896199999997,
          "velocity": 0.7480314960629921,
          "duration": 0.03225799999999879
        },
        {
          "name": "C#3",
          "midi": 49,
          "time": 35.22573599999997,
          "velocity": 0.6929133858267716,
          "duration": 0.22580599999999862
        },
        {
          "name": "A2",
          "midi": 45,
          "time": 35.48379999999997,
          "velocity": 0.8503937007874016,
          "duration": 0.10967720000000014
        },
        {
          "name": "D3",
          "midi": 50,
          "time": 35.61283199999997,
          "velocity": 0.6535433070866141,
          "duration": 0.31290260000000103
        },
        {
          "name": "E3",
          "midi": 52,
          "time": 35.99992799999997,
          "velocity": 0.6850393700787402,
          "duration": 0.31612839999999665
        },
        {
          "name": "F3",
          "midi": 53,
          "time": 36.38702399999997,
          "velocity": 0.6220472440944882,
          "duration": 0.19354799999999983
        },
        {
          "name": "D2",
          "midi": 38,
          "time": 36.67734599999997,
          "velocity": 0.8818897637795275,
          "duration": 0.03225799999999879
        },
        {
          "name": "F#3",
          "midi": 54,
          "time": 36.77411999999997,
          "velocity": 0.6929133858267716,
          "duration": 0.222580200000003
        },
        {
          "name": "G#3",
          "midi": 56,
          "time": 37.03218399999997,
          "velocity": 0.8346456692913385,
          "duration": 0.11612879999999848
        },
        {
          "name": "G3",
          "midi": 55,
          "time": 37.16121599999997,
          "velocity": 0.7322834645669292,
          "duration": 0.31935419999999937
        },
        {
          "name": "B3",
          "midi": 59,
          "time": 37.54831199999997,
          "velocity": 0.8110236220472441,
          "duration": 0.3258057999999977
        },
        {
          "name": "C4",
          "midi": 60,
          "time": 37.93540799999997,
          "velocity": 0.7007874015748031,
          "duration": 0.3290316000000004
        },
        {
          "name": "C#4",
          "midi": 61,
          "time": 38.32250399999997,
          "velocity": 0.7086614173228346,
          "duration": 0.3290316000000004
        },
        {
          "name": "D4",
          "midi": 62,
          "time": 38.709599999999966,
          "velocity": 0.6377952755905512,
          "duration": 0.2064511999999965
        },
        {
          "name": "A3",
          "midi": 57,
          "time": 38.967663999999964,
          "velocity": 0.7480314960629921,
          "duration": 0.11290300000000286
        },
        {
          "name": "F#3",
          "midi": 54,
          "time": 39.096695999999966,
          "velocity": 0.6692913385826772,
          "duration": 0.3258057999999977
        },
        {
          "name": "G3",
          "midi": 55,
          "time": 39.483791999999966,
          "velocity": 0.5984251968503937,
          "duration": 0.31612839999999665
        },
        {
          "name": "G3",
          "midi": 55,
          "time": 39.870887999999965,
          "velocity": 0.7401574803149606,
          "duration": 0.20967699999999923
        },
        {
          "name": "G3",
          "midi": 55,
          "time": 40.12895199999996,
          "velocity": 0.8346456692913385,
          "duration": 0.11290300000000286
        },
        {
          "name": "F#3",
          "midi": 54,
          "time": 40.257983999999965,
          "velocity": 0.5039370078740157,
          "duration": 0.5806439999999995
        },
        {
          "name": "C3",
          "midi": 48,
          "time": 41.032175999999964,
          "velocity": 0.5984251968503937,
          "duration": 0.5806439999999995
        },
        {
          "name": "B2",
          "midi": 47,
          "time": 41.806367999999964,
          "velocity": 0.5354330708661418,
          "duration": 0.5806439999999995
        },
        {
          "name": "F#3",
          "midi": 54,
          "time": 42.58055999999996,
          "velocity": 0.6141732283464567,
          "duration": 0.5806439999999995
        },
        {
          "name": "E3",
          "midi": 52,
          "time": 43.35475199999996,
          "velocity": 0.5196850393700787,
          "duration": 0.5806439999999995
        },
        {
          "name": "D#3",
          "midi": 51,
          "time": 44.12894399999996,
          "velocity": 0.7322834645669292,
          "duration": 0.5806439999999995
        },
        {
          "name": "D3",
          "midi": 50,
          "time": 44.90313599999996,
          "velocity": 0.5905511811023622,
          "duration": 0.5806439999999995
        },
        {
          "name": "C#3",
          "midi": 49,
          "time": 45.67732799999996,
          "velocity": 0.7165354330708661,
          "duration": 0.5806439999999995
        },
        {
          "name": "C3",
          "midi": 48,
          "time": 46.45151999999996,
          "velocity": 0.5354330708661418,
          "duration": 0.5806439999999995
        },
        {
          "name": "G2",
          "midi": 43,
          "time": 47.22571199999996,
          "velocity": 0.7401574803149606,
          "duration": 0.5806439999999995
        },
        {
          "name": "F#3",
          "midi": 54,
          "time": 47.99990399999996,
          "velocity": 0.5433070866141733,
          "duration": 0.5806439999999995
        },
        {
          "name": "B2",
          "midi": 47,
          "time": 48.77409599999996,
          "velocity": 0.5984251968503937,
          "duration": 0.5806439999999995
        },
        {
          "name": "E3",
          "midi": 52,
          "time": 49.54828799999996,
          "velocity": 0.6062992125984252,
          "duration": 0.5806439999999995
        },
        {
          "name": "B2",
          "midi": 47,
          "time": 50.322479999999956,
          "velocity": 0.7086614173228346,
          "duration": 0.5806439999999995
        },
        {
          "name": "E3",
          "midi": 52,
          "time": 51.096671999999955,
          "velocity": 0.5511811023622047,
          "duration": 0.5806439999999995
        },
        {
          "name": "B2",
          "midi": 47,
          "time": 51.870863999999955,
          "velocity": 0.6299212598425197,
          "duration": 0.5806439999999995
        },
        {
          "name": "A2",
          "midi": 45,
          "time": 52.645055999999954,
          "velocity": 0.6456692913385826,
          "duration": 0.3225800000000021
        },
        {
          "name": "B2",
          "midi": 47,
          "time": 53.032151999999954,
          "velocity": 0.7007874015748031,
          "duration": 0.3290316000000004
        },
        {
          "name": "C3",
          "midi": 48,
          "time": 53.41924799999995,
          "velocity": 0.6535433070866141,
          "duration": 0.19354799999999983
        },
        {
          "name": "A1",
          "midi": 33,
          "time": 53.70956999999996,
          "velocity": 0.8503937007874016,
          "duration": 0.03225799999999879
        },
        {
          "name": "C#3",
          "midi": 49,
          "time": 53.80634399999995,
          "velocity": 0.7559055118110236,
          "duration": 0.222580200000003
        },
        {
          "name": "A2",
          "midi": 45,
          "time": 54.06440799999996,
          "velocity": 0.7637795275590551,
          "duration": 0.11290300000000286
        },
        {
          "name": "D3",
          "midi": 50,
          "time": 54.19343999999996,
          "velocity": 0.7322834645669292,
          "duration": 0.3258057999999977
        },
        {
          "name": "E3",
          "midi": 52,
          "time": 54.58053599999996,
          "velocity": 0.7165354330708661,
          "duration": 0.3225800000000021
        },
        {
          "name": "F3",
          "midi": 53,
          "time": 54.96763199999996,
          "velocity": 0.6141732283464567,
          "duration": 0.3225800000000021
        },
        {
          "name": "F#3",
          "midi": 54,
          "time": 55.35472799999996,
          "velocity": 0.7322834645669292,
          "duration": 0.21935440000000028
        },
        {
          "name": "D3",
          "midi": 50,
          "time": 55.612791999999956,
          "velocity": 0.84251968503937,
          "duration": 0.11612879999999848
        },
        {
          "name": "G3",
          "midi": 55,
          "time": 55.74182399999995,
          "velocity": 0.7086614173228346,
          "duration": 0.31290260000000103
        },
        {
          "name": "A3",
          "midi": 57,
          "time": 56.12891999999995,
          "velocity": 0.7165354330708661,
          "duration": 0.3225800000000021
        },
        {
          "name": "A#3",
          "midi": 58,
          "time": 56.51601599999995,
          "velocity": 0.6456692913385826,
          "duration": 0.31935419999999937
        },
        {
          "name": "B3",
          "midi": 59,
          "time": 56.90311199999995,
          "velocity": 0.6850393700787402,
          "duration": 0.21935440000000028
        },
        {
          "name": "C#3",
          "midi": 49,
          "time": 57.16117599999995,
          "velocity": 0.8740157480314961,
          "duration": 0.1193546000000012
        },
        {
          "name": "C3",
          "midi": 48,
          "time": 57.29020799999995,
          "velocity": 0.6062992125984252,
          "duration": 0.3258057999999977
        },
        {
          "name": "B2",
          "midi": 47,
          "time": 57.67730399999995,
          "velocity": 0.8188976377952756,
          "duration": 0.3290316000000004
        },
        {
          "name": "A2",
          "midi": 45,
          "time": 58.06439999999995,
          "velocity": 0.6692913385826772,
          "duration": 0.31612839999999665
        },
        {
          "name": "G2",
          "midi": 43,
          "time": 58.45149599999995,
          "velocity": 0.7559055118110236,
          "duration": 0.222580200000003
        },
        {
          "name": "C3",
          "midi": 48,
          "time": 58.709559999999954,
          "velocity": 0.889763779527559,
          "duration": 0.09999979999999908
        },
        {
          "name": "F#3",
          "midi": 54,
          "time": 58.838591999999956,
          "velocity": 0.6692913385826772,
          "duration": 0.19354799999999983
        },
        {
          "name": "F#2",
          "midi": 42,
          "time": 59.12891399999996,
          "velocity": 0.8031496062992126,
          "duration": 0.03225799999999879
        },
        {
          "name": "E3",
          "midi": 52,
          "time": 59.225687999999955,
          "velocity": 0.7559055118110236,
          "duration": 0.3225800000000021
        },
        {
          "name": "D3",
          "midi": 50,
          "time": 59.612783999999955,
          "velocity": 0.7401574803149606,
          "duration": 0.31290260000000103
        },
        {
          "name": "C3",
          "midi": 48,
          "time": 59.999879999999955,
          "velocity": 0.8110236220472441,
          "duration": 0.21612859999999756
        },
        {
          "name": "F#3",
          "midi": 54,
          "time": 60.25794399999995,
          "velocity": 0.7480314960629921,
          "duration": 0.1193546000000012
        },
        {
          "name": "B2",
          "midi": 47,
          "time": 60.386975999999954,
          "velocity": 0.6377952755905512,
          "duration": 0.33225740000000314
        },
        {
          "name": "C#3",
          "midi": 49,
          "time": 60.774071999999954,
          "velocity": 0.7637795275590551,
          "duration": 0.33225740000000314
        },
        {
          "name": "D3",
          "midi": 50,
          "time": 61.161167999999954,
          "velocity": 0.6850393700787402,
          "duration": 0.3258057999999977
        },
        {
          "name": "D#3",
          "midi": 51,
          "time": 61.54826399999995,
          "velocity": 0.7637795275590551,
          "duration": 0.21290280000000195
        },
        {
          "name": "F3",
          "midi": 53,
          "time": 61.80632799999996,
          "velocity": 0.8346456692913385,
          "duration": 0.09999979999999908
        },
        {
          "name": "E3",
          "midi": 52,
          "time": 61.93535999999996,
          "velocity": 0.6377952755905512,
          "duration": 0.3258057999999977
        },
        {
          "name": "D3",
          "midi": 50,
          "time": 62.32245599999996,
          "velocity": 0.6692913385826772,
          "duration": 0.3225800000000021
        },
        {
          "name": "C3",
          "midi": 48,
          "time": 62.70955199999996,
          "velocity": 0.6377952755905512,
          "duration": 0.31290260000000103
        },
        {
          "name": "B2",
          "midi": 47,
          "time": 63.09664799999996,
          "velocity": 0.8031496062992126,
          "duration": 0.21935440000000028
        },
        {
          "name": "E3",
          "midi": 52,
          "time": 63.35471199999996,
          "velocity": 0.7480314960629921,
          "duration": 0.09999979999999908
        },
        {
          "name": "E3",
          "midi": 52,
          "time": 63.48374399999996,
          "velocity": 0.7401574803149606,
          "duration": 0.19354799999999983
        },
        {
          "name": "E2",
          "midi": 40,
          "time": 63.77406599999996,
          "velocity": 0.7874015748031497,
          "duration": 0.03225799999999879
        },
        {
          "name": "F3",
          "midi": 53,
          "time": 63.87083999999996,
          "velocity": 0.6692913385826772,
          "duration": 0.31935420000000647
        },
        {
          "name": "E3",
          "midi": 52,
          "time": 64.25793599999996,
          "velocity": 0.7322834645669292,
          "duration": 0.3258057999999977
        },
        {
          "name": "E3",
          "midi": 52,
          "time": 64.64503199999996,
          "velocity": 0.7637795275590551,
          "duration": 0.3258057999999977
        },
        {
          "name": "A2",
          "midi": 45,
          "time": 65.03212799999996,
          "velocity": 0.7401574803149606,
          "duration": 0.3225800000000021
        },
        {
          "name": "G2",
          "midi": 43,
          "time": 65.41922399999996,
          "velocity": 0.7165354330708661,
          "duration": 0.3290315999999933
        },
        {
          "name": "F#2",
          "midi": 42,
          "time": 65.80631999999996,
          "velocity": 0.6377952755905512,
          "duration": 0.19354800000000694
        },
        {
          "name": "A1",
          "midi": 33,
          "time": 66.09664199999996,
          "velocity": 0.7795275590551181,
          "duration": 0.03225799999999879
        },
        {
          "name": "E2",
          "midi": 40,
          "time": 66.19341599999996,
          "velocity": 0.6850393700787402,
          "duration": 0.22580600000000572
        },
        {
          "name": "A2",
          "midi": 45,
          "time": 66.45147999999996,
          "velocity": 0.7559055118110236,
          "duration": 0.09999980000000619
        },
        {
          "name": "D3",
          "midi": 50,
          "time": 66.58051199999997,
          "velocity": 0.6535433070866141,
          "duration": 0.3225800000000021
        },
        {
          "name": "C3",
          "midi": 48,
          "time": 66.96760799999997,
          "velocity": 0.6771653543307087,
          "duration": 0.3225800000000021
        },
        {
          "name": "B2",
          "midi": 47,
          "time": 67.35470399999997,
          "velocity": 0.6535433070866141,
          "duration": 0.19354800000000694
        },
        {
          "name": "D2",
          "midi": 38,
          "time": 67.64502599999997,
          "velocity": 0.7716535433070866,
          "duration": 0.03225799999999879
        },
        {
          "name": "A2",
          "midi": 45,
          "time": 67.74179999999997,
          "velocity": 0.7559055118110236,
          "duration": 0.2225801999999959
        },
        {
          "name": "D3",
          "midi": 50,
          "time": 67.99986399999996,
          "velocity": 0.7874015748031497,
          "duration": 0.1032256000000018
        },
        {
          "name": "G3",
          "midi": 55,
          "time": 68.12889599999995,
          "velocity": 0.6771653543307087,
          "duration": 0.31935420000000647
        },
        {
          "name": "F#3",
          "midi": 54,
          "time": 68.51599199999995,
          "velocity": 0.7952755905511811,
          "duration": 0.31290260000000103
        },
        {
          "name": "E3",
          "midi": 52,
          "time": 68.90308799999995,
          "velocity": 0.6929133858267716,
          "duration": 0.3258057999999977
        },
        {
          "name": "D3",
          "midi": 50,
          "time": 69.29018399999995,
          "velocity": 0.7716535433070866,
          "duration": 0.22580600000000572
        },
        {
          "name": "C#3",
          "midi": 49,
          "time": 69.54824799999996,
          "velocity": 0.8110236220472441,
          "duration": 0.11290300000000286
        },
        {
          "name": "C3",
          "midi": 48,
          "time": 69.67727999999997,
          "velocity": 0.7086614173228346,
          "duration": 0.31935420000000647
        },
        {
          "name": "B2",
          "midi": 47,
          "time": 70.06437599999997,
          "velocity": 0.7086614173228346,
          "duration": 0.31612839999999665
        },
        {
          "name": "A2",
          "midi": 45,
          "time": 70.45147199999997,
          "velocity": 0.6850393700787402,
          "duration": 0.3225800000000021
        },
        {
          "name": "G2",
          "midi": 43,
          "time": 70.83856799999997,
          "velocity": 0.6771653543307087,
          "duration": 0.21290279999999484
        },
        {
          "name": "C3",
          "midi": 48,
          "time": 71.09663199999996,
          "velocity": 0.8031496062992126,
          "duration": 0.11612879999999848
        },
        {
          "name": "F#3",
          "midi": 54,
          "time": 71.22566399999995,
          "velocity": 0.6220472440944882,
          "duration": 0.19354800000000694
        },
        {
          "name": "F#2",
          "midi": 42,
          "time": 71.51598599999996,
          "velocity": 0.8346456692913385,
          "duration": 0.03225799999999879
        },
        {
          "name": "E3",
          "midi": 52,
          "time": 71.61275999999995,
          "velocity": 0.7874015748031497,
          "duration": 0.3290315999999933
        },
        {
          "name": "D3",
          "midi": 50,
          "time": 71.99985599999995,
          "velocity": 0.5984251968503937,
          "duration": 0.19354800000000694
        },
        {
          "name": "F#2",
          "midi": 42,
          "time": 72.29017799999995,
          "velocity": 0.8661417322834646,
          "duration": 0.03225799999999879
        },
        {
          "name": "C3",
          "midi": 48,
          "time": 72.38695199999995,
          "velocity": 0.8188976377952756,
          "duration": 0.20967699999999923
        },
        {
          "name": "C3",
          "midi": 48,
          "time": 72.64501599999996,
          "velocity": 0.8503937007874016,
          "duration": 0.11612879999999848
        },
        {
          "name": "B2",
          "midi": 47,
          "time": 72.77404799999995,
          "velocity": 0.6062992125984252,
          "duration": 0.3290315999999933
        },
        {
          "name": "C#3",
          "midi": 49,
          "time": 73.16114399999995,
          "velocity": 0.8188976377952756,
          "duration": 0.31612839999999665
        },
        {
          "name": "D3",
          "midi": 50,
          "time": 73.54823999999995,
          "velocity": 0.6692913385826772,
          "duration": 0.3225800000000021
        },
        {
          "name": "D#3",
          "midi": 51,
          "time": 73.93533599999995,
          "velocity": 0.7244094488188977,
          "duration": 0.22580600000000572
        },
        {
          "name": "F3",
          "midi": 53,
          "time": 74.19339999999995,
          "velocity": 0.7952755905511811,
          "duration": 0.10645139999999742
        },
        {
          "name": "E3",
          "midi": 52,
          "time": 74.32243199999995,
          "velocity": 0.7165354330708661,
          "duration": 0.33225740000000314
        },
        {
          "name": "G3",
          "midi": 55,
          "time": 74.70952799999995,
          "velocity": 0.8188976377952756,
          "duration": 0.3225800000000021
        },
        {
          "name": "A3",
          "midi": 57,
          "time": 75.09662399999995,
          "velocity": 0.6692913385826772,
          "duration": 0.31612839999999665
        },
        {
          "name": "A#3",
          "midi": 58,
          "time": 75.48371999999995,
          "velocity": 0.7874015748031497,
          "duration": 0.31935420000000647
        },
        {
          "name": "B3",
          "midi": 59,
          "time": 75.87081599999995,
          "velocity": 0.7007874015748031,
          "duration": 0.31935420000000647
        },
        {
          "name": "D4",
          "midi": 62,
          "time": 76.25791199999995,
          "velocity": 0.7637795275590551,
          "duration": 0.33225740000000314
        },
        {
          "name": "E4",
          "midi": 64,
          "time": 76.64500799999995,
          "velocity": 0.6692913385826772,
          "duration": 0.11612879999999848
        },
        {
          "name": "B3",
          "midi": 59,
          "time": 76.77403999999994,
          "velocity": 0.6377952755905512,
          "duration": 0.1193545999999941
        },
        {
          "name": "G3",
          "midi": 55,
          "time": 76.90307199999994,
          "velocity": 0.8582677165354331,
          "duration": 0.11290300000000286
        },
        {
          "name": "E3",
          "midi": 52,
          "time": 77.03210399999995,
          "velocity": 0.7165354330708661,
          "duration": 0.3290315999999933
        },
        {
          "name": "F#3",
          "midi": 54,
          "time": 77.41919999999995,
          "velocity": 0.5984251968503937,
          "duration": 0.3258057999999977
        },
        {
          "name": "G3",
          "midi": 55,
          "time": 77.80629599999995,
          "velocity": 0.8031496062992126,
          "duration": 0.31290260000000103
        },
        {
          "name": "A3",
          "midi": 57,
          "time": 78.19339199999995,
          "velocity": 0.7007874015748031,
          "duration": 0.3225800000000021
        },
        {
          "name": "A#3",
          "midi": 58,
          "time": 78.58048799999995,
          "velocity": 0.8188976377952756,
          "duration": 0.2064512000000036
        },
        {
          "name": "C3",
          "midi": 48,
          "time": 78.83855199999995,
          "velocity": 0.8110236220472441,
          "duration": 0.1032256000000018
        },
        {
          "name": "B2",
          "midi": 47,
          "time": 78.96758399999995,
          "velocity": 0.7401574803149606,
          "duration": 0.31290260000000103
        },
        {
          "name": "A2",
          "midi": 45,
          "time": 79.35467999999995,
          "velocity": 0.7322834645669292,
          "duration": 0.3258057999999977
        },
        {
          "name": "G2",
          "midi": 43,
          "time": 79.74177599999994,
          "velocity": 0.6141732283464567,
          "duration": 0.3225800000000021
        },
        {
          "name": "F#2",
          "midi": 42,
          "time": 80.12887199999994,
          "velocity": 0.7480314960629921,
          "duration": 0.21935440000000028
        },
        {
          "name": "B2",
          "midi": 47,
          "time": 80.38693599999995,
          "velocity": 0.7952755905511811,
          "duration": 0.11612879999999848
        },
        {
          "name": "E4",
          "midi": 64,
          "time": 80.51596799999994,
          "velocity": 0.7322834645669292,
          "duration": 0.11290300000000286
        },
        {
          "name": "B3",
          "midi": 59,
          "time": 80.64499999999995,
          "velocity": 0.5669291338582677,
          "duration": 0.1032256000000018
        },
        {
          "name": "E3",
          "midi": 52,
          "time": 80.77403199999995,
          "velocity": 0.7952755905511811,
          "duration": 0.09999980000000619
        },
        {
          "name": "G3",
          "midi": 55,
          "time": 80.90306399999996,
          "velocity": 0.6929133858267716,
          "duration": 0.33225740000000314
        },
        {
          "name": "A3",
          "midi": 57,
          "time": 81.29015999999996,
          "velocity": 0.6141732283464567,
          "duration": 0.33225740000000314
        },
        {
          "name": "A#3",
          "midi": 58,
          "time": 81.67725599999996,
          "velocity": 0.7086614173228346,
          "duration": 0.31612839999999665
        },
        {
          "name": "B3",
          "midi": 59,
          "time": 82.06435199999996,
          "velocity": 0.7007874015748031,
          "duration": 0.21612860000000467
        },
        {
          "name": "F#3",
          "midi": 54,
          "time": 82.32241599999996,
          "velocity": 0.8346456692913385,
          "duration": 0.1193545999999941
        },
        {
          "name": "D#3",
          "midi": 51,
          "time": 82.45144799999996,
          "velocity": 0.7952755905511811,
          "duration": 0.33225740000000314
        },
        {
          "name": "E3",
          "midi": 52,
          "time": 82.83854399999996,
          "velocity": 0.6456692913385826,
          "duration": 0.31612839999999665
        },
        {
          "name": "E3",
          "midi": 52,
          "time": 83.22563999999996,
          "velocity": 0.7007874015748031,
          "duration": 0.3225800000000021
        },
        {
          "name": "A2",
          "midi": 45,
          "time": 83.61273599999996,
          "velocity": 0.5984251968503937,
          "duration": 0.31935420000000647
        },
        {
          "name": "B2",
          "midi": 47,
          "time": 83.99983199999996,
          "velocity": 0.7559055118110236,
          "duration": 0.3258057999999977
        },
        {
          "name": "C3",
          "midi": 48,
          "time": 84.38692799999995,
          "velocity": 0.6220472440944882,
          "duration": 0.3225800000000021
        },
        {
          "name": "C#3",
          "midi": 49,
          "time": 84.77402399999995,
          "velocity": 0.7559055118110236,
          "duration": 0.21612860000000467
        },
        {
          "name": "D#3",
          "midi": 51,
          "time": 85.03208799999996,
          "velocity": 0.7795275590551181,
          "duration": 0.10645139999999742
        },
        {
          "name": "D3",
          "midi": 50,
          "time": 85.16111999999995,
          "velocity": 0.6535433070866141,
          "duration": 0.31290260000000103
        },
        {
          "name": "E3",
          "midi": 52,
          "time": 85.54821599999995,
          "velocity": 0.7952755905511811,
          "duration": 0.31935420000000647
        },
        {
          "name": "F3",
          "midi": 53,
          "time": 85.93531199999995,
          "velocity": 0.6299212598425197,
          "duration": 0.3225800000000021
        },
        {
          "name": "F#3",
          "midi": 54,
          "time": 86.32240799999995,
          "velocity": 0.8188976377952756,
          "duration": 0.21935440000000028
        },
        {
          "name": "D3",
          "midi": 50,
          "time": 86.58047199999996,
          "velocity": 0.8188976377952756,
          "duration": 0.11612879999999848
        },
        {
          "name": "G4",
          "midi": 67,
          "time": 86.70950399999995,
          "velocity": 0.7165354330708661,
          "duration": 0.11612879999999848
        },
        {
          "name": "D4",
          "midi": 62,
          "time": 86.83853599999995,
          "velocity": 0.5905511811023622,
          "duration": 0.1193545999999941
        },
        {
          "name": "G3",
          "midi": 55,
          "time": 86.96756799999994,
          "velocity": 0.7559055118110236,
          "duration": 0.1193545999999941
        },
        {
          "name": "B3",
          "midi": 59,
          "time": 87.09659999999994,
          "velocity": 0.7952755905511811,
          "duration": 0.3290315999999933
        },
        {
          "name": "C4",
          "midi": 60,
          "time": 87.48369599999994,
          "velocity": 0.7086614173228346,
          "duration": 0.3290315999999933
        },
        {
          "name": "C#4",
          "midi": 61,
          "time": 87.87079199999994,
          "velocity": 0.7086614173228346,
          "duration": 0.3258057999999977
        },
        {
          "name": "D4",
          "midi": 62,
          "time": 88.25788799999994,
          "velocity": 0.7401574803149606,
          "duration": 0.2064512000000036
        },
        {
          "name": "A3",
          "midi": 57,
          "time": 88.51595199999994,
          "velocity": 0.7716535433070866,
          "duration": 0.09999980000000619
        },
        {
          "name": "F#3",
          "midi": 54,
          "time": 88.64498399999995,
          "velocity": 0.7716535433070866,
          "duration": 0.3290315999999933
        },
        {
          "name": "G3",
          "midi": 55,
          "time": 89.03207999999995,
          "velocity": 0.7007874015748031,
          "duration": 0.19354800000000694
        },
        {
          "name": "G2",
          "midi": 43,
          "time": 89.32240199999995,
          "velocity": 0.8267716535433071,
          "duration": 0.03225799999999879
        },
        {
          "name": "G3",
          "midi": 55,
          "time": 89.41917599999995,
          "velocity": 0.7007874015748031,
          "duration": 0.3225800000000021
        },
        {
          "name": "F#3",
          "midi": 54,
          "time": 89.80627199999995,
          "velocity": 0.6141732283464567,
          "duration": 0.3225800000000021
        },
        {
          "name": "G3",
          "midi": 55,
          "time": 90.19336799999995,
          "velocity": 0.7480314960629921,
          "duration": 0.3225800000000021
        },
        {
          "name": "A3",
          "midi": 57,
          "time": 90.58046399999995,
          "velocity": 0.6220472440944882,
          "duration": 0.19354800000000694
        },
        {
          "name": "F#2",
          "midi": 42,
          "time": 90.87078599999995,
          "velocity": 0.7952755905511811,
          "duration": 0.03225799999999879
        },
        {
          "name": "A#3",
          "midi": 58,
          "time": 90.96755999999995,
          "velocity": 0.8110236220472441,
          "duration": 0.21612860000000467
        },
        {
          "name": "C3",
          "midi": 48,
          "time": 91.22562399999995,
          "velocity": 0.7874015748031497,
          "duration": 0.10645139999999742
        },
        {
          "name": "B2",
          "midi": 47,
          "time": 91.35465599999995,
          "velocity": 0.6614173228346457,
          "duration": 0.3258057999999977
        },
        {
          "name": "A2",
          "midi": 45,
          "time": 91.74175199999995,
          "velocity": 0.6929133858267716,
          "duration": 0.31290260000000103
        },
        {
          "name": "G2",
          "midi": 43,
          "time": 92.12884799999995,
          "velocity": 0.5984251968503937,
          "duration": 0.3258057999999977
        },
        {
          "name": "F#2",
          "midi": 42,
          "time": 92.51594399999995,
          "velocity": 0.7559055118110236,
          "duration": 0.21935440000000028
        },
        {
          "name": "F3",
          "midi": 53,
          "time": 92.77400799999995,
          "velocity": 0.7637795275590551,
          "duration": 0.10645139999999742
        },
        {
          "name": "E3",
          "midi": 52,
          "time": 92.90303999999995,
          "velocity": 0.7007874015748031,
          "duration": 0.33225740000000314
        },
        {
          "name": "B3",
          "midi": 59,
          "time": 93.29013599999995,
          "velocity": 0.7480314960629921,
          "duration": 0.21935440000000028
        },
        {
          "name": "E3",
          "midi": 52,
          "time": 93.54819999999995,
          "velocity": 0.7637795275590551,
          "duration": 0.11290300000000286
        },
        {
          "name": "D#3",
          "midi": 51,
          "time": 93.67723199999996,
          "velocity": 0.6929133858267716,
          "duration": 0.31612839999999665
        },
        {
          "name": "G3",
          "midi": 55,
          "time": 94.06432799999996,
          "velocity": 0.7401574803149606,
          "duration": 0.2064512000000036
        },
        {
          "name": "D#3",
          "midi": 51,
          "time": 94.32239199999997,
          "velocity": 0.8740157480314961,
          "duration": 0.09999980000000619
        },
        {
          "name": "D3",
          "midi": 50,
          "time": 94.45142399999997,
          "velocity": 0.7086614173228346,
          "duration": 0.33225740000000314
        },
        {
          "name": "D3",
          "midi": 50,
          "time": 94.83851999999997,
          "velocity": 0.7637795275590551,
          "duration": 0.31612839999999665
        },
        {
          "name": "C#3",
          "midi": 49,
          "time": 95.22561599999997,
          "velocity": 0.5984251968503937,
          "duration": 0.3258057999999977
        },
        {
          "name": "C#3",
          "midi": 49,
          "time": 95.61271199999997,
          "velocity": 0.8031496062992126,
          "duration": 0.3290315999999933
        },
        {
          "name": "C3",
          "midi": 48,
          "time": 95.99980799999997,
          "velocity": 0.5905511811023622,
          "duration": 0.3290315999999933
        },
        {
          "name": "B2",
          "midi": 47,
          "time": 96.38690399999997,
          "velocity": 0.6929133858267716,
          "duration": 0.33225740000000314
        },
        {
          "name": "A2",
          "midi": 45,
          "time": 96.77399999999997,
          "velocity": 0.6377952755905512,
          "duration": 0.31612839999999665
        },
        {
          "name": "G2",
          "midi": 43,
          "time": 97.16109599999997,
          "velocity": 0.7795275590551181,
          "duration": 0.20967699999999923
        },
        {
          "name": "C3",
          "midi": 48,
          "time": 97.41915999999998,
          "velocity": 0.7952755905511811,
          "duration": 0.1193545999999941
        },
        {
          "name": "F#3",
          "midi": 54,
          "time": 97.54819199999997,
          "velocity": 0.6141732283464567,
          "duration": 0.31935420000000647
        },
        {
          "name": "A3",
          "midi": 57,
          "time": 97.93528799999997,
          "velocity": 0.8031496062992126,
          "duration": 0.21290279999999484
        },
        {
          "name": "F#3",
          "midi": 54,
          "time": 98.19335199999996,
          "velocity": 0.8188976377952756,
          "duration": 0.10967719999999304
        },
        {
          "name": "B2",
          "midi": 47,
          "time": 98.32238399999996,
          "velocity": 0.6535433070866141,
          "duration": 0.19354800000000694
        },
        {
          "name": "B1",
          "midi": 35,
          "time": 98.61270599999996,
          "velocity": 0.8267716535433071,
          "duration": 0.03225799999999879
        },
        {
          "name": "B2",
          "midi": 47,
          "time": 98.70947999999996,
          "velocity": 0.6771653543307087,
          "duration": 0.2064512000000036
        },
        {
          "name": "F3",
          "midi": 53,
          "time": 98.96754399999996,
          "velocity": 0.8740157480314961,
          "duration": 0.10967719999999304
        },
        {
          "name": "G4",
          "midi": 67,
          "time": 99.09657599999996,
          "velocity": 0.6614173228346457,
          "duration": 0.31612839999999665
        },
        {
          "name": "F#4",
          "midi": 66,
          "time": 99.48367199999996,
          "velocity": 0.7480314960629921,
          "duration": 0.3258057999999977
        },
        {
          "name": "F4",
          "midi": 65,
          "time": 99.87076799999996,
          "velocity": 0.6850393700787402,
          "duration": 0.3225800000000021
        },
        {
          "name": "E4",
          "midi": 64,
          "time": 100.25786399999996,
          "velocity": 0.7322834645669292,
          "duration": 0.31612839999999665
        },
        {
          "name": "E4",
          "midi": 64,
          "time": 100.64495999999995,
          "velocity": 0.6692913385826772,
          "duration": 0.1032256000000018
        },
        {
          "name": "B3",
          "midi": 59,
          "time": 100.77399199999995,
          "velocity": 0.6062992125984252,
          "duration": 0.09999980000000619
        },
        {
          "name": "G3",
          "midi": 55,
          "time": 100.90302399999996,
          "velocity": 0.8346456692913385,
          "duration": 0.11612879999999848
        },
        {
          "name": "D#3",
          "midi": 51,
          "time": 101.03205599999995,
          "velocity": 0.6929133858267716,
          "duration": 0.31612839999999665
        },
        {
          "name": "E3",
          "midi": 52,
          "time": 101.41915199999995,
          "velocity": 0.6929133858267716,
          "duration": 0.3290315999999933
        },
        {
          "name": "A#2",
          "midi": 46,
          "time": 101.80624799999995,
          "velocity": 0.7165354330708661,
          "duration": 0.20967699999999923
        },
        {
          "name": "G#2",
          "midi": 44,
          "time": 102.06431199999996,
          "velocity": 0.8661417322834646,
          "duration": 0.09999980000000619
        },
        {
          "name": "A2",
          "midi": 45,
          "time": 102.19334399999997,
          "velocity": 0.5196850393700787,
          "duration": 0.5806440000000066
        },
        {
          "name": "E3",
          "midi": 52,
          "time": 102.96753599999998,
          "velocity": 0.6850393700787402,
          "duration": 0.5806440000000066
        },
        {
          "name": "D3",
          "midi": 50,
          "time": 103.741728,
          "velocity": 0.5275590551181102,
          "duration": 0.5806440000000066
        },
        {
          "name": "A3",
          "midi": 57,
          "time": 104.51592000000001,
          "velocity": 0.6220472440944882,
          "duration": 0.5806440000000066
        },
        {
          "name": "G3",
          "midi": 55,
          "time": 105.29011200000002,
          "velocity": 0.5039370078740157,
          "duration": 0.5806440000000066
        },
        {
          "name": "D4",
          "midi": 62,
          "time": 106.06430400000004,
          "velocity": 0.6299212598425197,
          "duration": 0.5806440000000066
        },
        {
          "name": "C3",
          "midi": 48,
          "time": 106.83849600000005,
          "velocity": 0.47244094488188976,
          "duration": 0.5806440000000066
        },
        {
          "name": "G3",
          "midi": 55,
          "time": 107.61268800000006,
          "velocity": 0.5984251968503937,
          "duration": 0.5806440000000066
        },
        {
          "name": "F#3",
          "midi": 54,
          "time": 108.38688000000008,
          "velocity": 0.5826771653543307,
          "duration": 0.5806440000000066
        },
        {
          "name": "C3",
          "midi": 48,
          "time": 109.16107200000009,
          "velocity": 0.6614173228346457,
          "duration": 0.5806440000000066
        },
        {
          "name": "B2",
          "midi": 47,
          "time": 109.9352640000001,
          "velocity": 0.5669291338582677,
          "duration": 0.5806440000000066
        },
        {
          "name": "F#2",
          "midi": 42,
          "time": 110.70945600000012,
          "velocity": 0.6456692913385826,
          "duration": 0.5806440000000066
        },
        {
          "name": "E3",
          "midi": 52,
          "time": 111.48364800000013,
          "velocity": 0.5669291338582677,
          "duration": 0.5806440000000066
        },
        {
          "name": "B2",
          "midi": 47,
          "time": 112.25784000000014,
          "velocity": 0.6535433070866141,
          "duration": 0.5806440000000066
        },
        {
          "name": "E3",
          "midi": 52,
          "time": 113.03203200000016,
          "velocity": 0.5275590551181102,
          "duration": 0.5806440000000066
        },
        {
          "name": "E3",
          "midi": 52,
          "time": 113.80622400000017,
          "velocity": 0.6692913385826772,
          "duration": 0.5806440000000066
        },
        {
          "name": "A2",
          "midi": 45,
          "time": 114.58041600000018,
          "velocity": 0.5511811023622047,
          "duration": 0.5806440000000066
        },
        {
          "name": "E2",
          "midi": 40,
          "time": 115.3546080000002,
          "velocity": 0.6377952755905512,
          "duration": 0.5806440000000066
        },
        {
          "name": "D3",
          "midi": 50,
          "time": 116.12880000000021,
          "velocity": 0.5354330708661418,
          "duration": 0.5806440000000066
        },
        {
          "name": "A3",
          "midi": 57,
          "time": 116.90299200000022,
          "velocity": 0.6456692913385826,
          "duration": 0.5806440000000066
        },
        {
          "name": "G3",
          "midi": 55,
          "time": 117.67718400000024,
          "velocity": 0.5433070866141733,
          "duration": 0.5806440000000066
        },
        {
          "name": "D4",
          "midi": 62,
          "time": 118.45137600000025,
          "velocity": 0.5905511811023622,
          "duration": 0.5806440000000066
        },
        {
          "name": "C3",
          "midi": 48,
          "time": 119.22556800000027,
          "velocity": 0.5669291338582677,
          "duration": 0.5806440000000066
        },
        {
          "name": "G3",
          "midi": 55,
          "time": 119.99976000000028,
          "velocity": 0.6062992125984252,
          "duration": 0.5806440000000066
        },
        {
          "name": "F#3",
          "midi": 54,
          "time": 120.77395200000029,
          "velocity": 0.5433070866141733,
          "duration": 0.5806440000000066
        },
        {
          "name": "C3",
          "midi": 48,
          "time": 121.5481440000003,
          "velocity": 0.7244094488188977,
          "duration": 0.5806440000000066
        },
        {
          "name": "B2",
          "midi": 47,
          "time": 122.32233600000032,
          "velocity": 0.5275590551181102,
          "duration": 0.5806440000000066
        },
        {
          "name": "F#3",
          "midi": 54,
          "time": 123.09652800000033,
          "velocity": 0.6456692913385826,
          "duration": 0.5806440000000066
        },
        {
          "name": "E3",
          "midi": 52,
          "time": 123.87072000000035,
          "velocity": 0.5826771653543307,
          "duration": 0.5806440000000066
        },
        {
          "name": "B2",
          "midi": 47,
          "time": 124.64491200000036,
          "velocity": 0.5984251968503937,
          "duration": 0.5806440000000066
        },
        {
          "name": "E3",
          "midi": 52,
          "time": 125.41910400000037,
          "velocity": 0.48031496062992124,
          "duration": 0.5806440000000066
        },
        {
          "name": "B2",
          "midi": 47,
          "time": 126.19329600000039,
          "velocity": 0.7401574803149606,
          "duration": 0.5806440000000066
        },
        {
          "name": "F#3",
          "midi": 54,
          "time": 126.9674880000004,
          "velocity": 0.6141732283464567,
          "duration": 0.19354800000000694
        },
        {
          "name": "F#2",
          "midi": 42,
          "time": 127.2578100000004,
          "velocity": 0.8031496062992126,
          "duration": 0.03225799999999879
        },
        {
          "name": "E3",
          "midi": 52,
          "time": 127.3545840000004,
          "velocity": 0.7874015748031497,
          "duration": 0.31290260000000103
        },
        {
          "name": "D3",
          "midi": 50,
          "time": 127.7416800000004,
          "velocity": 0.6220472440944882,
          "duration": 0.31290260000000103
        },
        {
          "name": "C3",
          "midi": 48,
          "time": 128.1287760000004,
          "velocity": 0.8110236220472441,
          "duration": 0.20967699999999923
        },
        {
          "name": "F#3",
          "midi": 54,
          "time": 128.3868400000004,
          "velocity": 0.7874015748031497,
          "duration": 0.11612880000001269
        },
        {
          "name": "B2",
          "midi": 47,
          "time": 128.51587200000043,
          "velocity": 0.7322834645669292,
          "duration": 0.3225799999999879
        },
        {
          "name": "A2",
          "midi": 45,
          "time": 128.9029680000004,
          "velocity": 0.8110236220472441,
          "duration": 0.31935419999999226
        },
        {
          "name": "G2",
          "midi": 43,
          "time": 129.2900640000004,
          "velocity": 0.6692913385826772,
          "duration": 0.33225740000000314
        },
        {
          "name": "F#2",
          "midi": 42,
          "time": 129.6771600000004,
          "velocity": 0.6850393700787402,
          "duration": 0.2064512000000036
        },
        {
          "name": "F3",
          "midi": 53,
          "time": 129.9352240000004,
          "velocity": 0.8110236220472441,
          "duration": 0.10645139999999742
        },
        {
          "name": "E3",
          "midi": 52,
          "time": 130.0642560000004,
          "velocity": 0.7401574803149606,
          "duration": 0.3258058000000119
        },
        {
          "name": "G3",
          "midi": 55,
          "time": 130.4513520000004,
          "velocity": 0.7795275590551181,
          "duration": 0.31612839999999665
        },
        {
          "name": "A3",
          "midi": 57,
          "time": 130.8384480000004,
          "velocity": 0.7165354330708661,
          "duration": 0.19354799999999273
        },
        {
          "name": "E2",
          "midi": 40,
          "time": 131.1287700000004,
          "velocity": 0.8346456692913385,
          "duration": 0.032258000000013
        },
        {
          "name": "A#3",
          "midi": 58,
          "time": 131.2255440000004,
          "velocity": 0.7559055118110236,
          "duration": 0.31612839999999665
        },
        {
          "name": "B3",
          "midi": 59,
          "time": 131.6126400000004,
          "velocity": 0.6141732283464567,
          "duration": 0.3225799999999879
        },
        {
          "name": "D4",
          "midi": 62,
          "time": 131.99973600000038,
          "velocity": 0.7952755905511811,
          "duration": 0.31612839999999665
        },
        {
          "name": "E4",
          "midi": 64,
          "time": 132.38683200000037,
          "velocity": 0.6929133858267716,
          "duration": 0.21612859999999046
        },
        {
          "name": "B3",
          "midi": 59,
          "time": 132.64489600000036,
          "velocity": 0.8346456692913385,
          "duration": 0.09999980000000619
        },
        {
          "name": "E3",
          "midi": 52,
          "time": 132.77392800000035,
          "velocity": 0.7322834645669292,
          "duration": 0.22580600000000572
        },
        {
          "name": "A#2",
          "midi": 46,
          "time": 133.03199200000037,
          "velocity": 0.7716535433070866,
          "duration": 0.10645139999999742
        },
        {
          "name": "A2",
          "midi": 45,
          "time": 133.16102400000037,
          "velocity": 0.6062992125984252,
          "duration": 0.33225740000000314
        },
        {
          "name": "G2",
          "midi": 43,
          "time": 133.54812000000038,
          "velocity": 0.7637795275590551,
          "duration": 0.3225799999999879
        },
        {
          "name": "F#2",
          "midi": 42,
          "time": 133.93521600000037,
          "velocity": 0.7165354330708661,
          "duration": 0.31290260000000103
        },
        {
          "name": "E2",
          "midi": 40,
          "time": 134.32231200000038,
          "velocity": 0.7244094488188977,
          "duration": 0.20967699999999923
        },
        {
          "name": "A2",
          "midi": 45,
          "time": 134.58037600000037,
          "velocity": 0.7716535433070866,
          "duration": 0.09999980000000619
        },
        {
          "name": "D3",
          "midi": 50,
          "time": 134.70940800000037,
          "velocity": 0.6062992125984252,
          "duration": 0.31612839999999665
        },
        {
          "name": "E3",
          "midi": 52,
          "time": 135.09650400000035,
          "velocity": 0.7244094488188977,
          "duration": 0.3258058000000119
        },
        {
          "name": "F3",
          "midi": 53,
          "time": 135.48360000000037,
          "velocity": 0.6614173228346457,
          "duration": 0.32903160000000753
        },
        {
          "name": "F#3",
          "midi": 54,
          "time": 135.87069600000038,
          "velocity": 0.6929133858267716,
          "duration": 0.2225802000000101
        },
        {
          "name": "G#3",
          "midi": 56,
          "time": 136.1287600000004,
          "velocity": 0.7637795275590551,
          "duration": 0.10645139999999742
        },
        {
          "name": "G3",
          "midi": 55,
          "time": 136.2577920000004,
          "velocity": 0.6614173228346457,
          "duration": 0.31290260000000103
        },
        {
          "name": "B3",
          "midi": 59,
          "time": 136.6448880000004,
          "velocity": 0.6692913385826772,
          "duration": 0.33225740000000314
        },
        {
          "name": "C4",
          "midi": 60,
          "time": 137.03198400000042,
          "velocity": 0.6299212598425197,
          "duration": 0.31290260000000103
        },
        {
          "name": "C#4",
          "midi": 61,
          "time": 137.41908000000043,
          "velocity": 0.7716535433070866,
          "duration": 0.31612839999999665
        },
        {
          "name": "D4",
          "midi": 62,
          "time": 137.80617600000042,
          "velocity": 0.6220472440944882,
          "duration": 0.2225802000000101
        },
        {
          "name": "A3",
          "midi": 57,
          "time": 138.06424000000044,
          "velocity": 0.8188976377952756,
          "duration": 0.1193546000000083
        },
        {
          "name": "F#3",
          "midi": 54,
          "time": 138.19327200000043,
          "velocity": 0.6692913385826772,
          "duration": 0.3258058000000119
        },
        {
          "name": "G3",
          "midi": 55,
          "time": 138.58036800000045,
          "velocity": 0.6141732283464567,
          "duration": 0.19354799999999273
        },
        {
          "name": "G2",
          "midi": 43,
          "time": 138.87069000000045,
          "velocity": 0.8346456692913385,
          "duration": 0.032258000000013
        },
        {
          "name": "G3",
          "midi": 55,
          "time": 138.96746400000046,
          "velocity": 0.6929133858267716,
          "duration": 0.21935439999998607
        },
        {
          "name": "G3",
          "midi": 55,
          "time": 139.22552800000045,
          "velocity": 0.8031496062992126,
          "duration": 0.10967719999999304
        },
        {
          "name": "F#3",
          "midi": 54,
          "time": 139.35456000000045,
          "velocity": 0.5590551181102362,
          "duration": 0.5806440000000066
        },
        {
          "name": "C3",
          "midi": 48,
          "time": 140.12875200000045,
          "velocity": 0.7322834645669292,
          "duration": 0.5806440000000066
        },
        {
          "name": "B2",
          "midi": 47,
          "time": 140.90294400000045,
          "velocity": 0.49606299212598426,
          "duration": 0.5806440000000066
        },
        {
          "name": "F#2",
          "midi": 42,
          "time": 141.67713600000044,
          "velocity": 0.6929133858267716,
          "duration": 0.5806440000000066
        },
        {
          "name": "E3",
          "midi": 52,
          "time": 142.45132800000044,
          "velocity": 0.5905511811023622,
          "duration": 0.5806440000000066
        },
        {
          "name": "D#3",
          "midi": 51,
          "time": 143.22552000000044,
          "velocity": 0.6220472440944882,
          "duration": 0.5806440000000066
        },
        {
          "name": "D3",
          "midi": 50,
          "time": 143.99971200000044,
          "velocity": 0.6062992125984252,
          "duration": 0.5806440000000066
        },
        {
          "name": "C#3",
          "midi": 49,
          "time": 144.77390400000044,
          "velocity": 0.7165354330708661,
          "duration": 0.5806440000000066
        },
        {
          "name": "C3",
          "midi": 48,
          "time": 145.54809600000044,
          "velocity": 0.6141732283464567,
          "duration": 0.5806440000000066
        },
        {
          "name": "G2",
          "midi": 43,
          "time": 146.32228800000044,
          "velocity": 0.6771653543307087,
          "duration": 0.5806440000000066
        },
        {
          "name": "F#3",
          "midi": 54,
          "time": 147.09648000000044,
          "velocity": 0.48031496062992124,
          "duration": 0.5806440000000066
        },
        {
          "name": "B2",
          "midi": 47,
          "time": 147.87067200000044,
          "velocity": 0.6771653543307087,
          "duration": 0.5806440000000066
        },
        {
          "name": "E3",
          "midi": 52,
          "time": 148.64486400000044,
          "velocity": 0.5511811023622047,
          "duration": 0.5806440000000066
        },
        {
          "name": "B2",
          "midi": 47,
          "time": 149.41905600000044,
          "velocity": 0.7322834645669292,
          "duration": 0.5806440000000066
        },
        {
          "name": "E3",
          "midi": 52,
          "time": 150.19324800000044,
          "velocity": 0.5511811023622047,
          "duration": 0.5806440000000066
        },
        {
          "name": "B2",
          "midi": 47,
          "time": 150.96744000000044,
          "velocity": 0.6535433070866141,
          "duration": 0.5806440000000066
        }
      ],
      "controlChanges": {},
      "id": 1,
      "channelNumber": 1,
      "isPercussion": false
    },
    {
      "startTime": 0,
      "duration": 151.7416319999993,
      "length": 874,
      "notes": [
        {
          "name": "C#2",
          "midi": 37,
          "time": 0,
          "velocity": 0.6614173228346457,
          "duration": 0.387096
        },
        {
          "name": "C#2",
          "midi": 37,
          "time": 0.774192,
          "velocity": 0.6614173228346457,
          "duration": 0.3870959999999999
        },
        {
          "name": "C#2",
          "midi": 37,
          "time": 1.548384,
          "velocity": 0.5039370078740157,
          "duration": 0.3870960000000001
        },
        {
          "name": "C#2",
          "midi": 37,
          "time": 1.93548,
          "velocity": 0.6614173228346457,
          "duration": 0.3870960000000001
        },
        {
          "name": "C#2",
          "midi": 37,
          "time": 2.322576,
          "velocity": 0.5039370078740157,
          "duration": 0.3870960000000001
        },
        {
          "name": "C#2",
          "midi": 37,
          "time": 2.7096720000000003,
          "velocity": 0.6614173228346457,
          "duration": 0.3870960000000001
        },
        {
          "name": "F#2",
          "midi": 42,
          "time": 3.0967680000000004,
          "velocity": 0.7086614173228346,
          "duration": 0.3870960000000001
        },
        {
          "name": "F#2",
          "midi": 42,
          "time": 3.4838640000000005,
          "velocity": 0.7874015748031497,
          "duration": 0.25806400000000007
        },
        {
          "name": "C#2",
          "midi": 37,
          "time": 3.4838640000000005,
          "velocity": 0.5826771653543307,
          "duration": 0.25806400000000007
        },
        {
          "name": "F#2",
          "midi": 42,
          "time": 3.7419280000000006,
          "velocity": 0.6299212598425197,
          "duration": 0.12903200000000004
        },
        {
          "name": "F#2",
          "midi": 42,
          "time": 3.8709600000000006,
          "velocity": 0.7086614173228346,
          "duration": 0.2580639999999996
        },
        {
          "name": "F#2",
          "midi": 42,
          "time": 4.258056,
          "velocity": 0.7874015748031497,
          "duration": 0.25806400000000007
        },
        {
          "name": "C#2",
          "midi": 37,
          "time": 4.258056,
          "velocity": 0.5826771653543307,
          "duration": 0.25806400000000007
        },
        {
          "name": "F#2",
          "midi": 42,
          "time": 4.51612,
          "velocity": 0.6299212598425197,
          "duration": 0.1290319999999996
        },
        {
          "name": "F#2",
          "midi": 42,
          "time": 4.6451519999999995,
          "velocity": 0.7086614173228346,
          "duration": 0.38709599999999966
        },
        {
          "name": "F#2",
          "midi": 42,
          "time": 5.032247999999999,
          "velocity": 0.7874015748031497,
          "duration": 0.25806400000000007
        },
        {
          "name": "C#2",
          "midi": 37,
          "time": 5.032247999999999,
          "velocity": 0.5826771653543307,
          "duration": 0.25806400000000007
        },
        {
          "name": "F#2",
          "midi": 42,
          "time": 5.290311999999999,
          "velocity": 0.6299212598425197,
          "duration": 0.1290319999999996
        },
        {
          "name": "F#2",
          "midi": 42,
          "time": 5.419343999999999,
          "velocity": 0.7086614173228346,
          "duration": 0.25806400000000007
        },
        {
          "name": "A#2",
          "midi": 46,
          "time": 5.677407999999999,
          "velocity": 0.7086614173228346,
          "duration": 0.1290319999999996
        },
        {
          "name": "F#2",
          "midi": 42,
          "time": 5.8064399999999985,
          "velocity": 0.7874015748031497,
          "duration": 0.25806400000000007
        },
        {
          "name": "C#2",
          "midi": 37,
          "time": 5.8064399999999985,
          "velocity": 0.5826771653543307,
          "duration": 0.25806400000000007
        },
        {
          "name": "F#2",
          "midi": 42,
          "time": 6.064503999999999,
          "velocity": 0.6299212598425197,
          "duration": 0.1290319999999996
        },
        {
          "name": "F#2",
          "midi": 42,
          "time": 6.193535999999998,
          "velocity": 0.7086614173228346,
          "duration": 0.38709599999999966
        },
        {
          "name": "F#2",
          "midi": 42,
          "time": 6.580631999999998,
          "velocity": 0.7874015748031497,
          "duration": 0.25806400000000007
        },
        {
          "name": "C#2",
          "midi": 37,
          "time": 6.580631999999998,
          "velocity": 0.5826771653543307,
          "duration": 0.25806400000000007
        },
        {
          "name": "F#2",
          "midi": 42,
          "time": 6.838695999999998,
          "velocity": 0.6299212598425197,
          "duration": 0.1290319999999996
        },
        {
          "name": "F#2",
          "midi": 42,
          "time": 6.9677279999999975,
          "velocity": 0.7086614173228346,
          "duration": 0.25806400000000007
        },
        {
          "name": "F#2",
          "midi": 42,
          "time": 7.354823999999997,
          "velocity": 0.7874015748031497,
          "duration": 0.25806400000000007
        },
        {
          "name": "C#2",
          "midi": 37,
          "time": 7.354823999999997,
          "velocity": 0.5826771653543307,
          "duration": 0.25806400000000007
        },
        {
          "name": "F#2",
          "midi": 42,
          "time": 7.612887999999997,
          "velocity": 0.6299212598425197,
          "duration": 0.1290319999999996
        },
        {
          "name": "F#2",
          "midi": 42,
          "time": 7.741919999999997,
          "velocity": 0.7086614173228346,
          "duration": 0.38709599999999966
        },
        {
          "name": "F#2",
          "midi": 42,
          "time": 8.129015999999996,
          "velocity": 0.7874015748031497,
          "duration": 0.2580639999999992
        },
        {
          "name": "C#2",
          "midi": 37,
          "time": 8.129015999999996,
          "velocity": 0.5826771653543307,
          "duration": 0.2580639999999992
        },
        {
          "name": "F#2",
          "midi": 42,
          "time": 8.387079999999996,
          "velocity": 0.6299212598425197,
          "duration": 0.12903200000000048
        },
        {
          "name": "F#2",
          "midi": 42,
          "time": 8.516111999999996,
          "velocity": 0.7086614173228346,
          "duration": 0.2580639999999992
        },
        {
          "name": "F#2",
          "midi": 42,
          "time": 8.774175999999995,
          "velocity": 0.7086614173228346,
          "duration": 0.12903200000000048
        },
        {
          "name": "F#2",
          "midi": 42,
          "time": 8.903207999999996,
          "velocity": 0.7874015748031497,
          "duration": 0.2580639999999992
        },
        {
          "name": "C#2",
          "midi": 37,
          "time": 8.903207999999996,
          "velocity": 0.5826771653543307,
          "duration": 0.2580639999999992
        },
        {
          "name": "F#2",
          "midi": 42,
          "time": 9.161271999999995,
          "velocity": 0.6299212598425197,
          "duration": 0.12903200000000048
        },
        {
          "name": "F#2",
          "midi": 42,
          "time": 9.290303999999995,
          "velocity": 0.7086614173228346,
          "duration": 0.38709599999999966
        },
        {
          "name": "F#2",
          "midi": 42,
          "time": 9.677399999999995,
          "velocity": 0.7874015748031497,
          "duration": 0.2580639999999992
        },
        {
          "name": "C#2",
          "midi": 37,
          "time": 9.677399999999995,
          "velocity": 0.5826771653543307,
          "duration": 0.2580639999999992
        },
        {
          "name": "F#2",
          "midi": 42,
          "time": 9.935463999999994,
          "velocity": 0.6299212598425197,
          "duration": 0.12903200000000048
        },
        {
          "name": "F#2",
          "midi": 42,
          "time": 10.064495999999995,
          "velocity": 0.7086614173228346,
          "duration": 0.2580639999999992
        },
        {
          "name": "F#2",
          "midi": 42,
          "time": 10.451591999999994,
          "velocity": 0.7874015748031497,
          "duration": 0.2580639999999992
        },
        {
          "name": "C#2",
          "midi": 37,
          "time": 10.451591999999994,
          "velocity": 0.5826771653543307,
          "duration": 0.2580639999999992
        },
        {
          "name": "F#2",
          "midi": 42,
          "time": 10.709655999999994,
          "velocity": 0.6299212598425197,
          "duration": 0.12903200000000048
        },
        {
          "name": "F#2",
          "midi": 42,
          "time": 10.838687999999994,
          "velocity": 0.7086614173228346,
          "duration": 0.38709599999999966
        },
        {
          "name": "F#2",
          "midi": 42,
          "time": 11.225783999999994,
          "velocity": 0.7874015748031497,
          "duration": 0.2580639999999992
        },
        {
          "name": "C#2",
          "midi": 37,
          "time": 11.225783999999994,
          "velocity": 0.5826771653543307,
          "duration": 0.2580639999999992
        },
        {
          "name": "F#2",
          "midi": 42,
          "time": 11.483847999999993,
          "velocity": 0.6299212598425197,
          "duration": 0.12903200000000048
        },
        {
          "name": "F#2",
          "midi": 42,
          "time": 11.612879999999993,
          "velocity": 0.7086614173228346,
          "duration": 0.2580639999999992
        },
        {
          "name": "F#2",
          "midi": 42,
          "time": 11.870943999999993,
          "velocity": 0.7086614173228346,
          "duration": 0.12903200000000048
        },
        {
          "name": "F#2",
          "midi": 42,
          "time": 11.999975999999993,
          "velocity": 0.7874015748031497,
          "duration": 0.2580639999999992
        },
        {
          "name": "C#2",
          "midi": 37,
          "time": 11.999975999999993,
          "velocity": 0.5826771653543307,
          "duration": 0.2580639999999992
        },
        {
          "name": "F#2",
          "midi": 42,
          "time": 12.258039999999992,
          "velocity": 0.6299212598425197,
          "duration": 0.12903200000000048
        },
        {
          "name": "F#2",
          "midi": 42,
          "time": 12.387071999999993,
          "velocity": 0.6299212598425197,
          "duration": 0.38709599999999966
        },
        {
          "name": "F#2",
          "midi": 42,
          "time": 12.774167999999992,
          "velocity": 0.7086614173228346,
          "duration": 0.2580639999999992
        },
        {
          "name": "F#2",
          "midi": 42,
          "time": 13.032231999999992,
          "velocity": 0.6299212598425197,
          "duration": 0.12903200000000048
        },
        {
          "name": "D2",
          "midi": 38,
          "time": 13.032231999999992,
          "velocity": 0.7086614173228346,
          "duration": 0.12903200000000048
        },
        {
          "name": "F#2",
          "midi": 42,
          "time": 13.161263999999992,
          "velocity": 0.6299212598425197,
          "duration": 0.2580639999999992
        },
        {
          "name": "C3",
          "midi": 48,
          "time": 13.419327999999991,
          "velocity": 0.47244094488188976,
          "duration": 0.041935399999999845
        },
        {
          "name": "C3",
          "midi": 48,
          "time": 13.461263399999991,
          "velocity": 0.5511811023622047,
          "duration": 0.041935399999999845
        },
        {
          "name": "C3",
          "midi": 48,
          "time": 13.503198799999991,
          "velocity": 0.6299212598425197,
          "duration": 0.04516120000000079
        },
        {
          "name": "C3",
          "midi": 48,
          "time": 13.548359999999992,
          "velocity": 0.7874015748031497,
          "duration": 0.2580639999999992
        },
        {
          "name": "C#3",
          "midi": 49,
          "time": 13.806423999999991,
          "velocity": 0.7086614173228346,
          "duration": 0.12903200000000048
        },
        {
          "name": "B1",
          "midi": 35,
          "time": 13.806423999999991,
          "velocity": 0.5511811023622047,
          "duration": 0.12903200000000048
        },
        {
          "name": "D2",
          "midi": 38,
          "time": 14.19351999999999,
          "velocity": 0.7874015748031497,
          "duration": 0.12903200000000048
        },
        {
          "name": "C#3",
          "midi": 49,
          "time": 14.322551999999991,
          "velocity": 0.7874015748031497,
          "duration": 0.38709599999999966
        },
        {
          "name": "D2",
          "midi": 38,
          "time": 14.70964799999999,
          "velocity": 0.6299212598425197,
          "duration": 0.2580639999999992
        },
        {
          "name": "A2",
          "midi": 45,
          "time": 14.96771199999999,
          "velocity": 0.5511811023622047,
          "duration": 0.12903200000000048
        },
        {
          "name": "A2",
          "midi": 45,
          "time": 15.09674399999999,
          "velocity": 0.7086614173228346,
          "duration": 0.2580639999999992
        },
        {
          "name": "A2",
          "midi": 45,
          "time": 15.35480799999999,
          "velocity": 0.6299212598425197,
          "duration": 0.12903200000000048
        },
        {
          "name": "F#2",
          "midi": 42,
          "time": 15.48383999999999,
          "velocity": 0.7086614173228346,
          "duration": 0.38709599999999966
        },
        {
          "name": "F#2",
          "midi": 42,
          "time": 15.87093599999999,
          "velocity": 0.7874015748031497,
          "duration": 0.25806400000000096
        },
        {
          "name": "C#2",
          "midi": 37,
          "time": 15.87093599999999,
          "velocity": 0.5826771653543307,
          "duration": 0.25806400000000096
        },
        {
          "name": "F#2",
          "midi": 42,
          "time": 16.12899999999999,
          "velocity": 0.6299212598425197,
          "duration": 0.1290319999999987
        },
        {
          "name": "F#2",
          "midi": 42,
          "time": 16.25803199999999,
          "velocity": 0.7086614173228346,
          "duration": 0.25806400000000096
        },
        {
          "name": "A#2",
          "midi": 46,
          "time": 16.51609599999999,
          "velocity": 0.7086614173228346,
          "duration": 0.1290319999999987
        },
        {
          "name": "F#2",
          "midi": 42,
          "time": 16.64512799999999,
          "velocity": 0.7874015748031497,
          "duration": 0.25806400000000096
        },
        {
          "name": "C#2",
          "midi": 37,
          "time": 16.64512799999999,
          "velocity": 0.5826771653543307,
          "duration": 0.25806400000000096
        },
        {
          "name": "F#2",
          "midi": 42,
          "time": 16.90319199999999,
          "velocity": 0.6299212598425197,
          "duration": 0.1290319999999987
        },
        {
          "name": "F#2",
          "midi": 42,
          "time": 17.03222399999999,
          "velocity": 0.7086614173228346,
          "duration": 0.38709599999999966
        },
        {
          "name": "F#2",
          "midi": 42,
          "time": 17.41931999999999,
          "velocity": 0.7874015748031497,
          "duration": 0.25806400000000096
        },
        {
          "name": "C#2",
          "midi": 37,
          "time": 17.41931999999999,
          "velocity": 0.5826771653543307,
          "duration": 0.25806400000000096
        },
        {
          "name": "F#2",
          "midi": 42,
          "time": 17.67738399999999,
          "velocity": 0.6299212598425197,
          "duration": 0.1290319999999987
        },
        {
          "name": "F#2",
          "midi": 42,
          "time": 17.806415999999988,
          "velocity": 0.7086614173228346,
          "duration": 0.25806400000000096
        },
        {
          "name": "A#2",
          "midi": 46,
          "time": 18.06447999999999,
          "velocity": 0.7086614173228346,
          "duration": 0.1290319999999987
        },
        {
          "name": "F#2",
          "midi": 42,
          "time": 18.193511999999988,
          "velocity": 0.7874015748031497,
          "duration": 0.25806400000000096
        },
        {
          "name": "C#2",
          "midi": 37,
          "time": 18.193511999999988,
          "velocity": 0.5826771653543307,
          "duration": 0.25806400000000096
        },
        {
          "name": "F#2",
          "midi": 42,
          "time": 18.45157599999999,
          "velocity": 0.6299212598425197,
          "duration": 0.1290319999999987
        },
        {
          "name": "F#2",
          "midi": 42,
          "time": 18.580607999999987,
          "velocity": 0.7086614173228346,
          "duration": 0.38709599999999966
        },
        {
          "name": "F#2",
          "midi": 42,
          "time": 18.967703999999987,
          "velocity": 0.7874015748031497,
          "duration": 0.25806400000000096
        },
        {
          "name": "C#2",
          "midi": 37,
          "time": 18.967703999999987,
          "velocity": 0.5826771653543307,
          "duration": 0.25806400000000096
        },
        {
          "name": "F#2",
          "midi": 42,
          "time": 19.225767999999988,
          "velocity": 0.6299212598425197,
          "duration": 0.1290319999999987
        },
        {
          "name": "F#2",
          "midi": 42,
          "time": 19.354799999999987,
          "velocity": 0.7086614173228346,
          "duration": 0.25806400000000096
        },
        {
          "name": "F#2",
          "midi": 42,
          "time": 19.741895999999986,
          "velocity": 0.7874015748031497,
          "duration": 0.25806400000000096
        },
        {
          "name": "C#2",
          "midi": 37,
          "time": 19.741895999999986,
          "velocity": 0.5826771653543307,
          "duration": 0.25806400000000096
        },
        {
          "name": "F#2",
          "midi": 42,
          "time": 19.999959999999987,
          "velocity": 0.6299212598425197,
          "duration": 0.1290319999999987
        },
        {
          "name": "F#2",
          "midi": 42,
          "time": 20.128991999999986,
          "velocity": 0.7086614173228346,
          "duration": 0.38709599999999966
        },
        {
          "name": "F#2",
          "midi": 42,
          "time": 20.516087999999986,
          "velocity": 0.7874015748031497,
          "duration": 0.25806400000000096
        },
        {
          "name": "C#2",
          "midi": 37,
          "time": 20.516087999999986,
          "velocity": 0.5826771653543307,
          "duration": 0.25806400000000096
        },
        {
          "name": "F#2",
          "midi": 42,
          "time": 20.774151999999987,
          "velocity": 0.6299212598425197,
          "duration": 0.1290319999999987
        },
        {
          "name": "F#2",
          "midi": 42,
          "time": 20.903183999999985,
          "velocity": 0.7086614173228346,
          "duration": 0.25806400000000096
        },
        {
          "name": "F#2",
          "midi": 42,
          "time": 21.290279999999985,
          "velocity": 0.7874015748031497,
          "duration": 0.25806400000000096
        },
        {
          "name": "C#2",
          "midi": 37,
          "time": 21.290279999999985,
          "velocity": 0.5826771653543307,
          "duration": 0.25806400000000096
        },
        {
          "name": "F#2",
          "midi": 42,
          "time": 21.548343999999986,
          "velocity": 0.6299212598425197,
          "duration": 0.1290319999999987
        },
        {
          "name": "F#2",
          "midi": 42,
          "time": 21.677375999999985,
          "velocity": 0.7086614173228346,
          "duration": 0.38709599999999966
        },
        {
          "name": "F#2",
          "midi": 42,
          "time": 22.064471999999984,
          "velocity": 0.7874015748031497,
          "duration": 0.25806400000000096
        },
        {
          "name": "C#2",
          "midi": 37,
          "time": 22.064471999999984,
          "velocity": 0.5826771653543307,
          "duration": 0.25806400000000096
        },
        {
          "name": "F#2",
          "midi": 42,
          "time": 22.322535999999985,
          "velocity": 0.6299212598425197,
          "duration": 0.1290319999999987
        },
        {
          "name": "F#2",
          "midi": 42,
          "time": 22.451567999999984,
          "velocity": 0.7086614173228346,
          "duration": 0.25806400000000096
        },
        {
          "name": "F#2",
          "midi": 42,
          "time": 22.838663999999984,
          "velocity": 0.7874015748031497,
          "duration": 0.25806400000000096
        },
        {
          "name": "C#2",
          "midi": 37,
          "time": 22.838663999999984,
          "velocity": 0.5826771653543307,
          "duration": 0.25806400000000096
        },
        {
          "name": "F#2",
          "midi": 42,
          "time": 23.096727999999985,
          "velocity": 0.6299212598425197,
          "duration": 0.1290319999999987
        },
        {
          "name": "F#2",
          "midi": 42,
          "time": 23.225759999999983,
          "velocity": 0.7086614173228346,
          "duration": 0.38709599999999966
        },
        {
          "name": "F#2",
          "midi": 42,
          "time": 23.612855999999983,
          "velocity": 0.7874015748031497,
          "duration": 0.25806400000000096
        },
        {
          "name": "C#2",
          "midi": 37,
          "time": 23.612855999999983,
          "velocity": 0.5826771653543307,
          "duration": 0.25806400000000096
        },
        {
          "name": "F#2",
          "midi": 42,
          "time": 23.870919999999984,
          "velocity": 0.6299212598425197,
          "duration": 0.1290319999999987
        },
        {
          "name": "F#2",
          "midi": 42,
          "time": 23.999951999999983,
          "velocity": 0.7086614173228346,
          "duration": 0.25806400000000096
        },
        {
          "name": "F#2",
          "midi": 42,
          "time": 24.387047999999982,
          "velocity": 0.7874015748031497,
          "duration": 0.25806400000000096
        },
        {
          "name": "C#2",
          "midi": 37,
          "time": 24.387047999999982,
          "velocity": 0.5826771653543307,
          "duration": 0.25806400000000096
        },
        {
          "name": "F#2",
          "midi": 42,
          "time": 24.645111999999983,
          "velocity": 0.6299212598425197,
          "duration": 0.1290319999999987
        },
        {
          "name": "F#2",
          "midi": 42,
          "time": 24.774143999999982,
          "velocity": 0.6299212598425197,
          "duration": 0.38709599999999966
        },
        {
          "name": "F#2",
          "midi": 42,
          "time": 25.16123999999998,
          "velocity": 0.7086614173228346,
          "duration": 0.38709599999999966
        },
        {
          "name": "C#2",
          "midi": 37,
          "time": 25.16123999999998,
          "velocity": 0.7086614173228346,
          "duration": 0.38709599999999966
        },
        {
          "name": "F#2",
          "midi": 42,
          "time": 25.54833599999998,
          "velocity": 0.6299212598425197,
          "duration": 0.25806400000000096
        },
        {
          "name": "D2",
          "midi": 38,
          "time": 25.806399999999982,
          "velocity": 0.7086614173228346,
          "duration": 0.1290319999999987
        },
        {
          "name": "C#2",
          "midi": 37,
          "time": 25.93543199999998,
          "velocity": 0.7086614173228346,
          "duration": 0.25806400000000096
        },
        {
          "name": "C3",
          "midi": 48,
          "time": 25.93543199999998,
          "velocity": 0.6299212598425197,
          "duration": 0.25806400000000096
        },
        {
          "name": "B1",
          "midi": 35,
          "time": 26.193495999999982,
          "velocity": 0.5511811023622047,
          "duration": 0.1290319999999987
        },
        {
          "name": "C#3",
          "midi": 49,
          "time": 26.193495999999982,
          "velocity": 0.7874015748031497,
          "duration": 0.1290319999999987
        },
        {
          "name": "F#2",
          "midi": 42,
          "time": 26.70962399999998,
          "velocity": 0.36220472440944884,
          "duration": 0.1290319999999987
        },
        {
          "name": "F#2",
          "midi": 42,
          "time": 26.83865599999998,
          "velocity": 0.4094488188976378,
          "duration": 0.1290319999999987
        },
        {
          "name": "F#2",
          "midi": 42,
          "time": 26.967687999999978,
          "velocity": 0.4566929133858268,
          "duration": 0.1290319999999987
        },
        {
          "name": "F#2",
          "midi": 42,
          "time": 27.096719999999976,
          "velocity": 0.5039370078740157,
          "duration": 0.1290319999999987
        },
        {
          "name": "F#2",
          "midi": 42,
          "time": 27.225751999999975,
          "velocity": 0.5511811023622047,
          "duration": 0.1290319999999987
        },
        {
          "name": "F#2",
          "midi": 42,
          "time": 27.354783999999974,
          "velocity": 0.5984251968503937,
          "duration": 0.1290319999999987
        },
        {
          "name": "F#2",
          "midi": 42,
          "time": 27.483815999999972,
          "velocity": 0.7874015748031497,
          "duration": 0.38709599999999966
        },
        {
          "name": "D#3",
          "midi": 51,
          "time": 27.870911999999972,
          "velocity": 0.7086614173228346,
          "duration": 0.25806400000000096
        },
        {
          "name": "D#3",
          "midi": 51,
          "time": 28.258007999999972,
          "velocity": 0.8267716535433071,
          "duration": 0.25806400000000096
        },
        {
          "name": "C#2",
          "midi": 37,
          "time": 28.258007999999972,
          "velocity": 0.5826771653543307,
          "duration": 0.25806400000000096
        },
        {
          "name": "D2",
          "midi": 38,
          "time": 28.516071999999973,
          "velocity": 0.7874015748031497,
          "duration": 0.1290319999999987
        },
        {
          "name": "D#3",
          "midi": 51,
          "time": 28.516071999999973,
          "velocity": 0.7086614173228346,
          "duration": 0.1290319999999987
        },
        {
          "name": "D#3",
          "midi": 51,
          "time": 28.64510399999997,
          "velocity": 0.7086614173228346,
          "duration": 0.25806400000000096
        },
        {
          "name": "D#3",
          "midi": 51,
          "time": 29.03219999999997,
          "velocity": 0.7874015748031497,
          "duration": 0.25806400000000096
        },
        {
          "name": "C#2",
          "midi": 37,
          "time": 29.03219999999997,
          "velocity": 0.5826771653543307,
          "duration": 0.25806400000000096
        },
        {
          "name": "D2",
          "midi": 38,
          "time": 29.290263999999972,
          "velocity": 0.15748031496062992,
          "duration": 0.1290319999999987
        },
        {
          "name": "D#3",
          "midi": 51,
          "time": 29.290263999999972,
          "velocity": 0.7086614173228346,
          "duration": 0.1290319999999987
        },
        {
          "name": "D#3",
          "midi": 51,
          "time": 29.41929599999997,
          "velocity": 0.7086614173228346,
          "duration": 0.25806400000000096
        },
        {
          "name": "D#3",
          "midi": 51,
          "time": 29.80639199999997,
          "velocity": 0.8267716535433071,
          "duration": 0.25806400000000096
        },
        {
          "name": "C#2",
          "midi": 37,
          "time": 29.80639199999997,
          "velocity": 0.5826771653543307,
          "duration": 0.25806400000000096
        },
        {
          "name": "D2",
          "midi": 38,
          "time": 30.06445599999997,
          "velocity": 0.15748031496062992,
          "duration": 0.1290319999999987
        },
        {
          "name": "D#3",
          "midi": 51,
          "time": 30.06445599999997,
          "velocity": 0.7086614173228346,
          "duration": 0.1290319999999987
        },
        {
          "name": "D#3",
          "midi": 51,
          "time": 30.19348799999997,
          "velocity": 0.7086614173228346,
          "duration": 0.25806400000000096
        },
        {
          "name": "D#3",
          "midi": 51,
          "time": 30.58058399999997,
          "velocity": 0.7874015748031497,
          "duration": 0.25806400000000096
        },
        {
          "name": "C#2",
          "midi": 37,
          "time": 30.58058399999997,
          "velocity": 0.5826771653543307,
          "duration": 0.25806400000000096
        },
        {
          "name": "D2",
          "midi": 38,
          "time": 30.83864799999997,
          "velocity": 0.15748031496062992,
          "duration": 0.1290319999999987
        },
        {
          "name": "D#3",
          "midi": 51,
          "time": 30.83864799999997,
          "velocity": 0.7086614173228346,
          "duration": 0.1290319999999987
        },
        {
          "name": "D#3",
          "midi": 51,
          "time": 30.96767999999997,
          "velocity": 0.7086614173228346,
          "duration": 0.25806400000000096
        },
        {
          "name": "D#3",
          "midi": 51,
          "time": 31.35477599999997,
          "velocity": 0.8267716535433071,
          "duration": 0.25806400000000096
        },
        {
          "name": "C#2",
          "midi": 37,
          "time": 31.35477599999997,
          "velocity": 0.5826771653543307,
          "duration": 0.25806400000000096
        },
        {
          "name": "D2",
          "midi": 38,
          "time": 31.61283999999997,
          "velocity": 0.7874015748031497,
          "duration": 0.1290319999999987
        },
        {
          "name": "D#3",
          "midi": 51,
          "time": 31.61283999999997,
          "velocity": 0.7086614173228346,
          "duration": 0.1290319999999987
        },
        {
          "name": "D#3",
          "midi": 51,
          "time": 31.74187199999997,
          "velocity": 0.7086614173228346,
          "duration": 0.25806400000000096
        },
        {
          "name": "D#3",
          "midi": 51,
          "time": 32.12896799999997,
          "velocity": 0.7874015748031497,
          "duration": 0.2580639999999974
        },
        {
          "name": "C#2",
          "midi": 37,
          "time": 32.12896799999997,
          "velocity": 0.5826771653543307,
          "duration": 0.2580639999999974
        },
        {
          "name": "D2",
          "midi": 38,
          "time": 32.38703199999997,
          "velocity": 0.15748031496062992,
          "duration": 0.12903200000000226
        },
        {
          "name": "D#3",
          "midi": 51,
          "time": 32.38703199999997,
          "velocity": 0.7086614173228346,
          "duration": 0.12903200000000226
        },
        {
          "name": "D#3",
          "midi": 51,
          "time": 32.51606399999997,
          "velocity": 0.7086614173228346,
          "duration": 0.2580639999999974
        },
        {
          "name": "D#3",
          "midi": 51,
          "time": 32.90315999999997,
          "velocity": 0.8267716535433071,
          "duration": 0.2580639999999974
        },
        {
          "name": "C#2",
          "midi": 37,
          "time": 32.90315999999997,
          "velocity": 0.5826771653543307,
          "duration": 0.2580639999999974
        },
        {
          "name": "D2",
          "midi": 38,
          "time": 33.16122399999997,
          "velocity": 0.15748031496062992,
          "duration": 0.12903200000000226
        },
        {
          "name": "D#3",
          "midi": 51,
          "time": 33.16122399999997,
          "velocity": 0.7086614173228346,
          "duration": 0.12903200000000226
        },
        {
          "name": "D#3",
          "midi": 51,
          "time": 33.29025599999997,
          "velocity": 0.7086614173228346,
          "duration": 0.2580639999999974
        },
        {
          "name": "D#3",
          "midi": 51,
          "time": 33.67735199999997,
          "velocity": 0.7874015748031497,
          "duration": 0.2580639999999974
        },
        {
          "name": "C#2",
          "midi": 37,
          "time": 33.67735199999997,
          "velocity": 0.5826771653543307,
          "duration": 0.2580639999999974
        },
        {
          "name": "D2",
          "midi": 38,
          "time": 33.93541599999997,
          "velocity": 0.15748031496062992,
          "duration": 0.12903200000000226
        },
        {
          "name": "D#3",
          "midi": 51,
          "time": 33.93541599999997,
          "velocity": 0.7086614173228346,
          "duration": 0.12903200000000226
        },
        {
          "name": "D#3",
          "midi": 51,
          "time": 34.06444799999997,
          "velocity": 0.7086614173228346,
          "duration": 0.2580639999999974
        },
        {
          "name": "D#3",
          "midi": 51,
          "time": 34.45154399999997,
          "velocity": 0.8267716535433071,
          "duration": 0.2580639999999974
        },
        {
          "name": "C#2",
          "midi": 37,
          "time": 34.45154399999997,
          "velocity": 0.5826771653543307,
          "duration": 0.2580639999999974
        },
        {
          "name": "D2",
          "midi": 38,
          "time": 34.70960799999997,
          "velocity": 0.7874015748031497,
          "duration": 0.12903200000000226
        },
        {
          "name": "D#3",
          "midi": 51,
          "time": 34.70960799999997,
          "velocity": 0.7086614173228346,
          "duration": 0.12903200000000226
        },
        {
          "name": "D#3",
          "midi": 51,
          "time": 34.83863999999997,
          "velocity": 0.7086614173228346,
          "duration": 0.2580639999999974
        },
        {
          "name": "D#3",
          "midi": 51,
          "time": 35.22573599999997,
          "velocity": 0.7874015748031497,
          "duration": 0.2580639999999974
        },
        {
          "name": "C#2",
          "midi": 37,
          "time": 35.22573599999997,
          "velocity": 0.5826771653543307,
          "duration": 0.2580639999999974
        },
        {
          "name": "D2",
          "midi": 38,
          "time": 35.48379999999997,
          "velocity": 0.15748031496062992,
          "duration": 0.12903200000000226
        },
        {
          "name": "D#3",
          "midi": 51,
          "time": 35.48379999999997,
          "velocity": 0.7086614173228346,
          "duration": 0.12903200000000226
        },
        {
          "name": "D#3",
          "midi": 51,
          "time": 35.61283199999997,
          "velocity": 0.7086614173228346,
          "duration": 0.2580639999999974
        },
        {
          "name": "D#3",
          "midi": 51,
          "time": 35.99992799999997,
          "velocity": 0.8267716535433071,
          "duration": 0.2580639999999974
        },
        {
          "name": "C#2",
          "midi": 37,
          "time": 35.99992799999997,
          "velocity": 0.5826771653543307,
          "duration": 0.2580639999999974
        },
        {
          "name": "D2",
          "midi": 38,
          "time": 36.257991999999966,
          "velocity": 0.15748031496062992,
          "duration": 0.12903200000000226
        },
        {
          "name": "D#3",
          "midi": 51,
          "time": 36.257991999999966,
          "velocity": 0.7086614173228346,
          "duration": 0.12903200000000226
        },
        {
          "name": "D#3",
          "midi": 51,
          "time": 36.38702399999997,
          "velocity": 0.7086614173228346,
          "duration": 0.2580639999999974
        },
        {
          "name": "D#3",
          "midi": 51,
          "time": 36.77411999999997,
          "velocity": 0.7874015748031497,
          "duration": 0.2580639999999974
        },
        {
          "name": "C#2",
          "midi": 37,
          "time": 36.77411999999997,
          "velocity": 0.5826771653543307,
          "duration": 0.2580639999999974
        },
        {
          "name": "D2",
          "midi": 38,
          "time": 37.032183999999965,
          "velocity": 0.15748031496062992,
          "duration": 0.12903200000000226
        },
        {
          "name": "D#3",
          "midi": 51,
          "time": 37.032183999999965,
          "velocity": 0.7086614173228346,
          "duration": 0.12903200000000226
        },
        {
          "name": "D#3",
          "midi": 51,
          "time": 37.16121599999997,
          "velocity": 0.7086614173228346,
          "duration": 0.2580639999999974
        },
        {
          "name": "D#3",
          "midi": 51,
          "time": 37.54831199999997,
          "velocity": 0.8267716535433071,
          "duration": 0.2580639999999974
        },
        {
          "name": "C#2",
          "midi": 37,
          "time": 37.54831199999997,
          "velocity": 0.5826771653543307,
          "duration": 0.2580639999999974
        },
        {
          "name": "D2",
          "midi": 38,
          "time": 37.806375999999965,
          "velocity": 0.15748031496062992,
          "duration": 0.12903200000000226
        },
        {
          "name": "D#3",
          "midi": 51,
          "time": 37.806375999999965,
          "velocity": 0.7086614173228346,
          "duration": 0.12903200000000226
        },
        {
          "name": "D#3",
          "midi": 51,
          "time": 37.93540799999997,
          "velocity": 0.7086614173228346,
          "duration": 0.2580639999999974
        },
        {
          "name": "D#3",
          "midi": 51,
          "time": 38.32250399999997,
          "velocity": 0.7874015748031497,
          "duration": 0.2580639999999974
        },
        {
          "name": "C#2",
          "midi": 37,
          "time": 38.32250399999997,
          "velocity": 0.5826771653543307,
          "duration": 0.2580639999999974
        },
        {
          "name": "D2",
          "midi": 38,
          "time": 38.580567999999964,
          "velocity": 0.15748031496062992,
          "duration": 0.12903200000000226
        },
        {
          "name": "D#3",
          "midi": 51,
          "time": 38.580567999999964,
          "velocity": 0.7086614173228346,
          "duration": 0.12903200000000226
        },
        {
          "name": "F#2",
          "midi": 42,
          "time": 38.709599999999966,
          "velocity": 0.6614173228346457,
          "duration": 0.2580639999999974
        },
        {
          "name": "A#2",
          "midi": 46,
          "time": 38.967663999999964,
          "velocity": 0.5826771653543307,
          "duration": 0.5161280000000019
        },
        {
          "name": "C#3",
          "midi": 49,
          "time": 38.967663999999964,
          "velocity": 0.6614173228346457,
          "duration": 0.5161280000000019
        },
        {
          "name": "A2",
          "midi": 45,
          "time": 39.483791999999966,
          "velocity": 0.47244094488188976,
          "duration": 0.12903200000000226
        },
        {
          "name": "A2",
          "midi": 45,
          "time": 39.61282399999997,
          "velocity": 0.5118110236220472,
          "duration": 0.12903200000000226
        },
        {
          "name": "A2",
          "midi": 45,
          "time": 39.74185599999997,
          "velocity": 0.5511811023622047,
          "duration": 0.12903200000000226
        },
        {
          "name": "B1",
          "midi": 35,
          "time": 39.87088799999997,
          "velocity": 0.5039370078740157,
          "duration": 0.38709599999999966
        },
        {
          "name": "F2",
          "midi": 41,
          "time": 39.87088799999997,
          "velocity": 0.5826771653543307,
          "duration": 0.38709599999999966
        },
        {
          "name": "F#2",
          "midi": 42,
          "time": 40.25798399999997,
          "velocity": 0.7086614173228346,
          "duration": 0.38709599999999966
        },
        {
          "name": "F#2",
          "midi": 42,
          "time": 40.64507999999997,
          "velocity": 0.7874015748031497,
          "duration": 0.2580639999999974
        },
        {
          "name": "C#2",
          "midi": 37,
          "time": 40.64507999999997,
          "velocity": 0.5826771653543307,
          "duration": 0.2580639999999974
        },
        {
          "name": "F#2",
          "midi": 42,
          "time": 40.90314399999997,
          "velocity": 0.6299212598425197,
          "duration": 0.12903200000000226
        },
        {
          "name": "F#2",
          "midi": 42,
          "time": 41.03217599999997,
          "velocity": 0.7086614173228346,
          "duration": 0.2580639999999974
        },
        {
          "name": "A#2",
          "midi": 46,
          "time": 41.29023999999997,
          "velocity": 0.7086614173228346,
          "duration": 0.12903200000000226
        },
        {
          "name": "F#2",
          "midi": 42,
          "time": 41.41927199999997,
          "velocity": 0.7874015748031497,
          "duration": 0.2580639999999974
        },
        {
          "name": "C#2",
          "midi": 37,
          "time": 41.41927199999997,
          "velocity": 0.5826771653543307,
          "duration": 0.2580639999999974
        },
        {
          "name": "F#2",
          "midi": 42,
          "time": 41.67733599999997,
          "velocity": 0.6299212598425197,
          "duration": 0.12903200000000226
        },
        {
          "name": "F#2",
          "midi": 42,
          "time": 41.80636799999997,
          "velocity": 0.7086614173228346,
          "duration": 0.38709599999999966
        },
        {
          "name": "F#2",
          "midi": 42,
          "time": 42.19346399999997,
          "velocity": 0.7874015748031497,
          "duration": 0.2580639999999974
        },
        {
          "name": "C#2",
          "midi": 37,
          "time": 42.19346399999997,
          "velocity": 0.5826771653543307,
          "duration": 0.2580639999999974
        },
        {
          "name": "F#2",
          "midi": 42,
          "time": 42.45152799999997,
          "velocity": 0.6299212598425197,
          "duration": 0.12903200000000226
        },
        {
          "name": "F#2",
          "midi": 42,
          "time": 42.58055999999997,
          "velocity": 0.7086614173228346,
          "duration": 0.2580639999999974
        },
        {
          "name": "F#2",
          "midi": 42,
          "time": 42.83862399999997,
          "velocity": 0.7086614173228346,
          "duration": 0.12903200000000226
        },
        {
          "name": "F#2",
          "midi": 42,
          "time": 42.96765599999997,
          "velocity": 0.7874015748031497,
          "duration": 0.2580639999999974
        },
        {
          "name": "C#2",
          "midi": 37,
          "time": 42.96765599999997,
          "velocity": 0.5826771653543307,
          "duration": 0.2580639999999974
        },
        {
          "name": "F#2",
          "midi": 42,
          "time": 43.22571999999997,
          "velocity": 0.6299212598425197,
          "duration": 0.12903200000000226
        },
        {
          "name": "F#2",
          "midi": 42,
          "time": 43.35475199999997,
          "velocity": 0.7086614173228346,
          "duration": 0.38709599999999966
        },
        {
          "name": "F#2",
          "midi": 42,
          "time": 43.74184799999997,
          "velocity": 0.7874015748031497,
          "duration": 0.2580639999999974
        },
        {
          "name": "C#2",
          "midi": 37,
          "time": 43.74184799999997,
          "velocity": 0.5826771653543307,
          "duration": 0.2580639999999974
        },
        {
          "name": "F#2",
          "midi": 42,
          "time": 43.999911999999966,
          "velocity": 0.6299212598425197,
          "duration": 0.12903200000000226
        },
        {
          "name": "F#2",
          "midi": 42,
          "time": 44.12894399999997,
          "velocity": 0.7086614173228346,
          "duration": 0.2580639999999974
        },
        {
          "name": "A#2",
          "midi": 46,
          "time": 44.387007999999966,
          "velocity": 0.7086614173228346,
          "duration": 0.12903200000000226
        },
        {
          "name": "F#2",
          "midi": 42,
          "time": 44.51603999999997,
          "velocity": 0.7874015748031497,
          "duration": 0.2580639999999974
        },
        {
          "name": "C#2",
          "midi": 37,
          "time": 44.51603999999997,
          "velocity": 0.5826771653543307,
          "duration": 0.2580639999999974
        },
        {
          "name": "F#2",
          "midi": 42,
          "time": 44.774103999999966,
          "velocity": 0.6299212598425197,
          "duration": 0.12903200000000226
        },
        {
          "name": "F#2",
          "midi": 42,
          "time": 44.90313599999997,
          "velocity": 0.7086614173228346,
          "duration": 0.38709599999999966
        },
        {
          "name": "F#2",
          "midi": 42,
          "time": 45.29023199999997,
          "velocity": 0.7874015748031497,
          "duration": 0.2580639999999974
        },
        {
          "name": "C#2",
          "midi": 37,
          "time": 45.29023199999997,
          "velocity": 0.5826771653543307,
          "duration": 0.2580639999999974
        },
        {
          "name": "F#2",
          "midi": 42,
          "time": 45.548295999999965,
          "velocity": 0.6299212598425197,
          "duration": 0.12903200000000226
        },
        {
          "name": "F#2",
          "midi": 42,
          "time": 45.67732799999997,
          "velocity": 0.7086614173228346,
          "duration": 0.2580639999999974
        },
        {
          "name": "F#2",
          "midi": 42,
          "time": 46.06442399999997,
          "velocity": 0.7874015748031497,
          "duration": 0.2580639999999974
        },
        {
          "name": "C#2",
          "midi": 37,
          "time": 46.06442399999997,
          "velocity": 0.5826771653543307,
          "duration": 0.2580639999999974
        },
        {
          "name": "F#2",
          "midi": 42,
          "time": 46.322487999999964,
          "velocity": 0.6299212598425197,
          "duration": 0.12903200000000226
        },
        {
          "name": "F#2",
          "midi": 42,
          "time": 46.45151999999997,
          "velocity": 0.7086614173228346,
          "duration": 0.38709599999999966
        },
        {
          "name": "F#2",
          "midi": 42,
          "time": 46.838615999999966,
          "velocity": 0.7874015748031497,
          "duration": 0.2580639999999974
        },
        {
          "name": "C#2",
          "midi": 37,
          "time": 46.838615999999966,
          "velocity": 0.5826771653543307,
          "duration": 0.2580639999999974
        },
        {
          "name": "F#2",
          "midi": 42,
          "time": 47.096679999999964,
          "velocity": 0.6299212598425197,
          "duration": 0.12903200000000226
        },
        {
          "name": "F#2",
          "midi": 42,
          "time": 47.225711999999966,
          "velocity": 0.7086614173228346,
          "duration": 0.2580639999999974
        },
        {
          "name": "F#2",
          "midi": 42,
          "time": 47.612807999999966,
          "velocity": 0.7874015748031497,
          "duration": 0.2580639999999974
        },
        {
          "name": "C#2",
          "midi": 37,
          "time": 47.612807999999966,
          "velocity": 0.5826771653543307,
          "duration": 0.2580639999999974
        },
        {
          "name": "F#2",
          "midi": 42,
          "time": 47.87087199999996,
          "velocity": 0.6299212598425197,
          "duration": 0.12903200000000226
        },
        {
          "name": "F#2",
          "midi": 42,
          "time": 47.999903999999965,
          "velocity": 0.7086614173228346,
          "duration": 0.38709599999999966
        },
        {
          "name": "F#2",
          "midi": 42,
          "time": 48.386999999999965,
          "velocity": 0.7874015748031497,
          "duration": 0.2580639999999974
        },
        {
          "name": "C#2",
          "midi": 37,
          "time": 48.386999999999965,
          "velocity": 0.5826771653543307,
          "duration": 0.2580639999999974
        },
        {
          "name": "F#2",
          "midi": 42,
          "time": 48.64506399999996,
          "velocity": 0.6299212598425197,
          "duration": 0.12903200000000226
        },
        {
          "name": "F#2",
          "midi": 42,
          "time": 48.774095999999965,
          "velocity": 0.7086614173228346,
          "duration": 0.2580639999999974
        },
        {
          "name": "F#2",
          "midi": 42,
          "time": 49.161191999999964,
          "velocity": 0.7874015748031497,
          "duration": 0.2580639999999974
        },
        {
          "name": "C#2",
          "midi": 37,
          "time": 49.161191999999964,
          "velocity": 0.5826771653543307,
          "duration": 0.2580639999999974
        },
        {
          "name": "F#2",
          "midi": 42,
          "time": 49.41925599999996,
          "velocity": 0.6299212598425197,
          "duration": 0.12903200000000226
        },
        {
          "name": "F#2",
          "midi": 42,
          "time": 49.548287999999964,
          "velocity": 0.6299212598425197,
          "duration": 0.38709599999999966
        },
        {
          "name": "F#2",
          "midi": 42,
          "time": 49.935383999999964,
          "velocity": 0.7086614173228346,
          "duration": 0.2580639999999974
        },
        {
          "name": "F#2",
          "midi": 42,
          "time": 50.19344799999996,
          "velocity": 0.6299212598425197,
          "duration": 0.12903200000000226
        },
        {
          "name": "D2",
          "midi": 38,
          "time": 50.19344799999996,
          "velocity": 0.7086614173228346,
          "duration": 0.12903200000000226
        },
        {
          "name": "F#2",
          "midi": 42,
          "time": 50.32247999999996,
          "velocity": 0.6299212598425197,
          "duration": 0.2580639999999974
        },
        {
          "name": "C3",
          "midi": 48,
          "time": 50.58054399999996,
          "velocity": 0.47244094488188976,
          "duration": 0.041935399999999845
        },
        {
          "name": "C3",
          "midi": 48,
          "time": 50.62247939999996,
          "velocity": 0.5511811023622047,
          "duration": 0.041935399999999845
        },
        {
          "name": "C3",
          "midi": 48,
          "time": 50.66441479999996,
          "velocity": 0.6299212598425197,
          "duration": 0.045161200000002566
        },
        {
          "name": "C3",
          "midi": 48,
          "time": 50.70957599999996,
          "velocity": 0.7874015748031497,
          "duration": 0.2580639999999974
        },
        {
          "name": "C#3",
          "midi": 49,
          "time": 50.96763999999996,
          "velocity": 0.7086614173228346,
          "duration": 0.12903200000000226
        },
        {
          "name": "B1",
          "midi": 35,
          "time": 50.96763999999996,
          "velocity": 0.5511811023622047,
          "duration": 0.12903200000000226
        },
        {
          "name": "D2",
          "midi": 38,
          "time": 51.35473599999996,
          "velocity": 0.7874015748031497,
          "duration": 0.12903200000000226
        },
        {
          "name": "C#3",
          "midi": 49,
          "time": 51.48376799999996,
          "velocity": 0.7874015748031497,
          "duration": 0.38709599999999966
        },
        {
          "name": "D2",
          "midi": 38,
          "time": 51.87086399999996,
          "velocity": 0.6299212598425197,
          "duration": 0.2580639999999974
        },
        {
          "name": "A2",
          "midi": 45,
          "time": 52.12892799999996,
          "velocity": 0.5511811023622047,
          "duration": 0.12903200000000226
        },
        {
          "name": "A2",
          "midi": 45,
          "time": 52.25795999999996,
          "velocity": 0.7086614173228346,
          "duration": 0.2580639999999974
        },
        {
          "name": "A2",
          "midi": 45,
          "time": 52.51602399999996,
          "velocity": 0.6299212598425197,
          "duration": 0.12903200000000226
        },
        {
          "name": "D#3",
          "midi": 51,
          "time": 52.64505599999996,
          "velocity": 0.7086614173228346,
          "duration": 0.2580639999999974
        },
        {
          "name": "D#3",
          "midi": 51,
          "time": 53.03215199999996,
          "velocity": 0.8267716535433071,
          "duration": 0.2580639999999974
        },
        {
          "name": "C#2",
          "midi": 37,
          "time": 53.03215199999996,
          "velocity": 0.5826771653543307,
          "duration": 0.2580639999999974
        },
        {
          "name": "D2",
          "midi": 38,
          "time": 53.29021599999996,
          "velocity": 0.15748031496062992,
          "duration": 0.12903200000000226
        },
        {
          "name": "D#3",
          "midi": 51,
          "time": 53.29021599999996,
          "velocity": 0.7086614173228346,
          "duration": 0.12903200000000226
        },
        {
          "name": "D#3",
          "midi": 51,
          "time": 53.41924799999996,
          "velocity": 0.7086614173228346,
          "duration": 0.2580639999999974
        },
        {
          "name": "D#3",
          "midi": 51,
          "time": 53.80634399999996,
          "velocity": 0.7874015748031497,
          "duration": 0.2580639999999974
        },
        {
          "name": "C#2",
          "midi": 37,
          "time": 53.80634399999996,
          "velocity": 0.5826771653543307,
          "duration": 0.2580639999999974
        },
        {
          "name": "D2",
          "midi": 38,
          "time": 54.06440799999996,
          "velocity": 0.15748031496062992,
          "duration": 0.12903200000000226
        },
        {
          "name": "D#3",
          "midi": 51,
          "time": 54.06440799999996,
          "velocity": 0.7086614173228346,
          "duration": 0.12903200000000226
        },
        {
          "name": "D#3",
          "midi": 51,
          "time": 54.19343999999996,
          "velocity": 0.7086614173228346,
          "duration": 0.2580639999999974
        },
        {
          "name": "D#3",
          "midi": 51,
          "time": 54.58053599999996,
          "velocity": 0.8267716535433071,
          "duration": 0.2580639999999974
        },
        {
          "name": "C#2",
          "midi": 37,
          "time": 54.58053599999996,
          "velocity": 0.5826771653543307,
          "duration": 0.2580639999999974
        },
        {
          "name": "D2",
          "midi": 38,
          "time": 54.83859999999996,
          "velocity": 0.15748031496062992,
          "duration": 0.12903200000000226
        },
        {
          "name": "D#3",
          "midi": 51,
          "time": 54.83859999999996,
          "velocity": 0.7086614173228346,
          "duration": 0.12903200000000226
        },
        {
          "name": "D#3",
          "midi": 51,
          "time": 54.96763199999996,
          "velocity": 0.7086614173228346,
          "duration": 0.2580639999999974
        },
        {
          "name": "D#3",
          "midi": 51,
          "time": 55.35472799999996,
          "velocity": 0.7874015748031497,
          "duration": 0.2580639999999974
        },
        {
          "name": "C#2",
          "midi": 37,
          "time": 55.35472799999996,
          "velocity": 0.5826771653543307,
          "duration": 0.2580639999999974
        },
        {
          "name": "D2",
          "midi": 38,
          "time": 55.612791999999956,
          "velocity": 0.15748031496062992,
          "duration": 0.12903200000000226
        },
        {
          "name": "D#3",
          "midi": 51,
          "time": 55.612791999999956,
          "velocity": 0.7086614173228346,
          "duration": 0.12903200000000226
        },
        {
          "name": "D#3",
          "midi": 51,
          "time": 55.74182399999996,
          "velocity": 0.7086614173228346,
          "duration": 0.2580639999999974
        },
        {
          "name": "D#3",
          "midi": 51,
          "time": 56.12891999999996,
          "velocity": 0.8267716535433071,
          "duration": 0.2580639999999974
        },
        {
          "name": "C#2",
          "midi": 37,
          "time": 56.12891999999996,
          "velocity": 0.5826771653543307,
          "duration": 0.2580639999999974
        },
        {
          "name": "D2",
          "midi": 38,
          "time": 56.386983999999956,
          "velocity": 0.15748031496062992,
          "duration": 0.12903200000000226
        },
        {
          "name": "D#3",
          "midi": 51,
          "time": 56.386983999999956,
          "velocity": 0.7086614173228346,
          "duration": 0.12903200000000226
        },
        {
          "name": "D#3",
          "midi": 51,
          "time": 56.51601599999996,
          "velocity": 0.7086614173228346,
          "duration": 0.2580639999999974
        },
        {
          "name": "D2",
          "midi": 38,
          "time": 56.774079999999955,
          "velocity": 0.7874015748031497,
          "duration": 0.12903200000000226
        },
        {
          "name": "D#3",
          "midi": 51,
          "time": 56.90311199999996,
          "velocity": 0.7874015748031497,
          "duration": 0.2580639999999974
        },
        {
          "name": "C#2",
          "midi": 37,
          "time": 56.90311199999996,
          "velocity": 0.5826771653543307,
          "duration": 0.2580639999999974
        },
        {
          "name": "D2",
          "midi": 38,
          "time": 57.161175999999955,
          "velocity": 0.15748031496062992,
          "duration": 0.12903200000000226
        },
        {
          "name": "D#3",
          "midi": 51,
          "time": 57.161175999999955,
          "velocity": 0.7086614173228346,
          "duration": 0.12903200000000226
        },
        {
          "name": "D#3",
          "midi": 51,
          "time": 57.29020799999996,
          "velocity": 0.7086614173228346,
          "duration": 0.2580639999999974
        },
        {
          "name": "D#3",
          "midi": 51,
          "time": 57.67730399999996,
          "velocity": 0.8267716535433071,
          "duration": 0.2580639999999974
        },
        {
          "name": "C#2",
          "midi": 37,
          "time": 57.67730399999996,
          "velocity": 0.5826771653543307,
          "duration": 0.2580639999999974
        },
        {
          "name": "D2",
          "midi": 38,
          "time": 57.935367999999954,
          "velocity": 0.15748031496062992,
          "duration": 0.12903200000000226
        },
        {
          "name": "D#3",
          "midi": 51,
          "time": 57.935367999999954,
          "velocity": 0.7086614173228346,
          "duration": 0.12903200000000226
        },
        {
          "name": "D#3",
          "midi": 51,
          "time": 58.06439999999996,
          "velocity": 0.7086614173228346,
          "duration": 0.2580639999999974
        },
        {
          "name": "D#3",
          "midi": 51,
          "time": 58.451495999999956,
          "velocity": 0.7874015748031497,
          "duration": 0.2580639999999974
        },
        {
          "name": "C#2",
          "midi": 37,
          "time": 58.451495999999956,
          "velocity": 0.5826771653543307,
          "duration": 0.2580639999999974
        },
        {
          "name": "D2",
          "midi": 38,
          "time": 58.709559999999954,
          "velocity": 0.15748031496062992,
          "duration": 0.12903200000000226
        },
        {
          "name": "D#3",
          "midi": 51,
          "time": 58.709559999999954,
          "velocity": 0.7086614173228346,
          "duration": 0.12903200000000226
        },
        {
          "name": "D#3",
          "midi": 51,
          "time": 58.838591999999956,
          "velocity": 0.7086614173228346,
          "duration": 0.2580639999999974
        },
        {
          "name": "D#3",
          "midi": 51,
          "time": 59.225687999999955,
          "velocity": 0.8267716535433071,
          "duration": 0.2580639999999974
        },
        {
          "name": "C#2",
          "midi": 37,
          "time": 59.225687999999955,
          "velocity": 0.5826771653543307,
          "duration": 0.2580639999999974
        },
        {
          "name": "D2",
          "midi": 38,
          "time": 59.48375199999995,
          "velocity": 0.15748031496062992,
          "duration": 0.12903200000000226
        },
        {
          "name": "D#3",
          "midi": 51,
          "time": 59.48375199999995,
          "velocity": 0.7086614173228346,
          "duration": 0.12903200000000226
        },
        {
          "name": "D#3",
          "midi": 51,
          "time": 59.612783999999955,
          "velocity": 0.7086614173228346,
          "duration": 0.2580639999999974
        },
        {
          "name": "D#3",
          "midi": 51,
          "time": 59.999879999999955,
          "velocity": 0.7874015748031497,
          "duration": 0.2580639999999974
        },
        {
          "name": "C#2",
          "midi": 37,
          "time": 59.999879999999955,
          "velocity": 0.5826771653543307,
          "duration": 0.2580639999999974
        },
        {
          "name": "D2",
          "midi": 38,
          "time": 60.25794399999995,
          "velocity": 0.15748031496062992,
          "duration": 0.12903200000000226
        },
        {
          "name": "D#3",
          "midi": 51,
          "time": 60.25794399999995,
          "velocity": 0.7086614173228346,
          "duration": 0.12903200000000226
        },
        {
          "name": "D#3",
          "midi": 51,
          "time": 60.386975999999954,
          "velocity": 0.7086614173228346,
          "duration": 0.2580639999999974
        },
        {
          "name": "D#3",
          "midi": 51,
          "time": 60.774071999999954,
          "velocity": 0.8267716535433071,
          "duration": 0.2580639999999974
        },
        {
          "name": "C#2",
          "midi": 37,
          "time": 60.774071999999954,
          "velocity": 0.5826771653543307,
          "duration": 0.2580639999999974
        },
        {
          "name": "D2",
          "midi": 38,
          "time": 61.03213599999995,
          "velocity": 0.15748031496062992,
          "duration": 0.12903200000000226
        },
        {
          "name": "D#3",
          "midi": 51,
          "time": 61.03213599999995,
          "velocity": 0.7086614173228346,
          "duration": 0.12903200000000226
        },
        {
          "name": "D#3",
          "midi": 51,
          "time": 61.161167999999954,
          "velocity": 0.7086614173228346,
          "duration": 0.2580639999999974
        },
        {
          "name": "D#3",
          "midi": 51,
          "time": 61.54826399999995,
          "velocity": 0.7874015748031497,
          "duration": 0.2580639999999974
        },
        {
          "name": "C#2",
          "midi": 37,
          "time": 61.54826399999995,
          "velocity": 0.5826771653543307,
          "duration": 0.2580639999999974
        },
        {
          "name": "D2",
          "midi": 38,
          "time": 61.80632799999995,
          "velocity": 0.15748031496062992,
          "duration": 0.12903200000000226
        },
        {
          "name": "D#3",
          "midi": 51,
          "time": 61.80632799999995,
          "velocity": 0.7086614173228346,
          "duration": 0.12903200000000226
        },
        {
          "name": "D#3",
          "midi": 51,
          "time": 61.93535999999995,
          "velocity": 0.6299212598425197,
          "duration": 0.38709599999999966
        },
        {
          "name": "D#3",
          "midi": 51,
          "time": 62.32245599999995,
          "velocity": 0.7086614173228346,
          "duration": 0.38709599999999966
        },
        {
          "name": "C#2",
          "midi": 37,
          "time": 62.32245599999995,
          "velocity": 0.7086614173228346,
          "duration": 0.38709599999999966
        },
        {
          "name": "D#3",
          "midi": 51,
          "time": 62.70955199999995,
          "velocity": 0.6299212598425197,
          "duration": 0.2580639999999974
        },
        {
          "name": "D2",
          "midi": 38,
          "time": 62.96761599999995,
          "velocity": 0.7086614173228346,
          "duration": 0.12903200000000226
        },
        {
          "name": "C#2",
          "midi": 37,
          "time": 63.09664799999995,
          "velocity": 0.7086614173228346,
          "duration": 0.2580639999999974
        },
        {
          "name": "C3",
          "midi": 48,
          "time": 63.09664799999995,
          "velocity": 0.6299212598425197,
          "duration": 0.2580639999999974
        },
        {
          "name": "B1",
          "midi": 35,
          "time": 63.35471199999995,
          "velocity": 0.5511811023622047,
          "duration": 0.12903200000000226
        },
        {
          "name": "C#3",
          "midi": 49,
          "time": 63.35471199999995,
          "velocity": 0.7874015748031497,
          "duration": 0.12903200000000226
        },
        {
          "name": "F#2",
          "midi": 42,
          "time": 63.87083999999995,
          "velocity": 0.36220472440944884,
          "duration": 0.12903200000000226
        },
        {
          "name": "F#2",
          "midi": 42,
          "time": 63.999871999999954,
          "velocity": 0.4094488188976378,
          "duration": 0.12903199999999515
        },
        {
          "name": "F#2",
          "midi": 42,
          "time": 64.12890399999995,
          "velocity": 0.4566929133858268,
          "duration": 0.12903199999999515
        },
        {
          "name": "F#2",
          "midi": 42,
          "time": 64.25793599999994,
          "velocity": 0.5039370078740157,
          "duration": 0.12903199999999515
        },
        {
          "name": "F#2",
          "midi": 42,
          "time": 64.38696799999994,
          "velocity": 0.5511811023622047,
          "duration": 0.12903199999999515
        },
        {
          "name": "F#2",
          "midi": 42,
          "time": 64.51599999999993,
          "velocity": 0.5984251968503937,
          "duration": 0.12903199999999515
        },
        {
          "name": "F#2",
          "midi": 42,
          "time": 64.64503199999993,
          "velocity": 0.7874015748031497,
          "duration": 0.38709599999999966
        },
        {
          "name": "C#3",
          "midi": 49,
          "time": 65.03212799999993,
          "velocity": 0.7086614173228346,
          "duration": 0.2580640000000045
        },
        {
          "name": "D#3",
          "midi": 51,
          "time": 65.41922399999993,
          "velocity": 0.8267716535433071,
          "duration": 0.2580640000000045
        },
        {
          "name": "C#2",
          "midi": 37,
          "time": 65.41922399999993,
          "velocity": 0.5826771653543307,
          "duration": 0.2580640000000045
        },
        {
          "name": "D2",
          "midi": 38,
          "time": 65.67728799999993,
          "velocity": 0.15748031496062992,
          "duration": 0.12903199999999515
        },
        {
          "name": "D#3",
          "midi": 51,
          "time": 65.67728799999993,
          "velocity": 0.7086614173228346,
          "duration": 0.12903199999999515
        },
        {
          "name": "D#3",
          "midi": 51,
          "time": 65.80631999999993,
          "velocity": 0.7086614173228346,
          "duration": 0.2580640000000045
        },
        {
          "name": "D#3",
          "midi": 51,
          "time": 66.19341599999993,
          "velocity": 0.7874015748031497,
          "duration": 0.2580640000000045
        },
        {
          "name": "C#2",
          "midi": 37,
          "time": 66.19341599999993,
          "velocity": 0.5826771653543307,
          "duration": 0.2580640000000045
        },
        {
          "name": "D2",
          "midi": 38,
          "time": 66.45147999999993,
          "velocity": 0.15748031496062992,
          "duration": 0.12903199999999515
        },
        {
          "name": "D#3",
          "midi": 51,
          "time": 66.45147999999993,
          "velocity": 0.7086614173228346,
          "duration": 0.12903199999999515
        },
        {
          "name": "D#3",
          "midi": 51,
          "time": 66.58051199999993,
          "velocity": 0.7086614173228346,
          "duration": 0.2580640000000045
        },
        {
          "name": "D#3",
          "midi": 51,
          "time": 66.96760799999993,
          "velocity": 0.8267716535433071,
          "duration": 0.2580640000000045
        },
        {
          "name": "C#2",
          "midi": 37,
          "time": 66.96760799999993,
          "velocity": 0.5826771653543307,
          "duration": 0.2580640000000045
        },
        {
          "name": "D2",
          "midi": 38,
          "time": 67.22567199999993,
          "velocity": 0.15748031496062992,
          "duration": 0.12903199999999515
        },
        {
          "name": "D#3",
          "midi": 51,
          "time": 67.22567199999993,
          "velocity": 0.7086614173228346,
          "duration": 0.12903199999999515
        },
        {
          "name": "D#3",
          "midi": 51,
          "time": 67.35470399999993,
          "velocity": 0.7086614173228346,
          "duration": 0.2580640000000045
        },
        {
          "name": "D#3",
          "midi": 51,
          "time": 67.74179999999993,
          "velocity": 0.7874015748031497,
          "duration": 0.2580640000000045
        },
        {
          "name": "C#2",
          "midi": 37,
          "time": 67.74179999999993,
          "velocity": 0.5826771653543307,
          "duration": 0.2580640000000045
        },
        {
          "name": "D2",
          "midi": 38,
          "time": 67.99986399999993,
          "velocity": 0.15748031496062992,
          "duration": 0.12903199999999515
        },
        {
          "name": "D#3",
          "midi": 51,
          "time": 67.99986399999993,
          "velocity": 0.7086614173228346,
          "duration": 0.12903199999999515
        },
        {
          "name": "D#3",
          "midi": 51,
          "time": 68.12889599999993,
          "velocity": 0.7086614173228346,
          "duration": 0.2580640000000045
        },
        {
          "name": "D#3",
          "midi": 51,
          "time": 68.51599199999993,
          "velocity": 0.8267716535433071,
          "duration": 0.2580640000000045
        },
        {
          "name": "C#2",
          "midi": 37,
          "time": 68.51599199999993,
          "velocity": 0.5826771653543307,
          "duration": 0.2580640000000045
        },
        {
          "name": "D2",
          "midi": 38,
          "time": 68.77405599999993,
          "velocity": 0.15748031496062992,
          "duration": 0.12903199999999515
        },
        {
          "name": "D#3",
          "midi": 51,
          "time": 68.77405599999993,
          "velocity": 0.7086614173228346,
          "duration": 0.12903199999999515
        },
        {
          "name": "D#3",
          "midi": 51,
          "time": 68.90308799999993,
          "velocity": 0.7086614173228346,
          "duration": 0.2580640000000045
        },
        {
          "name": "D#3",
          "midi": 51,
          "time": 69.29018399999993,
          "velocity": 0.7874015748031497,
          "duration": 0.2580640000000045
        },
        {
          "name": "C#2",
          "midi": 37,
          "time": 69.29018399999993,
          "velocity": 0.5826771653543307,
          "duration": 0.2580640000000045
        },
        {
          "name": "D2",
          "midi": 38,
          "time": 69.54824799999993,
          "velocity": 0.15748031496062992,
          "duration": 0.12903199999999515
        },
        {
          "name": "D#3",
          "midi": 51,
          "time": 69.54824799999993,
          "velocity": 0.7086614173228346,
          "duration": 0.12903199999999515
        },
        {
          "name": "D#3",
          "midi": 51,
          "time": 69.67727999999993,
          "velocity": 0.7086614173228346,
          "duration": 0.2580640000000045
        },
        {
          "name": "D2",
          "midi": 38,
          "time": 69.93534399999993,
          "velocity": 0.7874015748031497,
          "duration": 0.12903199999999515
        },
        {
          "name": "D#3",
          "midi": 51,
          "time": 70.06437599999992,
          "velocity": 0.8267716535433071,
          "duration": 0.2580640000000045
        },
        {
          "name": "C#2",
          "midi": 37,
          "time": 70.06437599999992,
          "velocity": 0.5826771653543307,
          "duration": 0.2580640000000045
        },
        {
          "name": "D2",
          "midi": 38,
          "time": 70.32243999999993,
          "velocity": 0.15748031496062992,
          "duration": 0.12903199999999515
        },
        {
          "name": "D#3",
          "midi": 51,
          "time": 70.32243999999993,
          "velocity": 0.7086614173228346,
          "duration": 0.12903199999999515
        },
        {
          "name": "D#3",
          "midi": 51,
          "time": 70.45147199999992,
          "velocity": 0.7086614173228346,
          "duration": 0.2580640000000045
        },
        {
          "name": "D#3",
          "midi": 51,
          "time": 70.83856799999992,
          "velocity": 0.7874015748031497,
          "duration": 0.2580640000000045
        },
        {
          "name": "C#2",
          "midi": 37,
          "time": 70.83856799999992,
          "velocity": 0.5826771653543307,
          "duration": 0.2580640000000045
        },
        {
          "name": "D2",
          "midi": 38,
          "time": 71.09663199999993,
          "velocity": 0.15748031496062992,
          "duration": 0.12903199999999515
        },
        {
          "name": "D#3",
          "midi": 51,
          "time": 71.09663199999993,
          "velocity": 0.7086614173228346,
          "duration": 0.12903199999999515
        },
        {
          "name": "D#3",
          "midi": 51,
          "time": 71.22566399999992,
          "velocity": 0.7086614173228346,
          "duration": 0.2580640000000045
        },
        {
          "name": "D#3",
          "midi": 51,
          "time": 71.61275999999992,
          "velocity": 0.8267716535433071,
          "duration": 0.2580640000000045
        },
        {
          "name": "C#2",
          "midi": 37,
          "time": 71.61275999999992,
          "velocity": 0.5826771653543307,
          "duration": 0.2580640000000045
        },
        {
          "name": "D2",
          "midi": 38,
          "time": 71.87082399999993,
          "velocity": 0.15748031496062992,
          "duration": 0.12903199999999515
        },
        {
          "name": "D#3",
          "midi": 51,
          "time": 71.87082399999993,
          "velocity": 0.7086614173228346,
          "duration": 0.12903199999999515
        },
        {
          "name": "D#3",
          "midi": 51,
          "time": 71.99985599999992,
          "velocity": 0.7086614173228346,
          "duration": 0.2580640000000045
        },
        {
          "name": "D2",
          "midi": 38,
          "time": 72.25791999999993,
          "velocity": 0.7874015748031497,
          "duration": 0.12903199999999515
        },
        {
          "name": "D#3",
          "midi": 51,
          "time": 72.38695199999992,
          "velocity": 0.7874015748031497,
          "duration": 0.2580640000000045
        },
        {
          "name": "C#2",
          "midi": 37,
          "time": 72.38695199999992,
          "velocity": 0.5826771653543307,
          "duration": 0.2580640000000045
        },
        {
          "name": "D2",
          "midi": 38,
          "time": 72.64501599999993,
          "velocity": 0.15748031496062992,
          "duration": 0.12903199999999515
        },
        {
          "name": "D#3",
          "midi": 51,
          "time": 72.64501599999993,
          "velocity": 0.7086614173228346,
          "duration": 0.12903199999999515
        },
        {
          "name": "D#3",
          "midi": 51,
          "time": 72.77404799999992,
          "velocity": 0.7086614173228346,
          "duration": 0.2580640000000045
        },
        {
          "name": "D#3",
          "midi": 51,
          "time": 73.16114399999992,
          "velocity": 0.8267716535433071,
          "duration": 0.2580640000000045
        },
        {
          "name": "C#2",
          "midi": 37,
          "time": 73.16114399999992,
          "velocity": 0.5826771653543307,
          "duration": 0.2580640000000045
        },
        {
          "name": "D2",
          "midi": 38,
          "time": 73.41920799999993,
          "velocity": 0.7874015748031497,
          "duration": 0.12903199999999515
        },
        {
          "name": "D#3",
          "midi": 51,
          "time": 73.41920799999993,
          "velocity": 0.7086614173228346,
          "duration": 0.12903199999999515
        },
        {
          "name": "D#3",
          "midi": 51,
          "time": 73.54823999999992,
          "velocity": 0.7086614173228346,
          "duration": 0.2580640000000045
        },
        {
          "name": "D#3",
          "midi": 51,
          "time": 73.93533599999992,
          "velocity": 0.7874015748031497,
          "duration": 0.2580640000000045
        },
        {
          "name": "C#2",
          "midi": 37,
          "time": 73.93533599999992,
          "velocity": 0.5826771653543307,
          "duration": 0.2580640000000045
        },
        {
          "name": "D2",
          "midi": 38,
          "time": 74.19339999999993,
          "velocity": 0.15748031496062992,
          "duration": 0.12903199999999515
        },
        {
          "name": "D#3",
          "midi": 51,
          "time": 74.19339999999993,
          "velocity": 0.7086614173228346,
          "duration": 0.12903199999999515
        },
        {
          "name": "D#3",
          "midi": 51,
          "time": 74.32243199999992,
          "velocity": 0.6299212598425197,
          "duration": 0.38709599999999966
        },
        {
          "name": "D#3",
          "midi": 51,
          "time": 74.70952799999992,
          "velocity": 0.7086614173228346,
          "duration": 0.2580640000000045
        },
        {
          "name": "D#3",
          "midi": 51,
          "time": 74.96759199999993,
          "velocity": 0.6299212598425197,
          "duration": 0.12903199999999515
        },
        {
          "name": "D2",
          "midi": 38,
          "time": 74.96759199999993,
          "velocity": 0.7086614173228346,
          "duration": 0.12903199999999515
        },
        {
          "name": "D#3",
          "midi": 51,
          "time": 75.09662399999992,
          "velocity": 0.6299212598425197,
          "duration": 0.2580640000000045
        },
        {
          "name": "C3",
          "midi": 48,
          "time": 75.35468799999992,
          "velocity": 0.47244094488188976,
          "duration": 0.041935399999999845
        },
        {
          "name": "C3",
          "midi": 48,
          "time": 75.39662339999992,
          "velocity": 0.5511811023622047,
          "duration": 0.041935399999999845
        },
        {
          "name": "C3",
          "midi": 48,
          "time": 75.43855879999992,
          "velocity": 0.6299212598425197,
          "duration": 0.04516119999999546
        },
        {
          "name": "C3",
          "midi": 48,
          "time": 75.48371999999992,
          "velocity": 0.7874015748031497,
          "duration": 0.2580640000000045
        },
        {
          "name": "C#3",
          "midi": 49,
          "time": 75.74178399999992,
          "velocity": 0.7086614173228346,
          "duration": 0.12903199999999515
        },
        {
          "name": "B1",
          "midi": 35,
          "time": 75.74178399999992,
          "velocity": 0.5511811023622047,
          "duration": 0.12903199999999515
        },
        {
          "name": "D2",
          "midi": 38,
          "time": 76.12887999999992,
          "velocity": 0.7874015748031497,
          "duration": 0.12903199999999515
        },
        {
          "name": "C#3",
          "midi": 49,
          "time": 76.25791199999992,
          "velocity": 0.7874015748031497,
          "duration": 0.38709599999999966
        },
        {
          "name": "D2",
          "midi": 38,
          "time": 76.64500799999992,
          "velocity": 0.6299212598425197,
          "duration": 0.2580640000000045
        },
        {
          "name": "A2",
          "midi": 45,
          "time": 76.90307199999992,
          "velocity": 0.5511811023622047,
          "duration": 0.12903199999999515
        },
        {
          "name": "A2",
          "midi": 45,
          "time": 77.03210399999992,
          "velocity": 0.7086614173228346,
          "duration": 0.2580640000000045
        },
        {
          "name": "A2",
          "midi": 45,
          "time": 77.29016799999992,
          "velocity": 0.6299212598425197,
          "duration": 0.12903199999999515
        },
        {
          "name": "C#3",
          "midi": 49,
          "time": 77.41919999999992,
          "velocity": 0.7086614173228346,
          "duration": 0.2580640000000045
        },
        {
          "name": "D#3",
          "midi": 51,
          "time": 77.80629599999992,
          "velocity": 0.8267716535433071,
          "duration": 0.2580640000000045
        },
        {
          "name": "C#2",
          "midi": 37,
          "time": 77.80629599999992,
          "velocity": 0.5826771653543307,
          "duration": 0.2580640000000045
        },
        {
          "name": "D2",
          "midi": 38,
          "time": 78.06435999999992,
          "velocity": 0.15748031496062992,
          "duration": 0.12903199999999515
        },
        {
          "name": "D#3",
          "midi": 51,
          "time": 78.06435999999992,
          "velocity": 0.7086614173228346,
          "duration": 0.12903199999999515
        },
        {
          "name": "D#3",
          "midi": 51,
          "time": 78.19339199999992,
          "velocity": 0.7086614173228346,
          "duration": 0.2580640000000045
        },
        {
          "name": "D#3",
          "midi": 51,
          "time": 78.58048799999992,
          "velocity": 0.7874015748031497,
          "duration": 0.2580640000000045
        },
        {
          "name": "C#2",
          "midi": 37,
          "time": 78.58048799999992,
          "velocity": 0.5826771653543307,
          "duration": 0.2580640000000045
        },
        {
          "name": "D2",
          "midi": 38,
          "time": 78.83855199999992,
          "velocity": 0.15748031496062992,
          "duration": 0.12903199999999515
        },
        {
          "name": "D#3",
          "midi": 51,
          "time": 78.83855199999992,
          "velocity": 0.7086614173228346,
          "duration": 0.12903199999999515
        },
        {
          "name": "D#3",
          "midi": 51,
          "time": 78.96758399999992,
          "velocity": 0.7086614173228346,
          "duration": 0.2580640000000045
        },
        {
          "name": "D2",
          "midi": 38,
          "time": 79.22564799999992,
          "velocity": 0.7874015748031497,
          "duration": 0.12903199999999515
        },
        {
          "name": "D#3",
          "midi": 51,
          "time": 79.35467999999992,
          "velocity": 0.8267716535433071,
          "duration": 0.2580640000000045
        },
        {
          "name": "C#2",
          "midi": 37,
          "time": 79.35467999999992,
          "velocity": 0.5826771653543307,
          "duration": 0.2580640000000045
        },
        {
          "name": "D2",
          "midi": 38,
          "time": 79.61274399999992,
          "velocity": 0.15748031496062992,
          "duration": 0.12903199999999515
        },
        {
          "name": "D#3",
          "midi": 51,
          "time": 79.61274399999992,
          "velocity": 0.7086614173228346,
          "duration": 0.12903199999999515
        },
        {
          "name": "D#3",
          "midi": 51,
          "time": 79.74177599999992,
          "velocity": 0.7086614173228346,
          "duration": 0.2580640000000045
        },
        {
          "name": "D#3",
          "midi": 51,
          "time": 80.12887199999992,
          "velocity": 0.7874015748031497,
          "duration": 0.2580640000000045
        },
        {
          "name": "C#2",
          "midi": 37,
          "time": 80.12887199999992,
          "velocity": 0.5826771653543307,
          "duration": 0.2580640000000045
        },
        {
          "name": "D2",
          "midi": 38,
          "time": 80.38693599999992,
          "velocity": 0.15748031496062992,
          "duration": 0.12903199999999515
        },
        {
          "name": "D#3",
          "midi": 51,
          "time": 80.38693599999992,
          "velocity": 0.7086614173228346,
          "duration": 0.12903199999999515
        },
        {
          "name": "D#3",
          "midi": 51,
          "time": 80.51596799999992,
          "velocity": 0.7086614173228346,
          "duration": 0.2580640000000045
        },
        {
          "name": "D#3",
          "midi": 51,
          "time": 80.90306399999992,
          "velocity": 0.8267716535433071,
          "duration": 0.2580640000000045
        },
        {
          "name": "C#2",
          "midi": 37,
          "time": 80.90306399999992,
          "velocity": 0.5826771653543307,
          "duration": 0.2580640000000045
        },
        {
          "name": "D2",
          "midi": 38,
          "time": 81.16112799999992,
          "velocity": 0.15748031496062992,
          "duration": 0.12903199999999515
        },
        {
          "name": "D#3",
          "midi": 51,
          "time": 81.16112799999992,
          "velocity": 0.7086614173228346,
          "duration": 0.12903199999999515
        },
        {
          "name": "D#3",
          "midi": 51,
          "time": 81.29015999999991,
          "velocity": 0.7086614173228346,
          "duration": 0.2580640000000045
        },
        {
          "name": "D#3",
          "midi": 51,
          "time": 81.67725599999991,
          "velocity": 0.7874015748031497,
          "duration": 0.2580640000000045
        },
        {
          "name": "C#2",
          "midi": 37,
          "time": 81.67725599999991,
          "velocity": 0.5826771653543307,
          "duration": 0.2580640000000045
        },
        {
          "name": "D2",
          "midi": 38,
          "time": 81.93531999999992,
          "velocity": 0.7874015748031497,
          "duration": 0.12903199999999515
        },
        {
          "name": "D#3",
          "midi": 51,
          "time": 81.93531999999992,
          "velocity": 0.7086614173228346,
          "duration": 0.12903199999999515
        },
        {
          "name": "D#3",
          "midi": 51,
          "time": 82.06435199999991,
          "velocity": 0.7086614173228346,
          "duration": 0.2580640000000045
        },
        {
          "name": "D#3",
          "midi": 51,
          "time": 82.45144799999991,
          "velocity": 0.8267716535433071,
          "duration": 0.2580640000000045
        },
        {
          "name": "C#2",
          "midi": 37,
          "time": 82.45144799999991,
          "velocity": 0.5826771653543307,
          "duration": 0.2580640000000045
        },
        {
          "name": "D2",
          "midi": 38,
          "time": 82.70951199999992,
          "velocity": 0.15748031496062992,
          "duration": 0.12903199999999515
        },
        {
          "name": "D#3",
          "midi": 51,
          "time": 82.70951199999992,
          "velocity": 0.7086614173228346,
          "duration": 0.12903199999999515
        },
        {
          "name": "D#3",
          "midi": 51,
          "time": 82.83854399999991,
          "velocity": 0.7086614173228346,
          "duration": 0.2580640000000045
        },
        {
          "name": "D#3",
          "midi": 51,
          "time": 83.22563999999991,
          "velocity": 0.7874015748031497,
          "duration": 0.2580640000000045
        },
        {
          "name": "C#2",
          "midi": 37,
          "time": 83.22563999999991,
          "velocity": 0.5826771653543307,
          "duration": 0.2580640000000045
        },
        {
          "name": "D2",
          "midi": 38,
          "time": 83.48370399999992,
          "velocity": 0.15748031496062992,
          "duration": 0.12903199999999515
        },
        {
          "name": "D#3",
          "midi": 51,
          "time": 83.48370399999992,
          "velocity": 0.7086614173228346,
          "duration": 0.12903199999999515
        },
        {
          "name": "D#3",
          "midi": 51,
          "time": 83.61273599999991,
          "velocity": 0.7086614173228346,
          "duration": 0.2580640000000045
        },
        {
          "name": "D#3",
          "midi": 51,
          "time": 83.99983199999991,
          "velocity": 0.8267716535433071,
          "duration": 0.2580640000000045
        },
        {
          "name": "C#2",
          "midi": 37,
          "time": 83.99983199999991,
          "velocity": 0.5826771653543307,
          "duration": 0.2580640000000045
        },
        {
          "name": "D2",
          "midi": 38,
          "time": 84.25789599999992,
          "velocity": 0.15748031496062992,
          "duration": 0.12903199999999515
        },
        {
          "name": "D#3",
          "midi": 51,
          "time": 84.25789599999992,
          "velocity": 0.7086614173228346,
          "duration": 0.12903199999999515
        },
        {
          "name": "D#3",
          "midi": 51,
          "time": 84.38692799999991,
          "velocity": 0.7086614173228346,
          "duration": 0.2580640000000045
        },
        {
          "name": "D#3",
          "midi": 51,
          "time": 84.77402399999991,
          "velocity": 0.7874015748031497,
          "duration": 0.2580640000000045
        },
        {
          "name": "C#2",
          "midi": 37,
          "time": 84.77402399999991,
          "velocity": 0.5826771653543307,
          "duration": 0.2580640000000045
        },
        {
          "name": "D2",
          "midi": 38,
          "time": 85.03208799999992,
          "velocity": 0.15748031496062992,
          "duration": 0.12903199999999515
        },
        {
          "name": "D#3",
          "midi": 51,
          "time": 85.03208799999992,
          "velocity": 0.7086614173228346,
          "duration": 0.12903199999999515
        },
        {
          "name": "D#3",
          "midi": 51,
          "time": 85.16111999999991,
          "velocity": 0.7086614173228346,
          "duration": 0.2580640000000045
        },
        {
          "name": "D#3",
          "midi": 51,
          "time": 85.54821599999991,
          "velocity": 0.8267716535433071,
          "duration": 0.2580640000000045
        },
        {
          "name": "C#2",
          "midi": 37,
          "time": 85.54821599999991,
          "velocity": 0.5826771653543307,
          "duration": 0.2580640000000045
        },
        {
          "name": "D2",
          "midi": 38,
          "time": 85.80627999999992,
          "velocity": 0.15748031496062992,
          "duration": 0.12903199999999515
        },
        {
          "name": "D#3",
          "midi": 51,
          "time": 85.80627999999992,
          "velocity": 0.7086614173228346,
          "duration": 0.12903199999999515
        },
        {
          "name": "D#3",
          "midi": 51,
          "time": 85.93531199999991,
          "velocity": 0.7086614173228346,
          "duration": 0.2580640000000045
        },
        {
          "name": "D#3",
          "midi": 51,
          "time": 86.32240799999991,
          "velocity": 0.7874015748031497,
          "duration": 0.2580640000000045
        },
        {
          "name": "C#2",
          "midi": 37,
          "time": 86.32240799999991,
          "velocity": 0.5826771653543307,
          "duration": 0.2580640000000045
        },
        {
          "name": "D2",
          "midi": 38,
          "time": 86.58047199999992,
          "velocity": 0.15748031496062992,
          "duration": 0.12903199999999515
        },
        {
          "name": "D#3",
          "midi": 51,
          "time": 86.58047199999992,
          "velocity": 0.7086614173228346,
          "duration": 0.12903199999999515
        },
        {
          "name": "D#3",
          "midi": 51,
          "time": 86.70950399999991,
          "velocity": 0.6299212598425197,
          "duration": 0.38709599999999966
        },
        {
          "name": "D#3",
          "midi": 51,
          "time": 87.09659999999991,
          "velocity": 0.7086614173228346,
          "duration": 0.2580640000000045
        },
        {
          "name": "D#3",
          "midi": 51,
          "time": 87.35466399999991,
          "velocity": 0.6299212598425197,
          "duration": 0.12903199999999515
        },
        {
          "name": "D2",
          "midi": 38,
          "time": 87.35466399999991,
          "velocity": 0.7086614173228346,
          "duration": 0.12903199999999515
        },
        {
          "name": "D#3",
          "midi": 51,
          "time": 87.48369599999991,
          "velocity": 0.6299212598425197,
          "duration": 0.2580640000000045
        },
        {
          "name": "C3",
          "midi": 48,
          "time": 87.74175999999991,
          "velocity": 0.47244094488188976,
          "duration": 0.041935399999999845
        },
        {
          "name": "C3",
          "midi": 48,
          "time": 87.78369539999991,
          "velocity": 0.5511811023622047,
          "duration": 0.041935399999999845
        },
        {
          "name": "C3",
          "midi": 48,
          "time": 87.82563079999991,
          "velocity": 0.6299212598425197,
          "duration": 0.04516119999999546
        },
        {
          "name": "C3",
          "midi": 48,
          "time": 87.87079199999991,
          "velocity": 0.7874015748031497,
          "duration": 0.2580640000000045
        },
        {
          "name": "C#3",
          "midi": 49,
          "time": 88.12885599999991,
          "velocity": 0.7086614173228346,
          "duration": 0.12903199999999515
        },
        {
          "name": "B1",
          "midi": 35,
          "time": 88.12885599999991,
          "velocity": 0.5511811023622047,
          "duration": 0.12903199999999515
        },
        {
          "name": "D2",
          "midi": 38,
          "time": 88.51595199999991,
          "velocity": 0.7874015748031497,
          "duration": 0.12903199999999515
        },
        {
          "name": "C#3",
          "midi": 49,
          "time": 88.64498399999991,
          "velocity": 0.7874015748031497,
          "duration": 0.38709599999999966
        },
        {
          "name": "D2",
          "midi": 38,
          "time": 89.03207999999991,
          "velocity": 0.6299212598425197,
          "duration": 0.2580640000000045
        },
        {
          "name": "A2",
          "midi": 45,
          "time": 89.29014399999991,
          "velocity": 0.5511811023622047,
          "duration": 0.12903199999999515
        },
        {
          "name": "A2",
          "midi": 45,
          "time": 89.41917599999991,
          "velocity": 0.7086614173228346,
          "duration": 0.2580640000000045
        },
        {
          "name": "A2",
          "midi": 45,
          "time": 89.67723999999991,
          "velocity": 0.6299212598425197,
          "duration": 0.12903199999999515
        },
        {
          "name": "D#3",
          "midi": 51,
          "time": 89.80627199999991,
          "velocity": 0.7086614173228346,
          "duration": 0.2580640000000045
        },
        {
          "name": "D#3",
          "midi": 51,
          "time": 90.19336799999991,
          "velocity": 0.8267716535433071,
          "duration": 0.2580640000000045
        },
        {
          "name": "C#2",
          "midi": 37,
          "time": 90.19336799999991,
          "velocity": 0.5826771653543307,
          "duration": 0.2580640000000045
        },
        {
          "name": "D2",
          "midi": 38,
          "time": 90.45143199999991,
          "velocity": 0.15748031496062992,
          "duration": 0.12903199999999515
        },
        {
          "name": "D#3",
          "midi": 51,
          "time": 90.45143199999991,
          "velocity": 0.7086614173228346,
          "duration": 0.12903199999999515
        },
        {
          "name": "C#3",
          "midi": 49,
          "time": 90.5804639999999,
          "velocity": 0.7086614173228346,
          "duration": 0.2580640000000045
        },
        {
          "name": "D#3",
          "midi": 51,
          "time": 90.9675599999999,
          "velocity": 0.7874015748031497,
          "duration": 0.2580640000000045
        },
        {
          "name": "C#2",
          "midi": 37,
          "time": 90.9675599999999,
          "velocity": 0.5826771653543307,
          "duration": 0.2580640000000045
        },
        {
          "name": "D2",
          "midi": 38,
          "time": 91.22562399999991,
          "velocity": 0.15748031496062992,
          "duration": 0.12903199999999515
        },
        {
          "name": "D#3",
          "midi": 51,
          "time": 91.22562399999991,
          "velocity": 0.7086614173228346,
          "duration": 0.12903199999999515
        },
        {
          "name": "D#3",
          "midi": 51,
          "time": 91.3546559999999,
          "velocity": 0.7086614173228346,
          "duration": 0.2580640000000045
        },
        {
          "name": "D#3",
          "midi": 51,
          "time": 91.7417519999999,
          "velocity": 0.8267716535433071,
          "duration": 0.2580640000000045
        },
        {
          "name": "C#2",
          "midi": 37,
          "time": 91.7417519999999,
          "velocity": 0.5826771653543307,
          "duration": 0.2580640000000045
        },
        {
          "name": "D2",
          "midi": 38,
          "time": 91.99981599999991,
          "velocity": 0.15748031496062992,
          "duration": 0.12903199999999515
        },
        {
          "name": "D#3",
          "midi": 51,
          "time": 91.99981599999991,
          "velocity": 0.7086614173228346,
          "duration": 0.12903199999999515
        },
        {
          "name": "D#3",
          "midi": 51,
          "time": 92.1288479999999,
          "velocity": 0.7086614173228346,
          "duration": 0.2580640000000045
        },
        {
          "name": "D#3",
          "midi": 51,
          "time": 92.5159439999999,
          "velocity": 0.7874015748031497,
          "duration": 0.2580640000000045
        },
        {
          "name": "C#2",
          "midi": 37,
          "time": 92.5159439999999,
          "velocity": 0.5826771653543307,
          "duration": 0.2580640000000045
        },
        {
          "name": "D2",
          "midi": 38,
          "time": 92.77400799999991,
          "velocity": 0.7874015748031497,
          "duration": 0.12903199999999515
        },
        {
          "name": "D#3",
          "midi": 51,
          "time": 92.77400799999991,
          "velocity": 0.7086614173228346,
          "duration": 0.12903199999999515
        },
        {
          "name": "D#3",
          "midi": 51,
          "time": 92.9030399999999,
          "velocity": 0.7086614173228346,
          "duration": 0.2580640000000045
        },
        {
          "name": "D#3",
          "midi": 51,
          "time": 93.2901359999999,
          "velocity": 0.8267716535433071,
          "duration": 0.2580640000000045
        },
        {
          "name": "C#2",
          "midi": 37,
          "time": 93.2901359999999,
          "velocity": 0.5826771653543307,
          "duration": 0.2580640000000045
        },
        {
          "name": "D2",
          "midi": 38,
          "time": 93.54819999999991,
          "velocity": 0.15748031496062992,
          "duration": 0.12903199999999515
        },
        {
          "name": "D#3",
          "midi": 51,
          "time": 93.54819999999991,
          "velocity": 0.7086614173228346,
          "duration": 0.12903199999999515
        },
        {
          "name": "D#3",
          "midi": 51,
          "time": 93.6772319999999,
          "velocity": 0.7086614173228346,
          "duration": 0.2580640000000045
        },
        {
          "name": "D#3",
          "midi": 51,
          "time": 94.0643279999999,
          "velocity": 0.7874015748031497,
          "duration": 0.2580640000000045
        },
        {
          "name": "C#2",
          "midi": 37,
          "time": 94.0643279999999,
          "velocity": 0.5826771653543307,
          "duration": 0.2580640000000045
        },
        {
          "name": "D2",
          "midi": 38,
          "time": 94.32239199999991,
          "velocity": 0.15748031496062992,
          "duration": 0.12903199999999515
        },
        {
          "name": "D#3",
          "midi": 51,
          "time": 94.32239199999991,
          "velocity": 0.7086614173228346,
          "duration": 0.12903199999999515
        },
        {
          "name": "D#3",
          "midi": 51,
          "time": 94.4514239999999,
          "velocity": 0.7086614173228346,
          "duration": 0.2580640000000045
        },
        {
          "name": "D#3",
          "midi": 51,
          "time": 94.8385199999999,
          "velocity": 0.8267716535433071,
          "duration": 0.2580640000000045
        },
        {
          "name": "C#2",
          "midi": 37,
          "time": 94.8385199999999,
          "velocity": 0.5826771653543307,
          "duration": 0.2580640000000045
        },
        {
          "name": "D2",
          "midi": 38,
          "time": 95.09658399999991,
          "velocity": 0.15748031496062992,
          "duration": 0.12903199999999515
        },
        {
          "name": "D#3",
          "midi": 51,
          "time": 95.09658399999991,
          "velocity": 0.7086614173228346,
          "duration": 0.12903199999999515
        },
        {
          "name": "D#3",
          "midi": 51,
          "time": 95.2256159999999,
          "velocity": 0.7086614173228346,
          "duration": 0.2580640000000045
        },
        {
          "name": "D#3",
          "midi": 51,
          "time": 95.6127119999999,
          "velocity": 0.7874015748031497,
          "duration": 0.2580640000000045
        },
        {
          "name": "C#2",
          "midi": 37,
          "time": 95.6127119999999,
          "velocity": 0.5826771653543307,
          "duration": 0.2580640000000045
        },
        {
          "name": "D2",
          "midi": 38,
          "time": 95.8707759999999,
          "velocity": 0.15748031496062992,
          "duration": 0.12903199999999515
        },
        {
          "name": "D#3",
          "midi": 51,
          "time": 95.8707759999999,
          "velocity": 0.7086614173228346,
          "duration": 0.12903199999999515
        },
        {
          "name": "D#3",
          "midi": 51,
          "time": 95.9998079999999,
          "velocity": 0.7086614173228346,
          "duration": 0.2580640000000045
        },
        {
          "name": "D#3",
          "midi": 51,
          "time": 96.3869039999999,
          "velocity": 0.8267716535433071,
          "duration": 0.2580640000000045
        },
        {
          "name": "C#2",
          "midi": 37,
          "time": 96.3869039999999,
          "velocity": 0.5826771653543307,
          "duration": 0.2580640000000045
        },
        {
          "name": "D2",
          "midi": 38,
          "time": 96.6449679999999,
          "velocity": 0.15748031496062992,
          "duration": 0.12903199999999515
        },
        {
          "name": "D#3",
          "midi": 51,
          "time": 96.6449679999999,
          "velocity": 0.7086614173228346,
          "duration": 0.12903199999999515
        },
        {
          "name": "D#3",
          "midi": 51,
          "time": 96.7739999999999,
          "velocity": 0.7086614173228346,
          "duration": 0.2580640000000045
        },
        {
          "name": "D#3",
          "midi": 51,
          "time": 97.1610959999999,
          "velocity": 0.7874015748031497,
          "duration": 0.2580640000000045
        },
        {
          "name": "C#2",
          "midi": 37,
          "time": 97.1610959999999,
          "velocity": 0.5826771653543307,
          "duration": 0.2580640000000045
        },
        {
          "name": "D2",
          "midi": 38,
          "time": 97.4191599999999,
          "velocity": 0.15748031496062992,
          "duration": 0.12903199999999515
        },
        {
          "name": "D#3",
          "midi": 51,
          "time": 97.4191599999999,
          "velocity": 0.7086614173228346,
          "duration": 0.12903199999999515
        },
        {
          "name": "D#3",
          "midi": 51,
          "time": 97.5481919999999,
          "velocity": 0.7086614173228346,
          "duration": 0.2580640000000045
        },
        {
          "name": "D#3",
          "midi": 51,
          "time": 97.9352879999999,
          "velocity": 0.8267716535433071,
          "duration": 0.2580640000000045
        },
        {
          "name": "C#2",
          "midi": 37,
          "time": 97.9352879999999,
          "velocity": 0.5826771653543307,
          "duration": 0.2580640000000045
        },
        {
          "name": "D2",
          "midi": 38,
          "time": 98.1933519999999,
          "velocity": 0.15748031496062992,
          "duration": 0.12903199999999515
        },
        {
          "name": "D#3",
          "midi": 51,
          "time": 98.1933519999999,
          "velocity": 0.7086614173228346,
          "duration": 0.12903199999999515
        },
        {
          "name": "D#3",
          "midi": 51,
          "time": 98.3223839999999,
          "velocity": 0.7086614173228346,
          "duration": 0.2580640000000045
        },
        {
          "name": "D#3",
          "midi": 51,
          "time": 98.7094799999999,
          "velocity": 0.7874015748031497,
          "duration": 0.2580640000000045
        },
        {
          "name": "C#2",
          "midi": 37,
          "time": 98.7094799999999,
          "velocity": 0.5826771653543307,
          "duration": 0.2580640000000045
        },
        {
          "name": "D2",
          "midi": 38,
          "time": 98.9675439999999,
          "velocity": 0.15748031496062992,
          "duration": 0.12903199999999515
        },
        {
          "name": "D#3",
          "midi": 51,
          "time": 98.9675439999999,
          "velocity": 0.7086614173228346,
          "duration": 0.12903199999999515
        },
        {
          "name": "D#3",
          "midi": 51,
          "time": 99.0965759999999,
          "velocity": 0.6299212598425197,
          "duration": 0.38709599999999966
        },
        {
          "name": "D#3",
          "midi": 51,
          "time": 99.4836719999999,
          "velocity": 0.7086614173228346,
          "duration": 0.38709599999999966
        },
        {
          "name": "C#2",
          "midi": 37,
          "time": 99.4836719999999,
          "velocity": 0.7086614173228346,
          "duration": 0.38709599999999966
        },
        {
          "name": "D#3",
          "midi": 51,
          "time": 99.8707679999999,
          "velocity": 0.6299212598425197,
          "duration": 0.2580640000000045
        },
        {
          "name": "D2",
          "midi": 38,
          "time": 100.1288319999999,
          "velocity": 0.7086614173228346,
          "duration": 0.12903199999999515
        },
        {
          "name": "C#2",
          "midi": 37,
          "time": 100.2578639999999,
          "velocity": 0.7086614173228346,
          "duration": 0.2580640000000045
        },
        {
          "name": "C3",
          "midi": 48,
          "time": 100.2578639999999,
          "velocity": 0.6299212598425197,
          "duration": 0.2580640000000045
        },
        {
          "name": "B1",
          "midi": 35,
          "time": 100.5159279999999,
          "velocity": 0.5511811023622047,
          "duration": 0.12903199999999515
        },
        {
          "name": "C#3",
          "midi": 49,
          "time": 100.5159279999999,
          "velocity": 0.7874015748031497,
          "duration": 0.12903199999999515
        },
        {
          "name": "F#2",
          "midi": 42,
          "time": 101.0320559999999,
          "velocity": 0.36220472440944884,
          "duration": 0.12903199999999515
        },
        {
          "name": "F#2",
          "midi": 42,
          "time": 101.16108799999989,
          "velocity": 0.4094488188976378,
          "duration": 0.12903199999999515
        },
        {
          "name": "F#2",
          "midi": 42,
          "time": 101.29011999999989,
          "velocity": 0.4566929133858268,
          "duration": 0.12903199999999515
        },
        {
          "name": "F#2",
          "midi": 42,
          "time": 101.41915199999988,
          "velocity": 0.5039370078740157,
          "duration": 0.12903199999999515
        },
        {
          "name": "F#2",
          "midi": 42,
          "time": 101.54818399999988,
          "velocity": 0.5511811023622047,
          "duration": 0.12903199999999515
        },
        {
          "name": "F#2",
          "midi": 42,
          "time": 101.67721599999987,
          "velocity": 0.5984251968503937,
          "duration": 0.12903199999999515
        },
        {
          "name": "F#2",
          "midi": 42,
          "time": 101.80624799999987,
          "velocity": 0.7874015748031497,
          "duration": 0.38709599999999966
        },
        {
          "name": "F#2",
          "midi": 42,
          "time": 102.19334399999987,
          "velocity": 0.7086614173228346,
          "duration": 0.38709599999999966
        },
        {
          "name": "F#2",
          "midi": 42,
          "time": 102.58043999999987,
          "velocity": 0.7874015748031497,
          "duration": 0.2580640000000045
        },
        {
          "name": "C#2",
          "midi": 37,
          "time": 102.58043999999987,
          "velocity": 0.5826771653543307,
          "duration": 0.2580640000000045
        },
        {
          "name": "F#2",
          "midi": 42,
          "time": 102.83850399999987,
          "velocity": 0.6299212598425197,
          "duration": 0.12903199999999515
        },
        {
          "name": "F#2",
          "midi": 42,
          "time": 102.96753599999987,
          "velocity": 0.7086614173228346,
          "duration": 0.2580640000000045
        },
        {
          "name": "F#2",
          "midi": 42,
          "time": 103.35463199999987,
          "velocity": 0.7874015748031497,
          "duration": 0.2580640000000045
        },
        {
          "name": "C#2",
          "midi": 37,
          "time": 103.35463199999987,
          "velocity": 0.5826771653543307,
          "duration": 0.2580640000000045
        },
        {
          "name": "F#2",
          "midi": 42,
          "time": 103.61269599999987,
          "velocity": 0.6299212598425197,
          "duration": 0.12903199999999515
        },
        {
          "name": "F#2",
          "midi": 42,
          "time": 103.74172799999987,
          "velocity": 0.7086614173228346,
          "duration": 0.38709599999999966
        },
        {
          "name": "F#2",
          "midi": 42,
          "time": 104.12882399999987,
          "velocity": 0.7874015748031497,
          "duration": 0.2580640000000045
        },
        {
          "name": "C#2",
          "midi": 37,
          "time": 104.12882399999987,
          "velocity": 0.5826771653543307,
          "duration": 0.2580640000000045
        },
        {
          "name": "F#2",
          "midi": 42,
          "time": 104.38688799999987,
          "velocity": 0.6299212598425197,
          "duration": 0.12903199999999515
        },
        {
          "name": "F#2",
          "midi": 42,
          "time": 104.51591999999987,
          "velocity": 0.7086614173228346,
          "duration": 0.2580640000000045
        },
        {
          "name": "A#2",
          "midi": 46,
          "time": 104.77398399999987,
          "velocity": 0.7086614173228346,
          "duration": 0.12903199999999515
        },
        {
          "name": "F#2",
          "midi": 42,
          "time": 104.90301599999987,
          "velocity": 0.7874015748031497,
          "duration": 0.2580640000000045
        },
        {
          "name": "C#2",
          "midi": 37,
          "time": 104.90301599999987,
          "velocity": 0.5826771653543307,
          "duration": 0.2580640000000045
        },
        {
          "name": "F#2",
          "midi": 42,
          "time": 105.16107999999987,
          "velocity": 0.6299212598425197,
          "duration": 0.12903199999999515
        },
        {
          "name": "F#2",
          "midi": 42,
          "time": 105.29011199999987,
          "velocity": 0.7086614173228346,
          "duration": 0.38709599999999966
        },
        {
          "name": "F#2",
          "midi": 42,
          "time": 105.67720799999987,
          "velocity": 0.7874015748031497,
          "duration": 0.2580640000000045
        },
        {
          "name": "C#2",
          "midi": 37,
          "time": 105.67720799999987,
          "velocity": 0.5826771653543307,
          "duration": 0.2580640000000045
        },
        {
          "name": "F#2",
          "midi": 42,
          "time": 105.93527199999987,
          "velocity": 0.6299212598425197,
          "duration": 0.12903199999999515
        },
        {
          "name": "F#2",
          "midi": 42,
          "time": 106.06430399999986,
          "velocity": 0.7086614173228346,
          "duration": 0.2580640000000045
        },
        {
          "name": "F#2",
          "midi": 42,
          "time": 106.45139999999986,
          "velocity": 0.7874015748031497,
          "duration": 0.2580640000000045
        },
        {
          "name": "C#2",
          "midi": 37,
          "time": 106.45139999999986,
          "velocity": 0.5826771653543307,
          "duration": 0.2580640000000045
        },
        {
          "name": "F#2",
          "midi": 42,
          "time": 106.70946399999987,
          "velocity": 0.6299212598425197,
          "duration": 0.12903199999999515
        },
        {
          "name": "F#2",
          "midi": 42,
          "time": 106.83849599999986,
          "velocity": 0.7086614173228346,
          "duration": 0.38709599999999966
        },
        {
          "name": "F#2",
          "midi": 42,
          "time": 107.22559199999986,
          "velocity": 0.7874015748031497,
          "duration": 0.2580640000000045
        },
        {
          "name": "C#2",
          "midi": 37,
          "time": 107.22559199999986,
          "velocity": 0.5826771653543307,
          "duration": 0.2580640000000045
        },
        {
          "name": "F#2",
          "midi": 42,
          "time": 107.48365599999987,
          "velocity": 0.6299212598425197,
          "duration": 0.12903199999999515
        },
        {
          "name": "F#2",
          "midi": 42,
          "time": 107.61268799999986,
          "velocity": 0.7086614173228346,
          "duration": 0.2580640000000045
        },
        {
          "name": "F#2",
          "midi": 42,
          "time": 107.99978399999986,
          "velocity": 0.7874015748031497,
          "duration": 0.2580640000000045
        },
        {
          "name": "C#2",
          "midi": 37,
          "time": 107.99978399999986,
          "velocity": 0.5826771653543307,
          "duration": 0.2580640000000045
        },
        {
          "name": "F#2",
          "midi": 42,
          "time": 108.25784799999987,
          "velocity": 0.6299212598425197,
          "duration": 0.12903199999999515
        },
        {
          "name": "F#2",
          "midi": 42,
          "time": 108.38687999999986,
          "velocity": 0.7086614173228346,
          "duration": 0.38709599999999966
        },
        {
          "name": "F#2",
          "midi": 42,
          "time": 108.77397599999986,
          "velocity": 0.7874015748031497,
          "duration": 0.2580640000000045
        },
        {
          "name": "C#2",
          "midi": 37,
          "time": 108.77397599999986,
          "velocity": 0.5826771653543307,
          "duration": 0.2580640000000045
        },
        {
          "name": "F#2",
          "midi": 42,
          "time": 109.03203999999987,
          "velocity": 0.6299212598425197,
          "duration": 0.12903199999999515
        },
        {
          "name": "F#2",
          "midi": 42,
          "time": 109.16107199999986,
          "velocity": 0.7086614173228346,
          "duration": 0.2580640000000045
        },
        {
          "name": "A#2",
          "midi": 46,
          "time": 109.41913599999987,
          "velocity": 0.7086614173228346,
          "duration": 0.12903199999999515
        },
        {
          "name": "F#2",
          "midi": 42,
          "time": 109.54816799999986,
          "velocity": 0.7874015748031497,
          "duration": 0.2580640000000045
        },
        {
          "name": "C#2",
          "midi": 37,
          "time": 109.54816799999986,
          "velocity": 0.5826771653543307,
          "duration": 0.2580640000000045
        },
        {
          "name": "F#2",
          "midi": 42,
          "time": 109.80623199999987,
          "velocity": 0.6299212598425197,
          "duration": 0.12903199999999515
        },
        {
          "name": "F#2",
          "midi": 42,
          "time": 109.93526399999986,
          "velocity": 0.7086614173228346,
          "duration": 0.38709599999999966
        },
        {
          "name": "F#2",
          "midi": 42,
          "time": 110.32235999999986,
          "velocity": 0.7874015748031497,
          "duration": 0.2580640000000045
        },
        {
          "name": "C#2",
          "midi": 37,
          "time": 110.32235999999986,
          "velocity": 0.5826771653543307,
          "duration": 0.2580640000000045
        },
        {
          "name": "F#2",
          "midi": 42,
          "time": 110.58042399999987,
          "velocity": 0.6299212598425197,
          "duration": 0.12903199999999515
        },
        {
          "name": "F#2",
          "midi": 42,
          "time": 110.70945599999986,
          "velocity": 0.7086614173228346,
          "duration": 0.2580640000000045
        },
        {
          "name": "F#2",
          "midi": 42,
          "time": 111.09655199999986,
          "velocity": 0.7874015748031497,
          "duration": 0.2580640000000045
        },
        {
          "name": "C#2",
          "midi": 37,
          "time": 111.09655199999986,
          "velocity": 0.5826771653543307,
          "duration": 0.2580640000000045
        },
        {
          "name": "F#2",
          "midi": 42,
          "time": 111.35461599999987,
          "velocity": 0.6299212598425197,
          "duration": 0.12903199999999515
        },
        {
          "name": "F#2",
          "midi": 42,
          "time": 111.48364799999986,
          "velocity": 0.7086614173228346,
          "duration": 0.38709599999999966
        },
        {
          "name": "F#2",
          "midi": 42,
          "time": 111.87074399999986,
          "velocity": 0.7874015748031497,
          "duration": 0.2580640000000045
        },
        {
          "name": "C#2",
          "midi": 37,
          "time": 111.87074399999986,
          "velocity": 0.5826771653543307,
          "duration": 0.2580640000000045
        },
        {
          "name": "F#2",
          "midi": 42,
          "time": 112.12880799999986,
          "velocity": 0.6299212598425197,
          "duration": 0.12903199999999515
        },
        {
          "name": "F#2",
          "midi": 42,
          "time": 112.25783999999986,
          "velocity": 0.7086614173228346,
          "duration": 0.2580640000000045
        },
        {
          "name": "A#2",
          "midi": 46,
          "time": 112.51590399999986,
          "velocity": 0.7086614173228346,
          "duration": 0.12903199999999515
        },
        {
          "name": "F#2",
          "midi": 42,
          "time": 112.64493599999986,
          "velocity": 0.7874015748031497,
          "duration": 0.2580640000000045
        },
        {
          "name": "C#2",
          "midi": 37,
          "time": 112.64493599999986,
          "velocity": 0.5826771653543307,
          "duration": 0.2580640000000045
        },
        {
          "name": "F#2",
          "midi": 42,
          "time": 112.90299999999986,
          "velocity": 0.6299212598425197,
          "duration": 0.12903199999999515
        },
        {
          "name": "F#2",
          "midi": 42,
          "time": 113.03203199999986,
          "velocity": 0.6614173228346457,
          "duration": 0.2580640000000045
        },
        {
          "name": "A#2",
          "midi": 46,
          "time": 113.29009599999986,
          "velocity": 0.5826771653543307,
          "duration": 0.5161279999999948
        },
        {
          "name": "C#3",
          "midi": 49,
          "time": 113.29009599999986,
          "velocity": 0.6614173228346457,
          "duration": 0.5161279999999948
        },
        {
          "name": "A2",
          "midi": 45,
          "time": 113.80622399999986,
          "velocity": 0.47244094488188976,
          "duration": 0.12903199999999515
        },
        {
          "name": "A2",
          "midi": 45,
          "time": 113.93525599999985,
          "velocity": 0.5118110236220472,
          "duration": 0.12903199999999515
        },
        {
          "name": "A2",
          "midi": 45,
          "time": 114.06428799999985,
          "velocity": 0.5511811023622047,
          "duration": 0.12903199999999515
        },
        {
          "name": "B1",
          "midi": 35,
          "time": 114.19331999999984,
          "velocity": 0.5039370078740157,
          "duration": 0.38709599999999966
        },
        {
          "name": "F2",
          "midi": 41,
          "time": 114.19331999999984,
          "velocity": 0.5826771653543307,
          "duration": 0.38709599999999966
        },
        {
          "name": "F#2",
          "midi": 42,
          "time": 114.58041599999984,
          "velocity": 0.7086614173228346,
          "duration": 0.38709599999999966
        },
        {
          "name": "F#2",
          "midi": 42,
          "time": 114.96751199999984,
          "velocity": 0.7874015748031497,
          "duration": 0.2580640000000045
        },
        {
          "name": "C#2",
          "midi": 37,
          "time": 114.96751199999984,
          "velocity": 0.5826771653543307,
          "duration": 0.2580640000000045
        },
        {
          "name": "F#2",
          "midi": 42,
          "time": 115.22557599999985,
          "velocity": 0.6299212598425197,
          "duration": 0.12903199999999515
        },
        {
          "name": "F#2",
          "midi": 42,
          "time": 115.35460799999984,
          "velocity": 0.7086614173228346,
          "duration": 0.2580640000000045
        },
        {
          "name": "F#2",
          "midi": 42,
          "time": 115.74170399999984,
          "velocity": 0.7874015748031497,
          "duration": 0.2580640000000045
        },
        {
          "name": "C#2",
          "midi": 37,
          "time": 115.74170399999984,
          "velocity": 0.5826771653543307,
          "duration": 0.2580640000000045
        },
        {
          "name": "F#2",
          "midi": 42,
          "time": 115.99976799999985,
          "velocity": 0.6299212598425197,
          "duration": 0.12903199999999515
        },
        {
          "name": "F#2",
          "midi": 42,
          "time": 116.12879999999984,
          "velocity": 0.7086614173228346,
          "duration": 0.38709599999999966
        },
        {
          "name": "F#2",
          "midi": 42,
          "time": 116.51589599999984,
          "velocity": 0.7874015748031497,
          "duration": 0.2580640000000045
        },
        {
          "name": "C#2",
          "midi": 37,
          "time": 116.51589599999984,
          "velocity": 0.5826771653543307,
          "duration": 0.2580640000000045
        },
        {
          "name": "F#2",
          "midi": 42,
          "time": 116.77395999999985,
          "velocity": 0.6299212598425197,
          "duration": 0.12903199999999515
        },
        {
          "name": "F#2",
          "midi": 42,
          "time": 116.90299199999984,
          "velocity": 0.7086614173228346,
          "duration": 0.2580640000000045
        },
        {
          "name": "F#2",
          "midi": 42,
          "time": 117.29008799999984,
          "velocity": 0.7874015748031497,
          "duration": 0.2580640000000045
        },
        {
          "name": "C#2",
          "midi": 37,
          "time": 117.29008799999984,
          "velocity": 0.5826771653543307,
          "duration": 0.2580640000000045
        },
        {
          "name": "F#2",
          "midi": 42,
          "time": 117.54815199999985,
          "velocity": 0.6299212598425197,
          "duration": 0.12903199999999515
        },
        {
          "name": "F#2",
          "midi": 42,
          "time": 117.67718399999984,
          "velocity": 0.7086614173228346,
          "duration": 0.38709599999999966
        },
        {
          "name": "F#2",
          "midi": 42,
          "time": 118.06427999999984,
          "velocity": 0.7874015748031497,
          "duration": 0.2580640000000045
        },
        {
          "name": "C#2",
          "midi": 37,
          "time": 118.06427999999984,
          "velocity": 0.5826771653543307,
          "duration": 0.2580640000000045
        },
        {
          "name": "F#2",
          "midi": 42,
          "time": 118.32234399999984,
          "velocity": 0.6299212598425197,
          "duration": 0.12903199999999515
        },
        {
          "name": "F#2",
          "midi": 42,
          "time": 118.45137599999984,
          "velocity": 0.7086614173228346,
          "duration": 0.2580640000000045
        },
        {
          "name": "F#2",
          "midi": 42,
          "time": 118.83847199999984,
          "velocity": 0.7874015748031497,
          "duration": 0.2580640000000045
        },
        {
          "name": "C#2",
          "midi": 37,
          "time": 118.83847199999984,
          "velocity": 0.5826771653543307,
          "duration": 0.2580640000000045
        },
        {
          "name": "F#2",
          "midi": 42,
          "time": 119.09653599999984,
          "velocity": 0.6299212598425197,
          "duration": 0.12903199999999515
        },
        {
          "name": "F#2",
          "midi": 42,
          "time": 119.22556799999984,
          "velocity": 0.7086614173228346,
          "duration": 0.38709599999999966
        },
        {
          "name": "F#2",
          "midi": 42,
          "time": 119.61266399999984,
          "velocity": 0.7874015748031497,
          "duration": 0.2580640000000045
        },
        {
          "name": "C#2",
          "midi": 37,
          "time": 119.61266399999984,
          "velocity": 0.5826771653543307,
          "duration": 0.2580640000000045
        },
        {
          "name": "F#2",
          "midi": 42,
          "time": 119.87072799999984,
          "velocity": 0.6299212598425197,
          "duration": 0.12903199999999515
        },
        {
          "name": "F#2",
          "midi": 42,
          "time": 119.99975999999984,
          "velocity": 0.7086614173228346,
          "duration": 0.2580640000000045
        },
        {
          "name": "F#2",
          "midi": 42,
          "time": 120.25782399999984,
          "velocity": 0.7086614173228346,
          "duration": 0.12903199999999515
        },
        {
          "name": "F#2",
          "midi": 42,
          "time": 120.38685599999984,
          "velocity": 0.7874015748031497,
          "duration": 0.2580640000000045
        },
        {
          "name": "C#2",
          "midi": 37,
          "time": 120.38685599999984,
          "velocity": 0.5826771653543307,
          "duration": 0.2580640000000045
        },
        {
          "name": "F#2",
          "midi": 42,
          "time": 120.64491999999984,
          "velocity": 0.6299212598425197,
          "duration": 0.12903199999999515
        },
        {
          "name": "F#2",
          "midi": 42,
          "time": 120.77395199999984,
          "velocity": 0.7086614173228346,
          "duration": 0.38709599999999966
        },
        {
          "name": "F#2",
          "midi": 42,
          "time": 121.16104799999984,
          "velocity": 0.7874015748031497,
          "duration": 0.2580640000000045
        },
        {
          "name": "C#2",
          "midi": 37,
          "time": 121.16104799999984,
          "velocity": 0.5826771653543307,
          "duration": 0.2580640000000045
        },
        {
          "name": "F#2",
          "midi": 42,
          "time": 121.41911199999984,
          "velocity": 0.6299212598425197,
          "duration": 0.12903199999999515
        },
        {
          "name": "F#2",
          "midi": 42,
          "time": 121.54814399999984,
          "velocity": 0.7086614173228346,
          "duration": 0.2580640000000045
        },
        {
          "name": "F#2",
          "midi": 42,
          "time": 121.93523999999984,
          "velocity": 0.7874015748031497,
          "duration": 0.2580640000000045
        },
        {
          "name": "C#2",
          "midi": 37,
          "time": 121.93523999999984,
          "velocity": 0.5826771653543307,
          "duration": 0.2580640000000045
        },
        {
          "name": "F#2",
          "midi": 42,
          "time": 122.19330399999984,
          "velocity": 0.6299212598425197,
          "duration": 0.12903199999999515
        },
        {
          "name": "F#2",
          "midi": 42,
          "time": 122.32233599999984,
          "velocity": 0.7086614173228346,
          "duration": 0.38709599999999966
        },
        {
          "name": "F#2",
          "midi": 42,
          "time": 122.70943199999984,
          "velocity": 0.7874015748031497,
          "duration": 0.2580640000000045
        },
        {
          "name": "C#2",
          "midi": 37,
          "time": 122.70943199999984,
          "velocity": 0.5826771653543307,
          "duration": 0.2580640000000045
        },
        {
          "name": "F#2",
          "midi": 42,
          "time": 122.96749599999984,
          "velocity": 0.6299212598425197,
          "duration": 0.12903199999999515
        },
        {
          "name": "F#2",
          "midi": 42,
          "time": 123.09652799999984,
          "velocity": 0.7086614173228346,
          "duration": 0.2580640000000045
        },
        {
          "name": "F#2",
          "midi": 42,
          "time": 123.48362399999984,
          "velocity": 0.7874015748031497,
          "duration": 0.2580640000000045
        },
        {
          "name": "C#2",
          "midi": 37,
          "time": 123.48362399999984,
          "velocity": 0.5826771653543307,
          "duration": 0.2580640000000045
        },
        {
          "name": "F#2",
          "midi": 42,
          "time": 123.74168799999984,
          "velocity": 0.6299212598425197,
          "duration": 0.12903199999999515
        },
        {
          "name": "F#2",
          "midi": 42,
          "time": 123.87071999999984,
          "velocity": 0.6299212598425197,
          "duration": 0.38709599999999966
        },
        {
          "name": "F#2",
          "midi": 42,
          "time": 124.25781599999983,
          "velocity": 0.7086614173228346,
          "duration": 0.2580640000000045
        },
        {
          "name": "F#2",
          "midi": 42,
          "time": 124.51587999999984,
          "velocity": 0.6299212598425197,
          "duration": 0.12903199999999515
        },
        {
          "name": "D2",
          "midi": 38,
          "time": 124.51587999999984,
          "velocity": 0.7086614173228346,
          "duration": 0.12903199999999515
        },
        {
          "name": "F#2",
          "midi": 42,
          "time": 124.64491199999983,
          "velocity": 0.6299212598425197,
          "duration": 0.2580640000000045
        },
        {
          "name": "C3",
          "midi": 48,
          "time": 124.90297599999984,
          "velocity": 0.47244094488188976,
          "duration": 0.041935399999999845
        },
        {
          "name": "C3",
          "midi": 48,
          "time": 124.94491139999984,
          "velocity": 0.5511811023622047,
          "duration": 0.041935399999999845
        },
        {
          "name": "C3",
          "midi": 48,
          "time": 124.98684679999984,
          "velocity": 0.6299212598425197,
          "duration": 0.04516119999999546
        },
        {
          "name": "C3",
          "midi": 48,
          "time": 125.03200799999983,
          "velocity": 0.7874015748031497,
          "duration": 0.2580640000000045
        },
        {
          "name": "C#3",
          "midi": 49,
          "time": 125.29007199999984,
          "velocity": 0.7086614173228346,
          "duration": 0.12903199999999515
        },
        {
          "name": "B1",
          "midi": 35,
          "time": 125.29007199999984,
          "velocity": 0.5511811023622047,
          "duration": 0.12903199999999515
        },
        {
          "name": "D2",
          "midi": 38,
          "time": 125.67716799999984,
          "velocity": 0.7874015748031497,
          "duration": 0.12903199999999515
        },
        {
          "name": "C#3",
          "midi": 49,
          "time": 125.80619999999983,
          "velocity": 0.7874015748031497,
          "duration": 0.38709599999999966
        },
        {
          "name": "D2",
          "midi": 38,
          "time": 126.19329599999983,
          "velocity": 0.6299212598425197,
          "duration": 0.2580640000000045
        },
        {
          "name": "A2",
          "midi": 45,
          "time": 126.45135999999984,
          "velocity": 0.5511811023622047,
          "duration": 0.12903199999999515
        },
        {
          "name": "A2",
          "midi": 45,
          "time": 126.58039199999983,
          "velocity": 0.7086614173228346,
          "duration": 0.2580640000000045
        },
        {
          "name": "A2",
          "midi": 45,
          "time": 126.83845599999984,
          "velocity": 0.6299212598425197,
          "duration": 0.12903199999999515
        },
        {
          "name": "C#3",
          "midi": 49,
          "time": 126.96748799999983,
          "velocity": 0.7086614173228346,
          "duration": 0.2580640000000045
        },
        {
          "name": "D#3",
          "midi": 51,
          "time": 127.35458399999983,
          "velocity": 0.8267716535433071,
          "duration": 0.2580640000000045
        },
        {
          "name": "C#2",
          "midi": 37,
          "time": 127.35458399999983,
          "velocity": 0.5826771653543307,
          "duration": 0.2580640000000045
        },
        {
          "name": "D2",
          "midi": 38,
          "time": 127.61264799999984,
          "velocity": 0.15748031496062992,
          "duration": 0.12903199999999515
        },
        {
          "name": "D#3",
          "midi": 51,
          "time": 127.61264799999984,
          "velocity": 0.7086614173228346,
          "duration": 0.12903199999999515
        },
        {
          "name": "D#3",
          "midi": 51,
          "time": 127.74167999999983,
          "velocity": 0.7086614173228346,
          "duration": 0.2580640000000045
        },
        {
          "name": "D2",
          "midi": 38,
          "time": 127.99974399999984,
          "velocity": 0.7874015748031497,
          "duration": 0.12903200000000936
        },
        {
          "name": "D#3",
          "midi": 51,
          "time": 128.12877599999985,
          "velocity": 0.7874015748031497,
          "duration": 0.2580639999999903
        },
        {
          "name": "C#2",
          "midi": 37,
          "time": 128.12877599999985,
          "velocity": 0.5826771653543307,
          "duration": 0.2580639999999903
        },
        {
          "name": "D2",
          "midi": 38,
          "time": 128.38683999999984,
          "velocity": 0.15748031496062992,
          "duration": 0.12903199999999515
        },
        {
          "name": "D#3",
          "midi": 51,
          "time": 128.38683999999984,
          "velocity": 0.7086614173228346,
          "duration": 0.12903199999999515
        },
        {
          "name": "D#3",
          "midi": 51,
          "time": 128.51587199999983,
          "velocity": 0.7086614173228346,
          "duration": 0.2580639999999903
        },
        {
          "name": "D#3",
          "midi": 51,
          "time": 128.90296799999982,
          "velocity": 0.8267716535433071,
          "duration": 0.2580639999999903
        },
        {
          "name": "C#2",
          "midi": 37,
          "time": 128.90296799999982,
          "velocity": 0.5826771653543307,
          "duration": 0.2580639999999903
        },
        {
          "name": "D2",
          "midi": 38,
          "time": 129.1610319999998,
          "velocity": 0.15748031496062992,
          "duration": 0.12903199999999515
        },
        {
          "name": "D#3",
          "midi": 51,
          "time": 129.1610319999998,
          "velocity": 0.7086614173228346,
          "duration": 0.12903199999999515
        },
        {
          "name": "D#3",
          "midi": 51,
          "time": 129.2900639999998,
          "velocity": 0.7086614173228346,
          "duration": 0.2580639999999903
        },
        {
          "name": "D#3",
          "midi": 51,
          "time": 129.6771599999998,
          "velocity": 0.7874015748031497,
          "duration": 0.2580639999999903
        },
        {
          "name": "C#2",
          "midi": 37,
          "time": 129.6771599999998,
          "velocity": 0.5826771653543307,
          "duration": 0.2580639999999903
        },
        {
          "name": "D2",
          "midi": 38,
          "time": 129.93522399999978,
          "velocity": 0.15748031496062992,
          "duration": 0.12903199999999515
        },
        {
          "name": "D#3",
          "midi": 51,
          "time": 129.93522399999978,
          "velocity": 0.7086614173228346,
          "duration": 0.12903199999999515
        },
        {
          "name": "D#3",
          "midi": 51,
          "time": 130.06425599999977,
          "velocity": 0.7086614173228346,
          "duration": 0.2580639999999903
        },
        {
          "name": "D#3",
          "midi": 51,
          "time": 130.45135199999976,
          "velocity": 0.8267716535433071,
          "duration": 0.2580639999999903
        },
        {
          "name": "C#2",
          "midi": 37,
          "time": 130.45135199999976,
          "velocity": 0.5826771653543307,
          "duration": 0.2580639999999903
        },
        {
          "name": "D2",
          "midi": 38,
          "time": 130.70941599999975,
          "velocity": 0.15748031496062992,
          "duration": 0.12903199999999515
        },
        {
          "name": "D#3",
          "midi": 51,
          "time": 130.70941599999975,
          "velocity": 0.7086614173228346,
          "duration": 0.12903199999999515
        },
        {
          "name": "D#3",
          "midi": 51,
          "time": 130.83844799999974,
          "velocity": 0.7086614173228346,
          "duration": 0.2580639999999903
        },
        {
          "name": "D#3",
          "midi": 51,
          "time": 131.22554399999973,
          "velocity": 0.7874015748031497,
          "duration": 0.2580639999999903
        },
        {
          "name": "C#2",
          "midi": 37,
          "time": 131.22554399999973,
          "velocity": 0.5826771653543307,
          "duration": 0.2580639999999903
        },
        {
          "name": "D2",
          "midi": 38,
          "time": 131.48360799999972,
          "velocity": 0.15748031496062992,
          "duration": 0.12903199999999515
        },
        {
          "name": "D#3",
          "midi": 51,
          "time": 131.48360799999972,
          "velocity": 0.7086614173228346,
          "duration": 0.12903199999999515
        },
        {
          "name": "D#3",
          "midi": 51,
          "time": 131.61263999999971,
          "velocity": 0.7086614173228346,
          "duration": 0.2580639999999903
        },
        {
          "name": "D#3",
          "midi": 51,
          "time": 131.9997359999997,
          "velocity": 0.8267716535433071,
          "duration": 0.2580639999999903
        },
        {
          "name": "C#2",
          "midi": 37,
          "time": 131.9997359999997,
          "velocity": 0.5826771653543307,
          "duration": 0.2580639999999903
        },
        {
          "name": "D2",
          "midi": 38,
          "time": 132.2577999999997,
          "velocity": 0.15748031496062992,
          "duration": 0.12903199999999515
        },
        {
          "name": "D#3",
          "midi": 51,
          "time": 132.2577999999997,
          "velocity": 0.7086614173228346,
          "duration": 0.12903199999999515
        },
        {
          "name": "D#3",
          "midi": 51,
          "time": 132.38683199999969,
          "velocity": 0.7086614173228346,
          "duration": 0.2580639999999903
        },
        {
          "name": "D#3",
          "midi": 51,
          "time": 132.77392799999967,
          "velocity": 0.7874015748031497,
          "duration": 0.2580639999999903
        },
        {
          "name": "C#2",
          "midi": 37,
          "time": 132.77392799999967,
          "velocity": 0.5826771653543307,
          "duration": 0.2580639999999903
        },
        {
          "name": "D2",
          "midi": 38,
          "time": 133.03199199999966,
          "velocity": 0.15748031496062992,
          "duration": 0.12903199999999515
        },
        {
          "name": "D#3",
          "midi": 51,
          "time": 133.03199199999966,
          "velocity": 0.7086614173228346,
          "duration": 0.12903199999999515
        },
        {
          "name": "D#3",
          "midi": 51,
          "time": 133.16102399999966,
          "velocity": 0.7086614173228346,
          "duration": 0.2580639999999903
        },
        {
          "name": "D#3",
          "midi": 51,
          "time": 133.54811999999964,
          "velocity": 0.8267716535433071,
          "duration": 0.2580639999999903
        },
        {
          "name": "C#2",
          "midi": 37,
          "time": 133.54811999999964,
          "velocity": 0.5826771653543307,
          "duration": 0.2580639999999903
        },
        {
          "name": "D2",
          "midi": 38,
          "time": 133.80618399999963,
          "velocity": 0.15748031496062992,
          "duration": 0.12903199999999515
        },
        {
          "name": "D#3",
          "midi": 51,
          "time": 133.80618399999963,
          "velocity": 0.7086614173228346,
          "duration": 0.12903199999999515
        },
        {
          "name": "D#3",
          "midi": 51,
          "time": 133.93521599999963,
          "velocity": 0.7086614173228346,
          "duration": 0.2580639999999903
        },
        {
          "name": "D#3",
          "midi": 51,
          "time": 134.3223119999996,
          "velocity": 0.7874015748031497,
          "duration": 0.2580639999999903
        },
        {
          "name": "C#2",
          "midi": 37,
          "time": 134.3223119999996,
          "velocity": 0.5826771653543307,
          "duration": 0.2580639999999903
        },
        {
          "name": "D2",
          "midi": 38,
          "time": 134.5803759999996,
          "velocity": 0.15748031496062992,
          "duration": 0.12903199999999515
        },
        {
          "name": "D#3",
          "midi": 51,
          "time": 134.5803759999996,
          "velocity": 0.7086614173228346,
          "duration": 0.12903199999999515
        },
        {
          "name": "D#3",
          "midi": 51,
          "time": 134.7094079999996,
          "velocity": 0.7086614173228346,
          "duration": 0.2580639999999903
        },
        {
          "name": "D#3",
          "midi": 51,
          "time": 135.09650399999958,
          "velocity": 0.8267716535433071,
          "duration": 0.2580639999999903
        },
        {
          "name": "C#2",
          "midi": 37,
          "time": 135.09650399999958,
          "velocity": 0.5826771653543307,
          "duration": 0.2580639999999903
        },
        {
          "name": "D2",
          "midi": 38,
          "time": 135.35456799999957,
          "velocity": 0.15748031496062992,
          "duration": 0.12903199999999515
        },
        {
          "name": "D#3",
          "midi": 51,
          "time": 135.35456799999957,
          "velocity": 0.7086614173228346,
          "duration": 0.12903199999999515
        },
        {
          "name": "D#3",
          "midi": 51,
          "time": 135.48359999999957,
          "velocity": 0.7086614173228346,
          "duration": 0.2580639999999903
        },
        {
          "name": "D#3",
          "midi": 51,
          "time": 135.87069599999955,
          "velocity": 0.7874015748031497,
          "duration": 0.2580639999999903
        },
        {
          "name": "C#2",
          "midi": 37,
          "time": 135.87069599999955,
          "velocity": 0.5826771653543307,
          "duration": 0.2580639999999903
        },
        {
          "name": "D2",
          "midi": 38,
          "time": 136.12875999999955,
          "velocity": 0.15748031496062992,
          "duration": 0.12903199999999515
        },
        {
          "name": "D#3",
          "midi": 51,
          "time": 136.12875999999955,
          "velocity": 0.7086614173228346,
          "duration": 0.12903199999999515
        },
        {
          "name": "D#3",
          "midi": 51,
          "time": 136.25779199999954,
          "velocity": 0.6299212598425197,
          "duration": 0.3870960000000139
        },
        {
          "name": "D#3",
          "midi": 51,
          "time": 136.64488799999955,
          "velocity": 0.7086614173228346,
          "duration": 0.2580639999999903
        },
        {
          "name": "D#3",
          "midi": 51,
          "time": 136.90295199999954,
          "velocity": 0.6299212598425197,
          "duration": 0.12903199999999515
        },
        {
          "name": "D2",
          "midi": 38,
          "time": 136.90295199999954,
          "velocity": 0.7086614173228346,
          "duration": 0.12903199999999515
        },
        {
          "name": "D#3",
          "midi": 51,
          "time": 137.03198399999954,
          "velocity": 0.6299212598425197,
          "duration": 0.2580639999999903
        },
        {
          "name": "C3",
          "midi": 48,
          "time": 137.29004799999953,
          "velocity": 0.47244094488188976,
          "duration": 0.041935399999999845
        },
        {
          "name": "C3",
          "midi": 48,
          "time": 137.33198339999953,
          "velocity": 0.5511811023622047,
          "duration": 0.041935399999999845
        },
        {
          "name": "C3",
          "midi": 48,
          "time": 137.37391879999953,
          "velocity": 0.6299212598425197,
          "duration": 0.04516119999999546
        },
        {
          "name": "C3",
          "midi": 48,
          "time": 137.41907999999952,
          "velocity": 0.7874015748031497,
          "duration": 0.2580639999999903
        },
        {
          "name": "C#3",
          "midi": 49,
          "time": 137.67714399999952,
          "velocity": 0.7086614173228346,
          "duration": 0.12903199999999515
        },
        {
          "name": "B1",
          "midi": 35,
          "time": 137.67714399999952,
          "velocity": 0.5511811023622047,
          "duration": 0.12903199999999515
        },
        {
          "name": "D2",
          "midi": 38,
          "time": 138.0642399999995,
          "velocity": 0.7874015748031497,
          "duration": 0.12903199999999515
        },
        {
          "name": "C#3",
          "midi": 49,
          "time": 138.1932719999995,
          "velocity": 0.7874015748031497,
          "duration": 0.3870960000000139
        },
        {
          "name": "D2",
          "midi": 38,
          "time": 138.5803679999995,
          "velocity": 0.6299212598425197,
          "duration": 0.2580639999999903
        },
        {
          "name": "A2",
          "midi": 45,
          "time": 138.8384319999995,
          "velocity": 0.5511811023622047,
          "duration": 0.12903199999999515
        },
        {
          "name": "A2",
          "midi": 45,
          "time": 138.9674639999995,
          "velocity": 0.7086614173228346,
          "duration": 0.2580639999999903
        },
        {
          "name": "A2",
          "midi": 45,
          "time": 139.22552799999949,
          "velocity": 0.6299212598425197,
          "duration": 0.12903199999999515
        },
        {
          "name": "F#2",
          "midi": 42,
          "time": 139.35455999999948,
          "velocity": 0.7086614173228346,
          "duration": 0.3870960000000139
        },
        {
          "name": "F#2",
          "midi": 42,
          "time": 139.7416559999995,
          "velocity": 0.7874015748031497,
          "duration": 0.2580639999999903
        },
        {
          "name": "C#2",
          "midi": 37,
          "time": 139.7416559999995,
          "velocity": 0.5826771653543307,
          "duration": 0.2580639999999903
        },
        {
          "name": "F#2",
          "midi": 42,
          "time": 139.99971999999948,
          "velocity": 0.6299212598425197,
          "duration": 0.12903199999999515
        },
        {
          "name": "F#2",
          "midi": 42,
          "time": 140.12875199999948,
          "velocity": 0.7086614173228346,
          "duration": 0.2580639999999903
        },
        {
          "name": "F#2",
          "midi": 42,
          "time": 140.51584799999947,
          "velocity": 0.7874015748031497,
          "duration": 0.2580639999999903
        },
        {
          "name": "C#2",
          "midi": 37,
          "time": 140.51584799999947,
          "velocity": 0.5826771653543307,
          "duration": 0.2580639999999903
        },
        {
          "name": "F#2",
          "midi": 42,
          "time": 140.77391199999946,
          "velocity": 0.6299212598425197,
          "duration": 0.12903199999999515
        },
        {
          "name": "F#2",
          "midi": 42,
          "time": 140.90294399999945,
          "velocity": 0.7086614173228346,
          "duration": 0.3870960000000139
        },
        {
          "name": "F#2",
          "midi": 42,
          "time": 141.29003999999946,
          "velocity": 0.7874015748031497,
          "duration": 0.2580639999999903
        },
        {
          "name": "C#2",
          "midi": 37,
          "time": 141.29003999999946,
          "velocity": 0.5826771653543307,
          "duration": 0.2580639999999903
        },
        {
          "name": "F#2",
          "midi": 42,
          "time": 141.54810399999946,
          "velocity": 0.6299212598425197,
          "duration": 0.12903199999999515
        },
        {
          "name": "F#2",
          "midi": 42,
          "time": 141.67713599999945,
          "velocity": 0.7086614173228346,
          "duration": 0.2580639999999903
        },
        {
          "name": "A#2",
          "midi": 46,
          "time": 141.93519999999944,
          "velocity": 0.7086614173228346,
          "duration": 0.12903199999999515
        },
        {
          "name": "F#2",
          "midi": 42,
          "time": 142.06423199999944,
          "velocity": 0.7874015748031497,
          "duration": 0.2580639999999903
        },
        {
          "name": "C#2",
          "midi": 37,
          "time": 142.06423199999944,
          "velocity": 0.5826771653543307,
          "duration": 0.2580639999999903
        },
        {
          "name": "F#2",
          "midi": 42,
          "time": 142.32229599999943,
          "velocity": 0.6299212598425197,
          "duration": 0.12903199999999515
        },
        {
          "name": "F#2",
          "midi": 42,
          "time": 142.45132799999942,
          "velocity": 0.7086614173228346,
          "duration": 0.3870960000000139
        },
        {
          "name": "F#2",
          "midi": 42,
          "time": 142.83842399999943,
          "velocity": 0.7874015748031497,
          "duration": 0.2580639999999903
        },
        {
          "name": "C#2",
          "midi": 37,
          "time": 142.83842399999943,
          "velocity": 0.5826771653543307,
          "duration": 0.2580639999999903
        },
        {
          "name": "F#2",
          "midi": 42,
          "time": 143.09648799999943,
          "velocity": 0.6299212598425197,
          "duration": 0.12903199999999515
        },
        {
          "name": "F#2",
          "midi": 42,
          "time": 143.22551999999942,
          "velocity": 0.7086614173228346,
          "duration": 0.2580639999999903
        },
        {
          "name": "F#2",
          "midi": 42,
          "time": 143.6126159999994,
          "velocity": 0.7874015748031497,
          "duration": 0.2580639999999903
        },
        {
          "name": "C#2",
          "midi": 37,
          "time": 143.6126159999994,
          "velocity": 0.5826771653543307,
          "duration": 0.2580639999999903
        },
        {
          "name": "F#2",
          "midi": 42,
          "time": 143.8706799999994,
          "velocity": 0.6299212598425197,
          "duration": 0.12903199999999515
        },
        {
          "name": "F#2",
          "midi": 42,
          "time": 143.9997119999994,
          "velocity": 0.7086614173228346,
          "duration": 0.3870960000000139
        },
        {
          "name": "F#2",
          "midi": 42,
          "time": 144.3868079999994,
          "velocity": 0.7874015748031497,
          "duration": 0.2580639999999903
        },
        {
          "name": "C#2",
          "midi": 37,
          "time": 144.3868079999994,
          "velocity": 0.5826771653543307,
          "duration": 0.2580639999999903
        },
        {
          "name": "F#2",
          "midi": 42,
          "time": 144.6448719999994,
          "velocity": 0.6299212598425197,
          "duration": 0.12903199999999515
        },
        {
          "name": "F#2",
          "midi": 42,
          "time": 144.7739039999994,
          "velocity": 0.7086614173228346,
          "duration": 0.2580639999999903
        },
        {
          "name": "A#2",
          "midi": 46,
          "time": 145.03196799999938,
          "velocity": 0.7086614173228346,
          "duration": 0.12903199999999515
        },
        {
          "name": "F#2",
          "midi": 42,
          "time": 145.16099999999938,
          "velocity": 0.7874015748031497,
          "duration": 0.2580639999999903
        },
        {
          "name": "C#2",
          "midi": 37,
          "time": 145.16099999999938,
          "velocity": 0.5826771653543307,
          "duration": 0.2580639999999903
        },
        {
          "name": "F#2",
          "midi": 42,
          "time": 145.41906399999937,
          "velocity": 0.6299212598425197,
          "duration": 0.12903199999999515
        },
        {
          "name": "F#2",
          "midi": 42,
          "time": 145.54809599999936,
          "velocity": 0.7086614173228346,
          "duration": 0.3870960000000139
        },
        {
          "name": "F#2",
          "midi": 42,
          "time": 145.93519199999938,
          "velocity": 0.7874015748031497,
          "duration": 0.2580639999999903
        },
        {
          "name": "C#2",
          "midi": 37,
          "time": 145.93519199999938,
          "velocity": 0.5826771653543307,
          "duration": 0.2580639999999903
        },
        {
          "name": "F#2",
          "midi": 42,
          "time": 146.19325599999937,
          "velocity": 0.6299212598425197,
          "duration": 0.12903199999999515
        },
        {
          "name": "F#2",
          "midi": 42,
          "time": 146.32228799999936,
          "velocity": 0.7086614173228346,
          "duration": 0.2580639999999903
        },
        {
          "name": "F#2",
          "midi": 42,
          "time": 146.58035199999935,
          "velocity": 0.7086614173228346,
          "duration": 0.12903199999999515
        },
        {
          "name": "F#2",
          "midi": 42,
          "time": 146.70938399999935,
          "velocity": 0.7874015748031497,
          "duration": 0.2580639999999903
        },
        {
          "name": "C#2",
          "midi": 37,
          "time": 146.70938399999935,
          "velocity": 0.5826771653543307,
          "duration": 0.2580639999999903
        },
        {
          "name": "F#2",
          "midi": 42,
          "time": 146.96744799999934,
          "velocity": 0.6299212598425197,
          "duration": 0.12903199999999515
        },
        {
          "name": "F#2",
          "midi": 42,
          "time": 147.09647999999933,
          "velocity": 0.7086614173228346,
          "duration": 0.3870960000000139
        },
        {
          "name": "F#2",
          "midi": 42,
          "time": 147.48357599999935,
          "velocity": 0.7874015748031497,
          "duration": 0.2580639999999903
        },
        {
          "name": "C#2",
          "midi": 37,
          "time": 147.48357599999935,
          "velocity": 0.5826771653543307,
          "duration": 0.2580639999999903
        },
        {
          "name": "F#2",
          "midi": 42,
          "time": 147.74163999999934,
          "velocity": 0.6299212598425197,
          "duration": 0.12903199999999515
        },
        {
          "name": "F#2",
          "midi": 42,
          "time": 147.87067199999933,
          "velocity": 0.7086614173228346,
          "duration": 0.2580639999999903
        },
        {
          "name": "F#2",
          "midi": 42,
          "time": 148.25776799999932,
          "velocity": 0.7874015748031497,
          "duration": 0.2580639999999903
        },
        {
          "name": "C#2",
          "midi": 37,
          "time": 148.25776799999932,
          "velocity": 0.5826771653543307,
          "duration": 0.2580639999999903
        },
        {
          "name": "F#2",
          "midi": 42,
          "time": 148.5158319999993,
          "velocity": 0.6299212598425197,
          "duration": 0.12903199999999515
        },
        {
          "name": "F#2",
          "midi": 42,
          "time": 148.6448639999993,
          "velocity": 0.6299212598425197,
          "duration": 0.3870960000000139
        },
        {
          "name": "F#2",
          "midi": 42,
          "time": 149.03195999999932,
          "velocity": 0.7086614173228346,
          "duration": 0.3870960000000139
        },
        {
          "name": "C#2",
          "midi": 37,
          "time": 149.03195999999932,
          "velocity": 0.7086614173228346,
          "duration": 0.3870960000000139
        },
        {
          "name": "F#2",
          "midi": 42,
          "time": 149.41905599999933,
          "velocity": 0.6299212598425197,
          "duration": 0.2580639999999903
        },
        {
          "name": "D2",
          "midi": 38,
          "time": 149.67711999999932,
          "velocity": 0.7086614173228346,
          "duration": 0.12903199999999515
        },
        {
          "name": "C#2",
          "midi": 37,
          "time": 149.80615199999932,
          "velocity": 0.7086614173228346,
          "duration": 0.2580639999999903
        },
        {
          "name": "C3",
          "midi": 48,
          "time": 149.80615199999932,
          "velocity": 0.6299212598425197,
          "duration": 0.2580639999999903
        },
        {
          "name": "B1",
          "midi": 35,
          "time": 150.0642159999993,
          "velocity": 0.5511811023622047,
          "duration": 0.12903199999999515
        },
        {
          "name": "C#3",
          "midi": 49,
          "time": 150.0642159999993,
          "velocity": 0.7874015748031497,
          "duration": 0.12903199999999515
        },
        {
          "name": "F#2",
          "midi": 42,
          "time": 150.58034399999931,
          "velocity": 0.36220472440944884,
          "duration": 0.12903199999999515
        },
        {
          "name": "F#2",
          "midi": 42,
          "time": 150.7093759999993,
          "velocity": 0.4094488188976378,
          "duration": 0.12903199999999515
        },
        {
          "name": "F#2",
          "midi": 42,
          "time": 150.8384079999993,
          "velocity": 0.4566929133858268,
          "duration": 0.12903199999999515
        },
        {
          "name": "F#2",
          "midi": 42,
          "time": 150.9674399999993,
          "velocity": 0.5039370078740157,
          "duration": 0.12903199999999515
        },
        {
          "name": "F#2",
          "midi": 42,
          "time": 151.0964719999993,
          "velocity": 0.5511811023622047,
          "duration": 0.12903199999999515
        },
        {
          "name": "F#2",
          "midi": 42,
          "time": 151.2255039999993,
          "velocity": 0.5984251968503937,
          "duration": 0.12903199999999515
        },
        {
          "name": "F#2",
          "midi": 42,
          "time": 151.35453599999929,
          "velocity": 0.7874015748031497,
          "duration": 0.3870960000000139
        }
      ],
      "controlChanges": {},
      "id": 2,
      "channelNumber": 9,
      "isPercussion": true
    },
    {
      "startTime": 3.3709610000000003,
      "duration": 151.5803419999999,
      "length": 811,
      "notes": [
        {
          "name": "G3",
          "midi": 55,
          "time": 3.3709610000000003,
          "velocity": 0.5905511811023622,
          "duration": 0.25806400000000007
        },
        {
          "name": "A4",
          "midi": 69,
          "time": 3.3709610000000003,
          "velocity": 0.5905511811023622,
          "duration": 0.25806400000000007
        },
        {
          "name": "C4",
          "midi": 60,
          "time": 3.3709610000000003,
          "velocity": 0.5905511811023622,
          "duration": 0.25806400000000007
        },
        {
          "name": "E4",
          "midi": 64,
          "time": 3.3709610000000003,
          "velocity": 0.5905511811023622,
          "duration": 0.25806400000000007
        },
        {
          "name": "A2",
          "midi": 45,
          "time": 3.7580570000000004,
          "velocity": 0.3464566929133858,
          "duration": 0.0645159999999998
        },
        {
          "name": "G3",
          "midi": 55,
          "time": 3.87096,
          "velocity": 0.5354330708661418,
          "duration": 0.6774180000000003
        },
        {
          "name": "A4",
          "midi": 69,
          "time": 3.87096,
          "velocity": 0.5354330708661418,
          "duration": 0.6774180000000003
        },
        {
          "name": "C4",
          "midi": 60,
          "time": 3.87096,
          "velocity": 0.5354330708661418,
          "duration": 0.6774180000000003
        },
        {
          "name": "E4",
          "midi": 64,
          "time": 3.87096,
          "velocity": 0.5354330708661418,
          "duration": 0.6774180000000003
        },
        {
          "name": "C4",
          "midi": 60,
          "time": 4.645152,
          "velocity": 0.5511811023622047,
          "duration": 0.2096770000000001
        },
        {
          "name": "E4",
          "midi": 64,
          "time": 4.645152,
          "velocity": 0.5511811023622047,
          "duration": 0.2096770000000001
        },
        {
          "name": "F#3",
          "midi": 54,
          "time": 4.645152,
          "velocity": 0.5511811023622047,
          "duration": 0.2096770000000001
        },
        {
          "name": "B4",
          "midi": 71,
          "time": 4.645152,
          "velocity": 0.5511811023622047,
          "duration": 0.2096770000000001
        },
        {
          "name": "C4",
          "midi": 60,
          "time": 4.919345000000001,
          "velocity": 0.5511811023622047,
          "duration": 0.1129030000000002
        },
        {
          "name": "E4",
          "midi": 64,
          "time": 4.919345000000001,
          "velocity": 0.5511811023622047,
          "duration": 0.1129030000000002
        },
        {
          "name": "F#3",
          "midi": 54,
          "time": 4.919345000000001,
          "velocity": 0.5511811023622047,
          "duration": 0.1129030000000002
        },
        {
          "name": "B4",
          "midi": 71,
          "time": 4.919345000000001,
          "velocity": 0.5511811023622047,
          "duration": 0.1129030000000002
        },
        {
          "name": "C4",
          "midi": 60,
          "time": 5.290312000000001,
          "velocity": 0.5511811023622047,
          "duration": 0.7419339999999996
        },
        {
          "name": "E4",
          "midi": 64,
          "time": 5.290312000000001,
          "velocity": 0.5511811023622047,
          "duration": 0.7419339999999996
        },
        {
          "name": "F#3",
          "midi": 54,
          "time": 5.290312000000001,
          "velocity": 0.5511811023622047,
          "duration": 0.7419339999999996
        },
        {
          "name": "B4",
          "midi": 71,
          "time": 5.290312000000001,
          "velocity": 0.5511811023622047,
          "duration": 0.7419339999999996
        },
        {
          "name": "F#3",
          "midi": 54,
          "time": 6.193536000000001,
          "velocity": 0.5354330708661418,
          "duration": 0.6774180000000003
        },
        {
          "name": "A4",
          "midi": 69,
          "time": 6.193536000000001,
          "velocity": 0.5354330708661418,
          "duration": 0.6774180000000003
        },
        {
          "name": "B3",
          "midi": 59,
          "time": 6.193536000000001,
          "velocity": 0.5354330708661418,
          "duration": 0.6774180000000003
        },
        {
          "name": "D4",
          "midi": 62,
          "time": 6.193536000000001,
          "velocity": 0.5354330708661418,
          "duration": 0.6774180000000003
        },
        {
          "name": "F#3",
          "midi": 54,
          "time": 6.967728000000001,
          "velocity": 0.5118110236220472,
          "duration": 0.2096770000000001
        },
        {
          "name": "A3",
          "midi": 57,
          "time": 6.967728000000001,
          "velocity": 0.5118110236220472,
          "duration": 0.2096770000000001
        },
        {
          "name": "B3",
          "midi": 59,
          "time": 6.967728000000001,
          "velocity": 0.5118110236220472,
          "duration": 0.2096770000000001
        },
        {
          "name": "D4",
          "midi": 62,
          "time": 6.967728000000001,
          "velocity": 0.5118110236220472,
          "duration": 0.2096770000000001
        },
        {
          "name": "F#3",
          "midi": 54,
          "time": 7.354824000000002,
          "velocity": 0.5905511811023622,
          "duration": 0.25806400000000007
        },
        {
          "name": "A3",
          "midi": 57,
          "time": 7.354824000000002,
          "velocity": 0.5905511811023622,
          "duration": 0.25806400000000007
        },
        {
          "name": "B3",
          "midi": 59,
          "time": 7.354824000000002,
          "velocity": 0.5905511811023622,
          "duration": 0.25806400000000007
        },
        {
          "name": "D4",
          "midi": 62,
          "time": 7.354824000000002,
          "velocity": 0.5905511811023622,
          "duration": 0.25806400000000007
        },
        {
          "name": "B3",
          "midi": 59,
          "time": 7.741920000000001,
          "velocity": 0.5511811023622047,
          "duration": 0.2096770000000001
        },
        {
          "name": "D4",
          "midi": 62,
          "time": 7.741920000000001,
          "velocity": 0.5511811023622047,
          "duration": 0.2096770000000001
        },
        {
          "name": "E3",
          "midi": 52,
          "time": 7.741920000000001,
          "velocity": 0.5511811023622047,
          "duration": 0.2096770000000001
        },
        {
          "name": "G3",
          "midi": 55,
          "time": 7.741920000000001,
          "velocity": 0.5511811023622047,
          "duration": 0.2096770000000001
        },
        {
          "name": "B3",
          "midi": 59,
          "time": 8.016113,
          "velocity": 0.5511811023622047,
          "duration": 0.11290299999999931
        },
        {
          "name": "D4",
          "midi": 62,
          "time": 8.016113,
          "velocity": 0.5511811023622047,
          "duration": 0.11290299999999931
        },
        {
          "name": "E3",
          "midi": 52,
          "time": 8.016113,
          "velocity": 0.5511811023622047,
          "duration": 0.11290299999999931
        },
        {
          "name": "G3",
          "midi": 55,
          "time": 8.016113,
          "velocity": 0.5511811023622047,
          "duration": 0.11290299999999931
        },
        {
          "name": "B3",
          "midi": 59,
          "time": 8.38708,
          "velocity": 0.5511811023622047,
          "duration": 0.7419340000000005
        },
        {
          "name": "D4",
          "midi": 62,
          "time": 8.38708,
          "velocity": 0.5511811023622047,
          "duration": 0.7419340000000005
        },
        {
          "name": "E3",
          "midi": 52,
          "time": 8.38708,
          "velocity": 0.5511811023622047,
          "duration": 0.7419340000000005
        },
        {
          "name": "G4",
          "midi": 67,
          "time": 8.38708,
          "velocity": 0.5511811023622047,
          "duration": 0.7419340000000005
        },
        {
          "name": "E3",
          "midi": 52,
          "time": 9.564497,
          "velocity": 0.5905511811023622,
          "duration": 0.2580639999999992
        },
        {
          "name": "F#4",
          "midi": 66,
          "time": 9.564497,
          "velocity": 0.5905511811023622,
          "duration": 0.2580639999999992
        },
        {
          "name": "A3",
          "midi": 57,
          "time": 9.564497,
          "velocity": 0.5905511811023622,
          "duration": 0.2580639999999992
        },
        {
          "name": "C4",
          "midi": 60,
          "time": 9.564497,
          "velocity": 0.5905511811023622,
          "duration": 0.2580639999999992
        },
        {
          "name": "F#2",
          "midi": 42,
          "time": 9.951592999999999,
          "velocity": 0.3464566929133858,
          "duration": 0.06451599999999935
        },
        {
          "name": "E3",
          "midi": 52,
          "time": 10.064495999999998,
          "velocity": 0.5354330708661418,
          "duration": 0.6774179999999994
        },
        {
          "name": "F#3",
          "midi": 54,
          "time": 10.064495999999998,
          "velocity": 0.5354330708661418,
          "duration": 0.6774179999999994
        },
        {
          "name": "A3",
          "midi": 57,
          "time": 10.064495999999998,
          "velocity": 0.5354330708661418,
          "duration": 0.6774179999999994
        },
        {
          "name": "C4",
          "midi": 60,
          "time": 10.064495999999998,
          "velocity": 0.5354330708661418,
          "duration": 0.6774179999999994
        },
        {
          "name": "A3",
          "midi": 57,
          "time": 11.112880999999998,
          "velocity": 0.5905511811023622,
          "duration": 0.2580639999999992
        },
        {
          "name": "B3",
          "midi": 59,
          "time": 11.112880999999998,
          "velocity": 0.5905511811023622,
          "duration": 0.2580639999999992
        },
        {
          "name": "D#4",
          "midi": 63,
          "time": 11.112880999999998,
          "velocity": 0.5905511811023622,
          "duration": 0.2580639999999992
        },
        {
          "name": "F#4",
          "midi": 66,
          "time": 11.112880999999998,
          "velocity": 0.5905511811023622,
          "duration": 0.2580639999999992
        },
        {
          "name": "B2",
          "midi": 47,
          "time": 11.499976999999998,
          "velocity": 0.3464566929133858,
          "duration": 0.06451599999999935
        },
        {
          "name": "A3",
          "midi": 57,
          "time": 11.612879999999997,
          "velocity": 0.5354330708661418,
          "duration": 0.6774179999999994
        },
        {
          "name": "B3",
          "midi": 59,
          "time": 11.612879999999997,
          "velocity": 0.5354330708661418,
          "duration": 0.6774179999999994
        },
        {
          "name": "D#4",
          "midi": 63,
          "time": 11.612879999999997,
          "velocity": 0.5354330708661418,
          "duration": 0.6774179999999994
        },
        {
          "name": "F#4",
          "midi": 66,
          "time": 11.612879999999997,
          "velocity": 0.5354330708661418,
          "duration": 0.6774179999999994
        },
        {
          "name": "D4",
          "midi": 62,
          "time": 12.387071999999996,
          "velocity": 0.5511811023622047,
          "duration": 1.5483840000000004
        },
        {
          "name": "E4",
          "midi": 64,
          "time": 12.387071999999996,
          "velocity": 0.5511811023622047,
          "duration": 1.5483840000000004
        },
        {
          "name": "G3",
          "midi": 55,
          "time": 12.387071999999996,
          "velocity": 0.5511811023622047,
          "duration": 1.5483840000000004
        },
        {
          "name": "B4",
          "midi": 71,
          "time": 12.387071999999996,
          "velocity": 0.5511811023622047,
          "duration": 1.5483840000000004
        },
        {
          "name": "D4",
          "midi": 62,
          "time": 13.935455999999997,
          "velocity": 0.5511811023622047,
          "duration": 0.19354799999999983
        },
        {
          "name": "E4",
          "midi": 64,
          "time": 13.935455999999997,
          "velocity": 0.5511811023622047,
          "duration": 0.19354799999999983
        },
        {
          "name": "G3",
          "midi": 55,
          "time": 13.935455999999997,
          "velocity": 0.5511811023622047,
          "duration": 0.19354799999999983
        },
        {
          "name": "B4",
          "midi": 71,
          "time": 13.935455999999997,
          "velocity": 0.5511811023622047,
          "duration": 0.19354799999999983
        },
        {
          "name": "D4",
          "midi": 62,
          "time": 14.209648999999997,
          "velocity": 0.6299212598425197,
          "duration": 0.38709599999999966
        },
        {
          "name": "E4",
          "midi": 64,
          "time": 14.209648999999997,
          "velocity": 0.6299212598425197,
          "duration": 0.38709599999999966
        },
        {
          "name": "G3",
          "midi": 55,
          "time": 14.209648999999997,
          "velocity": 0.6299212598425197,
          "duration": 0.38709599999999966
        },
        {
          "name": "B4",
          "midi": 71,
          "time": 14.209648999999997,
          "velocity": 0.6299212598425197,
          "duration": 0.38709599999999966
        },
        {
          "name": "D4",
          "midi": 62,
          "time": 14.709647999999996,
          "velocity": 0.5354330708661418,
          "duration": 0.6774179999999994
        },
        {
          "name": "F4",
          "midi": 65,
          "time": 14.709647999999996,
          "velocity": 0.5354330708661418,
          "duration": 0.6774179999999994
        },
        {
          "name": "G#3",
          "midi": 56,
          "time": 14.709647999999996,
          "velocity": 0.5354330708661418,
          "duration": 0.6774179999999994
        },
        {
          "name": "C5",
          "midi": 72,
          "time": 14.709647999999996,
          "velocity": 0.5354330708661418,
          "duration": 0.6774179999999994
        },
        {
          "name": "G3",
          "midi": 55,
          "time": 15.758032999999996,
          "velocity": 0.5905511811023622,
          "duration": 0.2580639999999992
        },
        {
          "name": "B4",
          "midi": 71,
          "time": 15.758032999999996,
          "velocity": 0.5905511811023622,
          "duration": 0.2580639999999992
        },
        {
          "name": "C4",
          "midi": 60,
          "time": 15.758032999999996,
          "velocity": 0.5905511811023622,
          "duration": 0.2580639999999992
        },
        {
          "name": "E4",
          "midi": 64,
          "time": 15.758032999999996,
          "velocity": 0.5905511811023622,
          "duration": 0.2580639999999992
        },
        {
          "name": "A2",
          "midi": 45,
          "time": 16.145128999999994,
          "velocity": 0.3464566929133858,
          "duration": 0.06451600000000113
        },
        {
          "name": "G3",
          "midi": 55,
          "time": 16.258031999999996,
          "velocity": 0.5354330708661418,
          "duration": 0.6774179999999994
        },
        {
          "name": "B4",
          "midi": 71,
          "time": 16.258031999999996,
          "velocity": 0.5354330708661418,
          "duration": 0.6774179999999994
        },
        {
          "name": "C4",
          "midi": 60,
          "time": 16.258031999999996,
          "velocity": 0.5354330708661418,
          "duration": 0.6774179999999994
        },
        {
          "name": "E4",
          "midi": 64,
          "time": 16.258031999999996,
          "velocity": 0.5354330708661418,
          "duration": 0.6774179999999994
        },
        {
          "name": "C4",
          "midi": 60,
          "time": 17.306416999999996,
          "velocity": 0.5905511811023622,
          "duration": 0.25806400000000096
        },
        {
          "name": "E4",
          "midi": 64,
          "time": 17.306416999999996,
          "velocity": 0.5905511811023622,
          "duration": 0.25806400000000096
        },
        {
          "name": "F#3",
          "midi": 54,
          "time": 17.306416999999996,
          "velocity": 0.5905511811023622,
          "duration": 0.25806400000000096
        },
        {
          "name": "A4",
          "midi": 69,
          "time": 17.306416999999996,
          "velocity": 0.5905511811023622,
          "duration": 0.25806400000000096
        },
        {
          "name": "D2",
          "midi": 38,
          "time": 17.693512999999996,
          "velocity": 0.3464566929133858,
          "duration": 0.06451600000000113
        },
        {
          "name": "C4",
          "midi": 60,
          "time": 17.806416,
          "velocity": 0.5354330708661418,
          "duration": 0.6774179999999994
        },
        {
          "name": "E4",
          "midi": 64,
          "time": 17.806416,
          "velocity": 0.5354330708661418,
          "duration": 0.6774179999999994
        },
        {
          "name": "F#3",
          "midi": 54,
          "time": 17.806416,
          "velocity": 0.5354330708661418,
          "duration": 0.6774179999999994
        },
        {
          "name": "B4",
          "midi": 71,
          "time": 17.806416,
          "velocity": 0.5354330708661418,
          "duration": 0.6774179999999994
        },
        {
          "name": "F#3",
          "midi": 54,
          "time": 18.580607999999998,
          "velocity": 0.5511811023622047,
          "duration": 0.20967699999999923
        },
        {
          "name": "A3",
          "midi": 57,
          "time": 18.580607999999998,
          "velocity": 0.5511811023622047,
          "duration": 0.20967699999999923
        },
        {
          "name": "B3",
          "midi": 59,
          "time": 18.580607999999998,
          "velocity": 0.5511811023622047,
          "duration": 0.20967699999999923
        },
        {
          "name": "D4",
          "midi": 62,
          "time": 18.580607999999998,
          "velocity": 0.5511811023622047,
          "duration": 0.20967699999999923
        },
        {
          "name": "F#3",
          "midi": 54,
          "time": 18.854801,
          "velocity": 0.5511811023622047,
          "duration": 0.11290299999999931
        },
        {
          "name": "A3",
          "midi": 57,
          "time": 18.854801,
          "velocity": 0.5511811023622047,
          "duration": 0.11290299999999931
        },
        {
          "name": "B3",
          "midi": 59,
          "time": 18.854801,
          "velocity": 0.5511811023622047,
          "duration": 0.11290299999999931
        },
        {
          "name": "D4",
          "midi": 62,
          "time": 18.854801,
          "velocity": 0.5511811023622047,
          "duration": 0.11290299999999931
        },
        {
          "name": "F#3",
          "midi": 54,
          "time": 19.225768,
          "velocity": 0.5511811023622047,
          "duration": 0.7419340000000005
        },
        {
          "name": "A4",
          "midi": 69,
          "time": 19.225768,
          "velocity": 0.5511811023622047,
          "duration": 0.7419340000000005
        },
        {
          "name": "B3",
          "midi": 59,
          "time": 19.225768,
          "velocity": 0.5511811023622047,
          "duration": 0.7419340000000005
        },
        {
          "name": "D4",
          "midi": 62,
          "time": 19.225768,
          "velocity": 0.5511811023622047,
          "duration": 0.7419340000000005
        },
        {
          "name": "B3",
          "midi": 59,
          "time": 20.128992,
          "velocity": 0.5354330708661418,
          "duration": 0.6774179999999994
        },
        {
          "name": "D4",
          "midi": 62,
          "time": 20.128992,
          "velocity": 0.5354330708661418,
          "duration": 0.6774179999999994
        },
        {
          "name": "E3",
          "midi": 52,
          "time": 20.128992,
          "velocity": 0.5354330708661418,
          "duration": 0.6774179999999994
        },
        {
          "name": "G4",
          "midi": 67,
          "time": 20.128992,
          "velocity": 0.5354330708661418,
          "duration": 0.6774179999999994
        },
        {
          "name": "B3",
          "midi": 59,
          "time": 20.903184,
          "velocity": 0.5118110236220472,
          "duration": 0.20967699999999923
        },
        {
          "name": "D4",
          "midi": 62,
          "time": 20.903184,
          "velocity": 0.5118110236220472,
          "duration": 0.20967699999999923
        },
        {
          "name": "E3",
          "midi": 52,
          "time": 20.903184,
          "velocity": 0.5118110236220472,
          "duration": 0.20967699999999923
        },
        {
          "name": "G3",
          "midi": 55,
          "time": 20.903184,
          "velocity": 0.5118110236220472,
          "duration": 0.20967699999999923
        },
        {
          "name": "C2",
          "midi": 36,
          "time": 21.177377,
          "velocity": 0.3937007874015748,
          "duration": 0.06451600000000113
        },
        {
          "name": "B3",
          "midi": 59,
          "time": 21.290280000000003,
          "velocity": 0.5905511811023622,
          "duration": 0.25806400000000096
        },
        {
          "name": "D4",
          "midi": 62,
          "time": 21.290280000000003,
          "velocity": 0.5905511811023622,
          "duration": 0.25806400000000096
        },
        {
          "name": "E3",
          "midi": 52,
          "time": 21.290280000000003,
          "velocity": 0.5905511811023622,
          "duration": 0.25806400000000096
        },
        {
          "name": "G3",
          "midi": 55,
          "time": 21.290280000000003,
          "velocity": 0.5905511811023622,
          "duration": 0.25806400000000096
        },
        {
          "name": "E3",
          "midi": 52,
          "time": 21.677376000000002,
          "velocity": 0.5511811023622047,
          "duration": 1.5483839999999987
        },
        {
          "name": "F#3",
          "midi": 54,
          "time": 21.677376000000002,
          "velocity": 0.5511811023622047,
          "duration": 1.5483839999999987
        },
        {
          "name": "A3",
          "midi": 57,
          "time": 21.677376000000002,
          "velocity": 0.5511811023622047,
          "duration": 1.5483839999999987
        },
        {
          "name": "C4",
          "midi": 60,
          "time": 21.677376000000002,
          "velocity": 0.5511811023622047,
          "duration": 1.5483839999999987
        },
        {
          "name": "A3",
          "midi": 57,
          "time": 23.22576,
          "velocity": 0.5354330708661418,
          "duration": 0.6774179999999994
        },
        {
          "name": "C4",
          "midi": 60,
          "time": 23.22576,
          "velocity": 0.5354330708661418,
          "duration": 0.6774179999999994
        },
        {
          "name": "D#4",
          "midi": 63,
          "time": 23.22576,
          "velocity": 0.5354330708661418,
          "duration": 0.6774179999999994
        },
        {
          "name": "G4",
          "midi": 67,
          "time": 23.22576,
          "velocity": 0.5354330708661418,
          "duration": 0.6774179999999994
        },
        {
          "name": "A3",
          "midi": 57,
          "time": 23.999952,
          "velocity": 0.5118110236220472,
          "duration": 0.20967699999999923
        },
        {
          "name": "B3",
          "midi": 59,
          "time": 23.999952,
          "velocity": 0.5118110236220472,
          "duration": 0.20967699999999923
        },
        {
          "name": "D#4",
          "midi": 63,
          "time": 23.999952,
          "velocity": 0.5118110236220472,
          "duration": 0.20967699999999923
        },
        {
          "name": "F#4",
          "midi": 66,
          "time": 23.999952,
          "velocity": 0.5118110236220472,
          "duration": 0.20967699999999923
        },
        {
          "name": "B2",
          "midi": 47,
          "time": 24.274145,
          "velocity": 0.23622047244094488,
          "duration": 0.06451600000000113
        },
        {
          "name": "A3",
          "midi": 57,
          "time": 24.387048000000004,
          "velocity": 0.5905511811023622,
          "duration": 0.25806400000000096
        },
        {
          "name": "B3",
          "midi": 59,
          "time": 24.387048000000004,
          "velocity": 0.5905511811023622,
          "duration": 0.25806400000000096
        },
        {
          "name": "D#4",
          "midi": 63,
          "time": 24.387048000000004,
          "velocity": 0.5905511811023622,
          "duration": 0.25806400000000096
        },
        {
          "name": "F#4",
          "midi": 66,
          "time": 24.387048000000004,
          "velocity": 0.5905511811023622,
          "duration": 0.25806400000000096
        },
        {
          "name": "E4",
          "midi": 64,
          "time": 25.048337000000004,
          "velocity": 0.5905511811023622,
          "duration": 0.25806400000000096
        },
        {
          "name": "G3",
          "midi": 55,
          "time": 25.048337000000004,
          "velocity": 0.5905511811023622,
          "duration": 0.25806400000000096
        },
        {
          "name": "B4",
          "midi": 71,
          "time": 25.048337000000004,
          "velocity": 0.5905511811023622,
          "duration": 0.25806400000000096
        },
        {
          "name": "E2",
          "midi": 40,
          "time": 25.435433000000003,
          "velocity": 0.3464566929133858,
          "duration": 0.06451600000000113
        },
        {
          "name": "E4",
          "midi": 64,
          "time": 25.548336000000006,
          "velocity": 0.5354330708661418,
          "duration": 0.6774179999999994
        },
        {
          "name": "G3",
          "midi": 55,
          "time": 25.548336000000006,
          "velocity": 0.5354330708661418,
          "duration": 0.6774179999999994
        },
        {
          "name": "B4",
          "midi": 71,
          "time": 25.548336000000006,
          "velocity": 0.5354330708661418,
          "duration": 0.6774179999999994
        },
        {
          "name": "E4",
          "midi": 64,
          "time": 26.322528000000005,
          "velocity": 0.5905511811023622,
          "duration": 0.6129019999999983
        },
        {
          "name": "G3",
          "midi": 55,
          "time": 26.322528000000005,
          "velocity": 0.5905511811023622,
          "duration": 0.6129019999999983
        },
        {
          "name": "B3",
          "midi": 59,
          "time": 26.322528000000005,
          "velocity": 0.5905511811023622,
          "duration": 0.6129019999999983
        },
        {
          "name": "E4",
          "midi": 64,
          "time": 26.967688000000003,
          "velocity": 0.47244094488188976,
          "duration": 0.1290319999999987
        },
        {
          "name": "G3",
          "midi": 55,
          "time": 26.967688000000003,
          "velocity": 0.47244094488188976,
          "duration": 0.1290319999999987
        },
        {
          "name": "B3",
          "midi": 59,
          "time": 26.967688000000003,
          "velocity": 0.47244094488188976,
          "duration": 0.1290319999999987
        },
        {
          "name": "G3",
          "midi": 55,
          "time": 27.354784000000002,
          "velocity": 0.5511811023622047,
          "duration": 0.09677399999999992
        },
        {
          "name": "E4",
          "midi": 64,
          "time": 27.483816,
          "velocity": 0.5511811023622047,
          "duration": 0.09677399999999992
        },
        {
          "name": "E4",
          "midi": 64,
          "time": 27.612848,
          "velocity": 0.5511811023622047,
          "duration": 0.09677399999999992
        },
        {
          "name": "B3",
          "midi": 59,
          "time": 27.74188,
          "velocity": 0.5511811023622047,
          "duration": 0.09677399999999992
        },
        {
          "name": "E3",
          "midi": 52,
          "time": 27.870911999999997,
          "velocity": 0.5511811023622047,
          "duration": 1.5483839999999987
        },
        {
          "name": "F#4",
          "midi": 66,
          "time": 27.870911999999997,
          "velocity": 0.5511811023622047,
          "duration": 1.5483839999999987
        },
        {
          "name": "A3",
          "midi": 57,
          "time": 27.870911999999997,
          "velocity": 0.5511811023622047,
          "duration": 1.5483839999999987
        },
        {
          "name": "C4",
          "midi": 60,
          "time": 27.870911999999997,
          "velocity": 0.5511811023622047,
          "duration": 1.5483839999999987
        },
        {
          "name": "A3",
          "midi": 57,
          "time": 29.419295999999996,
          "velocity": 0.5511811023622047,
          "duration": 1.5483839999999987
        },
        {
          "name": "C4",
          "midi": 60,
          "time": 29.419295999999996,
          "velocity": 0.5511811023622047,
          "duration": 1.5483839999999987
        },
        {
          "name": "D#4",
          "midi": 63,
          "time": 29.419295999999996,
          "velocity": 0.5511811023622047,
          "duration": 1.5483839999999987
        },
        {
          "name": "G4",
          "midi": 67,
          "time": 29.419295999999996,
          "velocity": 0.5511811023622047,
          "duration": 1.5483839999999987
        },
        {
          "name": "D4",
          "midi": 62,
          "time": 31.741871999999994,
          "velocity": 0.5511811023622047,
          "duration": 0.19354799999999983
        },
        {
          "name": "E4",
          "midi": 64,
          "time": 31.741871999999994,
          "velocity": 0.5511811023622047,
          "duration": 0.19354799999999983
        },
        {
          "name": "G3",
          "midi": 55,
          "time": 31.741871999999994,
          "velocity": 0.5511811023622047,
          "duration": 0.19354799999999983
        },
        {
          "name": "B3",
          "midi": 59,
          "time": 31.741871999999994,
          "velocity": 0.5511811023622047,
          "duration": 0.19354799999999983
        },
        {
          "name": "D4",
          "midi": 62,
          "time": 32.01606499999999,
          "velocity": 0.5511811023622047,
          "duration": 0.22580599999999862
        },
        {
          "name": "E4",
          "midi": 64,
          "time": 32.01606499999999,
          "velocity": 0.5511811023622047,
          "duration": 0.22580599999999862
        },
        {
          "name": "G3",
          "midi": 55,
          "time": 32.01606499999999,
          "velocity": 0.5511811023622047,
          "duration": 0.22580599999999862
        },
        {
          "name": "B3",
          "midi": 59,
          "time": 32.01606499999999,
          "velocity": 0.5511811023622047,
          "duration": 0.22580599999999862
        },
        {
          "name": "D4",
          "midi": 62,
          "time": 32.40316099999999,
          "velocity": 0.5511811023622047,
          "duration": 0.09677400000000347
        },
        {
          "name": "E4",
          "midi": 64,
          "time": 32.40316099999999,
          "velocity": 0.5511811023622047,
          "duration": 0.09677400000000347
        },
        {
          "name": "G3",
          "midi": 55,
          "time": 32.40316099999999,
          "velocity": 0.5511811023622047,
          "duration": 0.09677400000000347
        },
        {
          "name": "B3",
          "midi": 59,
          "time": 32.40316099999999,
          "velocity": 0.5511811023622047,
          "duration": 0.09677400000000347
        },
        {
          "name": "A2",
          "midi": 45,
          "time": 34.725736999999995,
          "velocity": 0.3937007874015748,
          "duration": 0.09677400000000347
        },
        {
          "name": "G3",
          "midi": 55,
          "time": 34.83864,
          "velocity": 0.5118110236220472,
          "duration": 0.20967699999999923
        },
        {
          "name": "B3",
          "midi": 59,
          "time": 34.83864,
          "velocity": 0.5118110236220472,
          "duration": 0.20967699999999923
        },
        {
          "name": "C4",
          "midi": 60,
          "time": 34.83864,
          "velocity": 0.5118110236220472,
          "duration": 0.20967699999999923
        },
        {
          "name": "E4",
          "midi": 64,
          "time": 34.83864,
          "velocity": 0.5118110236220472,
          "duration": 0.20967699999999923
        },
        {
          "name": "A2",
          "midi": 45,
          "time": 35.112832999999995,
          "velocity": 0.23622047244094488,
          "duration": 0.06451599999999758
        },
        {
          "name": "G3",
          "midi": 55,
          "time": 35.22573599999999,
          "velocity": 0.5905511811023622,
          "duration": 0.2580639999999974
        },
        {
          "name": "B3",
          "midi": 59,
          "time": 35.22573599999999,
          "velocity": 0.5905511811023622,
          "duration": 0.2580639999999974
        },
        {
          "name": "C4",
          "midi": 60,
          "time": 35.22573599999999,
          "velocity": 0.5905511811023622,
          "duration": 0.2580639999999974
        },
        {
          "name": "E4",
          "midi": 64,
          "time": 35.22573599999999,
          "velocity": 0.5905511811023622,
          "duration": 0.2580639999999974
        },
        {
          "name": "D2",
          "midi": 38,
          "time": 36.27412099999999,
          "velocity": 0.3937007874015748,
          "duration": 0.09677400000000347
        },
        {
          "name": "C4",
          "midi": 60,
          "time": 36.38702399999999,
          "velocity": 0.5118110236220472,
          "duration": 0.20967699999999923
        },
        {
          "name": "E4",
          "midi": 64,
          "time": 36.38702399999999,
          "velocity": 0.5118110236220472,
          "duration": 0.20967699999999923
        },
        {
          "name": "F#3",
          "midi": 54,
          "time": 36.38702399999999,
          "velocity": 0.5118110236220472,
          "duration": 0.20967699999999923
        },
        {
          "name": "B4",
          "midi": 71,
          "time": 36.38702399999999,
          "velocity": 0.5118110236220472,
          "duration": 0.20967699999999923
        },
        {
          "name": "C4",
          "midi": 60,
          "time": 36.77411999999998,
          "velocity": 0.5905511811023622,
          "duration": 0.2580639999999974
        },
        {
          "name": "E4",
          "midi": 64,
          "time": 36.77411999999998,
          "velocity": 0.5905511811023622,
          "duration": 0.2580639999999974
        },
        {
          "name": "F#3",
          "midi": 54,
          "time": 36.77411999999998,
          "velocity": 0.5905511811023622,
          "duration": 0.2580639999999974
        },
        {
          "name": "B4",
          "midi": 71,
          "time": 36.77411999999998,
          "velocity": 0.5905511811023622,
          "duration": 0.2580639999999974
        },
        {
          "name": "F#3",
          "midi": 54,
          "time": 37.93540799999998,
          "velocity": 0.5511811023622047,
          "duration": 0.19354799999999983
        },
        {
          "name": "A4",
          "midi": 69,
          "time": 37.93540799999998,
          "velocity": 0.5511811023622047,
          "duration": 0.19354799999999983
        },
        {
          "name": "B3",
          "midi": 59,
          "time": 37.93540799999998,
          "velocity": 0.5511811023622047,
          "duration": 0.19354799999999983
        },
        {
          "name": "D4",
          "midi": 62,
          "time": 37.93540799999998,
          "velocity": 0.5511811023622047,
          "duration": 0.19354799999999983
        },
        {
          "name": "F#3",
          "midi": 54,
          "time": 38.20960099999998,
          "velocity": 0.5511811023622047,
          "duration": 0.22580599999999862
        },
        {
          "name": "A4",
          "midi": 69,
          "time": 38.20960099999998,
          "velocity": 0.5511811023622047,
          "duration": 0.22580599999999862
        },
        {
          "name": "B3",
          "midi": 59,
          "time": 38.20960099999998,
          "velocity": 0.5511811023622047,
          "duration": 0.22580599999999862
        },
        {
          "name": "D4",
          "midi": 62,
          "time": 38.20960099999998,
          "velocity": 0.5511811023622047,
          "duration": 0.22580599999999862
        },
        {
          "name": "F#3",
          "midi": 54,
          "time": 38.59669699999998,
          "velocity": 0.5511811023622047,
          "duration": 0.09677400000000347
        },
        {
          "name": "A4",
          "midi": 69,
          "time": 38.59669699999998,
          "velocity": 0.5511811023622047,
          "duration": 0.09677400000000347
        },
        {
          "name": "B3",
          "midi": 59,
          "time": 38.59669699999998,
          "velocity": 0.5511811023622047,
          "duration": 0.09677400000000347
        },
        {
          "name": "D4",
          "midi": 62,
          "time": 38.59669699999998,
          "velocity": 0.5511811023622047,
          "duration": 0.09677400000000347
        },
        {
          "name": "E3",
          "midi": 52,
          "time": 40.532176999999976,
          "velocity": 0.5905511811023622,
          "duration": 0.2580639999999974
        },
        {
          "name": "F#3",
          "midi": 54,
          "time": 40.532176999999976,
          "velocity": 0.5905511811023622,
          "duration": 0.2580639999999974
        },
        {
          "name": "A3",
          "midi": 57,
          "time": 40.532176999999976,
          "velocity": 0.5905511811023622,
          "duration": 0.2580639999999974
        },
        {
          "name": "C4",
          "midi": 60,
          "time": 40.532176999999976,
          "velocity": 0.5905511811023622,
          "duration": 0.2580639999999974
        },
        {
          "name": "F#2",
          "midi": 42,
          "time": 40.919272999999976,
          "velocity": 0.3464566929133858,
          "duration": 0.06451599999999758
        },
        {
          "name": "E3",
          "midi": 52,
          "time": 41.03217599999997,
          "velocity": 0.5354330708661418,
          "duration": 0.677418000000003
        },
        {
          "name": "F#4",
          "midi": 66,
          "time": 41.03217599999997,
          "velocity": 0.5354330708661418,
          "duration": 0.677418000000003
        },
        {
          "name": "A3",
          "midi": 57,
          "time": 41.03217599999997,
          "velocity": 0.5354330708661418,
          "duration": 0.677418000000003
        },
        {
          "name": "C4",
          "midi": 60,
          "time": 41.03217599999997,
          "velocity": 0.5354330708661418,
          "duration": 0.677418000000003
        },
        {
          "name": "A3",
          "midi": 57,
          "time": 41.80636799999998,
          "velocity": 0.5511811023622047,
          "duration": 0.20967699999999923
        },
        {
          "name": "C5",
          "midi": 72,
          "time": 41.80636799999998,
          "velocity": 0.5511811023622047,
          "duration": 0.20967699999999923
        },
        {
          "name": "D#4",
          "midi": 63,
          "time": 41.80636799999998,
          "velocity": 0.5511811023622047,
          "duration": 0.20967699999999923
        },
        {
          "name": "G4",
          "midi": 67,
          "time": 41.80636799999998,
          "velocity": 0.5511811023622047,
          "duration": 0.20967699999999923
        },
        {
          "name": "A3",
          "midi": 57,
          "time": 42.080560999999975,
          "velocity": 0.5511811023622047,
          "duration": 0.11290300000000286
        },
        {
          "name": "C5",
          "midi": 72,
          "time": 42.080560999999975,
          "velocity": 0.5511811023622047,
          "duration": 0.11290300000000286
        },
        {
          "name": "D#4",
          "midi": 63,
          "time": 42.080560999999975,
          "velocity": 0.5511811023622047,
          "duration": 0.11290300000000286
        },
        {
          "name": "G4",
          "midi": 67,
          "time": 42.080560999999975,
          "velocity": 0.5511811023622047,
          "duration": 0.11290300000000286
        },
        {
          "name": "A3",
          "midi": 57,
          "time": 42.451527999999975,
          "velocity": 0.5511811023622047,
          "duration": 0.7419340000000005
        },
        {
          "name": "B3",
          "midi": 59,
          "time": 42.451527999999975,
          "velocity": 0.5511811023622047,
          "duration": 0.7419340000000005
        },
        {
          "name": "D#4",
          "midi": 63,
          "time": 42.451527999999975,
          "velocity": 0.5511811023622047,
          "duration": 0.7419340000000005
        },
        {
          "name": "F#4",
          "midi": 66,
          "time": 42.451527999999975,
          "velocity": 0.5511811023622047,
          "duration": 0.7419340000000005
        },
        {
          "name": "D4",
          "midi": 62,
          "time": 43.354751999999976,
          "velocity": 0.5354330708661418,
          "duration": 0.677418000000003
        },
        {
          "name": "E4",
          "midi": 64,
          "time": 43.354751999999976,
          "velocity": 0.5354330708661418,
          "duration": 0.677418000000003
        },
        {
          "name": "G3",
          "midi": 55,
          "time": 43.354751999999976,
          "velocity": 0.5354330708661418,
          "duration": 0.677418000000003
        },
        {
          "name": "B4",
          "midi": 71,
          "time": 43.354751999999976,
          "velocity": 0.5354330708661418,
          "duration": 0.677418000000003
        },
        {
          "name": "C#4",
          "midi": 61,
          "time": 44.12894399999998,
          "velocity": 0.5511811023622047,
          "duration": 0.19354799999999983
        },
        {
          "name": "F4",
          "midi": 65,
          "time": 44.12894399999998,
          "velocity": 0.5511811023622047,
          "duration": 0.19354799999999983
        },
        {
          "name": "G3",
          "midi": 55,
          "time": 44.12894399999998,
          "velocity": 0.5511811023622047,
          "duration": 0.19354799999999983
        },
        {
          "name": "C5",
          "midi": 72,
          "time": 44.12894399999998,
          "velocity": 0.5511811023622047,
          "duration": 0.19354799999999983
        },
        {
          "name": "C#4",
          "midi": 61,
          "time": 44.40313699999998,
          "velocity": 0.6299212598425197,
          "duration": 0.38709599999999966
        },
        {
          "name": "F4",
          "midi": 65,
          "time": 44.40313699999998,
          "velocity": 0.6299212598425197,
          "duration": 0.38709599999999966
        },
        {
          "name": "G3",
          "midi": 55,
          "time": 44.40313699999998,
          "velocity": 0.6299212598425197,
          "duration": 0.38709599999999966
        },
        {
          "name": "C5",
          "midi": 72,
          "time": 44.40313699999998,
          "velocity": 0.6299212598425197,
          "duration": 0.38709599999999966
        },
        {
          "name": "C4",
          "midi": 60,
          "time": 44.90313599999998,
          "velocity": 0.5354330708661418,
          "duration": 0.677418000000003
        },
        {
          "name": "E4",
          "midi": 64,
          "time": 44.90313599999998,
          "velocity": 0.5354330708661418,
          "duration": 0.677418000000003
        },
        {
          "name": "F3",
          "midi": 53,
          "time": 44.90313599999998,
          "velocity": 0.5354330708661418,
          "duration": 0.677418000000003
        },
        {
          "name": "A4",
          "midi": 69,
          "time": 44.90313599999998,
          "velocity": 0.5354330708661418,
          "duration": 0.677418000000003
        },
        {
          "name": "B3",
          "midi": 59,
          "time": 45.67732799999999,
          "velocity": 0.5511811023622047,
          "duration": 0.19354799999999983
        },
        {
          "name": "D#4",
          "midi": 63,
          "time": 45.67732799999999,
          "velocity": 0.5511811023622047,
          "duration": 0.19354799999999983
        },
        {
          "name": "F3",
          "midi": 53,
          "time": 45.67732799999999,
          "velocity": 0.5511811023622047,
          "duration": 0.19354799999999983
        },
        {
          "name": "A#4",
          "midi": 70,
          "time": 45.67732799999999,
          "velocity": 0.5511811023622047,
          "duration": 0.19354799999999983
        },
        {
          "name": "B3",
          "midi": 59,
          "time": 45.951520999999985,
          "velocity": 0.6299212598425197,
          "duration": 0.38709599999999966
        },
        {
          "name": "D#4",
          "midi": 63,
          "time": 45.951520999999985,
          "velocity": 0.6299212598425197,
          "duration": 0.38709599999999966
        },
        {
          "name": "F3",
          "midi": 53,
          "time": 45.951520999999985,
          "velocity": 0.6299212598425197,
          "duration": 0.38709599999999966
        },
        {
          "name": "A#4",
          "midi": 70,
          "time": 45.951520999999985,
          "velocity": 0.6299212598425197,
          "duration": 0.38709599999999966
        },
        {
          "name": "B3",
          "midi": 59,
          "time": 46.45151999999999,
          "velocity": 0.5511811023622047,
          "duration": 1.5483839999999987
        },
        {
          "name": "D4",
          "midi": 62,
          "time": 46.45151999999999,
          "velocity": 0.5511811023622047,
          "duration": 1.5483839999999987
        },
        {
          "name": "E3",
          "midi": 52,
          "time": 46.45151999999999,
          "velocity": 0.5511811023622047,
          "duration": 1.5483839999999987
        },
        {
          "name": "G3",
          "midi": 55,
          "time": 46.45151999999999,
          "velocity": 0.5511811023622047,
          "duration": 1.5483839999999987
        },
        {
          "name": "E3",
          "midi": 52,
          "time": 47.99990399999999,
          "velocity": 0.5354330708661418,
          "duration": 0.677418000000003
        },
        {
          "name": "F#4",
          "midi": 66,
          "time": 47.99990399999999,
          "velocity": 0.5354330708661418,
          "duration": 0.677418000000003
        },
        {
          "name": "A3",
          "midi": 57,
          "time": 47.99990399999999,
          "velocity": 0.5354330708661418,
          "duration": 0.677418000000003
        },
        {
          "name": "C4",
          "midi": 60,
          "time": 47.99990399999999,
          "velocity": 0.5354330708661418,
          "duration": 0.677418000000003
        },
        {
          "name": "A3",
          "midi": 57,
          "time": 48.77409599999999,
          "velocity": 0.5354330708661418,
          "duration": 0.677418000000003
        },
        {
          "name": "C5",
          "midi": 72,
          "time": 48.77409599999999,
          "velocity": 0.5354330708661418,
          "duration": 0.677418000000003
        },
        {
          "name": "D#4",
          "midi": 63,
          "time": 48.77409599999999,
          "velocity": 0.5354330708661418,
          "duration": 0.677418000000003
        },
        {
          "name": "G4",
          "midi": 67,
          "time": 48.77409599999999,
          "velocity": 0.5354330708661418,
          "duration": 0.677418000000003
        },
        {
          "name": "D4",
          "midi": 62,
          "time": 49.548288,
          "velocity": 0.5511811023622047,
          "duration": 0.20967699999999923
        },
        {
          "name": "E4",
          "midi": 64,
          "time": 49.548288,
          "velocity": 0.5511811023622047,
          "duration": 0.20967699999999923
        },
        {
          "name": "G3",
          "midi": 55,
          "time": 49.548288,
          "velocity": 0.5511811023622047,
          "duration": 0.20967699999999923
        },
        {
          "name": "B3",
          "midi": 59,
          "time": 49.548288,
          "velocity": 0.5511811023622047,
          "duration": 0.20967699999999923
        },
        {
          "name": "D4",
          "midi": 62,
          "time": 49.822480999999996,
          "velocity": 0.5511811023622047,
          "duration": 0.11290300000000286
        },
        {
          "name": "E4",
          "midi": 64,
          "time": 49.822480999999996,
          "velocity": 0.5511811023622047,
          "duration": 0.11290300000000286
        },
        {
          "name": "G3",
          "midi": 55,
          "time": 49.822480999999996,
          "velocity": 0.5511811023622047,
          "duration": 0.11290300000000286
        },
        {
          "name": "B3",
          "midi": 59,
          "time": 49.822480999999996,
          "velocity": 0.5511811023622047,
          "duration": 0.11290300000000286
        },
        {
          "name": "D4",
          "midi": 62,
          "time": 50.193448,
          "velocity": 0.5511811023622047,
          "duration": 0.7419340000000005
        },
        {
          "name": "F#4",
          "midi": 66,
          "time": 50.193448,
          "velocity": 0.5511811023622047,
          "duration": 0.7419340000000005
        },
        {
          "name": "G3",
          "midi": 55,
          "time": 50.193448,
          "velocity": 0.5511811023622047,
          "duration": 0.7419340000000005
        },
        {
          "name": "B3",
          "midi": 59,
          "time": 50.193448,
          "velocity": 0.5511811023622047,
          "duration": 0.7419340000000005
        },
        {
          "name": "D4",
          "midi": 62,
          "time": 51.370864999999995,
          "velocity": 0.5905511811023622,
          "duration": 0.2580639999999974
        },
        {
          "name": "F#4",
          "midi": 66,
          "time": 51.370864999999995,
          "velocity": 0.5905511811023622,
          "duration": 0.2580639999999974
        },
        {
          "name": "G3",
          "midi": 55,
          "time": 51.370864999999995,
          "velocity": 0.5905511811023622,
          "duration": 0.2580639999999974
        },
        {
          "name": "B3",
          "midi": 59,
          "time": 51.370864999999995,
          "velocity": 0.5905511811023622,
          "duration": 0.2580639999999974
        },
        {
          "name": "E2",
          "midi": 40,
          "time": 51.757960999999995,
          "velocity": 0.3464566929133858,
          "duration": 0.06451599999999758
        },
        {
          "name": "D4",
          "midi": 62,
          "time": 51.87086399999999,
          "velocity": 0.5354330708661418,
          "duration": 0.677418000000003
        },
        {
          "name": "F#4",
          "midi": 66,
          "time": 51.87086399999999,
          "velocity": 0.5354330708661418,
          "duration": 0.677418000000003
        },
        {
          "name": "G3",
          "midi": 55,
          "time": 51.87086399999999,
          "velocity": 0.5354330708661418,
          "duration": 0.677418000000003
        },
        {
          "name": "B4",
          "midi": 71,
          "time": 51.87086399999999,
          "velocity": 0.5354330708661418,
          "duration": 0.677418000000003
        },
        {
          "name": "A2",
          "midi": 45,
          "time": 53.30634499999999,
          "velocity": 0.3937007874015748,
          "duration": 0.09677400000000347
        },
        {
          "name": "G3",
          "midi": 55,
          "time": 53.419247999999996,
          "velocity": 0.5118110236220472,
          "duration": 0.20967699999999923
        },
        {
          "name": "A4",
          "midi": 69,
          "time": 53.419247999999996,
          "velocity": 0.5118110236220472,
          "duration": 0.20967699999999923
        },
        {
          "name": "C4",
          "midi": 60,
          "time": 53.419247999999996,
          "velocity": 0.5118110236220472,
          "duration": 0.20967699999999923
        },
        {
          "name": "E4",
          "midi": 64,
          "time": 53.419247999999996,
          "velocity": 0.5118110236220472,
          "duration": 0.20967699999999923
        },
        {
          "name": "G3",
          "midi": 55,
          "time": 53.80634399999999,
          "velocity": 0.5905511811023622,
          "duration": 0.2580639999999974
        },
        {
          "name": "A4",
          "midi": 69,
          "time": 53.80634399999999,
          "velocity": 0.5905511811023622,
          "duration": 0.2580639999999974
        },
        {
          "name": "C4",
          "midi": 60,
          "time": 53.80634399999999,
          "velocity": 0.5905511811023622,
          "duration": 0.2580639999999974
        },
        {
          "name": "E4",
          "midi": 64,
          "time": 53.80634399999999,
          "velocity": 0.5905511811023622,
          "duration": 0.2580639999999974
        },
        {
          "name": "C4",
          "midi": 60,
          "time": 54.19343999999999,
          "velocity": 0.5511811023622047,
          "duration": 1.5483839999999987
        },
        {
          "name": "E4",
          "midi": 64,
          "time": 54.19343999999999,
          "velocity": 0.5511811023622047,
          "duration": 1.5483839999999987
        },
        {
          "name": "F#3",
          "midi": 54,
          "time": 54.19343999999999,
          "velocity": 0.5511811023622047,
          "duration": 1.5483839999999987
        },
        {
          "name": "A4",
          "midi": 69,
          "time": 54.19343999999999,
          "velocity": 0.5511811023622047,
          "duration": 1.5483839999999987
        },
        {
          "name": "F#3",
          "midi": 54,
          "time": 55.74182399999999,
          "velocity": 0.5354330708661418,
          "duration": 0.677418000000003
        },
        {
          "name": "A4",
          "midi": 69,
          "time": 55.74182399999999,
          "velocity": 0.5354330708661418,
          "duration": 0.677418000000003
        },
        {
          "name": "B3",
          "midi": 59,
          "time": 55.74182399999999,
          "velocity": 0.5354330708661418,
          "duration": 0.677418000000003
        },
        {
          "name": "D4",
          "midi": 62,
          "time": 55.74182399999999,
          "velocity": 0.5354330708661418,
          "duration": 0.677418000000003
        },
        {
          "name": "F#3",
          "midi": 54,
          "time": 56.51601599999999,
          "velocity": 0.5511811023622047,
          "duration": 0.3225800000000021
        },
        {
          "name": "A4",
          "midi": 69,
          "time": 56.51601599999999,
          "velocity": 0.5511811023622047,
          "duration": 0.3225800000000021
        },
        {
          "name": "B3",
          "midi": 59,
          "time": 56.51601599999999,
          "velocity": 0.5511811023622047,
          "duration": 0.3225800000000021
        },
        {
          "name": "D4",
          "midi": 62,
          "time": 56.51601599999999,
          "velocity": 0.5511811023622047,
          "duration": 0.3225800000000021
        },
        {
          "name": "B3",
          "midi": 59,
          "time": 57.161176,
          "velocity": 0.5511811023622047,
          "duration": 0.09677400000000347
        },
        {
          "name": "D4",
          "midi": 62,
          "time": 57.161176,
          "velocity": 0.5511811023622047,
          "duration": 0.09677400000000347
        },
        {
          "name": "E3",
          "midi": 52,
          "time": 57.161176,
          "velocity": 0.5511811023622047,
          "duration": 0.09677400000000347
        },
        {
          "name": "G4",
          "midi": 67,
          "time": 57.161176,
          "velocity": 0.5511811023622047,
          "duration": 0.09677400000000347
        },
        {
          "name": "B3",
          "midi": 59,
          "time": 58.064400000000006,
          "velocity": 0.5118110236220472,
          "duration": 0.20967699999999923
        },
        {
          "name": "D4",
          "midi": 62,
          "time": 58.064400000000006,
          "velocity": 0.5118110236220472,
          "duration": 0.20967699999999923
        },
        {
          "name": "E3",
          "midi": 52,
          "time": 58.064400000000006,
          "velocity": 0.5118110236220472,
          "duration": 0.20967699999999923
        },
        {
          "name": "G3",
          "midi": 55,
          "time": 58.064400000000006,
          "velocity": 0.5118110236220472,
          "duration": 0.20967699999999923
        },
        {
          "name": "B3",
          "midi": 59,
          "time": 58.451496,
          "velocity": 0.5905511811023622,
          "duration": 0.2580639999999974
        },
        {
          "name": "D4",
          "midi": 62,
          "time": 58.451496,
          "velocity": 0.5905511811023622,
          "duration": 0.2580639999999974
        },
        {
          "name": "E3",
          "midi": 52,
          "time": 58.451496,
          "velocity": 0.5905511811023622,
          "duration": 0.2580639999999974
        },
        {
          "name": "G3",
          "midi": 55,
          "time": 58.451496,
          "velocity": 0.5905511811023622,
          "duration": 0.2580639999999974
        },
        {
          "name": "E3",
          "midi": 52,
          "time": 58.838592,
          "velocity": 0.5511811023622047,
          "duration": 1.5483839999999987
        },
        {
          "name": "F#3",
          "midi": 54,
          "time": 58.838592,
          "velocity": 0.5511811023622047,
          "duration": 1.5483839999999987
        },
        {
          "name": "A3",
          "midi": 57,
          "time": 58.838592,
          "velocity": 0.5511811023622047,
          "duration": 1.5483839999999987
        },
        {
          "name": "C4",
          "midi": 60,
          "time": 58.838592,
          "velocity": 0.5511811023622047,
          "duration": 1.5483839999999987
        },
        {
          "name": "A3",
          "midi": 57,
          "time": 60.386976,
          "velocity": 0.5354330708661418,
          "duration": 0.677418000000003
        },
        {
          "name": "C5",
          "midi": 72,
          "time": 60.386976,
          "velocity": 0.5354330708661418,
          "duration": 0.677418000000003
        },
        {
          "name": "D#4",
          "midi": 63,
          "time": 60.386976,
          "velocity": 0.5354330708661418,
          "duration": 0.677418000000003
        },
        {
          "name": "G4",
          "midi": 67,
          "time": 60.386976,
          "velocity": 0.5354330708661418,
          "duration": 0.677418000000003
        },
        {
          "name": "A3",
          "midi": 57,
          "time": 61.161168,
          "velocity": 0.5511811023622047,
          "duration": 0.3225800000000021
        },
        {
          "name": "C4",
          "midi": 60,
          "time": 61.161168,
          "velocity": 0.5511811023622047,
          "duration": 0.3225800000000021
        },
        {
          "name": "D#4",
          "midi": 63,
          "time": 61.161168,
          "velocity": 0.5511811023622047,
          "duration": 0.3225800000000021
        },
        {
          "name": "G4",
          "midi": 67,
          "time": 61.161168,
          "velocity": 0.5511811023622047,
          "duration": 0.3225800000000021
        },
        {
          "name": "D4",
          "midi": 62,
          "time": 61.80632800000001,
          "velocity": 0.5511811023622047,
          "duration": 0.09677400000000347
        },
        {
          "name": "E4",
          "midi": 64,
          "time": 61.80632800000001,
          "velocity": 0.5511811023622047,
          "duration": 0.09677400000000347
        },
        {
          "name": "G3",
          "midi": 55,
          "time": 61.80632800000001,
          "velocity": 0.5511811023622047,
          "duration": 0.09677400000000347
        },
        {
          "name": "B4",
          "midi": 71,
          "time": 61.80632800000001,
          "velocity": 0.5511811023622047,
          "duration": 0.09677400000000347
        },
        {
          "name": "D4",
          "midi": 62,
          "time": 62.709552000000016,
          "velocity": 0.5118110236220472,
          "duration": 0.20967699999999923
        },
        {
          "name": "E4",
          "midi": 64,
          "time": 62.709552000000016,
          "velocity": 0.5118110236220472,
          "duration": 0.20967699999999923
        },
        {
          "name": "G3",
          "midi": 55,
          "time": 62.709552000000016,
          "velocity": 0.5118110236220472,
          "duration": 0.20967699999999923
        },
        {
          "name": "B3",
          "midi": 59,
          "time": 62.709552000000016,
          "velocity": 0.5118110236220472,
          "duration": 0.20967699999999923
        },
        {
          "name": "D4",
          "midi": 62,
          "time": 63.09664800000001,
          "velocity": 0.5905511811023622,
          "duration": 0.2580639999999974
        },
        {
          "name": "E4",
          "midi": 64,
          "time": 63.09664800000001,
          "velocity": 0.5905511811023622,
          "duration": 0.2580639999999974
        },
        {
          "name": "G3",
          "midi": 55,
          "time": 63.09664800000001,
          "velocity": 0.5905511811023622,
          "duration": 0.2580639999999974
        },
        {
          "name": "B3",
          "midi": 59,
          "time": 63.09664800000001,
          "velocity": 0.5905511811023622,
          "duration": 0.2580639999999974
        },
        {
          "name": "D4",
          "midi": 62,
          "time": 63.48374400000001,
          "velocity": 0.5511811023622047,
          "duration": 0.5806439999999995
        },
        {
          "name": "E4",
          "midi": 64,
          "time": 63.48374400000001,
          "velocity": 0.5511811023622047,
          "duration": 0.5806439999999995
        },
        {
          "name": "G3",
          "midi": 55,
          "time": 63.48374400000001,
          "velocity": 0.5511811023622047,
          "duration": 0.5806439999999995
        },
        {
          "name": "B4",
          "midi": 71,
          "time": 63.48374400000001,
          "velocity": 0.5511811023622047,
          "duration": 0.5806439999999995
        },
        {
          "name": "D4",
          "midi": 62,
          "time": 64.14503300000001,
          "velocity": 0.6614173228346457,
          "duration": 0.09677399999999636
        },
        {
          "name": "F4",
          "midi": 65,
          "time": 64.14503300000001,
          "velocity": 0.6614173228346457,
          "duration": 0.09677399999999636
        },
        {
          "name": "G#3",
          "midi": 56,
          "time": 64.14503300000001,
          "velocity": 0.6614173228346457,
          "duration": 0.09677399999999636
        },
        {
          "name": "C5",
          "midi": 72,
          "time": 64.14503300000001,
          "velocity": 0.6614173228346457,
          "duration": 0.09677399999999636
        },
        {
          "name": "G3",
          "midi": 55,
          "time": 65.03212800000001,
          "velocity": 0.5354330708661418,
          "duration": 0.677418000000003
        },
        {
          "name": "B4",
          "midi": 71,
          "time": 65.03212800000001,
          "velocity": 0.5354330708661418,
          "duration": 0.677418000000003
        },
        {
          "name": "C4",
          "midi": 60,
          "time": 65.03212800000001,
          "velocity": 0.5354330708661418,
          "duration": 0.677418000000003
        },
        {
          "name": "E4",
          "midi": 64,
          "time": 65.03212800000001,
          "velocity": 0.5354330708661418,
          "duration": 0.677418000000003
        },
        {
          "name": "G3",
          "midi": 55,
          "time": 65.80632000000001,
          "velocity": 0.5511811023622047,
          "duration": 0.3225800000000021
        },
        {
          "name": "A3",
          "midi": 57,
          "time": 65.80632000000001,
          "velocity": 0.5511811023622047,
          "duration": 0.3225800000000021
        },
        {
          "name": "C4",
          "midi": 60,
          "time": 65.80632000000001,
          "velocity": 0.5511811023622047,
          "duration": 0.3225800000000021
        },
        {
          "name": "E4",
          "midi": 64,
          "time": 65.80632000000001,
          "velocity": 0.5511811023622047,
          "duration": 0.3225800000000021
        },
        {
          "name": "C4",
          "midi": 60,
          "time": 66.45148000000002,
          "velocity": 0.5511811023622047,
          "duration": 0.09677399999999636
        },
        {
          "name": "E4",
          "midi": 64,
          "time": 66.45148000000002,
          "velocity": 0.5511811023622047,
          "duration": 0.09677399999999636
        },
        {
          "name": "F#3",
          "midi": 54,
          "time": 66.45148000000002,
          "velocity": 0.5511811023622047,
          "duration": 0.09677399999999636
        },
        {
          "name": "B3",
          "midi": 59,
          "time": 66.45148000000002,
          "velocity": 0.5511811023622047,
          "duration": 0.09677399999999636
        },
        {
          "name": "C4",
          "midi": 60,
          "time": 67.35470400000001,
          "velocity": 0.5118110236220472,
          "duration": 0.20967699999999923
        },
        {
          "name": "E4",
          "midi": 64,
          "time": 67.35470400000001,
          "velocity": 0.5118110236220472,
          "duration": 0.20967699999999923
        },
        {
          "name": "F#3",
          "midi": 54,
          "time": 67.35470400000001,
          "velocity": 0.5118110236220472,
          "duration": 0.20967699999999923
        },
        {
          "name": "B4",
          "midi": 71,
          "time": 67.35470400000001,
          "velocity": 0.5118110236220472,
          "duration": 0.20967699999999923
        },
        {
          "name": "D2",
          "midi": 38,
          "time": 67.62889700000001,
          "velocity": 0.23622047244094488,
          "duration": 0.06451599999999758
        },
        {
          "name": "C4",
          "midi": 60,
          "time": 67.74180000000001,
          "velocity": 0.5905511811023622,
          "duration": 0.2580640000000045
        },
        {
          "name": "E4",
          "midi": 64,
          "time": 67.74180000000001,
          "velocity": 0.5905511811023622,
          "duration": 0.2580640000000045
        },
        {
          "name": "F#3",
          "midi": 54,
          "time": 67.74180000000001,
          "velocity": 0.5905511811023622,
          "duration": 0.2580640000000045
        },
        {
          "name": "B4",
          "midi": 71,
          "time": 67.74180000000001,
          "velocity": 0.5905511811023622,
          "duration": 0.2580640000000045
        },
        {
          "name": "F#3",
          "midi": 54,
          "time": 68.12889600000001,
          "velocity": 0.5511811023622047,
          "duration": 1.5483839999999987
        },
        {
          "name": "A4",
          "midi": 69,
          "time": 68.12889600000001,
          "velocity": 0.5511811023622047,
          "duration": 1.5483839999999987
        },
        {
          "name": "B3",
          "midi": 59,
          "time": 68.12889600000001,
          "velocity": 0.5511811023622047,
          "duration": 1.5483839999999987
        },
        {
          "name": "D4",
          "midi": 62,
          "time": 68.12889600000001,
          "velocity": 0.5511811023622047,
          "duration": 1.5483839999999987
        },
        {
          "name": "B3",
          "midi": 59,
          "time": 69.67728000000001,
          "velocity": 0.5511811023622047,
          "duration": 1.5483839999999987
        },
        {
          "name": "D4",
          "midi": 62,
          "time": 69.67728000000001,
          "velocity": 0.5511811023622047,
          "duration": 1.5483839999999987
        },
        {
          "name": "E3",
          "midi": 52,
          "time": 69.67728000000001,
          "velocity": 0.5511811023622047,
          "duration": 1.5483839999999987
        },
        {
          "name": "G4",
          "midi": 67,
          "time": 69.67728000000001,
          "velocity": 0.5511811023622047,
          "duration": 1.5483839999999987
        },
        {
          "name": "E3",
          "midi": 52,
          "time": 71.22566400000001,
          "velocity": 0.5511811023622047,
          "duration": 1.5483839999999987
        },
        {
          "name": "F#4",
          "midi": 66,
          "time": 71.22566400000001,
          "velocity": 0.5511811023622047,
          "duration": 1.5483839999999987
        },
        {
          "name": "A3",
          "midi": 57,
          "time": 71.22566400000001,
          "velocity": 0.5511811023622047,
          "duration": 1.5483839999999987
        },
        {
          "name": "C4",
          "midi": 60,
          "time": 71.22566400000001,
          "velocity": 0.5511811023622047,
          "duration": 1.5483839999999987
        },
        {
          "name": "A3",
          "midi": 57,
          "time": 72.77404800000001,
          "velocity": 0.5354330708661418,
          "duration": 0.677418000000003
        },
        {
          "name": "C5",
          "midi": 72,
          "time": 72.77404800000001,
          "velocity": 0.5354330708661418,
          "duration": 0.677418000000003
        },
        {
          "name": "D#4",
          "midi": 63,
          "time": 72.77404800000001,
          "velocity": 0.5354330708661418,
          "duration": 0.677418000000003
        },
        {
          "name": "G4",
          "midi": 67,
          "time": 72.77404800000001,
          "velocity": 0.5354330708661418,
          "duration": 0.677418000000003
        },
        {
          "name": "A3",
          "midi": 57,
          "time": 73.54824,
          "velocity": 0.5511811023622047,
          "duration": 0.3225800000000021
        },
        {
          "name": "C5",
          "midi": 72,
          "time": 73.54824,
          "velocity": 0.5511811023622047,
          "duration": 0.3225800000000021
        },
        {
          "name": "D#4",
          "midi": 63,
          "time": 73.54824,
          "velocity": 0.5511811023622047,
          "duration": 0.3225800000000021
        },
        {
          "name": "G4",
          "midi": 67,
          "time": 73.54824,
          "velocity": 0.5511811023622047,
          "duration": 0.3225800000000021
        },
        {
          "name": "E4",
          "midi": 64,
          "time": 74.19340000000001,
          "velocity": 0.5511811023622047,
          "duration": 0.09677399999999636
        },
        {
          "name": "G3",
          "midi": 55,
          "time": 74.19340000000001,
          "velocity": 0.5511811023622047,
          "duration": 0.09677399999999636
        },
        {
          "name": "B4",
          "midi": 71,
          "time": 74.19340000000001,
          "velocity": 0.5511811023622047,
          "duration": 0.09677399999999636
        },
        {
          "name": "E4",
          "midi": 64,
          "time": 75.757913,
          "velocity": 0.5905511811023622,
          "duration": 0.09677399999999636
        },
        {
          "name": "G3",
          "midi": 55,
          "time": 75.757913,
          "velocity": 0.5905511811023622,
          "duration": 0.09677399999999636
        },
        {
          "name": "B4",
          "midi": 71,
          "time": 75.757913,
          "velocity": 0.5905511811023622,
          "duration": 0.09677399999999636
        },
        {
          "name": "G3",
          "midi": 55,
          "time": 76.90307200000001,
          "velocity": 0.5511811023622047,
          "duration": 0.09677399999999636
        },
        {
          "name": "E4",
          "midi": 64,
          "time": 77.032104,
          "velocity": 0.5511811023622047,
          "duration": 0.09677399999999636
        },
        {
          "name": "E4",
          "midi": 64,
          "time": 77.161136,
          "velocity": 0.5511811023622047,
          "duration": 0.09677399999999636
        },
        {
          "name": "B4",
          "midi": 71,
          "time": 77.290168,
          "velocity": 0.5511811023622047,
          "duration": 0.09677399999999636
        },
        {
          "name": "E4",
          "midi": 64,
          "time": 77.41919999999999,
          "velocity": 0.5511811023622047,
          "duration": 1.5483839999999987
        },
        {
          "name": "F#4",
          "midi": 66,
          "time": 77.41919999999999,
          "velocity": 0.5511811023622047,
          "duration": 1.5483839999999987
        },
        {
          "name": "A3",
          "midi": 57,
          "time": 77.41919999999999,
          "velocity": 0.5511811023622047,
          "duration": 1.5483839999999987
        },
        {
          "name": "C4",
          "midi": 60,
          "time": 77.41919999999999,
          "velocity": 0.5511811023622047,
          "duration": 1.5483839999999987
        },
        {
          "name": "A3",
          "midi": 57,
          "time": 78.96758399999999,
          "velocity": 0.5354330708661418,
          "duration": 0.677418000000003
        },
        {
          "name": "C5",
          "midi": 72,
          "time": 78.96758399999999,
          "velocity": 0.5354330708661418,
          "duration": 0.677418000000003
        },
        {
          "name": "D#4",
          "midi": 63,
          "time": 78.96758399999999,
          "velocity": 0.5354330708661418,
          "duration": 0.677418000000003
        },
        {
          "name": "G4",
          "midi": 67,
          "time": 78.96758399999999,
          "velocity": 0.5354330708661418,
          "duration": 0.677418000000003
        },
        {
          "name": "A3",
          "midi": 57,
          "time": 79.74177599999999,
          "velocity": 0.5511811023622047,
          "duration": 0.3225800000000021
        },
        {
          "name": "C4",
          "midi": 60,
          "time": 79.74177599999999,
          "velocity": 0.5511811023622047,
          "duration": 0.3225800000000021
        },
        {
          "name": "D#4",
          "midi": 63,
          "time": 79.74177599999999,
          "velocity": 0.5511811023622047,
          "duration": 0.3225800000000021
        },
        {
          "name": "G4",
          "midi": 67,
          "time": 79.74177599999999,
          "velocity": 0.5511811023622047,
          "duration": 0.3225800000000021
        },
        {
          "name": "D4",
          "midi": 62,
          "time": 80.38693599999999,
          "velocity": 0.5511811023622047,
          "duration": 0.09677399999999636
        },
        {
          "name": "E4",
          "midi": 64,
          "time": 80.38693599999999,
          "velocity": 0.5511811023622047,
          "duration": 0.09677399999999636
        },
        {
          "name": "G3",
          "midi": 55,
          "time": 80.38693599999999,
          "velocity": 0.5511811023622047,
          "duration": 0.09677399999999636
        },
        {
          "name": "B3",
          "midi": 59,
          "time": 80.38693599999999,
          "velocity": 0.5511811023622047,
          "duration": 0.09677399999999636
        },
        {
          "name": "D4",
          "midi": 62,
          "time": 81.95144899999998,
          "velocity": 0.5905511811023622,
          "duration": 0.09677399999999636
        },
        {
          "name": "E4",
          "midi": 64,
          "time": 81.95144899999998,
          "velocity": 0.5905511811023622,
          "duration": 0.09677399999999636
        },
        {
          "name": "G3",
          "midi": 55,
          "time": 81.95144899999998,
          "velocity": 0.5905511811023622,
          "duration": 0.09677399999999636
        },
        {
          "name": "B3",
          "midi": 59,
          "time": 81.95144899999998,
          "velocity": 0.5905511811023622,
          "duration": 0.09677399999999636
        },
        {
          "name": "G3",
          "midi": 55,
          "time": 83.09660799999999,
          "velocity": 0.5511811023622047,
          "duration": 0.09677399999999636
        },
        {
          "name": "D4",
          "midi": 62,
          "time": 83.22563999999998,
          "velocity": 0.5511811023622047,
          "duration": 0.09677399999999636
        },
        {
          "name": "E4",
          "midi": 64,
          "time": 83.35467199999998,
          "velocity": 0.5511811023622047,
          "duration": 0.09677399999999636
        },
        {
          "name": "B3",
          "midi": 59,
          "time": 83.48370399999997,
          "velocity": 0.5511811023622047,
          "duration": 0.09677399999999636
        },
        {
          "name": "A2",
          "midi": 45,
          "time": 84.27402499999997,
          "velocity": 0.3937007874015748,
          "duration": 0.09677399999999636
        },
        {
          "name": "G3",
          "midi": 55,
          "time": 84.38692799999997,
          "velocity": 0.5118110236220472,
          "duration": 0.20967699999999923
        },
        {
          "name": "A3",
          "midi": 57,
          "time": 84.38692799999997,
          "velocity": 0.5118110236220472,
          "duration": 0.20967699999999923
        },
        {
          "name": "C4",
          "midi": 60,
          "time": 84.38692799999997,
          "velocity": 0.5118110236220472,
          "duration": 0.20967699999999923
        },
        {
          "name": "E4",
          "midi": 64,
          "time": 84.38692799999997,
          "velocity": 0.5118110236220472,
          "duration": 0.20967699999999923
        },
        {
          "name": "G3",
          "midi": 55,
          "time": 84.77402399999997,
          "velocity": 0.5905511811023622,
          "duration": 0.2580640000000045
        },
        {
          "name": "A3",
          "midi": 57,
          "time": 84.77402399999997,
          "velocity": 0.5905511811023622,
          "duration": 0.2580640000000045
        },
        {
          "name": "C4",
          "midi": 60,
          "time": 84.77402399999997,
          "velocity": 0.5905511811023622,
          "duration": 0.2580640000000045
        },
        {
          "name": "E4",
          "midi": 64,
          "time": 84.77402399999997,
          "velocity": 0.5905511811023622,
          "duration": 0.2580640000000045
        },
        {
          "name": "D2",
          "midi": 38,
          "time": 85.82240899999998,
          "velocity": 0.3937007874015748,
          "duration": 0.09677399999999636
        },
        {
          "name": "C4",
          "midi": 60,
          "time": 85.93531199999998,
          "velocity": 0.5118110236220472,
          "duration": 0.20967699999999923
        },
        {
          "name": "E4",
          "midi": 64,
          "time": 85.93531199999998,
          "velocity": 0.5118110236220472,
          "duration": 0.20967699999999923
        },
        {
          "name": "F#3",
          "midi": 54,
          "time": 85.93531199999998,
          "velocity": 0.5118110236220472,
          "duration": 0.20967699999999923
        },
        {
          "name": "B4",
          "midi": 71,
          "time": 85.93531199999998,
          "velocity": 0.5118110236220472,
          "duration": 0.20967699999999923
        },
        {
          "name": "D2",
          "midi": 38,
          "time": 86.20950499999998,
          "velocity": 0.23622047244094488,
          "duration": 0.06451599999999758
        },
        {
          "name": "C4",
          "midi": 60,
          "time": 86.32240799999998,
          "velocity": 0.5905511811023622,
          "duration": 0.2580640000000045
        },
        {
          "name": "E4",
          "midi": 64,
          "time": 86.32240799999998,
          "velocity": 0.5905511811023622,
          "duration": 0.2580640000000045
        },
        {
          "name": "F#3",
          "midi": 54,
          "time": 86.32240799999998,
          "velocity": 0.5905511811023622,
          "duration": 0.2580640000000045
        },
        {
          "name": "B4",
          "midi": 71,
          "time": 86.32240799999998,
          "velocity": 0.5905511811023622,
          "duration": 0.2580640000000045
        },
        {
          "name": "F#3",
          "midi": 54,
          "time": 88.25788799999998,
          "velocity": 0.5511811023622047,
          "duration": 0.2580640000000045
        },
        {
          "name": "A4",
          "midi": 69,
          "time": 88.25788799999998,
          "velocity": 0.5511811023622047,
          "duration": 0.2580640000000045
        },
        {
          "name": "B3",
          "midi": 59,
          "time": 88.25788799999998,
          "velocity": 0.5511811023622047,
          "duration": 0.2580640000000045
        },
        {
          "name": "D4",
          "midi": 62,
          "time": 88.25788799999998,
          "velocity": 0.5511811023622047,
          "duration": 0.2580640000000045
        },
        {
          "name": "G3",
          "midi": 55,
          "time": 88.64498399999998,
          "velocity": 0.5511811023622047,
          "duration": 0.16128999999999394
        },
        {
          "name": "A#4",
          "midi": 70,
          "time": 88.64498399999998,
          "velocity": 0.5511811023622047,
          "duration": 0.16128999999999394
        },
        {
          "name": "C4",
          "midi": 60,
          "time": 88.64498399999998,
          "velocity": 0.5511811023622047,
          "duration": 0.16128999999999394
        },
        {
          "name": "D#4",
          "midi": 63,
          "time": 88.64498399999998,
          "velocity": 0.5511811023622047,
          "duration": 0.16128999999999394
        },
        {
          "name": "F#3",
          "midi": 54,
          "time": 88.91917699999998,
          "velocity": 0.5511811023622047,
          "duration": 0.09677399999999636
        },
        {
          "name": "A4",
          "midi": 69,
          "time": 88.91917699999998,
          "velocity": 0.5511811023622047,
          "duration": 0.09677399999999636
        },
        {
          "name": "B3",
          "midi": 59,
          "time": 88.91917699999998,
          "velocity": 0.5511811023622047,
          "duration": 0.09677399999999636
        },
        {
          "name": "D4",
          "midi": 62,
          "time": 88.91917699999998,
          "velocity": 0.5511811023622047,
          "duration": 0.09677399999999636
        },
        {
          "name": "E3",
          "midi": 52,
          "time": 89.79014299999997,
          "velocity": 0.5511811023622047,
          "duration": 1.5483839999999987
        },
        {
          "name": "F#4",
          "midi": 66,
          "time": 89.79014299999997,
          "velocity": 0.5511811023622047,
          "duration": 1.5483839999999987
        },
        {
          "name": "A3",
          "midi": 57,
          "time": 89.79014299999997,
          "velocity": 0.5511811023622047,
          "duration": 1.5483839999999987
        },
        {
          "name": "C4",
          "midi": 60,
          "time": 89.79014299999997,
          "velocity": 0.5511811023622047,
          "duration": 1.5483839999999987
        },
        {
          "name": "A3",
          "midi": 57,
          "time": 91.33852699999997,
          "velocity": 0.5511811023622047,
          "duration": 1.5483839999999987
        },
        {
          "name": "C5",
          "midi": 72,
          "time": 91.33852699999997,
          "velocity": 0.5511811023622047,
          "duration": 1.5483839999999987
        },
        {
          "name": "D#4",
          "midi": 63,
          "time": 91.33852699999997,
          "velocity": 0.5511811023622047,
          "duration": 1.5483839999999987
        },
        {
          "name": "G4",
          "midi": 67,
          "time": 91.33852699999997,
          "velocity": 0.5511811023622047,
          "duration": 1.5483839999999987
        },
        {
          "name": "D4",
          "midi": 62,
          "time": 92.90303999999998,
          "velocity": 0.5511811023622047,
          "duration": 0.5806440000000066
        },
        {
          "name": "F#4",
          "midi": 66,
          "time": 92.90303999999998,
          "velocity": 0.5511811023622047,
          "duration": 0.5806440000000066
        },
        {
          "name": "G3",
          "midi": 55,
          "time": 92.90303999999998,
          "velocity": 0.5511811023622047,
          "duration": 0.5806440000000066
        },
        {
          "name": "B4",
          "midi": 71,
          "time": 92.90303999999998,
          "velocity": 0.5511811023622047,
          "duration": 0.5806440000000066
        },
        {
          "name": "C#4",
          "midi": 61,
          "time": 93.56432899999999,
          "velocity": 0.6614173228346457,
          "duration": 0.09677399999999636
        },
        {
          "name": "F4",
          "midi": 65,
          "time": 93.56432899999999,
          "velocity": 0.6614173228346457,
          "duration": 0.09677399999999636
        },
        {
          "name": "G3",
          "midi": 55,
          "time": 93.56432899999999,
          "velocity": 0.6614173228346457,
          "duration": 0.09677399999999636
        },
        {
          "name": "C5",
          "midi": 72,
          "time": 93.56432899999999,
          "velocity": 0.6614173228346457,
          "duration": 0.09677399999999636
        },
        {
          "name": "C4",
          "midi": 60,
          "time": 94.45142399999999,
          "velocity": 0.5511811023622047,
          "duration": 0.5806440000000066
        },
        {
          "name": "D4",
          "midi": 62,
          "time": 94.45142399999999,
          "velocity": 0.5511811023622047,
          "duration": 0.5806440000000066
        },
        {
          "name": "F3",
          "midi": 53,
          "time": 94.45142399999999,
          "velocity": 0.5511811023622047,
          "duration": 0.5806440000000066
        },
        {
          "name": "A4",
          "midi": 69,
          "time": 94.45142399999999,
          "velocity": 0.5511811023622047,
          "duration": 0.5806440000000066
        },
        {
          "name": "B3",
          "midi": 59,
          "time": 95.112713,
          "velocity": 0.6614173228346457,
          "duration": 0.09677399999999636
        },
        {
          "name": "D#4",
          "midi": 63,
          "time": 95.112713,
          "velocity": 0.6614173228346457,
          "duration": 0.09677399999999636
        },
        {
          "name": "F3",
          "midi": 53,
          "time": 95.112713,
          "velocity": 0.6614173228346457,
          "duration": 0.09677399999999636
        },
        {
          "name": "A#4",
          "midi": 70,
          "time": 95.112713,
          "velocity": 0.6614173228346457,
          "duration": 0.09677399999999636
        },
        {
          "name": "B3",
          "midi": 59,
          "time": 95.983679,
          "velocity": 0.5511811023622047,
          "duration": 1.5483839999999987
        },
        {
          "name": "D4",
          "midi": 62,
          "time": 95.983679,
          "velocity": 0.5511811023622047,
          "duration": 1.5483839999999987
        },
        {
          "name": "E3",
          "midi": 52,
          "time": 95.983679,
          "velocity": 0.5511811023622047,
          "duration": 1.5483839999999987
        },
        {
          "name": "G3",
          "midi": 55,
          "time": 95.983679,
          "velocity": 0.5511811023622047,
          "duration": 1.5483839999999987
        },
        {
          "name": "E3",
          "midi": 52,
          "time": 97.548192,
          "velocity": 0.5511811023622047,
          "duration": 0.5806440000000066
        },
        {
          "name": "F#4",
          "midi": 66,
          "time": 97.548192,
          "velocity": 0.5511811023622047,
          "duration": 0.5806440000000066
        },
        {
          "name": "A3",
          "midi": 57,
          "time": 97.548192,
          "velocity": 0.5511811023622047,
          "duration": 0.5806440000000066
        },
        {
          "name": "C4",
          "midi": 60,
          "time": 97.548192,
          "velocity": 0.5511811023622047,
          "duration": 0.5806440000000066
        },
        {
          "name": "A3",
          "midi": 57,
          "time": 98.20948100000001,
          "velocity": 0.6614173228346457,
          "duration": 0.09677399999999636
        },
        {
          "name": "C4",
          "midi": 60,
          "time": 98.20948100000001,
          "velocity": 0.6614173228346457,
          "duration": 0.09677399999999636
        },
        {
          "name": "D#4",
          "midi": 63,
          "time": 98.20948100000001,
          "velocity": 0.6614173228346457,
          "duration": 0.09677399999999636
        },
        {
          "name": "G4",
          "midi": 67,
          "time": 98.20948100000001,
          "velocity": 0.6614173228346457,
          "duration": 0.09677399999999636
        },
        {
          "name": "D4",
          "midi": 62,
          "time": 99.87076800000001,
          "velocity": 0.5511811023622047,
          "duration": 0.19354800000000694
        },
        {
          "name": "F#4",
          "midi": 66,
          "time": 99.87076800000001,
          "velocity": 0.5511811023622047,
          "duration": 0.19354800000000694
        },
        {
          "name": "G3",
          "midi": 55,
          "time": 99.87076800000001,
          "velocity": 0.5511811023622047,
          "duration": 0.19354800000000694
        },
        {
          "name": "B3",
          "midi": 59,
          "time": 99.87076800000001,
          "velocity": 0.5511811023622047,
          "duration": 0.19354800000000694
        },
        {
          "name": "D4",
          "midi": 62,
          "time": 100.14496100000002,
          "velocity": 0.5511811023622047,
          "duration": 0.22580600000000572
        },
        {
          "name": "F#4",
          "midi": 66,
          "time": 100.14496100000002,
          "velocity": 0.5511811023622047,
          "duration": 0.22580600000000572
        },
        {
          "name": "G3",
          "midi": 55,
          "time": 100.14496100000002,
          "velocity": 0.5511811023622047,
          "duration": 0.22580600000000572
        },
        {
          "name": "B3",
          "midi": 59,
          "time": 100.14496100000002,
          "velocity": 0.5511811023622047,
          "duration": 0.22580600000000572
        },
        {
          "name": "D4",
          "midi": 62,
          "time": 100.53205700000002,
          "velocity": 0.5511811023622047,
          "duration": 0.09677399999999636
        },
        {
          "name": "F#4",
          "midi": 66,
          "time": 100.53205700000002,
          "velocity": 0.5511811023622047,
          "duration": 0.09677399999999636
        },
        {
          "name": "G3",
          "midi": 55,
          "time": 100.53205700000002,
          "velocity": 0.5511811023622047,
          "duration": 0.09677399999999636
        },
        {
          "name": "B3",
          "midi": 59,
          "time": 100.53205700000002,
          "velocity": 0.5511811023622047,
          "duration": 0.09677399999999636
        },
        {
          "name": "G3",
          "midi": 55,
          "time": 102.19334400000002,
          "velocity": 0.5511811023622047,
          "duration": 0.20967699999999923
        },
        {
          "name": "B4",
          "midi": 71,
          "time": 102.19334400000002,
          "velocity": 0.5511811023622047,
          "duration": 0.20967699999999923
        },
        {
          "name": "C4",
          "midi": 60,
          "time": 102.19334400000002,
          "velocity": 0.5511811023622047,
          "duration": 0.20967699999999923
        },
        {
          "name": "E4",
          "midi": 64,
          "time": 102.19334400000002,
          "velocity": 0.5511811023622047,
          "duration": 0.20967699999999923
        },
        {
          "name": "G3",
          "midi": 55,
          "time": 102.46753700000002,
          "velocity": 0.5511811023622047,
          "duration": 0.11290300000000286
        },
        {
          "name": "B4",
          "midi": 71,
          "time": 102.46753700000002,
          "velocity": 0.5511811023622047,
          "duration": 0.11290300000000286
        },
        {
          "name": "C4",
          "midi": 60,
          "time": 102.46753700000002,
          "velocity": 0.5511811023622047,
          "duration": 0.11290300000000286
        },
        {
          "name": "E4",
          "midi": 64,
          "time": 102.46753700000002,
          "velocity": 0.5511811023622047,
          "duration": 0.11290300000000286
        },
        {
          "name": "G3",
          "midi": 55,
          "time": 102.83850400000003,
          "velocity": 0.5511811023622047,
          "duration": 0.7419340000000005
        },
        {
          "name": "A3",
          "midi": 57,
          "time": 102.83850400000003,
          "velocity": 0.5511811023622047,
          "duration": 0.7419340000000005
        },
        {
          "name": "C4",
          "midi": 60,
          "time": 102.83850400000003,
          "velocity": 0.5511811023622047,
          "duration": 0.7419340000000005
        },
        {
          "name": "E4",
          "midi": 64,
          "time": 102.83850400000003,
          "velocity": 0.5511811023622047,
          "duration": 0.7419340000000005
        },
        {
          "name": "C4",
          "midi": 60,
          "time": 103.74172800000002,
          "velocity": 0.5511811023622047,
          "duration": 0.20967699999999923
        },
        {
          "name": "E4",
          "midi": 64,
          "time": 103.74172800000002,
          "velocity": 0.5511811023622047,
          "duration": 0.20967699999999923
        },
        {
          "name": "F#3",
          "midi": 54,
          "time": 103.74172800000002,
          "velocity": 0.5511811023622047,
          "duration": 0.20967699999999923
        },
        {
          "name": "A4",
          "midi": 69,
          "time": 103.74172800000002,
          "velocity": 0.5511811023622047,
          "duration": 0.20967699999999923
        },
        {
          "name": "C4",
          "midi": 60,
          "time": 104.01592100000002,
          "velocity": 0.5511811023622047,
          "duration": 0.11290300000000286
        },
        {
          "name": "E4",
          "midi": 64,
          "time": 104.01592100000002,
          "velocity": 0.5511811023622047,
          "duration": 0.11290300000000286
        },
        {
          "name": "F#3",
          "midi": 54,
          "time": 104.01592100000002,
          "velocity": 0.5511811023622047,
          "duration": 0.11290300000000286
        },
        {
          "name": "A4",
          "midi": 69,
          "time": 104.01592100000002,
          "velocity": 0.5511811023622047,
          "duration": 0.11290300000000286
        },
        {
          "name": "C4",
          "midi": 60,
          "time": 104.38688800000003,
          "velocity": 0.5511811023622047,
          "duration": 0.7419340000000005
        },
        {
          "name": "E4",
          "midi": 64,
          "time": 104.38688800000003,
          "velocity": 0.5511811023622047,
          "duration": 0.7419340000000005
        },
        {
          "name": "F#3",
          "midi": 54,
          "time": 104.38688800000003,
          "velocity": 0.5511811023622047,
          "duration": 0.7419340000000005
        },
        {
          "name": "B4",
          "midi": 71,
          "time": 104.38688800000003,
          "velocity": 0.5511811023622047,
          "duration": 0.7419340000000005
        },
        {
          "name": "F#3",
          "midi": 54,
          "time": 105.56430500000003,
          "velocity": 0.5905511811023622,
          "duration": 0.2580640000000045
        },
        {
          "name": "A4",
          "midi": 69,
          "time": 105.56430500000003,
          "velocity": 0.5905511811023622,
          "duration": 0.2580640000000045
        },
        {
          "name": "B3",
          "midi": 59,
          "time": 105.56430500000003,
          "velocity": 0.5905511811023622,
          "duration": 0.2580640000000045
        },
        {
          "name": "D4",
          "midi": 62,
          "time": 105.56430500000003,
          "velocity": 0.5905511811023622,
          "duration": 0.2580640000000045
        },
        {
          "name": "G2",
          "midi": 43,
          "time": 105.95140100000003,
          "velocity": 0.3464566929133858,
          "duration": 0.06451599999999758
        },
        {
          "name": "F#3",
          "midi": 54,
          "time": 106.06430400000004,
          "velocity": 0.5354330708661418,
          "duration": 0.677418000000003
        },
        {
          "name": "A4",
          "midi": 69,
          "time": 106.06430400000004,
          "velocity": 0.5354330708661418,
          "duration": 0.677418000000003
        },
        {
          "name": "B3",
          "midi": 59,
          "time": 106.06430400000004,
          "velocity": 0.5354330708661418,
          "duration": 0.677418000000003
        },
        {
          "name": "D4",
          "midi": 62,
          "time": 106.06430400000004,
          "velocity": 0.5354330708661418,
          "duration": 0.677418000000003
        },
        {
          "name": "B3",
          "midi": 59,
          "time": 106.83849600000003,
          "velocity": 0.5354330708661418,
          "duration": 0.677418000000003
        },
        {
          "name": "D4",
          "midi": 62,
          "time": 106.83849600000003,
          "velocity": 0.5354330708661418,
          "duration": 0.677418000000003
        },
        {
          "name": "E3",
          "midi": 52,
          "time": 106.83849600000003,
          "velocity": 0.5354330708661418,
          "duration": 0.677418000000003
        },
        {
          "name": "G4",
          "midi": 67,
          "time": 106.83849600000003,
          "velocity": 0.5354330708661418,
          "duration": 0.677418000000003
        },
        {
          "name": "B3",
          "midi": 59,
          "time": 107.61268800000003,
          "velocity": 0.5118110236220472,
          "duration": 0.20967699999999923
        },
        {
          "name": "D4",
          "midi": 62,
          "time": 107.61268800000003,
          "velocity": 0.5118110236220472,
          "duration": 0.20967699999999923
        },
        {
          "name": "E3",
          "midi": 52,
          "time": 107.61268800000003,
          "velocity": 0.5118110236220472,
          "duration": 0.20967699999999923
        },
        {
          "name": "G4",
          "midi": 67,
          "time": 107.61268800000003,
          "velocity": 0.5118110236220472,
          "duration": 0.20967699999999923
        },
        {
          "name": "C2",
          "midi": 36,
          "time": 107.88688100000003,
          "velocity": 0.23622047244094488,
          "duration": 0.06451599999999758
        },
        {
          "name": "B3",
          "midi": 59,
          "time": 107.99978400000003,
          "velocity": 0.5905511811023622,
          "duration": 0.2580640000000045
        },
        {
          "name": "D4",
          "midi": 62,
          "time": 107.99978400000003,
          "velocity": 0.5905511811023622,
          "duration": 0.2580640000000045
        },
        {
          "name": "E3",
          "midi": 52,
          "time": 107.99978400000003,
          "velocity": 0.5905511811023622,
          "duration": 0.2580640000000045
        },
        {
          "name": "G4",
          "midi": 67,
          "time": 107.99978400000003,
          "velocity": 0.5905511811023622,
          "duration": 0.2580640000000045
        },
        {
          "name": "E3",
          "midi": 52,
          "time": 108.38688000000003,
          "velocity": 0.5511811023622047,
          "duration": 0.20967699999999923
        },
        {
          "name": "F#4",
          "midi": 66,
          "time": 108.38688000000003,
          "velocity": 0.5511811023622047,
          "duration": 0.20967699999999923
        },
        {
          "name": "A3",
          "midi": 57,
          "time": 108.38688000000003,
          "velocity": 0.5511811023622047,
          "duration": 0.20967699999999923
        },
        {
          "name": "C4",
          "midi": 60,
          "time": 108.38688000000003,
          "velocity": 0.5511811023622047,
          "duration": 0.20967699999999923
        },
        {
          "name": "E3",
          "midi": 52,
          "time": 108.66107300000003,
          "velocity": 0.5511811023622047,
          "duration": 0.11290300000000286
        },
        {
          "name": "F#4",
          "midi": 66,
          "time": 108.66107300000003,
          "velocity": 0.5511811023622047,
          "duration": 0.11290300000000286
        },
        {
          "name": "A3",
          "midi": 57,
          "time": 108.66107300000003,
          "velocity": 0.5511811023622047,
          "duration": 0.11290300000000286
        },
        {
          "name": "C4",
          "midi": 60,
          "time": 108.66107300000003,
          "velocity": 0.5511811023622047,
          "duration": 0.11290300000000286
        },
        {
          "name": "E3",
          "midi": 52,
          "time": 109.03204000000004,
          "velocity": 0.5511811023622047,
          "duration": 0.7419340000000005
        },
        {
          "name": "F#4",
          "midi": 66,
          "time": 109.03204000000004,
          "velocity": 0.5511811023622047,
          "duration": 0.7419340000000005
        },
        {
          "name": "A3",
          "midi": 57,
          "time": 109.03204000000004,
          "velocity": 0.5511811023622047,
          "duration": 0.7419340000000005
        },
        {
          "name": "C4",
          "midi": 60,
          "time": 109.03204000000004,
          "velocity": 0.5511811023622047,
          "duration": 0.7419340000000005
        },
        {
          "name": "A3",
          "midi": 57,
          "time": 110.20945700000004,
          "velocity": 0.5905511811023622,
          "duration": 0.2580640000000045
        },
        {
          "name": "C5",
          "midi": 72,
          "time": 110.20945700000004,
          "velocity": 0.5905511811023622,
          "duration": 0.2580640000000045
        },
        {
          "name": "D#4",
          "midi": 63,
          "time": 110.20945700000004,
          "velocity": 0.5905511811023622,
          "duration": 0.2580640000000045
        },
        {
          "name": "G4",
          "midi": 67,
          "time": 110.20945700000004,
          "velocity": 0.5905511811023622,
          "duration": 0.2580640000000045
        },
        {
          "name": "B2",
          "midi": 47,
          "time": 110.59655300000004,
          "velocity": 0.3464566929133858,
          "duration": 0.06451599999999758
        },
        {
          "name": "A3",
          "midi": 57,
          "time": 110.70945600000005,
          "velocity": 0.5354330708661418,
          "duration": 0.677418000000003
        },
        {
          "name": "D5",
          "midi": 74,
          "time": 110.70945600000005,
          "velocity": 0.5354330708661418,
          "duration": 0.677418000000003
        },
        {
          "name": "D#4",
          "midi": 63,
          "time": 110.70945600000005,
          "velocity": 0.5354330708661418,
          "duration": 0.677418000000003
        },
        {
          "name": "F#4",
          "midi": 66,
          "time": 110.70945600000005,
          "velocity": 0.5354330708661418,
          "duration": 0.677418000000003
        },
        {
          "name": "D4",
          "midi": 62,
          "time": 111.75784100000004,
          "velocity": 0.5905511811023622,
          "duration": 0.2580640000000045
        },
        {
          "name": "E4",
          "midi": 64,
          "time": 111.75784100000004,
          "velocity": 0.5905511811023622,
          "duration": 0.2580640000000045
        },
        {
          "name": "G3",
          "midi": 55,
          "time": 111.75784100000004,
          "velocity": 0.5905511811023622,
          "duration": 0.2580640000000045
        },
        {
          "name": "B4",
          "midi": 71,
          "time": 111.75784100000004,
          "velocity": 0.5905511811023622,
          "duration": 0.2580640000000045
        },
        {
          "name": "E2",
          "midi": 40,
          "time": 112.14493700000004,
          "velocity": 0.3464566929133858,
          "duration": 0.06451599999999758
        },
        {
          "name": "D4",
          "midi": 62,
          "time": 112.25784000000004,
          "velocity": 0.5354330708661418,
          "duration": 0.677418000000003
        },
        {
          "name": "F#4",
          "midi": 66,
          "time": 112.25784000000004,
          "velocity": 0.5354330708661418,
          "duration": 0.677418000000003
        },
        {
          "name": "G3",
          "midi": 55,
          "time": 112.25784000000004,
          "velocity": 0.5354330708661418,
          "duration": 0.677418000000003
        },
        {
          "name": "B4",
          "midi": 71,
          "time": 112.25784000000004,
          "velocity": 0.5354330708661418,
          "duration": 0.677418000000003
        },
        {
          "name": "D4",
          "midi": 62,
          "time": 113.03203200000004,
          "velocity": 0.5354330708661418,
          "duration": 0.677418000000003
        },
        {
          "name": "E4",
          "midi": 64,
          "time": 113.03203200000004,
          "velocity": 0.5354330708661418,
          "duration": 0.677418000000003
        },
        {
          "name": "G3",
          "midi": 55,
          "time": 113.03203200000004,
          "velocity": 0.5354330708661418,
          "duration": 0.677418000000003
        },
        {
          "name": "B4",
          "midi": 71,
          "time": 113.03203200000004,
          "velocity": 0.5354330708661418,
          "duration": 0.677418000000003
        },
        {
          "name": "D4",
          "midi": 62,
          "time": 113.80622400000004,
          "velocity": 0.5511811023622047,
          "duration": 0.19354800000000694
        },
        {
          "name": "F4",
          "midi": 65,
          "time": 113.80622400000004,
          "velocity": 0.5511811023622047,
          "duration": 0.19354800000000694
        },
        {
          "name": "G#3",
          "midi": 56,
          "time": 113.80622400000004,
          "velocity": 0.5511811023622047,
          "duration": 0.19354800000000694
        },
        {
          "name": "C5",
          "midi": 72,
          "time": 113.80622400000004,
          "velocity": 0.5511811023622047,
          "duration": 0.19354800000000694
        },
        {
          "name": "D4",
          "midi": 62,
          "time": 114.08041700000005,
          "velocity": 0.6299212598425197,
          "duration": 0.38709599999999966
        },
        {
          "name": "F4",
          "midi": 65,
          "time": 114.08041700000005,
          "velocity": 0.6299212598425197,
          "duration": 0.38709599999999966
        },
        {
          "name": "G#3",
          "midi": 56,
          "time": 114.08041700000005,
          "velocity": 0.6299212598425197,
          "duration": 0.38709599999999966
        },
        {
          "name": "C5",
          "midi": 72,
          "time": 114.08041700000005,
          "velocity": 0.6299212598425197,
          "duration": 0.38709599999999966
        },
        {
          "name": "G3",
          "midi": 55,
          "time": 114.58041600000006,
          "velocity": 0.5354330708661418,
          "duration": 0.677418000000003
        },
        {
          "name": "A4",
          "midi": 69,
          "time": 114.58041600000006,
          "velocity": 0.5354330708661418,
          "duration": 0.677418000000003
        },
        {
          "name": "C4",
          "midi": 60,
          "time": 114.58041600000006,
          "velocity": 0.5354330708661418,
          "duration": 0.677418000000003
        },
        {
          "name": "E4",
          "midi": 64,
          "time": 114.58041600000006,
          "velocity": 0.5354330708661418,
          "duration": 0.677418000000003
        },
        {
          "name": "G3",
          "midi": 55,
          "time": 115.35460800000006,
          "velocity": 0.5118110236220472,
          "duration": 0.20967699999999923
        },
        {
          "name": "B3",
          "midi": 59,
          "time": 115.35460800000006,
          "velocity": 0.5118110236220472,
          "duration": 0.20967699999999923
        },
        {
          "name": "C4",
          "midi": 60,
          "time": 115.35460800000006,
          "velocity": 0.5118110236220472,
          "duration": 0.20967699999999923
        },
        {
          "name": "E4",
          "midi": 64,
          "time": 115.35460800000006,
          "velocity": 0.5118110236220472,
          "duration": 0.20967699999999923
        },
        {
          "name": "A2",
          "midi": 45,
          "time": 115.62880100000005,
          "velocity": 0.23622047244094488,
          "duration": 0.06451599999999758
        },
        {
          "name": "G3",
          "midi": 55,
          "time": 115.74170400000006,
          "velocity": 0.5905511811023622,
          "duration": 0.2580640000000045
        },
        {
          "name": "B3",
          "midi": 59,
          "time": 115.74170400000006,
          "velocity": 0.5905511811023622,
          "duration": 0.2580640000000045
        },
        {
          "name": "C4",
          "midi": 60,
          "time": 115.74170400000006,
          "velocity": 0.5905511811023622,
          "duration": 0.2580640000000045
        },
        {
          "name": "E4",
          "midi": 64,
          "time": 115.74170400000006,
          "velocity": 0.5905511811023622,
          "duration": 0.2580640000000045
        },
        {
          "name": "C4",
          "midi": 60,
          "time": 116.12880000000006,
          "velocity": 0.5511811023622047,
          "duration": 0.20967699999999923
        },
        {
          "name": "E4",
          "midi": 64,
          "time": 116.12880000000006,
          "velocity": 0.5511811023622047,
          "duration": 0.20967699999999923
        },
        {
          "name": "F#3",
          "midi": 54,
          "time": 116.12880000000006,
          "velocity": 0.5511811023622047,
          "duration": 0.20967699999999923
        },
        {
          "name": "A4",
          "midi": 69,
          "time": 116.12880000000006,
          "velocity": 0.5511811023622047,
          "duration": 0.20967699999999923
        },
        {
          "name": "C4",
          "midi": 60,
          "time": 116.40299300000005,
          "velocity": 0.5511811023622047,
          "duration": 0.11290300000000286
        },
        {
          "name": "E4",
          "midi": 64,
          "time": 116.40299300000005,
          "velocity": 0.5511811023622047,
          "duration": 0.11290300000000286
        },
        {
          "name": "F#3",
          "midi": 54,
          "time": 116.40299300000005,
          "velocity": 0.5511811023622047,
          "duration": 0.11290300000000286
        },
        {
          "name": "A4",
          "midi": 69,
          "time": 116.40299300000005,
          "velocity": 0.5511811023622047,
          "duration": 0.11290300000000286
        },
        {
          "name": "C4",
          "midi": 60,
          "time": 116.77396000000006,
          "velocity": 0.5511811023622047,
          "duration": 0.7419340000000005
        },
        {
          "name": "E4",
          "midi": 64,
          "time": 116.77396000000006,
          "velocity": 0.5511811023622047,
          "duration": 0.7419340000000005
        },
        {
          "name": "F#3",
          "midi": 54,
          "time": 116.77396000000006,
          "velocity": 0.5511811023622047,
          "duration": 0.7419340000000005
        },
        {
          "name": "A4",
          "midi": 69,
          "time": 116.77396000000006,
          "velocity": 0.5511811023622047,
          "duration": 0.7419340000000005
        },
        {
          "name": "F#3",
          "midi": 54,
          "time": 117.67718400000005,
          "velocity": 0.5511811023622047,
          "duration": 1.5483839999999987
        },
        {
          "name": "A3",
          "midi": 57,
          "time": 117.67718400000005,
          "velocity": 0.5511811023622047,
          "duration": 1.5483839999999987
        },
        {
          "name": "B3",
          "midi": 59,
          "time": 117.67718400000005,
          "velocity": 0.5511811023622047,
          "duration": 1.5483839999999987
        },
        {
          "name": "D4",
          "midi": 62,
          "time": 117.67718400000005,
          "velocity": 0.5511811023622047,
          "duration": 1.5483839999999987
        },
        {
          "name": "B3",
          "midi": 59,
          "time": 119.22556800000005,
          "velocity": 0.5511811023622047,
          "duration": 0.20967699999999923
        },
        {
          "name": "D4",
          "midi": 62,
          "time": 119.22556800000005,
          "velocity": 0.5511811023622047,
          "duration": 0.20967699999999923
        },
        {
          "name": "E3",
          "midi": 52,
          "time": 119.22556800000005,
          "velocity": 0.5511811023622047,
          "duration": 0.20967699999999923
        },
        {
          "name": "G4",
          "midi": 67,
          "time": 119.22556800000005,
          "velocity": 0.5511811023622047,
          "duration": 0.20967699999999923
        },
        {
          "name": "B3",
          "midi": 59,
          "time": 119.49976100000005,
          "velocity": 0.5511811023622047,
          "duration": 0.11290300000000286
        },
        {
          "name": "D4",
          "midi": 62,
          "time": 119.49976100000005,
          "velocity": 0.5511811023622047,
          "duration": 0.11290300000000286
        },
        {
          "name": "E3",
          "midi": 52,
          "time": 119.49976100000005,
          "velocity": 0.5511811023622047,
          "duration": 0.11290300000000286
        },
        {
          "name": "G4",
          "midi": 67,
          "time": 119.49976100000005,
          "velocity": 0.5511811023622047,
          "duration": 0.11290300000000286
        },
        {
          "name": "B3",
          "midi": 59,
          "time": 119.87072800000006,
          "velocity": 0.5511811023622047,
          "duration": 0.7419340000000005
        },
        {
          "name": "D4",
          "midi": 62,
          "time": 119.87072800000006,
          "velocity": 0.5511811023622047,
          "duration": 0.7419340000000005
        },
        {
          "name": "E3",
          "midi": 52,
          "time": 119.87072800000006,
          "velocity": 0.5511811023622047,
          "duration": 0.7419340000000005
        },
        {
          "name": "G4",
          "midi": 67,
          "time": 119.87072800000006,
          "velocity": 0.5511811023622047,
          "duration": 0.7419340000000005
        },
        {
          "name": "E3",
          "midi": 52,
          "time": 120.77395200000005,
          "velocity": 0.5354330708661418,
          "duration": 0.677418000000003
        },
        {
          "name": "F#4",
          "midi": 66,
          "time": 120.77395200000005,
          "velocity": 0.5354330708661418,
          "duration": 0.677418000000003
        },
        {
          "name": "A3",
          "midi": 57,
          "time": 120.77395200000005,
          "velocity": 0.5354330708661418,
          "duration": 0.677418000000003
        },
        {
          "name": "C4",
          "midi": 60,
          "time": 120.77395200000005,
          "velocity": 0.5354330708661418,
          "duration": 0.677418000000003
        },
        {
          "name": "E3",
          "midi": 52,
          "time": 121.54814400000005,
          "velocity": 0.5118110236220472,
          "duration": 0.20967699999999923
        },
        {
          "name": "F#3",
          "midi": 54,
          "time": 121.54814400000005,
          "velocity": 0.5118110236220472,
          "duration": 0.20967699999999923
        },
        {
          "name": "A3",
          "midi": 57,
          "time": 121.54814400000005,
          "velocity": 0.5118110236220472,
          "duration": 0.20967699999999923
        },
        {
          "name": "C4",
          "midi": 60,
          "time": 121.54814400000005,
          "velocity": 0.5118110236220472,
          "duration": 0.20967699999999923
        },
        {
          "name": "E3",
          "midi": 52,
          "time": 121.93524000000005,
          "velocity": 0.5905511811023622,
          "duration": 0.2580640000000045
        },
        {
          "name": "F#3",
          "midi": 54,
          "time": 121.93524000000005,
          "velocity": 0.5905511811023622,
          "duration": 0.2580640000000045
        },
        {
          "name": "A3",
          "midi": 57,
          "time": 121.93524000000005,
          "velocity": 0.5905511811023622,
          "duration": 0.2580640000000045
        },
        {
          "name": "C4",
          "midi": 60,
          "time": 121.93524000000005,
          "velocity": 0.5905511811023622,
          "duration": 0.2580640000000045
        },
        {
          "name": "A3",
          "midi": 57,
          "time": 122.59652900000006,
          "velocity": 0.5905511811023622,
          "duration": 0.2580640000000045
        },
        {
          "name": "B3",
          "midi": 59,
          "time": 122.59652900000006,
          "velocity": 0.5905511811023622,
          "duration": 0.2580640000000045
        },
        {
          "name": "D#4",
          "midi": 63,
          "time": 122.59652900000006,
          "velocity": 0.5905511811023622,
          "duration": 0.2580640000000045
        },
        {
          "name": "F#4",
          "midi": 66,
          "time": 122.59652900000006,
          "velocity": 0.5905511811023622,
          "duration": 0.2580640000000045
        },
        {
          "name": "B2",
          "midi": 47,
          "time": 122.98362500000006,
          "velocity": 0.3464566929133858,
          "duration": 0.06451599999999758
        },
        {
          "name": "A3",
          "midi": 57,
          "time": 123.09652800000006,
          "velocity": 0.5354330708661418,
          "duration": 0.677418000000003
        },
        {
          "name": "C5",
          "midi": 72,
          "time": 123.09652800000006,
          "velocity": 0.5354330708661418,
          "duration": 0.677418000000003
        },
        {
          "name": "D#4",
          "midi": 63,
          "time": 123.09652800000006,
          "velocity": 0.5354330708661418,
          "duration": 0.677418000000003
        },
        {
          "name": "G4",
          "midi": 67,
          "time": 123.09652800000006,
          "velocity": 0.5354330708661418,
          "duration": 0.677418000000003
        },
        {
          "name": "E4",
          "midi": 64,
          "time": 123.87072000000006,
          "velocity": 0.5511811023622047,
          "duration": 0.20967699999999923
        },
        {
          "name": "G3",
          "midi": 55,
          "time": 123.87072000000006,
          "velocity": 0.5511811023622047,
          "duration": 0.20967699999999923
        },
        {
          "name": "B4",
          "midi": 71,
          "time": 123.87072000000006,
          "velocity": 0.5511811023622047,
          "duration": 0.20967699999999923
        },
        {
          "name": "E4",
          "midi": 64,
          "time": 124.14491300000006,
          "velocity": 0.5511811023622047,
          "duration": 0.11290300000000286
        },
        {
          "name": "G3",
          "midi": 55,
          "time": 124.14491300000006,
          "velocity": 0.5511811023622047,
          "duration": 0.11290300000000286
        },
        {
          "name": "B4",
          "midi": 71,
          "time": 124.14491300000006,
          "velocity": 0.5511811023622047,
          "duration": 0.11290300000000286
        },
        {
          "name": "E4",
          "midi": 64,
          "time": 124.51588000000007,
          "velocity": 0.5511811023622047,
          "duration": 0.7419340000000005
        },
        {
          "name": "G3",
          "midi": 55,
          "time": 124.51588000000007,
          "velocity": 0.5511811023622047,
          "duration": 0.7419340000000005
        },
        {
          "name": "B3",
          "midi": 59,
          "time": 124.51588000000007,
          "velocity": 0.5511811023622047,
          "duration": 0.7419340000000005
        },
        {
          "name": "E4",
          "midi": 64,
          "time": 125.69329700000007,
          "velocity": 0.5905511811023622,
          "duration": 0.2580640000000045
        },
        {
          "name": "G3",
          "midi": 55,
          "time": 125.69329700000007,
          "velocity": 0.5905511811023622,
          "duration": 0.2580640000000045
        },
        {
          "name": "B4",
          "midi": 71,
          "time": 125.69329700000007,
          "velocity": 0.5905511811023622,
          "duration": 0.2580640000000045
        },
        {
          "name": "E2",
          "midi": 40,
          "time": 126.08039300000007,
          "velocity": 0.3464566929133858,
          "duration": 0.06451599999999758
        },
        {
          "name": "E4",
          "midi": 64,
          "time": 126.19329600000007,
          "velocity": 0.5354330708661418,
          "duration": 0.677418000000003
        },
        {
          "name": "G3",
          "midi": 55,
          "time": 126.19329600000007,
          "velocity": 0.5354330708661418,
          "duration": 0.677418000000003
        },
        {
          "name": "B4",
          "midi": 71,
          "time": 126.19329600000007,
          "velocity": 0.5354330708661418,
          "duration": 0.677418000000003
        },
        {
          "name": "E3",
          "midi": 52,
          "time": 126.96748800000007,
          "velocity": 0.5511811023622047,
          "duration": 1.5483840000000129
        },
        {
          "name": "F#4",
          "midi": 66,
          "time": 126.96748800000007,
          "velocity": 0.5511811023622047,
          "duration": 1.5483840000000129
        },
        {
          "name": "A3",
          "midi": 57,
          "time": 126.96748800000007,
          "velocity": 0.5511811023622047,
          "duration": 1.5483840000000129
        },
        {
          "name": "C4",
          "midi": 60,
          "time": 126.96748800000007,
          "velocity": 0.5511811023622047,
          "duration": 1.5483840000000129
        },
        {
          "name": "B2",
          "midi": 47,
          "time": 129.1771610000001,
          "velocity": 0.3937007874015748,
          "duration": 0.09677400000001057
        },
        {
          "name": "A3",
          "midi": 57,
          "time": 129.29006400000011,
          "velocity": 0.5118110236220472,
          "duration": 0.20967699999999923
        },
        {
          "name": "C5",
          "midi": 72,
          "time": 129.29006400000011,
          "velocity": 0.5118110236220472,
          "duration": 0.20967699999999923
        },
        {
          "name": "D#4",
          "midi": 63,
          "time": 129.29006400000011,
          "velocity": 0.5118110236220472,
          "duration": 0.20967699999999923
        },
        {
          "name": "G4",
          "midi": 67,
          "time": 129.29006400000011,
          "velocity": 0.5118110236220472,
          "duration": 0.20967699999999923
        },
        {
          "name": "B2",
          "midi": 47,
          "time": 129.5642570000001,
          "velocity": 0.23622047244094488,
          "duration": 0.06451599999999758
        },
        {
          "name": "A3",
          "midi": 57,
          "time": 129.6771600000001,
          "velocity": 0.5905511811023622,
          "duration": 0.2580639999999903
        },
        {
          "name": "C5",
          "midi": 72,
          "time": 129.6771600000001,
          "velocity": 0.5905511811023622,
          "duration": 0.2580639999999903
        },
        {
          "name": "D#4",
          "midi": 63,
          "time": 129.6771600000001,
          "velocity": 0.5905511811023622,
          "duration": 0.2580639999999903
        },
        {
          "name": "G4",
          "midi": 67,
          "time": 129.6771600000001,
          "velocity": 0.5905511811023622,
          "duration": 0.2580639999999903
        },
        {
          "name": "D4",
          "midi": 62,
          "time": 130.83844800000008,
          "velocity": 0.5511811023622047,
          "duration": 0.19354799999999273
        },
        {
          "name": "E4",
          "midi": 64,
          "time": 130.83844800000008,
          "velocity": 0.5511811023622047,
          "duration": 0.19354799999999273
        },
        {
          "name": "G3",
          "midi": 55,
          "time": 130.83844800000008,
          "velocity": 0.5511811023622047,
          "duration": 0.19354799999999273
        },
        {
          "name": "B4",
          "midi": 71,
          "time": 130.83844800000008,
          "velocity": 0.5511811023622047,
          "duration": 0.19354799999999273
        },
        {
          "name": "D4",
          "midi": 62,
          "time": 131.11264100000008,
          "velocity": 0.5511811023622047,
          "duration": 0.22580600000000572
        },
        {
          "name": "E4",
          "midi": 64,
          "time": 131.11264100000008,
          "velocity": 0.5511811023622047,
          "duration": 0.22580600000000572
        },
        {
          "name": "G3",
          "midi": 55,
          "time": 131.11264100000008,
          "velocity": 0.5511811023622047,
          "duration": 0.22580600000000572
        },
        {
          "name": "B4",
          "midi": 71,
          "time": 131.11264100000008,
          "velocity": 0.5511811023622047,
          "duration": 0.22580600000000572
        },
        {
          "name": "D4",
          "midi": 62,
          "time": 131.4997370000001,
          "velocity": 0.5511811023622047,
          "duration": 0.09677400000001057
        },
        {
          "name": "E4",
          "midi": 64,
          "time": 131.4997370000001,
          "velocity": 0.5511811023622047,
          "duration": 0.09677400000001057
        },
        {
          "name": "G3",
          "midi": 55,
          "time": 131.4997370000001,
          "velocity": 0.5511811023622047,
          "duration": 0.09677400000001057
        },
        {
          "name": "B4",
          "midi": 71,
          "time": 131.4997370000001,
          "velocity": 0.5511811023622047,
          "duration": 0.09677400000001057
        },
        {
          "name": "G3",
          "midi": 55,
          "time": 133.1610240000001,
          "velocity": 0.5511811023622047,
          "duration": 1.5483839999999987
        },
        {
          "name": "A4",
          "midi": 69,
          "time": 133.1610240000001,
          "velocity": 0.5511811023622047,
          "duration": 1.5483839999999987
        },
        {
          "name": "C4",
          "midi": 60,
          "time": 133.1610240000001,
          "velocity": 0.5511811023622047,
          "duration": 1.5483839999999987
        },
        {
          "name": "E4",
          "midi": 64,
          "time": 133.1610240000001,
          "velocity": 0.5511811023622047,
          "duration": 1.5483839999999987
        },
        {
          "name": "C4",
          "midi": 60,
          "time": 134.7094080000001,
          "velocity": 0.5511811023622047,
          "duration": 1.5483839999999987
        },
        {
          "name": "E4",
          "midi": 64,
          "time": 134.7094080000001,
          "velocity": 0.5511811023622047,
          "duration": 1.5483839999999987
        },
        {
          "name": "F#3",
          "midi": 54,
          "time": 134.7094080000001,
          "velocity": 0.5511811023622047,
          "duration": 1.5483839999999987
        },
        {
          "name": "B4",
          "midi": 71,
          "time": 134.7094080000001,
          "velocity": 0.5511811023622047,
          "duration": 1.5483839999999987
        },
        {
          "name": "F#3",
          "midi": 54,
          "time": 137.8061760000001,
          "velocity": 0.5511811023622047,
          "duration": 0.2580639999999903
        },
        {
          "name": "A4",
          "midi": 69,
          "time": 137.8061760000001,
          "velocity": 0.5511811023622047,
          "duration": 0.2580639999999903
        },
        {
          "name": "B3",
          "midi": 59,
          "time": 137.8061760000001,
          "velocity": 0.5511811023622047,
          "duration": 0.2580639999999903
        },
        {
          "name": "D4",
          "midi": 62,
          "time": 137.8061760000001,
          "velocity": 0.5511811023622047,
          "duration": 0.2580639999999903
        },
        {
          "name": "G3",
          "midi": 55,
          "time": 138.1932720000001,
          "velocity": 0.5511811023622047,
          "duration": 0.16129000000000815
        },
        {
          "name": "A#4",
          "midi": 70,
          "time": 138.1932720000001,
          "velocity": 0.5511811023622047,
          "duration": 0.16129000000000815
        },
        {
          "name": "C4",
          "midi": 60,
          "time": 138.1932720000001,
          "velocity": 0.5511811023622047,
          "duration": 0.16129000000000815
        },
        {
          "name": "D#4",
          "midi": 63,
          "time": 138.1932720000001,
          "velocity": 0.5511811023622047,
          "duration": 0.16129000000000815
        },
        {
          "name": "F#3",
          "midi": 54,
          "time": 138.4674650000001,
          "velocity": 0.5511811023622047,
          "duration": 0.09677400000001057
        },
        {
          "name": "A4",
          "midi": 69,
          "time": 138.4674650000001,
          "velocity": 0.5511811023622047,
          "duration": 0.09677400000001057
        },
        {
          "name": "B3",
          "midi": 59,
          "time": 138.4674650000001,
          "velocity": 0.5511811023622047,
          "duration": 0.09677400000001057
        },
        {
          "name": "D4",
          "midi": 62,
          "time": 138.4674650000001,
          "velocity": 0.5511811023622047,
          "duration": 0.09677400000001057
        },
        {
          "name": "E3",
          "midi": 52,
          "time": 139.3545600000001,
          "velocity": 0.5354330708661418,
          "duration": 0.6774179999999888
        },
        {
          "name": "F#3",
          "midi": 54,
          "time": 139.3545600000001,
          "velocity": 0.5354330708661418,
          "duration": 0.6774179999999888
        },
        {
          "name": "A3",
          "midi": 57,
          "time": 139.3545600000001,
          "velocity": 0.5354330708661418,
          "duration": 0.6774179999999888
        },
        {
          "name": "C4",
          "midi": 60,
          "time": 139.3545600000001,
          "velocity": 0.5354330708661418,
          "duration": 0.6774179999999888
        },
        {
          "name": "E3",
          "midi": 52,
          "time": 140.1287520000001,
          "velocity": 0.5118110236220472,
          "duration": 0.20967699999999923
        },
        {
          "name": "F#4",
          "midi": 66,
          "time": 140.1287520000001,
          "velocity": 0.5118110236220472,
          "duration": 0.20967699999999923
        },
        {
          "name": "A3",
          "midi": 57,
          "time": 140.1287520000001,
          "velocity": 0.5118110236220472,
          "duration": 0.20967699999999923
        },
        {
          "name": "C4",
          "midi": 60,
          "time": 140.1287520000001,
          "velocity": 0.5118110236220472,
          "duration": 0.20967699999999923
        },
        {
          "name": "E3",
          "midi": 52,
          "time": 140.5158480000001,
          "velocity": 0.5905511811023622,
          "duration": 0.2580639999999903
        },
        {
          "name": "F#4",
          "midi": 66,
          "time": 140.5158480000001,
          "velocity": 0.5905511811023622,
          "duration": 0.2580639999999903
        },
        {
          "name": "A3",
          "midi": 57,
          "time": 140.5158480000001,
          "velocity": 0.5905511811023622,
          "duration": 0.2580639999999903
        },
        {
          "name": "C4",
          "midi": 60,
          "time": 140.5158480000001,
          "velocity": 0.5905511811023622,
          "duration": 0.2580639999999903
        },
        {
          "name": "A3",
          "midi": 57,
          "time": 140.90294400000008,
          "velocity": 0.5511811023622047,
          "duration": 1.5483839999999987
        },
        {
          "name": "C4",
          "midi": 60,
          "time": 140.90294400000008,
          "velocity": 0.5511811023622047,
          "duration": 1.5483839999999987
        },
        {
          "name": "D#4",
          "midi": 63,
          "time": 140.90294400000008,
          "velocity": 0.5511811023622047,
          "duration": 1.5483839999999987
        },
        {
          "name": "G4",
          "midi": 67,
          "time": 140.90294400000008,
          "velocity": 0.5511811023622047,
          "duration": 1.5483839999999987
        },
        {
          "name": "D4",
          "midi": 62,
          "time": 142.45132800000007,
          "velocity": 0.5118110236220472,
          "duration": 0.20967699999999923
        },
        {
          "name": "F#4",
          "midi": 66,
          "time": 142.45132800000007,
          "velocity": 0.5118110236220472,
          "duration": 0.20967699999999923
        },
        {
          "name": "G3",
          "midi": 55,
          "time": 142.45132800000007,
          "velocity": 0.5118110236220472,
          "duration": 0.20967699999999923
        },
        {
          "name": "B3",
          "midi": 59,
          "time": 142.45132800000007,
          "velocity": 0.5118110236220472,
          "duration": 0.20967699999999923
        },
        {
          "name": "E2",
          "midi": 40,
          "time": 142.72552100000007,
          "velocity": 0.3937007874015748,
          "duration": 0.06451599999999758
        },
        {
          "name": "D4",
          "midi": 62,
          "time": 142.83842400000006,
          "velocity": 0.5905511811023622,
          "duration": 0.2580639999999903
        },
        {
          "name": "F#4",
          "midi": 66,
          "time": 142.83842400000006,
          "velocity": 0.5905511811023622,
          "duration": 0.2580639999999903
        },
        {
          "name": "G3",
          "midi": 55,
          "time": 142.83842400000006,
          "velocity": 0.5905511811023622,
          "duration": 0.2580639999999903
        },
        {
          "name": "B3",
          "midi": 59,
          "time": 142.83842400000006,
          "velocity": 0.5905511811023622,
          "duration": 0.2580639999999903
        },
        {
          "name": "C#4",
          "midi": 61,
          "time": 143.22552000000005,
          "velocity": 0.5118110236220472,
          "duration": 0.20967699999999923
        },
        {
          "name": "F4",
          "midi": 65,
          "time": 143.22552000000005,
          "velocity": 0.5118110236220472,
          "duration": 0.20967699999999923
        },
        {
          "name": "G3",
          "midi": 55,
          "time": 143.22552000000005,
          "velocity": 0.5118110236220472,
          "duration": 0.20967699999999923
        },
        {
          "name": "C4",
          "midi": 60,
          "time": 143.22552000000005,
          "velocity": 0.5118110236220472,
          "duration": 0.20967699999999923
        },
        {
          "name": "D#2",
          "midi": 39,
          "time": 143.49971300000004,
          "velocity": 0.23622047244094488,
          "duration": 0.06451599999999758
        },
        {
          "name": "C#4",
          "midi": 61,
          "time": 143.61261600000003,
          "velocity": 0.5905511811023622,
          "duration": 0.2580639999999903
        },
        {
          "name": "F4",
          "midi": 65,
          "time": 143.61261600000003,
          "velocity": 0.5905511811023622,
          "duration": 0.2580639999999903
        },
        {
          "name": "G3",
          "midi": 55,
          "time": 143.61261600000003,
          "velocity": 0.5905511811023622,
          "duration": 0.2580639999999903
        },
        {
          "name": "C4",
          "midi": 60,
          "time": 143.61261600000003,
          "velocity": 0.5905511811023622,
          "duration": 0.2580639999999903
        },
        {
          "name": "C4",
          "midi": 60,
          "time": 143.99971200000002,
          "velocity": 0.5354330708661418,
          "duration": 0.6774179999999888
        },
        {
          "name": "D4",
          "midi": 62,
          "time": 143.99971200000002,
          "velocity": 0.5354330708661418,
          "duration": 0.6774179999999888
        },
        {
          "name": "F3",
          "midi": 53,
          "time": 143.99971200000002,
          "velocity": 0.5354330708661418,
          "duration": 0.6774179999999888
        },
        {
          "name": "A3",
          "midi": 57,
          "time": 143.99971200000002,
          "velocity": 0.5354330708661418,
          "duration": 0.6774179999999888
        },
        {
          "name": "B3",
          "midi": 59,
          "time": 144.77390400000002,
          "velocity": 0.5511811023622047,
          "duration": 0.19354799999999273
        },
        {
          "name": "D#4",
          "midi": 63,
          "time": 144.77390400000002,
          "velocity": 0.5511811023622047,
          "duration": 0.19354799999999273
        },
        {
          "name": "F3",
          "midi": 53,
          "time": 144.77390400000002,
          "velocity": 0.5511811023622047,
          "duration": 0.19354799999999273
        },
        {
          "name": "A#4",
          "midi": 70,
          "time": 144.77390400000002,
          "velocity": 0.5511811023622047,
          "duration": 0.19354799999999273
        },
        {
          "name": "B3",
          "midi": 59,
          "time": 145.048097,
          "velocity": 0.6299212598425197,
          "duration": 0.3870960000000139
        },
        {
          "name": "D#4",
          "midi": 63,
          "time": 145.048097,
          "velocity": 0.6299212598425197,
          "duration": 0.3870960000000139
        },
        {
          "name": "F3",
          "midi": 53,
          "time": 145.048097,
          "velocity": 0.6299212598425197,
          "duration": 0.3870960000000139
        },
        {
          "name": "A#4",
          "midi": 70,
          "time": 145.048097,
          "velocity": 0.6299212598425197,
          "duration": 0.3870960000000139
        },
        {
          "name": "B3",
          "midi": 59,
          "time": 145.54809600000002,
          "velocity": 0.5511811023622047,
          "duration": 0.20967699999999923
        },
        {
          "name": "D4",
          "midi": 62,
          "time": 145.54809600000002,
          "velocity": 0.5511811023622047,
          "duration": 0.20967699999999923
        },
        {
          "name": "E3",
          "midi": 52,
          "time": 145.54809600000002,
          "velocity": 0.5511811023622047,
          "duration": 0.20967699999999923
        },
        {
          "name": "G4",
          "midi": 67,
          "time": 145.54809600000002,
          "velocity": 0.5511811023622047,
          "duration": 0.20967699999999923
        },
        {
          "name": "B3",
          "midi": 59,
          "time": 145.822289,
          "velocity": 0.5511811023622047,
          "duration": 0.11290299999998865
        },
        {
          "name": "D4",
          "midi": 62,
          "time": 145.822289,
          "velocity": 0.5511811023622047,
          "duration": 0.11290299999998865
        },
        {
          "name": "E3",
          "midi": 52,
          "time": 145.822289,
          "velocity": 0.5511811023622047,
          "duration": 0.11290299999998865
        },
        {
          "name": "G4",
          "midi": 67,
          "time": 145.822289,
          "velocity": 0.5511811023622047,
          "duration": 0.11290299999998865
        },
        {
          "name": "B3",
          "midi": 59,
          "time": 146.193256,
          "velocity": 0.5511811023622047,
          "duration": 0.7419339999999863
        },
        {
          "name": "D4",
          "midi": 62,
          "time": 146.193256,
          "velocity": 0.5511811023622047,
          "duration": 0.7419339999999863
        },
        {
          "name": "E3",
          "midi": 52,
          "time": 146.193256,
          "velocity": 0.5511811023622047,
          "duration": 0.7419339999999863
        },
        {
          "name": "G4",
          "midi": 67,
          "time": 146.193256,
          "velocity": 0.5511811023622047,
          "duration": 0.7419339999999863
        },
        {
          "name": "E3",
          "midi": 52,
          "time": 147.37067299999998,
          "velocity": 0.6299212598425197,
          "duration": 0.3870960000000139
        },
        {
          "name": "F#4",
          "midi": 66,
          "time": 147.37067299999998,
          "velocity": 0.6299212598425197,
          "duration": 0.3870960000000139
        },
        {
          "name": "A3",
          "midi": 57,
          "time": 147.37067299999998,
          "velocity": 0.6299212598425197,
          "duration": 0.3870960000000139
        },
        {
          "name": "C4",
          "midi": 60,
          "time": 147.37067299999998,
          "velocity": 0.6299212598425197,
          "duration": 0.3870960000000139
        },
        {
          "name": "A3",
          "midi": 57,
          "time": 147.87067199999998,
          "velocity": 0.5118110236220472,
          "duration": 0.20967699999999923
        },
        {
          "name": "D5",
          "midi": 74,
          "time": 147.87067199999998,
          "velocity": 0.5118110236220472,
          "duration": 0.20967699999999923
        },
        {
          "name": "D#4",
          "midi": 63,
          "time": 147.87067199999998,
          "velocity": 0.5118110236220472,
          "duration": 0.20967699999999923
        },
        {
          "name": "F#4",
          "midi": 66,
          "time": 147.87067199999998,
          "velocity": 0.5118110236220472,
          "duration": 0.20967699999999923
        },
        {
          "name": "B2",
          "midi": 47,
          "time": 148.14486499999998,
          "velocity": 0.23622047244094488,
          "duration": 0.06451599999999758
        },
        {
          "name": "A3",
          "midi": 57,
          "time": 148.25776799999997,
          "velocity": 0.5905511811023622,
          "duration": 0.2580639999999903
        },
        {
          "name": "D5",
          "midi": 74,
          "time": 148.25776799999997,
          "velocity": 0.5905511811023622,
          "duration": 0.2580639999999903
        },
        {
          "name": "D#4",
          "midi": 63,
          "time": 148.25776799999997,
          "velocity": 0.5905511811023622,
          "duration": 0.2580639999999903
        },
        {
          "name": "F#4",
          "midi": 66,
          "time": 148.25776799999997,
          "velocity": 0.5905511811023622,
          "duration": 0.2580639999999903
        },
        {
          "name": "D4",
          "midi": 62,
          "time": 148.64486399999996,
          "velocity": 0.5511811023622047,
          "duration": 0.20967699999999923
        },
        {
          "name": "F#4",
          "midi": 66,
          "time": 148.64486399999996,
          "velocity": 0.5511811023622047,
          "duration": 0.20967699999999923
        },
        {
          "name": "G3",
          "midi": 55,
          "time": 148.64486399999996,
          "velocity": 0.5511811023622047,
          "duration": 0.20967699999999923
        },
        {
          "name": "B4",
          "midi": 71,
          "time": 148.64486399999996,
          "velocity": 0.5511811023622047,
          "duration": 0.20967699999999923
        },
        {
          "name": "D4",
          "midi": 62,
          "time": 148.91905699999995,
          "velocity": 0.5511811023622047,
          "duration": 0.11290299999998865
        },
        {
          "name": "F#4",
          "midi": 66,
          "time": 148.91905699999995,
          "velocity": 0.5511811023622047,
          "duration": 0.11290299999998865
        },
        {
          "name": "G3",
          "midi": 55,
          "time": 148.91905699999995,
          "velocity": 0.5511811023622047,
          "duration": 0.11290299999998865
        },
        {
          "name": "B4",
          "midi": 71,
          "time": 148.91905699999995,
          "velocity": 0.5511811023622047,
          "duration": 0.11290299999998865
        },
        {
          "name": "D4",
          "midi": 62,
          "time": 149.29002399999993,
          "velocity": 0.5511811023622047,
          "duration": 0.7419339999999863
        },
        {
          "name": "E4",
          "midi": 64,
          "time": 149.29002399999993,
          "velocity": 0.5511811023622047,
          "duration": 0.7419339999999863
        },
        {
          "name": "G3",
          "midi": 55,
          "time": 149.29002399999993,
          "velocity": 0.5511811023622047,
          "duration": 0.7419339999999863
        },
        {
          "name": "B3",
          "midi": 59,
          "time": 149.29002399999993,
          "velocity": 0.5511811023622047,
          "duration": 0.7419339999999863
        },
        {
          "name": "D4",
          "midi": 62,
          "time": 150.19324799999993,
          "velocity": 0.5511811023622047,
          "duration": 0.20967699999999923
        },
        {
          "name": "F#4",
          "midi": 66,
          "time": 150.19324799999993,
          "velocity": 0.5511811023622047,
          "duration": 0.20967699999999923
        },
        {
          "name": "G3",
          "midi": 55,
          "time": 150.19324799999993,
          "velocity": 0.5511811023622047,
          "duration": 0.20967699999999923
        },
        {
          "name": "B4",
          "midi": 71,
          "time": 150.19324799999993,
          "velocity": 0.5511811023622047,
          "duration": 0.20967699999999923
        },
        {
          "name": "D4",
          "midi": 62,
          "time": 150.46744099999992,
          "velocity": 0.5511811023622047,
          "duration": 0.11290299999998865
        },
        {
          "name": "F#4",
          "midi": 66,
          "time": 150.46744099999992,
          "velocity": 0.5511811023622047,
          "duration": 0.11290299999998865
        },
        {
          "name": "G3",
          "midi": 55,
          "time": 150.46744099999992,
          "velocity": 0.5511811023622047,
          "duration": 0.11290299999998865
        },
        {
          "name": "B4",
          "midi": 71,
          "time": 150.46744099999992,
          "velocity": 0.5511811023622047,
          "duration": 0.11290299999998865
        },
        {
          "name": "D4",
          "midi": 62,
          "time": 150.8384079999999,
          "velocity": 0.5511811023622047,
          "duration": 0.7419339999999863
        },
        {
          "name": "F#4",
          "midi": 66,
          "time": 150.8384079999999,
          "velocity": 0.5511811023622047,
          "duration": 0.7419339999999863
        },
        {
          "name": "G3",
          "midi": 55,
          "time": 150.8384079999999,
          "velocity": 0.5511811023622047,
          "duration": 0.7419339999999863
        },
        {
          "name": "B4",
          "midi": 71,
          "time": 150.8384079999999,
          "velocity": 0.5511811023622047,
          "duration": 0.7419339999999863
        }
      ],
      "controlChanges": {
        "64": [
          {
            "number": 64,
            "time": 0,
            "value": 0
          },
          {
            "number": 64,
            "time": 27.09672,
            "value": 1
          },
          {
            "number": 64,
            "time": 27.870911999999997,
            "value": 0
          },
          {
            "number": 64,
            "time": 32.24187099999999,
            "value": 1
          },
          {
            "number": 64,
            "time": 33.67735199999999,
            "value": 0
          },
          {
            "number": 64,
            "time": 38.43540699999998,
            "value": 1
          },
          {
            "number": 64,
            "time": 39.87088799999998,
            "value": 0
          },
          {
            "number": 64,
            "time": 56.838595999999995,
            "value": 1
          },
          {
            "number": 64,
            "time": 57.967626,
            "value": 0
          },
          {
            "number": 64,
            "time": 61.483748000000006,
            "value": 1
          },
          {
            "number": 64,
            "time": 62.61277800000001,
            "value": 0
          },
          {
            "number": 64,
            "time": 64.06438800000001,
            "value": 0
          },
          {
            "number": 64,
            "time": 64.06438800000001,
            "value": 1
          },
          {
            "number": 64,
            "time": 65.01599900000001,
            "value": 0
          },
          {
            "number": 64,
            "time": 66.12890000000002,
            "value": 1
          },
          {
            "number": 64,
            "time": 67.25793000000002,
            "value": 0
          },
          {
            "number": 64,
            "time": 73.87082000000001,
            "value": 1
          },
          {
            "number": 64,
            "time": 75.48372,
            "value": 0
          },
          {
            "number": 64,
            "time": 75.757913,
            "value": 1
          },
          {
            "number": 64,
            "time": 76.645008,
            "value": 0
          },
          {
            "number": 64,
            "time": 76.90307200000001,
            "value": 0
          },
          {
            "number": 64,
            "time": 76.90307200000001,
            "value": 1
          },
          {
            "number": 64,
            "time": 77.41919999999999,
            "value": 0
          },
          {
            "number": 64,
            "time": 80.06435599999999,
            "value": 1
          },
          {
            "number": 64,
            "time": 81.67725599999999,
            "value": 0
          },
          {
            "number": 64,
            "time": 81.95144899999998,
            "value": 1
          },
          {
            "number": 64,
            "time": 82.83854399999998,
            "value": 0
          },
          {
            "number": 64,
            "time": 83.09660799999999,
            "value": 0
          },
          {
            "number": 64,
            "time": 83.09660799999999,
            "value": 1
          },
          {
            "number": 64,
            "time": 83.61273599999997,
            "value": 0
          },
          {
            "number": 64,
            "time": 88.80627399999997,
            "value": 1
          },
          {
            "number": 64,
            "time": 89.79014299999997,
            "value": 0
          },
          {
            "number": 64,
            "time": 93.48368399999998,
            "value": 0
          },
          {
            "number": 64,
            "time": 93.48368399999998,
            "value": 1
          },
          {
            "number": 64,
            "time": 94.43529499999998,
            "value": 0
          },
          {
            "number": 64,
            "time": 95.032068,
            "value": 0
          },
          {
            "number": 64,
            "time": 95.032068,
            "value": 1
          },
          {
            "number": 64,
            "time": 95.983679,
            "value": 0
          },
          {
            "number": 64,
            "time": 98.128836,
            "value": 0
          },
          {
            "number": 64,
            "time": 98.128836,
            "value": 1
          },
          {
            "number": 64,
            "time": 99.080447,
            "value": 0
          },
          {
            "number": 64,
            "time": 100.37076700000003,
            "value": 1
          },
          {
            "number": 64,
            "time": 101.80624800000002,
            "value": 0
          },
          {
            "number": 64,
            "time": 131.3384470000001,
            "value": 1
          },
          {
            "number": 64,
            "time": 132.7739280000001,
            "value": 0
          },
          {
            "number": 64,
            "time": 138.3545620000001,
            "value": 1
          },
          {
            "number": 64,
            "time": 139.3384310000001,
            "value": 0
          },
          {
            "number": 64,
            "time": 151.7416319999999,
            "value": 0
          }
        ]
      },
      "id": 3,
      "channelNumber": 2,
      "isPercussion": false
    }
  ]
}