{
  "notesLeft": [
    {
      "name": "G#2",
      "midi": 44,
      "time": 0,
      "velocity": 0.6220472440944882,
      "duration": 2.7303759999999997
    },
    {
      "name": "G#3",
      "midi": 56,
      "time": 0,
      "velocity": 0.6220472440944882,
      "duration": 2.7303759999999997
    },
    {
      "name": "C#2",
      "midi": 37,
      "time": 2.7303759999999997,
      "velocity": 0.5905511811023622,
      "duration": 0.11376566666666621
    },
    {
      "name": "C#3",
      "midi": 49,
      "time": 2.7303759999999997,
      "velocity": 0.5905511811023622,
      "duration": 0.11376566666666621
    },
    {
      "name": "G#3",
      "midi": 56,
      "time": 2.844141666666666,
      "velocity": 0.47244094488188976,
      "duration": 0.11376566666666665
    },
    {
      "name": "C#4",
      "midi": 61,
      "time": 2.9579073333333326,
      "velocity": 0.5039370078740157,
      "duration": 0.11376566666666665
    },
    {
      "name": "E4",
      "midi": 64,
      "time": 3.071672999999999,
      "velocity": 0.5118110236220472,
      "duration": 0.11376566666666665
    },
    {
      "name": "C#4",
      "midi": 61,
      "time": 3.185438666666666,
      "velocity": 0.4881889763779528,
      "duration": 0.11376566666666665
    },
    {
      "name": "G#3",
      "midi": 56,
      "time": 3.2992043333333325,
      "velocity": 0.48031496062992124,
      "duration": 0.11376566666666665
    },
    {
      "name": "C#3",
      "midi": 49,
      "time": 3.412969999999999,
      "velocity": 0.44881889763779526,
      "duration": 0.11376566666666665
    },
    {
      "name": "G#3",
      "midi": 56,
      "time": 3.526735666666666,
      "velocity": 0.4566929133858268,
      "duration": 0.11376566666666665
    },
    {
      "name": "C#4",
      "midi": 61,
      "time": 3.6405013333333325,
      "velocity": 0.47244094488188976,
      "duration": 0.11376566666666665
    },
    {
      "name": "E4",
      "midi": 64,
      "time": 3.754266999999999,
      "velocity": 0.47244094488188976,
      "duration": 0.11376566666666665
    },
    {
      "name": "C#4",
      "midi": 61,
      "time": 3.868032666666666,
      "velocity": 0.4566929133858268,
      "duration": 0.11376566666666665
    },
    {
      "name": "G#3",
      "midi": 56,
      "time": 3.9817983333333324,
      "velocity": 0.44881889763779526,
      "duration": 0.1137656666666671
    },
    {
      "name": "C#3",
      "midi": 49,
      "time": 4.0955639999999995,
      "velocity": 0.41732283464566927,
      "duration": 0.11376566666666665
    },
    {
      "name": "G#3",
      "midi": 56,
      "time": 4.209329666666666,
      "velocity": 0.4251968503937008,
      "duration": 0.11376566666666665
    },
    {
      "name": "C#4",
      "midi": 61,
      "time": 4.323095333333333,
      "velocity": 0.4330708661417323,
      "duration": 0.11376566666666665
    },
    {
      "name": "E4",
      "midi": 64,
      "time": 4.4368609999999995,
      "velocity": 0.4251968503937008,
      "duration": 0.11376566666666665
    },
    {
      "name": "C#4",
      "midi": 61,
      "time": 4.550626666666666,
      "velocity": 0.4094488188976378,
      "duration": 0.11376566666666665
    },
    {
      "name": "G#3",
      "midi": 56,
      "time": 4.664392333333333,
      "velocity": 0.3937007874015748,
      "duration": 0.11376566666666665
    },
    {
      "name": "C#3",
      "midi": 49,
      "time": 4.7781579999999995,
      "velocity": 0.3543307086614173,
      "duration": 0.11376566666666665
    },
    {
      "name": "G#3",
      "midi": 56,
      "time": 4.891923666666666,
      "velocity": 0.3700787401574803,
      "duration": 0.11376566666666665
    },
    {
      "name": "C#4",
      "midi": 61,
      "time": 5.005689333333333,
      "velocity": 0.3858267716535433,
      "duration": 0.11376566666666665
    },
    {
      "name": "E4",
      "midi": 64,
      "time": 5.119454999999999,
      "velocity": 0.36220472440944884,
      "duration": 0.11376566666666665
    },
    {
      "name": "C#4",
      "midi": 61,
      "time": 5.233220666666666,
      "velocity": 0.33858267716535434,
      "duration": 0.11376566666666665
    },
    {
      "name": "G#3",
      "midi": 56,
      "time": 5.346986333333333,
      "velocity": 0.2992125984251969,
      "duration": 0.11376566666666665
    },
    {
      "name": "C#3",
      "midi": 49,
      "time": 5.460751999999999,
      "velocity": 0.1732283464566929,
      "duration": 0.11376566666666665
    },
    {
      "name": "G#3",
      "midi": 56,
      "time": 5.574517666666666,
      "velocity": 0.1968503937007874,
      "duration": 0.11376566666666665
    },
    {
      "name": "C#4",
      "midi": 61,
      "time": 5.688283333333333,
      "velocity": 0.2204724409448819,
      "duration": 0.11376566666666665
    },
    {
      "name": "E4",
      "midi": 64,
      "time": 5.802048999999999,
      "velocity": 0.23622047244094488,
      "duration": 0.11376566666666665
    },
    {
      "name": "C#4",
      "midi": 61,
      "time": 5.915814666666666,
      "velocity": 0.2204724409448819,
      "duration": 0.11376566666666665
    },
    {
      "name": "G#3",
      "midi": 56,
      "time": 6.029580333333333,
      "velocity": 0.2125984251968504,
      "duration": 0.11376566666666665
    },
    {
      "name": "E3",
      "midi": 52,
      "time": 6.143345999999999,
      "velocity": 0.2047244094488189,
      "duration": 0.11376566666666665
    },
    {
      "name": "G#3",
      "midi": 56,
      "time": 6.257111666666666,
      "velocity": 0.2204724409448819,
      "duration": 0.11376566666666665
    },
    {
      "name": "C#4",
      "midi": 61,
      "time": 6.370877333333333,
      "velocity": 0.23622047244094488,
      "duration": 0.11376566666666665
    },
    {
      "name": "E4",
      "midi": 64,
      "time": 6.484642999999999,
      "velocity": 0.2440944881889764,
      "duration": 0.11376566666666665
    },
    {
      "name": "C#4",
      "midi": 61,
      "time": 6.598408666666666,
      "velocity": 0.2204724409448819,
      "duration": 0.11376566666666665
    },
    {
      "name": "G#3",
      "midi": 56,
      "time": 6.712174333333333,
      "velocity": 0.2125984251968504,
      "duration": 0.11376566666666665
    },
    {
      "name": "C#3",
      "midi": 49,
      "time": 6.825939999999999,
      "velocity": 0.2125984251968504,
      "duration": 0.11376566666666665
    },
    {
      "name": "G#3",
      "midi": 56,
      "time": 6.939705666666666,
      "velocity": 0.23622047244094488,
      "duration": 0.11376566666666665
    },
    {
      "name": "C#4",
      "midi": 61,
      "time": 7.0534713333333325,
      "velocity": 0.2677165354330709,
      "duration": 0.11376566666666665
    },
    {
      "name": "E4",
      "midi": 64,
      "time": 7.167236999999999,
      "velocity": 0.28346456692913385,
      "duration": 0.11376566666666665
    },
    {
      "name": "C#4",
      "midi": 61,
      "time": 7.281002666666666,
      "velocity": 0.2677165354330709,
      "duration": 0.11376566666666665
    },
    {
      "name": "G#3",
      "midi": 56,
      "time": 7.3947683333333325,
      "velocity": 0.25984251968503935,
      "duration": 0.11376566666666665
    },
    {
      "name": "E3",
      "midi": 52,
      "time": 7.508533999999999,
      "velocity": 0.2440944881889764,
      "duration": 0.11376566666666665
    },
    {
      "name": "G#3",
      "midi": 56,
      "time": 7.622299666666666,
      "velocity": 0.25984251968503935,
      "duration": 0.11376566666666665
    },
    {
      "name": "C#4",
      "midi": 61,
      "time": 7.7360653333333325,
      "velocity": 0.28346456692913385,
      "duration": 0.11376566666666665
    },
    {
      "name": "E4",
      "midi": 64,
      "time": 7.849830999999999,
      "velocity": 0.29133858267716534,
      "duration": 0.11376566666666665
    },
    {
      "name": "C#4",
      "midi": 61,
      "time": 7.963596666666666,
      "velocity": 0.2677165354330709,
      "duration": 0.11376566666666754
    },
    {
      "name": "G#3",
      "midi": 56,
      "time": 8.077362333333333,
      "velocity": 0.25196850393700787,
      "duration": 0.11376566666666577
    },
    {
      "name": "D#3",
      "midi": 51,
      "time": 8.191127999999999,
      "velocity": 0.2440944881889764,
      "duration": 0.11376566666666577
    },
    {
      "name": "A3",
      "midi": 57,
      "time": 8.304893666666665,
      "velocity": 0.2755905511811024,
      "duration": 0.11376566666666577
    },
    {
      "name": "C#4",
      "midi": 61,
      "time": 8.41865933333333,
      "velocity": 0.30708661417322836,
      "duration": 0.11376566666666577
    },
    {
      "name": "F#4",
      "midi": 66,
      "time": 8.532424999999996,
      "velocity": 0.3543307086614173,
      "duration": 0.11376566666666577
    },
    {
      "name": "C#4",
      "midi": 61,
      "time": 8.646190666666662,
      "velocity": 0.30708661417322836,
      "duration": 0.11376566666666577
    },
    {
      "name": "A3",
      "midi": 57,
      "time": 8.759956333333328,
      "velocity": 0.29133858267716534,
      "duration": 0.11376566666666577
    },
    {
      "name": "F#3",
      "midi": 54,
      "time": 8.873721999999994,
      "velocity": 0.29133858267716534,
      "duration": 0.11376566666666577
    },
    {
      "name": "C#4",
      "midi": 61,
      "time": 8.98748766666666,
      "velocity": 0.31496062992125984,
      "duration": 0.11376566666666577
    },
    {
      "name": "D#4",
      "midi": 63,
      "time": 9.101253333333325,
      "velocity": 0.3464566929133858,
      "duration": 0.11376566666666577
    },
    {
      "name": "A4",
      "midi": 69,
      "time": 9.215018999999991,
      "velocity": 0.36220472440944884,
      "duration": 0.11376566666666577
    },
    {
      "name": "D#4",
      "midi": 63,
      "time": 9.328784666666657,
      "velocity": 0.3464566929133858,
      "duration": 0.11376566666666577
    },
    {
      "name": "C#4",
      "midi": 61,
      "time": 9.442550333333322,
      "velocity": 0.3228346456692913,
      "duration": 0.11376566666666577
    },
    {
      "name": "G#2",
      "midi": 44,
      "time": 9.556315999999988,
      "velocity": 0.25984251968503935,
      "duration": 0.11376566666666577
    },
    {
      "name": "D#3",
      "midi": 51,
      "time": 9.670081666666654,
      "velocity": 0.2755905511811024,
      "duration": 0.11376566666666577
    },
    {
      "name": "F#3",
      "midi": 54,
      "time": 9.78384733333332,
      "velocity": 0.2992125984251969,
      "duration": 0.11376566666666577
    },
    {
      "name": "C4",
      "midi": 60,
      "time": 9.897612999999986,
      "velocity": 0.30708661417322836,
      "duration": 0.11376566666666577
    },
    {
      "name": "F#3",
      "midi": 54,
      "time": 10.011378666666651,
      "velocity": 0.28346456692913385,
      "duration": 0.11376566666666577
    },
    {
      "name": "D#3",
      "midi": 51,
      "time": 10.125144333333317,
      "velocity": 0.2677165354330709,
      "duration": 0.11376566666666577
    },
    {
      "name": "G#2",
      "midi": 44,
      "time": 10.238909999999983,
      "velocity": 0.2283464566929134,
      "duration": 0.11376566666666577
    },
    {
      "name": "D#3",
      "midi": 51,
      "time": 10.352675666666649,
      "velocity": 0.2440944881889764,
      "duration": 0.11376566666666577
    },
    {
      "name": "F#3",
      "midi": 54,
      "time": 10.466441333333314,
      "velocity": 0.25984251968503935,
      "duration": 0.11376566666666577
    },
    {
      "name": "C4",
      "midi": 60,
      "time": 10.58020699999998,
      "velocity": 0.25984251968503935,
      "duration": 0.11376566666666577
    },
    {
      "name": "F#3",
      "midi": 54,
      "time": 10.693972666666646,
      "velocity": 0.2283464566929134,
      "duration": 0.11376566666666577
    },
    {
      "name": "D#3",
      "midi": 51,
      "time": 10.807738333333312,
      "velocity": 0.2047244094488189,
      "duration": 0.11376566666666577
    },
    {
      "name": "C#3",
      "midi": 49,
      "time": 10.921503999999977,
      "velocity": 0.1732283464566929,
      "duration": 0.11376566666666754
    },
    {
      "name": "G#3",
      "midi": 56,
      "time": 11.035269666666645,
      "velocity": 0.1968503937007874,
      "duration": 0.11376566666666754
    },
    {
      "name": "C#4",
      "midi": 61,
      "time": 11.149035333333313,
      "velocity": 0.2204724409448819,
      "duration": 0.11376566666666577
    },
    {
      "name": "E4",
      "midi": 64,
      "time": 11.262800999999978,
      "velocity": 0.23622047244094488,
      "duration": 0.11376566666666577
    },
    {
      "name": "C#4",
      "midi": 61,
      "time": 11.376566666666644,
      "velocity": 0.2204724409448819,
      "duration": 0.11376566666666577
    },
    {
      "name": "G#3",
      "midi": 56,
      "time": 11.49033233333331,
      "velocity": 0.2125984251968504,
      "duration": 0.11376566666666577
    },
    {
      "name": "E3",
      "midi": 52,
      "time": 11.604097999999976,
      "velocity": 0.2047244094488189,
      "duration": 0.11376566666666754
    },
    {
      "name": "G#3",
      "midi": 56,
      "time": 11.717863666666643,
      "velocity": 0.2204724409448819,
      "duration": 0.11376566666666754
    },
    {
      "name": "C#4",
      "midi": 61,
      "time": 11.83162933333331,
      "velocity": 0.23622047244094488,
      "duration": 0.11376566666666577
    },
    {
      "name": "E4",
      "midi": 64,
      "time": 11.945394999999976,
      "velocity": 0.2440944881889764,
      "duration": 0.11376566666666577
    },
    {
      "name": "C#4",
      "midi": 61,
      "time": 12.059160666666642,
      "velocity": 0.2204724409448819,
      "duration": 0.11376566666666577
    },
    {
      "name": "G#3",
      "midi": 56,
      "time": 12.172926333333308,
      "velocity": 0.2125984251968504,
      "duration": 0.11376566666666577
    },
    {
      "name": "C#3",
      "midi": 49,
      "time": 12.286691999999974,
      "velocity": 0.2125984251968504,
      "duration": 0.11376566666666577
    },
    {
      "name": "G#3",
      "midi": 56,
      "time": 12.40045766666664,
      "velocity": 0.23622047244094488,
      "duration": 0.11376566666666577
    },
    {
      "name": "A#3",
      "midi": 58,
      "time": 12.514223333333305,
      "velocity": 0.2677165354330709,
      "duration": 0.11376566666666577
    },
    {
      "name": "E4",
      "midi": 64,
      "time": 12.627988999999971,
      "velocity": 0.28346456692913385,
      "duration": 0.11376566666666577
    },
    {
      "name": "A#3",
      "midi": 58,
      "time": 12.741754666666637,
      "velocity": 0.2677165354330709,
      "duration": 0.11376566666666577
    },
    {
      "name": "G#3",
      "midi": 56,
      "time": 12.855520333333303,
      "velocity": 0.25984251968503935,
      "duration": 0.11376566666666577
    },
    {
      "name": "E3",
      "midi": 52,
      "time": 12.969285999999968,
      "velocity": 0.2440944881889764,
      "duration": 0.11376566666666577
    },
    {
      "name": "G#3",
      "midi": 56,
      "time": 13.083051666666634,
      "velocity": 0.25984251968503935,
      "duration": 0.11376566666666577
    },
    {
      "name": "A#3",
      "midi": 58,
      "time": 13.1968173333333,
      "velocity": 0.28346456692913385,
      "duration": 0.11376566666666577
    },
    {
      "name": "C#4",
      "midi": 61,
      "time": 13.310582999999966,
      "velocity": 0.29133858267716534,
      "duration": 0.11376566666666577
    },
    {
      "name": "A#3",
      "midi": 58,
      "time": 13.424348666666631,
      "velocity": 0.2677165354330709,
      "duration": 0.11376566666666577
    },
    {
      "name": "G#3",
      "midi": 56,
      "time": 13.538114333333297,
      "velocity": 0.25196850393700787,
      "duration": 0.11376566666666577
    },
    {
      "name": "D#3",
      "midi": 51,
      "time": 13.651879999999963,
      "velocity": 0.23622047244094488,
      "duration": 0.11376566666666577
    },
    {
      "name": "G#3",
      "midi": 56,
      "time": 13.765645666666629,
      "velocity": 0.2677165354330709,
      "duration": 0.11376566666666577
    },
    {
      "name": "B3",
      "midi": 59,
      "time": 13.879411333333294,
      "velocity": 0.29133858267716534,
      "duration": 0.11376566666666577
    },
    {
      "name": "D#4",
      "midi": 63,
      "time": 13.99317699999996,
      "velocity": 0.30708661417322836,
      "duration": 0.11376566666666577
    },
    {
      "name": "B3",
      "midi": 59,
      "time": 14.106942666666626,
      "velocity": 0.2992125984251969,
      "duration": 0.11376566666666577
    },
    {
      "name": "G#3",
      "midi": 56,
      "time": 14.220708333333292,
      "velocity": 0.2755905511811024,
      "duration": 0.11376566666666577
    },
    {
      "name": "D#3",
      "midi": 51,
      "time": 14.334473999999958,
      "velocity": 0.2992125984251969,
      "duration": 0.11376566666666577
    },
    {
      "name": "A#3",
      "midi": 58,
      "time": 14.448239666666623,
      "velocity": 0.3228346456692913,
      "duration": 0.11376566666666577
    },
    {
      "name": "C#4",
      "midi": 61,
      "time": 14.562005333333289,
      "velocity": 0.3543307086614173,
      "duration": 0.11376566666666577
    },
    {
      "name": "G4",
      "midi": 67,
      "time": 14.675770999999955,
      "velocity": 0.36220472440944884,
      "duration": 0.11376566666666577
    },
    {
      "name": "C#4",
      "midi": 61,
      "time": 14.78953666666662,
      "velocity": 0.3464566929133858,
      "duration": 0.11376566666666577
    },
    {
      "name": "A#3",
      "midi": 58,
      "time": 14.903302333333286,
      "velocity": 0.3228346456692913,
      "duration": 0.11376566666666577
    },
    {
      "name": "G#2",
      "midi": 44,
      "time": 15.017067999999952,
      "velocity": 0.25984251968503935,
      "duration": 0.11376566666666754
    },
    {
      "name": "D#3",
      "midi": 51,
      "time": 15.13083366666662,
      "velocity": 0.2755905511811024,
      "duration": 0.11376566666666754
    },
    {
      "name": "G#3",
      "midi": 56,
      "time": 15.244599333333287,
      "velocity": 0.29133858267716534,
      "duration": 0.11376566666666577
    },
    {
      "name": "B3",
      "midi": 59,
      "time": 15.358364999999953,
      "velocity": 0.30708661417322836,
      "duration": 0.11376566666666577
    },
    {
      "name": "G#3",
      "midi": 56,
      "time": 15.472130666666619,
      "velocity": 0.30708661417322836,
      "duration": 0.11376566666666577
    },
    {
      "name": "D#3",
      "midi": 51,
      "time": 15.585896333333285,
      "velocity": 0.29133858267716534,
      "duration": 0.11376566666666577
    },
    {
      "name": "G#2",
      "midi": 44,
      "time": 15.69966199999995,
      "velocity": 0.25984251968503935,
      "duration": 0.11376566666666577
    },
    {
      "name": "D#3",
      "midi": 51,
      "time": 15.813427666666616,
      "velocity": 0.2755905511811024,
      "duration": 0.11376566666666577
    },
    {
      "name": "G#3",
      "midi": 56,
      "time": 15.927193333333282,
      "velocity": 0.2992125984251969,
      "duration": 0.11376566666666577
    },
    {
      "name": "B3",
      "midi": 59,
      "time": 16.040958999999948,
      "velocity": 0.30708661417322836,
      "duration": 0.11376566666666577
    },
    {
      "name": "G#3",
      "midi": 56,
      "time": 16.154724666666613,
      "velocity": 0.2755905511811024,
      "duration": 0.11376566666666577
    },
    {
      "name": "D#3",
      "midi": 51,
      "time": 16.26849033333328,
      "velocity": 0.25984251968503935,
      "duration": 0.11376566666666577
    },
    {
      "name": "A2",
      "midi": 45,
      "time": 16.382255999999945,
      "velocity": 0.30708661417322836,
      "duration": 0.11376566666666932
    },
    {
      "name": "C#3",
      "midi": 49,
      "time": 16.496021666666614,
      "velocity": 0.3228346456692913,
      "duration": 0.11376566666666577
    },
    {
      "name": "F#3",
      "midi": 54,
      "time": 16.60978733333328,
      "velocity": 0.33858267716535434,
      "duration": 0.11376566666666577
    },
    {
      "name": "A3",
      "midi": 57,
      "time": 16.723552999999946,
      "velocity": 0.3543307086614173,
      "duration": 0.11376566666666577
    },
    {
      "name": "F#3",
      "midi": 54,
      "time": 16.83731866666661,
      "velocity": 0.3464566929133858,
      "duration": 0.11376566666666577
    },
    {
      "name": "C#3",
      "midi": 49,
      "time": 16.951084333333277,
      "velocity": 0.33070866141732286,
      "duration": 0.11376566666666577
    },
    {
      "name": "A2",
      "midi": 45,
      "time": 17.064849999999943,
      "velocity": 0.33070866141732286,
      "duration": 0.11376566666666577
    },
    {
      "name": "C#3",
      "midi": 49,
      "time": 17.17861566666661,
      "velocity": 0.3464566929133858,
      "duration": 0.11376566666666577
    },
    {
      "name": "F#3",
      "midi": 54,
      "time": 17.292381333333275,
      "velocity": 0.3543307086614173,
      "duration": 0.11376566666666577
    },
    {
      "name": "A3",
      "midi": 57,
      "time": 17.40614699999994,
      "velocity": 0.3543307086614173,
      "duration": 0.11376566666666577
    },
    {
      "name": "F#3",
      "midi": 54,
      "time": 17.519912666666606,
      "velocity": 0.3543307086614173,
      "duration": 0.11376566666666577
    },
    {
      "name": "C#3",
      "midi": 49,
      "time": 17.633678333333272,
      "velocity": 0.3464566929133858,
      "duration": 0.11376566666666577
    },
    {
      "name": "B2",
      "midi": 47,
      "time": 17.747443999999938,
      "velocity": 0.3464566929133858,
      "duration": 0.11376566666666577
    },
    {
      "name": "F#3",
      "midi": 54,
      "time": 17.861209666666603,
      "velocity": 0.36220472440944884,
      "duration": 0.11376566666666577
    },
    {
      "name": "A3",
      "midi": 57,
      "time": 17.97497533333327,
      "velocity": 0.3779527559055118,
      "duration": 0.11376566666666577
    },
    {
      "name": "B3",
      "midi": 59,
      "time": 18.088740999999935,
      "velocity": 0.3858267716535433,
      "duration": 0.11376566666666577
    },
    {
      "name": "A3",
      "midi": 57,
      "time": 18.2025066666666,
      "velocity": 0.3700787401574803,
      "duration": 0.11376566666666577
    },
    {
      "name": "F#3",
      "midi": 54,
      "time": 18.316272333333266,
      "velocity": 0.3543307086614173,
      "duration": 0.11376566666666577
    },
    {
      "name": "E2",
      "midi": 40,
      "time": 18.430037999999932,
      "velocity": 0.3543307086614173,
      "duration": 0.11376566666666577
    },
    {
      "name": "B2",
      "midi": 47,
      "time": 18.543803666666598,
      "velocity": 0.36220472440944884,
      "duration": 0.11376566666666577
    },
    {
      "name": "E3",
      "midi": 52,
      "time": 18.657569333333264,
      "velocity": 0.3779527559055118,
      "duration": 0.11376566666666577
    },
    {
      "name": "G#3",
      "midi": 56,
      "time": 18.77133499999993,
      "velocity": 0.3700787401574803,
      "duration": 0.11376566666666577
    },
    {
      "name": "E3",
      "midi": 52,
      "time": 18.885100666666595,
      "velocity": 0.36220472440944884,
      "duration": 0.11376566666666577
    },
    {
      "name": "B2",
      "midi": 47,
      "time": 18.99886633333326,
      "velocity": 0.3543307086614173,
      "duration": 0.11376566666666577
    },
    {
      "name": "A2",
      "midi": 45,
      "time": 19.112631999999927,
      "velocity": 0.3464566929133858,
      "duration": 0.11376566666666932
    },
    {
      "name": "C#3",
      "midi": 49,
      "time": 19.226397666666596,
      "velocity": 0.36220472440944884,
      "duration": 0.11376566666666577
    },
    {
      "name": "F#3",
      "midi": 54,
      "time": 19.340163333333262,
      "velocity": 0.3779527559055118,
      "duration": 0.11376566666666577
    },
    {
      "name": "A3",
      "midi": 57,
      "time": 19.453928999999928,
      "velocity": 0.3858267716535433,
      "duration": 0.11376566666666577
    },
    {
      "name": "F#3",
      "midi": 54,
      "time": 19.567694666666593,
      "velocity": 0.3700787401574803,
      "duration": 0.11376566666666577
    },
    {
      "name": "C#3",
      "midi": 49,
      "time": 19.68146033333326,
      "velocity": 0.3543307086614173,
      "duration": 0.11376566666666577
    },
    {
      "name": "A2",
      "midi": 45,
      "time": 19.795225999999925,
      "velocity": 0.3543307086614173,
      "duration": 0.11376566666666577
    },
    {
      "name": "C#3",
      "midi": 49,
      "time": 19.90899166666659,
      "velocity": 0.36220472440944884,
      "duration": 0.11376566666666577
    },
    {
      "name": "F#3",
      "midi": 54,
      "time": 20.022757333333256,
      "velocity": 0.3779527559055118,
      "duration": 0.11376566666666577
    },
    {
      "name": "A3",
      "midi": 57,
      "time": 20.136522999999922,
      "velocity": 0.3700787401574803,
      "duration": 0.11376566666666577
    },
    {
      "name": "F#3",
      "midi": 54,
      "time": 20.250288666666588,
      "velocity": 0.36220472440944884,
      "duration": 0.11376566666666577
    },
    {
      "name": "C#3",
      "midi": 49,
      "time": 20.364054333333254,
      "velocity": 0.3543307086614173,
      "duration": 0.11376566666666577
    },
    {
      "name": "B2",
      "midi": 47,
      "time": 20.47781999999992,
      "velocity": 0.3464566929133858,
      "duration": 0.11376566666666577
    },
    {
      "name": "D#3",
      "midi": 51,
      "time": 20.591585666666585,
      "velocity": 0.36220472440944884,
      "duration": 0.11376566666666577
    },
    {
      "name": "A3",
      "midi": 57,
      "time": 20.70535133333325,
      "velocity": 0.3779527559055118,
      "duration": 0.11376566666666577
    },
    {
      "name": "B3",
      "midi": 59,
      "time": 20.819116999999917,
      "velocity": 0.3858267716535433,
      "duration": 0.11376566666666577
    },
    {
      "name": "A3",
      "midi": 57,
      "time": 20.932882666666583,
      "velocity": 0.3700787401574803,
      "duration": 0.11376566666666577
    },
    {
      "name": "D#3",
      "midi": 51,
      "time": 21.04664833333325,
      "velocity": 0.3543307086614173,
      "duration": 0.11376566666666577
    },
    {
      "name": "E2",
      "midi": 40,
      "time": 21.160413999999914,
      "velocity": 0.3543307086614173,
      "duration": 0.11376566666666577
    },
    {
      "name": "B2",
      "midi": 47,
      "time": 21.27417966666658,
      "velocity": 0.36220472440944884,
      "duration": 0.11376566666666577
    },
    {
      "name": "E3",
      "midi": 52,
      "time": 21.387945333333246,
      "velocity": 0.3779527559055118,
      "duration": 0.11376566666666577
    },
    {
      "name": "G#3",
      "midi": 56,
      "time": 21.50171099999991,
      "velocity": 0.3700787401574803,
      "duration": 0.11376566666666577
    },
    {
      "name": "E3",
      "midi": 52,
      "time": 21.615476666666577,
      "velocity": 0.36220472440944884,
      "duration": 0.11376566666666577
    },
    {
      "name": "B2",
      "midi": 47,
      "time": 21.729242333333243,
      "velocity": 0.3543307086614173,
      "duration": 0.11376566666666577
    },
    {
      "name": "A2",
      "midi": 45,
      "time": 21.84300799999991,
      "velocity": 0.23622047244094488,
      "duration": 0.11376566666666577
    },
    {
      "name": "C#3",
      "midi": 49,
      "time": 21.956773666666574,
      "velocity": 0.25984251968503935,
      "duration": 0.11376566666666577
    },
    {
      "name": "F#3",
      "midi": 54,
      "time": 22.07053933333324,
      "velocity": 0.2677165354330709,
      "duration": 0.11376566666666577
    },
    {
      "name": "A3",
      "midi": 57,
      "time": 22.184304999999906,
      "velocity": 0.2755905511811024,
      "duration": 0.11376566666666577
    },
    {
      "name": "F#3",
      "midi": 54,
      "time": 22.298070666666572,
      "velocity": 0.2677165354330709,
      "duration": 0.11376566666666577
    },
    {
      "name": "C#3",
      "midi": 49,
      "time": 22.411836333333238,
      "velocity": 0.2677165354330709,
      "duration": 0.11376566666666577
    },
    {
      "name": "A2",
      "midi": 45,
      "time": 22.525601999999903,
      "velocity": 0.2677165354330709,
      "duration": 0.11376566666666577
    },
    {
      "name": "C#3",
      "midi": 49,
      "time": 22.63936766666657,
      "velocity": 0.2677165354330709,
      "duration": 0.11376566666666577
    },
    {
      "name": "F#3",
      "midi": 54,
      "time": 22.753133333333235,
      "velocity": 0.28346456692913385,
      "duration": 0.11376566666666577
    },
    {
      "name": "A3",
      "midi": 57,
      "time": 22.8668989999999,
      "velocity": 0.28346456692913385,
      "duration": 0.11376566666666577
    },
    {
      "name": "F#3",
      "midi": 54,
      "time": 22.980664666666566,
      "velocity": 0.2755905511811024,
      "duration": 0.11376566666666577
    },
    {
      "name": "C#3",
      "midi": 49,
      "time": 23.094430333333232,
      "velocity": 0.2677165354330709,
      "duration": 0.11376566666666577
    },
    {
      "name": "B2",
      "midi": 47,
      "time": 23.208195999999898,
      "velocity": 0.2677165354330709,
      "duration": 0.11376566666666577
    },
    {
      "name": "F#3",
      "midi": 54,
      "time": 23.321961666666564,
      "velocity": 0.29133858267716534,
      "duration": 0.11376566666666577
    },
    {
      "name": "A3",
      "midi": 57,
      "time": 23.43572733333323,
      "velocity": 0.2992125984251969,
      "duration": 0.11376566666666577
    },
    {
      "name": "B3",
      "midi": 59,
      "time": 23.549492999999895,
      "velocity": 0.30708661417322836,
      "duration": 0.11376566666666577
    },
    {
      "name": "A3",
      "midi": 57,
      "time": 23.66325866666656,
      "velocity": 0.2992125984251969,
      "duration": 0.11376566666666577
    },
    {
      "name": "F#3",
      "midi": 54,
      "time": 23.777024333333227,
      "velocity": 0.2992125984251969,
      "duration": 0.11376566666666577
    },
    {
      "name": "E2",
      "midi": 40,
      "time": 23.890789999999893,
      "velocity": 0.29133858267716534,
      "duration": 0.11376566666666932
    },
    {
      "name": "B2",
      "midi": 47,
      "time": 24.004555666666562,
      "velocity": 0.30708661417322836,
      "duration": 0.11376566666666577
    },
    {
      "name": "E3",
      "midi": 52,
      "time": 24.118321333333228,
      "velocity": 0.31496062992125984,
      "duration": 0.11376566666666577
    },
    {
      "name": "G#3",
      "midi": 56,
      "time": 24.232086999999893,
      "velocity": 0.31496062992125984,
      "duration": 0.11376566666666577
    },
    {
      "name": "E3",
      "midi": 52,
      "time": 24.34585266666656,
      "velocity": 0.31496062992125984,
      "duration": 0.11376566666666577
    },
    {
      "name": "B2",
      "midi": 47,
      "time": 24.459618333333225,
      "velocity": 0.30708661417322836,
      "duration": 0.11376566666666577
    },
    {
      "name": "A2",
      "midi": 45,
      "time": 24.57338399999989,
      "velocity": 0.30708661417322836,
      "duration": 0.11376566666666577
    },
    {
      "name": "C#3",
      "midi": 49,
      "time": 24.687149666666556,
      "velocity": 0.33070866141732286,
      "duration": 0.11376566666666577
    },
    {
      "name": "F#3",
      "midi": 54,
      "time": 24.800915333333222,
      "velocity": 0.33858267716535434,
      "duration": 0.11376566666666577
    },
    {
      "name": "A3",
      "midi": 57,
      "time": 24.914680999999888,
      "velocity": 0.3543307086614173,
      "duration": 0.11376566666666577
    },
    {
      "name": "F#3",
      "midi": 54,
      "time": 25.028446666666554,
      "velocity": 0.33858267716535434,
      "duration": 0.11376566666666577
    },
    {
      "name": "C#3",
      "midi": 49,
      "time": 25.14221233333322,
      "velocity": 0.33070866141732286,
      "duration": 0.11376566666666577
    },
    {
      "name": "A2",
      "midi": 45,
      "time": 25.255977999999885,
      "velocity": 0.33070866141732286,
      "duration": 0.11376566666666932
    },
    {
      "name": "D#3",
      "midi": 51,
      "time": 25.369743666666555,
      "velocity": 0.3464566929133858,
      "duration": 0.11376566666666577
    },
    {
      "name": "F#3",
      "midi": 54,
      "time": 25.48350933333322,
      "velocity": 0.3543307086614173,
      "duration": 0.11376566666666577
    },
    {
      "name": "A3",
      "midi": 57,
      "time": 25.597274999999886,
      "velocity": 0.3464566929133858,
      "duration": 0.11376566666666577
    },
    {
      "name": "F#3",
      "midi": 54,
      "time": 25.711040666666552,
      "velocity": 0.3464566929133858,
      "duration": 0.11376566666666577
    },
    {
      "name": "D#3",
      "midi": 51,
      "time": 25.824806333333218,
      "velocity": 0.33070866141732286,
      "duration": 0.11376566666666577
    },
    {
      "name": "G#2",
      "midi": 44,
      "time": 25.938571999999883,
      "velocity": 0.33070866141732286,
      "duration": 0.11376566666666932
    },
    {
      "name": "D#3",
      "midi": 51,
      "time": 26.052337666666553,
      "velocity": 0.3464566929133858,
      "duration": 0.11376566666666577
    },
    {
      "name": "F#3",
      "midi": 54,
      "time": 26.16610333333322,
      "velocity": 0.3543307086614173,
      "duration": 0.11376566666666577
    },
    {
      "name": "C4",
      "midi": 60,
      "time": 26.279868999999884,
      "velocity": 0.33070866141732286,
      "duration": 0.11376566666666577
    },
    {
      "name": "F#3",
      "midi": 54,
      "time": 26.39363466666655,
      "velocity": 0.33070866141732286,
      "duration": 0.11376566666666577
    },
    {
      "name": "D#3",
      "midi": 51,
      "time": 26.507400333333216,
      "velocity": 0.31496062992125984,
      "duration": 0.11376566666666577
    },
    {
      "name": "G#2",
      "midi": 44,
      "time": 26.62116599999988,
      "velocity": 0.30708661417322836,
      "duration": 0.11376566666666577
    },
    {
      "name": "D#3",
      "midi": 51,
      "time": 26.734931666666547,
      "velocity": 0.3228346456692913,
      "duration": 0.11376566666666577
    },
    {
      "name": "F#3",
      "midi": 54,
      "time": 26.848697333333213,
      "velocity": 0.33070866141732286,
      "duration": 0.11376566666666577
    },
    {
      "name": "C4",
      "midi": 60,
      "time": 26.96246299999988,
      "velocity": 0.31496062992125984,
      "duration": 0.11376566666666577
    },
    {
      "name": "F#3",
      "midi": 54,
      "time": 27.076228666666545,
      "velocity": 0.30708661417322836,
      "duration": 0.11376566666666577
    },
    {
      "name": "D#3",
      "midi": 51,
      "time": 27.18999433333321,
      "velocity": 0.2992125984251969,
      "duration": 0.11376566666666577
    },
    {
      "name": "A2",
      "midi": 45,
      "time": 27.303759999999876,
      "velocity": 0.2992125984251969,
      "duration": 0.11376566666666932
    },
    {
      "name": "D#3",
      "midi": 51,
      "time": 27.417525666666545,
      "velocity": 0.30708661417322836,
      "duration": 0.11376566666666577
    },
    {
      "name": "F#3",
      "midi": 54,
      "time": 27.53129133333321,
      "velocity": 0.31496062992125984,
      "duration": 0.11376566666666577
    },
    {
      "name": "B3",
      "midi": 59,
      "time": 27.645056999999877,
      "velocity": 0.2992125984251969,
      "duration": 0.11376566666666577
    },
    {
      "name": "F#3",
      "midi": 54,
      "time": 27.758822666666543,
      "velocity": 0.2992125984251969,
      "duration": 0.11376566666666577
    },
    {
      "name": "D#3",
      "midi": 51,
      "time": 27.87258833333321,
      "velocity": 0.28346456692913385,
      "duration": 0.11376566666666577
    },
    {
      "name": "A#2",
      "midi": 46,
      "time": 27.986353999999874,
      "velocity": 0.2755905511811024,
      "duration": 0.11376566666666577
    },
    {
      "name": "D#3",
      "midi": 51,
      "time": 28.10011966666654,
      "velocity": 0.29133858267716534,
      "duration": 0.11376566666666577
    },
    {
      "name": "F#3",
      "midi": 54,
      "time": 28.213885333333206,
      "velocity": 0.2992125984251969,
      "duration": 0.11376566666666577
    },
    {
      "name": "A#3",
      "midi": 58,
      "time": 28.32765099999987,
      "velocity": 0.28346456692913385,
      "duration": 0.11376566666666577
    },
    {
      "name": "F#3",
      "midi": 54,
      "time": 28.441416666666537,
      "velocity": 0.2755905511811024,
      "duration": 0.11376566666666577
    },
    {
      "name": "D#3",
      "midi": 51,
      "time": 28.555182333333203,
      "velocity": 0.2677165354330709,
      "duration": 0.11376566666666577
    },
    {
      "name": "C3",
      "midi": 48,
      "time": 28.66894799999987,
      "velocity": 0.2677165354330709,
      "duration": 0.11376566666666932
    },
    {
      "name": "D#3",
      "midi": 51,
      "time": 28.782713666666538,
      "velocity": 0.2677165354330709,
      "duration": 0.11376566666666577
    },
    {
      "name": "F#3",
      "midi": 54,
      "time": 28.896479333333204,
      "velocity": 0.2755905511811024,
      "duration": 0.11376566666666577
    },
    {
      "name": "A3",
      "midi": 57,
      "time": 29.01024499999987,
      "velocity": 0.2677165354330709,
      "duration": 0.11376566666666577
    },
    {
      "name": "F#3",
      "midi": 54,
      "time": 29.124010666666535,
      "velocity": 0.2677165354330709,
      "duration": 0.11376566666666577
    },
    {
      "name": "D#3",
      "midi": 51,
      "time": 29.2377763333332,
      "velocity": 0.25196850393700787,
      "duration": 0.11376566666666577
    },
    {
      "name": "C3",
      "midi": 48,
      "time": 29.351541999999867,
      "velocity": 0.2440944881889764,
      "duration": 0.11376566666666577
    },
    {
      "name": "D#3",
      "midi": 51,
      "time": 29.465307666666533,
      "velocity": 0.25984251968503935,
      "duration": 0.11376566666666577
    },
    {
      "name": "F#3",
      "midi": 54,
      "time": 29.5790733333332,
      "velocity": 0.25984251968503935,
      "duration": 0.11376566666666577
    },
    {
      "name": "A3",
      "midi": 57,
      "time": 29.692838999999864,
      "velocity": 0.2440944881889764,
      "duration": 0.11376566666666577
    },
    {
      "name": "F#3",
      "midi": 54,
      "time": 29.80660466666653,
      "velocity": 0.2440944881889764,
      "duration": 0.11376566666666577
    },
    {
      "name": "D#3",
      "midi": 51,
      "time": 29.920370333333196,
      "velocity": 0.2283464566929134,
      "duration": 0.11376566666666577
    },
    {
      "name": "A2",
      "midi": 45,
      "time": 30.03413599999986,
      "velocity": 0.2204724409448819,
      "duration": 0.11376566666666932
    },
    {
      "name": "D#3",
      "midi": 51,
      "time": 30.14790166666653,
      "velocity": 0.2283464566929134,
      "duration": 0.11376566666666577
    },
    {
      "name": "F#3",
      "midi": 54,
      "time": 30.261667333333197,
      "velocity": 0.2283464566929134,
      "duration": 0.11376566666666577
    },
    {
      "name": "B3",
      "midi": 59,
      "time": 30.375432999999862,
      "velocity": 0.2440944881889764,
      "duration": 0.11376566666666577
    },
    {
      "name": "F#3",
      "midi": 54,
      "time": 30.48919866666653,
      "velocity": 0.2283464566929134,
      "duration": 0.11376566666666577
    },
    {
      "name": "D#3",
      "midi": 51,
      "time": 30.602964333333194,
      "velocity": 0.2204724409448819,
      "duration": 0.11376566666666577
    },
    {
      "name": "A#2",
      "midi": 46,
      "time": 30.71672999999986,
      "velocity": 0.1968503937007874,
      "duration": 0.11376566666666577
    },
    {
      "name": "D#3",
      "midi": 51,
      "time": 30.830495666666526,
      "velocity": 0.2047244094488189,
      "duration": 0.11376566666666577
    },
    {
      "name": "F#3",
      "midi": 54,
      "time": 30.94426133333319,
      "velocity": 0.2125984251968504,
      "duration": 0.11376566666666577
    },
    {
      "name": "A#3",
      "midi": 58,
      "time": 31.058026999999857,
      "velocity": 0.2204724409448819,
      "duration": 0.11376566666666932
    },
    {
      "name": "F#3",
      "midi": 54,
      "time": 31.171792666666526,
      "velocity": 0.2125984251968504,
      "duration": 0.11376566666666577
    },
    {
      "name": "D#3",
      "midi": 51,
      "time": 31.285558333333192,
      "velocity": 0.1968503937007874,
      "duration": 0.11376566666666577
    },
    {
      "name": "B2",
      "midi": 47,
      "time": 31.399323999999858,
      "velocity": 0.1889763779527559,
      "duration": 0.11376566666666577
    },
    {
      "name": "D#3",
      "midi": 51,
      "time": 31.513089666666524,
      "velocity": 0.2047244094488189,
      "duration": 0.11376566666666577
    },
    {
      "name": "F#3",
      "midi": 54,
      "time": 31.62685533333319,
      "velocity": 0.2125984251968504,
      "duration": 0.11376566666666577
    },
    {
      "name": "A3",
      "midi": 57,
      "time": 31.740620999999855,
      "velocity": 0.2204724409448819,
      "duration": 0.11376566666666577
    },
    {
      "name": "F#3",
      "midi": 54,
      "time": 31.85438666666652,
      "velocity": 0.2125984251968504,
      "duration": 0.11376566666666577
    },
    {
      "name": "D#3",
      "midi": 51,
      "time": 31.968152333333187,
      "velocity": 0.1968503937007874,
      "duration": 0.11376566666666577
    },
    {
      "name": "C3",
      "midi": 48,
      "time": 32.08191799999985,
      "velocity": 0.1732283464566929,
      "duration": 0.11376566666666577
    },
    {
      "name": "D#3",
      "midi": 51,
      "time": 32.19568366666652,
      "velocity": 0.18110236220472442,
      "duration": 0.11376566666666577
    },
    {
      "name": "F#3",
      "midi": 54,
      "time": 32.309449333333184,
      "velocity": 0.1889763779527559,
      "duration": 0.11376566666666577
    },
    {
      "name": "G#3",
      "midi": 56,
      "time": 32.42321499999985,
      "velocity": 0.1889763779527559,
      "duration": 0.11376566666666577
    },
    {
      "name": "F#3",
      "midi": 54,
      "time": 32.536980666666516,
      "velocity": 0.18110236220472442,
      "duration": 0.11376566666666577
    },
    {
      "name": "D#3",
      "midi": 51,
      "time": 32.65074633333318,
      "velocity": 0.1732283464566929,
      "duration": 0.11376566666666577
    },
    {
      "name": "C#3",
      "midi": 49,
      "time": 32.76451199999985,
      "velocity": 0.1732283464566929,
      "duration": 0.11376566666667287
    },
    {
      "name": "G#3",
      "midi": 56,
      "time": 32.87827766666652,
      "velocity": 0.1968503937007874,
      "duration": 0.11376566666666577
    },
    {
      "name": "C#4",
      "midi": 61,
      "time": 32.992043333333186,
      "velocity": 0.2204724409448819,
      "duration": 0.11376566666666577
    },
    {
      "name": "E4",
      "midi": 64,
      "time": 33.10580899999985,
      "velocity": 0.23622047244094488,
      "duration": 0.11376566666666577
    },
    {
      "name": "C#4",
      "midi": 61,
      "time": 33.21957466666652,
      "velocity": 0.2204724409448819,
      "duration": 0.11376566666666577
    },
    {
      "name": "G#3",
      "midi": 56,
      "time": 33.33334033333318,
      "velocity": 0.2125984251968504,
      "duration": 0.11376566666666577
    },
    {
      "name": "E3",
      "midi": 52,
      "time": 33.44710599999985,
      "velocity": 0.2047244094488189,
      "duration": 0.11376566666666577
    },
    {
      "name": "G#3",
      "midi": 56,
      "time": 33.560871666666515,
      "velocity": 0.2204724409448819,
      "duration": 0.11376566666666577
    },
    {
      "name": "C#4",
      "midi": 61,
      "time": 33.67463733333318,
      "velocity": 0.23622047244094488,
      "duration": 0.11376566666666577
    },
    {
      "name": "E4",
      "midi": 64,
      "time": 33.788402999999846,
      "velocity": 0.2440944881889764,
      "duration": 0.11376566666666577
    },
    {
      "name": "C#4",
      "midi": 61,
      "time": 33.90216866666651,
      "velocity": 0.2204724409448819,
      "duration": 0.11376566666666577
    },
    {
      "name": "G#3",
      "midi": 56,
      "time": 34.01593433333318,
      "velocity": 0.2125984251968504,
      "duration": 0.11376566666666577
    },
    {
      "name": "C#3",
      "midi": 49,
      "time": 34.12969999999984,
      "velocity": 0.2125984251968504,
      "duration": 0.11376566666666577
    },
    {
      "name": "G#3",
      "midi": 56,
      "time": 34.24346566666651,
      "velocity": 0.23622047244094488,
      "duration": 0.11376566666666577
    },
    {
      "name": "C#4",
      "midi": 61,
      "time": 34.357231333333175,
      "velocity": 0.2677165354330709,
      "duration": 0.11376566666666577
    },
    {
      "name": "E4",
      "midi": 64,
      "time": 34.47099699999984,
      "velocity": 0.28346456692913385,
      "duration": 0.11376566666666577
    },
    {
      "name": "C#4",
      "midi": 61,
      "time": 34.58476266666651,
      "velocity": 0.2677165354330709,
      "duration": 0.11376566666666577
    },
    {
      "name": "G#3",
      "midi": 56,
      "time": 34.69852833333317,
      "velocity": 0.25984251968503935,
      "duration": 0.11376566666666577
    },
    {
      "name": "E3",
      "midi": 52,
      "time": 34.81229399999984,
      "velocity": 0.2440944881889764,
      "duration": 0.11376566666666577
    },
    {
      "name": "G#3",
      "midi": 56,
      "time": 34.926059666666504,
      "velocity": 0.25984251968503935,
      "duration": 0.11376566666666577
    },
    {
      "name": "C#4",
      "midi": 61,
      "time": 35.03982533333317,
      "velocity": 0.28346456692913385,
      "duration": 0.11376566666666577
    },
    {
      "name": "E4",
      "midi": 64,
      "time": 35.153590999999835,
      "velocity": 0.29133858267716534,
      "duration": 0.11376566666666577
    },
    {
      "name": "C#4",
      "midi": 61,
      "time": 35.2673566666665,
      "velocity": 0.2677165354330709,
      "duration": 0.11376566666666577
    },
    {
      "name": "G#3",
      "midi": 56,
      "time": 35.38112233333317,
      "velocity": 0.25196850393700787,
      "duration": 0.11376566666666577
    },
    {
      "name": "D#3",
      "midi": 51,
      "time": 35.49488799999983,
      "velocity": 0.2440944881889764,
      "duration": 0.11376566666666577
    },
    {
      "name": "A3",
      "midi": 57,
      "time": 35.6086536666665,
      "velocity": 0.2755905511811024,
      "duration": 0.11376566666666577
    },
    {
      "name": "C#4",
      "midi": 61,
      "time": 35.722419333333164,
      "velocity": 0.30708661417322836,
      "duration": 0.11376566666666577
    },
    {
      "name": "F#4",
      "midi": 66,
      "time": 35.83618499999983,
      "velocity": 0.3543307086614173,
      "duration": 0.11376566666666577
    },
    {
      "name": "C#4",
      "midi": 61,
      "time": 35.949950666666496,
      "velocity": 0.30708661417322836,
      "duration": 0.11376566666666577
    },
    {
      "name": "A3",
      "midi": 57,
      "time": 36.06371633333316,
      "velocity": 0.29133858267716534,
      "duration": 0.11376566666666577
    },
    {
      "name": "F#3",
      "midi": 54,
      "time": 36.17748199999983,
      "velocity": 0.29133858267716534,
      "duration": 0.11376566666666577
    },
    {
      "name": "C#4",
      "midi": 61,
      "time": 36.29124766666649,
      "velocity": 0.31496062992125984,
      "duration": 0.11376566666666577
    },
    {
      "name": "D#4",
      "midi": 63,
      "time": 36.40501333333316,
      "velocity": 0.3464566929133858,
      "duration": 0.11376566666666577
    },
    {
      "name": "A4",
      "midi": 69,
      "time": 36.518778999999824,
      "velocity": 0.36220472440944884,
      "duration": 0.11376566666666577
    },
    {
      "name": "D#4",
      "midi": 63,
      "time": 36.63254466666649,
      "velocity": 0.3464566929133858,
      "duration": 0.11376566666666577
    },
    {
      "name": "C#4",
      "midi": 61,
      "time": 36.746310333333156,
      "velocity": 0.3228346456692913,
      "duration": 0.11376566666666577
    },
    {
      "name": "G#2",
      "midi": 44,
      "time": 36.86007599999982,
      "velocity": 0.25984251968503935,
      "duration": 0.11376566666666577
    },
    {
      "name": "D#3",
      "midi": 51,
      "time": 36.97384166666649,
      "velocity": 0.28346456692913385,
      "duration": 0.11376566666666577
    },
    {
      "name": "F#3",
      "midi": 54,
      "time": 37.08760733333315,
      "velocity": 0.30708661417322836,
      "duration": 0.11376566666666577
    },
    {
      "name": "C4",
      "midi": 60,
      "time": 37.20137299999982,
      "velocity": 0.3228346456692913,
      "duration": 0.11376566666666577
    },
    {
      "name": "F#3",
      "midi": 54,
      "time": 37.315138666666485,
      "velocity": 0.30708661417322836,
      "duration": 0.11376566666666577
    },
    {
      "name": "D#3",
      "midi": 51,
      "time": 37.42890433333315,
      "velocity": 0.29133858267716534,
      "duration": 0.11376566666666577
    },
    {
      "name": "G#2",
      "midi": 44,
      "time": 37.542669999999816,
      "velocity": 0.25984251968503935,
      "duration": 0.11376566666666577
    },
    {
      "name": "D#3",
      "midi": 51,
      "time": 37.65643566666648,
      "velocity": 0.2755905511811024,
      "duration": 0.11376566666666577
    },
    {
      "name": "F#3",
      "midi": 54,
      "time": 37.77020133333315,
      "velocity": 0.2992125984251969,
      "duration": 0.11376566666666577
    },
    {
      "name": "C4",
      "midi": 60,
      "time": 37.883966999999814,
      "velocity": 0.30708661417322836,
      "duration": 0.11376566666666577
    },
    {
      "name": "F#3",
      "midi": 54,
      "time": 37.99773266666648,
      "velocity": 0.2755905511811024,
      "duration": 0.11376566666666577
    },
    {
      "name": "D#3",
      "midi": 51,
      "time": 38.111498333333145,
      "velocity": 0.25984251968503935,
      "duration": 0.11376566666666577
    },
    {
      "name": "C#3",
      "midi": 49,
      "time": 38.22526399999981,
      "velocity": 0.2204724409448819,
      "duration": 0.11376566666667287
    },
    {
      "name": "G#3",
      "midi": 56,
      "time": 38.339029666666484,
      "velocity": 0.25196850393700787,
      "duration": 0.11376566666666577
    },
    {
      "name": "C#4",
      "midi": 61,
      "time": 38.45279533333315,
      "velocity": 0.2677165354330709,
      "duration": 0.11376566666666577
    },
    {
      "name": "E4",
      "midi": 64,
      "time": 38.566560999999815,
      "velocity": 0.29133858267716534,
      "duration": 0.11376566666666577
    },
    {
      "name": "C#4",
      "midi": 61,
      "time": 38.68032666666648,
      "velocity": 0.2755905511811024,
      "duration": 0.11376566666666577
    },
    {
      "name": "G#3",
      "midi": 56,
      "time": 38.79409233333315,
      "velocity": 0.25984251968503935,
      "duration": 0.11376566666666577
    },
    {
      "name": "E3",
      "midi": 52,
      "time": 38.90785799999981,
      "velocity": 0.2440944881889764,
      "duration": 0.11376566666666577
    },
    {
      "name": "G#3",
      "midi": 56,
      "time": 39.02162366666648,
      "velocity": 0.25984251968503935,
      "duration": 0.11376566666666577
    },
    {
      "name": "C#4",
      "midi": 61,
      "time": 39.135389333333144,
      "velocity": 0.2755905511811024,
      "duration": 0.11376566666666577
    },
    {
      "name": "E4",
      "midi": 64,
      "time": 39.24915499999981,
      "velocity": 0.28346456692913385,
      "duration": 0.11376566666666577
    },
    {
      "name": "C#4",
      "midi": 61,
      "time": 39.362920666666476,
      "velocity": 0.25984251968503935,
      "duration": 0.11376566666666577
    },
    {
      "name": "G#3",
      "midi": 56,
      "time": 39.47668633333314,
      "velocity": 0.2440944881889764,
      "duration": 0.11376566666666577
    },
    {
      "name": "F#3",
      "midi": 54,
      "time": 39.59045199999981,
      "velocity": 0.2204724409448819,
      "duration": 0.11376566666666577
    },
    {
      "name": "C#4",
      "midi": 61,
      "time": 39.70421766666647,
      "velocity": 0.25984251968503935,
      "duration": 0.11376566666666577
    },
    {
      "name": "D#4",
      "midi": 63,
      "time": 39.81798333333314,
      "velocity": 0.2755905511811024,
      "duration": 0.11376566666666577
    },
    {
      "name": "A4",
      "midi": 69,
      "time": 39.931748999999805,
      "velocity": 0.2992125984251969,
      "duration": 0.11376566666666577
    },
    {
      "name": "D#4",
      "midi": 63,
      "time": 40.04551466666647,
      "velocity": 0.28346456692913385,
      "duration": 0.11376566666666577
    },
    {
      "name": "C#4",
      "midi": 61,
      "time": 40.159280333333136,
      "velocity": 0.2677165354330709,
      "duration": 0.11376566666666577
    },
    {
      "name": "G#3",
      "midi": 56,
      "time": 40.2730459999998,
      "velocity": 0.25196850393700787,
      "duration": 0.11376566666666577
    },
    {
      "name": "C#4",
      "midi": 61,
      "time": 40.38681166666647,
      "velocity": 0.2677165354330709,
      "duration": 0.11376566666666577
    },
    {
      "name": "F4",
      "midi": 65,
      "time": 40.50057733333313,
      "velocity": 0.29133858267716534,
      "duration": 0.11376566666666577
    },
    {
      "name": "B4",
      "midi": 71,
      "time": 40.6143429999998,
      "velocity": 0.30708661417322836,
      "duration": 0.11376566666666577
    },
    {
      "name": "F4",
      "midi": 65,
      "time": 40.728108666666465,
      "velocity": 0.2677165354330709,
      "duration": 0.11376566666666577
    },
    {
      "name": "C#4",
      "midi": 61,
      "time": 40.84187433333313,
      "velocity": 0.25984251968503935,
      "duration": 0.11376566666666577
    },
    {
      "name": "A3",
      "midi": 57,
      "time": 40.955639999999796,
      "velocity": 0.23622047244094488,
      "duration": 0.11376566666666577
    },
    {
      "name": "C#4",
      "midi": 61,
      "time": 41.06940566666646,
      "velocity": 0.2677165354330709,
      "duration": 0.11376566666666577
    },
    {
      "name": "F#4",
      "midi": 66,
      "time": 41.18317133333313,
      "velocity": 0.29133858267716534,
      "duration": 0.11376566666666577
    },
    {
      "name": "A4",
      "midi": 69,
      "time": 41.296936999999794,
      "velocity": 0.31496062992125984,
      "duration": 0.11376566666666577
    },
    {
      "name": "F#4",
      "midi": 66,
      "time": 41.41070266666646,
      "velocity": 0.30708661417322836,
      "duration": 0.11376566666666577
    },
    {
      "name": "C#4",
      "midi": 61,
      "time": 41.524468333333125,
      "velocity": 0.2755905511811024,
      "duration": 0.11376566666666577
    },
    {
      "name": "G#3",
      "midi": 56,
      "time": 41.63823399999979,
      "velocity": 0.2677165354330709,
      "duration": 0.11376566666666577
    },
    {
      "name": "C#4",
      "midi": 61,
      "time": 41.75199966666646,
      "velocity": 0.28346456692913385,
      "duration": 0.11376566666666577
    },
    {
      "name": "F4",
      "midi": 65,
      "time": 41.86576533333312,
      "velocity": 0.30708661417322836,
      "duration": 0.11376566666666577
    },
    {
      "name": "B4",
      "midi": 71,
      "time": 41.97953099999979,
      "velocity": 0.31496062992125984,
      "duration": 0.11376566666666577
    },
    {
      "name": "F4",
      "midi": 65,
      "time": 42.093296666666454,
      "velocity": 0.29133858267716534,
      "duration": 0.11376566666666577
    },
    {
      "name": "C#4",
      "midi": 61,
      "time": 42.20706233333312,
      "velocity": 0.2677165354330709,
      "duration": 0.11376566666666577
    },
    {
      "name": "A3",
      "midi": 57,
      "time": 42.320827999999786,
      "velocity": 0.25196850393700787,
      "duration": 0.11376566666666577
    },
    {
      "name": "C#4",
      "midi": 61,
      "time": 42.43459366666645,
      "velocity": 0.28346456692913385,
      "duration": 0.11376566666666577
    },
    {
      "name": "F#4",
      "midi": 66,
      "time": 42.54835933333312,
      "velocity": 0.30708661417322836,
      "duration": 0.11376566666666577
    },
    {
      "name": "A4",
      "midi": 69,
      "time": 42.66212499999978,
      "velocity": 0.33070866141732286,
      "duration": 0.11376566666666577
    },
    {
      "name": "F#4",
      "midi": 66,
      "time": 42.77589066666645,
      "velocity": 0.31496062992125984,
      "duration": 0.11376566666666577
    },
    {
      "name": "C#4",
      "midi": 61,
      "time": 42.889656333333114,
      "velocity": 0.2992125984251969,
      "duration": 0.11376566666666577
    },
    {
      "name": "C3",
      "midi": 48,
      "time": 43.00342199999978,
      "velocity": 0.28346456692913385,
      "duration": 0.11376566666666577
    },
    {
      "name": "F#3",
      "midi": 54,
      "time": 43.117187666666446,
      "velocity": 0.2992125984251969,
      "duration": 0.11376566666666577
    },
    {
      "name": "G#3",
      "midi": 56,
      "time": 43.23095333333311,
      "velocity": 0.3228346456692913,
      "duration": 0.11376566666666577
    },
    {
      "name": "D#4",
      "midi": 63,
      "time": 43.34471899999978,
      "velocity": 0.33070866141732286,
      "duration": 0.11376566666666577
    },
    {
      "name": "G#3",
      "midi": 56,
      "time": 43.45848466666644,
      "velocity": 0.30708661417322836,
      "duration": 0.11376566666666577
    },
    {
      "name": "F#3",
      "midi": 54,
      "time": 43.57225033333311,
      "velocity": 0.29133858267716534,
      "duration": 0.11376566666666577
    },
    {
      "name": "C#3",
      "midi": 49,
      "time": 43.686015999999775,
      "velocity": 0.2755905511811024,
      "duration": 0.11376566666666577
    },
    {
      "name": "G#3",
      "midi": 56,
      "time": 43.79978166666644,
      "velocity": 0.30708661417322836,
      "duration": 0.11376566666666577
    },
    {
      "name": "C#4",
      "midi": 61,
      "time": 43.913547333333106,
      "velocity": 0.33858267716535434,
      "duration": 0.11376566666666577
    },
    {
      "name": "E4",
      "midi": 64,
      "time": 44.02731299999977,
      "velocity": 0.3543307086614173,
      "duration": 0.11376566666666577
    },
    {
      "name": "C#4",
      "midi": 61,
      "time": 44.14107866666644,
      "velocity": 0.3464566929133858,
      "duration": 0.11376566666666577
    },
    {
      "name": "G#3",
      "midi": 56,
      "time": 44.254844333333104,
      "velocity": 0.33070866141732286,
      "duration": 0.11376566666666577
    },
    {
      "name": "D#3",
      "midi": 51,
      "time": 44.36860999999977,
      "velocity": 0.3464566929133858,
      "duration": 0.11376566666666577
    },
    {
      "name": "G#3",
      "midi": 56,
      "time": 44.482375666666435,
      "velocity": 0.3228346456692913,
      "duration": 0.11376566666666577
    },
    {
      "name": "C4",
      "midi": 60,
      "time": 44.5961413333331,
      "velocity": 0.3543307086614173,
      "duration": 0.11376566666666577
    },
    {
      "name": "F#4",
      "midi": 66,
      "time": 44.70990699999977,
      "velocity": 0.36220472440944884,
      "duration": 0.11376566666666577
    },
    {
      "name": "C4",
      "midi": 60,
      "time": 44.82367266666643,
      "velocity": 0.3464566929133858,
      "duration": 0.11376566666666577
    },
    {
      "name": "G#3",
      "midi": 56,
      "time": 44.9374383333331,
      "velocity": 0.3228346456692913,
      "duration": 0.11376566666666577
    },
    {
      "name": "E3",
      "midi": 52,
      "time": 45.051203999999764,
      "velocity": 0.2755905511811024,
      "duration": 0.11376566666666577
    },
    {
      "name": "G#3",
      "midi": 56,
      "time": 45.16496966666643,
      "velocity": 0.30708661417322836,
      "duration": 0.11376566666666577
    },
    {
      "name": "C#4",
      "midi": 61,
      "time": 45.278735333333096,
      "velocity": 0.33858267716535434,
      "duration": 0.11376566666666577
    },
    {
      "name": "E4",
      "midi": 64,
      "time": 45.39250099999976,
      "velocity": 0.3543307086614173,
      "duration": 0.11376566666666577
    },
    {
      "name": "C#4",
      "midi": 61,
      "time": 45.50626666666643,
      "velocity": 0.3464566929133858,
      "duration": 0.11376566666666577
    },
    {
      "name": "G#3",
      "midi": 56,
      "time": 45.62003233333309,
      "velocity": 0.33070866141732286,
      "duration": 0.11376566666666577
    },
    {
      "name": "F#3",
      "midi": 54,
      "time": 45.73379799999976,
      "velocity": 0.3464566929133858,
      "duration": 0.11376566666666577
    },
    {
      "name": "C#4",
      "midi": 61,
      "time": 45.847563666666424,
      "velocity": 0.3228346456692913,
      "duration": 0.11376566666666577
    },
    {
      "name": "D#4",
      "midi": 63,
      "time": 45.96132933333309,
      "velocity": 0.3543307086614173,
      "duration": 0.11376566666666577
    },
    {
      "name": "A4",
      "midi": 69,
      "time": 46.075094999999756,
      "velocity": 0.36220472440944884,
      "duration": 0.11376566666666577
    },
    {
      "name": "D#4",
      "midi": 63,
      "time": 46.18886066666642,
      "velocity": 0.3779527559055118,
      "duration": 0.11376566666666577
    },
    {
      "name": "C#4",
      "midi": 61,
      "time": 46.30262633333309,
      "velocity": 0.4015748031496063,
      "duration": 0.11376566666666577
    },
    {
      "name": "G#4",
      "midi": 68,
      "time": 46.41639199999975,
      "velocity": 0.5590551181102362,
      "duration": 0.17064849999999865
    },
    {
      "name": "E4",
      "midi": 64,
      "time": 46.41639199999975,
      "velocity": 0.5590551181102362,
      "duration": 0.17064849999999865
    },
    {
      "name": "C#4",
      "midi": 61,
      "time": 46.41639199999975,
      "velocity": 0.5590551181102362,
      "duration": 0.17064849999999865
    },
    {
      "name": "G#3",
      "midi": 56,
      "time": 46.41639199999975,
      "velocity": 0.5590551181102362,
      "duration": 0.17064849999999865
    },
    {
      "name": "A4",
      "midi": 69,
      "time": 47.098985999999755,
      "velocity": 0.5590551181102362,
      "duration": 0.3412970000000044
    },
    {
      "name": "E4",
      "midi": 64,
      "time": 47.098985999999755,
      "velocity": 0.5590551181102362,
      "duration": 0.3412970000000044
    },
    {
      "name": "C#4",
      "midi": 61,
      "time": 47.098985999999755,
      "velocity": 0.5590551181102362,
      "duration": 0.3412970000000044
    },
    {
      "name": "G3",
      "midi": 55,
      "time": 47.098985999999755,
      "velocity": 0.5590551181102362,
      "duration": 0.3412970000000044
    },
    {
      "name": "G#1",
      "midi": 32,
      "time": 49.14676799999976,
      "velocity": 0.6141732283464567,
      "duration": 0.08532424999999932
    },
    {
      "name": "G#2",
      "midi": 44,
      "time": 49.14676799999976,
      "velocity": 0.6141732283464567,
      "duration": 0.08532424999999932
    },
    {
      "name": "E5",
      "midi": 76,
      "time": 49.48806499999976,
      "velocity": 0.5905511811023622,
      "duration": 0.3412969999999973
    },
    {
      "name": "E4",
      "midi": 64,
      "time": 49.48806499999976,
      "velocity": 0.5905511811023622,
      "duration": 0.3412969999999973
    },
    {
      "name": "C#4",
      "midi": 61,
      "time": 49.829361999999755,
      "velocity": 0.6141732283464567,
      "duration": 0.3412969999999973
    },
    {
      "name": "C#5",
      "midi": 73,
      "time": 49.829361999999755,
      "velocity": 0.6141732283464567,
      "duration": 0.3412969999999973
    },
    {
      "name": "G#3",
      "midi": 56,
      "time": 50.17065899999975,
      "velocity": 0.6141732283464567,
      "duration": 0.3412969999999973
    },
    {
      "name": "G#4",
      "midi": 68,
      "time": 50.17065899999975,
      "velocity": 0.6141732283464567,
      "duration": 0.3412969999999973
    },
    {
      "name": "E3",
      "midi": 52,
      "time": 50.51195599999975,
      "velocity": 0.6141732283464567,
      "duration": 0.3412969999999973
    },
    {
      "name": "E4",
      "midi": 64,
      "time": 50.51195599999975,
      "velocity": 0.6141732283464567,
      "duration": 0.3412969999999973
    },
    {
      "name": "C#3",
      "midi": 49,
      "time": 50.85325299999975,
      "velocity": 0.5826771653543307,
      "duration": 0.3412969999999973
    },
    {
      "name": "C#4",
      "midi": 61,
      "time": 50.85325299999975,
      "velocity": 0.5826771653543307,
      "duration": 0.3412969999999973
    },
    {
      "name": "G#2",
      "midi": 44,
      "time": 51.194549999999744,
      "velocity": 0.6141732283464567,
      "duration": 0.3412969999999973
    },
    {
      "name": "G#3",
      "midi": 56,
      "time": 51.194549999999744,
      "velocity": 0.6141732283464567,
      "duration": 0.3412969999999973
    },
    {
      "name": "E2",
      "midi": 40,
      "time": 51.53584699999974,
      "velocity": 0.5826771653543307,
      "duration": 0.3412969999999973
    },
    {
      "name": "E3",
      "midi": 52,
      "time": 51.53584699999974,
      "velocity": 0.5826771653543307,
      "duration": 0.3412969999999973
    },
    {
      "name": "C#2",
      "midi": 37,
      "time": 51.87714399999974,
      "velocity": 0.6141732283464567,
      "duration": 0.3412969999999902
    },
    {
      "name": "C#3",
      "midi": 49,
      "time": 51.87714399999974,
      "velocity": 0.6141732283464567,
      "duration": 0.3412969999999902
    },
    {
      "name": "G#1",
      "midi": 32,
      "time": 52.21844099999973,
      "velocity": 0.5748031496062992,
      "duration": 0.3412969999999973
    },
    {
      "name": "G#2",
      "midi": 44,
      "time": 52.21844099999973,
      "velocity": 0.5748031496062992,
      "duration": 0.3412969999999973
    },
    {
      "name": "G#1",
      "midi": 32,
      "time": 52.559737999999726,
      "velocity": 0.6141732283464567,
      "duration": 0.3412969999999973
    },
    {
      "name": "G#2",
      "midi": 44,
      "time": 52.559737999999726,
      "velocity": 0.6141732283464567,
      "duration": 0.3412969999999973
    },
    {
      "name": "A1",
      "midi": 33,
      "time": 52.90103499999972,
      "velocity": 0.5826771653543307,
      "duration": 0.3412970000000044
    },
    {
      "name": "A2",
      "midi": 45,
      "time": 52.90103499999972,
      "velocity": 0.5826771653543307,
      "duration": 0.3412970000000044
    },
    {
      "name": "G#1",
      "midi": 32,
      "time": 53.24233199999973,
      "velocity": 0.6141732283464567,
      "duration": 0.3412969999999973
    },
    {
      "name": "G#2",
      "midi": 44,
      "time": 53.24233199999973,
      "velocity": 0.6141732283464567,
      "duration": 0.3412969999999973
    },
    {
      "name": "G1",
      "midi": 31,
      "time": 53.583628999999725,
      "velocity": 0.5669291338582677,
      "duration": 0.3412969999999973
    },
    {
      "name": "G2",
      "midi": 43,
      "time": 53.583628999999725,
      "velocity": 0.5669291338582677,
      "duration": 0.3412969999999973
    },
    {
      "name": "G#1",
      "midi": 32,
      "time": 53.92492599999972,
      "velocity": 0.5433070866141733,
      "duration": 0.6825939999999946
    },
    {
      "name": "G#2",
      "midi": 44,
      "time": 53.92492599999972,
      "velocity": 0.5433070866141733,
      "duration": 0.6825939999999946
    },
    {
      "name": "C#2",
      "midi": 37,
      "time": 54.60751999999972,
      "velocity": 0.7480314960629921,
      "duration": 0.11376566666666577
    },
    {
      "name": "G#2",
      "midi": 44,
      "time": 54.72128566666638,
      "velocity": 0.4330708661417323,
      "duration": 0.11376566666666577
    },
    {
      "name": "C#3",
      "midi": 49,
      "time": 54.83505133333305,
      "velocity": 0.4409448818897638,
      "duration": 0.11376566666666577
    },
    {
      "name": "F3",
      "midi": 53,
      "time": 54.948816999999714,
      "velocity": 0.4409448818897638,
      "duration": 0.11376566666666577
    },
    {
      "name": "G#3",
      "midi": 56,
      "time": 55.06258266666638,
      "velocity": 0.4566929133858268,
      "duration": 0.11376566666666577
    },
    {
      "name": "C#4",
      "midi": 61,
      "time": 55.176348333333046,
      "velocity": 0.4645669291338583,
      "duration": 0.11376566666666577
    },
    {
      "name": "F4",
      "midi": 65,
      "time": 55.29011399999971,
      "velocity": 0.4645669291338583,
      "duration": 0.11376566666666577
    },
    {
      "name": "C#4",
      "midi": 61,
      "time": 55.40387966666638,
      "velocity": 0.44881889763779526,
      "duration": 0.11376566666666577
    },
    {
      "name": "G#3",
      "midi": 56,
      "time": 55.51764533333304,
      "velocity": 0.4094488188976378,
      "duration": 0.11376566666666577
    },
    {
      "name": "F3",
      "midi": 53,
      "time": 55.63141099999971,
      "velocity": 0.3858267716535433,
      "duration": 0.11376566666666577
    },
    {
      "name": "C#3",
      "midi": 49,
      "time": 55.745176666666374,
      "velocity": 0.36220472440944884,
      "duration": 0.11376566666666577
    },
    {
      "name": "G#2",
      "midi": 44,
      "time": 55.85894233333304,
      "velocity": 0.3228346456692913,
      "duration": 0.11376566666666577
    },
    {
      "name": "C#2",
      "midi": 37,
      "time": 55.972707999999706,
      "velocity": 0.31496062992125984,
      "duration": 0.11376566666666577
    },
    {
      "name": "G#2",
      "midi": 44,
      "time": 56.08647366666637,
      "velocity": 0.3228346456692913,
      "duration": 0.11376566666666577
    },
    {
      "name": "C#3",
      "midi": 49,
      "time": 56.20023933333304,
      "velocity": 0.33070866141732286,
      "duration": 0.11376566666666577
    },
    {
      "name": "F3",
      "midi": 53,
      "time": 56.3140049999997,
      "velocity": 0.33858267716535434,
      "duration": 0.11376566666666577
    },
    {
      "name": "G#3",
      "midi": 56,
      "time": 56.42777066666637,
      "velocity": 0.3464566929133858,
      "duration": 0.11376566666666577
    },
    {
      "name": "C#4",
      "midi": 61,
      "time": 56.541536333333035,
      "velocity": 0.3543307086614173,
      "duration": 0.11376566666666577
    },
    {
      "name": "F4",
      "midi": 65,
      "time": 56.6553019999997,
      "velocity": 0.3543307086614173,
      "duration": 0.11376566666666577
    },
    {
      "name": "C#4",
      "midi": 61,
      "time": 56.769067666666366,
      "velocity": 0.3543307086614173,
      "duration": 0.11376566666666577
    },
    {
      "name": "G#3",
      "midi": 56,
      "time": 56.88283333333303,
      "velocity": 0.3464566929133858,
      "duration": 0.11376566666666577
    },
    {
      "name": "F3",
      "midi": 53,
      "time": 56.9965989999997,
      "velocity": 0.33858267716535434,
      "duration": 0.11376566666666577
    },
    {
      "name": "C#3",
      "midi": 49,
      "time": 57.110364666666364,
      "velocity": 0.33070866141732286,
      "duration": 0.11376566666666577
    },
    {
      "name": "G#2",
      "midi": 44,
      "time": 57.22413033333303,
      "velocity": 0.3228346456692913,
      "duration": 0.22753133333333153
    },
    {
      "name": "C#2",
      "midi": 37,
      "time": 57.337895999999695,
      "velocity": 0.1968503937007874,
      "duration": 0.11376566666666577
    },
    {
      "name": "G#3",
      "midi": 56,
      "time": 57.45166166666636,
      "velocity": 0.2047244094488189,
      "duration": 0.11376566666666577
    },
    {
      "name": "C4",
      "midi": 60,
      "time": 57.56542733333303,
      "velocity": 0.2125984251968504,
      "duration": 0.11376566666666577
    },
    {
      "name": "D#4",
      "midi": 63,
      "time": 57.67919299999969,
      "velocity": 0.2204724409448819,
      "duration": 0.11376566666666577
    },
    {
      "name": "C4",
      "midi": 60,
      "time": 57.79295866666636,
      "velocity": 0.2204724409448819,
      "duration": 0.11376566666666577
    },
    {
      "name": "G#3",
      "midi": 56,
      "time": 57.906724333333024,
      "velocity": 0.2125984251968504,
      "duration": 0.11376566666666577
    },
    {
      "name": "C#3",
      "midi": 49,
      "time": 58.02048999999969,
      "velocity": 0.2125984251968504,
      "duration": 0.11376566666666577
    },
    {
      "name": "G#3",
      "midi": 56,
      "time": 58.134255666666355,
      "velocity": 0.2125984251968504,
      "duration": 0.11376566666666577
    },
    {
      "name": "C4",
      "midi": 60,
      "time": 58.24802133333302,
      "velocity": 0.2204724409448819,
      "duration": 0.11376566666666577
    },
    {
      "name": "F#4",
      "midi": 66,
      "time": 58.36178699999969,
      "velocity": 0.2204724409448819,
      "duration": 0.11376566666666577
    },
    {
      "name": "C4",
      "midi": 60,
      "time": 58.47555266666635,
      "velocity": 0.2125984251968504,
      "duration": 0.11376566666666577
    },
    {
      "name": "G#3",
      "midi": 56,
      "time": 58.58931833333302,
      "velocity": 0.2047244094488189,
      "duration": 0.11376566666666577
    },
    {
      "name": "C#3",
      "midi": 49,
      "time": 58.703083999999684,
      "velocity": 0.2125984251968504,
      "duration": 0.11376566666666577
    },
    {
      "name": "G#3",
      "midi": 56,
      "time": 58.81684966666635,
      "velocity": 0.2204724409448819,
      "duration": 0.11376566666666577
    },
    {
      "name": "C#4",
      "midi": 61,
      "time": 58.930615333333016,
      "velocity": 0.2204724409448819,
      "duration": 0.11376566666666577
    },
    {
      "name": "F4",
      "midi": 65,
      "time": 59.04438099999968,
      "velocity": 0.2283464566929134,
      "duration": 0.11376566666666577
    },
    {
      "name": "C#4",
      "midi": 61,
      "time": 59.15814666666635,
      "velocity": 0.23622047244094488,
      "duration": 0.11376566666666577
    },
    {
      "name": "G#3",
      "midi": 56,
      "time": 59.27191233333301,
      "velocity": 0.2204724409448819,
      "duration": 0.11376566666666577
    },
    {
      "name": "C#3",
      "midi": 49,
      "time": 59.38567799999968,
      "velocity": 0.2125984251968504,
      "duration": 0.11376566666666577
    },
    {
      "name": "G#3",
      "midi": 56,
      "time": 59.499443666666345,
      "velocity": 0.2204724409448819,
      "duration": 0.11376566666666577
    },
    {
      "name": "F4",
      "midi": 65,
      "time": 59.61320933333301,
      "velocity": 0.2283464566929134,
      "duration": 0.11376566666666577
    },
    {
      "name": "F4",
      "midi": 65,
      "time": 59.84074066666634,
      "velocity": 0.23622047244094488,
      "duration": 0.11376566666666577
    },
    {
      "name": "G#3",
      "midi": 56,
      "time": 59.95450633333301,
      "velocity": 0.2283464566929134,
      "duration": 0.11376566666666577
    },
    {
      "name": "F#4",
      "midi": 66,
      "time": 60.06827199999967,
      "velocity": 0.23622047244094488,
      "duration": 0.11376566666667287
    },
    {
      "name": "D#4",
      "midi": 63,
      "time": 60.182037666666346,
      "velocity": 0.2047244094488189,
      "duration": 0.11376566666666577
    },
    {
      "name": "G#3",
      "midi": 56,
      "time": 60.29580333333301,
      "velocity": 0.2047244094488189,
      "duration": 0.11376566666666577
    },
    {
      "name": "F4",
      "midi": 65,
      "time": 60.40956899999968,
      "velocity": 0.23622047244094488,
      "duration": 0.11376566666666577
    },
    {
      "name": "C#4",
      "midi": 61,
      "time": 60.523334666666344,
      "velocity": 0.2047244094488189,
      "duration": 0.11376566666666577
    },
    {
      "name": "G#3",
      "midi": 56,
      "time": 60.63710033333301,
      "velocity": 0.2047244094488189,
      "duration": 0.11376566666666577
    },
    {
      "name": "D#4",
      "midi": 63,
      "time": 60.750865999999675,
      "velocity": 0.23622047244094488,
      "duration": 0.11376566666666577
    },
    {
      "name": "C4",
      "midi": 60,
      "time": 60.86463166666634,
      "velocity": 0.18110236220472442,
      "duration": 0.11376566666666577
    },
    {
      "name": "G#3",
      "midi": 56,
      "time": 60.97839733333301,
      "velocity": 0.18110236220472442,
      "duration": 0.11376566666666577
    },
    {
      "name": "C#4",
      "midi": 61,
      "time": 61.09216299999967,
      "velocity": 0.2283464566929134,
      "duration": 0.11376566666665866
    },
    {
      "name": "G#3",
      "midi": 56,
      "time": 61.20592866666633,
      "velocity": 0.1889763779527559,
      "duration": 0.11376566666666577
    },
    {
      "name": "F3",
      "midi": 53,
      "time": 61.319694333333,
      "velocity": 0.1889763779527559,
      "duration": 0.11376566666666577
    },
    {
      "name": "G#2",
      "midi": 44,
      "time": 61.43345999999966,
      "velocity": 0.2047244094488189,
      "duration": 0.11376566666666577
    },
    {
      "name": "D#3",
      "midi": 51,
      "time": 61.54722566666633,
      "velocity": 0.2125984251968504,
      "duration": 0.11376566666666577
    },
    {
      "name": "G#3",
      "midi": 56,
      "time": 61.660991333332994,
      "velocity": 0.2125984251968504,
      "duration": 0.11376566666666577
    },
    {
      "name": "C4",
      "midi": 60,
      "time": 61.77475699999966,
      "velocity": 0.2204724409448819,
      "duration": 0.11376566666666577
    },
    {
      "name": "G#3",
      "midi": 56,
      "time": 61.888522666666326,
      "velocity": 0.2125984251968504,
      "duration": 0.11376566666666577
    },
    {
      "name": "D#3",
      "midi": 51,
      "time": 62.00228833333299,
      "velocity": 0.2125984251968504,
      "duration": 0.11376566666666577
    },
    {
      "name": "F#2",
      "midi": 42,
      "time": 62.11605399999966,
      "velocity": 0.2125984251968504,
      "duration": 0.11376566666665866
    },
    {
      "name": "F#3",
      "midi": 54,
      "time": 62.229819666666316,
      "velocity": 0.2125984251968504,
      "duration": 0.11376566666666577
    },
    {
      "name": "A#3",
      "midi": 58,
      "time": 62.34358533333298,
      "velocity": 0.2204724409448819,
      "duration": 0.11376566666666577
    },
    {
      "name": "C#4",
      "midi": 61,
      "time": 62.45735099999965,
      "velocity": 0.2283464566929134,
      "duration": 0.11376566666666577
    },
    {
      "name": "A#3",
      "midi": 58,
      "time": 62.57111666666631,
      "velocity": 0.2204724409448819,
      "duration": 0.11376566666666577
    },
    {
      "name": "F#3",
      "midi": 54,
      "time": 62.68488233333298,
      "velocity": 0.2204724409448819,
      "duration": 0.11376566666666577
    },
    {
      "name": "A#2",
      "midi": 46,
      "time": 62.798647999999645,
      "velocity": 0.2125984251968504,
      "duration": 0.11376566666666577
    },
    {
      "name": "F3",
      "midi": 53,
      "time": 62.91241366666631,
      "velocity": 0.2125984251968504,
      "duration": 0.11376566666666577
    },
    {
      "name": "A#3",
      "midi": 58,
      "time": 63.026179333332976,
      "velocity": 0.2204724409448819,
      "duration": 0.11376566666666577
    },
    {
      "name": "D4",
      "midi": 62,
      "time": 63.13994499999964,
      "velocity": 0.2204724409448819,
      "duration": 0.11376566666666577
    },
    {
      "name": "A#3",
      "midi": 58,
      "time": 63.25371066666631,
      "velocity": 0.2204724409448819,
      "duration": 0.11376566666666577
    },
    {
      "name": "F3",
      "midi": 53,
      "time": 63.367476333332974,
      "velocity": 0.2125984251968504,
      "duration": 0.11376566666666577
    },
    {
      "name": "A#2",
      "midi": 46,
      "time": 63.48124199999964,
      "velocity": 0.2204724409448819,
      "duration": 0.11376566666666577
    },
    {
      "name": "A#3",
      "midi": 58,
      "time": 63.595007666666305,
      "velocity": 0.2283464566929134,
      "duration": 0.11376566666666577
    },
    {
      "name": "D4",
      "midi": 62,
      "time": 63.70877333333297,
      "velocity": 0.23622047244094488,
      "duration": 0.11376566666666577
    },
    {
      "name": "G#4",
      "midi": 68,
      "time": 63.82253899999964,
      "velocity": 0.25984251968503935,
      "duration": 0.11376566666666577
    },
    {
      "name": "D4",
      "midi": 62,
      "time": 63.9363046666663,
      "velocity": 0.2440944881889764,
      "duration": 0.11376566666666577
    },
    {
      "name": "A#3",
      "midi": 58,
      "time": 64.05007033333297,
      "velocity": 0.2283464566929134,
      "duration": 0.11376566666666577
    },
    {
      "name": "D#3",
      "midi": 51,
      "time": 64.16383599999963,
      "velocity": 0.2677165354330709,
      "duration": 0.11376566666665155
    },
    {
      "name": "F#4",
      "midi": 66,
      "time": 64.27760166666629,
      "velocity": 0.2440944881889764,
      "duration": 0.11376566666666577
    },
    {
      "name": "A#3",
      "midi": 58,
      "time": 64.39136733333295,
      "velocity": 0.2204724409448819,
      "duration": 0.11376566666666577
    },
    {
      "name": "F3",
      "midi": 53,
      "time": 64.50513299999962,
      "velocity": 0.25196850393700787,
      "duration": 0.11376566666666577
    },
    {
      "name": "F4",
      "midi": 65,
      "time": 64.61889866666628,
      "velocity": 0.23622047244094488,
      "duration": 0.11376566666666577
    },
    {
      "name": "A3",
      "midi": 57,
      "time": 64.73266433333295,
      "velocity": 0.2204724409448819,
      "duration": 0.11376566666666577
    },
    {
      "name": "F#3",
      "midi": 54,
      "time": 64.84642999999961,
      "velocity": 0.2440944881889764,
      "duration": 0.11376566666666577
    },
    {
      "name": "D#4",
      "midi": 63,
      "time": 64.96019566666628,
      "velocity": 0.2204724409448819,
      "duration": 0.11376566666666577
    },
    {
      "name": "A#3",
      "midi": 58,
      "time": 65.07396133333295,
      "velocity": 0.2283464566929134,
      "duration": 0.11376566666666577
    },
    {
      "name": "G#3",
      "midi": 56,
      "time": 65.18772699999961,
      "velocity": 0.23622047244094488,
      "duration": 0.11376566666666577
    },
    {
      "name": "F#4",
      "midi": 66,
      "time": 65.30149266666628,
      "velocity": 0.2125984251968504,
      "duration": 0.11376566666666577
    },
    {
      "name": "C4",
      "midi": 60,
      "time": 65.41525833333294,
      "velocity": 0.2125984251968504,
      "duration": 0.11376566666666577
    },
    {
      "name": "C#3",
      "midi": 49,
      "time": 65.52902399999961,
      "velocity": 0.1968503937007874,
      "duration": 0.11376566666666577
    },
    {
      "name": "G#3",
      "midi": 56,
      "time": 65.64278966666627,
      "velocity": 0.2125984251968504,
      "duration": 0.11376566666666577
    },
    {
      "name": "C#4",
      "midi": 61,
      "time": 65.75655533333294,
      "velocity": 0.2283464566929134,
      "duration": 0.11376566666666577
    },
    {
      "name": "F4",
      "midi": 65,
      "time": 65.8703209999996,
      "velocity": 0.23622047244094488,
      "duration": 0.11376566666666577
    },
    {
      "name": "C#4",
      "midi": 61,
      "time": 65.98408666666627,
      "velocity": 0.2283464566929134,
      "duration": 0.11376566666666577
    },
    {
      "name": "G#3",
      "midi": 56,
      "time": 66.09785233333294,
      "velocity": 0.2125984251968504,
      "duration": 0.11376566666666577
    },
    {
      "name": "D#3",
      "midi": 51,
      "time": 66.2116179999996,
      "velocity": 0.2125984251968504,
      "duration": 0.11376566666666577
    },
    {
      "name": "G3",
      "midi": 55,
      "time": 66.32538366666627,
      "velocity": 0.2204724409448819,
      "duration": 0.11376566666666577
    },
    {
      "name": "C#4",
      "midi": 61,
      "time": 66.43914933333294,
      "velocity": 0.2283464566929134,
      "duration": 0.11376566666666577
    },
    {
      "name": "D#4",
      "midi": 63,
      "time": 66.5529149999996,
      "velocity": 0.23622047244094488,
      "duration": 0.11376566666666577
    },
    {
      "name": "C#4",
      "midi": 61,
      "time": 66.66668066666627,
      "velocity": 0.2283464566929134,
      "duration": 0.11376566666666577
    },
    {
      "name": "G3",
      "midi": 55,
      "time": 66.78044633333293,
      "velocity": 0.2125984251968504,
      "duration": 0.11376566666666577
    },
    {
      "name": "G#2",
      "midi": 44,
      "time": 66.8942119999996,
      "velocity": 0.18110236220472442,
      "duration": 0.11376566666665155
    },
    {
      "name": "D#3",
      "midi": 51,
      "time": 67.00797766666625,
      "velocity": 0.1968503937007874,
      "duration": 0.11376566666666577
    },
    {
      "name": "G#3",
      "midi": 56,
      "time": 67.12174333333292,
      "velocity": 0.2125984251968504,
      "duration": 0.11376566666666577
    },
    {
      "name": "C4",
      "midi": 60,
      "time": 67.23550899999958,
      "velocity": 0.2204724409448819,
      "duration": 0.11376566666666577
    },
    {
      "name": "G#3",
      "midi": 56,
      "time": 67.34927466666625,
      "velocity": 0.2125984251968504,
      "duration": 0.11376566666666577
    },
    {
      "name": "D#3",
      "midi": 51,
      "time": 67.46304033333291,
      "velocity": 0.2125984251968504,
      "duration": 0.11376566666666577
    },
    {
      "name": "G#2",
      "midi": 44,
      "time": 67.57680599999958,
      "velocity": 0.1968503937007874,
      "duration": 0.11376566666666577
    },
    {
      "name": "D#3",
      "midi": 51,
      "time": 67.69057166666624,
      "velocity": 0.1968503937007874,
      "duration": 0.11376566666666577
    },
    {
      "name": "F#3",
      "midi": 54,
      "time": 67.80433733333291,
      "velocity": 0.2125984251968504,
      "duration": 0.11376566666666577
    },
    {
      "name": "A#3",
      "midi": 58,
      "time": 67.91810299999958,
      "velocity": 0.2204724409448819,
      "duration": 0.11376566666666577
    },
    {
      "name": "F#3",
      "midi": 54,
      "time": 68.03186866666624,
      "velocity": 0.2047244094488189,
      "duration": 0.11376566666666577
    },
    {
      "name": "D#3",
      "midi": 51,
      "time": 68.14563433333291,
      "velocity": 0.1968503937007874,
      "duration": 0.11376566666666577
    },
    {
      "name": "G#2",
      "midi": 44,
      "time": 68.25939999999957,
      "velocity": 0.1889763779527559,
      "duration": 0.11376566666665155
    },
    {
      "name": "D#3",
      "midi": 51,
      "time": 68.37316566666622,
      "velocity": 0.2047244094488189,
      "duration": 0.11376566666666577
    },
    {
      "name": "G#3",
      "midi": 56,
      "time": 68.48693133333289,
      "velocity": 0.2125984251968504,
      "duration": 0.11376566666666577
    },
    {
      "name": "C4",
      "midi": 60,
      "time": 68.60069699999956,
      "velocity": 0.2204724409448819,
      "duration": 0.11376566666666577
    },
    {
      "name": "G#3",
      "midi": 56,
      "time": 68.71446266666622,
      "velocity": 0.2204724409448819,
      "duration": 0.11376566666666577
    },
    {
      "name": "D#3",
      "midi": 51,
      "time": 68.82822833333289,
      "velocity": 0.2125984251968504,
      "duration": 0.11376566666666577
    },
    {
      "name": "G#2",
      "midi": 44,
      "time": 68.94199399999955,
      "velocity": 0.2125984251968504,
      "duration": 0.11376566666666577
    },
    {
      "name": "G#3",
      "midi": 56,
      "time": 69.05575966666622,
      "velocity": 0.2125984251968504,
      "duration": 0.11376566666666577
    },
    {
      "name": "C4",
      "midi": 60,
      "time": 69.16952533333288,
      "velocity": 0.2204724409448819,
      "duration": 0.11376566666666577
    },
    {
      "name": "F#4",
      "midi": 66,
      "time": 69.28329099999955,
      "velocity": 0.2204724409448819,
      "duration": 0.11376566666666577
    },
    {
      "name": "C4",
      "midi": 60,
      "time": 69.39705666666622,
      "velocity": 0.2125984251968504,
      "duration": 0.11376566666666577
    },
    {
      "name": "A#3",
      "midi": 58,
      "time": 69.51082233333288,
      "velocity": 0.2047244094488189,
      "duration": 0.11376566666666577
    },
    {
      "name": "C#3",
      "midi": 49,
      "time": 69.62458799999955,
      "velocity": 0.2125984251968504,
      "duration": 0.11376566666666577
    },
    {
      "name": "G#3",
      "midi": 56,
      "time": 69.73835366666621,
      "velocity": 0.2204724409448819,
      "duration": 0.11376566666666577
    },
    {
      "name": "C#4",
      "midi": 61,
      "time": 69.85211933333288,
      "velocity": 0.2204724409448819,
      "duration": 0.11376566666666577
    },
    {
      "name": "F4",
      "midi": 65,
      "time": 69.96588499999955,
      "velocity": 0.2283464566929134,
      "duration": 0.11376566666666577
    },
    {
      "name": "C#4",
      "midi": 61,
      "time": 70.07965066666621,
      "velocity": 0.23622047244094488,
      "duration": 0.11376566666666577
    },
    {
      "name": "G#3",
      "midi": 56,
      "time": 70.19341633333288,
      "velocity": 0.2204724409448819,
      "duration": 0.11376566666666577
    },
    {
      "name": "C#3",
      "midi": 49,
      "time": 70.30718199999954,
      "velocity": 0.2125984251968504,
      "duration": 0.11376566666665155
    },
    {
      "name": "G#3",
      "midi": 56,
      "time": 70.4209476666662,
      "velocity": 0.2204724409448819,
      "duration": 0.11376566666666577
    },
    {
      "name": "F4",
      "midi": 65,
      "time": 70.53471333333286,
      "velocity": 0.2283464566929134,
      "duration": 0.11376566666666577
    },
    {
      "name": "F4",
      "midi": 65,
      "time": 70.76224466666619,
      "velocity": 0.23622047244094488,
      "duration": 0.11376566666666577
    },
    {
      "name": "G#3",
      "midi": 56,
      "time": 70.87601033333286,
      "velocity": 0.2283464566929134,
      "duration": 0.11376566666666577
    },
    {
      "name": "F#4",
      "midi": 66,
      "time": 70.98977599999952,
      "velocity": 0.23622047244094488,
      "duration": 0.11376566666665155
    },
    {
      "name": "D#4",
      "midi": 63,
      "time": 71.10354166666617,
      "velocity": 0.2047244094488189,
      "duration": 0.11376566666666577
    },
    {
      "name": "G#3",
      "midi": 56,
      "time": 71.21730733333284,
      "velocity": 0.2047244094488189,
      "duration": 0.11376566666666577
    },
    {
      "name": "F4",
      "midi": 65,
      "time": 71.3310729999995,
      "velocity": 0.23622047244094488,
      "duration": 0.11376566666666577
    },
    {
      "name": "C#4",
      "midi": 61,
      "time": 71.44483866666617,
      "velocity": 0.2047244094488189,
      "duration": 0.11376566666666577
    },
    {
      "name": "G#3",
      "midi": 56,
      "time": 71.55860433333284,
      "velocity": 0.2047244094488189,
      "duration": 0.11376566666666577
    },
    {
      "name": "D#4",
      "midi": 63,
      "time": 71.6723699999995,
      "velocity": 0.23622047244094488,
      "duration": 0.11376566666666577
    },
    {
      "name": "C4",
      "midi": 60,
      "time": 71.78613566666617,
      "velocity": 0.18110236220472442,
      "duration": 0.11376566666666577
    },
    {
      "name": "G#3",
      "midi": 56,
      "time": 71.89990133333283,
      "velocity": 0.18110236220472442,
      "duration": 0.11376566666666577
    },
    {
      "name": "C#4",
      "midi": 61,
      "time": 72.0136669999995,
      "velocity": 0.2283464566929134,
      "duration": 0.11376566666666577
    },
    {
      "name": "G#3",
      "midi": 56,
      "time": 72.12743266666617,
      "velocity": 0.1889763779527559,
      "duration": 0.11376566666666577
    },
    {
      "name": "F3",
      "midi": 53,
      "time": 72.24119833333283,
      "velocity": 0.1889763779527559,
      "duration": 0.11376566666666577
    },
    {
      "name": "G#2",
      "midi": 44,
      "time": 72.3549639999995,
      "velocity": 0.2047244094488189,
      "duration": 0.11376566666666577
    },
    {
      "name": "D#3",
      "midi": 51,
      "time": 72.46872966666616,
      "velocity": 0.2125984251968504,
      "duration": 0.11376566666666577
    },
    {
      "name": "G#3",
      "midi": 56,
      "time": 72.58249533333283,
      "velocity": 0.2125984251968504,
      "duration": 0.11376566666666577
    },
    {
      "name": "C4",
      "midi": 60,
      "time": 72.6962609999995,
      "velocity": 0.2204724409448819,
      "duration": 0.11376566666666577
    },
    {
      "name": "G#3",
      "midi": 56,
      "time": 72.81002666666616,
      "velocity": 0.2125984251968504,
      "duration": 0.11376566666666577
    },
    {
      "name": "D#3",
      "midi": 51,
      "time": 72.92379233333283,
      "velocity": 0.2125984251968504,
      "duration": 0.11376566666666577
    },
    {
      "name": "F#2",
      "midi": 42,
      "time": 73.03755799999949,
      "velocity": 0.2125984251968504,
      "duration": 0.11376566666666577
    },
    {
      "name": "F#3",
      "midi": 54,
      "time": 73.15132366666616,
      "velocity": 0.2125984251968504,
      "duration": 0.11376566666666577
    },
    {
      "name": "A#3",
      "midi": 58,
      "time": 73.26508933333282,
      "velocity": 0.2204724409448819,
      "duration": 0.11376566666666577
    },
    {
      "name": "C#4",
      "midi": 61,
      "time": 73.37885499999949,
      "velocity": 0.2283464566929134,
      "duration": 0.11376566666666577
    },
    {
      "name": "A#3",
      "midi": 58,
      "time": 73.49262066666616,
      "velocity": 0.2204724409448819,
      "duration": 0.11376566666666577
    },
    {
      "name": "F#3",
      "midi": 54,
      "time": 73.60638633333282,
      "velocity": 0.2204724409448819,
      "duration": 0.11376566666666577
    },
    {
      "name": "A#2",
      "midi": 46,
      "time": 73.72015199999949,
      "velocity": 0.2125984251968504,
      "duration": 0.11376566666667998
    },
    {
      "name": "F3",
      "midi": 53,
      "time": 73.83391766666617,
      "velocity": 0.2125984251968504,
      "duration": 0.11376566666666577
    },
    {
      "name": "A#3",
      "midi": 58,
      "time": 73.94768333333283,
      "velocity": 0.2204724409448819,
      "duration": 0.11376566666666577
    },
    {
      "name": "D4",
      "midi": 62,
      "time": 74.0614489999995,
      "velocity": 0.2204724409448819,
      "duration": 0.11376566666666577
    },
    {
      "name": "A#3",
      "midi": 58,
      "time": 74.17521466666616,
      "velocity": 0.2204724409448819,
      "duration": 0.11376566666666577
    },
    {
      "name": "F3",
      "midi": 53,
      "time": 74.28898033333283,
      "velocity": 0.2125984251968504,
      "duration": 0.11376566666666577
    },
    {
      "name": "A#2",
      "midi": 46,
      "time": 74.4027459999995,
      "velocity": 0.2204724409448819,
      "duration": 0.11376566666665155
    },
    {
      "name": "A#3",
      "midi": 58,
      "time": 74.51651166666615,
      "velocity": 0.2283464566929134,
      "duration": 0.11376566666666577
    },
    {
      "name": "D4",
      "midi": 62,
      "time": 74.63027733333281,
      "velocity": 0.23622047244094488,
      "duration": 0.11376566666666577
    },
    {
      "name": "G#4",
      "midi": 68,
      "time": 74.74404299999948,
      "velocity": 0.25984251968503935,
      "duration": 0.11376566666666577
    },
    {
      "name": "D4",
      "midi": 62,
      "time": 74.85780866666614,
      "velocity": 0.2440944881889764,
      "duration": 0.11376566666666577
    },
    {
      "name": "A#3",
      "midi": 58,
      "time": 74.97157433333281,
      "velocity": 0.2283464566929134,
      "duration": 0.11376566666666577
    },
    {
      "name": "D#3",
      "midi": 51,
      "time": 75.08533999999948,
      "velocity": 0.2677165354330709,
      "duration": 0.11376566666665155
    },
    {
      "name": "F#4",
      "midi": 66,
      "time": 75.19910566666613,
      "velocity": 0.2440944881889764,
      "duration": 0.11376566666666577
    },
    {
      "name": "A#3",
      "midi": 58,
      "time": 75.3128713333328,
      "velocity": 0.2204724409448819,
      "duration": 0.11376566666666577
    },
    {
      "name": "F3",
      "midi": 53,
      "time": 75.42663699999946,
      "velocity": 0.25196850393700787,
      "duration": 0.11376566666666577
    },
    {
      "name": "F4",
      "midi": 65,
      "time": 75.54040266666613,
      "velocity": 0.23622047244094488,
      "duration": 0.11376566666666577
    },
    {
      "name": "A3",
      "midi": 57,
      "time": 75.65416833333279,
      "velocity": 0.2204724409448819,
      "duration": 0.11376566666666577
    },
    {
      "name": "F#3",
      "midi": 54,
      "time": 75.76793399999946,
      "velocity": 0.2440944881889764,
      "duration": 0.11376566666666577
    },
    {
      "name": "D#4",
      "midi": 63,
      "time": 75.88169966666612,
      "velocity": 0.2204724409448819,
      "duration": 0.11376566666666577
    },
    {
      "name": "A#3",
      "midi": 58,
      "time": 75.99546533333279,
      "velocity": 0.2283464566929134,
      "duration": 0.11376566666666577
    },
    {
      "name": "G#3",
      "midi": 56,
      "time": 76.10923099999945,
      "velocity": 0.23622047244094488,
      "duration": 0.11376566666666577
    },
    {
      "name": "F#4",
      "midi": 66,
      "time": 76.22299666666612,
      "velocity": 0.2125984251968504,
      "duration": 0.11376566666666577
    },
    {
      "name": "C4",
      "midi": 60,
      "time": 76.33676233333279,
      "velocity": 0.2125984251968504,
      "duration": 0.11376566666666577
    },
    {
      "name": "C#3",
      "midi": 49,
      "time": 76.45052799999945,
      "velocity": 0.1968503937007874,
      "duration": 0.11376566666666577
    },
    {
      "name": "G#3",
      "midi": 56,
      "time": 76.56429366666612,
      "velocity": 0.2125984251968504,
      "duration": 0.11376566666666577
    },
    {
      "name": "C#4",
      "midi": 61,
      "time": 76.67805933333278,
      "velocity": 0.2283464566929134,
      "duration": 0.11376566666666577
    },
    {
      "name": "F4",
      "midi": 65,
      "time": 76.79182499999945,
      "velocity": 0.23622047244094488,
      "duration": 0.11376566666666577
    },
    {
      "name": "C#4",
      "midi": 61,
      "time": 76.90559066666611,
      "velocity": 0.2283464566929134,
      "duration": 0.11376566666666577
    },
    {
      "name": "G#3",
      "midi": 56,
      "time": 77.01935633333278,
      "velocity": 0.2125984251968504,
      "duration": 0.11376566666666577
    },
    {
      "name": "C#3",
      "midi": 49,
      "time": 77.13312199999945,
      "velocity": 0.2125984251968504,
      "duration": 0.11376566666666577
    },
    {
      "name": "G#3",
      "midi": 56,
      "time": 77.24688766666611,
      "velocity": 0.2204724409448819,
      "duration": 0.11376566666666577
    },
    {
      "name": "C4",
      "midi": 60,
      "time": 77.36065333333278,
      "velocity": 0.2283464566929134,
      "duration": 0.11376566666666577
    },
    {
      "name": "F#4",
      "midi": 66,
      "time": 77.47441899999944,
      "velocity": 0.23622047244094488,
      "duration": 0.11376566666666577
    },
    {
      "name": "C4",
      "midi": 60,
      "time": 77.58818466666611,
      "velocity": 0.2283464566929134,
      "duration": 0.11376566666666577
    },
    {
      "name": "G#3",
      "midi": 56,
      "time": 77.70195033333277,
      "velocity": 0.2125984251968504,
      "duration": 0.11376566666666577
    },
    {
      "name": "C#3",
      "midi": 49,
      "time": 77.81571599999944,
      "velocity": 0.2125984251968504,
      "duration": 0.11376566666665155
    },
    {
      "name": "G#3",
      "midi": 56,
      "time": 77.92948166666609,
      "velocity": 0.2204724409448819,
      "duration": 0.11376566666666577
    },
    {
      "name": "C4",
      "midi": 60,
      "time": 78.04324733333276,
      "velocity": 0.23622047244094488,
      "duration": 0.11376566666666577
    },
    {
      "name": "F#4",
      "midi": 66,
      "time": 78.15701299999942,
      "velocity": 0.2440944881889764,
      "duration": 0.11376566666666577
    },
    {
      "name": "C4",
      "midi": 60,
      "time": 78.27077866666609,
      "velocity": 0.23622047244094488,
      "duration": 0.11376566666666577
    },
    {
      "name": "G#3",
      "midi": 56,
      "time": 78.38454433333276,
      "velocity": 0.2204724409448819,
      "duration": 0.11376566666666577
    },
    {
      "name": "C#3",
      "midi": 49,
      "time": 78.49830999999942,
      "velocity": 0.2125984251968504,
      "duration": 0.11376566666666577
    },
    {
      "name": "G#3",
      "midi": 56,
      "time": 78.61207566666609,
      "velocity": 0.2125984251968504,
      "duration": 0.11376566666666577
    },
    {
      "name": "C#4",
      "midi": 61,
      "time": 78.72584133333275,
      "velocity": 0.2204724409448819,
      "duration": 0.11376566666666577
    },
    {
      "name": "F4",
      "midi": 65,
      "time": 78.83960699999942,
      "velocity": 0.23622047244094488,
      "duration": 0.11376566666666577
    },
    {
      "name": "C#4",
      "midi": 61,
      "time": 78.95337266666608,
      "velocity": 0.2204724409448819,
      "duration": 0.11376566666666577
    },
    {
      "name": "G#3",
      "midi": 56,
      "time": 79.06713833333275,
      "velocity": 0.2125984251968504,
      "duration": 0.11376566666666577
    },
    {
      "name": "G#2",
      "midi": 44,
      "time": 79.18090399999942,
      "velocity": 0.2677165354330709,
      "duration": 0.11376566666667998
    },
    {
      "name": "D#3",
      "midi": 51,
      "time": 79.2946696666661,
      "velocity": 0.25984251968503935,
      "duration": 0.11376566666666577
    },
    {
      "name": "G#3",
      "midi": 56,
      "time": 79.40843533333276,
      "velocity": 0.2677165354330709,
      "duration": 0.11376566666666577
    },
    {
      "name": "C4",
      "midi": 60,
      "time": 79.52220099999943,
      "velocity": 0.2677165354330709,
      "duration": 0.11376566666666577
    },
    {
      "name": "G#3",
      "midi": 56,
      "time": 79.63596666666609,
      "velocity": 0.25984251968503935,
      "duration": 0.11376566666666577
    },
    {
      "name": "D#3",
      "midi": 51,
      "time": 79.74973233333276,
      "velocity": 0.25196850393700787,
      "duration": 0.11376566666666577
    },
    {
      "name": "G#2",
      "midi": 44,
      "time": 79.86349799999942,
      "velocity": 0.2440944881889764,
      "duration": 0.11376566666666577
    },
    {
      "name": "D#3",
      "midi": 51,
      "time": 79.97726366666609,
      "velocity": 0.25984251968503935,
      "duration": 0.11376566666666577
    },
    {
      "name": "G3",
      "midi": 55,
      "time": 80.09102933333276,
      "velocity": 0.2677165354330709,
      "duration": 0.11376566666666577
    },
    {
      "name": "C#4",
      "midi": 61,
      "time": 80.20479499999942,
      "velocity": 0.2677165354330709,
      "duration": 0.11376566666666577
    },
    {
      "name": "G3",
      "midi": 55,
      "time": 80.31856066666609,
      "velocity": 0.25984251968503935,
      "duration": 0.11376566666666577
    },
    {
      "name": "D#3",
      "midi": 51,
      "time": 80.43232633333275,
      "velocity": 0.23622047244094488,
      "duration": 0.11376566666666577
    },
    {
      "name": "G#2",
      "midi": 44,
      "time": 80.54609199999942,
      "velocity": 0.28346456692913385,
      "duration": 0.11376566666666577
    },
    {
      "name": "D#3",
      "midi": 51,
      "time": 80.65985766666608,
      "velocity": 0.23622047244094488,
      "duration": 0.11376566666666577
    },
    {
      "name": "G#3",
      "midi": 56,
      "time": 80.77362333333275,
      "velocity": 0.25196850393700787,
      "duration": 0.11376566666666577
    },
    {
      "name": "C4",
      "midi": 60,
      "time": 80.88738899999942,
      "velocity": 0.25984251968503935,
      "duration": 0.11376566666666577
    },
    {
      "name": "G#3",
      "midi": 56,
      "time": 81.00115466666608,
      "velocity": 0.25196850393700787,
      "duration": 0.11376566666666577
    },
    {
      "name": "D#3",
      "midi": 51,
      "time": 81.11492033333275,
      "velocity": 0.23622047244094488,
      "duration": 0.11376566666666577
    },
    {
      "name": "C#3",
      "midi": 49,
      "time": 81.22868599999941,
      "velocity": 0.2125984251968504,
      "duration": 0.11376566666666577
    },
    {
      "name": "G#3",
      "midi": 56,
      "time": 81.34245166666608,
      "velocity": 0.2283464566929134,
      "duration": 0.11376566666666577
    },
    {
      "name": "C#4",
      "midi": 61,
      "time": 81.45621733333275,
      "velocity": 0.23622047244094488,
      "duration": 0.11376566666666577
    },
    {
      "name": "E4",
      "midi": 64,
      "time": 81.56998299999941,
      "velocity": 0.2440944881889764,
      "duration": 0.11376566666666577
    },
    {
      "name": "C#4",
      "midi": 61,
      "time": 81.68374866666608,
      "velocity": 0.23622047244094488,
      "duration": 0.11376566666666577
    },
    {
      "name": "G#3",
      "midi": 56,
      "time": 81.79751433333274,
      "velocity": 0.2283464566929134,
      "duration": 0.11376566666666577
    },
    {
      "name": "D#2",
      "midi": 39,
      "time": 81.91127999999941,
      "velocity": 0.2677165354330709,
      "duration": 0.11376566666667998
    },
    {
      "name": "D#3",
      "midi": 51,
      "time": 82.02504566666609,
      "velocity": 0.25984251968503935,
      "duration": 0.11376566666666577
    },
    {
      "name": "G#3",
      "midi": 56,
      "time": 82.13881133333275,
      "velocity": 0.2677165354330709,
      "duration": 0.11376566666666577
    },
    {
      "name": "C4",
      "midi": 60,
      "time": 82.25257699999942,
      "velocity": 0.2677165354330709,
      "duration": 0.11376566666666577
    },
    {
      "name": "G#3",
      "midi": 56,
      "time": 82.36634266666609,
      "velocity": 0.25984251968503935,
      "duration": 0.11376566666666577
    },
    {
      "name": "D#3",
      "midi": 51,
      "time": 82.48010833333275,
      "velocity": 0.25196850393700787,
      "duration": 0.11376566666666577
    },
    {
      "name": "D#2",
      "midi": 39,
      "time": 82.59387399999942,
      "velocity": 0.2440944881889764,
      "duration": 0.11376566666666577
    },
    {
      "name": "D#3",
      "midi": 51,
      "time": 82.70763966666608,
      "velocity": 0.25984251968503935,
      "duration": 0.11376566666666577
    },
    {
      "name": "G3",
      "midi": 55,
      "time": 82.82140533333275,
      "velocity": 0.2677165354330709,
      "duration": 0.11376566666666577
    },
    {
      "name": "C#4",
      "midi": 61,
      "time": 82.93517099999941,
      "velocity": 0.2677165354330709,
      "duration": 0.11376566666666577
    },
    {
      "name": "G3",
      "midi": 55,
      "time": 83.04893666666608,
      "velocity": 0.25984251968503935,
      "duration": 0.11376566666666577
    },
    {
      "name": "D#3",
      "midi": 51,
      "time": 83.16270233333275,
      "velocity": 0.23622047244094488,
      "duration": 0.11376566666666577
    },
    {
      "name": "G#2",
      "midi": 44,
      "time": 83.27646799999941,
      "velocity": 0.2677165354330709,
      "duration": 0.11376566666666577
    },
    {
      "name": "D#3",
      "midi": 51,
      "time": 83.39023366666608,
      "velocity": 0.23622047244094488,
      "duration": 0.11376566666666577
    },
    {
      "name": "G#3",
      "midi": 56,
      "time": 83.50399933333274,
      "velocity": 0.25196850393700787,
      "duration": 0.11376566666666577
    },
    {
      "name": "C4",
      "midi": 60,
      "time": 83.61776499999941,
      "velocity": 0.25984251968503935,
      "duration": 0.11376566666666577
    },
    {
      "name": "G#3",
      "midi": 56,
      "time": 83.73153066666607,
      "velocity": 0.25196850393700787,
      "duration": 0.11376566666666577
    },
    {
      "name": "D#3",
      "midi": 51,
      "time": 83.84529633333274,
      "velocity": 0.23622047244094488,
      "duration": 0.11376566666666577
    },
    {
      "name": "F#2",
      "midi": 42,
      "time": 83.9590619999994,
      "velocity": 0.14960629921259844,
      "duration": 0.11376566666666577
    },
    {
      "name": "F#3",
      "midi": 54,
      "time": 84.07282766666607,
      "velocity": 0.15748031496062992,
      "duration": 0.11376566666666577
    },
    {
      "name": "A#3",
      "midi": 58,
      "time": 84.18659333333274,
      "velocity": 0.1732283464566929,
      "duration": 0.11376566666666577
    },
    {
      "name": "C#4",
      "midi": 61,
      "time": 84.3003589999994,
      "velocity": 0.1732283464566929,
      "duration": 0.11376566666666577
    },
    {
      "name": "A#3",
      "midi": 58,
      "time": 84.41412466666607,
      "velocity": 0.15748031496062992,
      "duration": 0.11376566666666577
    },
    {
      "name": "F#3",
      "midi": 54,
      "time": 84.52789033333273,
      "velocity": 0.15748031496062992,
      "duration": 0.11376566666666577
    },
    {
      "name": "G#2",
      "midi": 44,
      "time": 84.6416559999994,
      "velocity": 0.16535433070866143,
      "duration": 0.11376566666667998
    },
    {
      "name": "G#3",
      "midi": 56,
      "time": 84.75542166666608,
      "velocity": 0.1732283464566929,
      "duration": 0.11376566666666577
    },
    {
      "name": "C4",
      "midi": 60,
      "time": 84.86918733333275,
      "velocity": 0.1732283464566929,
      "duration": 0.11376566666666577
    },
    {
      "name": "D#4",
      "midi": 63,
      "time": 84.98295299999941,
      "velocity": 0.18110236220472442,
      "duration": 0.11376566666666577
    },
    {
      "name": "C4",
      "midi": 60,
      "time": 85.09671866666608,
      "velocity": 0.18110236220472442,
      "duration": 0.11376566666666577
    },
    {
      "name": "G#3",
      "midi": 56,
      "time": 85.21048433333274,
      "velocity": 0.1732283464566929,
      "duration": 0.11376566666666577
    },
    {
      "name": "C#3",
      "midi": 49,
      "time": 85.32424999999941,
      "velocity": 0.1732283464566929,
      "duration": 0.11376566666666577
    },
    {
      "name": "G#3",
      "midi": 56,
      "time": 85.43801566666608,
      "velocity": 0.18110236220472442,
      "duration": 0.11376566666666577
    },
    {
      "name": "C4",
      "midi": 60,
      "time": 85.55178133333274,
      "velocity": 0.1968503937007874,
      "duration": 0.11376566666666577
    },
    {
      "name": "F#4",
      "midi": 66,
      "time": 85.6655469999994,
      "velocity": 0.2125984251968504,
      "duration": 0.11376566666666577
    },
    {
      "name": "C4",
      "midi": 60,
      "time": 85.77931266666607,
      "velocity": 0.2047244094488189,
      "duration": 0.11376566666666577
    },
    {
      "name": "G#3",
      "midi": 56,
      "time": 85.89307833333274,
      "velocity": 0.1968503937007874,
      "duration": 0.11376566666666577
    },
    {
      "name": "C#3",
      "midi": 49,
      "time": 86.0068439999994,
      "velocity": 0.2125984251968504,
      "duration": 0.11376566666666577
    },
    {
      "name": "G#3",
      "midi": 56,
      "time": 86.12060966666607,
      "velocity": 0.2204724409448819,
      "duration": 0.11376566666666577
    },
    {
      "name": "C#4",
      "midi": 61,
      "time": 86.23437533333274,
      "velocity": 0.2204724409448819,
      "duration": 0.11376566666666577
    },
    {
      "name": "F4",
      "midi": 65,
      "time": 86.3481409999994,
      "velocity": 0.2283464566929134,
      "duration": 0.11376566666666577
    },
    {
      "name": "C#4",
      "midi": 61,
      "time": 86.46190666666607,
      "velocity": 0.23622047244094488,
      "duration": 0.11376566666666577
    },
    {
      "name": "G#3",
      "midi": 56,
      "time": 86.57567233333273,
      "velocity": 0.2204724409448819,
      "duration": 0.11376566666666577
    },
    {
      "name": "C#3",
      "midi": 49,
      "time": 86.6894379999994,
      "velocity": 0.2125984251968504,
      "duration": 0.11376566666666577
    },
    {
      "name": "G#3",
      "midi": 56,
      "time": 86.80320366666606,
      "velocity": 0.2204724409448819,
      "duration": 0.11376566666666577
    },
    {
      "name": "F4",
      "midi": 65,
      "time": 86.91696933333273,
      "velocity": 0.2283464566929134,
      "duration": 0.11376566666666577
    },
    {
      "name": "F4",
      "midi": 65,
      "time": 87.14450066666606,
      "velocity": 0.23622047244094488,
      "duration": 0.11376566666666577
    },
    {
      "name": "G#3",
      "midi": 56,
      "time": 87.25826633333273,
      "velocity": 0.2283464566929134,
      "duration": 0.11376566666666577
    },
    {
      "name": "F#4",
      "midi": 66,
      "time": 87.3720319999994,
      "velocity": 0.23622047244094488,
      "duration": 0.11376566666666577
    },
    {
      "name": "D#4",
      "midi": 63,
      "time": 87.48579766666606,
      "velocity": 0.2047244094488189,
      "duration": 0.11376566666666577
    },
    {
      "name": "G#3",
      "midi": 56,
      "time": 87.59956333333272,
      "velocity": 0.2047244094488189,
      "duration": 0.11376566666666577
    },
    {
      "name": "F4",
      "midi": 65,
      "time": 87.71332899999939,
      "velocity": 0.23622047244094488,
      "duration": 0.11376566666665155
    },
    {
      "name": "C#4",
      "midi": 61,
      "time": 87.82709466666604,
      "velocity": 0.2047244094488189,
      "duration": 0.11376566666666577
    },
    {
      "name": "G#3",
      "midi": 56,
      "time": 87.94086033333271,
      "velocity": 0.2047244094488189,
      "duration": 0.11376566666666577
    },
    {
      "name": "D#4",
      "midi": 63,
      "time": 88.05462599999937,
      "velocity": 0.23622047244094488,
      "duration": 0.11376566666666577
    },
    {
      "name": "C4",
      "midi": 60,
      "time": 88.16839166666604,
      "velocity": 0.18110236220472442,
      "duration": 0.11376566666666577
    },
    {
      "name": "G#3",
      "midi": 56,
      "time": 88.2821573333327,
      "velocity": 0.18110236220472442,
      "duration": 0.11376566666666577
    },
    {
      "name": "C#4",
      "midi": 61,
      "time": 88.39592299999937,
      "velocity": 0.2283464566929134,
      "duration": 0.11376566666666577
    },
    {
      "name": "G#3",
      "midi": 56,
      "time": 88.50968866666604,
      "velocity": 0.1889763779527559,
      "duration": 0.11376566666666577
    },
    {
      "name": "F3",
      "midi": 53,
      "time": 88.6234543333327,
      "velocity": 0.1889763779527559,
      "duration": 0.11376566666666577
    },
    {
      "name": "G#2",
      "midi": 44,
      "time": 88.73721999999937,
      "velocity": 0.2047244094488189,
      "duration": 0.11376566666666577
    },
    {
      "name": "D#3",
      "midi": 51,
      "time": 88.85098566666603,
      "velocity": 0.2125984251968504,
      "duration": 0.11376566666666577
    },
    {
      "name": "G#3",
      "midi": 56,
      "time": 88.9647513333327,
      "velocity": 0.2125984251968504,
      "duration": 0.11376566666666577
    },
    {
      "name": "C4",
      "midi": 60,
      "time": 89.07851699999937,
      "velocity": 0.2204724409448819,
      "duration": 0.11376566666666577
    },
    {
      "name": "G#3",
      "midi": 56,
      "time": 89.19228266666603,
      "velocity": 0.2125984251968504,
      "duration": 0.11376566666666577
    },
    {
      "name": "D#3",
      "midi": 51,
      "time": 89.3060483333327,
      "velocity": 0.2125984251968504,
      "duration": 0.11376566666666577
    },
    {
      "name": "F#2",
      "midi": 42,
      "time": 89.41981399999936,
      "velocity": 0.2125984251968504,
      "duration": 0.11376566666666577
    },
    {
      "name": "F#3",
      "midi": 54,
      "time": 89.53357966666603,
      "velocity": 0.2125984251968504,
      "duration": 0.11376566666666577
    },
    {
      "name": "A#3",
      "midi": 58,
      "time": 89.6473453333327,
      "velocity": 0.2204724409448819,
      "duration": 0.11376566666666577
    },
    {
      "name": "C#4",
      "midi": 61,
      "time": 89.76111099999936,
      "velocity": 0.2283464566929134,
      "duration": 0.11376566666666577
    },
    {
      "name": "A#3",
      "midi": 58,
      "time": 89.87487666666603,
      "velocity": 0.2204724409448819,
      "duration": 0.11376566666666577
    },
    {
      "name": "F#3",
      "midi": 54,
      "time": 89.98864233333269,
      "velocity": 0.2204724409448819,
      "duration": 0.11376566666666577
    },
    {
      "name": "A#2",
      "midi": 46,
      "time": 90.10240799999936,
      "velocity": 0.2125984251968504,
      "duration": 0.11376566666667998
    },
    {
      "name": "F3",
      "midi": 53,
      "time": 90.21617366666604,
      "velocity": 0.2125984251968504,
      "duration": 0.11376566666666577
    },
    {
      "name": "A#3",
      "midi": 58,
      "time": 90.3299393333327,
      "velocity": 0.2204724409448819,
      "duration": 0.11376566666666577
    },
    {
      "name": "D4",
      "midi": 62,
      "time": 90.44370499999937,
      "velocity": 0.2204724409448819,
      "duration": 0.11376566666666577
    },
    {
      "name": "A#3",
      "midi": 58,
      "time": 90.55747066666603,
      "velocity": 0.2204724409448819,
      "duration": 0.11376566666666577
    },
    {
      "name": "F3",
      "midi": 53,
      "time": 90.6712363333327,
      "velocity": 0.2125984251968504,
      "duration": 0.11376566666666577
    },
    {
      "name": "A#2",
      "midi": 46,
      "time": 90.78500199999937,
      "velocity": 0.2204724409448819,
      "duration": 0.11376566666666577
    },
    {
      "name": "A#3",
      "midi": 58,
      "time": 90.89876766666603,
      "velocity": 0.2283464566929134,
      "duration": 0.11376566666666577
    },
    {
      "name": "D4",
      "midi": 62,
      "time": 91.0125333333327,
      "velocity": 0.23622047244094488,
      "duration": 0.11376566666666577
    },
    {
      "name": "G#4",
      "midi": 68,
      "time": 91.12629899999936,
      "velocity": 0.25984251968503935,
      "duration": 0.11376566666666577
    },
    {
      "name": "D4",
      "midi": 62,
      "time": 91.24006466666603,
      "velocity": 0.2440944881889764,
      "duration": 0.11376566666666577
    },
    {
      "name": "A#3",
      "midi": 58,
      "time": 91.3538303333327,
      "velocity": 0.2283464566929134,
      "duration": 0.11376566666666577
    },
    {
      "name": "D#3",
      "midi": 51,
      "time": 91.46759599999936,
      "velocity": 0.2677165354330709,
      "duration": 0.11376566666665155
    },
    {
      "name": "F#4",
      "midi": 66,
      "time": 91.58136166666601,
      "velocity": 0.2440944881889764,
      "duration": 0.11376566666666577
    },
    {
      "name": "A#3",
      "midi": 58,
      "time": 91.69512733333268,
      "velocity": 0.2204724409448819,
      "duration": 0.11376566666666577
    },
    {
      "name": "F3",
      "midi": 53,
      "time": 91.80889299999934,
      "velocity": 0.25196850393700787,
      "duration": 0.11376566666665155
    },
    {
      "name": "F4",
      "midi": 65,
      "time": 91.922658666666,
      "velocity": 0.23622047244094488,
      "duration": 0.11376566666666577
    },
    {
      "name": "A3",
      "midi": 57,
      "time": 92.03642433333266,
      "velocity": 0.2204724409448819,
      "duration": 0.11376566666666577
    },
    {
      "name": "F#3",
      "midi": 54,
      "time": 92.15018999999933,
      "velocity": 0.2440944881889764,
      "duration": 0.11376566666666577
    },
    {
      "name": "D#4",
      "midi": 63,
      "time": 92.26395566666599,
      "velocity": 0.2204724409448819,
      "duration": 0.11376566666666577
    },
    {
      "name": "A#3",
      "midi": 58,
      "time": 92.37772133333266,
      "velocity": 0.2283464566929134,
      "duration": 0.11376566666666577
    },
    {
      "name": "G#3",
      "midi": 56,
      "time": 92.49148699999932,
      "velocity": 0.23622047244094488,
      "duration": 0.11376566666666577
    },
    {
      "name": "F#4",
      "midi": 66,
      "time": 92.60525266666599,
      "velocity": 0.2125984251968504,
      "duration": 0.11376566666666577
    },
    {
      "name": "C4",
      "midi": 60,
      "time": 92.71901833333266,
      "velocity": 0.2125984251968504,
      "duration": 0.11376566666666577
    },
    {
      "name": "C#3",
      "midi": 49,
      "time": 92.83278399999932,
      "velocity": 0.1968503937007874,
      "duration": 0.11376566666666577
    },
    {
      "name": "G#3",
      "midi": 56,
      "time": 92.94654966666599,
      "velocity": 0.2125984251968504,
      "duration": 0.11376566666666577
    },
    {
      "name": "C#4",
      "midi": 61,
      "time": 93.06031533333265,
      "velocity": 0.2283464566929134,
      "duration": 0.11376566666666577
    },
    {
      "name": "F4",
      "midi": 65,
      "time": 93.17408099999932,
      "velocity": 0.23622047244094488,
      "duration": 0.11376566666666577
    },
    {
      "name": "C#4",
      "midi": 61,
      "time": 93.28784666666598,
      "velocity": 0.2283464566929134,
      "duration": 0.11376566666666577
    },
    {
      "name": "G#3",
      "midi": 56,
      "time": 93.40161233333265,
      "velocity": 0.2125984251968504,
      "duration": 0.11376566666666577
    },
    {
      "name": "C#3",
      "midi": 49,
      "time": 93.51537799999932,
      "velocity": 0.2125984251968504,
      "duration": 0.11376566666666577
    },
    {
      "name": "G#3",
      "midi": 56,
      "time": 93.62914366666598,
      "velocity": 0.2204724409448819,
      "duration": 0.11376566666666577
    },
    {
      "name": "C4",
      "midi": 60,
      "time": 93.74290933333265,
      "velocity": 0.2283464566929134,
      "duration": 0.11376566666666577
    },
    {
      "name": "F#4",
      "midi": 66,
      "time": 93.85667499999931,
      "velocity": 0.23622047244094488,
      "duration": 0.11376566666666577
    },
    {
      "name": "C4",
      "midi": 60,
      "time": 93.97044066666598,
      "velocity": 0.2283464566929134,
      "duration": 0.11376566666666577
    },
    {
      "name": "G#3",
      "midi": 56,
      "time": 94.08420633333265,
      "velocity": 0.2125984251968504,
      "duration": 0.11376566666666577
    },
    {
      "name": "C#3",
      "midi": 49,
      "time": 94.19797199999931,
      "velocity": 0.2125984251968504,
      "duration": 0.11376566666665155
    },
    {
      "name": "G#3",
      "midi": 56,
      "time": 94.31173766666596,
      "velocity": 0.2204724409448819,
      "duration": 0.11376566666666577
    },
    {
      "name": "C4",
      "midi": 60,
      "time": 94.42550333333263,
      "velocity": 0.23622047244094488,
      "duration": 0.11376566666666577
    },
    {
      "name": "F#4",
      "midi": 66,
      "time": 94.5392689999993,
      "velocity": 0.2440944881889764,
      "duration": 0.11376566666666577
    },
    {
      "name": "C4",
      "midi": 60,
      "time": 94.65303466666596,
      "velocity": 0.23622047244094488,
      "duration": 0.11376566666666577
    },
    {
      "name": "G#3",
      "midi": 56,
      "time": 94.76680033333263,
      "velocity": 0.2204724409448819,
      "duration": 0.11376566666666577
    },
    {
      "name": "C#3",
      "midi": 49,
      "time": 94.88056599999929,
      "velocity": 0.2125984251968504,
      "duration": 0.11376566666665155
    },
    {
      "name": "G#3",
      "midi": 56,
      "time": 94.99433166666594,
      "velocity": 0.2125984251968504,
      "duration": 0.11376566666666577
    },
    {
      "name": "C#4",
      "midi": 61,
      "time": 95.10809733333261,
      "velocity": 0.2204724409448819,
      "duration": 0.11376566666666577
    },
    {
      "name": "F4",
      "midi": 65,
      "time": 95.22186299999927,
      "velocity": 0.23622047244094488,
      "duration": 0.11376566666666577
    },
    {
      "name": "C#4",
      "midi": 61,
      "time": 95.33562866666594,
      "velocity": 0.2204724409448819,
      "duration": 0.11376566666666577
    },
    {
      "name": "G#3",
      "midi": 56,
      "time": 95.4493943333326,
      "velocity": 0.2125984251968504,
      "duration": 0.11376566666666577
    },
    {
      "name": "G#2",
      "midi": 44,
      "time": 95.56315999999927,
      "velocity": 0.2677165354330709,
      "duration": 0.11376566666667998
    },
    {
      "name": "D#3",
      "midi": 51,
      "time": 95.67692566666595,
      "velocity": 0.25984251968503935,
      "duration": 0.11376566666666577
    },
    {
      "name": "G#3",
      "midi": 56,
      "time": 95.79069133333262,
      "velocity": 0.2677165354330709,
      "duration": 0.11376566666666577
    },
    {
      "name": "C4",
      "midi": 60,
      "time": 95.90445699999928,
      "velocity": 0.2677165354330709,
      "duration": 0.11376566666666577
    },
    {
      "name": "G#3",
      "midi": 56,
      "time": 96.01822266666595,
      "velocity": 0.25984251968503935,
      "duration": 0.11376566666666577
    },
    {
      "name": "D#3",
      "midi": 51,
      "time": 96.13198833333261,
      "velocity": 0.25196850393700787,
      "duration": 0.11376566666666577
    },
    {
      "name": "G#2",
      "midi": 44,
      "time": 96.24575399999928,
      "velocity": 0.2440944881889764,
      "duration": 0.11376566666666577
    },
    {
      "name": "D#3",
      "midi": 51,
      "time": 96.35951966666595,
      "velocity": 0.25984251968503935,
      "duration": 0.11376566666666577
    },
    {
      "name": "G3",
      "midi": 55,
      "time": 96.47328533333261,
      "velocity": 0.2677165354330709,
      "duration": 0.11376566666666577
    },
    {
      "name": "C#4",
      "midi": 61,
      "time": 96.58705099999928,
      "velocity": 0.2677165354330709,
      "duration": 0.11376566666666577
    },
    {
      "name": "G3",
      "midi": 55,
      "time": 96.70081666666594,
      "velocity": 0.25984251968503935,
      "duration": 0.11376566666666577
    },
    {
      "name": "D#3",
      "midi": 51,
      "time": 96.81458233333261,
      "velocity": 0.23622047244094488,
      "duration": 0.11376566666666577
    },
    {
      "name": "G#2",
      "midi": 44,
      "time": 96.92834799999927,
      "velocity": 0.28346456692913385,
      "duration": 0.11376566666666577
    },
    {
      "name": "D#3",
      "midi": 51,
      "time": 97.04211366666594,
      "velocity": 0.23622047244094488,
      "duration": 0.11376566666666577
    },
    {
      "name": "G#3",
      "midi": 56,
      "time": 97.1558793333326,
      "velocity": 0.25196850393700787,
      "duration": 0.11376566666666577
    },
    {
      "name": "C4",
      "midi": 60,
      "time": 97.26964499999927,
      "velocity": 0.25984251968503935,
      "duration": 0.11376566666666577
    },
    {
      "name": "G#3",
      "midi": 56,
      "time": 97.38341066666594,
      "velocity": 0.25196850393700787,
      "duration": 0.11376566666666577
    },
    {
      "name": "D#3",
      "midi": 51,
      "time": 97.4971763333326,
      "velocity": 0.23622047244094488,
      "duration": 0.11376566666666577
    },
    {
      "name": "C#3",
      "midi": 49,
      "time": 97.61094199999927,
      "velocity": 0.2125984251968504,
      "duration": 0.11376566666666577
    },
    {
      "name": "G#3",
      "midi": 56,
      "time": 97.72470766666594,
      "velocity": 0.2283464566929134,
      "duration": 0.11376566666666577
    },
    {
      "name": "C#4",
      "midi": 61,
      "time": 97.8384733333326,
      "velocity": 0.23622047244094488,
      "duration": 0.11376566666666577
    },
    {
      "name": "E4",
      "midi": 64,
      "time": 97.95223899999927,
      "velocity": 0.2440944881889764,
      "duration": 0.11376566666666577
    },
    {
      "name": "C#4",
      "midi": 61,
      "time": 98.06600466666593,
      "velocity": 0.23622047244094488,
      "duration": 0.11376566666666577
    },
    {
      "name": "G#3",
      "midi": 56,
      "time": 98.1797703333326,
      "velocity": 0.2283464566929134,
      "duration": 0.11376566666666577
    },
    {
      "name": "D#2",
      "midi": 39,
      "time": 98.29353599999926,
      "velocity": 0.2677165354330709,
      "duration": 0.11376566666667998
    },
    {
      "name": "D#3",
      "midi": 51,
      "time": 98.40730166666594,
      "velocity": 0.25984251968503935,
      "duration": 0.11376566666666577
    },
    {
      "name": "G#3",
      "midi": 56,
      "time": 98.52106733333261,
      "velocity": 0.2677165354330709,
      "duration": 0.11376566666666577
    },
    {
      "name": "C4",
      "midi": 60,
      "time": 98.63483299999928,
      "velocity": 0.2677165354330709,
      "duration": 0.11376566666666577
    },
    {
      "name": "G#3",
      "midi": 56,
      "time": 98.74859866666594,
      "velocity": 0.25984251968503935,
      "duration": 0.11376566666666577
    },
    {
      "name": "D#3",
      "midi": 51,
      "time": 98.86236433333261,
      "velocity": 0.25196850393700787,
      "duration": 0.11376566666666577
    },
    {
      "name": "D#2",
      "midi": 39,
      "time": 98.97612999999927,
      "velocity": 0.2440944881889764,
      "duration": 0.11376566666666577
    },
    {
      "name": "D#3",
      "midi": 51,
      "time": 99.08989566666594,
      "velocity": 0.25984251968503935,
      "duration": 0.11376566666666577
    },
    {
      "name": "G3",
      "midi": 55,
      "time": 99.2036613333326,
      "velocity": 0.2677165354330709,
      "duration": 0.11376566666666577
    },
    {
      "name": "C#4",
      "midi": 61,
      "time": 99.31742699999927,
      "velocity": 0.2677165354330709,
      "duration": 0.11376566666666577
    },
    {
      "name": "G3",
      "midi": 55,
      "time": 99.43119266666594,
      "velocity": 0.25984251968503935,
      "duration": 0.11376566666666577
    },
    {
      "name": "D#3",
      "midi": 51,
      "time": 99.5449583333326,
      "velocity": 0.23622047244094488,
      "duration": 0.11376566666666577
    },
    {
      "name": "G#2",
      "midi": 44,
      "time": 99.65872399999927,
      "velocity": 0.2677165354330709,
      "duration": 0.11376566666666577
    },
    {
      "name": "D#3",
      "midi": 51,
      "time": 99.77248966666593,
      "velocity": 0.23622047244094488,
      "duration": 0.11376566666666577
    },
    {
      "name": "G#3",
      "midi": 56,
      "time": 99.8862553333326,
      "velocity": 0.25196850393700787,
      "duration": 0.11376566666666577
    },
    {
      "name": "C4",
      "midi": 60,
      "time": 100.00002099999926,
      "velocity": 0.25984251968503935,
      "duration": 0.11376566666666577
    },
    {
      "name": "G#3",
      "midi": 56,
      "time": 100.11378666666593,
      "velocity": 0.25196850393700787,
      "duration": 0.11376566666666577
    },
    {
      "name": "D#3",
      "midi": 51,
      "time": 100.2275523333326,
      "velocity": 0.23622047244094488,
      "duration": 0.11376566666666577
    },
    {
      "name": "F#2",
      "midi": 42,
      "time": 100.34131799999926,
      "velocity": 0.14960629921259844,
      "duration": 0.11376566666665155
    },
    {
      "name": "F#3",
      "midi": 54,
      "time": 100.45508366666591,
      "velocity": 0.15748031496062992,
      "duration": 0.11376566666666577
    },
    {
      "name": "A#3",
      "midi": 58,
      "time": 100.56884933333258,
      "velocity": 0.1732283464566929,
      "duration": 0.11376566666666577
    },
    {
      "name": "C#4",
      "midi": 61,
      "time": 100.68261499999925,
      "velocity": 0.1732283464566929,
      "duration": 0.11376566666666577
    },
    {
      "name": "A#3",
      "midi": 58,
      "time": 100.79638066666591,
      "velocity": 0.15748031496062992,
      "duration": 0.11376566666666577
    },
    {
      "name": "F#3",
      "midi": 54,
      "time": 100.91014633333258,
      "velocity": 0.15748031496062992,
      "duration": 0.11376566666666577
    },
    {
      "name": "G#2",
      "midi": 44,
      "time": 101.02391199999924,
      "velocity": 0.16535433070866143,
      "duration": 0.11376566666667998
    },
    {
      "name": "D#3",
      "midi": 51,
      "time": 101.13767766666592,
      "velocity": 0.1732283464566929,
      "duration": 0.11376566666666577
    },
    {
      "name": "G#3",
      "midi": 56,
      "time": 101.25144333333259,
      "velocity": 0.1732283464566929,
      "duration": 0.11376566666666577
    },
    {
      "name": "C4",
      "midi": 60,
      "time": 101.36520899999925,
      "velocity": 0.18110236220472442,
      "duration": 0.11376566666666577
    },
    {
      "name": "G#3",
      "midi": 56,
      "time": 101.47897466666592,
      "velocity": 0.18110236220472442,
      "duration": 0.11376566666666577
    },
    {
      "name": "D#3",
      "midi": 51,
      "time": 101.59274033333259,
      "velocity": 0.1732283464566929,
      "duration": 0.11376566666666577
    },
    {
      "name": "G#2",
      "midi": 44,
      "time": 101.70650599999925,
      "velocity": 0.1732283464566929,
      "duration": 0.11376566666666577
    },
    {
      "name": "G#3",
      "midi": 56,
      "time": 101.82027166666592,
      "velocity": 0.18110236220472442,
      "duration": 0.11376566666666577
    },
    {
      "name": "C4",
      "midi": 60,
      "time": 101.93403733333258,
      "velocity": 0.1968503937007874,
      "duration": 0.11376566666666577
    },
    {
      "name": "F#4",
      "midi": 66,
      "time": 102.04780299999925,
      "velocity": 0.2125984251968504,
      "duration": 0.11376566666666577
    },
    {
      "name": "C4",
      "midi": 60,
      "time": 102.16156866666591,
      "velocity": 0.2047244094488189,
      "duration": 0.11376566666666577
    },
    {
      "name": "A#3",
      "midi": 58,
      "time": 102.27533433333258,
      "velocity": 0.1968503937007874,
      "duration": 0.11376566666666577
    },
    {
      "name": "C#3",
      "midi": 49,
      "time": 102.38909999999925,
      "velocity": 0.2125984251968504,
      "duration": 0.11376566666666577
    },
    {
      "name": "G#3",
      "midi": 56,
      "time": 102.50286566666591,
      "velocity": 0.2204724409448819,
      "duration": 0.11376566666666577
    },
    {
      "name": "C#4",
      "midi": 61,
      "time": 102.61663133333258,
      "velocity": 0.2204724409448819,
      "duration": 0.11376566666666577
    },
    {
      "name": "F4",
      "midi": 65,
      "time": 102.73039699999924,
      "velocity": 0.2283464566929134,
      "duration": 0.11376566666666577
    },
    {
      "name": "C#4",
      "midi": 61,
      "time": 102.84416266666591,
      "velocity": 0.23622047244094488,
      "duration": 0.11376566666666577
    },
    {
      "name": "G#3",
      "midi": 56,
      "time": 102.95792833333257,
      "velocity": 0.2204724409448819,
      "duration": 0.11376566666666577
    },
    {
      "name": "C#3",
      "midi": 49,
      "time": 103.07169399999924,
      "velocity": 0.2125984251968504,
      "duration": 0.11376566666665155
    },
    {
      "name": "G#3",
      "midi": 56,
      "time": 103.18545966666589,
      "velocity": 0.2204724409448819,
      "duration": 0.11376566666666577
    },
    {
      "name": "F4",
      "midi": 65,
      "time": 103.29922533333256,
      "velocity": 0.2283464566929134,
      "duration": 0.11376566666666577
    },
    {
      "name": "F4",
      "midi": 65,
      "time": 103.52675666666589,
      "velocity": 0.23622047244094488,
      "duration": 0.11376566666666577
    },
    {
      "name": "G#3",
      "midi": 56,
      "time": 103.64052233333256,
      "velocity": 0.2283464566929134,
      "duration": 0.11376566666666577
    },
    {
      "name": "F#4",
      "midi": 66,
      "time": 103.75428799999922,
      "velocity": 0.23622047244094488,
      "duration": 0.11376566666665155
    },
    {
      "name": "D#4",
      "midi": 63,
      "time": 103.86805366666587,
      "velocity": 0.2047244094488189,
      "duration": 0.11376566666666577
    },
    {
      "name": "G#3",
      "midi": 56,
      "time": 103.98181933333254,
      "velocity": 0.2047244094488189,
      "duration": 0.11376566666666577
    },
    {
      "name": "F4",
      "midi": 65,
      "time": 104.0955849999992,
      "velocity": 0.23622047244094488,
      "duration": 0.11376566666666577
    },
    {
      "name": "C#4",
      "midi": 61,
      "time": 104.20935066666587,
      "velocity": 0.2047244094488189,
      "duration": 0.11376566666666577
    },
    {
      "name": "G#3",
      "midi": 56,
      "time": 104.32311633333254,
      "velocity": 0.2047244094488189,
      "duration": 0.11376566666666577
    },
    {
      "name": "D#4",
      "midi": 63,
      "time": 104.4368819999992,
      "velocity": 0.23622047244094488,
      "duration": 0.11376566666667998
    },
    {
      "name": "C4",
      "midi": 60,
      "time": 104.55064766666588,
      "velocity": 0.18110236220472442,
      "duration": 0.11376566666666577
    },
    {
      "name": "G#3",
      "midi": 56,
      "time": 104.66441333333255,
      "velocity": 0.18110236220472442,
      "duration": 0.11376566666666577
    },
    {
      "name": "C#4",
      "midi": 61,
      "time": 104.77817899999921,
      "velocity": 0.2283464566929134,
      "duration": 0.11376566666666577
    },
    {
      "name": "G#3",
      "midi": 56,
      "time": 104.89194466666588,
      "velocity": 0.1889763779527559,
      "duration": 0.11376566666666577
    },
    {
      "name": "F3",
      "midi": 53,
      "time": 105.00571033333254,
      "velocity": 0.1889763779527559,
      "duration": 0.11376566666666577
    },
    {
      "name": "G#2",
      "midi": 44,
      "time": 105.11947599999921,
      "velocity": 0.2047244094488189,
      "duration": 0.11376566666666577
    },
    {
      "name": "D#3",
      "midi": 51,
      "time": 105.23324166666588,
      "velocity": 0.2125984251968504,
      "duration": 0.11376566666666577
    },
    {
      "name": "G#3",
      "midi": 56,
      "time": 105.34700733333254,
      "velocity": 0.2125984251968504,
      "duration": 0.11376566666666577
    },
    {
      "name": "C4",
      "midi": 60,
      "time": 105.46077299999921,
      "velocity": 0.2204724409448819,
      "duration": 0.11376566666666577
    },
    {
      "name": "G#3",
      "midi": 56,
      "time": 105.57453866666587,
      "velocity": 0.2125984251968504,
      "duration": 0.11376566666666577
    },
    {
      "name": "D#3",
      "midi": 51,
      "time": 105.68830433333254,
      "velocity": 0.2125984251968504,
      "duration": 0.11376566666666577
    },
    {
      "name": "F#2",
      "midi": 42,
      "time": 105.8020699999992,
      "velocity": 0.2125984251968504,
      "duration": 0.11376566666666577
    },
    {
      "name": "F#3",
      "midi": 54,
      "time": 105.91583566666587,
      "velocity": 0.2125984251968504,
      "duration": 0.11376566666666577
    },
    {
      "name": "A#3",
      "midi": 58,
      "time": 106.02960133333254,
      "velocity": 0.2204724409448819,
      "duration": 0.11376566666666577
    },
    {
      "name": "C#4",
      "midi": 61,
      "time": 106.1433669999992,
      "velocity": 0.2283464566929134,
      "duration": 0.11376566666666577
    },
    {
      "name": "A#3",
      "midi": 58,
      "time": 106.25713266666587,
      "velocity": 0.2204724409448819,
      "duration": 0.11376566666666577
    },
    {
      "name": "F#3",
      "midi": 54,
      "time": 106.37089833333253,
      "velocity": 0.2204724409448819,
      "duration": 0.11376566666666577
    },
    {
      "name": "A#2",
      "midi": 46,
      "time": 106.4846639999992,
      "velocity": 0.2125984251968504,
      "duration": 0.11376566666666577
    },
    {
      "name": "F3",
      "midi": 53,
      "time": 106.59842966666587,
      "velocity": 0.2125984251968504,
      "duration": 0.11376566666666577
    },
    {
      "name": "A#3",
      "midi": 58,
      "time": 106.71219533333253,
      "velocity": 0.2204724409448819,
      "duration": 0.11376566666666577
    },
    {
      "name": "D4",
      "midi": 62,
      "time": 106.8259609999992,
      "velocity": 0.2204724409448819,
      "duration": 0.11376566666666577
    },
    {
      "name": "A#3",
      "midi": 58,
      "time": 106.93972666666586,
      "velocity": 0.2204724409448819,
      "duration": 0.11376566666666577
    },
    {
      "name": "F3",
      "midi": 53,
      "time": 107.05349233333253,
      "velocity": 0.2125984251968504,
      "duration": 0.11376566666666577
    },
    {
      "name": "A#2",
      "midi": 46,
      "time": 107.1672579999992,
      "velocity": 0.2204724409448819,
      "duration": 0.11376566666666577
    },
    {
      "name": "A#3",
      "midi": 58,
      "time": 107.28102366666586,
      "velocity": 0.2283464566929134,
      "duration": 0.11376566666666577
    },
    {
      "name": "D4",
      "midi": 62,
      "time": 107.39478933333253,
      "velocity": 0.23622047244094488,
      "duration": 0.11376566666666577
    },
    {
      "name": "G#4",
      "midi": 68,
      "time": 107.50855499999919,
      "velocity": 0.25984251968503935,
      "duration": 0.11376566666666577
    },
    {
      "name": "D4",
      "midi": 62,
      "time": 107.62232066666586,
      "velocity": 0.2440944881889764,
      "duration": 0.11376566666666577
    },
    {
      "name": "A#3",
      "midi": 58,
      "time": 107.73608633333252,
      "velocity": 0.2283464566929134,
      "duration": 0.11376566666666577
    },
    {
      "name": "D#3",
      "midi": 51,
      "time": 107.84985199999919,
      "velocity": 0.2677165354330709,
      "duration": 0.11376566666665155
    },
    {
      "name": "F#4",
      "midi": 66,
      "time": 107.96361766666584,
      "velocity": 0.2440944881889764,
      "duration": 0.11376566666666577
    },
    {
      "name": "A#3",
      "midi": 58,
      "time": 108.0773833333325,
      "velocity": 0.2204724409448819,
      "duration": 0.11376566666666577
    },
    {
      "name": "F3",
      "midi": 53,
      "time": 108.19114899999917,
      "velocity": 0.2440944881889764,
      "duration": 0.11376566666666577
    },
    {
      "name": "F4",
      "midi": 65,
      "time": 108.30491466666584,
      "velocity": 0.2204724409448819,
      "duration": 0.11376566666666577
    },
    {
      "name": "A3",
      "midi": 57,
      "time": 108.4186803333325,
      "velocity": 0.2204724409448819,
      "duration": 0.11376566666666577
    },
    {
      "name": "F#3",
      "midi": 54,
      "time": 108.53244599999917,
      "velocity": 0.23622047244094488,
      "duration": 0.11376566666666577
    },
    {
      "name": "D#4",
      "midi": 63,
      "time": 108.64621166666583,
      "velocity": 0.1968503937007874,
      "duration": 0.11376566666666577
    },
    {
      "name": "A#3",
      "midi": 58,
      "time": 108.7599773333325,
      "velocity": 0.1968503937007874,
      "duration": 0.11376566666666577
    },
    {
      "name": "G#3",
      "midi": 56,
      "time": 108.87374299999917,
      "velocity": 0.23622047244094488,
      "duration": 0.11376566666666577
    },
    {
      "name": "F#4",
      "midi": 66,
      "time": 108.98750866666583,
      "velocity": 0.2125984251968504,
      "duration": 0.11376566666666577
    },
    {
      "name": "C4",
      "midi": 60,
      "time": 109.1012743333325,
      "velocity": 0.2125984251968504,
      "duration": 0.11376566666666577
    },
    {
      "name": "C#3",
      "midi": 49,
      "time": 109.21503999999916,
      "velocity": 0.1732283464566929,
      "duration": 0.11376566666667998
    },
    {
      "name": "G#3",
      "midi": 56,
      "time": 109.32880566666584,
      "velocity": 0.18110236220472442,
      "duration": 0.11376566666666577
    },
    {
      "name": "C#4",
      "midi": 61,
      "time": 109.44257133333251,
      "velocity": 0.2047244094488189,
      "duration": 0.11376566666666577
    },
    {
      "name": "F4",
      "midi": 65,
      "time": 109.55633699999917,
      "velocity": 0.2125984251968504,
      "duration": 0.11376566666666577
    },
    {
      "name": "C#4",
      "midi": 61,
      "time": 109.67010266666584,
      "velocity": 0.2047244094488189,
      "duration": 0.11376566666666577
    },
    {
      "name": "G#3",
      "midi": 56,
      "time": 109.7838683333325,
      "velocity": 0.18110236220472442,
      "duration": 0.11376566666666577
    },
    {
      "name": "C#3",
      "midi": 49,
      "time": 109.89763399999917,
      "velocity": 0.18110236220472442,
      "duration": 0.11376566666667998
    },
    {
      "name": "G#3",
      "midi": 56,
      "time": 110.01139966666585,
      "velocity": 0.1889763779527559,
      "duration": 0.11376566666666577
    },
    {
      "name": "C4",
      "midi": 60,
      "time": 110.12516533333252,
      "velocity": 0.2047244094488189,
      "duration": 0.11376566666666577
    },
    {
      "name": "F#4",
      "midi": 66,
      "time": 110.23893099999918,
      "velocity": 0.2125984251968504,
      "duration": 0.11376566666666577
    },
    {
      "name": "C4",
      "midi": 60,
      "time": 110.35269666666585,
      "velocity": 0.2047244094488189,
      "duration": 0.11376566666666577
    },
    {
      "name": "G#3",
      "midi": 56,
      "time": 110.46646233333252,
      "velocity": 0.18110236220472442,
      "duration": 0.11376566666666577
    },
    {
      "name": "C#3",
      "midi": 49,
      "time": 110.58022799999918,
      "velocity": 0.15748031496062992,
      "duration": 0.11376566666665155
    },
    {
      "name": "G#3",
      "midi": 56,
      "time": 110.69399366666583,
      "velocity": 0.16535433070866143,
      "duration": 0.11376566666666577
    },
    {
      "name": "C4",
      "midi": 60,
      "time": 110.8077593333325,
      "velocity": 0.1732283464566929,
      "duration": 0.11376566666666577
    },
    {
      "name": "F#4",
      "midi": 66,
      "time": 110.92152499999916,
      "velocity": 0.1889763779527559,
      "duration": 0.11376566666666577
    },
    {
      "name": "C4",
      "midi": 60,
      "time": 111.03529066666583,
      "velocity": 0.1732283464566929,
      "duration": 0.11376566666666577
    },
    {
      "name": "G#3",
      "midi": 56,
      "time": 111.1490563333325,
      "velocity": 0.1732283464566929,
      "duration": 0.11376566666666577
    },
    {
      "name": "C#3",
      "midi": 49,
      "time": 111.26282199999916,
      "velocity": 0.15748031496062992,
      "duration": 0.11376566666666577
    },
    {
      "name": "G#3",
      "midi": 56,
      "time": 111.37658766666583,
      "velocity": 0.16535433070866143,
      "duration": 0.11376566666666577
    },
    {
      "name": "C4",
      "midi": 60,
      "time": 111.4903533333325,
      "velocity": 0.1732283464566929,
      "duration": 0.11376566666666577
    },
    {
      "name": "F#4",
      "midi": 66,
      "time": 111.60411899999916,
      "velocity": 0.1732283464566929,
      "duration": 0.11376566666666577
    },
    {
      "name": "C4",
      "midi": 60,
      "time": 111.71788466666582,
      "velocity": 0.1732283464566929,
      "duration": 0.11376566666666577
    },
    {
      "name": "G#3",
      "midi": 56,
      "time": 111.83165033333249,
      "velocity": 0.16535433070866143,
      "duration": 0.11376566666666577
    },
    {
      "name": "C#3",
      "midi": 49,
      "time": 111.94541599999916,
      "velocity": 0.1732283464566929,
      "duration": 0.11376566666667998
    },
    {
      "name": "G#3",
      "midi": 56,
      "time": 112.05918166666584,
      "velocity": 0.1968503937007874,
      "duration": 0.11376566666666577
    },
    {
      "name": "C#4",
      "midi": 61,
      "time": 112.1729473333325,
      "velocity": 0.2204724409448819,
      "duration": 0.11376566666666577
    },
    {
      "name": "E4",
      "midi": 64,
      "time": 112.28671299999917,
      "velocity": 0.23622047244094488,
      "duration": 0.11376566666666577
    },
    {
      "name": "C#4",
      "midi": 61,
      "time": 112.40047866666583,
      "velocity": 0.2204724409448819,
      "duration": 0.11376566666666577
    },
    {
      "name": "G#3",
      "midi": 56,
      "time": 112.5142443333325,
      "velocity": 0.2125984251968504,
      "duration": 0.11376566666666577
    },
    {
      "name": "E3",
      "midi": 52,
      "time": 112.62800999999916,
      "velocity": 0.2047244094488189,
      "duration": 0.11376566666666577
    },
    {
      "name": "G#3",
      "midi": 56,
      "time": 112.74177566666583,
      "velocity": 0.2204724409448819,
      "duration": 0.11376566666666577
    },
    {
      "name": "C#4",
      "midi": 61,
      "time": 112.8555413333325,
      "velocity": 0.23622047244094488,
      "duration": 0.11376566666666577
    },
    {
      "name": "E4",
      "midi": 64,
      "time": 112.96930699999916,
      "velocity": 0.2440944881889764,
      "duration": 0.11376566666666577
    },
    {
      "name": "C#4",
      "midi": 61,
      "time": 113.08307266666583,
      "velocity": 0.2204724409448819,
      "duration": 0.11376566666666577
    },
    {
      "name": "G#3",
      "midi": 56,
      "time": 113.1968383333325,
      "velocity": 0.2125984251968504,
      "duration": 0.11376566666666577
    },
    {
      "name": "C#3",
      "midi": 49,
      "time": 113.31060399999916,
      "velocity": 0.2125984251968504,
      "duration": 0.11376566666666577
    },
    {
      "name": "G#3",
      "midi": 56,
      "time": 113.42436966666583,
      "velocity": 0.23622047244094488,
      "duration": 0.11376566666666577
    },
    {
      "name": "C#4",
      "midi": 61,
      "time": 113.53813533333249,
      "velocity": 0.2677165354330709,
      "duration": 0.11376566666666577
    },
    {
      "name": "E4",
      "midi": 64,
      "time": 113.65190099999916,
      "velocity": 0.28346456692913385,
      "duration": 0.11376566666666577
    },
    {
      "name": "C#4",
      "midi": 61,
      "time": 113.76566666666582,
      "velocity": 0.2677165354330709,
      "duration": 0.11376566666666577
    },
    {
      "name": "G#3",
      "midi": 56,
      "time": 113.87943233333249,
      "velocity": 0.25984251968503935,
      "duration": 0.11376566666666577
    },
    {
      "name": "E3",
      "midi": 52,
      "time": 113.99319799999915,
      "velocity": 0.2440944881889764,
      "duration": 0.11376566666666577
    },
    {
      "name": "G#3",
      "midi": 56,
      "time": 114.10696366666582,
      "velocity": 0.25984251968503935,
      "duration": 0.11376566666666577
    },
    {
      "name": "C#4",
      "midi": 61,
      "time": 114.22072933333249,
      "velocity": 0.28346456692913385,
      "duration": 0.11376566666666577
    },
    {
      "name": "E4",
      "midi": 64,
      "time": 114.33449499999915,
      "velocity": 0.29133858267716534,
      "duration": 0.11376566666666577
    },
    {
      "name": "C#4",
      "midi": 61,
      "time": 114.44826066666582,
      "velocity": 0.2677165354330709,
      "duration": 0.11376566666666577
    },
    {
      "name": "G#3",
      "midi": 56,
      "time": 114.56202633333248,
      "velocity": 0.25196850393700787,
      "duration": 0.11376566666666577
    },
    {
      "name": "D#3",
      "midi": 51,
      "time": 114.67579199999915,
      "velocity": 0.2440944881889764,
      "duration": 0.11376566666667998
    },
    {
      "name": "A3",
      "midi": 57,
      "time": 114.78955766666583,
      "velocity": 0.2755905511811024,
      "duration": 0.11376566666666577
    },
    {
      "name": "C#4",
      "midi": 61,
      "time": 114.9033233333325,
      "velocity": 0.30708661417322836,
      "duration": 0.11376566666666577
    },
    {
      "name": "F#4",
      "midi": 66,
      "time": 115.01708899999916,
      "velocity": 0.3543307086614173,
      "duration": 0.11376566666666577
    },
    {
      "name": "C#4",
      "midi": 61,
      "time": 115.13085466666583,
      "velocity": 0.30708661417322836,
      "duration": 0.11376566666666577
    },
    {
      "name": "A3",
      "midi": 57,
      "time": 115.24462033333249,
      "velocity": 0.29133858267716534,
      "duration": 0.11376566666666577
    },
    {
      "name": "F#3",
      "midi": 54,
      "time": 115.35838599999916,
      "velocity": 0.29133858267716534,
      "duration": 0.11376566666666577
    },
    {
      "name": "C#4",
      "midi": 61,
      "time": 115.47215166666582,
      "velocity": 0.31496062992125984,
      "duration": 0.11376566666666577
    },
    {
      "name": "D#4",
      "midi": 63,
      "time": 115.58591733333249,
      "velocity": 0.3464566929133858,
      "duration": 0.11376566666666577
    },
    {
      "name": "A4",
      "midi": 69,
      "time": 115.69968299999915,
      "velocity": 0.36220472440944884,
      "duration": 0.11376566666666577
    },
    {
      "name": "D#4",
      "midi": 63,
      "time": 115.81344866666582,
      "velocity": 0.3464566929133858,
      "duration": 0.11376566666666577
    },
    {
      "name": "C#4",
      "midi": 61,
      "time": 115.92721433333249,
      "velocity": 0.3228346456692913,
      "duration": 0.11376566666666577
    },
    {
      "name": "G#2",
      "midi": 44,
      "time": 116.04097999999915,
      "velocity": 0.25984251968503935,
      "duration": 0.11376566666667998
    },
    {
      "name": "D#3",
      "midi": 51,
      "time": 116.15474566666583,
      "velocity": 0.2755905511811024,
      "duration": 0.11376566666666577
    },
    {
      "name": "F#3",
      "midi": 54,
      "time": 116.2685113333325,
      "velocity": 0.2992125984251969,
      "duration": 0.11376566666666577
    },
    {
      "name": "C4",
      "midi": 60,
      "time": 116.38227699999916,
      "velocity": 0.30708661417322836,
      "duration": 0.11376566666666577
    },
    {
      "name": "F#3",
      "midi": 54,
      "time": 116.49604266666583,
      "velocity": 0.28346456692913385,
      "duration": 0.11376566666666577
    },
    {
      "name": "D#3",
      "midi": 51,
      "time": 116.6098083333325,
      "velocity": 0.2677165354330709,
      "duration": 0.11376566666666577
    },
    {
      "name": "G#2",
      "midi": 44,
      "time": 116.72357399999916,
      "velocity": 0.2283464566929134,
      "duration": 0.11376566666666577
    },
    {
      "name": "D#3",
      "midi": 51,
      "time": 116.83733966666583,
      "velocity": 0.2440944881889764,
      "duration": 0.11376566666666577
    },
    {
      "name": "F#3",
      "midi": 54,
      "time": 116.95110533333249,
      "velocity": 0.25984251968503935,
      "duration": 0.11376566666666577
    },
    {
      "name": "C4",
      "midi": 60,
      "time": 117.06487099999916,
      "velocity": 0.25984251968503935,
      "duration": 0.11376566666666577
    },
    {
      "name": "F#3",
      "midi": 54,
      "time": 117.17863666666582,
      "velocity": 0.2283464566929134,
      "duration": 0.11376566666666577
    },
    {
      "name": "D#3",
      "midi": 51,
      "time": 117.29240233333249,
      "velocity": 0.2047244094488189,
      "duration": 0.11376566666666577
    },
    {
      "name": "C#3",
      "midi": 49,
      "time": 117.40616799999916,
      "velocity": 0.1732283464566929,
      "duration": 0.11376566666666577
    },
    {
      "name": "G#3",
      "midi": 56,
      "time": 117.51993366666582,
      "velocity": 0.1968503937007874,
      "duration": 0.11376566666666577
    },
    {
      "name": "C#4",
      "midi": 61,
      "time": 117.63369933333249,
      "velocity": 0.2204724409448819,
      "duration": 0.11376566666666577
    },
    {
      "name": "E4",
      "midi": 64,
      "time": 117.74746499999915,
      "velocity": 0.23622047244094488,
      "duration": 0.11376566666666577
    },
    {
      "name": "C#4",
      "midi": 61,
      "time": 117.86123066666582,
      "velocity": 0.2204724409448819,
      "duration": 0.11376566666666577
    },
    {
      "name": "G#3",
      "midi": 56,
      "time": 117.97499633333248,
      "velocity": 0.2125984251968504,
      "duration": 0.11376566666666577
    },
    {
      "name": "E3",
      "midi": 52,
      "time": 118.08876199999915,
      "velocity": 0.2047244094488189,
      "duration": 0.11376566666666577
    },
    {
      "name": "G#3",
      "midi": 56,
      "time": 118.20252766666582,
      "velocity": 0.2204724409448819,
      "duration": 0.11376566666666577
    },
    {
      "name": "C#4",
      "midi": 61,
      "time": 118.31629333333248,
      "velocity": 0.23622047244094488,
      "duration": 0.11376566666666577
    },
    {
      "name": "E4",
      "midi": 64,
      "time": 118.43005899999915,
      "velocity": 0.2440944881889764,
      "duration": 0.11376566666666577
    },
    {
      "name": "C#4",
      "midi": 61,
      "time": 118.54382466666581,
      "velocity": 0.2204724409448819,
      "duration": 0.11376566666666577
    },
    {
      "name": "G#3",
      "midi": 56,
      "time": 118.65759033333248,
      "velocity": 0.2125984251968504,
      "duration": 0.11376566666666577
    },
    {
      "name": "C#3",
      "midi": 49,
      "time": 118.77135599999914,
      "velocity": 0.2125984251968504,
      "duration": 0.11376566666666577
    },
    {
      "name": "G#3",
      "midi": 56,
      "time": 118.88512166666581,
      "velocity": 0.23622047244094488,
      "duration": 0.11376566666666577
    },
    {
      "name": "A#3",
      "midi": 58,
      "time": 118.99888733333248,
      "velocity": 0.2677165354330709,
      "duration": 0.11376566666666577
    },
    {
      "name": "E4",
      "midi": 64,
      "time": 119.11265299999914,
      "velocity": 0.28346456692913385,
      "duration": 0.11376566666666577
    },
    {
      "name": "A#3",
      "midi": 58,
      "time": 119.22641866666581,
      "velocity": 0.2677165354330709,
      "duration": 0.11376566666666577
    },
    {
      "name": "G#3",
      "midi": 56,
      "time": 119.34018433333247,
      "velocity": 0.25984251968503935,
      "duration": 0.11376566666666577
    },
    {
      "name": "E3",
      "midi": 52,
      "time": 119.45394999999914,
      "velocity": 0.2440944881889764,
      "duration": 0.11376566666666577
    },
    {
      "name": "G#3",
      "midi": 56,
      "time": 119.5677156666658,
      "velocity": 0.25984251968503935,
      "duration": 0.11376566666666577
    },
    {
      "name": "A#3",
      "midi": 58,
      "time": 119.68148133333247,
      "velocity": 0.28346456692913385,
      "duration": 0.11376566666666577
    },
    {
      "name": "C#4",
      "midi": 61,
      "time": 119.79524699999914,
      "velocity": 0.29133858267716534,
      "duration": 0.11376566666666577
    },
    {
      "name": "A#3",
      "midi": 58,
      "time": 119.9090126666658,
      "velocity": 0.2677165354330709,
      "duration": 0.11376566666666577
    },
    {
      "name": "G#3",
      "midi": 56,
      "time": 120.02277833333247,
      "velocity": 0.25196850393700787,
      "duration": 0.11376566666666577
    },
    {
      "name": "D#3",
      "midi": 51,
      "time": 120.13654399999913,
      "velocity": 0.23622047244094488,
      "duration": 0.11376566666666577
    },
    {
      "name": "G#3",
      "midi": 56,
      "time": 120.2503096666658,
      "velocity": 0.2677165354330709,
      "duration": 0.11376566666666577
    },
    {
      "name": "B3",
      "midi": 59,
      "time": 120.36407533333247,
      "velocity": 0.29133858267716534,
      "duration": 0.11376566666666577
    },
    {
      "name": "D#4",
      "midi": 63,
      "time": 120.47784099999913,
      "velocity": 0.30708661417322836,
      "duration": 0.11376566666666577
    },
    {
      "name": "B3",
      "midi": 59,
      "time": 120.5916066666658,
      "velocity": 0.2992125984251969,
      "duration": 0.11376566666666577
    },
    {
      "name": "G#3",
      "midi": 56,
      "time": 120.70537233333246,
      "velocity": 0.2755905511811024,
      "duration": 0.11376566666666577
    },
    {
      "name": "D#3",
      "midi": 51,
      "time": 120.81913799999913,
      "velocity": 0.2992125984251969,
      "duration": 0.11376566666665155
    },
    {
      "name": "A#3",
      "midi": 58,
      "time": 120.93290366666578,
      "velocity": 0.3228346456692913,
      "duration": 0.11376566666666577
    },
    {
      "name": "C#4",
      "midi": 61,
      "time": 121.04666933333245,
      "velocity": 0.3543307086614173,
      "duration": 0.11376566666666577
    },
    {
      "name": "G4",
      "midi": 67,
      "time": 121.16043499999911,
      "velocity": 0.36220472440944884,
      "duration": 0.11376566666666577
    },
    {
      "name": "C#4",
      "midi": 61,
      "time": 121.27420066666578,
      "velocity": 0.3464566929133858,
      "duration": 0.11376566666666577
    },
    {
      "name": "A#3",
      "midi": 58,
      "time": 121.38796633333244,
      "velocity": 0.3228346456692913,
      "duration": 0.11376566666666577
    },
    {
      "name": "G#2",
      "midi": 44,
      "time": 121.50173199999911,
      "velocity": 0.25984251968503935,
      "duration": 0.11376566666667998
    },
    {
      "name": "D#3",
      "midi": 51,
      "time": 121.61549766666579,
      "velocity": 0.2755905511811024,
      "duration": 0.11376566666666577
    },
    {
      "name": "G#3",
      "midi": 56,
      "time": 121.72926333333245,
      "velocity": 0.29133858267716534,
      "duration": 0.11376566666666577
    },
    {
      "name": "B3",
      "midi": 59,
      "time": 121.84302899999912,
      "velocity": 0.30708661417322836,
      "duration": 0.11376566666666577
    },
    {
      "name": "G#3",
      "midi": 56,
      "time": 121.95679466666579,
      "velocity": 0.30708661417322836,
      "duration": 0.11376566666666577
    },
    {
      "name": "D#3",
      "midi": 51,
      "time": 122.07056033333245,
      "velocity": 0.29133858267716534,
      "duration": 0.11376566666666577
    },
    {
      "name": "G#2",
      "midi": 44,
      "time": 122.18432599999912,
      "velocity": 0.25984251968503935,
      "duration": 0.11376566666666577
    },
    {
      "name": "D#3",
      "midi": 51,
      "time": 122.29809166666578,
      "velocity": 0.2755905511811024,
      "duration": 0.11376566666666577
    },
    {
      "name": "G#3",
      "midi": 56,
      "time": 122.41185733333245,
      "velocity": 0.2992125984251969,
      "duration": 0.11376566666666577
    },
    {
      "name": "B3",
      "midi": 59,
      "time": 122.52562299999911,
      "velocity": 0.30708661417322836,
      "duration": 0.11376566666666577
    },
    {
      "name": "G#3",
      "midi": 56,
      "time": 122.63938866666578,
      "velocity": 0.2755905511811024,
      "duration": 0.11376566666666577
    },
    {
      "name": "D#3",
      "midi": 51,
      "time": 122.75315433333245,
      "velocity": 0.25984251968503935,
      "duration": 0.11376566666666577
    },
    {
      "name": "A2",
      "midi": 45,
      "time": 122.86691999999911,
      "velocity": 0.30708661417322836,
      "duration": 0.11376566666667998
    },
    {
      "name": "C#3",
      "midi": 49,
      "time": 122.98068566666579,
      "velocity": 0.3228346456692913,
      "duration": 0.11376566666666577
    },
    {
      "name": "F#3",
      "midi": 54,
      "time": 123.09445133333246,
      "velocity": 0.33858267716535434,
      "duration": 0.11376566666666577
    },
    {
      "name": "A3",
      "midi": 57,
      "time": 123.20821699999912,
      "velocity": 0.3543307086614173,
      "duration": 0.11376566666666577
    },
    {
      "name": "F#3",
      "midi": 54,
      "time": 123.32198266666579,
      "velocity": 0.3464566929133858,
      "duration": 0.11376566666666577
    },
    {
      "name": "C#3",
      "midi": 49,
      "time": 123.43574833333246,
      "velocity": 0.33070866141732286,
      "duration": 0.11376566666666577
    },
    {
      "name": "A2",
      "midi": 45,
      "time": 123.54951399999912,
      "velocity": 0.33070866141732286,
      "duration": 0.11376566666666577
    },
    {
      "name": "C#3",
      "midi": 49,
      "time": 123.66327966666579,
      "velocity": 0.3464566929133858,
      "duration": 0.11376566666666577
    },
    {
      "name": "F#3",
      "midi": 54,
      "time": 123.77704533333245,
      "velocity": 0.3543307086614173,
      "duration": 0.11376566666666577
    },
    {
      "name": "A3",
      "midi": 57,
      "time": 123.89081099999912,
      "velocity": 0.3543307086614173,
      "duration": 0.11376566666666577
    },
    {
      "name": "F#3",
      "midi": 54,
      "time": 124.00457666666578,
      "velocity": 0.3543307086614173,
      "duration": 0.11376566666666577
    },
    {
      "name": "C#3",
      "midi": 49,
      "time": 124.11834233333245,
      "velocity": 0.3464566929133858,
      "duration": 0.11376566666666577
    },
    {
      "name": "D#3",
      "midi": 51,
      "time": 124.23210799999912,
      "velocity": 0.3464566929133858,
      "duration": 0.11376566666666577
    },
    {
      "name": "F#3",
      "midi": 54,
      "time": 124.34587366666578,
      "velocity": 0.36220472440944884,
      "duration": 0.11376566666666577
    },
    {
      "name": "A3",
      "midi": 57,
      "time": 124.45963933333245,
      "velocity": 0.3779527559055118,
      "duration": 0.11376566666666577
    },
    {
      "name": "B3",
      "midi": 59,
      "time": 124.57340499999911,
      "velocity": 0.3858267716535433,
      "duration": 0.11376566666666577
    },
    {
      "name": "A3",
      "midi": 57,
      "time": 124.68717066666578,
      "velocity": 0.3700787401574803,
      "duration": 0.11376566666666577
    },
    {
      "name": "F#3",
      "midi": 54,
      "time": 124.80093633333244,
      "velocity": 0.3543307086614173,
      "duration": 0.11376566666666577
    },
    {
      "name": "E2",
      "midi": 40,
      "time": 124.91470199999911,
      "velocity": 0.3543307086614173,
      "duration": 0.11376566666666577
    },
    {
      "name": "B2",
      "midi": 47,
      "time": 125.02846766666578,
      "velocity": 0.36220472440944884,
      "duration": 0.11376566666666577
    },
    {
      "name": "E3",
      "midi": 52,
      "time": 125.14223333333244,
      "velocity": 0.3779527559055118,
      "duration": 0.11376566666666577
    },
    {
      "name": "G#3",
      "midi": 56,
      "time": 125.25599899999911,
      "velocity": 0.3700787401574803,
      "duration": 0.11376566666666577
    },
    {
      "name": "E3",
      "midi": 52,
      "time": 125.36976466666577,
      "velocity": 0.36220472440944884,
      "duration": 0.11376566666666577
    },
    {
      "name": "B2",
      "midi": 47,
      "time": 125.48353033333244,
      "velocity": 0.3543307086614173,
      "duration": 0.11376566666666577
    },
    {
      "name": "A2",
      "midi": 45,
      "time": 125.5972959999991,
      "velocity": 0.3464566929133858,
      "duration": 0.11376566666666577
    },
    {
      "name": "C#3",
      "midi": 49,
      "time": 125.71106166666577,
      "velocity": 0.36220472440944884,
      "duration": 0.11376566666666577
    },
    {
      "name": "F#3",
      "midi": 54,
      "time": 125.82482733333244,
      "velocity": 0.3779527559055118,
      "duration": 0.11376566666666577
    },
    {
      "name": "A3",
      "midi": 57,
      "time": 125.9385929999991,
      "velocity": 0.3858267716535433,
      "duration": 0.11376566666666577
    },
    {
      "name": "F#3",
      "midi": 54,
      "time": 126.05235866666577,
      "velocity": 0.3700787401574803,
      "duration": 0.11376566666666577
    },
    {
      "name": "C#3",
      "midi": 49,
      "time": 126.16612433333243,
      "velocity": 0.3543307086614173,
      "duration": 0.11376566666666577
    },
    {
      "name": "A2",
      "midi": 45,
      "time": 126.2798899999991,
      "velocity": 0.3543307086614173,
      "duration": 0.11376566666666577
    },
    {
      "name": "C#3",
      "midi": 49,
      "time": 126.39365566666577,
      "velocity": 0.36220472440944884,
      "duration": 0.11376566666666577
    },
    {
      "name": "F#3",
      "midi": 54,
      "time": 126.50742133333243,
      "velocity": 0.3779527559055118,
      "duration": 0.11376566666666577
    },
    {
      "name": "A3",
      "midi": 57,
      "time": 126.6211869999991,
      "velocity": 0.3700787401574803,
      "duration": 0.11376566666666577
    },
    {
      "name": "F#3",
      "midi": 54,
      "time": 126.73495266666576,
      "velocity": 0.36220472440944884,
      "duration": 0.11376566666666577
    },
    {
      "name": "C#3",
      "midi": 49,
      "time": 126.84871833333243,
      "velocity": 0.3543307086614173,
      "duration": 0.11376566666666577
    },
    {
      "name": "B2",
      "midi": 47,
      "time": 126.9624839999991,
      "velocity": 0.3464566929133858,
      "duration": 0.11376566666667998
    },
    {
      "name": "D#3",
      "midi": 51,
      "time": 127.07624966666577,
      "velocity": 0.36220472440944884,
      "duration": 0.11376566666666577
    },
    {
      "name": "A3",
      "midi": 57,
      "time": 127.19001533333244,
      "velocity": 0.3779527559055118,
      "duration": 0.11376566666666577
    },
    {
      "name": "B3",
      "midi": 59,
      "time": 127.3037809999991,
      "velocity": 0.3858267716535433,
      "duration": 0.11376566666666577
    },
    {
      "name": "A3",
      "midi": 57,
      "time": 127.41754666666577,
      "velocity": 0.3700787401574803,
      "duration": 0.11376566666666577
    },
    {
      "name": "D#3",
      "midi": 51,
      "time": 127.53131233333244,
      "velocity": 0.3543307086614173,
      "duration": 0.11376566666666577
    },
    {
      "name": "E2",
      "midi": 40,
      "time": 127.6450779999991,
      "velocity": 0.3543307086614173,
      "duration": 0.11376566666665155
    },
    {
      "name": "B2",
      "midi": 47,
      "time": 127.75884366666575,
      "velocity": 0.36220472440944884,
      "duration": 0.11376566666666577
    },
    {
      "name": "E3",
      "midi": 52,
      "time": 127.87260933333242,
      "velocity": 0.3779527559055118,
      "duration": 0.11376566666666577
    },
    {
      "name": "G#3",
      "midi": 56,
      "time": 127.98637499999909,
      "velocity": 0.3700787401574803,
      "duration": 0.11376566666667998
    },
    {
      "name": "E3",
      "midi": 52,
      "time": 128.10014066666577,
      "velocity": 0.36220472440944884,
      "duration": 0.11376566666666577
    },
    {
      "name": "B2",
      "midi": 47,
      "time": 128.21390633333243,
      "velocity": 0.3543307086614173,
      "duration": 0.11376566666666577
    },
    {
      "name": "A2",
      "midi": 45,
      "time": 128.3276719999991,
      "velocity": 0.23622047244094488,
      "duration": 0.11376566666666577
    },
    {
      "name": "C#3",
      "midi": 49,
      "time": 128.44143766666576,
      "velocity": 0.25984251968503935,
      "duration": 0.11376566666666577
    },
    {
      "name": "F#3",
      "midi": 54,
      "time": 128.55520333333243,
      "velocity": 0.2677165354330709,
      "duration": 0.11376566666666577
    },
    {
      "name": "A3",
      "midi": 57,
      "time": 128.6689689999991,
      "velocity": 0.2755905511811024,
      "duration": 0.11376566666666577
    },
    {
      "name": "F#3",
      "midi": 54,
      "time": 128.78273466666576,
      "velocity": 0.2677165354330709,
      "duration": 0.11376566666666577
    },
    {
      "name": "C#3",
      "midi": 49,
      "time": 128.89650033333243,
      "velocity": 0.2677165354330709,
      "duration": 0.11376566666666577
    },
    {
      "name": "A2",
      "midi": 45,
      "time": 129.0102659999991,
      "velocity": 0.2677165354330709,
      "duration": 0.11376566666666577
    },
    {
      "name": "C#3",
      "midi": 49,
      "time": 129.12403166666576,
      "velocity": 0.2677165354330709,
      "duration": 0.11376566666666577
    },
    {
      "name": "F#3",
      "midi": 54,
      "time": 129.23779733333242,
      "velocity": 0.28346456692913385,
      "duration": 0.11376566666666577
    },
    {
      "name": "A3",
      "midi": 57,
      "time": 129.3515629999991,
      "velocity": 0.28346456692913385,
      "duration": 0.11376566666666577
    },
    {
      "name": "F#3",
      "midi": 54,
      "time": 129.46532866666576,
      "velocity": 0.2755905511811024,
      "duration": 0.11376566666666577
    },
    {
      "name": "C#3",
      "midi": 49,
      "time": 129.57909433333242,
      "velocity": 0.2677165354330709,
      "duration": 0.11376566666666577
    },
    {
      "name": "B2",
      "midi": 47,
      "time": 129.6928599999991,
      "velocity": 0.2677165354330709,
      "duration": 0.11376566666666577
    },
    {
      "name": "F#3",
      "midi": 54,
      "time": 129.80662566666575,
      "velocity": 0.29133858267716534,
      "duration": 0.11376566666666577
    },
    {
      "name": "A3",
      "midi": 57,
      "time": 129.92039133333242,
      "velocity": 0.2992125984251969,
      "duration": 0.11376566666666577
    },
    {
      "name": "B3",
      "midi": 59,
      "time": 130.03415699999908,
      "velocity": 0.30708661417322836,
      "duration": 0.11376566666666577
    },
    {
      "name": "A3",
      "midi": 57,
      "time": 130.14792266666575,
      "velocity": 0.2992125984251969,
      "duration": 0.11376566666666577
    },
    {
      "name": "F#3",
      "midi": 54,
      "time": 130.26168833333242,
      "velocity": 0.2992125984251969,
      "duration": 0.11376566666666577
    },
    {
      "name": "E2",
      "midi": 40,
      "time": 130.37545399999908,
      "velocity": 0.29133858267716534,
      "duration": 0.11376566666666577
    },
    {
      "name": "B2",
      "midi": 47,
      "time": 130.48921966666575,
      "velocity": 0.30708661417322836,
      "duration": 0.11376566666666577
    },
    {
      "name": "E3",
      "midi": 52,
      "time": 130.6029853333324,
      "velocity": 0.31496062992125984,
      "duration": 0.11376566666666577
    },
    {
      "name": "G#3",
      "midi": 56,
      "time": 130.71675099999908,
      "velocity": 0.31496062992125984,
      "duration": 0.11376566666666577
    },
    {
      "name": "E3",
      "midi": 52,
      "time": 130.83051666666574,
      "velocity": 0.31496062992125984,
      "duration": 0.11376566666666577
    },
    {
      "name": "B2",
      "midi": 47,
      "time": 130.9442823333324,
      "velocity": 0.30708661417322836,
      "duration": 0.11376566666666577
    },
    {
      "name": "A2",
      "midi": 45,
      "time": 131.05804799999908,
      "velocity": 0.30708661417322836,
      "duration": 0.11376566666663734
    },
    {
      "name": "C#3",
      "midi": 49,
      "time": 131.1718136666657,
      "velocity": 0.33070866141732286,
      "duration": 0.11376566666666577
    },
    {
      "name": "F#3",
      "midi": 54,
      "time": 131.28557933333238,
      "velocity": 0.33858267716535434,
      "duration": 0.11376566666666577
    },
    {
      "name": "A3",
      "midi": 57,
      "time": 131.39934499999904,
      "velocity": 0.3543307086614173,
      "duration": 0.11376566666666577
    },
    {
      "name": "F#3",
      "midi": 54,
      "time": 131.5131106666657,
      "velocity": 0.33858267716535434,
      "duration": 0.11376566666666577
    },
    {
      "name": "C#3",
      "midi": 49,
      "time": 131.62687633333238,
      "velocity": 0.33070866141732286,
      "duration": 0.11376566666666577
    },
    {
      "name": "A2",
      "midi": 45,
      "time": 131.74064199999904,
      "velocity": 0.33070866141732286,
      "duration": 0.11376566666666577
    },
    {
      "name": "D#3",
      "midi": 51,
      "time": 131.8544076666657,
      "velocity": 0.3464566929133858,
      "duration": 0.11376566666666577
    },
    {
      "name": "F#3",
      "midi": 54,
      "time": 131.96817333333237,
      "velocity": 0.3543307086614173,
      "duration": 0.11376566666666577
    },
    {
      "name": "A3",
      "midi": 57,
      "time": 132.08193899999904,
      "velocity": 0.3464566929133858,
      "duration": 0.11376566666666577
    },
    {
      "name": "F#3",
      "midi": 54,
      "time": 132.1957046666657,
      "velocity": 0.3464566929133858,
      "duration": 0.11376566666666577
    },
    {
      "name": "D#3",
      "midi": 51,
      "time": 132.30947033333237,
      "velocity": 0.33070866141732286,
      "duration": 0.11376566666666577
    },
    {
      "name": "G#2",
      "midi": 44,
      "time": 132.42323599999904,
      "velocity": 0.33070866141732286,
      "duration": 0.11376566666666577
    },
    {
      "name": "D#3",
      "midi": 51,
      "time": 132.5370016666657,
      "velocity": 0.3464566929133858,
      "duration": 0.11376566666666577
    },
    {
      "name": "F#3",
      "midi": 54,
      "time": 132.65076733333237,
      "velocity": 0.3543307086614173,
      "duration": 0.11376566666666577
    },
    {
      "name": "C4",
      "midi": 60,
      "time": 132.76453299999903,
      "velocity": 0.33070866141732286,
      "duration": 0.11376566666669419
    },
    {
      "name": "F#3",
      "midi": 54,
      "time": 132.87829866666573,
      "velocity": 0.33070866141732286,
      "duration": 0.11376566666666577
    },
    {
      "name": "D#3",
      "midi": 51,
      "time": 132.9920643333324,
      "velocity": 0.31496062992125984,
      "duration": 0.11376566666666577
    },
    {
      "name": "G#2",
      "midi": 44,
      "time": 133.10582999999906,
      "velocity": 0.30708661417322836,
      "duration": 0.11376566666666577
    },
    {
      "name": "D#3",
      "midi": 51,
      "time": 133.21959566666573,
      "velocity": 0.3228346456692913,
      "duration": 0.11376566666666577
    },
    {
      "name": "F#3",
      "midi": 54,
      "time": 133.3333613333324,
      "velocity": 0.33070866141732286,
      "duration": 0.11376566666666577
    },
    {
      "name": "C4",
      "midi": 60,
      "time": 133.44712699999906,
      "velocity": 0.31496062992125984,
      "duration": 0.11376566666666577
    },
    {
      "name": "F#3",
      "midi": 54,
      "time": 133.56089266666572,
      "velocity": 0.30708661417322836,
      "duration": 0.11376566666666577
    },
    {
      "name": "D#3",
      "midi": 51,
      "time": 133.6746583333324,
      "velocity": 0.2992125984251969,
      "duration": 0.11376566666666577
    },
    {
      "name": "A2",
      "midi": 45,
      "time": 133.78842399999905,
      "velocity": 0.2992125984251969,
      "duration": 0.11376566666666577
    },
    {
      "name": "D#3",
      "midi": 51,
      "time": 133.90218966666572,
      "velocity": 0.30708661417322836,
      "duration": 0.11376566666666577
    },
    {
      "name": "F#3",
      "midi": 54,
      "time": 134.01595533333239,
      "velocity": 0.31496062992125984,
      "duration": 0.11376566666666577
    },
    {
      "name": "B3",
      "midi": 59,
      "time": 134.12972099999905,
      "velocity": 0.2992125984251969,
      "duration": 0.11376566666669419
    },
    {
      "name": "F#3",
      "midi": 54,
      "time": 134.24348666666575,
      "velocity": 0.2992125984251969,
      "duration": 0.11376566666666577
    },
    {
      "name": "D#3",
      "midi": 51,
      "time": 134.3572523333324,
      "velocity": 0.28346456692913385,
      "duration": 0.11376566666666577
    },
    {
      "name": "A#2",
      "midi": 46,
      "time": 134.47101799999908,
      "velocity": 0.2755905511811024,
      "duration": 0.11376566666669419
    },
    {
      "name": "D#3",
      "midi": 51,
      "time": 134.58478366666577,
      "velocity": 0.29133858267716534,
      "duration": 0.11376566666666577
    },
    {
      "name": "F#3",
      "midi": 54,
      "time": 134.69854933333244,
      "velocity": 0.2992125984251969,
      "duration": 0.11376566666666577
    },
    {
      "name": "A#3",
      "midi": 58,
      "time": 134.8123149999991,
      "velocity": 0.28346456692913385,
      "duration": 0.11376566666666577
    },
    {
      "name": "F#3",
      "midi": 54,
      "time": 134.92608066666577,
      "velocity": 0.2755905511811024,
      "duration": 0.11376566666666577
    },
    {
      "name": "D#3",
      "midi": 51,
      "time": 135.03984633333243,
      "velocity": 0.2677165354330709,
      "duration": 0.11376566666666577
    },
    {
      "name": "C3",
      "midi": 48,
      "time": 135.1536119999991,
      "velocity": 0.2677165354330709,
      "duration": 0.11376566666669419
    },
    {
      "name": "D#3",
      "midi": 51,
      "time": 135.2673776666658,
      "velocity": 0.2677165354330709,
      "duration": 0.11376566666666577
    },
    {
      "name": "F#3",
      "midi": 54,
      "time": 135.38114333333246,
      "velocity": 0.2755905511811024,
      "duration": 0.11376566666666577
    },
    {
      "name": "A3",
      "midi": 57,
      "time": 135.49490899999913,
      "velocity": 0.2677165354330709,
      "duration": 0.11376566666666577
    },
    {
      "name": "F#3",
      "midi": 54,
      "time": 135.6086746666658,
      "velocity": 0.2677165354330709,
      "duration": 0.11376566666666577
    },
    {
      "name": "D#3",
      "midi": 51,
      "time": 135.72244033333246,
      "velocity": 0.25196850393700787,
      "duration": 0.11376566666666577
    },
    {
      "name": "C3",
      "midi": 48,
      "time": 135.83620599999912,
      "velocity": 0.2440944881889764,
      "duration": 0.11376566666666577
    },
    {
      "name": "D#3",
      "midi": 51,
      "time": 135.9499716666658,
      "velocity": 0.25984251968503935,
      "duration": 0.11376566666666577
    },
    {
      "name": "F#3",
      "midi": 54,
      "time": 136.06373733333245,
      "velocity": 0.25984251968503935,
      "duration": 0.11376566666666577
    },
    {
      "name": "A3",
      "midi": 57,
      "time": 136.17750299999912,
      "velocity": 0.2440944881889764,
      "duration": 0.11376566666666577
    },
    {
      "name": "F#3",
      "midi": 54,
      "time": 136.2912686666658,
      "velocity": 0.2440944881889764,
      "duration": 0.11376566666666577
    },
    {
      "name": "D#3",
      "midi": 51,
      "time": 136.40503433333245,
      "velocity": 0.2283464566929134,
      "duration": 0.11376566666666577
    },
    {
      "name": "A2",
      "midi": 45,
      "time": 136.51879999999912,
      "velocity": 0.2204724409448819,
      "duration": 0.11376566666666577
    },
    {
      "name": "D#3",
      "midi": 51,
      "time": 136.63256566666578,
      "velocity": 0.2283464566929134,
      "duration": 0.11376566666666577
    },
    {
      "name": "F#3",
      "midi": 54,
      "time": 136.74633133333245,
      "velocity": 0.23622047244094488,
      "duration": 0.11376566666666577
    },
    {
      "name": "B3",
      "midi": 59,
      "time": 136.86009699999912,
      "velocity": 0.25196850393700787,
      "duration": 0.11376566666666577
    },
    {
      "name": "F#3",
      "midi": 54,
      "time": 136.97386266666578,
      "velocity": 0.2440944881889764,
      "duration": 0.11376566666666577
    },
    {
      "name": "D#3",
      "midi": 51,
      "time": 137.08762833333245,
      "velocity": 0.2283464566929134,
      "duration": 0.11376566666666577
    },
    {
      "name": "A#2",
      "midi": 46,
      "time": 137.2013939999991,
      "velocity": 0.2125984251968504,
      "duration": 0.11376566666669419
    },
    {
      "name": "D#3",
      "midi": 51,
      "time": 137.3151596666658,
      "velocity": 0.2204724409448819,
      "duration": 0.11376566666666577
    },
    {
      "name": "F#3",
      "midi": 54,
      "time": 137.42892533333247,
      "velocity": 0.2283464566929134,
      "duration": 0.11376566666666577
    },
    {
      "name": "A#3",
      "midi": 58,
      "time": 137.54269099999914,
      "velocity": 0.23622047244094488,
      "duration": 0.11376566666666577
    },
    {
      "name": "F#3",
      "midi": 54,
      "time": 137.6564566666658,
      "velocity": 0.2283464566929134,
      "duration": 0.11376566666666577
    },
    {
      "name": "D#3",
      "midi": 51,
      "time": 137.77022233333247,
      "velocity": 0.2204724409448819,
      "duration": 0.11376566666666577
    },
    {
      "name": "B2",
      "midi": 47,
      "time": 137.88398799999914,
      "velocity": 0.2204724409448819,
      "duration": 0.11376566666666577
    },
    {
      "name": "D#3",
      "midi": 51,
      "time": 137.9977536666658,
      "velocity": 0.2204724409448819,
      "duration": 0.11376566666666577
    },
    {
      "name": "F#3",
      "midi": 54,
      "time": 138.11151933333247,
      "velocity": 0.2204724409448819,
      "duration": 0.11376566666666577
    },
    {
      "name": "A3",
      "midi": 57,
      "time": 138.22528499999913,
      "velocity": 0.23622047244094488,
      "duration": 0.11376566666669419
    },
    {
      "name": "F#3",
      "midi": 54,
      "time": 138.33905066666583,
      "velocity": 0.2204724409448819,
      "duration": 0.11376566666666577
    },
    {
      "name": "D#3",
      "midi": 51,
      "time": 138.4528163333325,
      "velocity": 0.2125984251968504,
      "duration": 0.11376566666666577
    },
    {
      "name": "C3",
      "midi": 48,
      "time": 138.56658199999916,
      "velocity": 0.18110236220472442,
      "duration": 0.11376566666666577
    },
    {
      "name": "D#3",
      "midi": 51,
      "time": 138.68034766666582,
      "velocity": 0.1889763779527559,
      "duration": 0.11376566666666577
    },
    {
      "name": "F#3",
      "midi": 54,
      "time": 138.7941133333325,
      "velocity": 0.1968503937007874,
      "duration": 0.11376566666666577
    },
    {
      "name": "G#3",
      "midi": 56,
      "time": 138.90787899999916,
      "velocity": 0.1968503937007874,
      "duration": 0.11376566666666577
    },
    {
      "name": "F#3",
      "midi": 54,
      "time": 139.02164466666582,
      "velocity": 0.1889763779527559,
      "duration": 0.11376566666666577
    },
    {
      "name": "D#3",
      "midi": 51,
      "time": 139.1354103333325,
      "velocity": 0.1732283464566929,
      "duration": 0.11376566666666577
    },
    {
      "name": "C#3",
      "midi": 49,
      "time": 139.24917599999915,
      "velocity": 0.1732283464566929,
      "duration": 0.11376566666666577
    },
    {
      "name": "G#3",
      "midi": 56,
      "time": 139.36294166666582,
      "velocity": 0.1968503937007874,
      "duration": 0.11376566666666577
    },
    {
      "name": "C#4",
      "midi": 61,
      "time": 139.47670733333248,
      "velocity": 0.2204724409448819,
      "duration": 0.11376566666666577
    },
    {
      "name": "E4",
      "midi": 64,
      "time": 139.59047299999915,
      "velocity": 0.23622047244094488,
      "duration": 0.11376566666666577
    },
    {
      "name": "C#4",
      "midi": 61,
      "time": 139.70423866666582,
      "velocity": 0.2204724409448819,
      "duration": 0.11376566666666577
    },
    {
      "name": "G#3",
      "midi": 56,
      "time": 139.81800433333248,
      "velocity": 0.2125984251968504,
      "duration": 0.11376566666666577
    },
    {
      "name": "E3",
      "midi": 52,
      "time": 139.93176999999915,
      "velocity": 0.2047244094488189,
      "duration": 0.11376566666666577
    },
    {
      "name": "G#3",
      "midi": 56,
      "time": 140.0455356666658,
      "velocity": 0.2204724409448819,
      "duration": 0.11376566666666577
    },
    {
      "name": "C#4",
      "midi": 61,
      "time": 140.15930133333248,
      "velocity": 0.23622047244094488,
      "duration": 0.11376566666666577
    },
    {
      "name": "E4",
      "midi": 64,
      "time": 140.27306699999914,
      "velocity": 0.2440944881889764,
      "duration": 0.11376566666666577
    },
    {
      "name": "C#4",
      "midi": 61,
      "time": 140.3868326666658,
      "velocity": 0.2204724409448819,
      "duration": 0.11376566666666577
    },
    {
      "name": "G#3",
      "midi": 56,
      "time": 140.50059833333248,
      "velocity": 0.2125984251968504,
      "duration": 0.11376566666666577
    },
    {
      "name": "C#3",
      "midi": 49,
      "time": 140.61436399999914,
      "velocity": 0.2125984251968504,
      "duration": 0.11376566666666577
    },
    {
      "name": "G#3",
      "midi": 56,
      "time": 140.7281296666658,
      "velocity": 0.23622047244094488,
      "duration": 0.11376566666666577
    },
    {
      "name": "C#4",
      "midi": 61,
      "time": 140.84189533333247,
      "velocity": 0.2677165354330709,
      "duration": 0.11376566666666577
    },
    {
      "name": "E4",
      "midi": 64,
      "time": 140.95566099999914,
      "velocity": 0.28346456692913385,
      "duration": 0.11376566666666577
    },
    {
      "name": "C#4",
      "midi": 61,
      "time": 141.0694266666658,
      "velocity": 0.2677165354330709,
      "duration": 0.11376566666666577
    },
    {
      "name": "G#3",
      "midi": 56,
      "time": 141.18319233333247,
      "velocity": 0.25984251968503935,
      "duration": 0.11376566666666577
    },
    {
      "name": "E3",
      "midi": 52,
      "time": 141.29695799999914,
      "velocity": 0.2440944881889764,
      "duration": 0.11376566666666577
    },
    {
      "name": "G#3",
      "midi": 56,
      "time": 141.4107236666658,
      "velocity": 0.25984251968503935,
      "duration": 0.11376566666666577
    },
    {
      "name": "C#4",
      "midi": 61,
      "time": 141.52448933333247,
      "velocity": 0.28346456692913385,
      "duration": 0.11376566666666577
    },
    {
      "name": "E4",
      "midi": 64,
      "time": 141.63825499999913,
      "velocity": 0.29133858267716534,
      "duration": 0.11376566666666577
    },
    {
      "name": "C#4",
      "midi": 61,
      "time": 141.7520206666658,
      "velocity": 0.2677165354330709,
      "duration": 0.11376566666666577
    },
    {
      "name": "G#3",
      "midi": 56,
      "time": 141.86578633333247,
      "velocity": 0.25196850393700787,
      "duration": 0.11376566666666577
    },
    {
      "name": "D#3",
      "midi": 51,
      "time": 141.97955199999913,
      "velocity": 0.2440944881889764,
      "duration": 0.11376566666666577
    },
    {
      "name": "A3",
      "midi": 57,
      "time": 142.0933176666658,
      "velocity": 0.2755905511811024,
      "duration": 0.11376566666666577
    },
    {
      "name": "C#4",
      "midi": 61,
      "time": 142.20708333333246,
      "velocity": 0.30708661417322836,
      "duration": 0.11376566666666577
    },
    {
      "name": "F#4",
      "midi": 66,
      "time": 142.32084899999913,
      "velocity": 0.3543307086614173,
      "duration": 0.11376566666666577
    },
    {
      "name": "C#4",
      "midi": 61,
      "time": 142.4346146666658,
      "velocity": 0.30708661417322836,
      "duration": 0.11376566666666577
    },
    {
      "name": "A3",
      "midi": 57,
      "time": 142.54838033333246,
      "velocity": 0.29133858267716534,
      "duration": 0.11376566666666577
    },
    {
      "name": "F#3",
      "midi": 54,
      "time": 142.66214599999913,
      "velocity": 0.29133858267716534,
      "duration": 0.11376566666666577
    },
    {
      "name": "C#4",
      "midi": 61,
      "time": 142.7759116666658,
      "velocity": 0.31496062992125984,
      "duration": 0.11376566666666577
    },
    {
      "name": "D#4",
      "midi": 63,
      "time": 142.88967733333246,
      "velocity": 0.3464566929133858,
      "duration": 0.11376566666666577
    },
    {
      "name": "A4",
      "midi": 69,
      "time": 143.00344299999912,
      "velocity": 0.36220472440944884,
      "duration": 0.11376566666666577
    },
    {
      "name": "D#4",
      "midi": 63,
      "time": 143.1172086666658,
      "velocity": 0.3464566929133858,
      "duration": 0.11376566666666577
    },
    {
      "name": "C#4",
      "midi": 61,
      "time": 143.23097433333245,
      "velocity": 0.3228346456692913,
      "duration": 0.11376566666666577
    },
    {
      "name": "G#2",
      "midi": 44,
      "time": 143.34473999999912,
      "velocity": 0.25984251968503935,
      "duration": 0.11376566666669419
    },
    {
      "name": "D#3",
      "midi": 51,
      "time": 143.45850566666581,
      "velocity": 0.2755905511811024,
      "duration": 0.11376566666666577
    },
    {
      "name": "F#3",
      "midi": 54,
      "time": 143.57227133333248,
      "velocity": 0.2992125984251969,
      "duration": 0.11376566666666577
    },
    {
      "name": "C4",
      "midi": 60,
      "time": 143.68603699999915,
      "velocity": 0.30708661417322836,
      "duration": 0.11376566666666577
    },
    {
      "name": "F#3",
      "midi": 54,
      "time": 143.7998026666658,
      "velocity": 0.28346456692913385,
      "duration": 0.11376566666666577
    },
    {
      "name": "D#3",
      "midi": 51,
      "time": 143.91356833333248,
      "velocity": 0.2677165354330709,
      "duration": 0.11376566666666577
    },
    {
      "name": "G#2",
      "midi": 44,
      "time": 144.02733399999914,
      "velocity": 0.2283464566929134,
      "duration": 0.11376566666666577
    },
    {
      "name": "D#3",
      "midi": 51,
      "time": 144.1410996666658,
      "velocity": 0.2440944881889764,
      "duration": 0.11376566666666577
    },
    {
      "name": "F#3",
      "midi": 54,
      "time": 144.25486533333248,
      "velocity": 0.25984251968503935,
      "duration": 0.11376566666666577
    },
    {
      "name": "C4",
      "midi": 60,
      "time": 144.36863099999914,
      "velocity": 0.25984251968503935,
      "duration": 0.11376566666666577
    },
    {
      "name": "F#3",
      "midi": 54,
      "time": 144.4823966666658,
      "velocity": 0.2283464566929134,
      "duration": 0.11376566666666577
    },
    {
      "name": "D#3",
      "midi": 51,
      "time": 144.59616233333247,
      "velocity": 0.2047244094488189,
      "duration": 0.11376566666666577
    },
    {
      "name": "C#3",
      "midi": 49,
      "time": 144.70992799999914,
      "velocity": 0.1732283464566929,
      "duration": 0.11376566666669419
    },
    {
      "name": "G#3",
      "midi": 56,
      "time": 144.82369366666583,
      "velocity": 0.1968503937007874,
      "duration": 0.11376566666666577
    },
    {
      "name": "C#4",
      "midi": 61,
      "time": 144.9374593333325,
      "velocity": 0.2204724409448819,
      "duration": 0.11376566666666577
    },
    {
      "name": "E4",
      "midi": 64,
      "time": 145.05122499999916,
      "velocity": 0.23622047244094488,
      "duration": 0.11376566666666577
    },
    {
      "name": "C#4",
      "midi": 61,
      "time": 145.16499066666583,
      "velocity": 0.2204724409448819,
      "duration": 0.11376566666666577
    },
    {
      "name": "G#3",
      "midi": 56,
      "time": 145.2787563333325,
      "velocity": 0.2125984251968504,
      "duration": 0.11376566666666577
    },
    {
      "name": "E3",
      "midi": 52,
      "time": 145.39252199999916,
      "velocity": 0.2047244094488189,
      "duration": 0.11376566666666577
    },
    {
      "name": "G#3",
      "midi": 56,
      "time": 145.50628766666583,
      "velocity": 0.2204724409448819,
      "duration": 0.11376566666666577
    },
    {
      "name": "C#4",
      "midi": 61,
      "time": 145.6200533333325,
      "velocity": 0.23622047244094488,
      "duration": 0.11376566666666577
    },
    {
      "name": "E4",
      "midi": 64,
      "time": 145.73381899999916,
      "velocity": 0.2440944881889764,
      "duration": 0.11376566666666577
    },
    {
      "name": "C#4",
      "midi": 61,
      "time": 145.84758466666582,
      "velocity": 0.2204724409448819,
      "duration": 0.11376566666666577
    },
    {
      "name": "G#3",
      "midi": 56,
      "time": 145.9613503333325,
      "velocity": 0.2125984251968504,
      "duration": 0.11376566666666577
    },
    {
      "name": "F#3",
      "midi": 54,
      "time": 146.07511599999916,
      "velocity": 0.1968503937007874,
      "duration": 0.11376566666669419
    },
    {
      "name": "C#4",
      "midi": 61,
      "time": 146.18888166666585,
      "velocity": 0.2283464566929134,
      "duration": 0.11376566666666577
    },
    {
      "name": "D#4",
      "midi": 63,
      "time": 146.30264733333252,
      "velocity": 0.25196850393700787,
      "duration": 0.11376566666666577
    },
    {
      "name": "A4",
      "midi": 69,
      "time": 146.41641299999918,
      "velocity": 0.2677165354330709,
      "duration": 0.11376566666666577
    },
    {
      "name": "D#4",
      "midi": 63,
      "time": 146.53017866666585,
      "velocity": 0.25984251968503935,
      "duration": 0.11376566666666577
    },
    {
      "name": "C#4",
      "midi": 61,
      "time": 146.6439443333325,
      "velocity": 0.2440944881889764,
      "duration": 0.11376566666666577
    },
    {
      "name": "G#3",
      "midi": 56,
      "time": 146.75770999999918,
      "velocity": 0.23622047244094488,
      "duration": 0.11376566666666577
    },
    {
      "name": "C#4",
      "midi": 61,
      "time": 146.87147566666584,
      "velocity": 0.25196850393700787,
      "duration": 0.11376566666666577
    },
    {
      "name": "F4",
      "midi": 65,
      "time": 146.9852413333325,
      "velocity": 0.2755905511811024,
      "duration": 0.11376566666666577
    },
    {
      "name": "B4",
      "midi": 71,
      "time": 147.09900699999918,
      "velocity": 0.29133858267716534,
      "duration": 0.11376566666666577
    },
    {
      "name": "F4",
      "midi": 65,
      "time": 147.21277266666584,
      "velocity": 0.2677165354330709,
      "duration": 0.11376566666666577
    },
    {
      "name": "C#4",
      "midi": 61,
      "time": 147.3265383333325,
      "velocity": 0.25196850393700787,
      "duration": 0.11376566666666577
    },
    {
      "name": "A3",
      "midi": 57,
      "time": 147.44030399999917,
      "velocity": 0.23622047244094488,
      "duration": 0.11376566666666577
    },
    {
      "name": "C#4",
      "midi": 61,
      "time": 147.55406966666584,
      "velocity": 0.2677165354330709,
      "duration": 0.11376566666666577
    },
    {
      "name": "F#4",
      "midi": 66,
      "time": 147.6678353333325,
      "velocity": 0.29133858267716534,
      "duration": 0.11376566666666577
    },
    {
      "name": "A4",
      "midi": 69,
      "time": 147.78160099999917,
      "velocity": 0.31496062992125984,
      "duration": 0.11376566666666577
    },
    {
      "name": "F#4",
      "midi": 66,
      "time": 147.89536666666584,
      "velocity": 0.30708661417322836,
      "duration": 0.11376566666666577
    },
    {
      "name": "C#4",
      "midi": 61,
      "time": 148.0091323333325,
      "velocity": 0.2755905511811024,
      "duration": 0.11376566666666577
    },
    {
      "name": "G#3",
      "midi": 56,
      "time": 148.12289799999917,
      "velocity": 0.2677165354330709,
      "duration": 0.11376566666666577
    },
    {
      "name": "C#4",
      "midi": 61,
      "time": 148.23666366666583,
      "velocity": 0.28346456692913385,
      "duration": 0.11376566666666577
    },
    {
      "name": "F4",
      "midi": 65,
      "time": 148.3504293333325,
      "velocity": 0.30708661417322836,
      "duration": 0.11376566666666577
    },
    {
      "name": "B4",
      "midi": 71,
      "time": 148.46419499999917,
      "velocity": 0.31496062992125984,
      "duration": 0.11376566666666577
    },
    {
      "name": "F4",
      "midi": 65,
      "time": 148.57796066666583,
      "velocity": 0.29133858267716534,
      "duration": 0.11376566666666577
    },
    {
      "name": "C#4",
      "midi": 61,
      "time": 148.6917263333325,
      "velocity": 0.2677165354330709,
      "duration": 0.11376566666666577
    },
    {
      "name": "A3",
      "midi": 57,
      "time": 148.80549199999916,
      "velocity": 0.25196850393700787,
      "duration": 0.11376566666666577
    },
    {
      "name": "C#4",
      "midi": 61,
      "time": 148.91925766666583,
      "velocity": 0.28346456692913385,
      "duration": 0.11376566666666577
    },
    {
      "name": "F#4",
      "midi": 66,
      "time": 149.0330233333325,
      "velocity": 0.30708661417322836,
      "duration": 0.11376566666666577
    },
    {
      "name": "A4",
      "midi": 69,
      "time": 149.14678899999916,
      "velocity": 0.33070866141732286,
      "duration": 0.11376566666666577
    },
    {
      "name": "F#4",
      "midi": 66,
      "time": 149.26055466666583,
      "velocity": 0.31496062992125984,
      "duration": 0.11376566666666577
    },
    {
      "name": "C#4",
      "midi": 61,
      "time": 149.3743203333325,
      "velocity": 0.2992125984251969,
      "duration": 0.11376566666666577
    },
    {
      "name": "C3",
      "midi": 48,
      "time": 149.48808599999916,
      "velocity": 0.28346456692913385,
      "duration": 0.11376566666666577
    },
    {
      "name": "F#3",
      "midi": 54,
      "time": 149.60185166666582,
      "velocity": 0.2992125984251969,
      "duration": 0.11376566666666577
    },
    {
      "name": "G#3",
      "midi": 56,
      "time": 149.7156173333325,
      "velocity": 0.3228346456692913,
      "duration": 0.11376566666666577
    },
    {
      "name": "D#4",
      "midi": 63,
      "time": 149.82938299999915,
      "velocity": 0.33070866141732286,
      "duration": 0.11376566666666577
    },
    {
      "name": "G#3",
      "midi": 56,
      "time": 149.94314866666582,
      "velocity": 0.30708661417322836,
      "duration": 0.11376566666666577
    },
    {
      "name": "F#3",
      "midi": 54,
      "time": 150.0569143333325,
      "velocity": 0.29133858267716534,
      "duration": 0.11376566666666577
    },
    {
      "name": "C#3",
      "midi": 49,
      "time": 150.17067999999915,
      "velocity": 0.2755905511811024,
      "duration": 0.11376566666666577
    },
    {
      "name": "G#3",
      "midi": 56,
      "time": 150.28444566666582,
      "velocity": 0.30708661417322836,
      "duration": 0.11376566666666577
    },
    {
      "name": "C#4",
      "midi": 61,
      "time": 150.39821133333248,
      "velocity": 0.33858267716535434,
      "duration": 0.11376566666666577
    },
    {
      "name": "E4",
      "midi": 64,
      "time": 150.51197699999915,
      "velocity": 0.3543307086614173,
      "duration": 0.11376566666666577
    },
    {
      "name": "C#4",
      "midi": 61,
      "time": 150.62574266666581,
      "velocity": 0.3464566929133858,
      "duration": 0.11376566666666577
    },
    {
      "name": "G#3",
      "midi": 56,
      "time": 150.73950833333248,
      "velocity": 0.33070866141732286,
      "duration": 0.11376566666666577
    },
    {
      "name": "D#3",
      "midi": 51,
      "time": 150.85327399999915,
      "velocity": 0.3464566929133858,
      "duration": 0.11376566666666577
    },
    {
      "name": "G#3",
      "midi": 56,
      "time": 150.9670396666658,
      "velocity": 0.3228346456692913,
      "duration": 0.11376566666666577
    },
    {
      "name": "C4",
      "midi": 60,
      "time": 151.08080533333248,
      "velocity": 0.3543307086614173,
      "duration": 0.11376566666666577
    },
    {
      "name": "F#4",
      "midi": 66,
      "time": 151.19457099999914,
      "velocity": 0.36220472440944884,
      "duration": 0.11376566666666577
    },
    {
      "name": "C4",
      "midi": 60,
      "time": 151.3083366666658,
      "velocity": 0.3464566929133858,
      "duration": 0.11376566666666577
    },
    {
      "name": "G#3",
      "midi": 56,
      "time": 151.42210233333248,
      "velocity": 0.3228346456692913,
      "duration": 0.11376566666666577
    },
    {
      "name": "E3",
      "midi": 52,
      "time": 151.53586799999914,
      "velocity": 0.2755905511811024,
      "duration": 0.11376566666666577
    },
    {
      "name": "G#3",
      "midi": 56,
      "time": 151.6496336666658,
      "velocity": 0.30708661417322836,
      "duration": 0.11376566666666577
    },
    {
      "name": "C#4",
      "midi": 61,
      "time": 151.76339933333247,
      "velocity": 0.33858267716535434,
      "duration": 0.11376566666666577
    },
    {
      "name": "E4",
      "midi": 64,
      "time": 151.87716499999914,
      "velocity": 0.3543307086614173,
      "duration": 0.11376566666666577
    },
    {
      "name": "C#4",
      "midi": 61,
      "time": 151.9909306666658,
      "velocity": 0.3464566929133858,
      "duration": 0.11376566666666577
    },
    {
      "name": "G#3",
      "midi": 56,
      "time": 152.10469633333247,
      "velocity": 0.33070866141732286,
      "duration": 0.11376566666666577
    },
    {
      "name": "F#3",
      "midi": 54,
      "time": 152.21846199999914,
      "velocity": 0.3464566929133858,
      "duration": 0.11376566666666577
    },
    {
      "name": "C#4",
      "midi": 61,
      "time": 152.3322276666658,
      "velocity": 0.3228346456692913,
      "duration": 0.11376566666666577
    },
    {
      "name": "D#4",
      "midi": 63,
      "time": 152.44599333333247,
      "velocity": 0.3543307086614173,
      "duration": 0.11376566666666577
    },
    {
      "name": "A4",
      "midi": 69,
      "time": 152.55975899999913,
      "velocity": 0.36220472440944884,
      "duration": 0.11376566666666577
    },
    {
      "name": "D#4",
      "midi": 63,
      "time": 152.6735246666658,
      "velocity": 0.3779527559055118,
      "duration": 0.11376566666666577
    },
    {
      "name": "C#4",
      "midi": 61,
      "time": 152.78729033333246,
      "velocity": 0.4015748031496063,
      "duration": 0.11376566666666577
    },
    {
      "name": "G#4",
      "midi": 68,
      "time": 152.90105599999913,
      "velocity": 0.5590551181102362,
      "duration": 0.17064849999999865
    },
    {
      "name": "E4",
      "midi": 64,
      "time": 152.90105599999913,
      "velocity": 0.5590551181102362,
      "duration": 0.17064849999999865
    },
    {
      "name": "C#4",
      "midi": 61,
      "time": 152.90105599999913,
      "velocity": 0.5590551181102362,
      "duration": 0.17064849999999865
    },
    {
      "name": "G#3",
      "midi": 56,
      "time": 152.90105599999913,
      "velocity": 0.5590551181102362,
      "duration": 0.17064849999999865
    },
    {
      "name": "A4",
      "midi": 69,
      "time": 153.58364999999912,
      "velocity": 0.5590551181102362,
      "duration": 0.3412969999999973
    },
    {
      "name": "E4",
      "midi": 64,
      "time": 153.58364999999912,
      "velocity": 0.5590551181102362,
      "duration": 0.3412969999999973
    },
    {
      "name": "C#4",
      "midi": 61,
      "time": 153.58364999999912,
      "velocity": 0.5590551181102362,
      "duration": 0.3412969999999973
    },
    {
      "name": "G3",
      "midi": 55,
      "time": 153.58364999999912,
      "velocity": 0.5590551181102362,
      "duration": 0.3412969999999973
    },
    {
      "name": "G#1",
      "midi": 32,
      "time": 155.6314319999991,
      "velocity": 0.6141732283464567,
      "duration": 0.08532424999998511
    },
    {
      "name": "G#2",
      "midi": 44,
      "time": 155.6314319999991,
      "velocity": 0.6141732283464567,
      "duration": 0.08532424999998511
    },
    {
      "name": "E5",
      "midi": 76,
      "time": 155.9727289999991,
      "velocity": 0.5905511811023622,
      "duration": 0.3412969999999973
    },
    {
      "name": "E4",
      "midi": 64,
      "time": 155.9727289999991,
      "velocity": 0.5905511811023622,
      "duration": 0.3412969999999973
    },
    {
      "name": "C#4",
      "midi": 61,
      "time": 156.3140259999991,
      "velocity": 0.6141732283464567,
      "duration": 0.3412969999999973
    },
    {
      "name": "C#5",
      "midi": 73,
      "time": 156.3140259999991,
      "velocity": 0.6141732283464567,
      "duration": 0.3412969999999973
    },
    {
      "name": "G#3",
      "midi": 56,
      "time": 156.6553229999991,
      "velocity": 0.6141732283464567,
      "duration": 0.3412969999999973
    },
    {
      "name": "G#4",
      "midi": 68,
      "time": 156.6553229999991,
      "velocity": 0.6141732283464567,
      "duration": 0.3412969999999973
    },
    {
      "name": "E3",
      "midi": 52,
      "time": 156.9966199999991,
      "velocity": 0.6141732283464567,
      "duration": 0.3412969999999973
    },
    {
      "name": "E4",
      "midi": 64,
      "time": 156.9966199999991,
      "velocity": 0.6141732283464567,
      "duration": 0.3412969999999973
    },
    {
      "name": "C#3",
      "midi": 49,
      "time": 157.3379169999991,
      "velocity": 0.5826771653543307,
      "duration": 0.3412969999999973
    },
    {
      "name": "C#4",
      "midi": 61,
      "time": 157.3379169999991,
      "velocity": 0.5826771653543307,
      "duration": 0.3412969999999973
    },
    {
      "name": "G#2",
      "midi": 44,
      "time": 157.6792139999991,
      "velocity": 0.6141732283464567,
      "duration": 0.3412969999999973
    },
    {
      "name": "G#3",
      "midi": 56,
      "time": 157.6792139999991,
      "velocity": 0.6141732283464567,
      "duration": 0.3412969999999973
    },
    {
      "name": "E2",
      "midi": 40,
      "time": 158.0205109999991,
      "velocity": 0.5826771653543307,
      "duration": 0.3412969999999973
    },
    {
      "name": "E3",
      "midi": 52,
      "time": 158.0205109999991,
      "velocity": 0.5826771653543307,
      "duration": 0.3412969999999973
    },
    {
      "name": "C#2",
      "midi": 37,
      "time": 158.3618079999991,
      "velocity": 0.6141732283464567,
      "duration": 0.3412969999999973
    },
    {
      "name": "C#3",
      "midi": 49,
      "time": 158.3618079999991,
      "velocity": 0.6141732283464567,
      "duration": 0.3412969999999973
    },
    {
      "name": "G#1",
      "midi": 32,
      "time": 158.70310499999908,
      "velocity": 0.5748031496062992,
      "duration": 0.3412969999999973
    },
    {
      "name": "G#2",
      "midi": 44,
      "time": 158.70310499999908,
      "velocity": 0.5748031496062992,
      "duration": 0.3412969999999973
    },
    {
      "name": "G#1",
      "midi": 32,
      "time": 159.04440199999908,
      "velocity": 0.6141732283464567,
      "duration": 0.3412969999999973
    },
    {
      "name": "G#2",
      "midi": 44,
      "time": 159.04440199999908,
      "velocity": 0.6141732283464567,
      "duration": 0.3412969999999973
    },
    {
      "name": "A1",
      "midi": 33,
      "time": 159.38569899999908,
      "velocity": 0.5826771653543307,
      "duration": 0.3412969999999973
    },
    {
      "name": "A2",
      "midi": 45,
      "time": 159.38569899999908,
      "velocity": 0.5826771653543307,
      "duration": 0.3412969999999973
    },
    {
      "name": "G#1",
      "midi": 32,
      "time": 159.72699599999908,
      "velocity": 0.6141732283464567,
      "duration": 0.3412969999999973
    },
    {
      "name": "G#2",
      "midi": 44,
      "time": 159.72699599999908,
      "velocity": 0.6141732283464567,
      "duration": 0.3412969999999973
    },
    {
      "name": "G1",
      "midi": 31,
      "time": 160.06829299999907,
      "velocity": 0.5669291338582677,
      "duration": 0.3412969999999973
    },
    {
      "name": "G2",
      "midi": 43,
      "time": 160.06829299999907,
      "velocity": 0.5669291338582677,
      "duration": 0.3412969999999973
    },
    {
      "name": "G#1",
      "midi": 32,
      "time": 160.40958999999907,
      "velocity": 0.5433070866141733,
      "duration": 0.682594000000023
    },
    {
      "name": "G#2",
      "midi": 44,
      "time": 160.40958999999907,
      "velocity": 0.5433070866141733,
      "duration": 0.682594000000023
    },
    {
      "name": "C#2",
      "midi": 37,
      "time": 161.0921839999991,
      "velocity": 0.7322834645669292,
      "duration": 0.17064849999999865
    },
    {
      "name": "E3",
      "midi": 52,
      "time": 161.2628324999991,
      "velocity": 0.4409448818897638,
      "duration": 0.17064849999999865
    },
    {
      "name": "C#3",
      "midi": 49,
      "time": 161.4334809999991,
      "velocity": 0.4566929133858268,
      "duration": 0.17064849999999865
    },
    {
      "name": "G#2",
      "midi": 44,
      "time": 161.6041294999991,
      "velocity": 0.4566929133858268,
      "duration": 0.17064849999999865
    },
    {
      "name": "C#2",
      "midi": 37,
      "time": 161.7747779999991,
      "velocity": 0.49606299212598426,
      "duration": 0.17064849999999865
    },
    {
      "name": "F#3",
      "midi": 54,
      "time": 161.9454264999991,
      "velocity": 0.4566929133858268,
      "duration": 0.17064849999999865
    },
    {
      "name": "C3",
      "midi": 48,
      "time": 162.11607499999909,
      "velocity": 0.4566929133858268,
      "duration": 0.17064849999999865
    },
    {
      "name": "G#2",
      "midi": 44,
      "time": 162.28672349999908,
      "velocity": 0.4566929133858268,
      "duration": 0.17064849999999865
    },
    {
      "name": "C#2",
      "midi": 37,
      "time": 162.45737199999908,
      "velocity": 0.49606299212598426,
      "duration": 0.17064849999999865
    },
    {
      "name": "E3",
      "midi": 52,
      "time": 162.62802049999908,
      "velocity": 0.4566929133858268,
      "duration": 0.17064849999999865
    },
    {
      "name": "C#3",
      "midi": 49,
      "time": 162.79866899999908,
      "velocity": 0.4566929133858268,
      "duration": 0.17064849999999865
    },
    {
      "name": "G#2",
      "midi": 44,
      "time": 162.96931749999908,
      "velocity": 0.4566929133858268,
      "duration": 0.17064849999999865
    },
    {
      "name": "C#2",
      "midi": 37,
      "time": 163.13996599999908,
      "velocity": 0.3700787401574803,
      "duration": 0.17064849999997023
    },
    {
      "name": "F#3",
      "midi": 54,
      "time": 163.31061449999905,
      "velocity": 0.33858267716535434,
      "duration": 0.17064849999999865
    },
    {
      "name": "C3",
      "midi": 48,
      "time": 163.48126299999905,
      "velocity": 0.33858267716535434,
      "duration": 0.17064849999999865
    },
    {
      "name": "G#2",
      "midi": 44,
      "time": 163.65191149999904,
      "velocity": 0.33858267716535434,
      "duration": 0.17064849999999865
    },
    {
      "name": "C#2",
      "midi": 37,
      "time": 163.82255999999904,
      "velocity": 0.3700787401574803,
      "duration": 0.17064849999999865
    },
    {
      "name": "E3",
      "midi": 52,
      "time": 163.99320849999904,
      "velocity": 0.33858267716535434,
      "duration": 0.17064849999999865
    },
    {
      "name": "C#3",
      "midi": 49,
      "time": 164.16385699999904,
      "velocity": 0.4566929133858268,
      "duration": 0.17064849999999865
    },
    {
      "name": "G#2",
      "midi": 44,
      "time": 164.33450549999904,
      "velocity": 0.4566929133858268,
      "duration": 0.17064849999999865
    },
    {
      "name": "C#2",
      "midi": 37,
      "time": 164.50515399999904,
      "velocity": 0.49606299212598426,
      "duration": 0.17064849999999865
    },
    {
      "name": "F#3",
      "midi": 54,
      "time": 164.67580249999904,
      "velocity": 0.4566929133858268,
      "duration": 0.17064849999999865
    },
    {
      "name": "C3",
      "midi": 48,
      "time": 164.84645099999904,
      "velocity": 0.4566929133858268,
      "duration": 0.17064849999999865
    },
    {
      "name": "G#2",
      "midi": 44,
      "time": 165.01709949999903,
      "velocity": 0.4566929133858268,
      "duration": 0.17064849999999865
    },
    {
      "name": "C#2",
      "midi": 37,
      "time": 165.18774799999903,
      "velocity": 0.49606299212598426,
      "duration": 0.17064849999999865
    },
    {
      "name": "E3",
      "midi": 52,
      "time": 165.35839649999903,
      "velocity": 0.4566929133858268,
      "duration": 0.17064849999999865
    },
    {
      "name": "C#3",
      "midi": 49,
      "time": 165.52904499999903,
      "velocity": 0.4566929133858268,
      "duration": 0.17064849999999865
    },
    {
      "name": "G#2",
      "midi": 44,
      "time": 165.69969349999903,
      "velocity": 0.4566929133858268,
      "duration": 0.17064849999999865
    },
    {
      "name": "C#2",
      "midi": 37,
      "time": 165.87034199999903,
      "velocity": 0.3700787401574803,
      "duration": 0.17064850000002707
    },
    {
      "name": "F#3",
      "midi": 54,
      "time": 166.04099049999905,
      "velocity": 0.28346456692913385,
      "duration": 0.17064849999999865
    },
    {
      "name": "C3",
      "midi": 48,
      "time": 166.21163899999905,
      "velocity": 0.28346456692913385,
      "duration": 0.17064849999999865
    },
    {
      "name": "G#2",
      "midi": 44,
      "time": 166.38228749999905,
      "velocity": 0.28346456692913385,
      "duration": 0.17064849999999865
    },
    {
      "name": "C#2",
      "midi": 37,
      "time": 166.55293599999905,
      "velocity": 0.30708661417322836,
      "duration": 0.17064849999999865
    },
    {
      "name": "E3",
      "midi": 52,
      "time": 166.72358449999905,
      "velocity": 0.28346456692913385,
      "duration": 0.17064849999999865
    },
    {
      "name": "C#3",
      "midi": 49,
      "time": 166.89423299999905,
      "velocity": 0.28346456692913385,
      "duration": 0.17064849999999865
    },
    {
      "name": "G#2",
      "midi": 44,
      "time": 167.06488149999905,
      "velocity": 0.28346456692913385,
      "duration": 0.17064849999999865
    },
    {
      "name": "C#2",
      "midi": 37,
      "time": 167.23552999999905,
      "velocity": 0.30708661417322836,
      "duration": 0.17064849999999865
    },
    {
      "name": "G#3",
      "midi": 56,
      "time": 167.40617849999904,
      "velocity": 0.28346456692913385,
      "duration": 0.17064849999999865
    },
    {
      "name": "C#3",
      "midi": 49,
      "time": 167.57682699999904,
      "velocity": 0.28346456692913385,
      "duration": 0.17064849999999865
    },
    {
      "name": "G#2",
      "midi": 44,
      "time": 167.74747549999904,
      "velocity": 0.28346456692913385,
      "duration": 0.17064849999999865
    },
    {
      "name": "C#2",
      "midi": 37,
      "time": 167.91812399999904,
      "velocity": 0.30708661417322836,
      "duration": 0.17064849999999865
    },
    {
      "name": "E3",
      "midi": 52,
      "time": 168.08877249999904,
      "velocity": 0.28346456692913385,
      "duration": 0.17064849999999865
    },
    {
      "name": "C#3",
      "midi": 49,
      "time": 168.25942099999904,
      "velocity": 0.28346456692913385,
      "duration": 0.17064849999999865
    },
    {
      "name": "G#2",
      "midi": 44,
      "time": 168.43006949999904,
      "velocity": 0.28346456692913385,
      "duration": 0.17064849999999865
    },
    {
      "name": "C#2",
      "midi": 37,
      "time": 168.60071799999903,
      "velocity": 0.30708661417322836,
      "duration": 0.17064849999999865
    },
    {
      "name": "G#3",
      "midi": 56,
      "time": 168.77136649999903,
      "velocity": 0.28346456692913385,
      "duration": 0.17064849999999865
    },
    {
      "name": "C#3",
      "midi": 49,
      "time": 168.94201499999903,
      "velocity": 0.28346456692913385,
      "duration": 0.17064849999999865
    },
    {
      "name": "G#2",
      "midi": 44,
      "time": 169.11266349999903,
      "velocity": 0.28346456692913385,
      "duration": 0.17064849999999865
    },
    {
      "name": "C#2",
      "midi": 37,
      "time": 169.28331199999903,
      "velocity": 0.30708661417322836,
      "duration": 0.17064849999999865
    },
    {
      "name": "E3",
      "midi": 52,
      "time": 169.45396049999903,
      "velocity": 0.2755905511811024,
      "duration": 0.17064849999999865
    },
    {
      "name": "C#3",
      "midi": 49,
      "time": 169.62460899999903,
      "velocity": 0.2755905511811024,
      "duration": 0.17064849999999865
    },
    {
      "name": "G#2",
      "midi": 44,
      "time": 169.79525749999902,
      "velocity": 0.2677165354330709,
      "duration": 0.17064849999999865
    },
    {
      "name": "C#2",
      "midi": 37,
      "time": 169.96590599999902,
      "velocity": 0.2992125984251969,
      "duration": 0.17064849999999865
    },
    {
      "name": "E3",
      "midi": 52,
      "time": 170.13655449999902,
      "velocity": 0.2677165354330709,
      "duration": 0.17064849999999865
    },
    {
      "name": "C#3",
      "midi": 49,
      "time": 170.30720299999902,
      "velocity": 0.25984251968503935,
      "duration": 0.17064849999999865
    },
    {
      "name": "G#2",
      "midi": 44,
      "time": 170.47785149999902,
      "velocity": 0.25984251968503935,
      "duration": 0.17064849999999865
    },
    {
      "name": "C#2",
      "midi": 37,
      "time": 170.64849999999902,
      "velocity": 0.2755905511811024,
      "duration": 0.17064849999999865
    },
    {
      "name": "E3",
      "midi": 52,
      "time": 170.81914849999902,
      "velocity": 0.2440944881889764,
      "duration": 0.17064849999999865
    },
    {
      "name": "C#3",
      "midi": 49,
      "time": 170.98979699999902,
      "velocity": 0.2440944881889764,
      "duration": 0.17064849999999865
    },
    {
      "name": "G#2",
      "midi": 44,
      "time": 171.160445499999,
      "velocity": 0.23622047244094488,
      "duration": 0.17064849999999865
    },
    {
      "name": "C#2",
      "midi": 37,
      "time": 171.331093999999,
      "velocity": 0.2677165354330709,
      "duration": 0.17064849999999865
    },
    {
      "name": "E3",
      "midi": 52,
      "time": 171.501742499999,
      "velocity": 0.23622047244094488,
      "duration": 0.17064849999999865
    },
    {
      "name": "C#3",
      "midi": 49,
      "time": 171.672390999999,
      "velocity": 0.2283464566929134,
      "duration": 0.17064849999999865
    },
    {
      "name": "G#2",
      "midi": 44,
      "time": 171.843039499999,
      "velocity": 0.2283464566929134,
      "duration": 0.17064849999999865
    },
    {
      "name": "C#2",
      "midi": 37,
      "time": 172.013687999999,
      "velocity": 0.2440944881889764,
      "duration": 0.3412969999999973
    },
    {
      "name": "C#2",
      "midi": 37,
      "time": 174.744063999999,
      "velocity": 0.30708661417322836,
      "duration": 1.3651879999999892
    },
    {
      "name": "G#2",
      "midi": 44,
      "time": 174.744063999999,
      "velocity": 0.3779527559055118,
      "duration": 1.3651879999999892
    },
    {
      "name": "A#2",
      "midi": 46,
      "time": 176.109251999999,
      "velocity": 0.3700787401574803,
      "duration": 0.3412969999999973
    },
    {
      "name": "G#2",
      "midi": 44,
      "time": 176.450548999999,
      "velocity": 0.3937007874015748,
      "duration": 0.3412969999999973
    },
    {
      "name": "C#3",
      "midi": 49,
      "time": 176.791845999999,
      "velocity": 0.4094488188976378,
      "duration": 0.3412969999999973
    },
    {
      "name": "D#3",
      "midi": 51,
      "time": 177.133142999999,
      "velocity": 0.4409448818897638,
      "duration": 0.3412969999999973
    },
    {
      "name": "F3",
      "midi": 53,
      "time": 177.474439999999,
      "velocity": 0.4566929133858268,
      "duration": 1.3651880000000176
    },
    {
      "name": "G#3",
      "midi": 56,
      "time": 178.839627999999,
      "velocity": 0.47244094488188976,
      "duration": 1.3651880000000176
    },
    {
      "name": "F#3",
      "midi": 54,
      "time": 180.20481599999903,
      "velocity": 0.4409448818897638,
      "duration": 0.682594000000023
    },
    {
      "name": "F3",
      "midi": 53,
      "time": 180.88740999999905,
      "velocity": 0.4409448818897638,
      "duration": 0.6825939999999946
    },
    {
      "name": "D#3",
      "midi": 51,
      "time": 181.57000399999905,
      "velocity": 0.44881889763779526,
      "duration": 0.6825939999999946
    },
    {
      "name": "F3",
      "midi": 53,
      "time": 182.25259799999904,
      "velocity": 0.4409448818897638,
      "duration": 0.3412969999999973
    },
    {
      "name": "C#3",
      "midi": 49,
      "time": 182.59389499999904,
      "velocity": 0.3779527559055118,
      "duration": 0.3412969999999973
    },
    {
      "name": "G#2",
      "midi": 44,
      "time": 182.93519199999903,
      "velocity": 0.41732283464566927,
      "duration": 1.3651879999999892
    },
    {
      "name": "G#1",
      "midi": 32,
      "time": 184.30037999999902,
      "velocity": 0.3937007874015748,
      "duration": 1.3651880000000176
    },
    {
      "name": "G#2",
      "midi": 44,
      "time": 184.30037999999902,
      "velocity": 0.3937007874015748,
      "duration": 1.3651880000000176
    },
    {
      "name": "C#2",
      "midi": 37,
      "time": 185.66556799999904,
      "velocity": 0.25984251968503935,
      "duration": 1.3651879999999892
    },
    {
      "name": "G#2",
      "midi": 44,
      "time": 185.70823012499903,
      "velocity": 0.28346456692913385,
      "duration": 1.3225258749999966
    },
    {
      "name": "C#2",
      "midi": 37,
      "time": 187.03075599999903,
      "velocity": 0.2440944881889764,
      "duration": 1.3651879999999892
    },
    {
      "name": "G#2",
      "midi": 44,
      "time": 187.07341812499902,
      "velocity": 0.29133858267716534,
      "duration": 1.3225258749999966
    }
  ],
  "notesRight": [
    {
      "name": "G#4",
      "midi": 68,
      "time": 5.54607625,
      "velocity": 0.29133858267716534,
      "duration": 0.08532425000000021
    },
    {
      "name": "A4",
      "midi": 69,
      "time": 5.6314005,
      "velocity": 0.3228346456692913,
      "duration": 0.08532425000000021
    },
    {
      "name": "G#4",
      "midi": 68,
      "time": 5.71672475,
      "velocity": 0.2992125984251969,
      "duration": 0.08532425000000021
    },
    {
      "name": "G4",
      "midi": 67,
      "time": 5.802049,
      "velocity": 0.30708661417322836,
      "duration": 0.08532425000000021
    },
    {
      "name": "G#4",
      "midi": 68,
      "time": 5.8873732500000004,
      "velocity": 0.31496062992125984,
      "duration": 0.08532425000000021
    },
    {
      "name": "C#5",
      "midi": 73,
      "time": 5.972697500000001,
      "velocity": 0.33070866141732286,
      "duration": 0.08532425000000021
    },
    {
      "name": "E5",
      "midi": 76,
      "time": 6.058021750000001,
      "velocity": 0.33858267716535434,
      "duration": 0.08532425000000021
    },
    {
      "name": "D#5",
      "midi": 75,
      "time": 6.143346000000001,
      "velocity": 0.3543307086614173,
      "duration": 0.08532425000000021
    },
    {
      "name": "C#5",
      "midi": 73,
      "time": 6.228670250000001,
      "velocity": 0.33858267716535434,
      "duration": 0.08532425000000021
    },
    {
      "name": "D#5",
      "midi": 75,
      "time": 6.3139945000000015,
      "velocity": 0.3543307086614173,
      "duration": 0.08532425000000021
    },
    {
      "name": "C#5",
      "midi": 73,
      "time": 6.399318750000002,
      "velocity": 0.33858267716535434,
      "duration": 0.08532425000000021
    },
    {
      "name": "C5",
      "midi": 72,
      "time": 6.484643000000002,
      "velocity": 0.3464566929133858,
      "duration": 0.08532425000000021
    },
    {
      "name": "C#5",
      "midi": 73,
      "time": 6.569967250000002,
      "velocity": 0.36220472440944884,
      "duration": 0.08532425000000021
    },
    {
      "name": "E5",
      "midi": 76,
      "time": 6.655291500000002,
      "velocity": 0.3858267716535433,
      "duration": 0.08532425000000021
    },
    {
      "name": "G#5",
      "midi": 80,
      "time": 6.740615750000003,
      "velocity": 0.3700787401574803,
      "duration": 0.08532425000000021
    },
    {
      "name": "G#4",
      "midi": 68,
      "time": 6.911264250000003,
      "velocity": 0.3543307086614173,
      "duration": 0.08532425000000021
    },
    {
      "name": "A4",
      "midi": 69,
      "time": 6.996588500000003,
      "velocity": 0.3858267716535433,
      "duration": 0.08532425000000021
    },
    {
      "name": "G#4",
      "midi": 68,
      "time": 7.081912750000003,
      "velocity": 0.3543307086614173,
      "duration": 0.08532425000000021
    },
    {
      "name": "G4",
      "midi": 67,
      "time": 7.167237000000004,
      "velocity": 0.36220472440944884,
      "duration": 0.08532425000000021
    },
    {
      "name": "G#4",
      "midi": 68,
      "time": 7.252561250000004,
      "velocity": 0.3779527559055118,
      "duration": 0.08532425000000021
    },
    {
      "name": "C#5",
      "midi": 73,
      "time": 7.337885500000004,
      "velocity": 0.3937007874015748,
      "duration": 0.08532425000000021
    },
    {
      "name": "E5",
      "midi": 76,
      "time": 7.423209750000004,
      "velocity": 0.4015748031496063,
      "duration": 0.08532425000000021
    },
    {
      "name": "D#5",
      "midi": 75,
      "time": 7.5085340000000045,
      "velocity": 0.4251968503937008,
      "duration": 0.08532425000000021
    },
    {
      "name": "C#5",
      "midi": 73,
      "time": 7.593858250000005,
      "velocity": 0.4015748031496063,
      "duration": 0.08532425000000021
    },
    {
      "name": "D#5",
      "midi": 75,
      "time": 7.679182500000005,
      "velocity": 0.41732283464566927,
      "duration": 0.08532425000000021
    },
    {
      "name": "C#5",
      "midi": 73,
      "time": 7.764506750000005,
      "velocity": 0.4015748031496063,
      "duration": 0.08532425000000021
    },
    {
      "name": "C5",
      "midi": 72,
      "time": 7.849831000000005,
      "velocity": 0.4094488188976378,
      "duration": 0.08532425000000021
    },
    {
      "name": "C#5",
      "midi": 73,
      "time": 7.9351552500000055,
      "velocity": 0.4251968503937008,
      "duration": 0.08532425000000021
    },
    {
      "name": "E5",
      "midi": 76,
      "time": 8.020479500000006,
      "velocity": 0.44881889763779526,
      "duration": 0.08532424999999932
    },
    {
      "name": "G#5",
      "midi": 80,
      "time": 8.105803750000005,
      "velocity": 0.4330708661417323,
      "duration": 0.08532424999999932
    },
    {
      "name": "A4",
      "midi": 69,
      "time": 8.276452250000004,
      "velocity": 0.4330708661417323,
      "duration": 0.08532424999999932
    },
    {
      "name": "C#5",
      "midi": 73,
      "time": 8.361776500000003,
      "velocity": 0.4330708661417323,
      "duration": 0.08532424999999932
    },
    {
      "name": "D#5",
      "midi": 75,
      "time": 8.447100750000002,
      "velocity": 0.4566929133858268,
      "duration": 0.08532424999999932
    },
    {
      "name": "F#5",
      "midi": 78,
      "time": 8.532425000000002,
      "velocity": 0.48031496062992124,
      "duration": 0.08532424999999932
    },
    {
      "name": "A5",
      "midi": 81,
      "time": 8.617749250000001,
      "velocity": 0.5039370078740157,
      "duration": 0.08532424999999932
    },
    {
      "name": "C#6",
      "midi": 85,
      "time": 8.7030735,
      "velocity": 0.5275590551181102,
      "duration": 0.08532424999999932
    },
    {
      "name": "D#6",
      "midi": 87,
      "time": 8.78839775,
      "velocity": 0.5511811023622047,
      "duration": 0.08532424999999932
    },
    {
      "name": "B6",
      "midi": 95,
      "time": 8.873721999999999,
      "velocity": 0.5826771653543307,
      "duration": 0.08532424999999932
    },
    {
      "name": "A6",
      "midi": 93,
      "time": 8.959046249999998,
      "velocity": 0.5669291338582677,
      "duration": 0.08532424999999932
    },
    {
      "name": "G#6",
      "midi": 92,
      "time": 9.044370499999998,
      "velocity": 0.5590551181102362,
      "duration": 0.08532424999999932
    },
    {
      "name": "F#6",
      "midi": 90,
      "time": 9.129694749999997,
      "velocity": 0.5511811023622047,
      "duration": 0.08532424999999932
    },
    {
      "name": "E6",
      "midi": 88,
      "time": 9.215018999999996,
      "velocity": 0.5433070866141733,
      "duration": 0.08532424999999932
    },
    {
      "name": "D#6",
      "midi": 87,
      "time": 9.300343249999996,
      "velocity": 0.5354330708661418,
      "duration": 0.08532424999999932
    },
    {
      "name": "F#6",
      "midi": 90,
      "time": 9.385667499999995,
      "velocity": 0.5275590551181102,
      "duration": 0.08532424999999932
    },
    {
      "name": "C#6",
      "midi": 85,
      "time": 9.470991749999994,
      "velocity": 0.5196850393700787,
      "duration": 0.08532424999999932
    },
    {
      "name": "C6",
      "midi": 84,
      "time": 9.556315999999994,
      "velocity": 0.5354330708661418,
      "duration": 0.08532424999999932
    },
    {
      "name": "D#6",
      "midi": 87,
      "time": 9.641640249999993,
      "velocity": 0.49606299212598426,
      "duration": 0.08532424999999932
    },
    {
      "name": "A5",
      "midi": 81,
      "time": 9.726964499999992,
      "velocity": 0.49606299212598426,
      "duration": 0.08532424999999932
    },
    {
      "name": "G#5",
      "midi": 80,
      "time": 9.812288749999992,
      "velocity": 0.49606299212598426,
      "duration": 0.08532424999999932
    },
    {
      "name": "F#5",
      "midi": 78,
      "time": 9.897612999999991,
      "velocity": 0.47244094488188976,
      "duration": 0.08532424999999932
    },
    {
      "name": "A5",
      "midi": 81,
      "time": 9.98293724999999,
      "velocity": 0.4566929133858268,
      "duration": 0.08532424999999932
    },
    {
      "name": "E5",
      "midi": 76,
      "time": 10.06826149999999,
      "velocity": 0.4251968503937008,
      "duration": 0.08532424999999932
    },
    {
      "name": "D#5",
      "midi": 75,
      "time": 10.153585749999989,
      "velocity": 0.4251968503937008,
      "duration": 0.08532424999999932
    },
    {
      "name": "F#5",
      "midi": 78,
      "time": 10.238909999999988,
      "velocity": 0.41732283464566927,
      "duration": 0.08532424999999932
    },
    {
      "name": "C#5",
      "midi": 73,
      "time": 10.324234249999988,
      "velocity": 0.3779527559055118,
      "duration": 0.08532424999999932
    },
    {
      "name": "C5",
      "midi": 72,
      "time": 10.409558499999987,
      "velocity": 0.3779527559055118,
      "duration": 0.08532424999999932
    },
    {
      "name": "D#5",
      "midi": 75,
      "time": 10.494882749999986,
      "velocity": 0.3700787401574803,
      "duration": 0.08532424999999932
    },
    {
      "name": "A4",
      "midi": 69,
      "time": 10.580206999999985,
      "velocity": 0.3543307086614173,
      "duration": 0.08532424999999932
    },
    {
      "name": "G#4",
      "midi": 68,
      "time": 10.665531249999985,
      "velocity": 0.33070866141732286,
      "duration": 0.08532424999999932
    },
    {
      "name": "B4",
      "midi": 71,
      "time": 10.750855499999984,
      "velocity": 0.33070866141732286,
      "duration": 0.08532424999999932
    },
    {
      "name": "A4",
      "midi": 69,
      "time": 10.836179749999983,
      "velocity": 0.3228346456692913,
      "duration": 0.17064850000000042
    },
    {
      "name": "G#4",
      "midi": 68,
      "time": 11.006828249999984,
      "velocity": 0.29133858267716534,
      "duration": 0.08532424999999932
    },
    {
      "name": "A4",
      "midi": 69,
      "time": 11.092152499999983,
      "velocity": 0.3228346456692913,
      "duration": 0.08532424999999932
    },
    {
      "name": "G#4",
      "midi": 68,
      "time": 11.177476749999983,
      "velocity": 0.2992125984251969,
      "duration": 0.08532424999999932
    },
    {
      "name": "G4",
      "midi": 67,
      "time": 11.262800999999982,
      "velocity": 0.30708661417322836,
      "duration": 0.08532424999999932
    },
    {
      "name": "G#4",
      "midi": 68,
      "time": 11.348125249999981,
      "velocity": 0.31496062992125984,
      "duration": 0.08532424999999932
    },
    {
      "name": "C#5",
      "midi": 73,
      "time": 11.43344949999998,
      "velocity": 0.33070866141732286,
      "duration": 0.08532424999999932
    },
    {
      "name": "E5",
      "midi": 76,
      "time": 11.51877374999998,
      "velocity": 0.33858267716535434,
      "duration": 0.08532424999999932
    },
    {
      "name": "D#5",
      "midi": 75,
      "time": 11.60409799999998,
      "velocity": 0.3543307086614173,
      "duration": 0.08532424999999932
    },
    {
      "name": "C#5",
      "midi": 73,
      "time": 11.689422249999978,
      "velocity": 0.33858267716535434,
      "duration": 0.08532424999999932
    },
    {
      "name": "D#5",
      "midi": 75,
      "time": 11.774746499999978,
      "velocity": 0.3543307086614173,
      "duration": 0.08532424999999932
    },
    {
      "name": "C#5",
      "midi": 73,
      "time": 11.860070749999977,
      "velocity": 0.33858267716535434,
      "duration": 0.08532424999999932
    },
    {
      "name": "C5",
      "midi": 72,
      "time": 11.945394999999976,
      "velocity": 0.3464566929133858,
      "duration": 0.08532424999999932
    },
    {
      "name": "C#5",
      "midi": 73,
      "time": 12.030719249999976,
      "velocity": 0.36220472440944884,
      "duration": 0.08532424999999932
    },
    {
      "name": "E5",
      "midi": 76,
      "time": 12.116043499999975,
      "velocity": 0.3858267716535433,
      "duration": 0.08532424999999932
    },
    {
      "name": "G#5",
      "midi": 80,
      "time": 12.201367749999974,
      "velocity": 0.3700787401574803,
      "duration": 0.08532424999999932
    },
    {
      "name": "G#4",
      "midi": 68,
      "time": 12.372016249999973,
      "velocity": 0.3543307086614173,
      "duration": 0.08532424999999932
    },
    {
      "name": "A#4",
      "midi": 70,
      "time": 12.457340499999972,
      "velocity": 0.3858267716535433,
      "duration": 0.08532424999999932
    },
    {
      "name": "G#4",
      "midi": 68,
      "time": 12.542664749999972,
      "velocity": 0.3543307086614173,
      "duration": 0.08532424999999932
    },
    {
      "name": "G4",
      "midi": 67,
      "time": 12.627988999999971,
      "velocity": 0.36220472440944884,
      "duration": 0.08532424999999932
    },
    {
      "name": "G#4",
      "midi": 68,
      "time": 12.71331324999997,
      "velocity": 0.3779527559055118,
      "duration": 0.08532424999999932
    },
    {
      "name": "C#5",
      "midi": 73,
      "time": 12.79863749999997,
      "velocity": 0.3937007874015748,
      "duration": 0.08532424999999932
    },
    {
      "name": "E5",
      "midi": 76,
      "time": 12.883961749999969,
      "velocity": 0.4015748031496063,
      "duration": 0.08532424999999932
    },
    {
      "name": "D#5",
      "midi": 75,
      "time": 12.969285999999968,
      "velocity": 0.4251968503937008,
      "duration": 0.08532424999999932
    },
    {
      "name": "C#5",
      "midi": 73,
      "time": 13.054610249999968,
      "velocity": 0.4015748031496063,
      "duration": 0.08532424999999932
    },
    {
      "name": "D#5",
      "midi": 75,
      "time": 13.139934499999967,
      "velocity": 0.41732283464566927,
      "duration": 0.08532424999999932
    },
    {
      "name": "C#5",
      "midi": 73,
      "time": 13.225258749999966,
      "velocity": 0.4015748031496063,
      "duration": 0.08532424999999932
    },
    {
      "name": "C5",
      "midi": 72,
      "time": 13.310582999999966,
      "velocity": 0.4094488188976378,
      "duration": 0.08532424999999932
    },
    {
      "name": "C#5",
      "midi": 73,
      "time": 13.395907249999965,
      "velocity": 0.4251968503937008,
      "duration": 0.08532424999999932
    },
    {
      "name": "E5",
      "midi": 76,
      "time": 13.481231499999964,
      "velocity": 0.44881889763779526,
      "duration": 0.08532424999999932
    },
    {
      "name": "G#5",
      "midi": 80,
      "time": 13.566555749999964,
      "velocity": 0.4330708661417323,
      "duration": 0.08532424999999932
    },
    {
      "name": "D#5",
      "midi": 75,
      "time": 13.651879999999963,
      "velocity": 0.5039370078740157,
      "duration": 0.08532424999999932
    },
    {
      "name": "E5",
      "midi": 76,
      "time": 13.737204249999962,
      "velocity": 0.4566929133858268,
      "duration": 0.08532424999999932
    },
    {
      "name": "D#5",
      "midi": 75,
      "time": 13.822528499999962,
      "velocity": 0.48031496062992124,
      "duration": 0.08532424999999932
    },
    {
      "name": "D5",
      "midi": 74,
      "time": 13.907852749999961,
      "velocity": 0.3937007874015748,
      "duration": 0.08532424999999932
    },
    {
      "name": "D#5",
      "midi": 75,
      "time": 13.99317699999996,
      "velocity": 0.4409448818897638,
      "duration": 0.08532424999999932
    },
    {
      "name": "B5",
      "midi": 83,
      "time": 14.07850124999996,
      "velocity": 0.5354330708661418,
      "duration": 0.08532424999999932
    },
    {
      "name": "A#5",
      "midi": 82,
      "time": 14.163825499999959,
      "velocity": 0.4881889763779528,
      "duration": 0.08532424999999932
    },
    {
      "name": "G#5",
      "midi": 80,
      "time": 14.249149749999958,
      "velocity": 0.5118110236220472,
      "duration": 0.08532424999999932
    },
    {
      "name": "G5",
      "midi": 79,
      "time": 14.334473999999958,
      "velocity": 0.5433070866141733,
      "duration": 0.08532424999999932
    },
    {
      "name": "E6",
      "midi": 88,
      "time": 14.419798249999957,
      "velocity": 0.5748031496062992,
      "duration": 0.08532424999999932
    },
    {
      "name": "D#6",
      "midi": 87,
      "time": 14.505122499999956,
      "velocity": 0.5669291338582677,
      "duration": 0.08532424999999932
    },
    {
      "name": "C#6",
      "midi": 85,
      "time": 14.590446749999956,
      "velocity": 0.5669291338582677,
      "duration": 0.08532424999999932
    },
    {
      "name": "B5",
      "midi": 83,
      "time": 14.675770999999955,
      "velocity": 0.5905511811023622,
      "duration": 0.08532424999999932
    },
    {
      "name": "A#5",
      "midi": 82,
      "time": 14.761095249999954,
      "velocity": 0.5433070866141733,
      "duration": 0.08532424999999932
    },
    {
      "name": "G#5",
      "midi": 80,
      "time": 14.846419499999953,
      "velocity": 0.5354330708661418,
      "duration": 0.08532424999999932
    },
    {
      "name": "G5",
      "midi": 79,
      "time": 14.931743749999953,
      "velocity": 0.5354330708661418,
      "duration": 0.08532424999999932
    },
    {
      "name": "A#5",
      "midi": 82,
      "time": 15.017067999999952,
      "velocity": 0.5669291338582677,
      "duration": 0.08532424999999932
    },
    {
      "name": "G#5",
      "midi": 80,
      "time": 15.102392249999951,
      "velocity": 0.5511811023622047,
      "duration": 0.08532424999999932
    },
    {
      "name": "B5",
      "midi": 83,
      "time": 15.18771649999995,
      "velocity": 0.5039370078740157,
      "duration": 0.08532424999999932
    },
    {
      "name": "D5",
      "midi": 74,
      "time": 15.27304074999995,
      "velocity": 0.44881889763779526,
      "duration": 0.08532424999999932
    },
    {
      "name": "E5",
      "midi": 76,
      "time": 15.35836499999995,
      "velocity": 0.5118110236220472,
      "duration": 0.08532424999999932
    },
    {
      "name": "D#5",
      "midi": 75,
      "time": 15.443689249999949,
      "velocity": 0.44881889763779526,
      "duration": 0.08532424999999932
    },
    {
      "name": "G#5",
      "midi": 80,
      "time": 15.529013499999948,
      "velocity": 0.49606299212598426,
      "duration": 0.08532424999999932
    },
    {
      "name": "A#4",
      "midi": 70,
      "time": 15.614337749999947,
      "velocity": 0.44881889763779526,
      "duration": 0.08532424999999932
    },
    {
      "name": "C#5",
      "midi": 73,
      "time": 15.699661999999947,
      "velocity": 0.48031496062992124,
      "duration": 0.08532424999999932
    },
    {
      "name": "B4",
      "midi": 71,
      "time": 15.784986249999946,
      "velocity": 0.4645669291338583,
      "duration": 0.08532424999999932
    },
    {
      "name": "D#5",
      "midi": 75,
      "time": 15.870310499999945,
      "velocity": 0.4566929133858268,
      "duration": 0.08532424999999932
    },
    {
      "name": "G4",
      "midi": 67,
      "time": 15.955634749999945,
      "velocity": 0.4409448818897638,
      "duration": 0.08532424999999932
    },
    {
      "name": "A#4",
      "midi": 70,
      "time": 16.040958999999944,
      "velocity": 0.47244094488188976,
      "duration": 0.08532424999999932
    },
    {
      "name": "G#4",
      "midi": 68,
      "time": 16.126283249999943,
      "velocity": 0.4015748031496063,
      "duration": 0.08532424999999932
    },
    {
      "name": "G4",
      "midi": 67,
      "time": 16.211607499999943,
      "velocity": 0.4330708661417323,
      "duration": 0.08532424999999932
    },
    {
      "name": "G#4",
      "midi": 68,
      "time": 16.296931749999942,
      "velocity": 0.3937007874015748,
      "duration": 0.08532424999999932
    },
    {
      "name": "G#4",
      "midi": 68,
      "time": 16.38225599999994,
      "velocity": 0.5669291338582677,
      "duration": 0.08532424999999932
    },
    {
      "name": "G#5",
      "midi": 80,
      "time": 16.46758024999994,
      "velocity": 0.4566929133858268,
      "duration": 0.08532424999999932
    },
    {
      "name": "C5",
      "midi": 72,
      "time": 16.55290449999994,
      "velocity": 0.4645669291338583,
      "duration": 0.08532424999999932
    },
    {
      "name": "C#5",
      "midi": 73,
      "time": 16.63822874999994,
      "velocity": 0.4645669291338583,
      "duration": 0.08532424999999932
    },
    {
      "name": "F#4",
      "midi": 66,
      "time": 16.72355299999994,
      "velocity": 0.5590551181102362,
      "duration": 0.08532424999999932
    },
    {
      "name": "F#5",
      "midi": 78,
      "time": 16.808877249999938,
      "velocity": 0.47244094488188976,
      "duration": 0.08532424999999932
    },
    {
      "name": "C5",
      "midi": 72,
      "time": 16.894201499999937,
      "velocity": 0.47244094488188976,
      "duration": 0.08532424999999932
    },
    {
      "name": "C#5",
      "midi": 73,
      "time": 16.979525749999937,
      "velocity": 0.48031496062992124,
      "duration": 0.08532424999999932
    },
    {
      "name": "F4",
      "midi": 65,
      "time": 17.064849999999936,
      "velocity": 0.5905511811023622,
      "duration": 0.08532424999999932
    },
    {
      "name": "F5",
      "midi": 77,
      "time": 17.150174249999935,
      "velocity": 0.4881889763779528,
      "duration": 0.08532424999999932
    },
    {
      "name": "C5",
      "midi": 72,
      "time": 17.235498499999935,
      "velocity": 0.49606299212598426,
      "duration": 0.08532424999999932
    },
    {
      "name": "C#5",
      "midi": 73,
      "time": 17.320822749999934,
      "velocity": 0.49606299212598426,
      "duration": 0.08532424999999932
    },
    {
      "name": "F#4",
      "midi": 66,
      "time": 17.406146999999933,
      "velocity": 0.5826771653543307,
      "duration": 0.08532424999999932
    },
    {
      "name": "F#5",
      "midi": 78,
      "time": 17.491471249999933,
      "velocity": 0.5118110236220472,
      "duration": 0.08532424999999932
    },
    {
      "name": "C5",
      "midi": 72,
      "time": 17.576795499999932,
      "velocity": 0.5039370078740157,
      "duration": 0.08532424999999932
    },
    {
      "name": "C#5",
      "midi": 73,
      "time": 17.66211974999993,
      "velocity": 0.5039370078740157,
      "duration": 0.08532424999999932
    },
    {
      "name": "C#4",
      "midi": 61,
      "time": 17.74744399999993,
      "velocity": 0.6062992125984252,
      "duration": 0.08532424999999932
    },
    {
      "name": "C#5",
      "midi": 73,
      "time": 17.83276824999993,
      "velocity": 0.5118110236220472,
      "duration": 0.08532424999999932
    },
    {
      "name": "F#4",
      "midi": 66,
      "time": 17.91809249999993,
      "velocity": 0.5118110236220472,
      "duration": 0.08532424999999932
    },
    {
      "name": "A4",
      "midi": 69,
      "time": 18.00341674999993,
      "velocity": 0.5118110236220472,
      "duration": 0.08532424999999932
    },
    {
      "name": "D#4",
      "midi": 63,
      "time": 18.088740999999928,
      "velocity": 0.5905511811023622,
      "duration": 0.08532424999999932
    },
    {
      "name": "D#5",
      "midi": 75,
      "time": 18.174065249999927,
      "velocity": 0.5118110236220472,
      "duration": 0.08532424999999932
    },
    {
      "name": "F#4",
      "midi": 66,
      "time": 18.259389499999926,
      "velocity": 0.5118110236220472,
      "duration": 0.08532424999999932
    },
    {
      "name": "A4",
      "midi": 69,
      "time": 18.344713749999926,
      "velocity": 0.5118110236220472,
      "duration": 0.08532424999999932
    },
    {
      "name": "E4",
      "midi": 64,
      "time": 18.430037999999925,
      "velocity": 0.6220472440944882,
      "duration": 0.08532424999999932
    },
    {
      "name": "E5",
      "midi": 76,
      "time": 18.515362249999924,
      "velocity": 0.5196850393700787,
      "duration": 0.08532424999999932
    },
    {
      "name": "G#4",
      "midi": 68,
      "time": 18.600686499999924,
      "velocity": 0.5196850393700787,
      "duration": 0.08532424999999932
    },
    {
      "name": "B4",
      "midi": 71,
      "time": 18.686010749999923,
      "velocity": 0.5196850393700787,
      "duration": 0.08532424999999932
    },
    {
      "name": "G#4",
      "midi": 68,
      "time": 18.771334999999922,
      "velocity": 0.6062992125984252,
      "duration": 0.08532424999999932
    },
    {
      "name": "G#5",
      "midi": 80,
      "time": 18.85665924999992,
      "velocity": 0.5275590551181102,
      "duration": 0.08532424999999932
    },
    {
      "name": "B4",
      "midi": 71,
      "time": 18.94198349999992,
      "velocity": 0.5196850393700787,
      "duration": 0.08532424999999932
    },
    {
      "name": "E5",
      "midi": 76,
      "time": 19.02730774999992,
      "velocity": 0.5118110236220472,
      "duration": 0.08532424999999932
    },
    {
      "name": "G#4",
      "midi": 68,
      "time": 19.11263199999992,
      "velocity": 0.6377952755905512,
      "duration": 0.08532424999999932
    },
    {
      "name": "G#5",
      "midi": 80,
      "time": 19.19795624999992,
      "velocity": 0.5118110236220472,
      "duration": 0.08532424999999932
    },
    {
      "name": "C5",
      "midi": 72,
      "time": 19.28328049999992,
      "velocity": 0.5118110236220472,
      "duration": 0.08532424999999932
    },
    {
      "name": "C#5",
      "midi": 73,
      "time": 19.368604749999918,
      "velocity": 0.5118110236220472,
      "duration": 0.08532424999999932
    },
    {
      "name": "F#4",
      "midi": 66,
      "time": 19.453928999999917,
      "velocity": 0.6141732283464567,
      "duration": 0.08532424999999932
    },
    {
      "name": "F#5",
      "midi": 78,
      "time": 19.539253249999916,
      "velocity": 0.5118110236220472,
      "duration": 0.08532424999999932
    },
    {
      "name": "C5",
      "midi": 72,
      "time": 19.624577499999916,
      "velocity": 0.5118110236220472,
      "duration": 0.08532424999999932
    },
    {
      "name": "C#5",
      "midi": 73,
      "time": 19.709901749999915,
      "velocity": 0.5118110236220472,
      "duration": 0.08532424999999932
    },
    {
      "name": "F4",
      "midi": 65,
      "time": 19.795225999999914,
      "velocity": 0.6220472440944882,
      "duration": 0.08532424999999932
    },
    {
      "name": "F5",
      "midi": 77,
      "time": 19.880550249999914,
      "velocity": 0.5196850393700787,
      "duration": 0.08532424999999932
    },
    {
      "name": "C5",
      "midi": 72,
      "time": 19.965874499999913,
      "velocity": 0.5196850393700787,
      "duration": 0.08532424999999932
    },
    {
      "name": "C#5",
      "midi": 73,
      "time": 20.051198749999912,
      "velocity": 0.5196850393700787,
      "duration": 0.08532424999999932
    },
    {
      "name": "F#4",
      "midi": 66,
      "time": 20.13652299999991,
      "velocity": 0.6062992125984252,
      "duration": 0.08532424999999932
    },
    {
      "name": "F#5",
      "midi": 78,
      "time": 20.22184724999991,
      "velocity": 0.5275590551181102,
      "duration": 0.08532424999999932
    },
    {
      "name": "C5",
      "midi": 72,
      "time": 20.30717149999991,
      "velocity": 0.5196850393700787,
      "duration": 0.08532424999999932
    },
    {
      "name": "C#5",
      "midi": 73,
      "time": 20.39249574999991,
      "velocity": 0.5118110236220472,
      "duration": 0.08532424999999932
    },
    {
      "name": "F4",
      "midi": 65,
      "time": 20.47781999999991,
      "velocity": 0.6377952755905512,
      "duration": 0.08532424999999932
    },
    {
      "name": "F5",
      "midi": 77,
      "time": 20.563144249999908,
      "velocity": 0.5118110236220472,
      "duration": 0.08532424999999932
    },
    {
      "name": "B4",
      "midi": 71,
      "time": 20.648468499999908,
      "velocity": 0.5118110236220472,
      "duration": 0.08532424999999932
    },
    {
      "name": "D#5",
      "midi": 75,
      "time": 20.733792749999907,
      "velocity": 0.5118110236220472,
      "duration": 0.08532424999999932
    },
    {
      "name": "F#4",
      "midi": 66,
      "time": 20.819116999999906,
      "velocity": 0.6141732283464567,
      "duration": 0.08532424999999932
    },
    {
      "name": "F#5",
      "midi": 78,
      "time": 20.904441249999905,
      "velocity": 0.5118110236220472,
      "duration": 0.08532424999999932
    },
    {
      "name": "B4",
      "midi": 71,
      "time": 20.989765499999905,
      "velocity": 0.5118110236220472,
      "duration": 0.08532424999999932
    },
    {
      "name": "D#5",
      "midi": 75,
      "time": 21.075089749999904,
      "velocity": 0.5118110236220472,
      "duration": 0.08532424999999932
    },
    {
      "name": "A4",
      "midi": 69,
      "time": 21.160413999999903,
      "velocity": 0.6220472440944882,
      "duration": 0.08532424999999932
    },
    {
      "name": "A5",
      "midi": 81,
      "time": 21.245738249999903,
      "velocity": 0.5196850393700787,
      "duration": 0.08532424999999932
    },
    {
      "name": "B4",
      "midi": 71,
      "time": 21.331062499999902,
      "velocity": 0.5196850393700787,
      "duration": 0.08532424999999932
    },
    {
      "name": "E5",
      "midi": 76,
      "time": 21.4163867499999,
      "velocity": 0.5196850393700787,
      "duration": 0.08532424999999932
    },
    {
      "name": "G#4",
      "midi": 68,
      "time": 21.5017109999999,
      "velocity": 0.6062992125984252,
      "duration": 0.08532424999999932
    },
    {
      "name": "G#5",
      "midi": 80,
      "time": 21.5870352499999,
      "velocity": 0.5275590551181102,
      "duration": 0.08532424999999932
    },
    {
      "name": "B4",
      "midi": 71,
      "time": 21.6723594999999,
      "velocity": 0.5196850393700787,
      "duration": 0.08532424999999932
    },
    {
      "name": "E5",
      "midi": 76,
      "time": 21.7576837499999,
      "velocity": 0.5118110236220472,
      "duration": 0.08532424999999932
    },
    {
      "name": "G#4",
      "midi": 68,
      "time": 21.843007999999898,
      "velocity": 0.4094488188976378,
      "duration": 0.08532424999999932
    },
    {
      "name": "G#5",
      "midi": 80,
      "time": 21.928332249999897,
      "velocity": 0.44881889763779526,
      "duration": 0.08532424999999932
    },
    {
      "name": "C5",
      "midi": 72,
      "time": 22.013656499999897,
      "velocity": 0.3700787401574803,
      "duration": 0.08532424999999932
    },
    {
      "name": "C#5",
      "midi": 73,
      "time": 22.098980749999896,
      "velocity": 0.3700787401574803,
      "duration": 0.08532424999999932
    },
    {
      "name": "F#4",
      "midi": 66,
      "time": 22.184304999999895,
      "velocity": 0.3858267716535433,
      "duration": 0.08532424999999932
    },
    {
      "name": "F#5",
      "midi": 78,
      "time": 22.269629249999895,
      "velocity": 0.4251968503937008,
      "duration": 0.08532424999999932
    },
    {
      "name": "C5",
      "midi": 72,
      "time": 22.354953499999894,
      "velocity": 0.3779527559055118,
      "duration": 0.08532424999999932
    },
    {
      "name": "C#5",
      "midi": 73,
      "time": 22.440277749999893,
      "velocity": 0.3779527559055118,
      "duration": 0.08532424999999932
    },
    {
      "name": "F4",
      "midi": 65,
      "time": 22.525601999999893,
      "velocity": 0.4015748031496063,
      "duration": 0.08532424999999932
    },
    {
      "name": "F5",
      "midi": 77,
      "time": 22.610926249999892,
      "velocity": 0.4409448818897638,
      "duration": 0.08532424999999932
    },
    {
      "name": "C5",
      "midi": 72,
      "time": 22.69625049999989,
      "velocity": 0.3937007874015748,
      "duration": 0.08532424999999932
    },
    {
      "name": "C#5",
      "midi": 73,
      "time": 22.78157474999989,
      "velocity": 0.3937007874015748,
      "duration": 0.08532424999999932
    },
    {
      "name": "F#4",
      "midi": 66,
      "time": 22.86689899999989,
      "velocity": 0.41732283464566927,
      "duration": 0.08532424999999932
    },
    {
      "name": "F#5",
      "midi": 78,
      "time": 22.95222324999989,
      "velocity": 0.4566929133858268,
      "duration": 0.08532424999999932
    },
    {
      "name": "C5",
      "midi": 72,
      "time": 23.03754749999989,
      "velocity": 0.4015748031496063,
      "duration": 0.08532424999999932
    },
    {
      "name": "C#5",
      "midi": 73,
      "time": 23.122871749999888,
      "velocity": 0.4015748031496063,
      "duration": 0.08532424999999932
    },
    {
      "name": "C#4",
      "midi": 61,
      "time": 23.208195999999887,
      "velocity": 0.4330708661417323,
      "duration": 0.08532424999999932
    },
    {
      "name": "C#5",
      "midi": 73,
      "time": 23.293520249999887,
      "velocity": 0.47244094488188976,
      "duration": 0.08532424999999932
    },
    {
      "name": "F#4",
      "midi": 66,
      "time": 23.378844499999886,
      "velocity": 0.4094488188976378,
      "duration": 0.08532424999999932
    },
    {
      "name": "A4",
      "midi": 69,
      "time": 23.464168749999885,
      "velocity": 0.41732283464566927,
      "duration": 0.08532424999999932
    },
    {
      "name": "D#4",
      "midi": 63,
      "time": 23.549492999999885,
      "velocity": 0.4330708661417323,
      "duration": 0.08532424999999932
    },
    {
      "name": "D#5",
      "midi": 75,
      "time": 23.634817249999884,
      "velocity": 0.4881889763779528,
      "duration": 0.08532424999999932
    },
    {
      "name": "F#4",
      "midi": 66,
      "time": 23.720141499999883,
      "velocity": 0.4251968503937008,
      "duration": 0.08532424999999932
    },
    {
      "name": "A4",
      "midi": 69,
      "time": 23.805465749999883,
      "velocity": 0.4251968503937008,
      "duration": 0.08532424999999932
    },
    {
      "name": "E4",
      "midi": 64,
      "time": 23.890789999999882,
      "velocity": 0.44881889763779526,
      "duration": 0.08532424999999932
    },
    {
      "name": "E5",
      "midi": 76,
      "time": 23.97611424999988,
      "velocity": 0.5118110236220472,
      "duration": 0.08532424999999932
    },
    {
      "name": "G#4",
      "midi": 68,
      "time": 24.06143849999988,
      "velocity": 0.4409448818897638,
      "duration": 0.08532424999999932
    },
    {
      "name": "B4",
      "midi": 71,
      "time": 24.14676274999988,
      "velocity": 0.4409448818897638,
      "duration": 0.08532424999999932
    },
    {
      "name": "G#4",
      "midi": 68,
      "time": 24.23208699999988,
      "velocity": 0.47244094488188976,
      "duration": 0.08532424999999932
    },
    {
      "name": "G#5",
      "midi": 80,
      "time": 24.31741124999988,
      "velocity": 0.5354330708661418,
      "duration": 0.08532424999999932
    },
    {
      "name": "B4",
      "midi": 71,
      "time": 24.402735499999878,
      "velocity": 0.44881889763779526,
      "duration": 0.08532424999999932
    },
    {
      "name": "E5",
      "midi": 76,
      "time": 24.488059749999877,
      "velocity": 0.4566929133858268,
      "duration": 0.08532424999999932
    },
    {
      "name": "G#4",
      "midi": 68,
      "time": 24.573383999999876,
      "velocity": 0.4881889763779528,
      "duration": 0.08532424999999932
    },
    {
      "name": "G#5",
      "midi": 80,
      "time": 24.658708249999876,
      "velocity": 0.5354330708661418,
      "duration": 0.08532424999999932
    },
    {
      "name": "C5",
      "midi": 72,
      "time": 24.744032499999875,
      "velocity": 0.4645669291338583,
      "duration": 0.08532424999999932
    },
    {
      "name": "C#5",
      "midi": 73,
      "time": 24.829356749999874,
      "velocity": 0.4645669291338583,
      "duration": 0.08532424999999932
    },
    {
      "name": "F#4",
      "midi": 66,
      "time": 24.914680999999874,
      "velocity": 0.4881889763779528,
      "duration": 0.08532424999999932
    },
    {
      "name": "F#5",
      "midi": 78,
      "time": 25.000005249999873,
      "velocity": 0.5511811023622047,
      "duration": 0.08532424999999932
    },
    {
      "name": "C5",
      "midi": 72,
      "time": 25.085329499999872,
      "velocity": 0.48031496062992124,
      "duration": 0.08532424999999932
    },
    {
      "name": "C#5",
      "midi": 73,
      "time": 25.17065374999987,
      "velocity": 0.48031496062992124,
      "duration": 0.08532424999999932
    },
    {
      "name": "D#5",
      "midi": 75,
      "time": 25.25597799999987,
      "velocity": 0.5039370078740157,
      "duration": 0.08532424999999932
    },
    {
      "name": "D#6",
      "midi": 87,
      "time": 25.34130224999987,
      "velocity": 0.5748031496062992,
      "duration": 0.08532424999999932
    },
    {
      "name": "F#5",
      "midi": 78,
      "time": 25.42662649999987,
      "velocity": 0.4881889763779528,
      "duration": 0.08532424999999932
    },
    {
      "name": "A5",
      "midi": 81,
      "time": 25.51195074999987,
      "velocity": 0.4881889763779528,
      "duration": 0.08532424999999932
    },
    {
      "name": "C#5",
      "midi": 73,
      "time": 25.59727499999987,
      "velocity": 0.5196850393700787,
      "duration": 0.08532424999999932
    },
    {
      "name": "C#6",
      "midi": 85,
      "time": 25.682599249999868,
      "velocity": 0.5826771653543307,
      "duration": 0.08532424999999932
    },
    {
      "name": "F#5",
      "midi": 78,
      "time": 25.767923499999867,
      "velocity": 0.4881889763779528,
      "duration": 0.08532424999999932
    },
    {
      "name": "A5",
      "midi": 81,
      "time": 25.853247749999866,
      "velocity": 0.4881889763779528,
      "duration": 0.08532424999999932
    },
    {
      "name": "C#5",
      "midi": 73,
      "time": 25.938571999999866,
      "velocity": 0.5039370078740157,
      "duration": 0.08532424999999932
    },
    {
      "name": "C#6",
      "midi": 85,
      "time": 26.023896249999865,
      "velocity": 0.5748031496062992,
      "duration": 0.08532424999999932
    },
    {
      "name": "D#5",
      "midi": 75,
      "time": 26.109220499999864,
      "velocity": 0.48031496062992124,
      "duration": 0.08532424999999932
    },
    {
      "name": "F#5",
      "midi": 78,
      "time": 26.194544749999864,
      "velocity": 0.48031496062992124,
      "duration": 0.08532424999999932
    },
    {
      "name": "C5",
      "midi": 72,
      "time": 26.279868999999863,
      "velocity": 0.5039370078740157,
      "duration": 0.08532424999999932
    },
    {
      "name": "C6",
      "midi": 84,
      "time": 26.365193249999862,
      "velocity": 0.5590551181102362,
      "duration": 0.08532424999999932
    },
    {
      "name": "D#5",
      "midi": 75,
      "time": 26.45051749999986,
      "velocity": 0.47244094488188976,
      "duration": 0.08532424999999932
    },
    {
      "name": "F#5",
      "midi": 78,
      "time": 26.53584174999986,
      "velocity": 0.4645669291338583,
      "duration": 0.08532424999999932
    },
    {
      "name": "C5",
      "midi": 72,
      "time": 26.62116599999986,
      "velocity": 0.47244094488188976,
      "duration": 0.08532424999999932
    },
    {
      "name": "C6",
      "midi": 84,
      "time": 26.70649024999986,
      "velocity": 0.5433070866141733,
      "duration": 0.08532424999999932
    },
    {
      "name": "D#5",
      "midi": 75,
      "time": 26.79181449999986,
      "velocity": 0.4566929133858268,
      "duration": 0.08532424999999932
    },
    {
      "name": "F#5",
      "midi": 78,
      "time": 26.877138749999858,
      "velocity": 0.4566929133858268,
      "duration": 0.08532424999999932
    },
    {
      "name": "C5",
      "midi": 72,
      "time": 26.962462999999858,
      "velocity": 0.48031496062992124,
      "duration": 0.08532424999999932
    },
    {
      "name": "C6",
      "midi": 84,
      "time": 27.047787249999857,
      "velocity": 0.5354330708661418,
      "duration": 0.08532424999999932
    },
    {
      "name": "D#5",
      "midi": 75,
      "time": 27.133111499999856,
      "velocity": 0.44881889763779526,
      "duration": 0.08532424999999932
    },
    {
      "name": "F#5",
      "midi": 78,
      "time": 27.218435749999855,
      "velocity": 0.4409448818897638,
      "duration": 0.08532424999999932
    },
    {
      "name": "C5",
      "midi": 72,
      "time": 27.303759999999855,
      "velocity": 0.44881889763779526,
      "duration": 0.08532424999999932
    },
    {
      "name": "C6",
      "midi": 84,
      "time": 27.389084249999854,
      "velocity": 0.5118110236220472,
      "duration": 0.08532424999999932
    },
    {
      "name": "D#5",
      "midi": 75,
      "time": 27.474408499999853,
      "velocity": 0.4330708661417323,
      "duration": 0.08532424999999932
    },
    {
      "name": "F#5",
      "midi": 78,
      "time": 27.559732749999853,
      "velocity": 0.4330708661417323,
      "duration": 0.08532424999999932
    },
    {
      "name": "B4",
      "midi": 71,
      "time": 27.645056999999852,
      "velocity": 0.4566929133858268,
      "duration": 0.08532424999999932
    },
    {
      "name": "B5",
      "midi": 83,
      "time": 27.73038124999985,
      "velocity": 0.5039370078740157,
      "duration": 0.08532424999999932
    },
    {
      "name": "D#5",
      "midi": 75,
      "time": 27.81570549999985,
      "velocity": 0.41732283464566927,
      "duration": 0.08532424999999932
    },
    {
      "name": "F#5",
      "midi": 78,
      "time": 27.90102974999985,
      "velocity": 0.41732283464566927,
      "duration": 0.08532424999999932
    },
    {
      "name": "B4",
      "midi": 71,
      "time": 27.98635399999985,
      "velocity": 0.4251968503937008,
      "duration": 0.08532424999999932
    },
    {
      "name": "B5",
      "midi": 83,
      "time": 28.07167824999985,
      "velocity": 0.4881889763779528,
      "duration": 0.08532424999999932
    },
    {
      "name": "D#5",
      "midi": 75,
      "time": 28.157002499999848,
      "velocity": 0.4094488188976378,
      "duration": 0.08532424999999932
    },
    {
      "name": "F#5",
      "midi": 78,
      "time": 28.242326749999847,
      "velocity": 0.4094488188976378,
      "duration": 0.08532424999999932
    },
    {
      "name": "A#4",
      "midi": 70,
      "time": 28.327650999999847,
      "velocity": 0.4251968503937008,
      "duration": 0.08532424999999932
    },
    {
      "name": "A#5",
      "midi": 82,
      "time": 28.412975249999846,
      "velocity": 0.47244094488188976,
      "duration": 0.08532424999999932
    },
    {
      "name": "D#5",
      "midi": 75,
      "time": 28.498299499999845,
      "velocity": 0.3937007874015748,
      "duration": 0.08532424999999932
    },
    {
      "name": "F#5",
      "midi": 78,
      "time": 28.583623749999845,
      "velocity": 0.3937007874015748,
      "duration": 0.08532424999999932
    },
    {
      "name": "A#4",
      "midi": 70,
      "time": 28.668947999999844,
      "velocity": 0.4330708661417323,
      "duration": 0.08532424999999932
    },
    {
      "name": "A#5",
      "midi": 82,
      "time": 28.758538462499843,
      "velocity": 0.3858267716535433,
      "duration": 0.08532424999999932
    },
    {
      "name": "D#5",
      "midi": 75,
      "time": 28.839596499999843,
      "velocity": 0.3779527559055118,
      "duration": 0.08532424999999932
    },
    {
      "name": "F#5",
      "midi": 78,
      "time": 28.924920749999842,
      "velocity": 0.3779527559055118,
      "duration": 0.08532424999999932
    },
    {
      "name": "A4",
      "midi": 69,
      "time": 29.01024499999984,
      "velocity": 0.41732283464566927,
      "duration": 0.08532424999999932
    },
    {
      "name": "A5",
      "midi": 81,
      "time": 29.09983546249984,
      "velocity": 0.3779527559055118,
      "duration": 0.08532424999999932
    },
    {
      "name": "D#5",
      "midi": 75,
      "time": 29.18089349999984,
      "velocity": 0.3700787401574803,
      "duration": 0.08532424999999932
    },
    {
      "name": "F#5",
      "midi": 78,
      "time": 29.26621774999984,
      "velocity": 0.3700787401574803,
      "duration": 0.08532424999999932
    },
    {
      "name": "A4",
      "midi": 69,
      "time": 29.35154199999984,
      "velocity": 0.4094488188976378,
      "duration": 0.08532424999999932
    },
    {
      "name": "A5",
      "midi": 81,
      "time": 29.436866249999838,
      "velocity": 0.3858267716535433,
      "duration": 0.08532424999999932
    },
    {
      "name": "D#5",
      "midi": 75,
      "time": 29.522190499999837,
      "velocity": 0.3543307086614173,
      "duration": 0.08532424999999932
    },
    {
      "name": "F#5",
      "midi": 78,
      "time": 29.607514749999837,
      "velocity": 0.3543307086614173,
      "duration": 0.08532424999999932
    },
    {
      "name": "A4",
      "midi": 69,
      "time": 29.692838999999836,
      "velocity": 0.4015748031496063,
      "duration": 0.08532424999999932
    },
    {
      "name": "A5",
      "midi": 81,
      "time": 29.778163249999835,
      "velocity": 0.3700787401574803,
      "duration": 0.08532424999999932
    },
    {
      "name": "D#5",
      "midi": 75,
      "time": 29.863487499999835,
      "velocity": 0.3464566929133858,
      "duration": 0.08532424999999932
    },
    {
      "name": "F#5",
      "midi": 78,
      "time": 29.948811749999834,
      "velocity": 0.3464566929133858,
      "duration": 0.08532424999999932
    },
    {
      "name": "C5",
      "midi": 72,
      "time": 30.034135999999833,
      "velocity": 0.4094488188976378,
      "duration": 0.08532424999999932
    },
    {
      "name": "C6",
      "midi": 84,
      "time": 30.12372646249983,
      "velocity": 0.3700787401574803,
      "duration": 0.08532424999999932
    },
    {
      "name": "D#5",
      "midi": 75,
      "time": 30.204784499999832,
      "velocity": 0.36220472440944884,
      "duration": 0.08532424999999932
    },
    {
      "name": "F#5",
      "midi": 78,
      "time": 30.29010874999983,
      "velocity": 0.36220472440944884,
      "duration": 0.08532424999999932
    },
    {
      "name": "B4",
      "midi": 71,
      "time": 30.37543299999983,
      "velocity": 0.3858267716535433,
      "duration": 0.08532424999999932
    },
    {
      "name": "B5",
      "midi": 83,
      "time": 30.46075724999983,
      "velocity": 0.3464566929133858,
      "duration": 0.08532424999999932
    },
    {
      "name": "D#5",
      "midi": 75,
      "time": 30.54608149999983,
      "velocity": 0.3464566929133858,
      "duration": 0.08532424999999932
    },
    {
      "name": "F#5",
      "midi": 78,
      "time": 30.63140574999983,
      "velocity": 0.3464566929133858,
      "duration": 0.08532424999999932
    },
    {
      "name": "B4",
      "midi": 71,
      "time": 30.716729999999828,
      "velocity": 0.3779527559055118,
      "duration": 0.08532424999999932
    },
    {
      "name": "B5",
      "midi": 83,
      "time": 30.802054249999827,
      "velocity": 0.3543307086614173,
      "duration": 0.08532424999999932
    },
    {
      "name": "D#5",
      "midi": 75,
      "time": 30.887378499999826,
      "velocity": 0.33070866141732286,
      "duration": 0.08532424999999932
    },
    {
      "name": "F#5",
      "midi": 78,
      "time": 30.972702749999826,
      "velocity": 0.33070866141732286,
      "duration": 0.08532424999999932
    },
    {
      "name": "A#4",
      "midi": 70,
      "time": 31.058026999999825,
      "velocity": 0.3700787401574803,
      "duration": 0.08532424999999932
    },
    {
      "name": "A#5",
      "midi": 82,
      "time": 31.143351249999824,
      "velocity": 0.33858267716535434,
      "duration": 0.08532424999999932
    },
    {
      "name": "D#5",
      "midi": 75,
      "time": 31.228675499999824,
      "velocity": 0.31496062992125984,
      "duration": 0.08532424999999932
    },
    {
      "name": "F#5",
      "midi": 78,
      "time": 31.313999749999823,
      "velocity": 0.31496062992125984,
      "duration": 0.08532424999999932
    },
    {
      "name": "A#4",
      "midi": 70,
      "time": 31.399323999999822,
      "velocity": 0.36220472440944884,
      "duration": 0.08532424999999932
    },
    {
      "name": "A#5",
      "midi": 82,
      "time": 31.48464824999982,
      "velocity": 0.33070866141732286,
      "duration": 0.08532424999999932
    },
    {
      "name": "D#5",
      "midi": 75,
      "time": 31.56997249999982,
      "velocity": 0.3228346456692913,
      "duration": 0.08532424999999932
    },
    {
      "name": "F#5",
      "midi": 78,
      "time": 31.65529674999982,
      "velocity": 0.3228346456692913,
      "duration": 0.08532424999999932
    },
    {
      "name": "A4",
      "midi": 69,
      "time": 31.74062099999982,
      "velocity": 0.3464566929133858,
      "duration": 0.08532424999999932
    },
    {
      "name": "A5",
      "midi": 81,
      "time": 31.82594524999982,
      "velocity": 0.31496062992125984,
      "duration": 0.08532424999999932
    },
    {
      "name": "D#5",
      "midi": 75,
      "time": 31.91126949999982,
      "velocity": 0.31496062992125984,
      "duration": 0.08532424999999932
    },
    {
      "name": "F#5",
      "midi": 78,
      "time": 31.996593749999818,
      "velocity": 0.30708661417322836,
      "duration": 0.08532424999999932
    },
    {
      "name": "A4",
      "midi": 69,
      "time": 32.08191799999982,
      "velocity": 0.33858267716535434,
      "duration": 0.08532424999999932
    },
    {
      "name": "A5",
      "midi": 81,
      "time": 32.167242249999816,
      "velocity": 0.31496062992125984,
      "duration": 0.08532424999999932
    },
    {
      "name": "D#5",
      "midi": 75,
      "time": 32.252566499999816,
      "velocity": 0.29133858267716534,
      "duration": 0.08532424999999932
    },
    {
      "name": "F#5",
      "midi": 78,
      "time": 32.337890749999815,
      "velocity": 0.29133858267716534,
      "duration": 0.08532424999999932
    },
    {
      "name": "G#4",
      "midi": 68,
      "time": 32.423214999999814,
      "velocity": 0.33070866141732286,
      "duration": 0.08532424999999932
    },
    {
      "name": "G#5",
      "midi": 80,
      "time": 32.508539249999814,
      "velocity": 0.2992125984251969,
      "duration": 0.08532424999999932
    },
    {
      "name": "D#5",
      "midi": 75,
      "time": 32.59386349999981,
      "velocity": 0.28346456692913385,
      "duration": 0.08532424999999932
    },
    {
      "name": "F#5",
      "midi": 78,
      "time": 32.67918774999981,
      "velocity": 0.2755905511811024,
      "duration": 0.08532424999999932
    },
    {
      "name": "G#4",
      "midi": 68,
      "time": 32.84983624999981,
      "velocity": 0.29133858267716534,
      "duration": 0.08532424999999932
    },
    {
      "name": "A4",
      "midi": 69,
      "time": 32.93516049999981,
      "velocity": 0.3228346456692913,
      "duration": 0.08532424999999932
    },
    {
      "name": "G#4",
      "midi": 68,
      "time": 33.02048474999981,
      "velocity": 0.2992125984251969,
      "duration": 0.08532424999999932
    },
    {
      "name": "G4",
      "midi": 67,
      "time": 33.10580899999981,
      "velocity": 0.30708661417322836,
      "duration": 0.08532424999999932
    },
    {
      "name": "G#4",
      "midi": 68,
      "time": 33.19113324999981,
      "velocity": 0.31496062992125984,
      "duration": 0.08532424999999932
    },
    {
      "name": "C#5",
      "midi": 73,
      "time": 33.27645749999981,
      "velocity": 0.33070866141732286,
      "duration": 0.08532424999999932
    },
    {
      "name": "E5",
      "midi": 76,
      "time": 33.36178174999981,
      "velocity": 0.33858267716535434,
      "duration": 0.08532424999999932
    },
    {
      "name": "D#5",
      "midi": 75,
      "time": 33.447105999999806,
      "velocity": 0.3543307086614173,
      "duration": 0.08532424999999932
    },
    {
      "name": "C#5",
      "midi": 73,
      "time": 33.532430249999805,
      "velocity": 0.33858267716535434,
      "duration": 0.08532424999999932
    },
    {
      "name": "D#5",
      "midi": 75,
      "time": 33.617754499999805,
      "velocity": 0.3543307086614173,
      "duration": 0.08532424999999932
    },
    {
      "name": "C#5",
      "midi": 73,
      "time": 33.703078749999804,
      "velocity": 0.33858267716535434,
      "duration": 0.08532424999999932
    },
    {
      "name": "C5",
      "midi": 72,
      "time": 33.7884029999998,
      "velocity": 0.3464566929133858,
      "duration": 0.08532424999999932
    },
    {
      "name": "C#5",
      "midi": 73,
      "time": 33.8737272499998,
      "velocity": 0.36220472440944884,
      "duration": 0.08532424999999932
    },
    {
      "name": "E5",
      "midi": 76,
      "time": 33.9590514999998,
      "velocity": 0.3858267716535433,
      "duration": 0.08532424999999932
    },
    {
      "name": "G#5",
      "midi": 80,
      "time": 34.0443757499998,
      "velocity": 0.3700787401574803,
      "duration": 0.08532424999999932
    },
    {
      "name": "G#4",
      "midi": 68,
      "time": 34.2150242499998,
      "velocity": 0.3543307086614173,
      "duration": 0.08532424999999932
    },
    {
      "name": "A4",
      "midi": 69,
      "time": 34.3003484999998,
      "velocity": 0.3858267716535433,
      "duration": 0.08532424999999932
    },
    {
      "name": "G#4",
      "midi": 68,
      "time": 34.3856727499998,
      "velocity": 0.3543307086614173,
      "duration": 0.08532424999999932
    },
    {
      "name": "G4",
      "midi": 67,
      "time": 34.4709969999998,
      "velocity": 0.36220472440944884,
      "duration": 0.08532424999999932
    },
    {
      "name": "G#4",
      "midi": 68,
      "time": 34.5563212499998,
      "velocity": 0.3779527559055118,
      "duration": 0.08532424999999932
    },
    {
      "name": "C#5",
      "midi": 73,
      "time": 34.6416454999998,
      "velocity": 0.3937007874015748,
      "duration": 0.08532424999999932
    },
    {
      "name": "E5",
      "midi": 76,
      "time": 34.726969749999796,
      "velocity": 0.4015748031496063,
      "duration": 0.08532424999999932
    },
    {
      "name": "D#5",
      "midi": 75,
      "time": 34.812293999999795,
      "velocity": 0.4251968503937008,
      "duration": 0.08532424999999932
    },
    {
      "name": "C#5",
      "midi": 73,
      "time": 34.897618249999795,
      "velocity": 0.4015748031496063,
      "duration": 0.08532424999999932
    },
    {
      "name": "D#5",
      "midi": 75,
      "time": 34.982942499999794,
      "velocity": 0.41732283464566927,
      "duration": 0.08532424999999932
    },
    {
      "name": "C#5",
      "midi": 73,
      "time": 35.06826674999979,
      "velocity": 0.4015748031496063,
      "duration": 0.08532424999999932
    },
    {
      "name": "C5",
      "midi": 72,
      "time": 35.15359099999979,
      "velocity": 0.4094488188976378,
      "duration": 0.08532424999999932
    },
    {
      "name": "C#5",
      "midi": 73,
      "time": 35.23891524999979,
      "velocity": 0.4251968503937008,
      "duration": 0.08532424999999932
    },
    {
      "name": "E5",
      "midi": 76,
      "time": 35.32423949999979,
      "velocity": 0.44881889763779526,
      "duration": 0.08532424999999932
    },
    {
      "name": "G#5",
      "midi": 80,
      "time": 35.40956374999979,
      "velocity": 0.4330708661417323,
      "duration": 0.08532424999999932
    },
    {
      "name": "A4",
      "midi": 69,
      "time": 35.58021224999979,
      "velocity": 0.4409448818897638,
      "duration": 0.08532424999999932
    },
    {
      "name": "C#5",
      "midi": 73,
      "time": 35.66553649999979,
      "velocity": 0.44881889763779526,
      "duration": 0.08532424999999932
    },
    {
      "name": "D#5",
      "midi": 75,
      "time": 35.75086074999979,
      "velocity": 0.4645669291338583,
      "duration": 0.08532424999999932
    },
    {
      "name": "F#5",
      "midi": 78,
      "time": 35.83618499999979,
      "velocity": 0.48031496062992124,
      "duration": 0.08532424999999932
    },
    {
      "name": "A5",
      "midi": 81,
      "time": 35.92150924999979,
      "velocity": 0.5196850393700787,
      "duration": 0.08532424999999932
    },
    {
      "name": "C#6",
      "midi": 85,
      "time": 36.006833499999786,
      "velocity": 0.5433070866141733,
      "duration": 0.08532424999999932
    },
    {
      "name": "D#6",
      "midi": 87,
      "time": 36.092157749999785,
      "velocity": 0.5590551181102362,
      "duration": 0.08532424999999932
    },
    {
      "name": "B6",
      "midi": 95,
      "time": 36.177481999999785,
      "velocity": 0.5748031496062992,
      "duration": 0.08532424999999932
    },
    {
      "name": "A6",
      "midi": 93,
      "time": 36.262806249999784,
      "velocity": 0.5590551181102362,
      "duration": 0.08532424999999932
    },
    {
      "name": "G#6",
      "midi": 92,
      "time": 36.34813049999978,
      "velocity": 0.5590551181102362,
      "duration": 0.08532424999999932
    },
    {
      "name": "F#6",
      "midi": 90,
      "time": 36.43345474999978,
      "velocity": 0.5511811023622047,
      "duration": 0.08532424999999932
    },
    {
      "name": "E6",
      "midi": 88,
      "time": 36.51877899999978,
      "velocity": 0.5433070866141733,
      "duration": 0.08532424999999932
    },
    {
      "name": "D#6",
      "midi": 87,
      "time": 36.60410324999978,
      "velocity": 0.5354330708661418,
      "duration": 0.08532424999999932
    },
    {
      "name": "F#6",
      "midi": 90,
      "time": 36.68942749999978,
      "velocity": 0.5275590551181102,
      "duration": 0.08532424999999932
    },
    {
      "name": "C#6",
      "midi": 85,
      "time": 36.77475174999978,
      "velocity": 0.5275590551181102,
      "duration": 0.08532424999999932
    },
    {
      "name": "C6",
      "midi": 84,
      "time": 36.86007599999978,
      "velocity": 0.5354330708661418,
      "duration": 0.08532424999999932
    },
    {
      "name": "D#6",
      "midi": 87,
      "time": 36.94540024999978,
      "velocity": 0.5039370078740157,
      "duration": 0.08532424999999932
    },
    {
      "name": "A5",
      "midi": 81,
      "time": 37.03072449999978,
      "velocity": 0.5118110236220472,
      "duration": 0.08532424999999932
    },
    {
      "name": "G#5",
      "midi": 80,
      "time": 37.11604874999978,
      "velocity": 0.5118110236220472,
      "duration": 0.08532424999999932
    },
    {
      "name": "F#5",
      "midi": 78,
      "time": 37.201372999999776,
      "velocity": 0.5039370078740157,
      "duration": 0.08532424999999932
    },
    {
      "name": "A5",
      "midi": 81,
      "time": 37.286697249999776,
      "velocity": 0.4881889763779528,
      "duration": 0.08532424999999932
    },
    {
      "name": "E5",
      "midi": 76,
      "time": 37.372021499999775,
      "velocity": 0.4645669291338583,
      "duration": 0.08532424999999932
    },
    {
      "name": "D#5",
      "midi": 75,
      "time": 37.457345749999774,
      "velocity": 0.4645669291338583,
      "duration": 0.08532424999999932
    },
    {
      "name": "F#5",
      "midi": 78,
      "time": 37.542669999999774,
      "velocity": 0.4645669291338583,
      "duration": 0.08532424999999932
    },
    {
      "name": "C#5",
      "midi": 73,
      "time": 37.62799424999977,
      "velocity": 0.4330708661417323,
      "duration": 0.08532424999999932
    },
    {
      "name": "C5",
      "midi": 72,
      "time": 37.71331849999977,
      "velocity": 0.4330708661417323,
      "duration": 0.08532424999999932
    },
    {
      "name": "D#5",
      "midi": 75,
      "time": 37.79864274999977,
      "velocity": 0.4330708661417323,
      "duration": 0.08532424999999932
    },
    {
      "name": "A4",
      "midi": 69,
      "time": 37.88396699999977,
      "velocity": 0.4251968503937008,
      "duration": 0.08532424999999932
    },
    {
      "name": "G#4",
      "midi": 68,
      "time": 37.96929124999977,
      "velocity": 0.4015748031496063,
      "duration": 0.08532424999999932
    },
    {
      "name": "B4",
      "midi": 71,
      "time": 38.05461549999977,
      "velocity": 0.4015748031496063,
      "duration": 0.08532424999999932
    },
    {
      "name": "A4",
      "midi": 69,
      "time": 38.13993974999977,
      "velocity": 0.3937007874015748,
      "duration": 0.17064849999999865
    },
    {
      "name": "G#4",
      "midi": 68,
      "time": 38.31058824999977,
      "velocity": 0.3700787401574803,
      "duration": 0.08532424999999932
    },
    {
      "name": "A4",
      "midi": 69,
      "time": 38.39591249999977,
      "velocity": 0.4015748031496063,
      "duration": 0.08532424999999932
    },
    {
      "name": "G#4",
      "midi": 68,
      "time": 38.481236749999766,
      "velocity": 0.3700787401574803,
      "duration": 0.08532424999999932
    },
    {
      "name": "G4",
      "midi": 67,
      "time": 38.566560999999766,
      "velocity": 0.3779527559055118,
      "duration": 0.08532424999999932
    },
    {
      "name": "G#4",
      "midi": 68,
      "time": 38.651885249999765,
      "velocity": 0.3858267716535433,
      "duration": 0.08532424999999932
    },
    {
      "name": "C#5",
      "midi": 73,
      "time": 38.737209499999764,
      "velocity": 0.4015748031496063,
      "duration": 0.08532424999999932
    },
    {
      "name": "E5",
      "midi": 76,
      "time": 38.822533749999764,
      "velocity": 0.4094488188976378,
      "duration": 0.08532424999999932
    },
    {
      "name": "D#5",
      "midi": 75,
      "time": 38.90785799999976,
      "velocity": 0.4251968503937008,
      "duration": 0.08532424999999932
    },
    {
      "name": "C#5",
      "midi": 73,
      "time": 38.99318224999976,
      "velocity": 0.4015748031496063,
      "duration": 0.08532424999999932
    },
    {
      "name": "D#5",
      "midi": 75,
      "time": 39.07850649999976,
      "velocity": 0.41732283464566927,
      "duration": 0.08532424999999932
    },
    {
      "name": "C#5",
      "midi": 73,
      "time": 39.16383074999976,
      "velocity": 0.4015748031496063,
      "duration": 0.08532424999999932
    },
    {
      "name": "C5",
      "midi": 72,
      "time": 39.24915499999976,
      "velocity": 0.4015748031496063,
      "duration": 0.08532424999999932
    },
    {
      "name": "C#5",
      "midi": 73,
      "time": 39.33447924999976,
      "velocity": 0.41732283464566927,
      "duration": 0.08532424999999932
    },
    {
      "name": "E5",
      "midi": 76,
      "time": 39.41980349999976,
      "velocity": 0.44881889763779526,
      "duration": 0.08532424999999932
    },
    {
      "name": "G#5",
      "midi": 80,
      "time": 39.50512774999976,
      "velocity": 0.4251968503937008,
      "duration": 0.08532424999999932
    },
    {
      "name": "E5",
      "midi": 76,
      "time": 39.59045199999976,
      "velocity": 0.4094488188976378,
      "duration": 0.08532424999999932
    },
    {
      "name": "D#5",
      "midi": 75,
      "time": 39.67577624999976,
      "velocity": 0.3779527559055118,
      "duration": 0.08532424999999932
    },
    {
      "name": "E5",
      "midi": 76,
      "time": 39.761100499999756,
      "velocity": 0.4094488188976378,
      "duration": 0.08532424999999932
    },
    {
      "name": "D#5",
      "midi": 75,
      "time": 39.846424749999755,
      "velocity": 0.3779527559055118,
      "duration": 0.08532424999999932
    },
    {
      "name": "D5",
      "midi": 74,
      "time": 39.931748999999755,
      "velocity": 0.3858267716535433,
      "duration": 0.08532424999999932
    },
    {
      "name": "D#5",
      "midi": 75,
      "time": 40.017073249999754,
      "velocity": 0.3937007874015748,
      "duration": 0.08532424999999932
    },
    {
      "name": "F#5",
      "midi": 78,
      "time": 40.10239749999975,
      "velocity": 0.41732283464566927,
      "duration": 0.08532424999999932
    },
    {
      "name": "A5",
      "midi": 81,
      "time": 40.18772174999975,
      "velocity": 0.4251968503937008,
      "duration": 0.08532424999999932
    },
    {
      "name": "F#5",
      "midi": 78,
      "time": 40.27304599999975,
      "velocity": 0.4409448818897638,
      "duration": 0.08532424999999932
    },
    {
      "name": "F5",
      "midi": 77,
      "time": 40.35837024999975,
      "velocity": 0.4251968503937008,
      "duration": 0.08532424999999932
    },
    {
      "name": "F#5",
      "midi": 78,
      "time": 40.44369449999975,
      "velocity": 0.4409448818897638,
      "duration": 0.08532424999999932
    },
    {
      "name": "F5",
      "midi": 77,
      "time": 40.52901874999975,
      "velocity": 0.4251968503937008,
      "duration": 0.08532424999999932
    },
    {
      "name": "E5",
      "midi": 76,
      "time": 40.61434299999975,
      "velocity": 0.4251968503937008,
      "duration": 0.08532424999999932
    },
    {
      "name": "F5",
      "midi": 77,
      "time": 40.69966724999975,
      "velocity": 0.4409448818897638,
      "duration": 0.08532424999999932
    },
    {
      "name": "G#5",
      "midi": 80,
      "time": 40.78499149999975,
      "velocity": 0.4645669291338583,
      "duration": 0.08532424999999932
    },
    {
      "name": "C#6",
      "midi": 85,
      "time": 40.87031574999975,
      "velocity": 0.44881889763779526,
      "duration": 0.08532424999999932
    },
    {
      "name": "C#5",
      "midi": 73,
      "time": 41.040964249999746,
      "velocity": 0.3937007874015748,
      "duration": 0.08532424999999932
    },
    {
      "name": "D5",
      "midi": 74,
      "time": 41.126288499999745,
      "velocity": 0.4330708661417323,
      "duration": 0.08532424999999932
    },
    {
      "name": "C#5",
      "midi": 73,
      "time": 41.211612749999745,
      "velocity": 0.4015748031496063,
      "duration": 0.08532424999999932
    },
    {
      "name": "C5",
      "midi": 72,
      "time": 41.296936999999744,
      "velocity": 0.4094488188976378,
      "duration": 0.08532424999999932
    },
    {
      "name": "C#5",
      "midi": 73,
      "time": 41.38226124999974,
      "velocity": 0.41732283464566927,
      "duration": 0.08532424999999932
    },
    {
      "name": "F#5",
      "midi": 78,
      "time": 41.46758549999974,
      "velocity": 0.4409448818897638,
      "duration": 0.08532424999999932
    },
    {
      "name": "A5",
      "midi": 81,
      "time": 41.55290974999974,
      "velocity": 0.44881889763779526,
      "duration": 0.08532424999999932
    },
    {
      "name": "F#5",
      "midi": 78,
      "time": 41.63823399999974,
      "velocity": 0.4645669291338583,
      "duration": 0.08532424999999932
    },
    {
      "name": "F5",
      "midi": 77,
      "time": 41.72355824999974,
      "velocity": 0.4409448818897638,
      "duration": 0.08532424999999932
    },
    {
      "name": "F#5",
      "midi": 78,
      "time": 41.80888249999974,
      "velocity": 0.4645669291338583,
      "duration": 0.08532424999999932
    },
    {
      "name": "F5",
      "midi": 77,
      "time": 41.89420674999974,
      "velocity": 0.44881889763779526,
      "duration": 0.08532424999999932
    },
    {
      "name": "E5",
      "midi": 76,
      "time": 41.97953099999974,
      "velocity": 0.44881889763779526,
      "duration": 0.08532424999999932
    },
    {
      "name": "F5",
      "midi": 77,
      "time": 42.06485524999974,
      "velocity": 0.4645669291338583,
      "duration": 0.08532424999999932
    },
    {
      "name": "G#5",
      "midi": 80,
      "time": 42.15017949999974,
      "velocity": 0.49606299212598426,
      "duration": 0.08532424999999932
    },
    {
      "name": "C#6",
      "midi": 85,
      "time": 42.23550374999974,
      "velocity": 0.4645669291338583,
      "duration": 0.08532424999999932
    },
    {
      "name": "G#5",
      "midi": 80,
      "time": 42.320827999999736,
      "velocity": 0.4566929133858268,
      "duration": 0.08532424999999932
    },
    {
      "name": "F#5",
      "midi": 78,
      "time": 42.406152249999735,
      "velocity": 0.41732283464566927,
      "duration": 0.08532424999999932
    },
    {
      "name": "G#5",
      "midi": 80,
      "time": 42.491476499999735,
      "velocity": 0.4566929133858268,
      "duration": 0.08532424999999932
    },
    {
      "name": "F#5",
      "midi": 78,
      "time": 42.576800749999734,
      "velocity": 0.4251968503937008,
      "duration": 0.08532424999999932
    },
    {
      "name": "F5",
      "midi": 77,
      "time": 42.66212499999973,
      "velocity": 0.4330708661417323,
      "duration": 0.08532424999999932
    },
    {
      "name": "F#5",
      "midi": 78,
      "time": 42.74744924999973,
      "velocity": 0.4409448818897638,
      "duration": 0.08532424999999932
    },
    {
      "name": "A5",
      "midi": 81,
      "time": 42.83277349999973,
      "velocity": 0.4645669291338583,
      "duration": 0.08532424999999932
    },
    {
      "name": "C#6",
      "midi": 85,
      "time": 42.91809774999973,
      "velocity": 0.47244094488188976,
      "duration": 0.08532424999999932
    },
    {
      "name": "A5",
      "midi": 81,
      "time": 43.00342199999973,
      "velocity": 0.49606299212598426,
      "duration": 0.08532424999999932
    },
    {
      "name": "G#5",
      "midi": 80,
      "time": 43.08874624999973,
      "velocity": 0.4645669291338583,
      "duration": 0.08532424999999932
    },
    {
      "name": "A5",
      "midi": 81,
      "time": 43.17407049999973,
      "velocity": 0.4881889763779528,
      "duration": 0.08532424999999932
    },
    {
      "name": "G#5",
      "midi": 80,
      "time": 43.25939474999973,
      "velocity": 0.47244094488188976,
      "duration": 0.08532424999999932
    },
    {
      "name": "G5",
      "midi": 79,
      "time": 43.34471899999973,
      "velocity": 0.47244094488188976,
      "duration": 0.08532424999999932
    },
    {
      "name": "G#5",
      "midi": 80,
      "time": 43.43004324999973,
      "velocity": 0.4881889763779528,
      "duration": 0.08532424999999932
    },
    {
      "name": "C6",
      "midi": 84,
      "time": 43.515367499999726,
      "velocity": 0.5196850393700787,
      "duration": 0.08532424999999932
    },
    {
      "name": "D#6",
      "midi": 87,
      "time": 43.600691749999726,
      "velocity": 0.49606299212598426,
      "duration": 0.08532424999999932
    },
    {
      "name": "G#5",
      "midi": 80,
      "time": 43.686015999999725,
      "velocity": 0.5433070866141733,
      "duration": 0.08532424999999932
    },
    {
      "name": "A5",
      "midi": 81,
      "time": 43.771340249999724,
      "velocity": 0.5039370078740157,
      "duration": 0.08532424999999932
    },
    {
      "name": "G#5",
      "midi": 80,
      "time": 43.856664499999724,
      "velocity": 0.5275590551181102,
      "duration": 0.08532424999999932
    },
    {
      "name": "G5",
      "midi": 79,
      "time": 43.94198874999972,
      "velocity": 0.4566929133858268,
      "duration": 0.08532424999999932
    },
    {
      "name": "G#5",
      "midi": 80,
      "time": 44.02731299999972,
      "velocity": 0.4881889763779528,
      "duration": 0.08532424999999932
    },
    {
      "name": "E6",
      "midi": 88,
      "time": 44.11263724999972,
      "velocity": 0.5590551181102362,
      "duration": 0.08532424999999932
    },
    {
      "name": "D#6",
      "midi": 87,
      "time": 44.19796149999972,
      "velocity": 0.5590551181102362,
      "duration": 0.08532424999999932
    },
    {
      "name": "D6",
      "midi": 86,
      "time": 44.28328574999972,
      "velocity": 0.5511811023622047,
      "duration": 0.08532424999999932
    },
    {
      "name": "C#6",
      "midi": 85,
      "time": 44.36860999999972,
      "velocity": 0.5433070866141733,
      "duration": 0.08532424999999932
    },
    {
      "name": "C6",
      "midi": 84,
      "time": 44.45393424999972,
      "velocity": 0.5433070866141733,
      "duration": 0.08532424999999932
    },
    {
      "name": "B5",
      "midi": 83,
      "time": 44.53925849999972,
      "velocity": 0.5354330708661418,
      "duration": 0.08532424999999932
    },
    {
      "name": "A#5",
      "midi": 82,
      "time": 44.62458274999972,
      "velocity": 0.5275590551181102,
      "duration": 0.08532424999999932
    },
    {
      "name": "A5",
      "midi": 81,
      "time": 44.70990699999972,
      "velocity": 0.5275590551181102,
      "duration": 0.08532424999999932
    },
    {
      "name": "G#5",
      "midi": 80,
      "time": 44.795231249999716,
      "velocity": 0.5196850393700787,
      "duration": 0.08532424999999932
    },
    {
      "name": "G5",
      "midi": 79,
      "time": 44.880555499999716,
      "velocity": 0.5118110236220472,
      "duration": 0.08532424999999932
    },
    {
      "name": "F#5",
      "midi": 78,
      "time": 44.965879749999715,
      "velocity": 0.5039370078740157,
      "duration": 0.08532424999999932
    },
    {
      "name": "E5",
      "midi": 76,
      "time": 45.051203999999714,
      "velocity": 0.5433070866141733,
      "duration": 0.08532424999999932
    },
    {
      "name": "F#5",
      "midi": 78,
      "time": 45.136528249999714,
      "velocity": 0.5039370078740157,
      "duration": 0.08532424999999932
    },
    {
      "name": "E5",
      "midi": 76,
      "time": 45.22185249999971,
      "velocity": 0.5275590551181102,
      "duration": 0.08532424999999932
    },
    {
      "name": "D#5",
      "midi": 75,
      "time": 45.30717674999971,
      "velocity": 0.4566929133858268,
      "duration": 0.08532424999999932
    },
    {
      "name": "E5",
      "midi": 76,
      "time": 45.39250099999971,
      "velocity": 0.4881889763779528,
      "duration": 0.08532424999999932
    },
    {
      "name": "E6",
      "midi": 88,
      "time": 45.47782524999971,
      "velocity": 0.5590551181102362,
      "duration": 0.08532424999999932
    },
    {
      "name": "D#6",
      "midi": 87,
      "time": 45.56314949999971,
      "velocity": 0.5590551181102362,
      "duration": 0.08532424999999932
    },
    {
      "name": "D6",
      "midi": 86,
      "time": 45.64847374999971,
      "velocity": 0.5511811023622047,
      "duration": 0.08532424999999932
    },
    {
      "name": "C#6",
      "midi": 85,
      "time": 45.73379799999971,
      "velocity": 0.5511811023622047,
      "duration": 0.08532424999999932
    },
    {
      "name": "C6",
      "midi": 84,
      "time": 45.81912224999971,
      "velocity": 0.5590551181102362,
      "duration": 0.08532424999999932
    },
    {
      "name": "B5",
      "midi": 83,
      "time": 45.90444649999971,
      "velocity": 0.5590551181102362,
      "duration": 0.08532424999999932
    },
    {
      "name": "A#5",
      "midi": 82,
      "time": 45.98977074999971,
      "velocity": 0.5669291338582677,
      "duration": 0.08532424999999932
    },
    {
      "name": "A5",
      "midi": 81,
      "time": 46.075094999999706,
      "velocity": 0.5748031496062992,
      "duration": 0.08532424999999932
    },
    {
      "name": "G#5",
      "midi": 80,
      "time": 46.160419249999705,
      "velocity": 0.5826771653543307,
      "duration": 0.08532424999999932
    },
    {
      "name": "G5",
      "midi": 79,
      "time": 46.245743499999705,
      "velocity": 0.5905511811023622,
      "duration": 0.08532424999999932
    },
    {
      "name": "F#5",
      "midi": 78,
      "time": 46.331067749999704,
      "velocity": 0.5984251968503937,
      "duration": 0.08532424999999932
    },
    {
      "name": "G#5",
      "midi": 80,
      "time": 46.4163919999997,
      "velocity": 0.5984251968503937,
      "duration": 0.04266212499999966
    },
    {
      "name": "G#6",
      "midi": 92,
      "time": 46.5870404999997,
      "velocity": 0.6692913385826772,
      "duration": 0.08532424999999932
    },
    {
      "name": "G6",
      "midi": 91,
      "time": 46.6723647499997,
      "velocity": 0.6692913385826772,
      "duration": 0.08532424999999932
    },
    {
      "name": "F#6",
      "midi": 90,
      "time": 46.7576889999997,
      "velocity": 0.6614173228346457,
      "duration": 0.08532424999999932
    },
    {
      "name": "F6",
      "midi": 89,
      "time": 46.8430132499997,
      "velocity": 0.6614173228346457,
      "duration": 0.08532424999999932
    },
    {
      "name": "E6",
      "midi": 88,
      "time": 46.9283374999997,
      "velocity": 0.6535433070866141,
      "duration": 0.08532424999999932
    },
    {
      "name": "D#6",
      "midi": 87,
      "time": 47.0136617499997,
      "velocity": 0.6535433070866141,
      "duration": 0.08532424999999932
    },
    {
      "name": "D6",
      "midi": 86,
      "time": 47.0989859999997,
      "velocity": 0.6456692913385826,
      "duration": 0.08532424999999932
    },
    {
      "name": "C#6",
      "midi": 85,
      "time": 47.1843102499997,
      "velocity": 0.6377952755905512,
      "duration": 0.08532424999999932
    },
    {
      "name": "C6",
      "midi": 84,
      "time": 47.2696344999997,
      "velocity": 0.6377952755905512,
      "duration": 0.08532424999999932
    },
    {
      "name": "B5",
      "midi": 83,
      "time": 47.354958749999696,
      "velocity": 0.6299212598425197,
      "duration": 0.08532424999999932
    },
    {
      "name": "A#5",
      "midi": 82,
      "time": 47.440282999999695,
      "velocity": 0.6299212598425197,
      "duration": 0.08532424999999932
    },
    {
      "name": "A5",
      "midi": 81,
      "time": 47.525607249999695,
      "velocity": 0.6220472440944882,
      "duration": 0.08532424999999932
    },
    {
      "name": "G#5",
      "midi": 80,
      "time": 47.610931499999694,
      "velocity": 0.6220472440944882,
      "duration": 0.08532424999999932
    },
    {
      "name": "G5",
      "midi": 79,
      "time": 47.69625574999969,
      "velocity": 0.6141732283464567,
      "duration": 0.08532424999999932
    },
    {
      "name": "F#5",
      "midi": 78,
      "time": 47.78157999999969,
      "velocity": 0.6062992125984252,
      "duration": 0.08532424999999932
    },
    {
      "name": "F5",
      "midi": 77,
      "time": 47.86690424999969,
      "velocity": 0.6062992125984252,
      "duration": 0.08532424999999932
    },
    {
      "name": "E5",
      "midi": 76,
      "time": 47.95222849999969,
      "velocity": 0.6062992125984252,
      "duration": 0.08532424999999932
    },
    {
      "name": "D#5",
      "midi": 75,
      "time": 48.03755274999969,
      "velocity": 0.6062992125984252,
      "duration": 0.08532424999999932
    },
    {
      "name": "D5",
      "midi": 74,
      "time": 48.12287699999969,
      "velocity": 0.6062992125984252,
      "duration": 0.08532424999999932
    },
    {
      "name": "C#5",
      "midi": 73,
      "time": 48.20820124999969,
      "velocity": 0.6062992125984252,
      "duration": 0.08532424999999932
    },
    {
      "name": "C5",
      "midi": 72,
      "time": 48.29352549999969,
      "velocity": 0.6062992125984252,
      "duration": 0.08532424999999932
    },
    {
      "name": "B4",
      "midi": 71,
      "time": 48.37884974999969,
      "velocity": 0.6062992125984252,
      "duration": 0.08532424999999932
    },
    {
      "name": "A#4",
      "midi": 70,
      "time": 48.46417399999969,
      "velocity": 0.6062992125984252,
      "duration": 0.08532424999999932
    },
    {
      "name": "A4",
      "midi": 69,
      "time": 48.54949824999969,
      "velocity": 0.6141732283464567,
      "duration": 0.08532424999999932
    },
    {
      "name": "G#4",
      "midi": 68,
      "time": 48.634822499999686,
      "velocity": 0.6299212598425197,
      "duration": 0.08532424999999932
    },
    {
      "name": "G4",
      "midi": 67,
      "time": 48.720146749999685,
      "velocity": 0.6456692913385826,
      "duration": 0.08532424999999932
    },
    {
      "name": "F#4",
      "midi": 66,
      "time": 48.805470999999685,
      "velocity": 0.6692913385826772,
      "duration": 0.08532424999999932
    },
    {
      "name": "E4",
      "midi": 64,
      "time": 48.890795249999684,
      "velocity": 0.6850393700787402,
      "duration": 0.08532424999999932
    },
    {
      "name": "D#4",
      "midi": 63,
      "time": 48.97611949999968,
      "velocity": 0.7086614173228346,
      "duration": 0.08532424999999932
    },
    {
      "name": "C#4",
      "midi": 61,
      "time": 49.06144374999968,
      "velocity": 0.7244094488188977,
      "duration": 0.08532424999999932
    },
    {
      "name": "G#3",
      "midi": 56,
      "time": 49.14676799999968,
      "velocity": 0.7401574803149606,
      "duration": 0.08532424999999932
    },
    {
      "name": "A6",
      "midi": 93,
      "time": 49.48806499999968,
      "velocity": 0.7086614173228346,
      "duration": 0.08532424999999932
    },
    {
      "name": "G#6",
      "midi": 92,
      "time": 49.57338924999968,
      "velocity": 0.6377952755905512,
      "duration": 0.08532424999999932
    },
    {
      "name": "E7",
      "midi": 100,
      "time": 49.65871349999968,
      "velocity": 0.6062992125984252,
      "duration": 0.08532424999999932
    },
    {
      "name": "E6",
      "midi": 88,
      "time": 49.74403774999968,
      "velocity": 0.6062992125984252,
      "duration": 0.08532424999999932
    },
    {
      "name": "F#6",
      "midi": 90,
      "time": 49.829361999999676,
      "velocity": 0.7086614173228346,
      "duration": 0.08532424999999932
    },
    {
      "name": "E6",
      "midi": 88,
      "time": 49.914686249999676,
      "velocity": 0.6062992125984252,
      "duration": 0.08532424999999932
    },
    {
      "name": "C#7",
      "midi": 97,
      "time": 50.000010499999675,
      "velocity": 0.6062992125984252,
      "duration": 0.08532424999999932
    },
    {
      "name": "C#6",
      "midi": 85,
      "time": 50.085334749999674,
      "velocity": 0.6062992125984252,
      "duration": 0.08532424999999932
    },
    {
      "name": "D#6",
      "midi": 87,
      "time": 50.170658999999674,
      "velocity": 0.7007874015748031,
      "duration": 0.08532424999999932
    },
    {
      "name": "C#6",
      "midi": 85,
      "time": 50.25598324999967,
      "velocity": 0.6062992125984252,
      "duration": 0.08532424999999932
    },
    {
      "name": "G#6",
      "midi": 92,
      "time": 50.34130749999967,
      "velocity": 0.6062992125984252,
      "duration": 0.08532424999999932
    },
    {
      "name": "G#5",
      "midi": 80,
      "time": 50.42663174999967,
      "velocity": 0.6062992125984252,
      "duration": 0.08532424999999932
    },
    {
      "name": "A5",
      "midi": 81,
      "time": 50.51195599999967,
      "velocity": 0.7007874015748031,
      "duration": 0.08532424999999932
    },
    {
      "name": "G#5",
      "midi": 80,
      "time": 50.59728024999967,
      "velocity": 0.6062992125984252,
      "duration": 0.08532424999999932
    },
    {
      "name": "E6",
      "midi": 88,
      "time": 50.68260449999967,
      "velocity": 0.6062992125984252,
      "duration": 0.08532424999999932
    },
    {
      "name": "E5",
      "midi": 76,
      "time": 50.76792874999967,
      "velocity": 0.6062992125984252,
      "duration": 0.08532424999999932
    },
    {
      "name": "F#5",
      "midi": 78,
      "time": 50.85325299999967,
      "velocity": 0.6929133858267716,
      "duration": 0.08532424999999932
    },
    {
      "name": "E5",
      "midi": 76,
      "time": 50.93857724999967,
      "velocity": 0.6062992125984252,
      "duration": 0.08532424999999932
    },
    {
      "name": "C#6",
      "midi": 85,
      "time": 51.02390149999967,
      "velocity": 0.6062992125984252,
      "duration": 0.08532424999999932
    },
    {
      "name": "C#5",
      "midi": 73,
      "time": 51.109225749999666,
      "velocity": 0.6062992125984252,
      "duration": 0.08532424999999932
    },
    {
      "name": "D#5",
      "midi": 75,
      "time": 51.194549999999666,
      "velocity": 0.7007874015748031,
      "duration": 0.08532424999999932
    },
    {
      "name": "C#5",
      "midi": 73,
      "time": 51.279874249999665,
      "velocity": 0.6062992125984252,
      "duration": 0.08532424999999932
    },
    {
      "name": "G#5",
      "midi": 80,
      "time": 51.365198499999664,
      "velocity": 0.6062992125984252,
      "duration": 0.08532424999999932
    },
    {
      "name": "G#4",
      "midi": 68,
      "time": 51.450522749999664,
      "velocity": 0.6062992125984252,
      "duration": 0.08532424999999932
    },
    {
      "name": "A4",
      "midi": 69,
      "time": 51.53584699999966,
      "velocity": 0.7086614173228346,
      "duration": 0.08532424999999932
    },
    {
      "name": "G#4",
      "midi": 68,
      "time": 51.62117124999966,
      "velocity": 0.6062992125984252,
      "duration": 0.08532424999999932
    },
    {
      "name": "E5",
      "midi": 76,
      "time": 51.70649549999966,
      "velocity": 0.6062992125984252,
      "duration": 0.08532424999999932
    },
    {
      "name": "E4",
      "midi": 64,
      "time": 51.79181974999966,
      "velocity": 0.6062992125984252,
      "duration": 0.08532424999999932
    },
    {
      "name": "F#4",
      "midi": 66,
      "time": 51.87714399999966,
      "velocity": 0.6929133858267716,
      "duration": 0.08532424999999932
    },
    {
      "name": "E4",
      "midi": 64,
      "time": 51.96246824999966,
      "velocity": 0.6062992125984252,
      "duration": 0.08532424999999932
    },
    {
      "name": "C#5",
      "midi": 73,
      "time": 52.04779249999966,
      "velocity": 0.6062992125984252,
      "duration": 0.08532424999999932
    },
    {
      "name": "C#4",
      "midi": 61,
      "time": 52.13311674999966,
      "velocity": 0.6062992125984252,
      "duration": 0.08532424999999932
    },
    {
      "name": "D#4",
      "midi": 63,
      "time": 52.21844099999966,
      "velocity": 0.7007874015748031,
      "duration": 0.08532424999999932
    },
    {
      "name": "C#4",
      "midi": 61,
      "time": 52.30376524999966,
      "velocity": 0.6062992125984252,
      "duration": 0.08532424999999932
    },
    {
      "name": "G#4",
      "midi": 68,
      "time": 52.389089499999656,
      "velocity": 0.6062992125984252,
      "duration": 0.08532424999999932
    },
    {
      "name": "G#3",
      "midi": 56,
      "time": 52.474413749999655,
      "velocity": 0.6062992125984252,
      "duration": 0.08532424999999932
    },
    {
      "name": "D#4",
      "midi": 63,
      "time": 52.559737999999655,
      "velocity": 0.7007874015748031,
      "duration": 0.08532424999999932
    },
    {
      "name": "C#4",
      "midi": 61,
      "time": 52.645062249999654,
      "velocity": 0.6062992125984252,
      "duration": 0.08532424999999932
    },
    {
      "name": "G#4",
      "midi": 68,
      "time": 52.73038649999965,
      "velocity": 0.6062992125984252,
      "duration": 0.08532424999999932
    },
    {
      "name": "G#3",
      "midi": 56,
      "time": 52.81571074999965,
      "velocity": 0.6062992125984252,
      "duration": 0.08532424999999932
    },
    {
      "name": "D#4",
      "midi": 63,
      "time": 52.90103499999965,
      "velocity": 0.7007874015748031,
      "duration": 0.08532424999999932
    },
    {
      "name": "C#4",
      "midi": 61,
      "time": 52.98635924999965,
      "velocity": 0.6062992125984252,
      "duration": 0.08532424999999932
    },
    {
      "name": "A4",
      "midi": 69,
      "time": 53.07168349999965,
      "velocity": 0.6062992125984252,
      "duration": 0.08532424999999932
    },
    {
      "name": "A3",
      "midi": 57,
      "time": 53.15700774999965,
      "velocity": 0.6062992125984252,
      "duration": 0.08532424999999932
    },
    {
      "name": "D#4",
      "midi": 63,
      "time": 53.24233199999965,
      "velocity": 0.7007874015748031,
      "duration": 0.08532424999999932
    },
    {
      "name": "C#4",
      "midi": 61,
      "time": 53.32765624999965,
      "velocity": 0.5905511811023622,
      "duration": 0.08532424999999932
    },
    {
      "name": "G#4",
      "midi": 68,
      "time": 53.41298049999965,
      "velocity": 0.5826771653543307,
      "duration": 0.08532424999999932
    },
    {
      "name": "G#3",
      "midi": 56,
      "time": 53.49830474999965,
      "velocity": 0.5748031496062992,
      "duration": 0.08532424999999932
    },
    {
      "name": "D#4",
      "midi": 63,
      "time": 53.58362899999965,
      "velocity": 0.6535433070866141,
      "duration": 0.08532424999999932
    },
    {
      "name": "C#4",
      "midi": 61,
      "time": 53.668953249999646,
      "velocity": 0.5590551181102362,
      "duration": 0.08532424999999932
    },
    {
      "name": "G4",
      "midi": 67,
      "time": 53.754277499999645,
      "velocity": 0.5590551181102362,
      "duration": 0.08532424999999932
    },
    {
      "name": "G3",
      "midi": 55,
      "time": 53.839601749999645,
      "velocity": 0.5511811023622047,
      "duration": 0.08532424999999932
    },
    {
      "name": "D#4",
      "midi": 63,
      "time": 53.924925999999644,
      "velocity": 0.6220472440944882,
      "duration": 0.08532424999999932
    },
    {
      "name": "C#4",
      "midi": 61,
      "time": 54.01025024999964,
      "velocity": 0.5354330708661418,
      "duration": 0.08532424999999932
    },
    {
      "name": "G#4",
      "midi": 68,
      "time": 54.09557449999964,
      "velocity": 0.5275590551181102,
      "duration": 0.08532424999999932
    },
    {
      "name": "G#3",
      "midi": 56,
      "time": 54.18089874999964,
      "velocity": 0.5196850393700787,
      "duration": 0.08532424999999932
    },
    {
      "name": "D#4",
      "midi": 63,
      "time": 54.26622299999964,
      "velocity": 0.5905511811023622,
      "duration": 0.08532424999999932
    },
    {
      "name": "C4",
      "midi": 60,
      "time": 54.35154724999964,
      "velocity": 0.49606299212598426,
      "duration": 0.08532424999999932
    },
    {
      "name": "G#4",
      "midi": 68,
      "time": 54.43687149999964,
      "velocity": 0.49606299212598426,
      "duration": 0.08532424999999932
    },
    {
      "name": "G#3",
      "midi": 56,
      "time": 54.52219574999964,
      "velocity": 0.4881889763779528,
      "duration": 0.08532424999999932
    },
    {
      "name": "G#4",
      "midi": 68,
      "time": 57.33789599999964,
      "velocity": 0.3543307086614173,
      "duration": 0.6825940000000017
    },
    {
      "name": "A#4",
      "midi": 70,
      "time": 58.02048999999964,
      "velocity": 0.33070866141732286,
      "duration": 0.04266212499999966
    },
    {
      "name": "C5",
      "midi": 72,
      "time": 58.06315212499964,
      "velocity": 0.33070866141732286,
      "duration": 0.04266212499999966
    },
    {
      "name": "A#4",
      "midi": 70,
      "time": 58.10581424999964,
      "velocity": 0.36220472440944884,
      "duration": 0.08532424999999932
    },
    {
      "name": "G#4",
      "midi": 68,
      "time": 58.19113849999964,
      "velocity": 0.3543307086614173,
      "duration": 0.17064849999999865
    },
    {
      "name": "C#5",
      "midi": 73,
      "time": 58.36178699999964,
      "velocity": 0.3543307086614173,
      "duration": 0.17064849999999865
    },
    {
      "name": "D#5",
      "midi": 75,
      "time": 58.532435499999636,
      "velocity": 0.3779527559055118,
      "duration": 0.17064849999999865
    },
    {
      "name": "F5",
      "midi": 77,
      "time": 58.703083999999635,
      "velocity": 0.4015748031496063,
      "duration": 0.6825940000000017
    },
    {
      "name": "G#5",
      "midi": 80,
      "time": 59.385677999999636,
      "velocity": 0.4409448818897638,
      "duration": 0.6825939999999946
    },
    {
      "name": "G#4",
      "midi": 68,
      "time": 59.726974999999634,
      "velocity": 0.3858267716535433,
      "duration": 0.3412969999999973
    },
    {
      "name": "F#5",
      "midi": 78,
      "time": 60.06827199999963,
      "velocity": 0.41732283464566927,
      "duration": 0.3412969999999973
    },
    {
      "name": "F5",
      "midi": 77,
      "time": 60.40956899999963,
      "velocity": 0.4015748031496063,
      "duration": 0.3412969999999973
    },
    {
      "name": "D#5",
      "midi": 75,
      "time": 60.750865999999625,
      "velocity": 0.3858267716535433,
      "duration": 0.3412969999999973
    },
    {
      "name": "F5",
      "midi": 77,
      "time": 61.09216299999962,
      "velocity": 0.4015748031496063,
      "duration": 0.255972749999998
    },
    {
      "name": "C#5",
      "midi": 73,
      "time": 61.34813574999962,
      "velocity": 0.3700787401574803,
      "duration": 0.08532424999999932
    },
    {
      "name": "G#4",
      "midi": 68,
      "time": 61.43345999999962,
      "velocity": 0.3779527559055118,
      "duration": 0.6825940000000017
    },
    {
      "name": "A#4",
      "midi": 70,
      "time": 62.11605399999962,
      "velocity": 0.3779527559055118,
      "duration": 1.3651880000000034
    },
    {
      "name": "B4",
      "midi": 71,
      "time": 63.481241999999625,
      "velocity": 0.33070866141732286,
      "duration": 0.04266212499999966
    },
    {
      "name": "C#5",
      "midi": 73,
      "time": 63.523904124999625,
      "velocity": 0.33070866141732286,
      "duration": 0.04266212499999966
    },
    {
      "name": "B4",
      "midi": 71,
      "time": 63.566566249999624,
      "velocity": 0.36220472440944884,
      "duration": 0.08532424999999932
    },
    {
      "name": "A#4",
      "midi": 70,
      "time": 63.651890499999624,
      "velocity": 0.3543307086614173,
      "duration": 0.17064849999999865
    },
    {
      "name": "D#5",
      "midi": 75,
      "time": 63.82253899999962,
      "velocity": 0.3543307086614173,
      "duration": 0.17064849999999865
    },
    {
      "name": "F5",
      "midi": 77,
      "time": 63.99318749999962,
      "velocity": 0.3779527559055118,
      "duration": 0.17064849999999865
    },
    {
      "name": "F#5",
      "midi": 78,
      "time": 64.16383599999962,
      "velocity": 0.4015748031496063,
      "duration": 0.3412969999999973
    },
    {
      "name": "F5",
      "midi": 77,
      "time": 64.50513299999962,
      "velocity": 0.3937007874015748,
      "duration": 0.3412969999999973
    },
    {
      "name": "D#5",
      "midi": 75,
      "time": 64.84642999999961,
      "velocity": 0.4015748031496063,
      "duration": 0.3412969999999973
    },
    {
      "name": "F5",
      "midi": 77,
      "time": 65.18772699999961,
      "velocity": 0.3858267716535433,
      "duration": 0.3412969999999973
    },
    {
      "name": "C#5",
      "midi": 73,
      "time": 65.52902399999961,
      "velocity": 0.3779527559055118,
      "duration": 0.511945499999996
    },
    {
      "name": "C5",
      "midi": 72,
      "time": 66.0409694999996,
      "velocity": 0.3858267716535433,
      "duration": 0.04266212500000677
    },
    {
      "name": "C#5",
      "midi": 73,
      "time": 66.08363162499961,
      "velocity": 0.3543307086614173,
      "duration": 0.04266212500000677
    },
    {
      "name": "D#5",
      "midi": 75,
      "time": 66.12629374999962,
      "velocity": 0.3543307086614173,
      "duration": 0.04266212500000677
    },
    {
      "name": "C#5",
      "midi": 73,
      "time": 66.16895587499963,
      "velocity": 0.3543307086614173,
      "duration": 0.04266212500000677
    },
    {
      "name": "F5",
      "midi": 77,
      "time": 66.21161799999963,
      "velocity": 0.3937007874015748,
      "duration": 0.511945499999996
    },
    {
      "name": "D#5",
      "midi": 75,
      "time": 66.72356349999963,
      "velocity": 0.3858267716535433,
      "duration": 0.17064849999999865
    },
    {
      "name": "D#5",
      "midi": 75,
      "time": 66.89421199999963,
      "velocity": 0.3700787401574803,
      "duration": 1.3651880000000034
    },
    {
      "name": "G#4",
      "midi": 68,
      "time": 68.25939999999963,
      "velocity": 0.3543307086614173,
      "duration": 0.6825939999999946
    },
    {
      "name": "A#4",
      "midi": 70,
      "time": 68.94199399999962,
      "velocity": 0.33070866141732286,
      "duration": 0.04266212500000677
    },
    {
      "name": "C5",
      "midi": 72,
      "time": 68.98465612499963,
      "velocity": 0.33070866141732286,
      "duration": 0.04266212500000677
    },
    {
      "name": "A#4",
      "midi": 70,
      "time": 69.02731824999964,
      "velocity": 0.36220472440944884,
      "duration": 0.08532424999999932
    },
    {
      "name": "G#4",
      "midi": 68,
      "time": 69.11264249999964,
      "velocity": 0.3543307086614173,
      "duration": 0.17064849999999865
    },
    {
      "name": "C#5",
      "midi": 73,
      "time": 69.28329099999964,
      "velocity": 0.3543307086614173,
      "duration": 0.17064849999999865
    },
    {
      "name": "D#5",
      "midi": 75,
      "time": 69.45393949999963,
      "velocity": 0.3779527559055118,
      "duration": 0.17064849999999865
    },
    {
      "name": "F5",
      "midi": 77,
      "time": 69.62458799999963,
      "velocity": 0.4015748031496063,
      "duration": 0.6825939999999946
    },
    {
      "name": "G#5",
      "midi": 80,
      "time": 70.30718199999963,
      "velocity": 0.4409448818897638,
      "duration": 0.6825939999999946
    },
    {
      "name": "G#4",
      "midi": 68,
      "time": 70.64847899999963,
      "velocity": 0.3858267716535433,
      "duration": 0.3412969999999973
    },
    {
      "name": "F#5",
      "midi": 78,
      "time": 70.98977599999962,
      "velocity": 0.41732283464566927,
      "duration": 0.3412969999999973
    },
    {
      "name": "F5",
      "midi": 77,
      "time": 71.33107299999962,
      "velocity": 0.4015748031496063,
      "duration": 0.3412969999999973
    },
    {
      "name": "D#5",
      "midi": 75,
      "time": 71.67236999999962,
      "velocity": 0.3858267716535433,
      "duration": 0.17064849999999865
    },
    {
      "name": "F5",
      "midi": 77,
      "time": 71.84301849999962,
      "velocity": 0.3700787401574803,
      "duration": 0.04266212500000677
    },
    {
      "name": "D#5",
      "midi": 75,
      "time": 71.88568062499962,
      "velocity": 0.3700787401574803,
      "duration": 0.04266212500000677
    },
    {
      "name": "C#5",
      "midi": 73,
      "time": 71.92834274999963,
      "velocity": 0.3700787401574803,
      "duration": 0.04266212500000677
    },
    {
      "name": "D#5",
      "midi": 75,
      "time": 71.97100487499964,
      "velocity": 0.3700787401574803,
      "duration": 0.04266212500000677
    },
    {
      "name": "F5",
      "midi": 77,
      "time": 72.01366699999964,
      "velocity": 0.4015748031496063,
      "duration": 0.255972749999998
    },
    {
      "name": "C#5",
      "midi": 73,
      "time": 72.26963974999964,
      "velocity": 0.3700787401574803,
      "duration": 0.08532424999999932
    },
    {
      "name": "G#4",
      "midi": 68,
      "time": 72.35496399999964,
      "velocity": 0.3779527559055118,
      "duration": 0.6825939999999946
    },
    {
      "name": "A#4",
      "midi": 70,
      "time": 73.03755799999963,
      "velocity": 0.3779527559055118,
      "duration": 1.3651880000000034
    },
    {
      "name": "B4",
      "midi": 71,
      "time": 74.40274599999964,
      "velocity": 0.33070866141732286,
      "duration": 0.04266212500000677
    },
    {
      "name": "C#5",
      "midi": 73,
      "time": 74.44540812499964,
      "velocity": 0.33070866141732286,
      "duration": 0.04266212500000677
    },
    {
      "name": "B4",
      "midi": 71,
      "time": 74.48807024999965,
      "velocity": 0.36220472440944884,
      "duration": 0.08532424999999932
    },
    {
      "name": "A#4",
      "midi": 70,
      "time": 74.57339449999965,
      "velocity": 0.3543307086614173,
      "duration": 0.17064849999999865
    },
    {
      "name": "D#5",
      "midi": 75,
      "time": 74.74404299999965,
      "velocity": 0.3543307086614173,
      "duration": 0.17064849999999865
    },
    {
      "name": "F5",
      "midi": 77,
      "time": 74.91469149999965,
      "velocity": 0.3779527559055118,
      "duration": 0.17064849999999865
    },
    {
      "name": "F#5",
      "midi": 78,
      "time": 75.08533999999965,
      "velocity": 0.4015748031496063,
      "duration": 0.3412969999999973
    },
    {
      "name": "F5",
      "midi": 77,
      "time": 75.42663699999964,
      "velocity": 0.3937007874015748,
      "duration": 0.3412969999999973
    },
    {
      "name": "D#5",
      "midi": 75,
      "time": 75.76793399999964,
      "velocity": 0.4015748031496063,
      "duration": 0.3412969999999973
    },
    {
      "name": "F5",
      "midi": 77,
      "time": 76.10923099999964,
      "velocity": 0.3858267716535433,
      "duration": 0.3412969999999973
    },
    {
      "name": "C#5",
      "midi": 73,
      "time": 76.45052799999964,
      "velocity": 0.3779527559055118,
      "duration": 0.511945499999996
    },
    {
      "name": "G4",
      "midi": 67,
      "time": 76.96247349999963,
      "velocity": 0.3858267716535433,
      "duration": 0.04266212500000677
    },
    {
      "name": "G#4",
      "midi": 68,
      "time": 77.00513562499964,
      "velocity": 0.3543307086614173,
      "duration": 0.04266212500000677
    },
    {
      "name": "A#4",
      "midi": 70,
      "time": 77.04779774999965,
      "velocity": 0.3543307086614173,
      "duration": 0.04266212500000677
    },
    {
      "name": "G#4",
      "midi": 68,
      "time": 77.09045987499965,
      "velocity": 0.3543307086614173,
      "duration": 0.04266212500000677
    },
    {
      "name": "F5",
      "midi": 77,
      "time": 77.13312199999966,
      "velocity": 0.3937007874015748,
      "duration": 0.511945499999996
    },
    {
      "name": "D#5",
      "midi": 75,
      "time": 77.64506749999966,
      "velocity": 0.3858267716535433,
      "duration": 0.17064849999999865
    },
    {
      "name": "D#5",
      "midi": 75,
      "time": 77.81571599999965,
      "velocity": 0.4094488188976378,
      "duration": 0.6825939999999946
    },
    {
      "name": "C#5",
      "midi": 73,
      "time": 78.49830999999965,
      "velocity": 0.4094488188976378,
      "duration": 0.3412969999999973
    },
    {
      "name": "G#5",
      "midi": 80,
      "time": 79.01025549999964,
      "velocity": 0.47244094488188976,
      "duration": 0.17064849999999865
    },
    {
      "name": "G#4",
      "midi": 68,
      "time": 79.18090399999964,
      "velocity": 0.5118110236220472,
      "duration": 0.6825939999999946
    },
    {
      "name": "A#4",
      "midi": 70,
      "time": 79.86349799999964,
      "velocity": 0.5118110236220472,
      "duration": 0.04266212500000677
    },
    {
      "name": "C5",
      "midi": 72,
      "time": 79.90616012499964,
      "velocity": 0.4645669291338583,
      "duration": 0.04266212500000677
    },
    {
      "name": "A#4",
      "midi": 70,
      "time": 79.94882224999965,
      "velocity": 0.47244094488188976,
      "duration": 0.04266212500000677
    },
    {
      "name": "C5",
      "midi": 72,
      "time": 79.99148437499966,
      "velocity": 0.4645669291338583,
      "duration": 0.04266212500000677
    },
    {
      "name": "A#4",
      "midi": 70,
      "time": 80.03414649999966,
      "velocity": 0.4409448818897638,
      "duration": 0.02844141666666644
    },
    {
      "name": "C5",
      "midi": 72,
      "time": 80.06258791666633,
      "velocity": 0.4409448818897638,
      "duration": 0.02844141666666644
    },
    {
      "name": "A#4",
      "midi": 70,
      "time": 80.091029333333,
      "velocity": 0.4409448818897638,
      "duration": 0.02844141666666644
    },
    {
      "name": "A4",
      "midi": 69,
      "time": 80.11947074999966,
      "velocity": 0.4881889763779528,
      "duration": 0.08532424999999932
    },
    {
      "name": "A#4",
      "midi": 70,
      "time": 80.20479499999966,
      "velocity": 0.5039370078740157,
      "duration": 0.255972749999998
    },
    {
      "name": "C5",
      "midi": 72,
      "time": 80.46076774999966,
      "velocity": 0.4881889763779528,
      "duration": 0.08532424999999932
    },
    {
      "name": "G#4",
      "midi": 68,
      "time": 80.54609199999966,
      "velocity": 0.5196850393700787,
      "duration": 0.17064849999999865
    },
    {
      "name": "C6",
      "midi": 84,
      "time": 80.88738899999966,
      "velocity": 0.5196850393700787,
      "duration": 0.4387088520833373
    },
    {
      "name": "A#5",
      "midi": 82,
      "time": 81.326097852083,
      "velocity": 0.49606299212598426,
      "duration": 0.09741185208334002
    },
    {
      "name": "G#5",
      "midi": 80,
      "time": 81.42350970416634,
      "velocity": 0.4881889763779528,
      "duration": 0.09741185208334002
    },
    {
      "name": "E5",
      "midi": 76,
      "time": 81.52092155624968,
      "velocity": 0.48031496062992124,
      "duration": 0.09741185208334002
    },
    {
      "name": "C#5",
      "midi": 73,
      "time": 81.61833340833302,
      "velocity": 0.4645669291338583,
      "duration": 0.09741185208334002
    },
    {
      "name": "A#4",
      "midi": 70,
      "time": 81.71574526041636,
      "velocity": 0.4566929133858268,
      "duration": 0.14647329583333146
    },
    {
      "name": "G#5",
      "midi": 80,
      "time": 81.86221855624969,
      "velocity": 0.4330708661417323,
      "duration": 0.04906144375000565
    },
    {
      "name": "D#4",
      "midi": 63,
      "time": 81.91127999999969,
      "velocity": 0.5196850393700787,
      "duration": 0.639931875000002
    },
    {
      "name": "C5",
      "midi": 72,
      "time": 82.5512118749997,
      "velocity": 0.4645669291338583,
      "duration": 0.04266212500000677
    },
    {
      "name": "A#4",
      "midi": 70,
      "time": 82.5938739999997,
      "velocity": 0.5039370078740157,
      "duration": 0.255972749999998
    },
    {
      "name": "A4",
      "midi": 69,
      "time": 82.8498467499997,
      "velocity": 0.44881889763779526,
      "duration": 0.08532424999999932
    },
    {
      "name": "A#4",
      "midi": 70,
      "time": 82.9351709999997,
      "velocity": 0.5039370078740157,
      "duration": 0.255972749999998
    },
    {
      "name": "D#5",
      "midi": 75,
      "time": 83.1911437499997,
      "velocity": 0.4881889763779528,
      "duration": 0.08532424999999932
    },
    {
      "name": "G#4",
      "midi": 68,
      "time": 83.2764679999997,
      "velocity": 0.5118110236220472,
      "duration": 0.3412969999999973
    },
    {
      "name": "A#4",
      "midi": 70,
      "time": 83.95906199999969,
      "velocity": 0.30708661417322836,
      "duration": 0.3412969999999973
    },
    {
      "name": "C#5",
      "midi": 73,
      "time": 84.30035899999969,
      "velocity": 0.3464566929133858,
      "duration": 0.11376566666666577
    },
    {
      "name": "C5",
      "midi": 72,
      "time": 84.41412466666635,
      "velocity": 0.30708661417322836,
      "duration": 0.11376566666666577
    },
    {
      "name": "A#4",
      "midi": 70,
      "time": 84.52789033333302,
      "velocity": 0.30708661417322836,
      "duration": 0.11376566666666577
    },
    {
      "name": "G#4",
      "midi": 68,
      "time": 84.64165599999968,
      "velocity": 0.33858267716535434,
      "duration": 0.6825939999999946
    },
    {
      "name": "A#4",
      "midi": 70,
      "time": 85.32424999999968,
      "velocity": 0.36220472440944884,
      "duration": 0.034129699999994045
    },
    {
      "name": "C5",
      "midi": 72,
      "time": 85.35837969999967,
      "velocity": 0.33070866141732286,
      "duration": 0.034129699999994045
    },
    {
      "name": "A#4",
      "midi": 70,
      "time": 85.39250939999967,
      "velocity": 0.33070866141732286,
      "duration": 0.034129699999994045
    },
    {
      "name": "C5",
      "midi": 72,
      "time": 85.42663909999966,
      "velocity": 0.3464566929133858,
      "duration": 0.034129699999994045
    },
    {
      "name": "A#4",
      "midi": 70,
      "time": 85.46076879999966,
      "velocity": 0.33070866141732286,
      "duration": 0.034129699999994045
    },
    {
      "name": "G#4",
      "midi": 68,
      "time": 85.49489849999965,
      "velocity": 0.3228346456692913,
      "duration": 0.17064849999999865
    },
    {
      "name": "C#5",
      "midi": 73,
      "time": 85.66554699999965,
      "velocity": 0.3543307086614173,
      "duration": 0.17064849999999865
    },
    {
      "name": "D#5",
      "midi": 75,
      "time": 85.83619549999965,
      "velocity": 0.3779527559055118,
      "duration": 0.17064849999999865
    },
    {
      "name": "F5",
      "midi": 77,
      "time": 86.00684399999965,
      "velocity": 0.4015748031496063,
      "duration": 0.6825939999999946
    },
    {
      "name": "G#5",
      "midi": 80,
      "time": 86.68943799999964,
      "velocity": 0.4409448818897638,
      "duration": 0.6825939999999946
    },
    {
      "name": "G#4",
      "midi": 68,
      "time": 87.03073499999964,
      "velocity": 0.3858267716535433,
      "duration": 0.3412969999999973
    },
    {
      "name": "F#5",
      "midi": 78,
      "time": 87.37203199999963,
      "velocity": 0.41732283464566927,
      "duration": 0.3412969999999973
    },
    {
      "name": "F5",
      "midi": 77,
      "time": 87.71332899999963,
      "velocity": 0.4015748031496063,
      "duration": 0.3412969999999973
    },
    {
      "name": "D#5",
      "midi": 75,
      "time": 88.05462599999963,
      "velocity": 0.3858267716535433,
      "duration": 0.17064849999999865
    },
    {
      "name": "F5",
      "midi": 77,
      "time": 88.22527449999963,
      "velocity": 0.3700787401574803,
      "duration": 0.04266212500000677
    },
    {
      "name": "D#5",
      "midi": 75,
      "time": 88.26793662499963,
      "velocity": 0.3700787401574803,
      "duration": 0.04266212500000677
    },
    {
      "name": "C#5",
      "midi": 73,
      "time": 88.31059874999964,
      "velocity": 0.3700787401574803,
      "duration": 0.04266212500000677
    },
    {
      "name": "D#5",
      "midi": 75,
      "time": 88.35326087499965,
      "velocity": 0.3700787401574803,
      "duration": 0.04266212500000677
    },
    {
      "name": "F5",
      "midi": 77,
      "time": 88.39592299999966,
      "velocity": 0.4015748031496063,
      "duration": 0.17064849999999865
    },
    {
      "name": "C#5",
      "midi": 73,
      "time": 88.56657149999965,
      "velocity": 0.3700787401574803,
      "duration": 0.17064849999999865
    },
    {
      "name": "G#4",
      "midi": 68,
      "time": 88.73721999999965,
      "velocity": 0.3779527559055118,
      "duration": 0.6825939999999946
    },
    {
      "name": "A#4",
      "midi": 70,
      "time": 89.41981399999965,
      "velocity": 0.3779527559055118,
      "duration": 1.3651880000000034
    },
    {
      "name": "B4",
      "midi": 71,
      "time": 90.78500199999965,
      "velocity": 0.3543307086614173,
      "duration": 0.034129699999994045
    },
    {
      "name": "C#5",
      "midi": 73,
      "time": 90.81913169999964,
      "velocity": 0.33070866141732286,
      "duration": 0.034129699999994045
    },
    {
      "name": "B4",
      "midi": 71,
      "time": 90.85326139999964,
      "velocity": 0.3228346456692913,
      "duration": 0.034129699999994045
    },
    {
      "name": "C#5",
      "midi": 73,
      "time": 90.88739109999963,
      "velocity": 0.33070866141732286,
      "duration": 0.034129699999994045
    },
    {
      "name": "B4",
      "midi": 71,
      "time": 90.9243649416663,
      "velocity": 0.33070866141732286,
      "duration": 0.034129700000008256
    },
    {
      "name": "A#4",
      "midi": 70,
      "time": 90.95565049999963,
      "velocity": 0.3543307086614173,
      "duration": 0.17064849999999865
    },
    {
      "name": "D#5",
      "midi": 75,
      "time": 91.12629899999963,
      "velocity": 0.3543307086614173,
      "duration": 0.17064849999999865
    },
    {
      "name": "F5",
      "midi": 77,
      "time": 91.29694749999963,
      "velocity": 0.3779527559055118,
      "duration": 0.17064849999999865
    },
    {
      "name": "F#5",
      "midi": 78,
      "time": 91.46759599999963,
      "velocity": 0.4015748031496063,
      "duration": 0.3412969999999973
    },
    {
      "name": "F5",
      "midi": 77,
      "time": 91.80889299999963,
      "velocity": 0.3937007874015748,
      "duration": 0.3412969999999973
    },
    {
      "name": "D#5",
      "midi": 75,
      "time": 92.15018999999963,
      "velocity": 0.4015748031496063,
      "duration": 0.3412969999999973
    },
    {
      "name": "F5",
      "midi": 77,
      "time": 92.49148699999962,
      "velocity": 0.3858267716535433,
      "duration": 0.3412969999999973
    },
    {
      "name": "C#5",
      "midi": 73,
      "time": 92.83278399999962,
      "velocity": 0.3779527559055118,
      "duration": 0.511945499999996
    },
    {
      "name": "G4",
      "midi": 67,
      "time": 93.34472949999962,
      "velocity": 0.3858267716535433,
      "duration": 0.04266212500000677
    },
    {
      "name": "G#4",
      "midi": 68,
      "time": 93.38739162499962,
      "velocity": 0.3543307086614173,
      "duration": 0.04266212500000677
    },
    {
      "name": "A#4",
      "midi": 70,
      "time": 93.43005374999963,
      "velocity": 0.3543307086614173,
      "duration": 0.04266212500000677
    },
    {
      "name": "G#4",
      "midi": 68,
      "time": 93.47271587499964,
      "velocity": 0.3543307086614173,
      "duration": 0.04266212500000677
    },
    {
      "name": "F5",
      "midi": 77,
      "time": 93.51537799999964,
      "velocity": 0.3937007874015748,
      "duration": 0.511945499999996
    },
    {
      "name": "D#5",
      "midi": 75,
      "time": 94.02732349999964,
      "velocity": 0.3858267716535433,
      "duration": 0.17064849999999865
    },
    {
      "name": "D#5",
      "midi": 75,
      "time": 94.19797199999964,
      "velocity": 0.4094488188976378,
      "duration": 0.6825939999999946
    },
    {
      "name": "C#5",
      "midi": 73,
      "time": 94.88056599999963,
      "velocity": 0.4094488188976378,
      "duration": 0.3412969999999973
    },
    {
      "name": "G#5",
      "midi": 80,
      "time": 95.39251149999963,
      "velocity": 0.47244094488188976,
      "duration": 0.17064849999999865
    },
    {
      "name": "G#4",
      "midi": 68,
      "time": 95.56315999999963,
      "velocity": 0.5118110236220472,
      "duration": 0.6825939999999946
    },
    {
      "name": "A#4",
      "midi": 70,
      "time": 96.24575399999962,
      "velocity": 0.5118110236220472,
      "duration": 0.04266212500000677
    },
    {
      "name": "C5",
      "midi": 72,
      "time": 96.28841612499963,
      "velocity": 0.4645669291338583,
      "duration": 0.04266212500000677
    },
    {
      "name": "A#4",
      "midi": 70,
      "time": 96.33107824999963,
      "velocity": 0.47244094488188976,
      "duration": 0.04266212500000677
    },
    {
      "name": "C5",
      "midi": 72,
      "time": 96.37374037499964,
      "velocity": 0.4645669291338583,
      "duration": 0.04266212500000677
    },
    {
      "name": "A#4",
      "midi": 70,
      "time": 96.41640249999965,
      "velocity": 0.4409448818897638,
      "duration": 0.02844141666666644
    },
    {
      "name": "C5",
      "midi": 72,
      "time": 96.44484391666631,
      "velocity": 0.4409448818897638,
      "duration": 0.02844141666666644
    },
    {
      "name": "A#4",
      "midi": 70,
      "time": 96.47328533333298,
      "velocity": 0.4409448818897638,
      "duration": 0.02844141666666644
    },
    {
      "name": "A4",
      "midi": 69,
      "time": 96.50172674999965,
      "velocity": 0.4881889763779528,
      "duration": 0.08532424999999932
    },
    {
      "name": "A#4",
      "midi": 70,
      "time": 96.58705099999965,
      "velocity": 0.5039370078740157,
      "duration": 0.255972749999998
    },
    {
      "name": "C5",
      "midi": 72,
      "time": 96.84302374999965,
      "velocity": 0.4881889763779528,
      "duration": 0.08532424999999932
    },
    {
      "name": "G#4",
      "midi": 68,
      "time": 96.92834799999964,
      "velocity": 0.5196850393700787,
      "duration": 0.17064849999999865
    },
    {
      "name": "C6",
      "midi": 84,
      "time": 97.26964499999964,
      "velocity": 0.5196850393700787,
      "duration": 0.4387088520833373
    },
    {
      "name": "A#5",
      "midi": 82,
      "time": 97.70835385208298,
      "velocity": 0.49606299212598426,
      "duration": 0.09741185208334002
    },
    {
      "name": "G#5",
      "midi": 80,
      "time": 97.80576570416632,
      "velocity": 0.4881889763779528,
      "duration": 0.09741185208334002
    },
    {
      "name": "E5",
      "midi": 76,
      "time": 97.90317755624966,
      "velocity": 0.48031496062992124,
      "duration": 0.09741185208334002
    },
    {
      "name": "C#5",
      "midi": 73,
      "time": 98.000589408333,
      "velocity": 0.4645669291338583,
      "duration": 0.09741185208334002
    },
    {
      "name": "A#4",
      "midi": 70,
      "time": 98.09800126041634,
      "velocity": 0.4566929133858268,
      "duration": 0.14647329583333146
    },
    {
      "name": "G#5",
      "midi": 80,
      "time": 98.24447455624967,
      "velocity": 0.4330708661417323,
      "duration": 0.04906144375000565
    },
    {
      "name": "D#4",
      "midi": 63,
      "time": 98.29353599999968,
      "velocity": 0.5196850393700787,
      "duration": 0.639931875000002
    },
    {
      "name": "C5",
      "midi": 72,
      "time": 98.93346787499968,
      "velocity": 0.4645669291338583,
      "duration": 0.04266212500000677
    },
    {
      "name": "A#4",
      "midi": 70,
      "time": 98.97612999999969,
      "velocity": 0.5039370078740157,
      "duration": 0.255972749999998
    },
    {
      "name": "A4",
      "midi": 69,
      "time": 99.23210274999968,
      "velocity": 0.44881889763779526,
      "duration": 0.08532424999999932
    },
    {
      "name": "A#4",
      "midi": 70,
      "time": 99.31742699999968,
      "velocity": 0.5039370078740157,
      "duration": 0.255972749999998
    },
    {
      "name": "D#5",
      "midi": 75,
      "time": 99.57339974999968,
      "velocity": 0.4881889763779528,
      "duration": 0.08532424999999932
    },
    {
      "name": "G#4",
      "midi": 68,
      "time": 99.65872399999968,
      "velocity": 0.5118110236220472,
      "duration": 0.3412969999999973
    },
    {
      "name": "A#4",
      "midi": 70,
      "time": 100.34131799999967,
      "velocity": 0.30708661417322836,
      "duration": 0.3412969999999973
    },
    {
      "name": "C#5",
      "midi": 73,
      "time": 100.68261499999967,
      "velocity": 0.3464566929133858,
      "duration": 0.11376566666666577
    },
    {
      "name": "C5",
      "midi": 72,
      "time": 100.79638066666634,
      "velocity": 0.30708661417322836,
      "duration": 0.11376566666666577
    },
    {
      "name": "A#4",
      "midi": 70,
      "time": 100.910146333333,
      "velocity": 0.30708661417322836,
      "duration": 0.11376566666666577
    },
    {
      "name": "G#4",
      "midi": 68,
      "time": 101.02391199999967,
      "velocity": 0.33858267716535434,
      "duration": 0.6825939999999946
    },
    {
      "name": "A#4",
      "midi": 70,
      "time": 101.70650599999966,
      "velocity": 0.3700787401574803,
      "duration": 0.034129699999994045
    },
    {
      "name": "C5",
      "midi": 72,
      "time": 101.74063569999966,
      "velocity": 0.33858267716535434,
      "duration": 0.034129699999994045
    },
    {
      "name": "A#4",
      "midi": 70,
      "time": 101.77476539999965,
      "velocity": 0.33858267716535434,
      "duration": 0.034129699999994045
    },
    {
      "name": "C5",
      "midi": 72,
      "time": 101.80889509999965,
      "velocity": 0.33858267716535434,
      "duration": 0.034129699999994045
    },
    {
      "name": "A#4",
      "midi": 70,
      "time": 101.84302479999964,
      "velocity": 0.33858267716535434,
      "duration": 0.034129699999994045
    },
    {
      "name": "G#4",
      "midi": 68,
      "time": 101.87715449999963,
      "velocity": 0.3543307086614173,
      "duration": 0.17064849999999865
    },
    {
      "name": "C#5",
      "midi": 73,
      "time": 102.04780299999963,
      "velocity": 0.3543307086614173,
      "duration": 0.17064849999999865
    },
    {
      "name": "D#5",
      "midi": 75,
      "time": 102.21845149999963,
      "velocity": 0.3779527559055118,
      "duration": 0.17064849999999865
    },
    {
      "name": "F5",
      "midi": 77,
      "time": 102.38909999999963,
      "velocity": 0.4015748031496063,
      "duration": 0.6825939999999946
    },
    {
      "name": "G#5",
      "midi": 80,
      "time": 103.07169399999962,
      "velocity": 0.4409448818897638,
      "duration": 0.6825939999999946
    },
    {
      "name": "G#4",
      "midi": 68,
      "time": 103.41299099999962,
      "velocity": 0.3858267716535433,
      "duration": 0.3412969999999973
    },
    {
      "name": "F#5",
      "midi": 78,
      "time": 103.75428799999962,
      "velocity": 0.41732283464566927,
      "duration": 0.3412969999999973
    },
    {
      "name": "F5",
      "midi": 77,
      "time": 104.09558499999962,
      "velocity": 0.4015748031496063,
      "duration": 0.3412969999999973
    },
    {
      "name": "D#5",
      "midi": 75,
      "time": 104.43688199999961,
      "velocity": 0.3858267716535433,
      "duration": 0.17064849999999865
    },
    {
      "name": "F5",
      "midi": 77,
      "time": 104.60753049999961,
      "velocity": 0.3700787401574803,
      "duration": 0.04266212500000677
    },
    {
      "name": "D#5",
      "midi": 75,
      "time": 104.65019262499962,
      "velocity": 0.3700787401574803,
      "duration": 0.04266212500000677
    },
    {
      "name": "C#5",
      "midi": 73,
      "time": 104.69285474999963,
      "velocity": 0.3700787401574803,
      "duration": 0.04266212500000677
    },
    {
      "name": "D#5",
      "midi": 75,
      "time": 104.73551687499963,
      "velocity": 0.3700787401574803,
      "duration": 0.04266212500000677
    },
    {
      "name": "F5",
      "midi": 77,
      "time": 104.77817899999964,
      "velocity": 0.4015748031496063,
      "duration": 0.17064849999999865
    },
    {
      "name": "C#5",
      "midi": 73,
      "time": 104.94882749999964,
      "velocity": 0.3700787401574803,
      "duration": 0.17064849999999865
    },
    {
      "name": "G#4",
      "midi": 68,
      "time": 105.11947599999964,
      "velocity": 0.3779527559055118,
      "duration": 0.6825939999999946
    },
    {
      "name": "A#4",
      "midi": 70,
      "time": 105.80206999999963,
      "velocity": 0.3779527559055118,
      "duration": 1.3651880000000034
    },
    {
      "name": "B4",
      "midi": 71,
      "time": 107.16725799999963,
      "velocity": 0.3779527559055118,
      "duration": 0.034129699999994045
    },
    {
      "name": "C#5",
      "midi": 73,
      "time": 107.20138769999963,
      "velocity": 0.33070866141732286,
      "duration": 0.034129699999994045
    },
    {
      "name": "B4",
      "midi": 71,
      "time": 107.23551739999962,
      "velocity": 0.33858267716535434,
      "duration": 0.034129699999994045
    },
    {
      "name": "C#5",
      "midi": 73,
      "time": 107.26964709999962,
      "velocity": 0.33070866141732286,
      "duration": 0.034129699999994045
    },
    {
      "name": "B4",
      "midi": 71,
      "time": 107.30377679999961,
      "velocity": 0.33070866141732286,
      "duration": 0.034129699999994045
    },
    {
      "name": "A#4",
      "midi": 70,
      "time": 107.3379064999996,
      "velocity": 0.3543307086614173,
      "duration": 0.17064849999999865
    },
    {
      "name": "D#5",
      "midi": 75,
      "time": 107.5085549999996,
      "velocity": 0.3543307086614173,
      "duration": 0.17064849999999865
    },
    {
      "name": "F5",
      "midi": 77,
      "time": 107.6792034999996,
      "velocity": 0.3779527559055118,
      "duration": 0.17064849999999865
    },
    {
      "name": "F#5",
      "midi": 78,
      "time": 107.8498519999996,
      "velocity": 0.4015748031496063,
      "duration": 0.3412969999999973
    },
    {
      "name": "F5",
      "midi": 77,
      "time": 108.1911489999996,
      "velocity": 0.3700787401574803,
      "duration": 0.3412969999999973
    },
    {
      "name": "D#5",
      "midi": 75,
      "time": 108.5324459999996,
      "velocity": 0.3858267716535433,
      "duration": 0.3412969999999973
    },
    {
      "name": "F5",
      "midi": 77,
      "time": 108.87374299999959,
      "velocity": 0.3543307086614173,
      "duration": 0.3412969999999973
    },
    {
      "name": "C#5",
      "midi": 73,
      "time": 109.21503999999959,
      "velocity": 0.33858267716535434,
      "duration": 0.511945499999996
    },
    {
      "name": "G4",
      "midi": 67,
      "time": 109.72698549999959,
      "velocity": 0.3464566929133858,
      "duration": 0.04266212500000677
    },
    {
      "name": "G#4",
      "midi": 68,
      "time": 109.76964762499959,
      "velocity": 0.31496062992125984,
      "duration": 0.04266212500000677
    },
    {
      "name": "A#4",
      "midi": 70,
      "time": 109.8123097499996,
      "velocity": 0.31496062992125984,
      "duration": 0.04266212500000677
    },
    {
      "name": "G#4",
      "midi": 68,
      "time": 109.8549718749996,
      "velocity": 0.31496062992125984,
      "duration": 0.04266212500000677
    },
    {
      "name": "F5",
      "midi": 77,
      "time": 109.89763399999961,
      "velocity": 0.3543307086614173,
      "duration": 0.511945499999996
    },
    {
      "name": "D#5",
      "midi": 75,
      "time": 110.40957949999961,
      "velocity": 0.3464566929133858,
      "duration": 0.17064849999999865
    },
    {
      "name": "D#5",
      "midi": 75,
      "time": 110.58022799999961,
      "velocity": 0.3464566929133858,
      "duration": 1.3651880000000034
    },
    {
      "name": "G#4",
      "midi": 68,
      "time": 112.03074024999961,
      "velocity": 0.29133858267716534,
      "duration": 0.08532424999999932
    },
    {
      "name": "A4",
      "midi": 69,
      "time": 112.11606449999961,
      "velocity": 0.3228346456692913,
      "duration": 0.08532424999999932
    },
    {
      "name": "G#4",
      "midi": 68,
      "time": 112.20138874999961,
      "velocity": 0.2992125984251969,
      "duration": 0.08532424999999932
    },
    {
      "name": "G4",
      "midi": 67,
      "time": 112.28671299999961,
      "velocity": 0.30708661417322836,
      "duration": 0.08532424999999932
    },
    {
      "name": "G#4",
      "midi": 68,
      "time": 112.37203724999961,
      "velocity": 0.31496062992125984,
      "duration": 0.08532424999999932
    },
    {
      "name": "C#5",
      "midi": 73,
      "time": 112.4573614999996,
      "velocity": 0.33070866141732286,
      "duration": 0.08532424999999932
    },
    {
      "name": "E5",
      "midi": 76,
      "time": 112.5426857499996,
      "velocity": 0.33858267716535434,
      "duration": 0.08532424999999932
    },
    {
      "name": "D#5",
      "midi": 75,
      "time": 112.6280099999996,
      "velocity": 0.3543307086614173,
      "duration": 0.08532424999999932
    },
    {
      "name": "C#5",
      "midi": 73,
      "time": 112.7133342499996,
      "velocity": 0.33858267716535434,
      "duration": 0.08532424999999932
    },
    {
      "name": "D#5",
      "midi": 75,
      "time": 112.7986584999996,
      "velocity": 0.3543307086614173,
      "duration": 0.08532424999999932
    },
    {
      "name": "C#5",
      "midi": 73,
      "time": 112.8839827499996,
      "velocity": 0.33858267716535434,
      "duration": 0.08532424999999932
    },
    {
      "name": "C5",
      "midi": 72,
      "time": 112.9693069999996,
      "velocity": 0.3464566929133858,
      "duration": 0.08532424999999932
    },
    {
      "name": "C#5",
      "midi": 73,
      "time": 113.0546312499996,
      "velocity": 0.36220472440944884,
      "duration": 0.08532424999999932
    },
    {
      "name": "E5",
      "midi": 76,
      "time": 113.1399554999996,
      "velocity": 0.3858267716535433,
      "duration": 0.08532424999999932
    },
    {
      "name": "G#5",
      "midi": 80,
      "time": 113.2252797499996,
      "velocity": 0.3700787401574803,
      "duration": 0.08532424999999932
    },
    {
      "name": "G#4",
      "midi": 68,
      "time": 113.3959282499996,
      "velocity": 0.3543307086614173,
      "duration": 0.08532424999999932
    },
    {
      "name": "A4",
      "midi": 69,
      "time": 113.4812524999996,
      "velocity": 0.3858267716535433,
      "duration": 0.08532424999999932
    },
    {
      "name": "G#4",
      "midi": 68,
      "time": 113.5665767499996,
      "velocity": 0.3543307086614173,
      "duration": 0.08532424999999932
    },
    {
      "name": "G4",
      "midi": 67,
      "time": 113.6519009999996,
      "velocity": 0.36220472440944884,
      "duration": 0.08532424999999932
    },
    {
      "name": "G#4",
      "midi": 68,
      "time": 113.7372252499996,
      "velocity": 0.3779527559055118,
      "duration": 0.08532424999999932
    },
    {
      "name": "C#5",
      "midi": 73,
      "time": 113.8225494999996,
      "velocity": 0.3937007874015748,
      "duration": 0.08532424999999932
    },
    {
      "name": "E5",
      "midi": 76,
      "time": 113.9078737499996,
      "velocity": 0.4015748031496063,
      "duration": 0.08532424999999932
    },
    {
      "name": "D#5",
      "midi": 75,
      "time": 113.9931979999996,
      "velocity": 0.4251968503937008,
      "duration": 0.08532424999999932
    },
    {
      "name": "C#5",
      "midi": 73,
      "time": 114.0785222499996,
      "velocity": 0.4015748031496063,
      "duration": 0.08532424999999932
    },
    {
      "name": "D#5",
      "midi": 75,
      "time": 114.1638464999996,
      "velocity": 0.41732283464566927,
      "duration": 0.08532424999999932
    },
    {
      "name": "C#5",
      "midi": 73,
      "time": 114.24917074999959,
      "velocity": 0.4015748031496063,
      "duration": 0.08532424999999932
    },
    {
      "name": "C5",
      "midi": 72,
      "time": 114.33449499999959,
      "velocity": 0.4094488188976378,
      "duration": 0.08532424999999932
    },
    {
      "name": "C#5",
      "midi": 73,
      "time": 114.41981924999959,
      "velocity": 0.4251968503937008,
      "duration": 0.08532424999999932
    },
    {
      "name": "E5",
      "midi": 76,
      "time": 114.50514349999959,
      "velocity": 0.44881889763779526,
      "duration": 0.08532424999999932
    },
    {
      "name": "G#5",
      "midi": 80,
      "time": 114.59046774999959,
      "velocity": 0.4330708661417323,
      "duration": 0.08532424999999932
    },
    {
      "name": "A4",
      "midi": 69,
      "time": 114.76111624999959,
      "velocity": 0.4409448818897638,
      "duration": 0.08532424999999932
    },
    {
      "name": "C#5",
      "midi": 73,
      "time": 114.84644049999959,
      "velocity": 0.4566929133858268,
      "duration": 0.08532424999999932
    },
    {
      "name": "D#5",
      "midi": 75,
      "time": 114.93176474999959,
      "velocity": 0.47244094488188976,
      "duration": 0.08532424999999932
    },
    {
      "name": "F#5",
      "midi": 78,
      "time": 115.01708899999959,
      "velocity": 0.49606299212598426,
      "duration": 0.08532424999999932
    },
    {
      "name": "A5",
      "midi": 81,
      "time": 115.10241324999959,
      "velocity": 0.49606299212598426,
      "duration": 0.08532424999999932
    },
    {
      "name": "C#6",
      "midi": 85,
      "time": 115.18773749999959,
      "velocity": 0.5196850393700787,
      "duration": 0.08532424999999932
    },
    {
      "name": "D#6",
      "midi": 87,
      "time": 115.27306174999958,
      "velocity": 0.5669291338582677,
      "duration": 0.08532424999999932
    },
    {
      "name": "B6",
      "midi": 95,
      "time": 115.35838599999958,
      "velocity": 0.5984251968503937,
      "duration": 0.08532424999999932
    },
    {
      "name": "A6",
      "midi": 93,
      "time": 115.44371024999958,
      "velocity": 0.5905511811023622,
      "duration": 0.08532424999999932
    },
    {
      "name": "G#6",
      "midi": 92,
      "time": 115.52903449999958,
      "velocity": 0.5511811023622047,
      "duration": 0.08532424999999932
    },
    {
      "name": "F#6",
      "midi": 90,
      "time": 115.61435874999958,
      "velocity": 0.5433070866141733,
      "duration": 0.08532424999999932
    },
    {
      "name": "E6",
      "midi": 88,
      "time": 115.69968299999958,
      "velocity": 0.5354330708661418,
      "duration": 0.08532424999999932
    },
    {
      "name": "D#6",
      "midi": 87,
      "time": 115.78500724999958,
      "velocity": 0.5275590551181102,
      "duration": 0.08532424999999932
    },
    {
      "name": "F#6",
      "midi": 90,
      "time": 115.87033149999958,
      "velocity": 0.5196850393700787,
      "duration": 0.08532424999999932
    },
    {
      "name": "C#6",
      "midi": 85,
      "time": 115.95565574999958,
      "velocity": 0.5275590551181102,
      "duration": 0.08532424999999932
    },
    {
      "name": "C6",
      "midi": 84,
      "time": 116.04097999999958,
      "velocity": 0.5354330708661418,
      "duration": 0.08532424999999932
    },
    {
      "name": "D#6",
      "midi": 87,
      "time": 116.12630424999958,
      "velocity": 0.49606299212598426,
      "duration": 0.08532424999999932
    },
    {
      "name": "A5",
      "midi": 81,
      "time": 116.21162849999958,
      "velocity": 0.49606299212598426,
      "duration": 0.08532424999999932
    },
    {
      "name": "G#5",
      "midi": 80,
      "time": 116.29695274999958,
      "velocity": 0.49606299212598426,
      "duration": 0.08532424999999932
    },
    {
      "name": "F#5",
      "midi": 78,
      "time": 116.38227699999958,
      "velocity": 0.47244094488188976,
      "duration": 0.08532424999999932
    },
    {
      "name": "A5",
      "midi": 81,
      "time": 116.46760124999957,
      "velocity": 0.4566929133858268,
      "duration": 0.08532424999999932
    },
    {
      "name": "E5",
      "midi": 76,
      "time": 116.55292549999957,
      "velocity": 0.4251968503937008,
      "duration": 0.08532424999999932
    },
    {
      "name": "D#5",
      "midi": 75,
      "time": 116.63824974999957,
      "velocity": 0.4251968503937008,
      "duration": 0.08532424999999932
    },
    {
      "name": "F#5",
      "midi": 78,
      "time": 116.72357399999957,
      "velocity": 0.41732283464566927,
      "duration": 0.08532424999999932
    },
    {
      "name": "C#5",
      "midi": 73,
      "time": 116.80889824999957,
      "velocity": 0.3779527559055118,
      "duration": 0.08532424999999932
    },
    {
      "name": "C5",
      "midi": 72,
      "time": 116.89422249999957,
      "velocity": 0.3779527559055118,
      "duration": 0.08532424999999932
    },
    {
      "name": "D#5",
      "midi": 75,
      "time": 116.97954674999957,
      "velocity": 0.3700787401574803,
      "duration": 0.08532424999999932
    },
    {
      "name": "A4",
      "midi": 69,
      "time": 117.06487099999957,
      "velocity": 0.3543307086614173,
      "duration": 0.08532424999999932
    },
    {
      "name": "G#4",
      "midi": 68,
      "time": 117.15019524999957,
      "velocity": 0.33070866141732286,
      "duration": 0.08532424999999932
    },
    {
      "name": "B4",
      "midi": 71,
      "time": 117.23551949999957,
      "velocity": 0.33070866141732286,
      "duration": 0.08532424999999932
    },
    {
      "name": "A4",
      "midi": 69,
      "time": 117.32084374999957,
      "velocity": 0.3228346456692913,
      "duration": 0.17064849999999865
    },
    {
      "name": "G#4",
      "midi": 68,
      "time": 117.49149224999957,
      "velocity": 0.29133858267716534,
      "duration": 0.08532424999999932
    },
    {
      "name": "A4",
      "midi": 69,
      "time": 117.57681649999957,
      "velocity": 0.3228346456692913,
      "duration": 0.08532424999999932
    },
    {
      "name": "G#4",
      "midi": 68,
      "time": 117.66214074999957,
      "velocity": 0.2992125984251969,
      "duration": 0.08532424999999932
    },
    {
      "name": "G4",
      "midi": 67,
      "time": 117.74746499999956,
      "velocity": 0.30708661417322836,
      "duration": 0.08532424999999932
    },
    {
      "name": "G#4",
      "midi": 68,
      "time": 117.83278924999956,
      "velocity": 0.31496062992125984,
      "duration": 0.08532424999999932
    },
    {
      "name": "C#5",
      "midi": 73,
      "time": 117.91811349999956,
      "velocity": 0.33070866141732286,
      "duration": 0.08532424999999932
    },
    {
      "name": "E5",
      "midi": 76,
      "time": 118.00343774999956,
      "velocity": 0.33858267716535434,
      "duration": 0.08532424999999932
    },
    {
      "name": "D#5",
      "midi": 75,
      "time": 118.08876199999956,
      "velocity": 0.3543307086614173,
      "duration": 0.08532424999999932
    },
    {
      "name": "C#5",
      "midi": 73,
      "time": 118.17408624999956,
      "velocity": 0.33858267716535434,
      "duration": 0.08532424999999932
    },
    {
      "name": "D#5",
      "midi": 75,
      "time": 118.25941049999956,
      "velocity": 0.3543307086614173,
      "duration": 0.08532424999999932
    },
    {
      "name": "C#5",
      "midi": 73,
      "time": 118.34473474999956,
      "velocity": 0.33858267716535434,
      "duration": 0.08532424999999932
    },
    {
      "name": "C5",
      "midi": 72,
      "time": 118.43005899999956,
      "velocity": 0.3464566929133858,
      "duration": 0.08532424999999932
    },
    {
      "name": "C#5",
      "midi": 73,
      "time": 118.51538324999956,
      "velocity": 0.36220472440944884,
      "duration": 0.08532424999999932
    },
    {
      "name": "E5",
      "midi": 76,
      "time": 118.60070749999956,
      "velocity": 0.3858267716535433,
      "duration": 0.08532424999999932
    },
    {
      "name": "G#5",
      "midi": 80,
      "time": 118.68603174999956,
      "velocity": 0.3700787401574803,
      "duration": 0.08532424999999932
    },
    {
      "name": "G#4",
      "midi": 68,
      "time": 118.85668024999956,
      "velocity": 0.3543307086614173,
      "duration": 0.08532424999999932
    },
    {
      "name": "A#4",
      "midi": 70,
      "time": 118.94200449999956,
      "velocity": 0.3858267716535433,
      "duration": 0.08532424999999932
    },
    {
      "name": "G#4",
      "midi": 68,
      "time": 119.02732874999955,
      "velocity": 0.3543307086614173,
      "duration": 0.08532424999999932
    },
    {
      "name": "G4",
      "midi": 67,
      "time": 119.11265299999955,
      "velocity": 0.36220472440944884,
      "duration": 0.08532424999999932
    },
    {
      "name": "G#4",
      "midi": 68,
      "time": 119.19797724999955,
      "velocity": 0.3779527559055118,
      "duration": 0.08532424999999932
    },
    {
      "name": "C#5",
      "midi": 73,
      "time": 119.28330149999955,
      "velocity": 0.3937007874015748,
      "duration": 0.08532424999999932
    },
    {
      "name": "E5",
      "midi": 76,
      "time": 119.36862574999955,
      "velocity": 0.4015748031496063,
      "duration": 0.08532424999999932
    },
    {
      "name": "D#5",
      "midi": 75,
      "time": 119.45394999999955,
      "velocity": 0.4251968503937008,
      "duration": 0.08532424999999932
    },
    {
      "name": "C#5",
      "midi": 73,
      "time": 119.53927424999955,
      "velocity": 0.4015748031496063,
      "duration": 0.08532424999999932
    },
    {
      "name": "D#5",
      "midi": 75,
      "time": 119.62459849999955,
      "velocity": 0.41732283464566927,
      "duration": 0.08532424999999932
    },
    {
      "name": "C#5",
      "midi": 73,
      "time": 119.70992274999955,
      "velocity": 0.4015748031496063,
      "duration": 0.08532424999999932
    },
    {
      "name": "C5",
      "midi": 72,
      "time": 119.79524699999955,
      "velocity": 0.4094488188976378,
      "duration": 0.08532424999999932
    },
    {
      "name": "C#5",
      "midi": 73,
      "time": 119.88057124999955,
      "velocity": 0.4251968503937008,
      "duration": 0.08532424999999932
    },
    {
      "name": "E5",
      "midi": 76,
      "time": 119.96589549999955,
      "velocity": 0.44881889763779526,
      "duration": 0.08532424999999932
    },
    {
      "name": "G#5",
      "midi": 80,
      "time": 120.05121974999955,
      "velocity": 0.4330708661417323,
      "duration": 0.08532424999999932
    },
    {
      "name": "D#5",
      "midi": 75,
      "time": 120.13654399999955,
      "velocity": 0.5039370078740157,
      "duration": 0.08532424999999932
    },
    {
      "name": "E5",
      "midi": 76,
      "time": 120.22186824999955,
      "velocity": 0.4566929133858268,
      "duration": 0.08532424999999932
    },
    {
      "name": "D#5",
      "midi": 75,
      "time": 120.30719249999954,
      "velocity": 0.48031496062992124,
      "duration": 0.08532424999999932
    },
    {
      "name": "D5",
      "midi": 74,
      "time": 120.39251674999954,
      "velocity": 0.3937007874015748,
      "duration": 0.08532424999999932
    },
    {
      "name": "D#5",
      "midi": 75,
      "time": 120.47784099999954,
      "velocity": 0.4409448818897638,
      "duration": 0.08532424999999932
    },
    {
      "name": "B5",
      "midi": 83,
      "time": 120.56316524999954,
      "velocity": 0.5354330708661418,
      "duration": 0.08532424999999932
    },
    {
      "name": "A#5",
      "midi": 82,
      "time": 120.64848949999954,
      "velocity": 0.4881889763779528,
      "duration": 0.08532424999999932
    },
    {
      "name": "G#5",
      "midi": 80,
      "time": 120.73381374999954,
      "velocity": 0.5118110236220472,
      "duration": 0.08532424999999932
    },
    {
      "name": "G5",
      "midi": 79,
      "time": 120.81913799999954,
      "velocity": 0.5354330708661418,
      "duration": 0.08532424999999932
    },
    {
      "name": "E6",
      "midi": 88,
      "time": 120.90446224999954,
      "velocity": 0.5669291338582677,
      "duration": 0.08532424999999932
    },
    {
      "name": "D#6",
      "midi": 87,
      "time": 120.98978649999954,
      "velocity": 0.5433070866141733,
      "duration": 0.08532424999999932
    },
    {
      "name": "C#6",
      "midi": 85,
      "time": 121.07511074999954,
      "velocity": 0.5433070866141733,
      "duration": 0.08532424999999932
    },
    {
      "name": "B5",
      "midi": 83,
      "time": 121.16043499999954,
      "velocity": 0.5826771653543307,
      "duration": 0.08532424999999932
    },
    {
      "name": "A#5",
      "midi": 82,
      "time": 121.24575924999954,
      "velocity": 0.5433070866141733,
      "duration": 0.08532424999999932
    },
    {
      "name": "G#5",
      "midi": 80,
      "time": 121.33108349999954,
      "velocity": 0.5433070866141733,
      "duration": 0.08532424999999932
    },
    {
      "name": "G5",
      "midi": 79,
      "time": 121.41640774999954,
      "velocity": 0.5433070866141733,
      "duration": 0.08532424999999932
    },
    {
      "name": "A#5",
      "midi": 82,
      "time": 121.50173199999954,
      "velocity": 0.5669291338582677,
      "duration": 0.08532424999999932
    },
    {
      "name": "G#5",
      "midi": 80,
      "time": 121.58705624999953,
      "velocity": 0.5511811023622047,
      "duration": 0.08532424999999932
    },
    {
      "name": "B5",
      "midi": 83,
      "time": 121.67238049999953,
      "velocity": 0.5039370078740157,
      "duration": 0.08532424999999932
    },
    {
      "name": "D5",
      "midi": 74,
      "time": 121.75770474999953,
      "velocity": 0.44881889763779526,
      "duration": 0.08532424999999932
    },
    {
      "name": "E5",
      "midi": 76,
      "time": 121.84302899999953,
      "velocity": 0.5118110236220472,
      "duration": 0.08532424999999932
    },
    {
      "name": "D#5",
      "midi": 75,
      "time": 121.92835324999953,
      "velocity": 0.44881889763779526,
      "duration": 0.08532424999999932
    },
    {
      "name": "G#5",
      "midi": 80,
      "time": 122.01367749999953,
      "velocity": 0.49606299212598426,
      "duration": 0.08532424999999932
    },
    {
      "name": "A#4",
      "midi": 70,
      "time": 122.09900174999953,
      "velocity": 0.44881889763779526,
      "duration": 0.08532424999999932
    },
    {
      "name": "C#5",
      "midi": 73,
      "time": 122.18432599999953,
      "velocity": 0.48031496062992124,
      "duration": 0.08532424999999932
    },
    {
      "name": "B4",
      "midi": 71,
      "time": 122.26965024999953,
      "velocity": 0.4645669291338583,
      "duration": 0.08532424999999932
    },
    {
      "name": "D#5",
      "midi": 75,
      "time": 122.35497449999953,
      "velocity": 0.4566929133858268,
      "duration": 0.08532424999999932
    },
    {
      "name": "G4",
      "midi": 67,
      "time": 122.44029874999953,
      "velocity": 0.4409448818897638,
      "duration": 0.08532424999999932
    },
    {
      "name": "A#4",
      "midi": 70,
      "time": 122.52562299999953,
      "velocity": 0.47244094488188976,
      "duration": 0.08532424999999932
    },
    {
      "name": "G#4",
      "midi": 68,
      "time": 122.61094724999953,
      "velocity": 0.4015748031496063,
      "duration": 0.08532424999999932
    },
    {
      "name": "G4",
      "midi": 67,
      "time": 122.69627149999953,
      "velocity": 0.4330708661417323,
      "duration": 0.08532424999999932
    },
    {
      "name": "G#4",
      "midi": 68,
      "time": 122.78159574999952,
      "velocity": 0.3937007874015748,
      "duration": 0.08532424999999932
    },
    {
      "name": "G#4",
      "midi": 68,
      "time": 122.86691999999952,
      "velocity": 0.5669291338582677,
      "duration": 0.08532424999999932
    },
    {
      "name": "G#5",
      "midi": 80,
      "time": 122.95224424999952,
      "velocity": 0.4566929133858268,
      "duration": 0.08532424999999932
    },
    {
      "name": "C5",
      "midi": 72,
      "time": 123.03756849999952,
      "velocity": 0.4645669291338583,
      "duration": 0.08532424999999932
    },
    {
      "name": "C#5",
      "midi": 73,
      "time": 123.12289274999952,
      "velocity": 0.4645669291338583,
      "duration": 0.08532424999999932
    },
    {
      "name": "F#4",
      "midi": 66,
      "time": 123.20821699999952,
      "velocity": 0.5590551181102362,
      "duration": 0.08532424999999932
    },
    {
      "name": "F#5",
      "midi": 78,
      "time": 123.29354124999952,
      "velocity": 0.47244094488188976,
      "duration": 0.08532424999999932
    },
    {
      "name": "C5",
      "midi": 72,
      "time": 123.37886549999952,
      "velocity": 0.47244094488188976,
      "duration": 0.08532424999999932
    },
    {
      "name": "C#5",
      "midi": 73,
      "time": 123.46418974999952,
      "velocity": 0.48031496062992124,
      "duration": 0.08532424999999932
    },
    {
      "name": "F4",
      "midi": 65,
      "time": 123.54951399999952,
      "velocity": 0.5905511811023622,
      "duration": 0.08532424999999932
    },
    {
      "name": "F5",
      "midi": 77,
      "time": 123.63483824999952,
      "velocity": 0.4881889763779528,
      "duration": 0.08532424999999932
    },
    {
      "name": "C5",
      "midi": 72,
      "time": 123.72016249999952,
      "velocity": 0.49606299212598426,
      "duration": 0.08532424999999932
    },
    {
      "name": "C#5",
      "midi": 73,
      "time": 123.80548674999952,
      "velocity": 0.49606299212598426,
      "duration": 0.08532424999999932
    },
    {
      "name": "F#4",
      "midi": 66,
      "time": 123.89081099999952,
      "velocity": 0.5826771653543307,
      "duration": 0.08532424999999932
    },
    {
      "name": "F#5",
      "midi": 78,
      "time": 123.97613524999952,
      "velocity": 0.5118110236220472,
      "duration": 0.08532424999999932
    },
    {
      "name": "C5",
      "midi": 72,
      "time": 124.06145949999951,
      "velocity": 0.5039370078740157,
      "duration": 0.08532424999999932
    },
    {
      "name": "C#5",
      "midi": 73,
      "time": 124.14678374999951,
      "velocity": 0.5039370078740157,
      "duration": 0.08532424999999932
    },
    {
      "name": "C#4",
      "midi": 61,
      "time": 124.23210799999951,
      "velocity": 0.6062992125984252,
      "duration": 0.08532424999999932
    },
    {
      "name": "C#5",
      "midi": 73,
      "time": 124.31743224999951,
      "velocity": 0.5118110236220472,
      "duration": 0.08532424999999932
    },
    {
      "name": "F#4",
      "midi": 66,
      "time": 124.40275649999951,
      "velocity": 0.5118110236220472,
      "duration": 0.08532424999999932
    },
    {
      "name": "A4",
      "midi": 69,
      "time": 124.48808074999951,
      "velocity": 0.5118110236220472,
      "duration": 0.08532424999999932
    },
    {
      "name": "D#4",
      "midi": 63,
      "time": 124.57340499999951,
      "velocity": 0.5905511811023622,
      "duration": 0.08532424999999932
    },
    {
      "name": "D#5",
      "midi": 75,
      "time": 124.65872924999951,
      "velocity": 0.5118110236220472,
      "duration": 0.08532424999999932
    },
    {
      "name": "F#4",
      "midi": 66,
      "time": 124.74405349999951,
      "velocity": 0.5118110236220472,
      "duration": 0.08532424999999932
    },
    {
      "name": "A4",
      "midi": 69,
      "time": 124.82937774999951,
      "velocity": 0.5118110236220472,
      "duration": 0.08532424999999932
    },
    {
      "name": "E4",
      "midi": 64,
      "time": 124.91470199999951,
      "velocity": 0.6220472440944882,
      "duration": 0.08532424999999932
    },
    {
      "name": "E5",
      "midi": 76,
      "time": 125.00002624999951,
      "velocity": 0.5196850393700787,
      "duration": 0.08532424999999932
    },
    {
      "name": "G#4",
      "midi": 68,
      "time": 125.0853504999995,
      "velocity": 0.5196850393700787,
      "duration": 0.08532424999999932
    },
    {
      "name": "B4",
      "midi": 71,
      "time": 125.1706747499995,
      "velocity": 0.5196850393700787,
      "duration": 0.08532424999999932
    },
    {
      "name": "G#4",
      "midi": 68,
      "time": 125.2559989999995,
      "velocity": 0.6062992125984252,
      "duration": 0.08532424999999932
    },
    {
      "name": "G#5",
      "midi": 80,
      "time": 125.3413232499995,
      "velocity": 0.5275590551181102,
      "duration": 0.08532424999999932
    },
    {
      "name": "B4",
      "midi": 71,
      "time": 125.4266474999995,
      "velocity": 0.5196850393700787,
      "duration": 0.08532424999999932
    },
    {
      "name": "E5",
      "midi": 76,
      "time": 125.5119717499995,
      "velocity": 0.5118110236220472,
      "duration": 0.08532424999999932
    },
    {
      "name": "G#4",
      "midi": 68,
      "time": 125.5972959999995,
      "velocity": 0.6377952755905512,
      "duration": 0.08532424999999932
    },
    {
      "name": "G#5",
      "midi": 80,
      "time": 125.6826202499995,
      "velocity": 0.5118110236220472,
      "duration": 0.08532424999999932
    },
    {
      "name": "C5",
      "midi": 72,
      "time": 125.7679444999995,
      "velocity": 0.5118110236220472,
      "duration": 0.08532424999999932
    },
    {
      "name": "C#5",
      "midi": 73,
      "time": 125.8532687499995,
      "velocity": 0.5118110236220472,
      "duration": 0.08532424999999932
    },
    {
      "name": "F#4",
      "midi": 66,
      "time": 125.9385929999995,
      "velocity": 0.6141732283464567,
      "duration": 0.08532424999999932
    },
    {
      "name": "F#5",
      "midi": 78,
      "time": 126.0239172499995,
      "velocity": 0.5118110236220472,
      "duration": 0.08532424999999932
    },
    {
      "name": "C5",
      "midi": 72,
      "time": 126.1092414999995,
      "velocity": 0.5118110236220472,
      "duration": 0.08532424999999932
    },
    {
      "name": "C#5",
      "midi": 73,
      "time": 126.1945657499995,
      "velocity": 0.5118110236220472,
      "duration": 0.08532424999999932
    },
    {
      "name": "F4",
      "midi": 65,
      "time": 126.2798899999995,
      "velocity": 0.6220472440944882,
      "duration": 0.08532424999999932
    },
    {
      "name": "F5",
      "midi": 77,
      "time": 126.3652142499995,
      "velocity": 0.5196850393700787,
      "duration": 0.08532424999999932
    },
    {
      "name": "C5",
      "midi": 72,
      "time": 126.4505384999995,
      "velocity": 0.5196850393700787,
      "duration": 0.08532424999999932
    },
    {
      "name": "C#5",
      "midi": 73,
      "time": 126.5358627499995,
      "velocity": 0.5196850393700787,
      "duration": 0.08532424999999932
    },
    {
      "name": "F#4",
      "midi": 66,
      "time": 126.6211869999995,
      "velocity": 0.6062992125984252,
      "duration": 0.08532424999999932
    },
    {
      "name": "F#5",
      "midi": 78,
      "time": 126.7065112499995,
      "velocity": 0.5275590551181102,
      "duration": 0.08532424999999932
    },
    {
      "name": "C5",
      "midi": 72,
      "time": 126.7918354999995,
      "velocity": 0.5196850393700787,
      "duration": 0.08532424999999932
    },
    {
      "name": "C#5",
      "midi": 73,
      "time": 126.87715974999949,
      "velocity": 0.5118110236220472,
      "duration": 0.08532424999999932
    },
    {
      "name": "F4",
      "midi": 65,
      "time": 126.96248399999949,
      "velocity": 0.6377952755905512,
      "duration": 0.08532424999999932
    },
    {
      "name": "F5",
      "midi": 77,
      "time": 127.04780824999949,
      "velocity": 0.5118110236220472,
      "duration": 0.08532424999999932
    },
    {
      "name": "B4",
      "midi": 71,
      "time": 127.13313249999949,
      "velocity": 0.5118110236220472,
      "duration": 0.08532424999999932
    },
    {
      "name": "D#5",
      "midi": 75,
      "time": 127.21845674999949,
      "velocity": 0.5118110236220472,
      "duration": 0.08532424999999932
    },
    {
      "name": "F#4",
      "midi": 66,
      "time": 127.30378099999949,
      "velocity": 0.6141732283464567,
      "duration": 0.08532424999999932
    },
    {
      "name": "F#5",
      "midi": 78,
      "time": 127.38910524999949,
      "velocity": 0.5118110236220472,
      "duration": 0.08532424999999932
    },
    {
      "name": "B4",
      "midi": 71,
      "time": 127.47442949999949,
      "velocity": 0.5118110236220472,
      "duration": 0.08532424999999932
    },
    {
      "name": "D#5",
      "midi": 75,
      "time": 127.55975374999949,
      "velocity": 0.5118110236220472,
      "duration": 0.08532424999999932
    },
    {
      "name": "A4",
      "midi": 69,
      "time": 127.64507799999949,
      "velocity": 0.6220472440944882,
      "duration": 0.08532424999999932
    },
    {
      "name": "A5",
      "midi": 81,
      "time": 127.73040224999949,
      "velocity": 0.5196850393700787,
      "duration": 0.08532424999999932
    },
    {
      "name": "B4",
      "midi": 71,
      "time": 127.81572649999949,
      "velocity": 0.5196850393700787,
      "duration": 0.08532424999999932
    },
    {
      "name": "E5",
      "midi": 76,
      "time": 127.90105074999948,
      "velocity": 0.5196850393700787,
      "duration": 0.08532424999999932
    },
    {
      "name": "G#4",
      "midi": 68,
      "time": 127.98637499999948,
      "velocity": 0.6062992125984252,
      "duration": 0.08532424999999932
    },
    {
      "name": "G#5",
      "midi": 80,
      "time": 128.07169924999948,
      "velocity": 0.5275590551181102,
      "duration": 0.08532425000001354
    },
    {
      "name": "B4",
      "midi": 71,
      "time": 128.1570234999995,
      "velocity": 0.5196850393700787,
      "duration": 0.08532425000001354
    },
    {
      "name": "E5",
      "midi": 76,
      "time": 128.2423477499995,
      "velocity": 0.5118110236220472,
      "duration": 0.08532425000001354
    },
    {
      "name": "G#4",
      "midi": 68,
      "time": 128.32767199999952,
      "velocity": 0.4094488188976378,
      "duration": 0.08532425000001354
    },
    {
      "name": "G#5",
      "midi": 80,
      "time": 128.41299624999954,
      "velocity": 0.44881889763779526,
      "duration": 0.08532425000001354
    },
    {
      "name": "C5",
      "midi": 72,
      "time": 128.49832049999955,
      "velocity": 0.3700787401574803,
      "duration": 0.08532425000001354
    },
    {
      "name": "C#5",
      "midi": 73,
      "time": 128.58364474999956,
      "velocity": 0.3700787401574803,
      "duration": 0.08532425000001354
    },
    {
      "name": "F#4",
      "midi": 66,
      "time": 128.66896899999958,
      "velocity": 0.3858267716535433,
      "duration": 0.08532425000001354
    },
    {
      "name": "F#5",
      "midi": 78,
      "time": 128.7542932499996,
      "velocity": 0.4251968503937008,
      "duration": 0.08532425000001354
    },
    {
      "name": "C5",
      "midi": 72,
      "time": 128.8396174999996,
      "velocity": 0.3779527559055118,
      "duration": 0.08532425000001354
    },
    {
      "name": "C#5",
      "midi": 73,
      "time": 128.92494174999962,
      "velocity": 0.3779527559055118,
      "duration": 0.08532425000001354
    },
    {
      "name": "F4",
      "midi": 65,
      "time": 129.01026599999963,
      "velocity": 0.4015748031496063,
      "duration": 0.08532425000001354
    },
    {
      "name": "F5",
      "midi": 77,
      "time": 129.09559024999965,
      "velocity": 0.4409448818897638,
      "duration": 0.08532425000001354
    },
    {
      "name": "C5",
      "midi": 72,
      "time": 129.18091449999966,
      "velocity": 0.3937007874015748,
      "duration": 0.08532425000001354
    },
    {
      "name": "C#5",
      "midi": 73,
      "time": 129.26623874999967,
      "velocity": 0.3937007874015748,
      "duration": 0.08532425000001354
    },
    {
      "name": "F#4",
      "midi": 66,
      "time": 129.3515629999997,
      "velocity": 0.41732283464566927,
      "duration": 0.08532425000001354
    },
    {
      "name": "F#5",
      "midi": 78,
      "time": 129.4368872499997,
      "velocity": 0.4566929133858268,
      "duration": 0.08532425000001354
    },
    {
      "name": "C5",
      "midi": 72,
      "time": 129.5222114999997,
      "velocity": 0.4015748031496063,
      "duration": 0.08532425000001354
    },
    {
      "name": "C#5",
      "midi": 73,
      "time": 129.60753574999973,
      "velocity": 0.4015748031496063,
      "duration": 0.08532425000001354
    },
    {
      "name": "C#4",
      "midi": 61,
      "time": 129.69285999999974,
      "velocity": 0.4330708661417323,
      "duration": 0.08532425000001354
    },
    {
      "name": "C#5",
      "midi": 73,
      "time": 129.77818424999975,
      "velocity": 0.47244094488188976,
      "duration": 0.08532425000001354
    },
    {
      "name": "F#4",
      "midi": 66,
      "time": 129.86350849999977,
      "velocity": 0.4094488188976378,
      "duration": 0.08532425000001354
    },
    {
      "name": "A4",
      "midi": 69,
      "time": 129.94883274999978,
      "velocity": 0.41732283464566927,
      "duration": 0.08532425000001354
    },
    {
      "name": "D#4",
      "midi": 63,
      "time": 130.0341569999998,
      "velocity": 0.4330708661417323,
      "duration": 0.08532425000001354
    },
    {
      "name": "D#5",
      "midi": 75,
      "time": 130.1194812499998,
      "velocity": 0.4881889763779528,
      "duration": 0.08532425000001354
    },
    {
      "name": "F#4",
      "midi": 66,
      "time": 130.20480549999982,
      "velocity": 0.4251968503937008,
      "duration": 0.08532425000001354
    },
    {
      "name": "A4",
      "midi": 69,
      "time": 130.29012974999983,
      "velocity": 0.4251968503937008,
      "duration": 0.08532425000001354
    },
    {
      "name": "E4",
      "midi": 64,
      "time": 130.37545399999985,
      "velocity": 0.44881889763779526,
      "duration": 0.08532425000001354
    },
    {
      "name": "E5",
      "midi": 76,
      "time": 130.46077824999986,
      "velocity": 0.5118110236220472,
      "duration": 0.08532425000001354
    },
    {
      "name": "G#4",
      "midi": 68,
      "time": 130.54610249999988,
      "velocity": 0.4409448818897638,
      "duration": 0.08532425000001354
    },
    {
      "name": "B4",
      "midi": 71,
      "time": 130.6314267499999,
      "velocity": 0.4409448818897638,
      "duration": 0.08532425000001354
    },
    {
      "name": "G#4",
      "midi": 68,
      "time": 130.7167509999999,
      "velocity": 0.47244094488188976,
      "duration": 0.08532425000001354
    },
    {
      "name": "G#5",
      "midi": 80,
      "time": 130.80207524999992,
      "velocity": 0.5354330708661418,
      "duration": 0.08532425000001354
    },
    {
      "name": "B4",
      "midi": 71,
      "time": 130.88739949999993,
      "velocity": 0.44881889763779526,
      "duration": 0.08532425000001354
    },
    {
      "name": "E5",
      "midi": 76,
      "time": 130.97272374999994,
      "velocity": 0.4566929133858268,
      "duration": 0.08532425000001354
    },
    {
      "name": "G#4",
      "midi": 68,
      "time": 131.05804799999996,
      "velocity": 0.4881889763779528,
      "duration": 0.08532425000001354
    },
    {
      "name": "G#5",
      "midi": 80,
      "time": 131.14337224999997,
      "velocity": 0.5354330708661418,
      "duration": 0.08532425000001354
    },
    {
      "name": "C5",
      "midi": 72,
      "time": 131.22869649999998,
      "velocity": 0.4645669291338583,
      "duration": 0.08532425000001354
    },
    {
      "name": "C#5",
      "midi": 73,
      "time": 131.31402075,
      "velocity": 0.4645669291338583,
      "duration": 0.08532425000001354
    },
    {
      "name": "F#4",
      "midi": 66,
      "time": 131.399345,
      "velocity": 0.4881889763779528,
      "duration": 0.08532425000001354
    },
    {
      "name": "F#5",
      "midi": 78,
      "time": 131.48466925000002,
      "velocity": 0.5511811023622047,
      "duration": 0.08532425000001354
    },
    {
      "name": "C5",
      "midi": 72,
      "time": 131.56999350000004,
      "velocity": 0.48031496062992124,
      "duration": 0.08532425000001354
    },
    {
      "name": "C#5",
      "midi": 73,
      "time": 131.65531775000005,
      "velocity": 0.48031496062992124,
      "duration": 0.08532425000001354
    },
    {
      "name": "D#5",
      "midi": 75,
      "time": 131.74064200000007,
      "velocity": 0.5039370078740157,
      "duration": 0.08532425000001354
    },
    {
      "name": "D#6",
      "midi": 87,
      "time": 131.82596625000008,
      "velocity": 0.5748031496062992,
      "duration": 0.08532425000001354
    },
    {
      "name": "F#5",
      "midi": 78,
      "time": 131.9112905000001,
      "velocity": 0.4881889763779528,
      "duration": 0.08532425000001354
    },
    {
      "name": "A5",
      "midi": 81,
      "time": 131.9966147500001,
      "velocity": 0.4881889763779528,
      "duration": 0.08532425000001354
    },
    {
      "name": "C#5",
      "midi": 73,
      "time": 132.08193900000012,
      "velocity": 0.5196850393700787,
      "duration": 0.08532425000001354
    },
    {
      "name": "C#6",
      "midi": 85,
      "time": 132.16726325000013,
      "velocity": 0.5826771653543307,
      "duration": 0.08532425000001354
    },
    {
      "name": "F#5",
      "midi": 78,
      "time": 132.25258750000015,
      "velocity": 0.4881889763779528,
      "duration": 0.08532425000001354
    },
    {
      "name": "A5",
      "midi": 81,
      "time": 132.33791175000016,
      "velocity": 0.4881889763779528,
      "duration": 0.08532425000001354
    },
    {
      "name": "C#5",
      "midi": 73,
      "time": 132.42323600000017,
      "velocity": 0.5039370078740157,
      "duration": 0.08532425000001354
    },
    {
      "name": "C#6",
      "midi": 85,
      "time": 132.5085602500002,
      "velocity": 0.5748031496062992,
      "duration": 0.08532425000001354
    },
    {
      "name": "D#5",
      "midi": 75,
      "time": 132.5938845000002,
      "velocity": 0.48031496062992124,
      "duration": 0.08532425000001354
    },
    {
      "name": "F#5",
      "midi": 78,
      "time": 132.6792087500002,
      "velocity": 0.48031496062992124,
      "duration": 0.08532425000001354
    },
    {
      "name": "C5",
      "midi": 72,
      "time": 132.76453300000023,
      "velocity": 0.5039370078740157,
      "duration": 0.08532425000001354
    },
    {
      "name": "C6",
      "midi": 84,
      "time": 132.84985725000024,
      "velocity": 0.5590551181102362,
      "duration": 0.08532425000001354
    },
    {
      "name": "D#5",
      "midi": 75,
      "time": 132.93518150000025,
      "velocity": 0.47244094488188976,
      "duration": 0.08532425000001354
    },
    {
      "name": "F#5",
      "midi": 78,
      "time": 133.02050575000027,
      "velocity": 0.4645669291338583,
      "duration": 0.08532425000001354
    },
    {
      "name": "C5",
      "midi": 72,
      "time": 133.10583000000028,
      "velocity": 0.47244094488188976,
      "duration": 0.08532425000001354
    },
    {
      "name": "C6",
      "midi": 84,
      "time": 133.1911542500003,
      "velocity": 0.5433070866141733,
      "duration": 0.08532425000001354
    },
    {
      "name": "D#5",
      "midi": 75,
      "time": 133.2764785000003,
      "velocity": 0.4566929133858268,
      "duration": 0.08532425000001354
    },
    {
      "name": "F#5",
      "midi": 78,
      "time": 133.36180275000032,
      "velocity": 0.4566929133858268,
      "duration": 0.08532425000001354
    },
    {
      "name": "C5",
      "midi": 72,
      "time": 133.44712700000034,
      "velocity": 0.48031496062992124,
      "duration": 0.08532425000001354
    },
    {
      "name": "C6",
      "midi": 84,
      "time": 133.53245125000035,
      "velocity": 0.5354330708661418,
      "duration": 0.08532425000001354
    },
    {
      "name": "D#5",
      "midi": 75,
      "time": 133.61777550000036,
      "velocity": 0.44881889763779526,
      "duration": 0.08532425000001354
    },
    {
      "name": "F#5",
      "midi": 78,
      "time": 133.70309975000038,
      "velocity": 0.4409448818897638,
      "duration": 0.08532425000001354
    },
    {
      "name": "C5",
      "midi": 72,
      "time": 133.7884240000004,
      "velocity": 0.44881889763779526,
      "duration": 0.08532425000001354
    },
    {
      "name": "C6",
      "midi": 84,
      "time": 133.8737482500004,
      "velocity": 0.5118110236220472,
      "duration": 0.08532425000001354
    },
    {
      "name": "D#5",
      "midi": 75,
      "time": 133.95907250000042,
      "velocity": 0.4330708661417323,
      "duration": 0.08532425000001354
    },
    {
      "name": "F#5",
      "midi": 78,
      "time": 134.04439675000043,
      "velocity": 0.4330708661417323,
      "duration": 0.08532425000001354
    },
    {
      "name": "B4",
      "midi": 71,
      "time": 134.12972100000044,
      "velocity": 0.4566929133858268,
      "duration": 0.08532425000001354
    },
    {
      "name": "B5",
      "midi": 83,
      "time": 134.21504525000046,
      "velocity": 0.5039370078740157,
      "duration": 0.08532425000001354
    },
    {
      "name": "D#5",
      "midi": 75,
      "time": 134.30036950000047,
      "velocity": 0.41732283464566927,
      "duration": 0.08532425000001354
    },
    {
      "name": "F#5",
      "midi": 78,
      "time": 134.38569375000048,
      "velocity": 0.41732283464566927,
      "duration": 0.08532425000001354
    },
    {
      "name": "B4",
      "midi": 71,
      "time": 134.4710180000005,
      "velocity": 0.4251968503937008,
      "duration": 0.08532425000001354
    },
    {
      "name": "B5",
      "midi": 83,
      "time": 134.5563422500005,
      "velocity": 0.4881889763779528,
      "duration": 0.08532425000001354
    },
    {
      "name": "D#5",
      "midi": 75,
      "time": 134.64166650000053,
      "velocity": 0.4094488188976378,
      "duration": 0.08532425000001354
    },
    {
      "name": "F#5",
      "midi": 78,
      "time": 134.72699075000054,
      "velocity": 0.4094488188976378,
      "duration": 0.08532425000001354
    },
    {
      "name": "A#4",
      "midi": 70,
      "time": 134.81231500000055,
      "velocity": 0.4251968503937008,
      "duration": 0.08532425000001354
    },
    {
      "name": "A#5",
      "midi": 82,
      "time": 134.89763925000057,
      "velocity": 0.47244094488188976,
      "duration": 0.08532425000001354
    },
    {
      "name": "D#5",
      "midi": 75,
      "time": 134.98296350000058,
      "velocity": 0.3937007874015748,
      "duration": 0.08532425000001354
    },
    {
      "name": "F#5",
      "midi": 78,
      "time": 135.0682877500006,
      "velocity": 0.3937007874015748,
      "duration": 0.08532425000001354
    },
    {
      "name": "A#4",
      "midi": 70,
      "time": 135.1536120000006,
      "velocity": 0.4330708661417323,
      "duration": 0.08532425000001354
    },
    {
      "name": "A#5",
      "midi": 82,
      "time": 135.24320246250062,
      "velocity": 0.3858267716535433,
      "duration": 0.08532424999998511
    },
    {
      "name": "D#5",
      "midi": 75,
      "time": 135.3242605000006,
      "velocity": 0.3779527559055118,
      "duration": 0.08532424999998511
    },
    {
      "name": "F#5",
      "midi": 78,
      "time": 135.4095847500006,
      "velocity": 0.3779527559055118,
      "duration": 0.08532425000001354
    },
    {
      "name": "A4",
      "midi": 69,
      "time": 135.4949090000006,
      "velocity": 0.41732283464566927,
      "duration": 0.08532425000001354
    },
    {
      "name": "A5",
      "midi": 81,
      "time": 135.58449946250062,
      "velocity": 0.3779527559055118,
      "duration": 0.08532424999998511
    },
    {
      "name": "D#5",
      "midi": 75,
      "time": 135.6655575000006,
      "velocity": 0.3700787401574803,
      "duration": 0.08532424999998511
    },
    {
      "name": "F#5",
      "midi": 78,
      "time": 135.7508817500006,
      "velocity": 0.3700787401574803,
      "duration": 0.08532425000001354
    },
    {
      "name": "A4",
      "midi": 69,
      "time": 135.8362060000006,
      "velocity": 0.4094488188976378,
      "duration": 0.08532425000001354
    },
    {
      "name": "A5",
      "midi": 81,
      "time": 135.92153025000061,
      "velocity": 0.3858267716535433,
      "duration": 0.08532425000001354
    },
    {
      "name": "D#5",
      "midi": 75,
      "time": 136.00685450000063,
      "velocity": 0.3543307086614173,
      "duration": 0.08532425000001354
    },
    {
      "name": "F#5",
      "midi": 78,
      "time": 136.09217875000064,
      "velocity": 0.3543307086614173,
      "duration": 0.08532425000001354
    },
    {
      "name": "A4",
      "midi": 69,
      "time": 136.17750300000066,
      "velocity": 0.4015748031496063,
      "duration": 0.08532425000001354
    },
    {
      "name": "A5",
      "midi": 81,
      "time": 136.26282725000067,
      "velocity": 0.3700787401574803,
      "duration": 0.08532425000001354
    },
    {
      "name": "D#5",
      "midi": 75,
      "time": 136.34815150000068,
      "velocity": 0.3464566929133858,
      "duration": 0.08532425000001354
    },
    {
      "name": "F#5",
      "midi": 78,
      "time": 136.4334757500007,
      "velocity": 0.3464566929133858,
      "duration": 0.08532425000001354
    },
    {
      "name": "C5",
      "midi": 72,
      "time": 136.5188000000007,
      "velocity": 0.4094488188976378,
      "duration": 0.08532425000001354
    },
    {
      "name": "C6",
      "midi": 84,
      "time": 136.60839046250072,
      "velocity": 0.3700787401574803,
      "duration": 0.08532424999998511
    },
    {
      "name": "D#5",
      "midi": 75,
      "time": 136.6894485000007,
      "velocity": 0.3700787401574803,
      "duration": 0.08532424999998511
    },
    {
      "name": "F#5",
      "midi": 78,
      "time": 136.7747727500007,
      "velocity": 0.3700787401574803,
      "duration": 0.08532425000001354
    },
    {
      "name": "B4",
      "midi": 71,
      "time": 136.8600970000007,
      "velocity": 0.4015748031496063,
      "duration": 0.08532425000001354
    },
    {
      "name": "B5",
      "midi": 83,
      "time": 136.94542125000072,
      "velocity": 0.36220472440944884,
      "duration": 0.08532425000001354
    },
    {
      "name": "D#5",
      "midi": 75,
      "time": 137.03074550000073,
      "velocity": 0.36220472440944884,
      "duration": 0.08532425000001354
    },
    {
      "name": "F#5",
      "midi": 78,
      "time": 137.11606975000075,
      "velocity": 0.36220472440944884,
      "duration": 0.08532425000001354
    },
    {
      "name": "B4",
      "midi": 71,
      "time": 137.20139400000076,
      "velocity": 0.4015748031496063,
      "duration": 0.08532425000001354
    },
    {
      "name": "B5",
      "midi": 83,
      "time": 137.28671825000077,
      "velocity": 0.3779527559055118,
      "duration": 0.08532425000001354
    },
    {
      "name": "D#5",
      "midi": 75,
      "time": 137.3720425000008,
      "velocity": 0.3543307086614173,
      "duration": 0.08532425000001354
    },
    {
      "name": "F#5",
      "midi": 78,
      "time": 137.4573667500008,
      "velocity": 0.3543307086614173,
      "duration": 0.08532425000001354
    },
    {
      "name": "A#4",
      "midi": 70,
      "time": 137.54269100000081,
      "velocity": 0.4015748031496063,
      "duration": 0.08532425000001354
    },
    {
      "name": "A#5",
      "midi": 82,
      "time": 137.62801525000083,
      "velocity": 0.3700787401574803,
      "duration": 0.08532425000001354
    },
    {
      "name": "D#5",
      "midi": 75,
      "time": 137.71333950000084,
      "velocity": 0.3464566929133858,
      "duration": 0.08532425000001354
    },
    {
      "name": "F#5",
      "midi": 78,
      "time": 137.79866375000086,
      "velocity": 0.3464566929133858,
      "duration": 0.08532425000001354
    },
    {
      "name": "A#4",
      "midi": 70,
      "time": 137.88398800000087,
      "velocity": 0.4094488188976378,
      "duration": 0.08532425000001354
    },
    {
      "name": "A#5",
      "midi": 82,
      "time": 137.96931225000088,
      "velocity": 0.36220472440944884,
      "duration": 0.08532425000001354
    },
    {
      "name": "D#5",
      "midi": 75,
      "time": 138.0546365000009,
      "velocity": 0.36220472440944884,
      "duration": 0.08532425000001354
    },
    {
      "name": "F#5",
      "midi": 78,
      "time": 138.1399607500009,
      "velocity": 0.3543307086614173,
      "duration": 0.08532425000001354
    },
    {
      "name": "A4",
      "midi": 69,
      "time": 138.22528500000092,
      "velocity": 0.3779527559055118,
      "duration": 0.08532425000001354
    },
    {
      "name": "A5",
      "midi": 81,
      "time": 138.31060925000094,
      "velocity": 0.33858267716535434,
      "duration": 0.08532425000001354
    },
    {
      "name": "D#5",
      "midi": 75,
      "time": 138.39593350000095,
      "velocity": 0.33070866141732286,
      "duration": 0.08532425000001354
    },
    {
      "name": "F#5",
      "midi": 78,
      "time": 138.48125775000096,
      "velocity": 0.33070866141732286,
      "duration": 0.08532425000001354
    },
    {
      "name": "A4",
      "midi": 69,
      "time": 138.56658200000098,
      "velocity": 0.3543307086614173,
      "duration": 0.08532425000001354
    },
    {
      "name": "A5",
      "midi": 81,
      "time": 138.651906250001,
      "velocity": 0.33070866141732286,
      "duration": 0.08532425000001354
    },
    {
      "name": "D#5",
      "midi": 75,
      "time": 138.737230500001,
      "velocity": 0.30708661417322836,
      "duration": 0.08532425000001354
    },
    {
      "name": "F#5",
      "midi": 78,
      "time": 138.82255475000102,
      "velocity": 0.30708661417322836,
      "duration": 0.08532425000001354
    },
    {
      "name": "G#4",
      "midi": 68,
      "time": 138.90787900000103,
      "velocity": 0.33858267716535434,
      "duration": 0.08532425000001354
    },
    {
      "name": "G#5",
      "midi": 80,
      "time": 138.99320325000105,
      "velocity": 0.30708661417322836,
      "duration": 0.08532425000001354
    },
    {
      "name": "D#5",
      "midi": 75,
      "time": 139.07852750000106,
      "velocity": 0.28346456692913385,
      "duration": 0.08532425000001354
    },
    {
      "name": "F#5",
      "midi": 78,
      "time": 139.16385175000107,
      "velocity": 0.28346456692913385,
      "duration": 0.08532425000001354
    },
    {
      "name": "G#4",
      "midi": 68,
      "time": 139.3345002500011,
      "velocity": 0.29133858267716534,
      "duration": 0.08532425000001354
    },
    {
      "name": "A4",
      "midi": 69,
      "time": 139.4198245000011,
      "velocity": 0.3228346456692913,
      "duration": 0.08532425000001354
    },
    {
      "name": "G#4",
      "midi": 68,
      "time": 139.50514875000113,
      "velocity": 0.2992125984251969,
      "duration": 0.08532425000001354
    },
    {
      "name": "G4",
      "midi": 67,
      "time": 139.59047300000114,
      "velocity": 0.30708661417322836,
      "duration": 0.08532425000001354
    },
    {
      "name": "G#4",
      "midi": 68,
      "time": 139.67579725000115,
      "velocity": 0.31496062992125984,
      "duration": 0.08532425000001354
    },
    {
      "name": "C#5",
      "midi": 73,
      "time": 139.76112150000117,
      "velocity": 0.33070866141732286,
      "duration": 0.08532425000001354
    },
    {
      "name": "E5",
      "midi": 76,
      "time": 139.84644575000118,
      "velocity": 0.33858267716535434,
      "duration": 0.08532425000001354
    },
    {
      "name": "D#5",
      "midi": 75,
      "time": 139.9317700000012,
      "velocity": 0.3543307086614173,
      "duration": 0.08532425000001354
    },
    {
      "name": "C#5",
      "midi": 73,
      "time": 140.0170942500012,
      "velocity": 0.33858267716535434,
      "duration": 0.08532425000001354
    },
    {
      "name": "D#5",
      "midi": 75,
      "time": 140.10241850000122,
      "velocity": 0.3543307086614173,
      "duration": 0.08532425000001354
    },
    {
      "name": "C#5",
      "midi": 73,
      "time": 140.18774275000123,
      "velocity": 0.33858267716535434,
      "duration": 0.08532425000001354
    },
    {
      "name": "C5",
      "midi": 72,
      "time": 140.27306700000125,
      "velocity": 0.3464566929133858,
      "duration": 0.08532425000001354
    },
    {
      "name": "C#5",
      "midi": 73,
      "time": 140.35839125000126,
      "velocity": 0.36220472440944884,
      "duration": 0.08532425000001354
    },
    {
      "name": "E5",
      "midi": 76,
      "time": 140.44371550000128,
      "velocity": 0.3858267716535433,
      "duration": 0.08532425000001354
    },
    {
      "name": "G#5",
      "midi": 80,
      "time": 140.5290397500013,
      "velocity": 0.3700787401574803,
      "duration": 0.08532425000001354
    },
    {
      "name": "G#4",
      "midi": 68,
      "time": 140.69968825000132,
      "velocity": 0.3543307086614173,
      "duration": 0.08532425000001354
    },
    {
      "name": "A4",
      "midi": 69,
      "time": 140.78501250000133,
      "velocity": 0.3858267716535433,
      "duration": 0.08532425000001354
    },
    {
      "name": "G#4",
      "midi": 68,
      "time": 140.87033675000134,
      "velocity": 0.3543307086614173,
      "duration": 0.08532425000001354
    },
    {
      "name": "G4",
      "midi": 67,
      "time": 140.95566100000136,
      "velocity": 0.36220472440944884,
      "duration": 0.08532425000001354
    },
    {
      "name": "G#4",
      "midi": 68,
      "time": 141.04098525000137,
      "velocity": 0.3779527559055118,
      "duration": 0.08532425000001354
    },
    {
      "name": "C#5",
      "midi": 73,
      "time": 141.12630950000138,
      "velocity": 0.3937007874015748,
      "duration": 0.08532425000001354
    },
    {
      "name": "E5",
      "midi": 76,
      "time": 141.2116337500014,
      "velocity": 0.4015748031496063,
      "duration": 0.08532425000001354
    },
    {
      "name": "D#5",
      "midi": 75,
      "time": 141.2969580000014,
      "velocity": 0.4251968503937008,
      "duration": 0.08532425000001354
    },
    {
      "name": "C#5",
      "midi": 73,
      "time": 141.38228225000142,
      "velocity": 0.4015748031496063,
      "duration": 0.08532425000001354
    },
    {
      "name": "D#5",
      "midi": 75,
      "time": 141.46760650000144,
      "velocity": 0.41732283464566927,
      "duration": 0.08532425000001354
    },
    {
      "name": "C#5",
      "midi": 73,
      "time": 141.55293075000145,
      "velocity": 0.4015748031496063,
      "duration": 0.08532425000001354
    },
    {
      "name": "C5",
      "midi": 72,
      "time": 141.63825500000146,
      "velocity": 0.4094488188976378,
      "duration": 0.08532425000001354
    },
    {
      "name": "C#5",
      "midi": 73,
      "time": 141.72357925000148,
      "velocity": 0.4251968503937008,
      "duration": 0.08532425000001354
    },
    {
      "name": "E5",
      "midi": 76,
      "time": 141.8089035000015,
      "velocity": 0.44881889763779526,
      "duration": 0.08532425000001354
    },
    {
      "name": "G#5",
      "midi": 80,
      "time": 141.8942277500015,
      "velocity": 0.4330708661417323,
      "duration": 0.08532425000001354
    },
    {
      "name": "A4",
      "midi": 69,
      "time": 142.06487625000153,
      "velocity": 0.4409448818897638,
      "duration": 0.08532425000001354
    },
    {
      "name": "C#5",
      "midi": 73,
      "time": 142.15020050000155,
      "velocity": 0.4645669291338583,
      "duration": 0.08532425000001354
    },
    {
      "name": "D#5",
      "midi": 75,
      "time": 142.23552475000156,
      "velocity": 0.4881889763779528,
      "duration": 0.08532425000001354
    },
    {
      "name": "F#5",
      "midi": 78,
      "time": 142.32084900000157,
      "velocity": 0.49606299212598426,
      "duration": 0.08532425000001354
    },
    {
      "name": "A5",
      "midi": 81,
      "time": 142.4061732500016,
      "velocity": 0.5196850393700787,
      "duration": 0.08532425000001354
    },
    {
      "name": "C#6",
      "midi": 85,
      "time": 142.4914975000016,
      "velocity": 0.5433070866141733,
      "duration": 0.08532425000001354
    },
    {
      "name": "D#6",
      "midi": 87,
      "time": 142.5768217500016,
      "velocity": 0.5669291338582677,
      "duration": 0.08532425000001354
    },
    {
      "name": "B6",
      "midi": 95,
      "time": 142.66214600000163,
      "velocity": 0.5905511811023622,
      "duration": 0.08532425000001354
    },
    {
      "name": "A6",
      "midi": 93,
      "time": 142.74747025000164,
      "velocity": 0.5748031496062992,
      "duration": 0.08532425000001354
    },
    {
      "name": "G#6",
      "midi": 92,
      "time": 142.83279450000165,
      "velocity": 0.5669291338582677,
      "duration": 0.08532425000001354
    },
    {
      "name": "F#6",
      "midi": 90,
      "time": 142.91811875000167,
      "velocity": 0.5590551181102362,
      "duration": 0.08532425000001354
    },
    {
      "name": "E6",
      "midi": 88,
      "time": 143.00344300000168,
      "velocity": 0.5590551181102362,
      "duration": 0.08532425000001354
    },
    {
      "name": "D#6",
      "midi": 87,
      "time": 143.0887672500017,
      "velocity": 0.5511811023622047,
      "duration": 0.08532425000001354
    },
    {
      "name": "F#6",
      "midi": 90,
      "time": 143.1740915000017,
      "velocity": 0.5354330708661418,
      "duration": 0.08532425000001354
    },
    {
      "name": "C#6",
      "midi": 85,
      "time": 143.25941575000172,
      "velocity": 0.5275590551181102,
      "duration": 0.08532425000001354
    },
    {
      "name": "C6",
      "midi": 84,
      "time": 143.34474000000174,
      "velocity": 0.5354330708661418,
      "duration": 0.08532425000001354
    },
    {
      "name": "D#6",
      "midi": 87,
      "time": 143.43006425000175,
      "velocity": 0.49606299212598426,
      "duration": 0.08532425000001354
    },
    {
      "name": "A5",
      "midi": 81,
      "time": 143.51538850000176,
      "velocity": 0.49606299212598426,
      "duration": 0.08532425000001354
    },
    {
      "name": "G#5",
      "midi": 80,
      "time": 143.60071275000178,
      "velocity": 0.49606299212598426,
      "duration": 0.08532425000001354
    },
    {
      "name": "F#5",
      "midi": 78,
      "time": 143.6860370000018,
      "velocity": 0.47244094488188976,
      "duration": 0.08532425000001354
    },
    {
      "name": "A5",
      "midi": 81,
      "time": 143.7713612500018,
      "velocity": 0.4566929133858268,
      "duration": 0.08532425000001354
    },
    {
      "name": "E5",
      "midi": 76,
      "time": 143.85668550000182,
      "velocity": 0.4251968503937008,
      "duration": 0.08532425000001354
    },
    {
      "name": "D#5",
      "midi": 75,
      "time": 143.94200975000183,
      "velocity": 0.4251968503937008,
      "duration": 0.08532425000001354
    },
    {
      "name": "F#5",
      "midi": 78,
      "time": 144.02733400000184,
      "velocity": 0.41732283464566927,
      "duration": 0.08532425000001354
    },
    {
      "name": "C#5",
      "midi": 73,
      "time": 144.11265825000186,
      "velocity": 0.3779527559055118,
      "duration": 0.08532425000001354
    },
    {
      "name": "C5",
      "midi": 72,
      "time": 144.19798250000187,
      "velocity": 0.3779527559055118,
      "duration": 0.08532425000001354
    },
    {
      "name": "D#5",
      "midi": 75,
      "time": 144.28330675000188,
      "velocity": 0.3700787401574803,
      "duration": 0.08532425000001354
    },
    {
      "name": "A4",
      "midi": 69,
      "time": 144.3686310000019,
      "velocity": 0.3543307086614173,
      "duration": 0.08532425000001354
    },
    {
      "name": "G#4",
      "midi": 68,
      "time": 144.4539552500019,
      "velocity": 0.33070866141732286,
      "duration": 0.08532425000001354
    },
    {
      "name": "B4",
      "midi": 71,
      "time": 144.53927950000192,
      "velocity": 0.33070866141732286,
      "duration": 0.08532425000001354
    },
    {
      "name": "A4",
      "midi": 69,
      "time": 144.62460375000194,
      "velocity": 0.3228346456692913,
      "duration": 0.17064849999999865
    },
    {
      "name": "G#4",
      "midi": 68,
      "time": 144.79525225000194,
      "velocity": 0.29133858267716534,
      "duration": 0.08532425000001354
    },
    {
      "name": "A4",
      "midi": 69,
      "time": 144.88057650000195,
      "velocity": 0.3228346456692913,
      "duration": 0.08532425000001354
    },
    {
      "name": "G#4",
      "midi": 68,
      "time": 144.96590075000196,
      "velocity": 0.2992125984251969,
      "duration": 0.08532425000001354
    },
    {
      "name": "G4",
      "midi": 67,
      "time": 145.05122500000198,
      "velocity": 0.30708661417322836,
      "duration": 0.08532425000001354
    },
    {
      "name": "G#4",
      "midi": 68,
      "time": 145.136549250002,
      "velocity": 0.31496062992125984,
      "duration": 0.08532425000001354
    },
    {
      "name": "C#5",
      "midi": 73,
      "time": 145.221873500002,
      "velocity": 0.33070866141732286,
      "duration": 0.08532425000001354
    },
    {
      "name": "E5",
      "midi": 76,
      "time": 145.30719775000202,
      "velocity": 0.33858267716535434,
      "duration": 0.08532425000001354
    },
    {
      "name": "D#5",
      "midi": 75,
      "time": 145.39252200000203,
      "velocity": 0.3543307086614173,
      "duration": 0.08532425000001354
    },
    {
      "name": "C#5",
      "midi": 73,
      "time": 145.47784625000205,
      "velocity": 0.33858267716535434,
      "duration": 0.08532425000001354
    },
    {
      "name": "D#5",
      "midi": 75,
      "time": 145.56317050000206,
      "velocity": 0.3543307086614173,
      "duration": 0.08532425000001354
    },
    {
      "name": "C#5",
      "midi": 73,
      "time": 145.64849475000207,
      "velocity": 0.33858267716535434,
      "duration": 0.08532425000001354
    },
    {
      "name": "C5",
      "midi": 72,
      "time": 145.7338190000021,
      "velocity": 0.3464566929133858,
      "duration": 0.08532425000001354
    },
    {
      "name": "C#5",
      "midi": 73,
      "time": 145.8191432500021,
      "velocity": 0.36220472440944884,
      "duration": 0.08532425000001354
    },
    {
      "name": "E5",
      "midi": 76,
      "time": 145.9044675000021,
      "velocity": 0.3937007874015748,
      "duration": 0.08532425000001354
    },
    {
      "name": "G#5",
      "midi": 80,
      "time": 145.98979175000213,
      "velocity": 0.3779527559055118,
      "duration": 0.08532425000001354
    },
    {
      "name": "E5",
      "midi": 76,
      "time": 146.07511600000214,
      "velocity": 0.36220472440944884,
      "duration": 0.08532425000001354
    },
    {
      "name": "D#5",
      "midi": 75,
      "time": 146.16044025000215,
      "velocity": 0.33858267716535434,
      "duration": 0.08532425000001354
    },
    {
      "name": "E5",
      "midi": 76,
      "time": 146.24576450000217,
      "velocity": 0.3700787401574803,
      "duration": 0.08532425000001354
    },
    {
      "name": "D#5",
      "midi": 75,
      "time": 146.33108875000218,
      "velocity": 0.33858267716535434,
      "duration": 0.08532425000001354
    },
    {
      "name": "D5",
      "midi": 74,
      "time": 146.4164130000022,
      "velocity": 0.3543307086614173,
      "duration": 0.08532425000001354
    },
    {
      "name": "D#5",
      "midi": 75,
      "time": 146.5017372500022,
      "velocity": 0.36220472440944884,
      "duration": 0.08532425000001354
    },
    {
      "name": "F#5",
      "midi": 78,
      "time": 146.58706150000222,
      "velocity": 0.3858267716535433,
      "duration": 0.08532425000001354
    },
    {
      "name": "A5",
      "midi": 81,
      "time": 146.67238575000223,
      "velocity": 0.3937007874015748,
      "duration": 0.08532425000001354
    },
    {
      "name": "F#5",
      "midi": 78,
      "time": 146.75771000000225,
      "velocity": 0.41732283464566927,
      "duration": 0.08532425000001354
    },
    {
      "name": "F5",
      "midi": 77,
      "time": 146.84303425000226,
      "velocity": 0.4015748031496063,
      "duration": 0.08532425000001354
    },
    {
      "name": "F#5",
      "midi": 78,
      "time": 146.92835850000228,
      "velocity": 0.41732283464566927,
      "duration": 0.08532425000001354
    },
    {
      "name": "F5",
      "midi": 77,
      "time": 147.0136827500023,
      "velocity": 0.4015748031496063,
      "duration": 0.08532425000001354
    },
    {
      "name": "E5",
      "midi": 76,
      "time": 147.0990070000023,
      "velocity": 0.4094488188976378,
      "duration": 0.08532425000001354
    },
    {
      "name": "F5",
      "midi": 77,
      "time": 147.18433125000232,
      "velocity": 0.4251968503937008,
      "duration": 0.08532425000001354
    },
    {
      "name": "G#5",
      "midi": 80,
      "time": 147.26965550000233,
      "velocity": 0.44881889763779526,
      "duration": 0.08532425000001354
    },
    {
      "name": "C#6",
      "midi": 85,
      "time": 147.35497975000234,
      "velocity": 0.4409448818897638,
      "duration": 0.08532425000001354
    },
    {
      "name": "C#5",
      "midi": 73,
      "time": 147.52562825000237,
      "velocity": 0.3937007874015748,
      "duration": 0.08532425000001354
    },
    {
      "name": "D5",
      "midi": 74,
      "time": 147.61095250000238,
      "velocity": 0.4330708661417323,
      "duration": 0.08532425000001354
    },
    {
      "name": "C#5",
      "midi": 73,
      "time": 147.6962767500024,
      "velocity": 0.4015748031496063,
      "duration": 0.08532425000001354
    },
    {
      "name": "C5",
      "midi": 72,
      "time": 147.7816010000024,
      "velocity": 0.4094488188976378,
      "duration": 0.08532425000001354
    },
    {
      "name": "C#5",
      "midi": 73,
      "time": 147.86692525000242,
      "velocity": 0.41732283464566927,
      "duration": 0.08532425000001354
    },
    {
      "name": "F#5",
      "midi": 78,
      "time": 147.95224950000244,
      "velocity": 0.4409448818897638,
      "duration": 0.08532425000001354
    },
    {
      "name": "A5",
      "midi": 81,
      "time": 148.03757375000245,
      "velocity": 0.44881889763779526,
      "duration": 0.08532425000001354
    },
    {
      "name": "F#5",
      "midi": 78,
      "time": 148.12289800000246,
      "velocity": 0.4645669291338583,
      "duration": 0.08532425000001354
    },
    {
      "name": "F5",
      "midi": 77,
      "time": 148.20822225000248,
      "velocity": 0.4409448818897638,
      "duration": 0.08532425000001354
    },
    {
      "name": "F#5",
      "midi": 78,
      "time": 148.2935465000025,
      "velocity": 0.4645669291338583,
      "duration": 0.08532425000001354
    },
    {
      "name": "F5",
      "midi": 77,
      "time": 148.3788707500025,
      "velocity": 0.44881889763779526,
      "duration": 0.08532425000001354
    },
    {
      "name": "E5",
      "midi": 76,
      "time": 148.46419500000252,
      "velocity": 0.44881889763779526,
      "duration": 0.08532425000001354
    },
    {
      "name": "F5",
      "midi": 77,
      "time": 148.54951925000253,
      "velocity": 0.4645669291338583,
      "duration": 0.08532425000001354
    },
    {
      "name": "G#5",
      "midi": 80,
      "time": 148.63484350000255,
      "velocity": 0.49606299212598426,
      "duration": 0.08532425000001354
    },
    {
      "name": "C#6",
      "midi": 85,
      "time": 148.72016775000256,
      "velocity": 0.4645669291338583,
      "duration": 0.08532425000001354
    },
    {
      "name": "G#5",
      "midi": 80,
      "time": 148.80549200000257,
      "velocity": 0.4566929133858268,
      "duration": 0.08532425000001354
    },
    {
      "name": "F#5",
      "midi": 78,
      "time": 148.8908162500026,
      "velocity": 0.41732283464566927,
      "duration": 0.08532425000001354
    },
    {
      "name": "G#5",
      "midi": 80,
      "time": 148.9761405000026,
      "velocity": 0.4566929133858268,
      "duration": 0.08532425000001354
    },
    {
      "name": "F#5",
      "midi": 78,
      "time": 149.0614647500026,
      "velocity": 0.4251968503937008,
      "duration": 0.08532425000001354
    },
    {
      "name": "F5",
      "midi": 77,
      "time": 149.14678900000263,
      "velocity": 0.4330708661417323,
      "duration": 0.08532425000001354
    },
    {
      "name": "F#5",
      "midi": 78,
      "time": 149.23211325000264,
      "velocity": 0.4409448818897638,
      "duration": 0.08532425000001354
    },
    {
      "name": "A5",
      "midi": 81,
      "time": 149.31743750000265,
      "velocity": 0.4645669291338583,
      "duration": 0.08532425000001354
    },
    {
      "name": "C#6",
      "midi": 85,
      "time": 149.40276175000267,
      "velocity": 0.47244094488188976,
      "duration": 0.08532425000001354
    },
    {
      "name": "A5",
      "midi": 81,
      "time": 149.48808600000268,
      "velocity": 0.49606299212598426,
      "duration": 0.08532425000001354
    },
    {
      "name": "G#5",
      "midi": 80,
      "time": 149.5734102500027,
      "velocity": 0.4645669291338583,
      "duration": 0.08532425000001354
    },
    {
      "name": "A5",
      "midi": 81,
      "time": 149.6587345000027,
      "velocity": 0.4881889763779528,
      "duration": 0.08532425000001354
    },
    {
      "name": "G#5",
      "midi": 80,
      "time": 149.74405875000272,
      "velocity": 0.47244094488188976,
      "duration": 0.08532425000001354
    },
    {
      "name": "G5",
      "midi": 79,
      "time": 149.82938300000274,
      "velocity": 0.47244094488188976,
      "duration": 0.08532425000001354
    },
    {
      "name": "G#5",
      "midi": 80,
      "time": 149.91470725000275,
      "velocity": 0.4881889763779528,
      "duration": 0.08532425000001354
    },
    {
      "name": "C6",
      "midi": 84,
      "time": 150.00003150000276,
      "velocity": 0.5196850393700787,
      "duration": 0.08532425000001354
    },
    {
      "name": "D#6",
      "midi": 87,
      "time": 150.08535575000278,
      "velocity": 0.49606299212598426,
      "duration": 0.08532425000001354
    },
    {
      "name": "G#5",
      "midi": 80,
      "time": 150.1706800000028,
      "velocity": 0.5433070866141733,
      "duration": 0.08532425000001354
    },
    {
      "name": "A5",
      "midi": 81,
      "time": 150.2560042500028,
      "velocity": 0.5039370078740157,
      "duration": 0.08532425000001354
    },
    {
      "name": "G#5",
      "midi": 80,
      "time": 150.34132850000282,
      "velocity": 0.5275590551181102,
      "duration": 0.08532425000001354
    },
    {
      "name": "G5",
      "midi": 79,
      "time": 150.42665275000283,
      "velocity": 0.4566929133858268,
      "duration": 0.08532425000001354
    },
    {
      "name": "G#5",
      "midi": 80,
      "time": 150.51197700000284,
      "velocity": 0.4881889763779528,
      "duration": 0.08532425000001354
    },
    {
      "name": "E6",
      "midi": 88,
      "time": 150.59730125000286,
      "velocity": 0.5590551181102362,
      "duration": 0.08532425000001354
    },
    {
      "name": "D#6",
      "midi": 87,
      "time": 150.68262550000287,
      "velocity": 0.5590551181102362,
      "duration": 0.08532425000001354
    },
    {
      "name": "D6",
      "midi": 86,
      "time": 150.76794975000288,
      "velocity": 0.5511811023622047,
      "duration": 0.08532425000001354
    },
    {
      "name": "C#6",
      "midi": 85,
      "time": 150.8532740000029,
      "velocity": 0.5433070866141733,
      "duration": 0.08532425000001354
    },
    {
      "name": "C6",
      "midi": 84,
      "time": 150.9385982500029,
      "velocity": 0.5433070866141733,
      "duration": 0.08532425000001354
    },
    {
      "name": "B5",
      "midi": 83,
      "time": 151.02392250000293,
      "velocity": 0.5354330708661418,
      "duration": 0.08532425000001354
    },
    {
      "name": "A#5",
      "midi": 82,
      "time": 151.10924675000294,
      "velocity": 0.5275590551181102,
      "duration": 0.08532425000001354
    },
    {
      "name": "A5",
      "midi": 81,
      "time": 151.19457100000295,
      "velocity": 0.5275590551181102,
      "duration": 0.08532425000001354
    },
    {
      "name": "G#5",
      "midi": 80,
      "time": 151.27989525000297,
      "velocity": 0.5196850393700787,
      "duration": 0.08532425000001354
    },
    {
      "name": "G5",
      "midi": 79,
      "time": 151.36521950000298,
      "velocity": 0.5118110236220472,
      "duration": 0.08532425000001354
    },
    {
      "name": "F#5",
      "midi": 78,
      "time": 151.450543750003,
      "velocity": 0.5039370078740157,
      "duration": 0.08532425000001354
    },
    {
      "name": "E5",
      "midi": 76,
      "time": 151.535868000003,
      "velocity": 0.5433070866141733,
      "duration": 0.08532425000001354
    },
    {
      "name": "F#5",
      "midi": 78,
      "time": 151.62119225000302,
      "velocity": 0.5039370078740157,
      "duration": 0.08532425000001354
    },
    {
      "name": "E5",
      "midi": 76,
      "time": 151.70651650000303,
      "velocity": 0.5275590551181102,
      "duration": 0.08532425000001354
    },
    {
      "name": "D#5",
      "midi": 75,
      "time": 151.79184075000305,
      "velocity": 0.4566929133858268,
      "duration": 0.08532425000001354
    },
    {
      "name": "E5",
      "midi": 76,
      "time": 151.87716500000306,
      "velocity": 0.4881889763779528,
      "duration": 0.08532425000001354
    },
    {
      "name": "E6",
      "midi": 88,
      "time": 151.96248925000307,
      "velocity": 0.5590551181102362,
      "duration": 0.08532425000001354
    },
    {
      "name": "D#6",
      "midi": 87,
      "time": 152.0478135000031,
      "velocity": 0.5590551181102362,
      "duration": 0.08532425000001354
    },
    {
      "name": "D6",
      "midi": 86,
      "time": 152.1331377500031,
      "velocity": 0.5511811023622047,
      "duration": 0.08532425000001354
    },
    {
      "name": "C#6",
      "midi": 85,
      "time": 152.21846200000311,
      "velocity": 0.5511811023622047,
      "duration": 0.08532425000001354
    },
    {
      "name": "C6",
      "midi": 84,
      "time": 152.30378625000313,
      "velocity": 0.5590551181102362,
      "duration": 0.08532425000001354
    },
    {
      "name": "B5",
      "midi": 83,
      "time": 152.38911050000314,
      "velocity": 0.5590551181102362,
      "duration": 0.08532425000001354
    },
    {
      "name": "A#5",
      "midi": 82,
      "time": 152.47443475000316,
      "velocity": 0.5669291338582677,
      "duration": 0.08532425000001354
    },
    {
      "name": "A5",
      "midi": 81,
      "time": 152.55975900000317,
      "velocity": 0.5748031496062992,
      "duration": 0.08532425000001354
    },
    {
      "name": "G#5",
      "midi": 80,
      "time": 152.64508325000318,
      "velocity": 0.5826771653543307,
      "duration": 0.08532425000001354
    },
    {
      "name": "G5",
      "midi": 79,
      "time": 152.7304075000032,
      "velocity": 0.5905511811023622,
      "duration": 0.08532425000001354
    },
    {
      "name": "F#5",
      "midi": 78,
      "time": 152.8157317500032,
      "velocity": 0.5984251968503937,
      "duration": 0.08532425000001354
    },
    {
      "name": "G#5",
      "midi": 80,
      "time": 152.90105600000322,
      "velocity": 0.5984251968503937,
      "duration": 0.04266212499999256
    },
    {
      "name": "G#6",
      "midi": 92,
      "time": 153.07170450000322,
      "velocity": 0.6692913385826772,
      "duration": 0.08532425000001354
    },
    {
      "name": "G6",
      "midi": 91,
      "time": 153.15702875000324,
      "velocity": 0.6692913385826772,
      "duration": 0.08532425000001354
    },
    {
      "name": "F#6",
      "midi": 90,
      "time": 153.24235300000325,
      "velocity": 0.6614173228346457,
      "duration": 0.08532425000001354
    },
    {
      "name": "F6",
      "midi": 89,
      "time": 153.32767725000326,
      "velocity": 0.6614173228346457,
      "duration": 0.08532425000001354
    },
    {
      "name": "E6",
      "midi": 88,
      "time": 153.41300150000328,
      "velocity": 0.6535433070866141,
      "duration": 0.08532425000001354
    },
    {
      "name": "D#6",
      "midi": 87,
      "time": 153.4983257500033,
      "velocity": 0.6535433070866141,
      "duration": 0.08532425000001354
    },
    {
      "name": "D6",
      "midi": 86,
      "time": 153.5836500000033,
      "velocity": 0.6456692913385826,
      "duration": 0.08532425000001354
    },
    {
      "name": "C#6",
      "midi": 85,
      "time": 153.66897425000332,
      "velocity": 0.6377952755905512,
      "duration": 0.08532425000001354
    },
    {
      "name": "C6",
      "midi": 84,
      "time": 153.75429850000333,
      "velocity": 0.6377952755905512,
      "duration": 0.08532425000001354
    },
    {
      "name": "B5",
      "midi": 83,
      "time": 153.83962275000334,
      "velocity": 0.6299212598425197,
      "duration": 0.08532425000001354
    },
    {
      "name": "A#5",
      "midi": 82,
      "time": 153.92494700000336,
      "velocity": 0.6299212598425197,
      "duration": 0.08532425000001354
    },
    {
      "name": "A5",
      "midi": 81,
      "time": 154.01027125000337,
      "velocity": 0.6220472440944882,
      "duration": 0.08532425000001354
    },
    {
      "name": "G#5",
      "midi": 80,
      "time": 154.09559550000338,
      "velocity": 0.6220472440944882,
      "duration": 0.08532425000001354
    },
    {
      "name": "G5",
      "midi": 79,
      "time": 154.1809197500034,
      "velocity": 0.6141732283464567,
      "duration": 0.08532425000001354
    },
    {
      "name": "F#5",
      "midi": 78,
      "time": 154.2662440000034,
      "velocity": 0.6062992125984252,
      "duration": 0.08532425000001354
    },
    {
      "name": "F5",
      "midi": 77,
      "time": 154.35156825000342,
      "velocity": 0.6062992125984252,
      "duration": 0.08532425000001354
    },
    {
      "name": "E5",
      "midi": 76,
      "time": 154.43689250000344,
      "velocity": 0.6062992125984252,
      "duration": 0.08532425000001354
    },
    {
      "name": "D#5",
      "midi": 75,
      "time": 154.52221675000345,
      "velocity": 0.6062992125984252,
      "duration": 0.08532425000001354
    },
    {
      "name": "D5",
      "midi": 74,
      "time": 154.60754100000347,
      "velocity": 0.6062992125984252,
      "duration": 0.08532425000001354
    },
    {
      "name": "C#5",
      "midi": 73,
      "time": 154.69286525000348,
      "velocity": 0.6062992125984252,
      "duration": 0.08532425000001354
    },
    {
      "name": "C5",
      "midi": 72,
      "time": 154.7781895000035,
      "velocity": 0.6062992125984252,
      "duration": 0.08532425000001354
    },
    {
      "name": "B4",
      "midi": 71,
      "time": 154.8635137500035,
      "velocity": 0.6062992125984252,
      "duration": 0.08532425000001354
    },
    {
      "name": "A#4",
      "midi": 70,
      "time": 154.94883800000352,
      "velocity": 0.6062992125984252,
      "duration": 0.08532425000001354
    },
    {
      "name": "A4",
      "midi": 69,
      "time": 155.03416225000353,
      "velocity": 0.6299212598425197,
      "duration": 0.08532425000001354
    },
    {
      "name": "G#4",
      "midi": 68,
      "time": 155.11948650000355,
      "velocity": 0.6535433070866141,
      "duration": 0.08532425000001354
    },
    {
      "name": "G4",
      "midi": 67,
      "time": 155.20481075000356,
      "velocity": 0.6692913385826772,
      "duration": 0.08532425000001354
    },
    {
      "name": "F#4",
      "midi": 66,
      "time": 155.29013500000357,
      "velocity": 0.6850393700787402,
      "duration": 0.08532425000001354
    },
    {
      "name": "E4",
      "midi": 64,
      "time": 155.3754592500036,
      "velocity": 0.7007874015748031,
      "duration": 0.08532425000001354
    },
    {
      "name": "D#4",
      "midi": 63,
      "time": 155.4607835000036,
      "velocity": 0.7244094488188977,
      "duration": 0.08532425000001354
    },
    {
      "name": "C#4",
      "midi": 61,
      "time": 155.5461077500036,
      "velocity": 0.7401574803149606,
      "duration": 0.08532425000001354
    },
    {
      "name": "G#3",
      "midi": 56,
      "time": 155.63143200000363,
      "velocity": 0.7559055118110236,
      "duration": 0.08532425000001354
    },
    {
      "name": "A6",
      "midi": 93,
      "time": 155.97272900000365,
      "velocity": 0.7086614173228346,
      "duration": 0.08532425000001354
    },
    {
      "name": "G#6",
      "midi": 92,
      "time": 156.05805325000367,
      "velocity": 0.6377952755905512,
      "duration": 0.08532425000001354
    },
    {
      "name": "E7",
      "midi": 100,
      "time": 156.14337750000368,
      "velocity": 0.6062992125984252,
      "duration": 0.08532425000001354
    },
    {
      "name": "E6",
      "midi": 88,
      "time": 156.2287017500037,
      "velocity": 0.6062992125984252,
      "duration": 0.08532425000001354
    },
    {
      "name": "F#6",
      "midi": 90,
      "time": 156.3140260000037,
      "velocity": 0.7086614173228346,
      "duration": 0.08532425000001354
    },
    {
      "name": "E6",
      "midi": 88,
      "time": 156.39935025000372,
      "velocity": 0.6062992125984252,
      "duration": 0.08532425000001354
    },
    {
      "name": "C#7",
      "midi": 97,
      "time": 156.48467450000373,
      "velocity": 0.6062992125984252,
      "duration": 0.08532425000001354
    },
    {
      "name": "C#6",
      "midi": 85,
      "time": 156.56999875000375,
      "velocity": 0.6062992125984252,
      "duration": 0.08532425000001354
    },
    {
      "name": "D#6",
      "midi": 87,
      "time": 156.65532300000376,
      "velocity": 0.7007874015748031,
      "duration": 0.08532425000001354
    },
    {
      "name": "C#6",
      "midi": 85,
      "time": 156.74064725000378,
      "velocity": 0.6062992125984252,
      "duration": 0.08532425000001354
    },
    {
      "name": "G#6",
      "midi": 92,
      "time": 156.8259715000038,
      "velocity": 0.6062992125984252,
      "duration": 0.08532425000001354
    },
    {
      "name": "G#5",
      "midi": 80,
      "time": 156.9112957500038,
      "velocity": 0.6062992125984252,
      "duration": 0.08532425000001354
    },
    {
      "name": "A5",
      "midi": 81,
      "time": 156.99662000000382,
      "velocity": 0.7007874015748031,
      "duration": 0.08532425000001354
    },
    {
      "name": "G#5",
      "midi": 80,
      "time": 157.08194425000383,
      "velocity": 0.6062992125984252,
      "duration": 0.08532425000001354
    },
    {
      "name": "E6",
      "midi": 88,
      "time": 157.16726850000384,
      "velocity": 0.6062992125984252,
      "duration": 0.08532425000001354
    },
    {
      "name": "E5",
      "midi": 76,
      "time": 157.25259275000386,
      "velocity": 0.6062992125984252,
      "duration": 0.08532425000001354
    },
    {
      "name": "F#5",
      "midi": 78,
      "time": 157.33791700000387,
      "velocity": 0.6929133858267716,
      "duration": 0.08532425000001354
    },
    {
      "name": "E5",
      "midi": 76,
      "time": 157.42324125000388,
      "velocity": 0.6062992125984252,
      "duration": 0.08532425000001354
    },
    {
      "name": "C#6",
      "midi": 85,
      "time": 157.5085655000039,
      "velocity": 0.6062992125984252,
      "duration": 0.08532425000001354
    },
    {
      "name": "C#5",
      "midi": 73,
      "time": 157.5938897500039,
      "velocity": 0.6062992125984252,
      "duration": 0.08532425000001354
    },
    {
      "name": "D#5",
      "midi": 75,
      "time": 157.67921400000392,
      "velocity": 0.7007874015748031,
      "duration": 0.08532425000001354
    },
    {
      "name": "C#5",
      "midi": 73,
      "time": 157.76453825000394,
      "velocity": 0.6062992125984252,
      "duration": 0.08532425000001354
    },
    {
      "name": "G#5",
      "midi": 80,
      "time": 157.84986250000395,
      "velocity": 0.6062992125984252,
      "duration": 0.08532425000001354
    },
    {
      "name": "G#4",
      "midi": 68,
      "time": 157.93518675000396,
      "velocity": 0.6062992125984252,
      "duration": 0.08532425000001354
    },
    {
      "name": "A4",
      "midi": 69,
      "time": 158.02051100000398,
      "velocity": 0.7086614173228346,
      "duration": 0.08532425000001354
    },
    {
      "name": "G#4",
      "midi": 68,
      "time": 158.105835250004,
      "velocity": 0.6062992125984252,
      "duration": 0.08532425000001354
    },
    {
      "name": "E5",
      "midi": 76,
      "time": 158.191159500004,
      "velocity": 0.6062992125984252,
      "duration": 0.08532425000001354
    },
    {
      "name": "E4",
      "midi": 64,
      "time": 158.27648375000402,
      "velocity": 0.6062992125984252,
      "duration": 0.08532425000001354
    },
    {
      "name": "F#4",
      "midi": 66,
      "time": 158.36180800000403,
      "velocity": 0.6929133858267716,
      "duration": 0.08532425000001354
    },
    {
      "name": "E4",
      "midi": 64,
      "time": 158.44713225000405,
      "velocity": 0.6062992125984252,
      "duration": 0.08532425000001354
    },
    {
      "name": "C#5",
      "midi": 73,
      "time": 158.53245650000406,
      "velocity": 0.6062992125984252,
      "duration": 0.08532425000001354
    },
    {
      "name": "C#4",
      "midi": 61,
      "time": 158.61778075000407,
      "velocity": 0.6062992125984252,
      "duration": 0.08532425000001354
    },
    {
      "name": "D#4",
      "midi": 63,
      "time": 158.7031050000041,
      "velocity": 0.7007874015748031,
      "duration": 0.08532425000001354
    },
    {
      "name": "C#4",
      "midi": 61,
      "time": 158.7884292500041,
      "velocity": 0.6062992125984252,
      "duration": 0.08532425000001354
    },
    {
      "name": "G#4",
      "midi": 68,
      "time": 158.8737535000041,
      "velocity": 0.6062992125984252,
      "duration": 0.08532425000001354
    },
    {
      "name": "G#3",
      "midi": 56,
      "time": 158.95907775000413,
      "velocity": 0.6062992125984252,
      "duration": 0.08532425000001354
    },
    {
      "name": "D#4",
      "midi": 63,
      "time": 159.04440200000414,
      "velocity": 0.7007874015748031,
      "duration": 0.08532425000001354
    },
    {
      "name": "C#4",
      "midi": 61,
      "time": 159.12972625000415,
      "velocity": 0.6062992125984252,
      "duration": 0.08532425000001354
    },
    {
      "name": "G#4",
      "midi": 68,
      "time": 159.21505050000417,
      "velocity": 0.6062992125984252,
      "duration": 0.08532425000001354
    },
    {
      "name": "G#3",
      "midi": 56,
      "time": 159.30037475000418,
      "velocity": 0.6062992125984252,
      "duration": 0.08532425000001354
    },
    {
      "name": "D#4",
      "midi": 63,
      "time": 159.3856990000042,
      "velocity": 0.7007874015748031,
      "duration": 0.08532425000001354
    },
    {
      "name": "C#4",
      "midi": 61,
      "time": 159.4710232500042,
      "velocity": 0.6062992125984252,
      "duration": 0.08532425000001354
    },
    {
      "name": "A4",
      "midi": 69,
      "time": 159.55634750000422,
      "velocity": 0.6062992125984252,
      "duration": 0.08532425000001354
    },
    {
      "name": "A3",
      "midi": 57,
      "time": 159.64167175000424,
      "velocity": 0.6062992125984252,
      "duration": 0.08532425000001354
    },
    {
      "name": "D#4",
      "midi": 63,
      "time": 159.72699600000425,
      "velocity": 0.7007874015748031,
      "duration": 0.08532425000001354
    },
    {
      "name": "C#4",
      "midi": 61,
      "time": 159.81232025000426,
      "velocity": 0.5905511811023622,
      "duration": 0.08532425000001354
    },
    {
      "name": "G#4",
      "midi": 68,
      "time": 159.89764450000428,
      "velocity": 0.5826771653543307,
      "duration": 0.08532425000001354
    },
    {
      "name": "G#3",
      "midi": 56,
      "time": 159.9829687500043,
      "velocity": 0.5748031496062992,
      "duration": 0.08532425000001354
    },
    {
      "name": "D#4",
      "midi": 63,
      "time": 160.0682930000043,
      "velocity": 0.6535433070866141,
      "duration": 0.08532425000001354
    },
    {
      "name": "C#4",
      "midi": 61,
      "time": 160.15361725000432,
      "velocity": 0.5590551181102362,
      "duration": 0.08532425000001354
    },
    {
      "name": "G4",
      "midi": 67,
      "time": 160.23894150000433,
      "velocity": 0.5590551181102362,
      "duration": 0.08532425000001354
    },
    {
      "name": "G3",
      "midi": 55,
      "time": 160.32426575000434,
      "velocity": 0.5511811023622047,
      "duration": 0.08532425000001354
    },
    {
      "name": "D#4",
      "midi": 63,
      "time": 160.40959000000436,
      "velocity": 0.6220472440944882,
      "duration": 0.08532425000001354
    },
    {
      "name": "C#4",
      "midi": 61,
      "time": 160.49491425000437,
      "velocity": 0.5354330708661418,
      "duration": 0.08532425000001354
    },
    {
      "name": "G#4",
      "midi": 68,
      "time": 160.58023850000438,
      "velocity": 0.5275590551181102,
      "duration": 0.08532425000001354
    },
    {
      "name": "G#3",
      "midi": 56,
      "time": 160.6655627500044,
      "velocity": 0.5196850393700787,
      "duration": 0.08532425000001354
    },
    {
      "name": "D#4",
      "midi": 63,
      "time": 160.7508870000044,
      "velocity": 0.5905511811023622,
      "duration": 0.08532425000001354
    },
    {
      "name": "C4",
      "midi": 60,
      "time": 160.83621125000442,
      "velocity": 0.49606299212598426,
      "duration": 0.08532425000001354
    },
    {
      "name": "G#4",
      "midi": 68,
      "time": 160.92153550000444,
      "velocity": 0.49606299212598426,
      "duration": 0.08532425000001354
    },
    {
      "name": "G#3",
      "midi": 56,
      "time": 161.00685975000445,
      "velocity": 0.4881889763779528,
      "duration": 0.08532425000001354
    },
    {
      "name": "D#4",
      "midi": 63,
      "time": 161.09218400000447,
      "velocity": 0.5748031496062992,
      "duration": 0.08532425000001354
    },
    {
      "name": "C#4",
      "midi": 61,
      "time": 161.17750825000448,
      "velocity": 0.5118110236220472,
      "duration": 0.08532425000001354
    },
    {
      "name": "G#4",
      "midi": 68,
      "time": 161.2628325000045,
      "velocity": 0.5118110236220472,
      "duration": 0.08532425000001354
    },
    {
      "name": "G#3",
      "midi": 56,
      "time": 161.3481567500045,
      "velocity": 0.5118110236220472,
      "duration": 0.08532425000001354
    },
    {
      "name": "A4",
      "midi": 69,
      "time": 161.43348100000452,
      "velocity": 0.5433070866141733,
      "duration": 0.08532425000001354
    },
    {
      "name": "G#4",
      "midi": 68,
      "time": 161.51880525000453,
      "velocity": 0.5118110236220472,
      "duration": 0.08532425000001354
    },
    {
      "name": "E5",
      "midi": 76,
      "time": 161.60412950000455,
      "velocity": 0.6535433070866141,
      "duration": 0.08532425000001354
    },
    {
      "name": "E4",
      "midi": 64,
      "time": 161.68945375000456,
      "velocity": 0.5039370078740157,
      "duration": 0.08532425000001354
    },
    {
      "name": "A4",
      "midi": 69,
      "time": 161.77477800000457,
      "velocity": 0.5511811023622047,
      "duration": 0.08532425000001354
    },
    {
      "name": "G#4",
      "midi": 68,
      "time": 161.8601022500046,
      "velocity": 0.5196850393700787,
      "duration": 0.08532425000001354
    },
    {
      "name": "E5",
      "midi": 76,
      "time": 161.9454265000046,
      "velocity": 0.6535433070866141,
      "duration": 0.08532425000001354
    },
    {
      "name": "E4",
      "midi": 64,
      "time": 162.03075075000461,
      "velocity": 0.47244094488188976,
      "duration": 0.08532425000001354
    },
    {
      "name": "A4",
      "midi": 69,
      "time": 162.11607500000463,
      "velocity": 0.5354330708661418,
      "duration": 0.08532425000001354
    },
    {
      "name": "G#4",
      "midi": 68,
      "time": 162.20139925000464,
      "velocity": 0.4881889763779528,
      "duration": 0.08532425000001354
    },
    {
      "name": "D#5",
      "midi": 75,
      "time": 162.28672350000465,
      "velocity": 0.6220472440944882,
      "duration": 0.08532425000001354
    },
    {
      "name": "D#4",
      "midi": 63,
      "time": 162.37204775000467,
      "velocity": 0.5590551181102362,
      "duration": 0.08532425000001354
    },
    {
      "name": "A4",
      "midi": 69,
      "time": 162.45737200000468,
      "velocity": 0.5354330708661418,
      "duration": 0.08532425000001354
    },
    {
      "name": "G#4",
      "midi": 68,
      "time": 162.5426962500047,
      "velocity": 0.5196850393700787,
      "duration": 0.08532425000001354
    },
    {
      "name": "D#5",
      "midi": 75,
      "time": 162.6280205000047,
      "velocity": 0.6535433070866141,
      "duration": 0.08532425000001354
    },
    {
      "name": "E4",
      "midi": 64,
      "time": 162.71334475000472,
      "velocity": 0.47244094488188976,
      "duration": 0.08532425000001354
    },
    {
      "name": "A4",
      "midi": 69,
      "time": 162.79866900000474,
      "velocity": 0.5354330708661418,
      "duration": 0.08532425000001354
    },
    {
      "name": "G#4",
      "midi": 68,
      "time": 162.88399325000475,
      "velocity": 0.4881889763779528,
      "duration": 0.08532425000001354
    },
    {
      "name": "C#5",
      "midi": 73,
      "time": 162.96931750000476,
      "velocity": 0.6220472440944882,
      "duration": 0.08532425000001354
    },
    {
      "name": "C#4",
      "midi": 61,
      "time": 163.05464175000478,
      "velocity": 0.5590551181102362,
      "duration": 0.08532425000001354
    },
    {
      "name": "E4",
      "midi": 64,
      "time": 163.1399660000048,
      "velocity": 0.4251968503937008,
      "duration": 0.08532425000001354
    },
    {
      "name": "D#4",
      "midi": 63,
      "time": 163.2252902500048,
      "velocity": 0.3858267716535433,
      "duration": 0.08532425000001354
    },
    {
      "name": "G#4",
      "midi": 68,
      "time": 163.31061450000482,
      "velocity": 0.4881889763779528,
      "duration": 0.08532425000001354
    },
    {
      "name": "G#3",
      "midi": 56,
      "time": 163.39593875000483,
      "velocity": 0.3543307086614173,
      "duration": 0.08532425000001354
    },
    {
      "name": "E4",
      "midi": 64,
      "time": 163.48126300000484,
      "velocity": 0.4015748031496063,
      "duration": 0.08532425000001354
    },
    {
      "name": "D#4",
      "midi": 63,
      "time": 163.56658725000486,
      "velocity": 0.36220472440944884,
      "duration": 0.08532425000001354
    },
    {
      "name": "G#4",
      "midi": 68,
      "time": 163.65191150000487,
      "velocity": 0.4645669291338583,
      "duration": 0.08532425000001354
    },
    {
      "name": "G#3",
      "midi": 56,
      "time": 163.73723575000488,
      "velocity": 0.41732283464566927,
      "duration": 0.08532425000001354
    },
    {
      "name": "D#4",
      "midi": 63,
      "time": 163.8225600000049,
      "velocity": 0.4251968503937008,
      "duration": 0.08532425000001354
    },
    {
      "name": "C#4",
      "midi": 61,
      "time": 163.9078842500049,
      "velocity": 0.3858267716535433,
      "duration": 0.08532425000001354
    },
    {
      "name": "G#4",
      "midi": 68,
      "time": 163.99320850000493,
      "velocity": 0.4881889763779528,
      "duration": 0.08532425000001354
    },
    {
      "name": "G#3",
      "midi": 56,
      "time": 164.07853275000494,
      "velocity": 0.3543307086614173,
      "duration": 0.08532425000001354
    },
    {
      "name": "A4",
      "midi": 69,
      "time": 164.16385700000495,
      "velocity": 0.5275590551181102,
      "duration": 0.08532425000001354
    },
    {
      "name": "G#4",
      "midi": 68,
      "time": 164.24918125000497,
      "velocity": 0.5118110236220472,
      "duration": 0.08532425000001354
    },
    {
      "name": "E5",
      "midi": 76,
      "time": 164.33450550000498,
      "velocity": 0.6535433070866141,
      "duration": 0.08532425000001354
    },
    {
      "name": "E4",
      "midi": 64,
      "time": 164.419829750005,
      "velocity": 0.5039370078740157,
      "duration": 0.08532425000001354
    },
    {
      "name": "A4",
      "midi": 69,
      "time": 164.505154000005,
      "velocity": 0.5354330708661418,
      "duration": 0.08532425000001354
    },
    {
      "name": "G#4",
      "midi": 68,
      "time": 164.59047825000502,
      "velocity": 0.5196850393700787,
      "duration": 0.08532425000001354
    },
    {
      "name": "E5",
      "midi": 76,
      "time": 164.67580250000503,
      "velocity": 0.6535433070866141,
      "duration": 0.08532425000001354
    },
    {
      "name": "E4",
      "midi": 64,
      "time": 164.76112675000505,
      "velocity": 0.47244094488188976,
      "duration": 0.08532425000001354
    },
    {
      "name": "A4",
      "midi": 69,
      "time": 164.84645100000506,
      "velocity": 0.5118110236220472,
      "duration": 0.08532425000001354
    },
    {
      "name": "G#4",
      "midi": 68,
      "time": 164.93177525000507,
      "velocity": 0.4881889763779528,
      "duration": 0.08532425000001354
    },
    {
      "name": "D#5",
      "midi": 75,
      "time": 165.0170995000051,
      "velocity": 0.6220472440944882,
      "duration": 0.08532425000001354
    },
    {
      "name": "D#4",
      "midi": 63,
      "time": 165.1024237500051,
      "velocity": 0.5196850393700787,
      "duration": 0.08532425000001354
    },
    {
      "name": "A4",
      "midi": 69,
      "time": 165.18774800000512,
      "velocity": 0.5196850393700787,
      "duration": 0.08532425000001354
    },
    {
      "name": "G#4",
      "midi": 68,
      "time": 165.27307225000513,
      "velocity": 0.5196850393700787,
      "duration": 0.08532425000001354
    },
    {
      "name": "D#5",
      "midi": 75,
      "time": 165.35839650000514,
      "velocity": 0.6535433070866141,
      "duration": 0.08532425000001354
    },
    {
      "name": "E4",
      "midi": 64,
      "time": 165.44372075000516,
      "velocity": 0.47244094488188976,
      "duration": 0.08532425000001354
    },
    {
      "name": "A4",
      "midi": 69,
      "time": 165.52904500000517,
      "velocity": 0.5275590551181102,
      "duration": 0.08532425000001354
    },
    {
      "name": "G#4",
      "midi": 68,
      "time": 165.61436925000518,
      "velocity": 0.4881889763779528,
      "duration": 0.08532425000001354
    },
    {
      "name": "C#5",
      "midi": 73,
      "time": 165.6996935000052,
      "velocity": 0.6220472440944882,
      "duration": 0.08532425000001354
    },
    {
      "name": "C#4",
      "midi": 61,
      "time": 165.7850177500052,
      "velocity": 0.5590551181102362,
      "duration": 0.08532425000001354
    },
    {
      "name": "E4",
      "midi": 64,
      "time": 165.87034200000522,
      "velocity": 0.4251968503937008,
      "duration": 0.08532425000001354
    },
    {
      "name": "D#4",
      "midi": 63,
      "time": 165.95566625000524,
      "velocity": 0.3858267716535433,
      "duration": 0.08532425000001354
    },
    {
      "name": "G#4",
      "midi": 68,
      "time": 166.04099050000525,
      "velocity": 0.4881889763779528,
      "duration": 0.08532425000001354
    },
    {
      "name": "G#3",
      "midi": 56,
      "time": 166.12631475000526,
      "velocity": 0.3543307086614173,
      "duration": 0.08532425000001354
    },
    {
      "name": "E4",
      "midi": 64,
      "time": 166.21163900000528,
      "velocity": 0.4015748031496063,
      "duration": 0.08532425000001354
    },
    {
      "name": "D#4",
      "midi": 63,
      "time": 166.2969632500053,
      "velocity": 0.36220472440944884,
      "duration": 0.08532425000001354
    },
    {
      "name": "G#4",
      "midi": 68,
      "time": 166.3822875000053,
      "velocity": 0.4645669291338583,
      "duration": 0.08532425000001354
    },
    {
      "name": "G#3",
      "midi": 56,
      "time": 166.46761175000532,
      "velocity": 0.41732283464566927,
      "duration": 0.08532425000001354
    },
    {
      "name": "D#4",
      "midi": 63,
      "time": 166.55293600000533,
      "velocity": 0.4251968503937008,
      "duration": 0.08532425000001354
    },
    {
      "name": "C#4",
      "midi": 61,
      "time": 166.63826025000535,
      "velocity": 0.3858267716535433,
      "duration": 0.08532425000001354
    },
    {
      "name": "G#4",
      "midi": 68,
      "time": 166.72358450000536,
      "velocity": 0.4881889763779528,
      "duration": 0.08532425000001354
    },
    {
      "name": "G#3",
      "midi": 56,
      "time": 166.80890875000537,
      "velocity": 0.3543307086614173,
      "duration": 0.08532425000001354
    },
    {
      "name": "A4",
      "midi": 69,
      "time": 166.89423300000539,
      "velocity": 0.4330708661417323,
      "duration": 0.08532425000001354
    },
    {
      "name": "G#4",
      "midi": 68,
      "time": 166.9795572500054,
      "velocity": 0.3779527559055118,
      "duration": 0.08532425000001354
    },
    {
      "name": "E5",
      "midi": 76,
      "time": 167.0648815000054,
      "velocity": 0.4881889763779528,
      "duration": 0.08532425000001354
    },
    {
      "name": "E4",
      "midi": 64,
      "time": 167.15020575000543,
      "velocity": 0.3779527559055118,
      "duration": 0.08532425000001354
    },
    {
      "name": "F#4",
      "midi": 66,
      "time": 167.23553000000544,
      "velocity": 0.4251968503937008,
      "duration": 0.08532425000001354
    },
    {
      "name": "E4",
      "midi": 64,
      "time": 167.32085425000545,
      "velocity": 0.3858267716535433,
      "duration": 0.08532425000001354
    },
    {
      "name": "C#5",
      "midi": 73,
      "time": 167.40617850000547,
      "velocity": 0.4881889763779528,
      "duration": 0.08532425000001354
    },
    {
      "name": "C#4",
      "midi": 61,
      "time": 167.49150275000548,
      "velocity": 0.3543307086614173,
      "duration": 0.08532425000001354
    },
    {
      "name": "A4",
      "midi": 69,
      "time": 167.5768270000055,
      "velocity": 0.4015748031496063,
      "duration": 0.08532425000001354
    },
    {
      "name": "G#4",
      "midi": 68,
      "time": 167.6621512500055,
      "velocity": 0.36220472440944884,
      "duration": 0.08532425000001354
    },
    {
      "name": "E5",
      "midi": 76,
      "time": 167.74747550000552,
      "velocity": 0.4645669291338583,
      "duration": 0.08532425000001354
    },
    {
      "name": "E4",
      "midi": 64,
      "time": 167.83279975000553,
      "velocity": 0.41732283464566927,
      "duration": 0.08532425000001354
    },
    {
      "name": "D#4",
      "midi": 63,
      "time": 167.91812400000555,
      "velocity": 0.4251968503937008,
      "duration": 0.08532425000001354
    },
    {
      "name": "C#4",
      "midi": 61,
      "time": 168.00344825000556,
      "velocity": 0.3858267716535433,
      "duration": 0.08532425000001354
    },
    {
      "name": "G#4",
      "midi": 68,
      "time": 168.08877250000558,
      "velocity": 0.4881889763779528,
      "duration": 0.08532425000001354
    },
    {
      "name": "G#3",
      "midi": 56,
      "time": 168.1740967500056,
      "velocity": 0.3543307086614173,
      "duration": 0.08532425000001354
    },
    {
      "name": "A4",
      "midi": 69,
      "time": 168.2594210000056,
      "velocity": 0.4330708661417323,
      "duration": 0.08532425000001354
    },
    {
      "name": "G#4",
      "midi": 68,
      "time": 168.34474525000562,
      "velocity": 0.3779527559055118,
      "duration": 0.08532425000001354
    },
    {
      "name": "E5",
      "midi": 76,
      "time": 168.43006950000563,
      "velocity": 0.4881889763779528,
      "duration": 0.08532425000001354
    },
    {
      "name": "E4",
      "midi": 64,
      "time": 168.51539375000564,
      "velocity": 0.3779527559055118,
      "duration": 0.08532425000001354
    },
    {
      "name": "F#4",
      "midi": 66,
      "time": 168.60071800000566,
      "velocity": 0.4251968503937008,
      "duration": 0.08532425000001354
    },
    {
      "name": "E4",
      "midi": 64,
      "time": 168.68604225000567,
      "velocity": 0.3858267716535433,
      "duration": 0.08532425000001354
    },
    {
      "name": "C#5",
      "midi": 73,
      "time": 168.77136650000568,
      "velocity": 0.4881889763779528,
      "duration": 0.08532425000001354
    },
    {
      "name": "C#4",
      "midi": 61,
      "time": 168.8566907500057,
      "velocity": 0.3543307086614173,
      "duration": 0.08532425000001354
    },
    {
      "name": "A4",
      "midi": 69,
      "time": 168.9420150000057,
      "velocity": 0.4015748031496063,
      "duration": 0.08532425000001354
    },
    {
      "name": "G#4",
      "midi": 68,
      "time": 169.02733925000572,
      "velocity": 0.36220472440944884,
      "duration": 0.08532425000001354
    },
    {
      "name": "E5",
      "midi": 76,
      "time": 169.11266350000574,
      "velocity": 0.4645669291338583,
      "duration": 0.08532425000001354
    },
    {
      "name": "E4",
      "midi": 64,
      "time": 169.19798775000575,
      "velocity": 0.41732283464566927,
      "duration": 0.08532425000001354
    },
    {
      "name": "F#4",
      "midi": 66,
      "time": 169.28331200000576,
      "velocity": 0.4251968503937008,
      "duration": 0.08532425000001354
    },
    {
      "name": "E4",
      "midi": 64,
      "time": 169.36863625000578,
      "velocity": 0.3858267716535433,
      "duration": 0.08532425000001354
    },
    {
      "name": "C#5",
      "midi": 73,
      "time": 169.4539605000058,
      "velocity": 0.48031496062992124,
      "duration": 0.08532425000001354
    },
    {
      "name": "C#4",
      "midi": 61,
      "time": 169.5392847500058,
      "velocity": 0.3464566929133858,
      "duration": 0.08532425000001354
    },
    {
      "name": "A4",
      "midi": 69,
      "time": 169.62460900000582,
      "velocity": 0.41732283464566927,
      "duration": 0.08532425000001354
    },
    {
      "name": "G#4",
      "midi": 68,
      "time": 169.70993325000583,
      "velocity": 0.36220472440944884,
      "duration": 0.08532425000001354
    },
    {
      "name": "C#5",
      "midi": 73,
      "time": 169.79525750000585,
      "velocity": 0.47244094488188976,
      "duration": 0.08532425000001354
    },
    {
      "name": "C#4",
      "midi": 61,
      "time": 169.88058175000586,
      "velocity": 0.36220472440944884,
      "duration": 0.08532425000001354
    },
    {
      "name": "F#4",
      "midi": 66,
      "time": 169.96590600000587,
      "velocity": 0.4015748031496063,
      "duration": 0.08532425000001354
    },
    {
      "name": "E4",
      "midi": 64,
      "time": 170.0512302500059,
      "velocity": 0.36220472440944884,
      "duration": 0.08532425000001354
    },
    {
      "name": "C#5",
      "midi": 73,
      "time": 170.1365545000059,
      "velocity": 0.4566929133858268,
      "duration": 0.08532425000001354
    },
    {
      "name": "C#4",
      "midi": 61,
      "time": 170.2218787500059,
      "velocity": 0.33070866141732286,
      "duration": 0.08532425000001354
    },
    {
      "name": "A4",
      "midi": 69,
      "time": 170.30720300000593,
      "velocity": 0.3700787401574803,
      "duration": 0.08532425000001354
    },
    {
      "name": "G#4",
      "midi": 68,
      "time": 170.39252725000594,
      "velocity": 0.33070866141732286,
      "duration": 0.08532425000001354
    },
    {
      "name": "C#5",
      "midi": 73,
      "time": 170.47785150000595,
      "velocity": 0.4251968503937008,
      "duration": 0.08532425000001354
    },
    {
      "name": "C#4",
      "midi": 61,
      "time": 170.56317575000597,
      "velocity": 0.3779527559055118,
      "duration": 0.08532425000001354
    },
    {
      "name": "F#4",
      "midi": 66,
      "time": 170.64850000000598,
      "velocity": 0.3779527559055118,
      "duration": 0.08532425000001354
    },
    {
      "name": "E4",
      "midi": 64,
      "time": 170.733824250006,
      "velocity": 0.3464566929133858,
      "duration": 0.08532425000001354
    },
    {
      "name": "C#5",
      "midi": 73,
      "time": 170.819148500006,
      "velocity": 0.4330708661417323,
      "duration": 0.08532425000001354
    },
    {
      "name": "C#4",
      "midi": 61,
      "time": 170.90447275000602,
      "velocity": 0.31496062992125984,
      "duration": 0.08532425000001354
    },
    {
      "name": "A4",
      "midi": 69,
      "time": 170.98979700000604,
      "velocity": 0.3779527559055118,
      "duration": 0.08532425000001354
    },
    {
      "name": "G#4",
      "midi": 68,
      "time": 171.07512125000605,
      "velocity": 0.3228346456692913,
      "duration": 0.08532425000001354
    },
    {
      "name": "C#5",
      "midi": 73,
      "time": 171.16044550000606,
      "velocity": 0.41732283464566927,
      "duration": 0.08532425000001354
    },
    {
      "name": "C#4",
      "midi": 61,
      "time": 171.24576975000608,
      "velocity": 0.3228346456692913,
      "duration": 0.08532425000001354
    },
    {
      "name": "F#4",
      "midi": 66,
      "time": 171.3310940000061,
      "velocity": 0.3543307086614173,
      "duration": 0.08532425000001354
    },
    {
      "name": "E4",
      "midi": 64,
      "time": 171.4164182500061,
      "velocity": 0.3228346456692913,
      "duration": 0.08532425000001354
    },
    {
      "name": "C#5",
      "midi": 73,
      "time": 171.50174250000612,
      "velocity": 0.4094488188976378,
      "duration": 0.08532425000001354
    },
    {
      "name": "C#4",
      "midi": 61,
      "time": 171.58706675000613,
      "velocity": 0.29133858267716534,
      "duration": 0.08532425000001354
    },
    {
      "name": "A4",
      "midi": 69,
      "time": 171.67239100000614,
      "velocity": 0.33070866141732286,
      "duration": 0.08532425000001354
    },
    {
      "name": "G#4",
      "midi": 68,
      "time": 171.75771525000616,
      "velocity": 0.29133858267716534,
      "duration": 0.08532425000001354
    },
    {
      "name": "C#5",
      "midi": 73,
      "time": 171.84303950000617,
      "velocity": 0.3779527559055118,
      "duration": 0.08532425000001354
    },
    {
      "name": "C#4",
      "midi": 61,
      "time": 171.92836375000618,
      "velocity": 0.33070866141732286,
      "duration": 0.08532425000001354
    },
    {
      "name": "D#4",
      "midi": 63,
      "time": 172.0136880000062,
      "velocity": 0.33858267716535434,
      "duration": 0.08532425000001354
    },
    {
      "name": "C#4",
      "midi": 61,
      "time": 172.0990122500062,
      "velocity": 0.30708661417322836,
      "duration": 0.08532425000001354
    },
    {
      "name": "G#4",
      "midi": 68,
      "time": 172.18433650000622,
      "velocity": 0.3858267716535433,
      "duration": 0.08532425000001354
    },
    {
      "name": "G#3",
      "midi": 56,
      "time": 172.26966075000624,
      "velocity": 0.28346456692913385,
      "duration": 0.08532425000001354
    },
    {
      "name": "D#4",
      "midi": 63,
      "time": 172.35498500000625,
      "velocity": 0.3464566929133858,
      "duration": 0.08532425000001354
    },
    {
      "name": "C#4",
      "midi": 61,
      "time": 172.44030925000627,
      "velocity": 0.2992125984251969,
      "duration": 0.08532425000001354
    },
    {
      "name": "G#4",
      "midi": 68,
      "time": 172.52563350000628,
      "velocity": 0.3858267716535433,
      "duration": 0.08532425000001354
    },
    {
      "name": "G#3",
      "midi": 56,
      "time": 172.6109577500063,
      "velocity": 0.2992125984251969,
      "duration": 0.08532425000001354
    },
    {
      "name": "D#4",
      "midi": 63,
      "time": 172.6962820000063,
      "velocity": 0.33858267716535434,
      "duration": 0.08532425000001354
    },
    {
      "name": "C#4",
      "midi": 61,
      "time": 172.78160625000632,
      "velocity": 0.30708661417322836,
      "duration": 0.08532425000001354
    },
    {
      "name": "G#4",
      "midi": 68,
      "time": 172.86693050000633,
      "velocity": 0.3858267716535433,
      "duration": 0.08532425000001354
    },
    {
      "name": "G#3",
      "midi": 56,
      "time": 172.95225475000635,
      "velocity": 0.28346456692913385,
      "duration": 0.08532425000001354
    },
    {
      "name": "D#4",
      "midi": 63,
      "time": 173.03757900000636,
      "velocity": 0.31496062992125984,
      "duration": 0.08532425000001354
    },
    {
      "name": "C#4",
      "midi": 61,
      "time": 173.12290325000637,
      "velocity": 0.28346456692913385,
      "duration": 0.08532425000001354
    },
    {
      "name": "G#4",
      "midi": 68,
      "time": 173.2082275000064,
      "velocity": 0.3700787401574803,
      "duration": 0.08532425000001354
    },
    {
      "name": "G#3",
      "midi": 56,
      "time": 173.2935517500064,
      "velocity": 0.33070866141732286,
      "duration": 0.08532425000001354
    },
    {
      "name": "D#4",
      "midi": 63,
      "time": 173.37887600000641,
      "velocity": 0.33858267716535434,
      "duration": 0.08532425000001354
    },
    {
      "name": "C#4",
      "midi": 61,
      "time": 173.46420025000643,
      "velocity": 0.30708661417322836,
      "duration": 0.08532425000001354
    },
    {
      "name": "G#4",
      "midi": 68,
      "time": 173.54952450000644,
      "velocity": 0.3779527559055118,
      "duration": 0.08532425000001354
    },
    {
      "name": "G#3",
      "midi": 56,
      "time": 173.63484875000646,
      "velocity": 0.2755905511811024,
      "duration": 0.08532425000001354
    },
    {
      "name": "D#4",
      "midi": 63,
      "time": 173.72017300000647,
      "velocity": 0.33070866141732286,
      "duration": 0.08532425000001354
    },
    {
      "name": "C#4",
      "midi": 61,
      "time": 173.80549725000648,
      "velocity": 0.28346456692913385,
      "duration": 0.08532425000001354
    },
    {
      "name": "G#4",
      "midi": 68,
      "time": 173.8908215000065,
      "velocity": 0.36220472440944884,
      "duration": 0.08532425000001354
    },
    {
      "name": "G#3",
      "midi": 56,
      "time": 173.9761457500065,
      "velocity": 0.2755905511811024,
      "duration": 0.08532425000001354
    },
    {
      "name": "D#4",
      "midi": 63,
      "time": 174.06147000000652,
      "velocity": 0.30708661417322836,
      "duration": 0.08532425000001354
    },
    {
      "name": "C#4",
      "midi": 61,
      "time": 174.14679425000654,
      "velocity": 0.2755905511811024,
      "duration": 0.08532425000001354
    },
    {
      "name": "G#4",
      "midi": 68,
      "time": 174.23211850000655,
      "velocity": 0.3464566929133858,
      "duration": 0.08532425000001354
    },
    {
      "name": "G#3",
      "midi": 56,
      "time": 174.31744275000656,
      "velocity": 0.25196850393700787,
      "duration": 0.08532425000001354
    },
    {
      "name": "D#4",
      "midi": 63,
      "time": 174.40276700000658,
      "velocity": 0.2755905511811024,
      "duration": 0.08532425000001354
    },
    {
      "name": "C#4",
      "midi": 61,
      "time": 174.4880912500066,
      "velocity": 0.2440944881889764,
      "duration": 0.08532425000001354
    },
    {
      "name": "G#4",
      "midi": 68,
      "time": 174.5734155000066,
      "velocity": 0.31496062992125984,
      "duration": 0.08532425000001354
    },
    {
      "name": "G#3",
      "midi": 56,
      "time": 174.65873975000662,
      "velocity": 0.28346456692913385,
      "duration": 0.08532425000001354
    },
    {
      "name": "D#4",
      "midi": 63,
      "time": 174.74406400000663,
      "velocity": 0.28346456692913385,
      "duration": 0.08532425000001354
    },
    {
      "name": "C#4",
      "midi": 61,
      "time": 174.82938825000664,
      "velocity": 0.25984251968503935,
      "duration": 0.08532425000001354
    },
    {
      "name": "G#4",
      "midi": 68,
      "time": 174.91471250000666,
      "velocity": 0.3228346456692913,
      "duration": 0.08532425000001354
    },
    {
      "name": "G#3",
      "midi": 56,
      "time": 175.00003675000667,
      "velocity": 0.23622047244094488,
      "duration": 0.08532425000001354
    },
    {
      "name": "D#4",
      "midi": 63,
      "time": 175.08536100000669,
      "velocity": 0.29133858267716534,
      "duration": 0.08532425000001354
    },
    {
      "name": "C#4",
      "midi": 61,
      "time": 175.1706852500067,
      "velocity": 0.25196850393700787,
      "duration": 0.08532425000001354
    },
    {
      "name": "G#4",
      "midi": 68,
      "time": 175.2560095000067,
      "velocity": 0.3228346456692913,
      "duration": 0.08532425000001354
    },
    {
      "name": "G#3",
      "midi": 56,
      "time": 175.34133375000673,
      "velocity": 0.25196850393700787,
      "duration": 0.08532425000001354
    },
    {
      "name": "D#4",
      "midi": 63,
      "time": 175.42665800000674,
      "velocity": 0.28346456692913385,
      "duration": 0.08532425000001354
    },
    {
      "name": "C#4",
      "midi": 61,
      "time": 175.51198225000675,
      "velocity": 0.25984251968503935,
      "duration": 0.08532425000001354
    },
    {
      "name": "G#4",
      "midi": 68,
      "time": 175.59730650000677,
      "velocity": 0.3228346456692913,
      "duration": 0.08532425000001354
    },
    {
      "name": "G#3",
      "midi": 56,
      "time": 175.68263075000678,
      "velocity": 0.23622047244094488,
      "duration": 0.08532425000001354
    },
    {
      "name": "D#4",
      "midi": 63,
      "time": 175.7679550000068,
      "velocity": 0.2677165354330709,
      "duration": 0.08532425000001354
    },
    {
      "name": "C#4",
      "midi": 61,
      "time": 175.8532792500068,
      "velocity": 0.23622047244094488,
      "duration": 0.08532425000001354
    },
    {
      "name": "G#4",
      "midi": 68,
      "time": 175.93860350000682,
      "velocity": 0.30708661417322836,
      "duration": 0.08532425000001354
    },
    {
      "name": "G#3",
      "midi": 56,
      "time": 176.02392775000683,
      "velocity": 0.2755905511811024,
      "duration": 0.08532425000001354
    },
    {
      "name": "D#4",
      "midi": 63,
      "time": 176.10925200000685,
      "velocity": 0.28346456692913385,
      "duration": 0.08532425000001354
    },
    {
      "name": "C#4",
      "midi": 61,
      "time": 176.19457625000686,
      "velocity": 0.25984251968503935,
      "duration": 0.08532425000001354
    },
    {
      "name": "G#4",
      "midi": 68,
      "time": 176.27990050000687,
      "velocity": 0.3228346456692913,
      "duration": 0.08532425000001354
    },
    {
      "name": "G#3",
      "midi": 56,
      "time": 176.3652247500069,
      "velocity": 0.23622047244094488,
      "duration": 0.08532425000001354
    },
    {
      "name": "D#4",
      "midi": 63,
      "time": 176.4505490000069,
      "velocity": 0.29133858267716534,
      "duration": 0.08532425000001354
    },
    {
      "name": "C#4",
      "midi": 61,
      "time": 176.53587325000692,
      "velocity": 0.25196850393700787,
      "duration": 0.08532425000001354
    },
    {
      "name": "G#4",
      "midi": 68,
      "time": 176.62119750000693,
      "velocity": 0.3228346456692913,
      "duration": 0.08532425000001354
    },
    {
      "name": "G#3",
      "midi": 56,
      "time": 176.70652175000694,
      "velocity": 0.25196850393700787,
      "duration": 0.08532425000001354
    },
    {
      "name": "D#4",
      "midi": 63,
      "time": 176.79184600000696,
      "velocity": 0.28346456692913385,
      "duration": 0.08532425000001354
    },
    {
      "name": "C#4",
      "midi": 61,
      "time": 176.87717025000697,
      "velocity": 0.25984251968503935,
      "duration": 0.08532425000001354
    },
    {
      "name": "G#4",
      "midi": 68,
      "time": 176.96249450000698,
      "velocity": 0.3228346456692913,
      "duration": 0.08532425000001354
    },
    {
      "name": "G#3",
      "midi": 56,
      "time": 177.047818750007,
      "velocity": 0.23622047244094488,
      "duration": 0.08532425000001354
    },
    {
      "name": "D#4",
      "midi": 63,
      "time": 177.133143000007,
      "velocity": 0.2677165354330709,
      "duration": 0.08532425000001354
    },
    {
      "name": "C#4",
      "midi": 61,
      "time": 177.21846725000702,
      "velocity": 0.23622047244094488,
      "duration": 0.08532425000001354
    },
    {
      "name": "G#4",
      "midi": 68,
      "time": 177.30379150000704,
      "velocity": 0.30708661417322836,
      "duration": 0.08532425000001354
    },
    {
      "name": "G#3",
      "midi": 56,
      "time": 177.38911575000705,
      "velocity": 0.2755905511811024,
      "duration": 0.08532425000001354
    },
    {
      "name": "D#4",
      "midi": 63,
      "time": 177.47444000000706,
      "velocity": 0.28346456692913385,
      "duration": 0.08532425000001354
    },
    {
      "name": "C#4",
      "midi": 61,
      "time": 177.55976425000708,
      "velocity": 0.25984251968503935,
      "duration": 0.08532425000001354
    },
    {
      "name": "G#4",
      "midi": 68,
      "time": 177.6450885000071,
      "velocity": 0.3228346456692913,
      "duration": 0.08532425000001354
    },
    {
      "name": "G#3",
      "midi": 56,
      "time": 177.7304127500071,
      "velocity": 0.23622047244094488,
      "duration": 0.08532425000001354
    },
    {
      "name": "D#4",
      "midi": 63,
      "time": 177.81573700000712,
      "velocity": 0.29133858267716534,
      "duration": 0.08532425000001354
    },
    {
      "name": "C#4",
      "midi": 61,
      "time": 177.90106125000713,
      "velocity": 0.25196850393700787,
      "duration": 0.08532425000001354
    },
    {
      "name": "G#4",
      "midi": 68,
      "time": 177.98638550000715,
      "velocity": 0.3228346456692913,
      "duration": 0.08532425000001354
    },
    {
      "name": "G#3",
      "midi": 56,
      "time": 178.07170975000716,
      "velocity": 0.25196850393700787,
      "duration": 0.08532425000001354
    },
    {
      "name": "D#4",
      "midi": 63,
      "time": 178.15703400000717,
      "velocity": 0.28346456692913385,
      "duration": 0.08532425000001354
    },
    {
      "name": "C#4",
      "midi": 61,
      "time": 178.2423582500072,
      "velocity": 0.25984251968503935,
      "duration": 0.08532425000001354
    },
    {
      "name": "G#4",
      "midi": 68,
      "time": 178.3276825000072,
      "velocity": 0.3228346456692913,
      "duration": 0.08532425000001354
    },
    {
      "name": "G#3",
      "midi": 56,
      "time": 178.4130067500072,
      "velocity": 0.23622047244094488,
      "duration": 0.08532425000001354
    },
    {
      "name": "D#4",
      "midi": 63,
      "time": 178.49833100000723,
      "velocity": 0.2677165354330709,
      "duration": 0.08532425000001354
    },
    {
      "name": "C#4",
      "midi": 61,
      "time": 178.58365525000724,
      "velocity": 0.23622047244094488,
      "duration": 0.08532425000001354
    },
    {
      "name": "G#4",
      "midi": 68,
      "time": 178.66897950000725,
      "velocity": 0.30708661417322836,
      "duration": 0.08532425000001354
    },
    {
      "name": "G#3",
      "midi": 56,
      "time": 178.75430375000727,
      "velocity": 0.2755905511811024,
      "duration": 0.08532425000001354
    },
    {
      "name": "D#4",
      "midi": 63,
      "time": 178.83962800000728,
      "velocity": 0.28346456692913385,
      "duration": 0.08532425000001354
    },
    {
      "name": "C#4",
      "midi": 61,
      "time": 178.9249522500073,
      "velocity": 0.25984251968503935,
      "duration": 0.08532425000001354
    },
    {
      "name": "G#4",
      "midi": 68,
      "time": 179.0102765000073,
      "velocity": 0.3228346456692913,
      "duration": 0.08532425000001354
    },
    {
      "name": "G#3",
      "midi": 56,
      "time": 179.09560075000732,
      "velocity": 0.23622047244094488,
      "duration": 0.08532425000001354
    },
    {
      "name": "D#4",
      "midi": 63,
      "time": 179.18092500000733,
      "velocity": 0.29133858267716534,
      "duration": 0.08532425000001354
    },
    {
      "name": "C#4",
      "midi": 61,
      "time": 179.26624925000735,
      "velocity": 0.25196850393700787,
      "duration": 0.08532425000001354
    },
    {
      "name": "G#4",
      "midi": 68,
      "time": 179.35157350000736,
      "velocity": 0.3228346456692913,
      "duration": 0.08532425000001354
    },
    {
      "name": "G#3",
      "midi": 56,
      "time": 179.43689775000738,
      "velocity": 0.25196850393700787,
      "duration": 0.08532425000001354
    },
    {
      "name": "D#4",
      "midi": 63,
      "time": 179.5222220000074,
      "velocity": 0.28346456692913385,
      "duration": 0.08532425000001354
    },
    {
      "name": "C#4",
      "midi": 61,
      "time": 179.6075462500074,
      "velocity": 0.25984251968503935,
      "duration": 0.08532425000001354
    },
    {
      "name": "G#4",
      "midi": 68,
      "time": 179.69287050000742,
      "velocity": 0.3228346456692913,
      "duration": 0.08532425000001354
    },
    {
      "name": "G#3",
      "midi": 56,
      "time": 179.77819475000743,
      "velocity": 0.23622047244094488,
      "duration": 0.08532425000001354
    },
    {
      "name": "D#4",
      "midi": 63,
      "time": 179.86351900000744,
      "velocity": 0.2677165354330709,
      "duration": 0.08532425000001354
    },
    {
      "name": "C#4",
      "midi": 61,
      "time": 179.94884325000746,
      "velocity": 0.23622047244094488,
      "duration": 0.08532425000001354
    },
    {
      "name": "G#4",
      "midi": 68,
      "time": 180.03416750000747,
      "velocity": 0.30708661417322836,
      "duration": 0.08532425000001354
    },
    {
      "name": "G#3",
      "midi": 56,
      "time": 180.11949175000748,
      "velocity": 0.2755905511811024,
      "duration": 0.08532425000001354
    },
    {
      "name": "D#4",
      "midi": 63,
      "time": 180.2048160000075,
      "velocity": 0.28346456692913385,
      "duration": 0.08532425000001354
    },
    {
      "name": "C#4",
      "midi": 61,
      "time": 180.2901402500075,
      "velocity": 0.25984251968503935,
      "duration": 0.08532425000001354
    },
    {
      "name": "G#4",
      "midi": 68,
      "time": 180.37546450000752,
      "velocity": 0.3228346456692913,
      "duration": 0.08532425000001354
    },
    {
      "name": "G#3",
      "midi": 56,
      "time": 180.46078875000754,
      "velocity": 0.23622047244094488,
      "duration": 0.08532425000001354
    },
    {
      "name": "D#4",
      "midi": 63,
      "time": 180.54611300000755,
      "velocity": 0.29133858267716534,
      "duration": 0.08532425000001354
    },
    {
      "name": "C#4",
      "midi": 61,
      "time": 180.63143725000756,
      "velocity": 0.25196850393700787,
      "duration": 0.08532425000001354
    },
    {
      "name": "G#4",
      "midi": 68,
      "time": 180.71676150000758,
      "velocity": 0.3228346456692913,
      "duration": 0.08532425000001354
    },
    {
      "name": "G#3",
      "midi": 56,
      "time": 180.8020857500076,
      "velocity": 0.25196850393700787,
      "duration": 0.08532425000001354
    },
    {
      "name": "D#4",
      "midi": 63,
      "time": 180.8874100000076,
      "velocity": 0.28346456692913385,
      "duration": 0.08532425000001354
    },
    {
      "name": "C#4",
      "midi": 61,
      "time": 180.97273425000762,
      "velocity": 0.25984251968503935,
      "duration": 0.08532425000001354
    },
    {
      "name": "G#4",
      "midi": 68,
      "time": 181.05805850000763,
      "velocity": 0.3228346456692913,
      "duration": 0.08532425000001354
    },
    {
      "name": "G#3",
      "midi": 56,
      "time": 181.14338275000765,
      "velocity": 0.23622047244094488,
      "duration": 0.08532425000001354
    },
    {
      "name": "D#4",
      "midi": 63,
      "time": 181.22870700000766,
      "velocity": 0.2677165354330709,
      "duration": 0.08532425000001354
    },
    {
      "name": "C#4",
      "midi": 61,
      "time": 181.31403125000767,
      "velocity": 0.23622047244094488,
      "duration": 0.08532425000001354
    },
    {
      "name": "G#4",
      "midi": 68,
      "time": 181.3993555000077,
      "velocity": 0.30708661417322836,
      "duration": 0.08532425000001354
    },
    {
      "name": "G#3",
      "midi": 56,
      "time": 181.4846797500077,
      "velocity": 0.2755905511811024,
      "duration": 0.08532425000001354
    },
    {
      "name": "D#4",
      "midi": 63,
      "time": 181.5700040000077,
      "velocity": 0.28346456692913385,
      "duration": 0.08532425000001354
    },
    {
      "name": "C#4",
      "midi": 61,
      "time": 181.65532825000773,
      "velocity": 0.25984251968503935,
      "duration": 0.08532425000001354
    },
    {
      "name": "G#4",
      "midi": 68,
      "time": 181.74065250000774,
      "velocity": 0.3228346456692913,
      "duration": 0.08532425000001354
    },
    {
      "name": "G#3",
      "midi": 56,
      "time": 181.82597675000775,
      "velocity": 0.23622047244094488,
      "duration": 0.08532425000001354
    },
    {
      "name": "D#4",
      "midi": 63,
      "time": 181.91130100000777,
      "velocity": 0.29133858267716534,
      "duration": 0.08532425000001354
    },
    {
      "name": "C#4",
      "midi": 61,
      "time": 181.99662525000778,
      "velocity": 0.25196850393700787,
      "duration": 0.08532425000001354
    },
    {
      "name": "G#4",
      "midi": 68,
      "time": 182.0819495000078,
      "velocity": 0.3228346456692913,
      "duration": 0.08532425000001354
    },
    {
      "name": "G#3",
      "midi": 56,
      "time": 182.1672737500078,
      "velocity": 0.25196850393700787,
      "duration": 0.08532425000001354
    },
    {
      "name": "D#4",
      "midi": 63,
      "time": 182.25259800000782,
      "velocity": 0.28346456692913385,
      "duration": 0.08532425000001354
    },
    {
      "name": "C#4",
      "midi": 61,
      "time": 182.33792225000784,
      "velocity": 0.25984251968503935,
      "duration": 0.08532425000001354
    },
    {
      "name": "G#4",
      "midi": 68,
      "time": 182.42324650000785,
      "velocity": 0.3228346456692913,
      "duration": 0.08532425000001354
    },
    {
      "name": "G#3",
      "midi": 56,
      "time": 182.50857075000786,
      "velocity": 0.23622047244094488,
      "duration": 0.08532425000001354
    },
    {
      "name": "D#4",
      "midi": 63,
      "time": 182.59389500000788,
      "velocity": 0.2677165354330709,
      "duration": 0.08532425000001354
    },
    {
      "name": "C#4",
      "midi": 61,
      "time": 182.6792192500079,
      "velocity": 0.23622047244094488,
      "duration": 0.08532425000001354
    },
    {
      "name": "G#4",
      "midi": 68,
      "time": 182.7645435000079,
      "velocity": 0.30708661417322836,
      "duration": 0.08532425000001354
    },
    {
      "name": "G#3",
      "midi": 56,
      "time": 182.84986775000792,
      "velocity": 0.2755905511811024,
      "duration": 0.08532425000001354
    },
    {
      "name": "D#4",
      "midi": 63,
      "time": 182.93519200000793,
      "velocity": 0.28346456692913385,
      "duration": 0.08532425000001354
    },
    {
      "name": "C#4",
      "midi": 61,
      "time": 183.02051625000794,
      "velocity": 0.2283464566929134,
      "duration": 0.08532425000001354
    },
    {
      "name": "G#4",
      "midi": 68,
      "time": 183.10584050000796,
      "velocity": 0.2755905511811024,
      "duration": 0.08532425000001354
    },
    {
      "name": "F3",
      "midi": 53,
      "time": 183.19116475000797,
      "velocity": 0.29133858267716534,
      "duration": 0.08532425000001354
    },
    {
      "name": "D#4",
      "midi": 63,
      "time": 183.27648900000798,
      "velocity": 0.3464566929133858,
      "duration": 0.08532425000001354
    },
    {
      "name": "C#4",
      "midi": 61,
      "time": 183.361813250008,
      "velocity": 0.2204724409448819,
      "duration": 0.08532425000001354
    },
    {
      "name": "G#4",
      "midi": 68,
      "time": 183.447137500008,
      "velocity": 0.28346456692913385,
      "duration": 0.08532425000001354
    },
    {
      "name": "F3",
      "midi": 53,
      "time": 183.53246175000803,
      "velocity": 0.29133858267716534,
      "duration": 0.08532425000001354
    },
    {
      "name": "D#4",
      "midi": 63,
      "time": 183.61778600000804,
      "velocity": 0.33858267716535434,
      "duration": 0.08532425000001354
    },
    {
      "name": "C#4",
      "midi": 61,
      "time": 183.70311025000805,
      "velocity": 0.2283464566929134,
      "duration": 0.08532425000001354
    },
    {
      "name": "G#4",
      "midi": 68,
      "time": 183.78843450000807,
      "velocity": 0.29133858267716534,
      "duration": 0.08532425000001354
    },
    {
      "name": "F3",
      "midi": 53,
      "time": 183.87375875000808,
      "velocity": 0.29133858267716534,
      "duration": 0.08532425000001354
    },
    {
      "name": "D#4",
      "midi": 63,
      "time": 183.9590830000081,
      "velocity": 0.3543307086614173,
      "duration": 0.08532425000001354
    },
    {
      "name": "C#4",
      "midi": 61,
      "time": 184.0444072500081,
      "velocity": 0.2125984251968504,
      "duration": 0.08532425000001354
    },
    {
      "name": "G#4",
      "midi": 68,
      "time": 184.12973150000812,
      "velocity": 0.28346456692913385,
      "duration": 0.08532425000001354
    },
    {
      "name": "F3",
      "midi": 53,
      "time": 184.21505575000813,
      "velocity": 0.2440944881889764,
      "duration": 0.08532425000001354
    },
    {
      "name": "F4",
      "midi": 65,
      "time": 184.30038000000815,
      "velocity": 0.25196850393700787,
      "duration": 0.08532425000001354
    },
    {
      "name": "D#4",
      "midi": 63,
      "time": 184.38997046250816,
      "velocity": 0.2283464566929134,
      "duration": 0.08532424999998511
    },
    {
      "name": "G#4",
      "midi": 68,
      "time": 184.47102850000815,
      "velocity": 0.2755905511811024,
      "duration": 0.08532424999998511
    },
    {
      "name": "F#3",
      "midi": 54,
      "time": 184.55635275000813,
      "velocity": 0.2992125984251969,
      "duration": 0.08532425000001354
    },
    {
      "name": "F4",
      "midi": 65,
      "time": 184.64167700000814,
      "velocity": 0.3464566929133858,
      "duration": 0.08532425000001354
    },
    {
      "name": "D#4",
      "midi": 63,
      "time": 184.72700125000816,
      "velocity": 0.2204724409448819,
      "duration": 0.08532425000001354
    },
    {
      "name": "G#4",
      "midi": 68,
      "time": 184.81232550000817,
      "velocity": 0.2755905511811024,
      "duration": 0.08532425000001354
    },
    {
      "name": "F#3",
      "midi": 54,
      "time": 184.89764975000818,
      "velocity": 0.2992125984251969,
      "duration": 0.08532425000001354
    },
    {
      "name": "F4",
      "midi": 65,
      "time": 184.9872402125082,
      "velocity": 0.33070866141732286,
      "duration": 0.08532425000001354
    },
    {
      "name": "D#4",
      "midi": 63,
      "time": 185.0725644625082,
      "velocity": 0.2283464566929134,
      "duration": 0.08532424999998511
    },
    {
      "name": "G#4",
      "midi": 68,
      "time": 185.1536225000082,
      "velocity": 0.29133858267716534,
      "duration": 0.08532424999998511
    },
    {
      "name": "F#3",
      "midi": 54,
      "time": 185.23894675000818,
      "velocity": 0.29133858267716534,
      "duration": 0.08532425000001354
    },
    {
      "name": "F4",
      "midi": 65,
      "time": 185.3242710000082,
      "velocity": 0.31496062992125984,
      "duration": 0.08532425000001354
    },
    {
      "name": "D#4",
      "midi": 63,
      "time": 185.4095952500082,
      "velocity": 0.2125984251968504,
      "duration": 0.08532425000001354
    },
    {
      "name": "G#4",
      "midi": 68,
      "time": 185.49491950000822,
      "velocity": 0.2755905511811024,
      "duration": 0.08532425000001354
    },
    {
      "name": "F#3",
      "midi": 54,
      "time": 185.58024375000824,
      "velocity": 0.2992125984251969,
      "duration": 0.08532425000001354
    },
    {
      "name": "F#3",
      "midi": 54,
      "time": 185.75089225000826,
      "velocity": 0.2992125984251969,
      "duration": 1.279863750000004
    },
    {
      "name": "G#3",
      "midi": 56,
      "time": 185.79355437500826,
      "velocity": 0.31496062992125984,
      "duration": 2.602389625000029
    },
    {
      "name": "C4",
      "midi": 60,
      "time": 185.83621650000825,
      "velocity": 0.33858267716535434,
      "duration": 1.194539500000019
    },
    {
      "name": "D#4",
      "midi": 63,
      "time": 185.92154075000826,
      "velocity": 0.3779527559055118,
      "duration": 1.1092152500000054
    },
    {
      "name": "F3",
      "midi": 53,
      "time": 187.11608025000828,
      "velocity": 0.2755905511811024,
      "duration": 1.279863750000004
    },
    {
      "name": "C#4",
      "midi": 61,
      "time": 187.15874237500827,
      "velocity": 0.33070866141732286,
      "duration": 1.2372016250000115
    }
  ]
}
