{
  "header": {
    "PPQ": 384,
    "timeSignature": [
      4,
      4
    ],
    "bpm": 80,
    "name": "===================="
  },
  "startTime": 0,
  "duration": 486.375,
  "tracks": [
    {
      "startTime": 0,
      "duration": 0,
      "length": 0,
      "notes": [],
      "controlChanges": {},
      "id": 0
    },
    {
      "startTime": 0,
      "duration": 486.375,
      "length": 3261,
      "notes": [
        {
          "name": "D3",
          "midi": 50,
          "time": 0,
          "velocity": 1,
          "duration": 0.1875
        },
        {
          "name": "A3",
          "midi": 57,
          "time": 0,
          "velocity": 1,
          "duration": 0.1875
        },
        {
          "name": "D3",
          "midi": 50,
          "time": 0.1875,
          "velocity": 1,
          "duration": 0.1875
        },
        {
          "name": "A3",
          "midi": 57,
          "time": 0.1875,
          "velocity": 1,
          "duration": 0.1875
        },
        {
          "name": "D3",
          "midi": 50,
          "time": 0.375,
          "velocity": 1,
          "duration": 0.75
        },
        {
          "name": "A3",
          "midi": 57,
          "time": 0.375,
          "velocity": 1,
          "duration": 0.375
        },
        {
          "name": "D3",
          "midi": 50,
          "time": 1.125,
          "velocity": 1,
          "duration": 0.1875
        },
        {
          "name": "A3",
          "midi": 57,
          "time": 1.125,
          "velocity": 1,
          "duration": 0.1875
        },
        {
          "name": "D3",
          "midi": 50,
          "time": 1.3125,
          "velocity": 1,
          "duration": 0.1875
        },
        {
          "name": "A3",
          "midi": 57,
          "time": 1.3125,
          "velocity": 1,
          "duration": 0.1875
        },
        {
          "name": "D3",
          "midi": 50,
          "time": 1.5,
          "velocity": 1,
          "duration": 0.75
        },
        {
          "name": "A3",
          "midi": 57,
          "time": 1.5,
          "velocity": 1,
          "duration": 0.375
        },
        {
          "name": "D2",
          "midi": 38,
          "time": 1.875,
          "velocity": 1,
          "duration": 1.125
        },
        {
          "name": "D3",
          "midi": 50,
          "time": 2.25,
          "velocity": 1,
          "duration": 0.1875
        },
        {
          "name": "A#3",
          "midi": 58,
          "time": 2.25,
          "velocity": 1,
          "duration": 0.1875
        },
        {
          "name": "D3",
          "midi": 50,
          "time": 2.4375,
          "velocity": 1,
          "duration": 0.1875
        },
        {
          "name": "A#3",
          "midi": 58,
          "time": 2.4375,
          "velocity": 1,
          "duration": 0.1875
        },
        {
          "name": "D3",
          "midi": 50,
          "time": 2.625,
          "velocity": 1,
          "duration": 0.75
        },
        {
          "name": "A#3",
          "midi": 58,
          "time": 2.625,
          "velocity": 1,
          "duration": 0.375
        },
        {
          "name": "D3",
          "midi": 50,
          "time": 3.375,
          "velocity": 1,
          "duration": 0.1875
        },
        {
          "name": "A#3",
          "midi": 58,
          "time": 3.375,
          "velocity": 1,
          "duration": 0.1875
        },
        {
          "name": "D3",
          "midi": 50,
          "time": 3.5625,
          "velocity": 1,
          "duration": 0.1875
        },
        {
          "name": "A#3",
          "midi": 58,
          "time": 3.5625,
          "velocity": 1,
          "duration": 0.1875
        },
        {
          "name": "D3",
          "midi": 50,
          "time": 3.75,
          "velocity": 1,
          "duration": 0.75
        },
        {
          "name": "A#3",
          "midi": 58,
          "time": 3.75,
          "velocity": 1,
          "duration": 0.375
        },
        {
          "name": "D2",
          "midi": 38,
          "time": 4.125,
          "velocity": 1,
          "duration": 1.125
        },
        {
          "name": "D3",
          "midi": 50,
          "time": 4.5,
          "velocity": 1,
          "duration": 0.1875
        },
        {
          "name": "B3",
          "midi": 59,
          "time": 4.5,
          "velocity": 1,
          "duration": 0.1875
        },
        {
          "name": "D3",
          "midi": 50,
          "time": 4.6875,
          "velocity": 1,
          "duration": 0.1875
        },
        {
          "name": "B3",
          "midi": 59,
          "time": 4.6875,
          "velocity": 1,
          "duration": 0.1875
        },
        {
          "name": "D3",
          "midi": 50,
          "time": 4.875,
          "velocity": 1,
          "duration": 0.75
        },
        {
          "name": "B3",
          "midi": 59,
          "time": 4.875,
          "velocity": 1,
          "duration": 0.375
        },
        {
          "name": "D3",
          "midi": 50,
          "time": 5.625,
          "velocity": 1,
          "duration": 0.1875
        },
        {
          "name": "B3",
          "midi": 59,
          "time": 5.625,
          "velocity": 1,
          "duration": 0.1875
        },
        {
          "name": "D3",
          "midi": 50,
          "time": 5.8125,
          "velocity": 1,
          "duration": 0.1875
        },
        {
          "name": "B3",
          "midi": 59,
          "time": 5.8125,
          "velocity": 1,
          "duration": 0.1875
        },
        {
          "name": "D3",
          "midi": 50,
          "time": 6,
          "velocity": 1,
          "duration": 0.75
        },
        {
          "name": "B3",
          "midi": 59,
          "time": 6,
          "velocity": 1,
          "duration": 0.375
        },
        {
          "name": "D2",
          "midi": 38,
          "time": 6.375,
          "velocity": 1,
          "duration": 1.125
        },
        {
          "name": "D3",
          "midi": 50,
          "time": 6.75,
          "velocity": 1,
          "duration": 0.1875
        },
        {
          "name": "C4",
          "midi": 60,
          "time": 6.75,
          "velocity": 1,
          "duration": 0.1875
        },
        {
          "name": "D3",
          "midi": 50,
          "time": 6.9375,
          "velocity": 1,
          "duration": 0.1875
        },
        {
          "name": "C4",
          "midi": 60,
          "time": 6.9375,
          "velocity": 1,
          "duration": 0.1875
        },
        {
          "name": "D3",
          "midi": 50,
          "time": 7.125,
          "velocity": 1,
          "duration": 0.75
        },
        {
          "name": "C4",
          "midi": 60,
          "time": 7.125,
          "velocity": 1,
          "duration": 0.375
        },
        {
          "name": "D3",
          "midi": 50,
          "time": 7.875,
          "velocity": 1,
          "duration": 0.1875
        },
        {
          "name": "C4",
          "midi": 60,
          "time": 7.875,
          "velocity": 1,
          "duration": 0.1875
        },
        {
          "name": "D3",
          "midi": 50,
          "time": 8.0625,
          "velocity": 1,
          "duration": 0.1875
        },
        {
          "name": "C4",
          "midi": 60,
          "time": 8.0625,
          "velocity": 1,
          "duration": 0.1875
        },
        {
          "name": "D3",
          "midi": 50,
          "time": 8.25,
          "velocity": 1,
          "duration": 0.75
        },
        {
          "name": "C4",
          "midi": 60,
          "time": 8.25,
          "velocity": 1,
          "duration": 0.375
        },
        {
          "name": "D2",
          "midi": 38,
          "time": 8.625,
          "velocity": 1,
          "duration": 1.125
        },
        {
          "name": "D3",
          "midi": 50,
          "time": 9,
          "velocity": 1,
          "duration": 0.1875
        },
        {
          "name": "D4",
          "midi": 62,
          "time": 9,
          "velocity": 1,
          "duration": 0.1875
        },
        {
          "name": "D3",
          "midi": 50,
          "time": 9.1875,
          "velocity": 1,
          "duration": 0.1875
        },
        {
          "name": "D4",
          "midi": 62,
          "time": 9.1875,
          "velocity": 1,
          "duration": 0.1875
        },
        {
          "name": "D3",
          "midi": 50,
          "time": 9.375,
          "velocity": 1,
          "duration": 0.75
        },
        {
          "name": "D4",
          "midi": 62,
          "time": 9.375,
          "velocity": 1,
          "duration": 0.375
        },
        {
          "name": "D3",
          "midi": 50,
          "time": 10.125,
          "velocity": 1,
          "duration": 0.1875
        },
        {
          "name": "A3",
          "midi": 57,
          "time": 10.125,
          "velocity": 1,
          "duration": 0.1875
        },
        {
          "name": "D3",
          "midi": 50,
          "time": 10.3125,
          "velocity": 1,
          "duration": 0.1875
        },
        {
          "name": "A3",
          "midi": 57,
          "time": 10.3125,
          "velocity": 1,
          "duration": 0.1875
        },
        {
          "name": "D3",
          "midi": 50,
          "time": 10.5,
          "velocity": 1,
          "duration": 0.75
        },
        {
          "name": "A3",
          "midi": 57,
          "time": 10.5,
          "velocity": 1,
          "duration": 0.375
        },
        {
          "name": "D2",
          "midi": 38,
          "time": 10.875,
          "velocity": 1,
          "duration": 1.125
        },
        {
          "name": "D3",
          "midi": 50,
          "time": 11.25,
          "velocity": 1,
          "duration": 0.1875
        },
        {
          "name": "A#3",
          "midi": 58,
          "time": 11.25,
          "velocity": 1,
          "duration": 0.1875
        },
        {
          "name": "D3",
          "midi": 50,
          "time": 11.4375,
          "velocity": 1,
          "duration": 0.1875
        },
        {
          "name": "A#3",
          "midi": 58,
          "time": 11.4375,
          "velocity": 1,
          "duration": 0.1875
        },
        {
          "name": "D3",
          "midi": 50,
          "time": 11.625,
          "velocity": 1,
          "duration": 0.75
        },
        {
          "name": "A#3",
          "midi": 58,
          "time": 11.625,
          "velocity": 1,
          "duration": 0.375
        },
        {
          "name": "D3",
          "midi": 50,
          "time": 12.375,
          "velocity": 1,
          "duration": 0.1875
        },
        {
          "name": "A#3",
          "midi": 58,
          "time": 12.375,
          "velocity": 1,
          "duration": 0.1875
        },
        {
          "name": "D3",
          "midi": 50,
          "time": 12.5625,
          "velocity": 1,
          "duration": 0.1875
        },
        {
          "name": "A#3",
          "midi": 58,
          "time": 12.5625,
          "velocity": 1,
          "duration": 0.1875
        },
        {
          "name": "D3",
          "midi": 50,
          "time": 12.75,
          "velocity": 1,
          "duration": 0.75
        },
        {
          "name": "A#3",
          "midi": 58,
          "time": 12.75,
          "velocity": 1,
          "duration": 0.375
        },
        {
          "name": "D2",
          "midi": 38,
          "time": 13.125,
          "velocity": 1,
          "duration": 1.125
        },
        {
          "name": "D3",
          "midi": 50,
          "time": 13.5,
          "velocity": 1,
          "duration": 0.1875
        },
        {
          "name": "B3",
          "midi": 59,
          "time": 13.5,
          "velocity": 1,
          "duration": 0.1875
        },
        {
          "name": "D3",
          "midi": 50,
          "time": 13.6875,
          "velocity": 1,
          "duration": 0.1875
        },
        {
          "name": "B3",
          "midi": 59,
          "time": 13.6875,
          "velocity": 1,
          "duration": 0.1875
        },
        {
          "name": "D3",
          "midi": 50,
          "time": 13.875,
          "velocity": 1,
          "duration": 0.75
        },
        {
          "name": "B3",
          "midi": 59,
          "time": 13.875,
          "velocity": 1,
          "duration": 0.375
        },
        {
          "name": "D3",
          "midi": 50,
          "time": 14.625,
          "velocity": 1,
          "duration": 0.1875
        },
        {
          "name": "B3",
          "midi": 59,
          "time": 14.625,
          "velocity": 1,
          "duration": 0.1875
        },
        {
          "name": "D3",
          "midi": 50,
          "time": 14.8125,
          "velocity": 1,
          "duration": 0.1875
        },
        {
          "name": "B3",
          "midi": 59,
          "time": 14.8125,
          "velocity": 1,
          "duration": 0.1875
        },
        {
          "name": "D3",
          "midi": 50,
          "time": 15,
          "velocity": 1,
          "duration": 0.75
        },
        {
          "name": "B3",
          "midi": 59,
          "time": 15,
          "velocity": 1,
          "duration": 0.375
        },
        {
          "name": "D2",
          "midi": 38,
          "time": 15.375,
          "velocity": 1,
          "duration": 1.125
        },
        {
          "name": "D3",
          "midi": 50,
          "time": 15.75,
          "velocity": 1,
          "duration": 0.1875
        },
        {
          "name": "C4",
          "midi": 60,
          "time": 15.75,
          "velocity": 1,
          "duration": 0.1875
        },
        {
          "name": "D3",
          "midi": 50,
          "time": 15.9375,
          "velocity": 1,
          "duration": 0.1875
        },
        {
          "name": "C4",
          "midi": 60,
          "time": 15.9375,
          "velocity": 1,
          "duration": 0.1875
        },
        {
          "name": "D3",
          "midi": 50,
          "time": 16.125,
          "velocity": 1,
          "duration": 0.75
        },
        {
          "name": "C4",
          "midi": 60,
          "time": 16.125,
          "velocity": 1,
          "duration": 0.375
        },
        {
          "name": "D3",
          "midi": 50,
          "time": 16.875,
          "velocity": 1,
          "duration": 0.1875
        },
        {
          "name": "C4",
          "midi": 60,
          "time": 16.875,
          "velocity": 1,
          "duration": 0.1875
        },
        {
          "name": "D3",
          "midi": 50,
          "time": 17.0625,
          "velocity": 1,
          "duration": 0.1875
        },
        {
          "name": "C4",
          "midi": 60,
          "time": 17.0625,
          "velocity": 1,
          "duration": 0.1875
        },
        {
          "name": "D3",
          "midi": 50,
          "time": 17.25,
          "velocity": 1,
          "duration": 0.75
        },
        {
          "name": "C4",
          "midi": 60,
          "time": 17.25,
          "velocity": 1,
          "duration": 0.375
        },
        {
          "name": "D2",
          "midi": 38,
          "time": 17.625,
          "velocity": 1,
          "duration": 1.125
        },
        {
          "name": "D3",
          "midi": 50,
          "time": 18,
          "velocity": 1,
          "duration": 0.1875
        },
        {
          "name": "D4",
          "midi": 62,
          "time": 18,
          "velocity": 1,
          "duration": 0.1875
        },
        {
          "name": "D3",
          "midi": 50,
          "time": 18.1875,
          "velocity": 1,
          "duration": 0.1875
        },
        {
          "name": "D4",
          "midi": 62,
          "time": 18.1875,
          "velocity": 1,
          "duration": 0.1875
        },
        {
          "name": "D3",
          "midi": 50,
          "time": 18.375,
          "velocity": 1,
          "duration": 0.75
        },
        {
          "name": "D4",
          "midi": 62,
          "time": 18.375,
          "velocity": 1,
          "duration": 0.375
        },
        {
          "name": "D3",
          "midi": 50,
          "time": 19.125,
          "velocity": 1,
          "duration": 0.1875
        },
        {
          "name": "A3",
          "midi": 57,
          "time": 19.125,
          "velocity": 1,
          "duration": 0.1875
        },
        {
          "name": "D3",
          "midi": 50,
          "time": 19.3125,
          "velocity": 1,
          "duration": 0.1875
        },
        {
          "name": "A3",
          "midi": 57,
          "time": 19.3125,
          "velocity": 1,
          "duration": 0.1875
        },
        {
          "name": "D3",
          "midi": 50,
          "time": 19.5,
          "velocity": 1,
          "duration": 0.75
        },
        {
          "name": "A3",
          "midi": 57,
          "time": 19.5,
          "velocity": 1,
          "duration": 0.375
        },
        {
          "name": "D2",
          "midi": 38,
          "time": 19.875,
          "velocity": 1,
          "duration": 1.125
        },
        {
          "name": "D3",
          "midi": 50,
          "time": 20.25,
          "velocity": 1,
          "duration": 0.1875
        },
        {
          "name": "A#3",
          "midi": 58,
          "time": 20.25,
          "velocity": 1,
          "duration": 0.1875
        },
        {
          "name": "D3",
          "midi": 50,
          "time": 20.4375,
          "velocity": 1,
          "duration": 0.1875
        },
        {
          "name": "A#3",
          "midi": 58,
          "time": 20.4375,
          "velocity": 1,
          "duration": 0.1875
        },
        {
          "name": "D3",
          "midi": 50,
          "time": 20.625,
          "velocity": 1,
          "duration": 0.75
        },
        {
          "name": "A#3",
          "midi": 58,
          "time": 20.625,
          "velocity": 1,
          "duration": 0.375
        },
        {
          "name": "D3",
          "midi": 50,
          "time": 21.375,
          "velocity": 1,
          "duration": 0.1875
        },
        {
          "name": "A#3",
          "midi": 58,
          "time": 21.375,
          "velocity": 1,
          "duration": 0.1875
        },
        {
          "name": "D3",
          "midi": 50,
          "time": 21.5625,
          "velocity": 1,
          "duration": 0.1875
        },
        {
          "name": "A#3",
          "midi": 58,
          "time": 21.5625,
          "velocity": 1,
          "duration": 0.1875
        },
        {
          "name": "D3",
          "midi": 50,
          "time": 21.75,
          "velocity": 1,
          "duration": 0.75
        },
        {
          "name": "A#3",
          "midi": 58,
          "time": 21.75,
          "velocity": 1,
          "duration": 0.375
        },
        {
          "name": "D2",
          "midi": 38,
          "time": 22.125,
          "velocity": 1,
          "duration": 1.125
        },
        {
          "name": "D3",
          "midi": 50,
          "time": 22.5,
          "velocity": 1,
          "duration": 0.1875
        },
        {
          "name": "B3",
          "midi": 59,
          "time": 22.5,
          "velocity": 1,
          "duration": 0.1875
        },
        {
          "name": "D3",
          "midi": 50,
          "time": 22.6875,
          "velocity": 1,
          "duration": 0.1875
        },
        {
          "name": "B3",
          "midi": 59,
          "time": 22.6875,
          "velocity": 1,
          "duration": 0.1875
        },
        {
          "name": "D3",
          "midi": 50,
          "time": 22.875,
          "velocity": 1,
          "duration": 0.75
        },
        {
          "name": "B3",
          "midi": 59,
          "time": 22.875,
          "velocity": 1,
          "duration": 0.375
        },
        {
          "name": "D3",
          "midi": 50,
          "time": 23.625,
          "velocity": 1,
          "duration": 0.1875
        },
        {
          "name": "B3",
          "midi": 59,
          "time": 23.625,
          "velocity": 1,
          "duration": 0.1875
        },
        {
          "name": "D3",
          "midi": 50,
          "time": 23.8125,
          "velocity": 1,
          "duration": 0.1875
        },
        {
          "name": "B3",
          "midi": 59,
          "time": 23.8125,
          "velocity": 1,
          "duration": 0.1875
        },
        {
          "name": "D3",
          "midi": 50,
          "time": 24,
          "velocity": 1,
          "duration": 0.75
        },
        {
          "name": "B3",
          "midi": 59,
          "time": 24,
          "velocity": 1,
          "duration": 0.375
        },
        {
          "name": "D2",
          "midi": 38,
          "time": 24.375,
          "velocity": 1,
          "duration": 1.125
        },
        {
          "name": "D3",
          "midi": 50,
          "time": 24.75,
          "velocity": 1,
          "duration": 0.1875
        },
        {
          "name": "C4",
          "midi": 60,
          "time": 24.75,
          "velocity": 1,
          "duration": 0.1875
        },
        {
          "name": "D3",
          "midi": 50,
          "time": 24.9375,
          "velocity": 1,
          "duration": 0.1875
        },
        {
          "name": "C4",
          "midi": 60,
          "time": 24.9375,
          "velocity": 1,
          "duration": 0.1875
        },
        {
          "name": "D3",
          "midi": 50,
          "time": 25.125,
          "velocity": 1,
          "duration": 0.75
        },
        {
          "name": "C4",
          "midi": 60,
          "time": 25.125,
          "velocity": 1,
          "duration": 0.375
        },
        {
          "name": "D3",
          "midi": 50,
          "time": 25.875,
          "velocity": 1,
          "duration": 0.1875
        },
        {
          "name": "C4",
          "midi": 60,
          "time": 25.875,
          "velocity": 1,
          "duration": 0.1875
        },
        {
          "name": "D3",
          "midi": 50,
          "time": 26.0625,
          "velocity": 1,
          "duration": 0.1875
        },
        {
          "name": "C4",
          "midi": 60,
          "time": 26.0625,
          "velocity": 1,
          "duration": 0.1875
        },
        {
          "name": "D3",
          "midi": 50,
          "time": 26.25,
          "velocity": 1,
          "duration": 0.75
        },
        {
          "name": "C4",
          "midi": 60,
          "time": 26.25,
          "velocity": 1,
          "duration": 0.375
        },
        {
          "name": "D2",
          "midi": 38,
          "time": 26.625,
          "velocity": 1,
          "duration": 1.125
        },
        {
          "name": "D3",
          "midi": 50,
          "time": 27,
          "velocity": 1,
          "duration": 0.1875
        },
        {
          "name": "D4",
          "midi": 62,
          "time": 27,
          "velocity": 1,
          "duration": 0.1875
        },
        {
          "name": "D3",
          "midi": 50,
          "time": 27.1875,
          "velocity": 1,
          "duration": 0.1875
        },
        {
          "name": "D4",
          "midi": 62,
          "time": 27.1875,
          "velocity": 1,
          "duration": 0.1875
        },
        {
          "name": "D3",
          "midi": 50,
          "time": 27.375,
          "velocity": 1,
          "duration": 0.75
        },
        {
          "name": "D4",
          "midi": 62,
          "time": 27.375,
          "velocity": 1,
          "duration": 0.375
        },
        {
          "name": "D3",
          "midi": 50,
          "time": 28.125,
          "velocity": 1,
          "duration": 0.1875
        },
        {
          "name": "A3",
          "midi": 57,
          "time": 28.125,
          "velocity": 1,
          "duration": 0.1875
        },
        {
          "name": "D3",
          "midi": 50,
          "time": 28.3125,
          "velocity": 1,
          "duration": 0.1875
        },
        {
          "name": "A3",
          "midi": 57,
          "time": 28.3125,
          "velocity": 1,
          "duration": 0.1875
        },
        {
          "name": "D3",
          "midi": 50,
          "time": 28.5,
          "velocity": 1,
          "duration": 0.75
        },
        {
          "name": "A3",
          "midi": 57,
          "time": 28.5,
          "velocity": 1,
          "duration": 0.375
        },
        {
          "name": "D2",
          "midi": 38,
          "time": 28.875,
          "velocity": 1,
          "duration": 1.125
        },
        {
          "name": "D3",
          "midi": 50,
          "time": 29.25,
          "velocity": 1,
          "duration": 0.1875
        },
        {
          "name": "A#3",
          "midi": 58,
          "time": 29.25,
          "velocity": 1,
          "duration": 0.1875
        },
        {
          "name": "D3",
          "midi": 50,
          "time": 29.4375,
          "velocity": 1,
          "duration": 0.1875
        },
        {
          "name": "A#3",
          "midi": 58,
          "time": 29.4375,
          "velocity": 1,
          "duration": 0.1875
        },
        {
          "name": "D3",
          "midi": 50,
          "time": 29.625,
          "velocity": 1,
          "duration": 0.75
        },
        {
          "name": "A#3",
          "midi": 58,
          "time": 29.625,
          "velocity": 1,
          "duration": 0.375
        },
        {
          "name": "D3",
          "midi": 50,
          "time": 30.375,
          "velocity": 1,
          "duration": 0.1875
        },
        {
          "name": "A#3",
          "midi": 58,
          "time": 30.375,
          "velocity": 1,
          "duration": 0.1875
        },
        {
          "name": "D3",
          "midi": 50,
          "time": 30.5625,
          "velocity": 1,
          "duration": 0.1875
        },
        {
          "name": "A#3",
          "midi": 58,
          "time": 30.5625,
          "velocity": 1,
          "duration": 0.1875
        },
        {
          "name": "D3",
          "midi": 50,
          "time": 30.75,
          "velocity": 1,
          "duration": 0.75
        },
        {
          "name": "A#3",
          "midi": 58,
          "time": 30.75,
          "velocity": 1,
          "duration": 0.375
        },
        {
          "name": "D2",
          "midi": 38,
          "time": 31.125,
          "velocity": 1,
          "duration": 1.125
        },
        {
          "name": "D3",
          "midi": 50,
          "time": 31.5,
          "velocity": 1,
          "duration": 0.1875
        },
        {
          "name": "B3",
          "midi": 59,
          "time": 31.5,
          "velocity": 1,
          "duration": 0.1875
        },
        {
          "name": "D3",
          "midi": 50,
          "time": 31.6875,
          "velocity": 1,
          "duration": 0.1875
        },
        {
          "name": "B3",
          "midi": 59,
          "time": 31.6875,
          "velocity": 1,
          "duration": 0.1875
        },
        {
          "name": "D3",
          "midi": 50,
          "time": 31.875,
          "velocity": 1,
          "duration": 0.75
        },
        {
          "name": "B3",
          "midi": 59,
          "time": 31.875,
          "velocity": 1,
          "duration": 0.375
        },
        {
          "name": "D3",
          "midi": 50,
          "time": 32.625,
          "velocity": 1,
          "duration": 0.1875
        },
        {
          "name": "B3",
          "midi": 59,
          "time": 32.625,
          "velocity": 1,
          "duration": 0.1875
        },
        {
          "name": "D3",
          "midi": 50,
          "time": 32.8125,
          "velocity": 1,
          "duration": 0.1875
        },
        {
          "name": "B3",
          "midi": 59,
          "time": 32.8125,
          "velocity": 1,
          "duration": 0.1875
        },
        {
          "name": "D3",
          "midi": 50,
          "time": 33,
          "velocity": 1,
          "duration": 0.75
        },
        {
          "name": "B3",
          "midi": 59,
          "time": 33,
          "velocity": 1,
          "duration": 0.375
        },
        {
          "name": "D2",
          "midi": 38,
          "time": 33.375,
          "velocity": 1,
          "duration": 1.125
        },
        {
          "name": "D3",
          "midi": 50,
          "time": 33.75,
          "velocity": 1,
          "duration": 0.1875
        },
        {
          "name": "C4",
          "midi": 60,
          "time": 33.75,
          "velocity": 1,
          "duration": 0.1875
        },
        {
          "name": "D3",
          "midi": 50,
          "time": 33.9375,
          "velocity": 1,
          "duration": 0.1875
        },
        {
          "name": "C4",
          "midi": 60,
          "time": 33.9375,
          "velocity": 1,
          "duration": 0.1875
        },
        {
          "name": "D3",
          "midi": 50,
          "time": 34.125,
          "velocity": 1,
          "duration": 0.75
        },
        {
          "name": "C4",
          "midi": 60,
          "time": 34.125,
          "velocity": 1,
          "duration": 0.375
        },
        {
          "name": "D3",
          "midi": 50,
          "time": 34.875,
          "velocity": 1,
          "duration": 0.1875
        },
        {
          "name": "C4",
          "midi": 60,
          "time": 34.875,
          "velocity": 1,
          "duration": 0.1875
        },
        {
          "name": "D3",
          "midi": 50,
          "time": 35.0625,
          "velocity": 1,
          "duration": 0.1875
        },
        {
          "name": "C4",
          "midi": 60,
          "time": 35.0625,
          "velocity": 1,
          "duration": 0.1875
        },
        {
          "name": "D3",
          "midi": 50,
          "time": 35.25,
          "velocity": 1,
          "duration": 0.75
        },
        {
          "name": "C4",
          "midi": 60,
          "time": 35.25,
          "velocity": 1,
          "duration": 0.375
        },
        {
          "name": "D2",
          "midi": 38,
          "time": 35.625,
          "velocity": 1,
          "duration": 1.125
        },
        {
          "name": "D3",
          "midi": 50,
          "time": 36,
          "velocity": 1,
          "duration": 0.1875
        },
        {
          "name": "D4",
          "midi": 62,
          "time": 36,
          "velocity": 1,
          "duration": 0.1875
        },
        {
          "name": "D3",
          "midi": 50,
          "time": 36.1875,
          "velocity": 1,
          "duration": 0.1875
        },
        {
          "name": "D4",
          "midi": 62,
          "time": 36.1875,
          "velocity": 1,
          "duration": 0.1875
        },
        {
          "name": "D3",
          "midi": 50,
          "time": 36.375,
          "velocity": 1,
          "duration": 0.75
        },
        {
          "name": "D4",
          "midi": 62,
          "time": 36.375,
          "velocity": 1,
          "duration": 0.375
        },
        {
          "name": "D3",
          "midi": 50,
          "time": 37.125,
          "velocity": 1,
          "duration": 0.1875
        },
        {
          "name": "A3",
          "midi": 57,
          "time": 37.125,
          "velocity": 1,
          "duration": 0.1875
        },
        {
          "name": "D3",
          "midi": 50,
          "time": 37.3125,
          "velocity": 1,
          "duration": 0.1875
        },
        {
          "name": "A3",
          "midi": 57,
          "time": 37.3125,
          "velocity": 1,
          "duration": 0.1875
        },
        {
          "name": "D3",
          "midi": 50,
          "time": 37.5,
          "velocity": 1,
          "duration": 0.75
        },
        {
          "name": "A3",
          "midi": 57,
          "time": 37.5,
          "velocity": 1,
          "duration": 0.375
        },
        {
          "name": "D2",
          "midi": 38,
          "time": 37.875,
          "velocity": 1,
          "duration": 1.125
        },
        {
          "name": "D3",
          "midi": 50,
          "time": 38.25,
          "velocity": 1,
          "duration": 0.1875
        },
        {
          "name": "A#3",
          "midi": 58,
          "time": 38.25,
          "velocity": 1,
          "duration": 0.1875
        },
        {
          "name": "D3",
          "midi": 50,
          "time": 38.4375,
          "velocity": 1,
          "duration": 0.1875
        },
        {
          "name": "A#3",
          "midi": 58,
          "time": 38.4375,
          "velocity": 1,
          "duration": 0.1875
        },
        {
          "name": "D3",
          "midi": 50,
          "time": 38.625,
          "velocity": 1,
          "duration": 0.75
        },
        {
          "name": "A#3",
          "midi": 58,
          "time": 38.625,
          "velocity": 1,
          "duration": 0.375
        },
        {
          "name": "D3",
          "midi": 50,
          "time": 39.375,
          "velocity": 1,
          "duration": 0.1875
        },
        {
          "name": "A#3",
          "midi": 58,
          "time": 39.375,
          "velocity": 1,
          "duration": 0.1875
        },
        {
          "name": "D3",
          "midi": 50,
          "time": 39.5625,
          "velocity": 1,
          "duration": 0.1875
        },
        {
          "name": "A#3",
          "midi": 58,
          "time": 39.5625,
          "velocity": 1,
          "duration": 0.1875
        },
        {
          "name": "D3",
          "midi": 50,
          "time": 39.75,
          "velocity": 1,
          "duration": 0.75
        },
        {
          "name": "A#3",
          "midi": 58,
          "time": 39.75,
          "velocity": 1,
          "duration": 0.375
        },
        {
          "name": "D2",
          "midi": 38,
          "time": 40.125,
          "velocity": 1,
          "duration": 1.125
        },
        {
          "name": "D3",
          "midi": 50,
          "time": 40.5,
          "velocity": 1,
          "duration": 0.1875
        },
        {
          "name": "B3",
          "midi": 59,
          "time": 40.5,
          "velocity": 1,
          "duration": 0.1875
        },
        {
          "name": "D3",
          "midi": 50,
          "time": 40.6875,
          "velocity": 1,
          "duration": 0.1875
        },
        {
          "name": "B3",
          "midi": 59,
          "time": 40.6875,
          "velocity": 1,
          "duration": 0.1875
        },
        {
          "name": "D3",
          "midi": 50,
          "time": 40.875,
          "velocity": 1,
          "duration": 0.75
        },
        {
          "name": "B3",
          "midi": 59,
          "time": 40.875,
          "velocity": 1,
          "duration": 0.375
        },
        {
          "name": "D3",
          "midi": 50,
          "time": 41.625,
          "velocity": 1,
          "duration": 0.1875
        },
        {
          "name": "B3",
          "midi": 59,
          "time": 41.625,
          "velocity": 1,
          "duration": 0.1875
        },
        {
          "name": "D3",
          "midi": 50,
          "time": 41.8125,
          "velocity": 1,
          "duration": 0.1875
        },
        {
          "name": "B3",
          "midi": 59,
          "time": 41.8125,
          "velocity": 1,
          "duration": 0.1875
        },
        {
          "name": "D3",
          "midi": 50,
          "time": 42,
          "velocity": 1,
          "duration": 0.75
        },
        {
          "name": "B3",
          "midi": 59,
          "time": 42,
          "velocity": 1,
          "duration": 0.375
        },
        {
          "name": "D2",
          "midi": 38,
          "time": 42.375,
          "velocity": 1,
          "duration": 1.125
        },
        {
          "name": "D3",
          "midi": 50,
          "time": 42.75,
          "velocity": 1,
          "duration": 0.1875
        },
        {
          "name": "C4",
          "midi": 60,
          "time": 42.75,
          "velocity": 1,
          "duration": 0.1875
        },
        {
          "name": "D3",
          "midi": 50,
          "time": 42.9375,
          "velocity": 1,
          "duration": 0.1875
        },
        {
          "name": "C4",
          "midi": 60,
          "time": 42.9375,
          "velocity": 1,
          "duration": 0.1875
        },
        {
          "name": "D3",
          "midi": 50,
          "time": 43.125,
          "velocity": 1,
          "duration": 0.75
        },
        {
          "name": "C4",
          "midi": 60,
          "time": 43.125,
          "velocity": 1,
          "duration": 0.375
        },
        {
          "name": "D3",
          "midi": 50,
          "time": 43.875,
          "velocity": 1,
          "duration": 0.1875
        },
        {
          "name": "C4",
          "midi": 60,
          "time": 43.875,
          "velocity": 1,
          "duration": 0.1875
        },
        {
          "name": "D3",
          "midi": 50,
          "time": 44.0625,
          "velocity": 1,
          "duration": 0.1875
        },
        {
          "name": "C4",
          "midi": 60,
          "time": 44.0625,
          "velocity": 1,
          "duration": 0.1875
        },
        {
          "name": "D3",
          "midi": 50,
          "time": 44.25,
          "velocity": 1,
          "duration": 0.75
        },
        {
          "name": "C4",
          "midi": 60,
          "time": 44.25,
          "velocity": 1,
          "duration": 0.375
        },
        {
          "name": "D2",
          "midi": 38,
          "time": 44.625,
          "velocity": 1,
          "duration": 1.125
        },
        {
          "name": "D3",
          "midi": 50,
          "time": 45,
          "velocity": 1,
          "duration": 0.1875
        },
        {
          "name": "D4",
          "midi": 62,
          "time": 45,
          "velocity": 1,
          "duration": 0.1875
        },
        {
          "name": "D3",
          "midi": 50,
          "time": 45.1875,
          "velocity": 1,
          "duration": 0.1875
        },
        {
          "name": "D4",
          "midi": 62,
          "time": 45.1875,
          "velocity": 1,
          "duration": 0.1875
        },
        {
          "name": "D3",
          "midi": 50,
          "time": 45.375,
          "velocity": 1,
          "duration": 0.75
        },
        {
          "name": "D4",
          "midi": 62,
          "time": 45.375,
          "velocity": 1,
          "duration": 0.375
        },
        {
          "name": "D3",
          "midi": 50,
          "time": 46.125,
          "velocity": 1,
          "duration": 0.1875
        },
        {
          "name": "A3",
          "midi": 57,
          "time": 46.125,
          "velocity": 1,
          "duration": 0.1875
        },
        {
          "name": "D3",
          "midi": 50,
          "time": 46.3125,
          "velocity": 1,
          "duration": 0.1875
        },
        {
          "name": "A3",
          "midi": 57,
          "time": 46.3125,
          "velocity": 1,
          "duration": 0.1875
        },
        {
          "name": "D3",
          "midi": 50,
          "time": 46.5,
          "velocity": 1,
          "duration": 0.75
        },
        {
          "name": "A3",
          "midi": 57,
          "time": 46.5,
          "velocity": 1,
          "duration": 0.375
        },
        {
          "name": "D2",
          "midi": 38,
          "time": 46.875,
          "velocity": 1,
          "duration": 1.125
        },
        {
          "name": "D3",
          "midi": 50,
          "time": 47.25,
          "velocity": 1,
          "duration": 0.1875
        },
        {
          "name": "A#3",
          "midi": 58,
          "time": 47.25,
          "velocity": 1,
          "duration": 0.1875
        },
        {
          "name": "D3",
          "midi": 50,
          "time": 47.4375,
          "velocity": 1,
          "duration": 0.1875
        },
        {
          "name": "A#3",
          "midi": 58,
          "time": 47.4375,
          "velocity": 1,
          "duration": 0.1875
        },
        {
          "name": "D3",
          "midi": 50,
          "time": 47.625,
          "velocity": 1,
          "duration": 0.75
        },
        {
          "name": "A#3",
          "midi": 58,
          "time": 47.625,
          "velocity": 1,
          "duration": 0.375
        },
        {
          "name": "D3",
          "midi": 50,
          "time": 48.375,
          "velocity": 1,
          "duration": 0.1875
        },
        {
          "name": "A#3",
          "midi": 58,
          "time": 48.375,
          "velocity": 1,
          "duration": 0.1875
        },
        {
          "name": "D3",
          "midi": 50,
          "time": 48.5625,
          "velocity": 1,
          "duration": 0.1875
        },
        {
          "name": "A#3",
          "midi": 58,
          "time": 48.5625,
          "velocity": 1,
          "duration": 0.1875
        },
        {
          "name": "D3",
          "midi": 50,
          "time": 48.75,
          "velocity": 1,
          "duration": 0.75
        },
        {
          "name": "A#3",
          "midi": 58,
          "time": 48.75,
          "velocity": 1,
          "duration": 0.375
        },
        {
          "name": "D2",
          "midi": 38,
          "time": 49.125,
          "velocity": 1,
          "duration": 1.125
        },
        {
          "name": "D3",
          "midi": 50,
          "time": 49.5,
          "velocity": 1,
          "duration": 0.1875
        },
        {
          "name": "B3",
          "midi": 59,
          "time": 49.5,
          "velocity": 1,
          "duration": 0.1875
        },
        {
          "name": "D3",
          "midi": 50,
          "time": 49.6875,
          "velocity": 1,
          "duration": 0.1875
        },
        {
          "name": "B3",
          "midi": 59,
          "time": 49.6875,
          "velocity": 1,
          "duration": 0.1875
        },
        {
          "name": "D3",
          "midi": 50,
          "time": 49.875,
          "velocity": 1,
          "duration": 0.75
        },
        {
          "name": "B3",
          "midi": 59,
          "time": 49.875,
          "velocity": 1,
          "duration": 0.375
        },
        {
          "name": "D3",
          "midi": 50,
          "time": 50.625,
          "velocity": 1,
          "duration": 0.1875
        },
        {
          "name": "B3",
          "midi": 59,
          "time": 50.625,
          "velocity": 1,
          "duration": 0.1875
        },
        {
          "name": "D3",
          "midi": 50,
          "time": 50.8125,
          "velocity": 1,
          "duration": 0.1875
        },
        {
          "name": "B3",
          "midi": 59,
          "time": 50.8125,
          "velocity": 1,
          "duration": 0.1875
        },
        {
          "name": "D3",
          "midi": 50,
          "time": 51,
          "velocity": 1,
          "duration": 0.75
        },
        {
          "name": "B3",
          "midi": 59,
          "time": 51,
          "velocity": 1,
          "duration": 0.375
        },
        {
          "name": "D2",
          "midi": 38,
          "time": 51.375,
          "velocity": 1,
          "duration": 1.125
        },
        {
          "name": "D3",
          "midi": 50,
          "time": 51.75,
          "velocity": 1,
          "duration": 0.1875
        },
        {
          "name": "C4",
          "midi": 60,
          "time": 51.75,
          "velocity": 1,
          "duration": 0.1875
        },
        {
          "name": "D3",
          "midi": 50,
          "time": 51.9375,
          "velocity": 1,
          "duration": 0.1875
        },
        {
          "name": "C4",
          "midi": 60,
          "time": 51.9375,
          "velocity": 1,
          "duration": 0.1875
        },
        {
          "name": "D3",
          "midi": 50,
          "time": 52.125,
          "velocity": 1,
          "duration": 0.75
        },
        {
          "name": "C4",
          "midi": 60,
          "time": 52.125,
          "velocity": 1,
          "duration": 0.375
        },
        {
          "name": "D3",
          "midi": 50,
          "time": 52.875,
          "velocity": 1,
          "duration": 0.1875
        },
        {
          "name": "C4",
          "midi": 60,
          "time": 52.875,
          "velocity": 1,
          "duration": 0.1875
        },
        {
          "name": "D3",
          "midi": 50,
          "time": 53.0625,
          "velocity": 1,
          "duration": 0.1875
        },
        {
          "name": "C4",
          "midi": 60,
          "time": 53.0625,
          "velocity": 1,
          "duration": 0.1875
        },
        {
          "name": "D3",
          "midi": 50,
          "time": 53.25,
          "velocity": 1,
          "duration": 6.75
        },
        {
          "name": "C4",
          "midi": 60,
          "time": 53.25,
          "velocity": 1,
          "duration": 0.375
        },
        {
          "name": "D2",
          "midi": 38,
          "time": 53.625,
          "velocity": 1,
          "duration": 0.375
        },
        {
          "name": "D4",
          "midi": 62,
          "time": 54,
          "velocity": 1,
          "duration": 0.5625
        },
        {
          "name": "G4",
          "midi": 67,
          "time": 54,
          "velocity": 1,
          "duration": 0.5625
        },
        {
          "name": "A3",
          "midi": 57,
          "time": 54,
          "velocity": 1,
          "duration": 0.5625
        },
        {
          "name": "D5",
          "midi": 74,
          "time": 54,
          "velocity": 1,
          "duration": 0.5625
        },
        {
          "name": "D4",
          "midi": 62,
          "time": 54.5625,
          "velocity": 1,
          "duration": 0.5625
        },
        {
          "name": "F#4",
          "midi": 66,
          "time": 54.5625,
          "velocity": 1,
          "duration": 0.5625
        },
        {
          "name": "A3",
          "midi": 57,
          "time": 54.5625,
          "velocity": 1,
          "duration": 0.5625
        },
        {
          "name": "D5",
          "midi": 74,
          "time": 54.5625,
          "velocity": 1,
          "duration": 0.5625
        },
        {
          "name": "C4",
          "midi": 60,
          "time": 55.125,
          "velocity": 1,
          "duration": 0.5625
        },
        {
          "name": "F4",
          "midi": 65,
          "time": 55.125,
          "velocity": 1,
          "duration": 0.5625
        },
        {
          "name": "A3",
          "midi": 57,
          "time": 55.125,
          "velocity": 1,
          "duration": 0.5625
        },
        {
          "name": "C5",
          "midi": 72,
          "time": 55.125,
          "velocity": 1,
          "duration": 0.5625
        },
        {
          "name": "C4",
          "midi": 60,
          "time": 55.6875,
          "velocity": 1,
          "duration": 0.5625
        },
        {
          "name": "E4",
          "midi": 64,
          "time": 55.6875,
          "velocity": 1,
          "duration": 0.5625
        },
        {
          "name": "A3",
          "midi": 57,
          "time": 55.6875,
          "velocity": 1,
          "duration": 0.5625
        },
        {
          "name": "C5",
          "midi": 72,
          "time": 55.6875,
          "velocity": 1,
          "duration": 0.5625
        },
        {
          "name": "A3",
          "midi": 57,
          "time": 56.25,
          "velocity": 1,
          "duration": 0.375
        },
        {
          "name": "D4",
          "midi": 62,
          "time": 56.25,
          "velocity": 1,
          "duration": 0.375
        },
        {
          "name": "A4",
          "midi": 69,
          "time": 56.25,
          "velocity": 1,
          "duration": 0.375
        },
        {
          "name": "A3",
          "midi": 57,
          "time": 56.625,
          "velocity": 1,
          "duration": 0.9375
        },
        {
          "name": "C#4",
          "midi": 61,
          "time": 56.625,
          "velocity": 1,
          "duration": 0.375
        },
        {
          "name": "A4",
          "midi": 69,
          "time": 56.625,
          "velocity": 1,
          "duration": 0.375
        },
        {
          "name": "G3",
          "midi": 55,
          "time": 57,
          "velocity": 1,
          "duration": 0.5625
        },
        {
          "name": "C4",
          "midi": 60,
          "time": 57,
          "velocity": 1,
          "duration": 0.5625
        },
        {
          "name": "A3",
          "midi": 57,
          "time": 57,
          "velocity": 1,
          "duration": 1.125
        },
        {
          "name": "G4",
          "midi": 67,
          "time": 57,
          "velocity": 1,
          "duration": 0.5625
        },
        {
          "name": "G3",
          "midi": 55,
          "time": 57.5625,
          "velocity": 1,
          "duration": 0.5625
        },
        {
          "name": "B3",
          "midi": 59,
          "time": 57.5625,
          "velocity": 1,
          "duration": 0.5625
        },
        {
          "name": "A3",
          "midi": 57,
          "time": 57.5625,
          "velocity": 1,
          "duration": 1.125
        },
        {
          "name": "G4",
          "midi": 67,
          "time": 57.5625,
          "velocity": 1,
          "duration": 0.5625
        },
        {
          "name": "F3",
          "midi": 53,
          "time": 58.125,
          "velocity": 1,
          "duration": 0.5625
        },
        {
          "name": "A#3",
          "midi": 58,
          "time": 58.125,
          "velocity": 1,
          "duration": 0.5625
        },
        {
          "name": "A3",
          "midi": 57,
          "time": 58.125,
          "velocity": 1,
          "duration": 0.5625
        },
        {
          "name": "F4",
          "midi": 65,
          "time": 58.125,
          "velocity": 1,
          "duration": 0.5625
        },
        {
          "name": "F3",
          "midi": 53,
          "time": 58.6875,
          "velocity": 1,
          "duration": 0.5625
        },
        {
          "name": "A3",
          "midi": 57,
          "time": 58.6875,
          "velocity": 1,
          "duration": 1.875
        },
        {
          "name": "F4",
          "midi": 65,
          "time": 58.6875,
          "velocity": 1,
          "duration": 0.5625
        },
        {
          "name": "F3",
          "midi": 53,
          "time": 59.25,
          "velocity": 1,
          "duration": 0.1875
        },
        {
          "name": "E3",
          "midi": 52,
          "time": 59.4375,
          "velocity": 1,
          "duration": 0.1875
        },
        {
          "name": "D3",
          "midi": 50,
          "time": 59.625,
          "velocity": 1,
          "duration": 6.375
        },
        {
          "name": "D4",
          "midi": 62,
          "time": 60,
          "velocity": 1,
          "duration": 0.5625
        },
        {
          "name": "G4",
          "midi": 67,
          "time": 60,
          "velocity": 1,
          "duration": 0.5625
        },
        {
          "name": "A3",
          "midi": 57,
          "time": 60,
          "velocity": 1,
          "duration": 1.125
        },
        {
          "name": "D5",
          "midi": 74,
          "time": 60,
          "velocity": 1,
          "duration": 0.5625
        },
        {
          "name": "D4",
          "midi": 62,
          "time": 60.5625,
          "velocity": 1,
          "duration": 0.5625
        },
        {
          "name": "F#4",
          "midi": 66,
          "time": 60.5625,
          "velocity": 1,
          "duration": 0.5625
        },
        {
          "name": "A3",
          "midi": 57,
          "time": 60.5625,
          "velocity": 1,
          "duration": 1.125
        },
        {
          "name": "D5",
          "midi": 74,
          "time": 60.5625,
          "velocity": 1,
          "duration": 0.5625
        },
        {
          "name": "C4",
          "midi": 60,
          "time": 61.125,
          "velocity": 1,
          "duration": 0.5625
        },
        {
          "name": "F4",
          "midi": 65,
          "time": 61.125,
          "velocity": 1,
          "duration": 0.5625
        },
        {
          "name": "A3",
          "midi": 57,
          "time": 61.125,
          "velocity": 1,
          "duration": 1.125
        },
        {
          "name": "C5",
          "midi": 72,
          "time": 61.125,
          "velocity": 1,
          "duration": 0.5625
        },
        {
          "name": "C4",
          "midi": 60,
          "time": 61.6875,
          "velocity": 1,
          "duration": 0.5625
        },
        {
          "name": "E4",
          "midi": 64,
          "time": 61.6875,
          "velocity": 1,
          "duration": 0.5625
        },
        {
          "name": "A3",
          "midi": 57,
          "time": 61.6875,
          "velocity": 1,
          "duration": 0.5625
        },
        {
          "name": "C5",
          "midi": 72,
          "time": 61.6875,
          "velocity": 1,
          "duration": 0.5625
        },
        {
          "name": "A3",
          "midi": 57,
          "time": 62.25,
          "velocity": 1,
          "duration": 0.375
        },
        {
          "name": "D4",
          "midi": 62,
          "time": 62.25,
          "velocity": 1,
          "duration": 0.375
        },
        {
          "name": "A4",
          "midi": 69,
          "time": 62.25,
          "velocity": 1,
          "duration": 0.375
        },
        {
          "name": "A3",
          "midi": 57,
          "time": 62.625,
          "velocity": 1,
          "duration": 0.9375
        },
        {
          "name": "C#4",
          "midi": 61,
          "time": 62.625,
          "velocity": 1,
          "duration": 0.375
        },
        {
          "name": "A4",
          "midi": 69,
          "time": 62.625,
          "velocity": 1,
          "duration": 0.375
        },
        {
          "name": "G3",
          "midi": 55,
          "time": 63,
          "velocity": 1,
          "duration": 0.5625
        },
        {
          "name": "C4",
          "midi": 60,
          "time": 63,
          "velocity": 1,
          "duration": 0.5625
        },
        {
          "name": "A3",
          "midi": 57,
          "time": 63,
          "velocity": 1,
          "duration": 1.125
        },
        {
          "name": "G4",
          "midi": 67,
          "time": 63,
          "velocity": 1,
          "duration": 0.5625
        },
        {
          "name": "G3",
          "midi": 55,
          "time": 63.5625,
          "velocity": 1,
          "duration": 0.5625
        },
        {
          "name": "B3",
          "midi": 59,
          "time": 63.5625,
          "velocity": 1,
          "duration": 0.5625
        },
        {
          "name": "A3",
          "midi": 57,
          "time": 63.5625,
          "velocity": 1,
          "duration": 1.125
        },
        {
          "name": "G4",
          "midi": 67,
          "time": 63.5625,
          "velocity": 1,
          "duration": 0.5625
        },
        {
          "name": "F3",
          "midi": 53,
          "time": 64.125,
          "velocity": 1,
          "duration": 0.5625
        },
        {
          "name": "A#3",
          "midi": 58,
          "time": 64.125,
          "velocity": 1,
          "duration": 0.5625
        },
        {
          "name": "A3",
          "midi": 57,
          "time": 64.125,
          "velocity": 1,
          "duration": 0.5625
        },
        {
          "name": "F4",
          "midi": 65,
          "time": 64.125,
          "velocity": 1,
          "duration": 0.5625
        },
        {
          "name": "F3",
          "midi": 53,
          "time": 64.6875,
          "velocity": 1,
          "duration": 0.5625
        },
        {
          "name": "A3",
          "midi": 57,
          "time": 64.6875,
          "velocity": 1,
          "duration": 8.625
        },
        {
          "name": "F4",
          "midi": 65,
          "time": 64.6875,
          "velocity": 1,
          "duration": 0.5625
        },
        {
          "name": "F3",
          "midi": 53,
          "time": 65.25,
          "velocity": 1,
          "duration": 0.1875
        },
        {
          "name": "E3",
          "midi": 52,
          "time": 65.4375,
          "velocity": 1,
          "duration": 0.1875
        },
        {
          "name": "D3",
          "midi": 50,
          "time": 65.625,
          "velocity": 1,
          "duration": 0.75
        },
        {
          "name": "D3",
          "midi": 50,
          "time": 66.375,
          "velocity": 1,
          "duration": 0.1875
        },
        {
          "name": "A#3",
          "midi": 58,
          "time": 66.375,
          "velocity": 1,
          "duration": 0.1875
        },
        {
          "name": "D3",
          "midi": 50,
          "time": 66.5625,
          "velocity": 1,
          "duration": 0.1875
        },
        {
          "name": "A#3",
          "midi": 58,
          "time": 66.5625,
          "velocity": 1,
          "duration": 0.1875
        },
        {
          "name": "D3",
          "midi": 50,
          "time": 66.75,
          "velocity": 1,
          "duration": 0.75
        },
        {
          "name": "A#3",
          "midi": 58,
          "time": 66.75,
          "velocity": 1,
          "duration": 0.375
        },
        {
          "name": "D2",
          "midi": 38,
          "time": 67.125,
          "velocity": 1,
          "duration": 1.125
        },
        {
          "name": "D3",
          "midi": 50,
          "time": 67.5,
          "velocity": 1,
          "duration": 0.1875
        },
        {
          "name": "B3",
          "midi": 59,
          "time": 67.5,
          "velocity": 1,
          "duration": 0.1875
        },
        {
          "name": "D3",
          "midi": 50,
          "time": 67.6875,
          "velocity": 1,
          "duration": 0.1875
        },
        {
          "name": "B3",
          "midi": 59,
          "time": 67.6875,
          "velocity": 1,
          "duration": 0.1875
        },
        {
          "name": "D3",
          "midi": 50,
          "time": 67.875,
          "velocity": 1,
          "duration": 0.75
        },
        {
          "name": "B3",
          "midi": 59,
          "time": 67.875,
          "velocity": 1,
          "duration": 0.375
        },
        {
          "name": "D3",
          "midi": 50,
          "time": 68.625,
          "velocity": 1,
          "duration": 0.1875
        },
        {
          "name": "B3",
          "midi": 59,
          "time": 68.625,
          "velocity": 1,
          "duration": 0.1875
        },
        {
          "name": "D3",
          "midi": 50,
          "time": 68.8125,
          "velocity": 1,
          "duration": 0.1875
        },
        {
          "name": "B3",
          "midi": 59,
          "time": 68.8125,
          "velocity": 1,
          "duration": 0.1875
        },
        {
          "name": "D3",
          "midi": 50,
          "time": 69,
          "velocity": 1,
          "duration": 0.75
        },
        {
          "name": "B3",
          "midi": 59,
          "time": 69,
          "velocity": 1,
          "duration": 0.375
        },
        {
          "name": "D2",
          "midi": 38,
          "time": 69.375,
          "velocity": 1,
          "duration": 1.125
        },
        {
          "name": "D3",
          "midi": 50,
          "time": 69.75,
          "velocity": 1,
          "duration": 0.1875
        },
        {
          "name": "C4",
          "midi": 60,
          "time": 69.75,
          "velocity": 1,
          "duration": 0.1875
        },
        {
          "name": "D3",
          "midi": 50,
          "time": 69.9375,
          "velocity": 1,
          "duration": 0.1875
        },
        {
          "name": "C4",
          "midi": 60,
          "time": 69.9375,
          "velocity": 1,
          "duration": 0.1875
        },
        {
          "name": "D3",
          "midi": 50,
          "time": 70.125,
          "velocity": 1,
          "duration": 0.75
        },
        {
          "name": "C4",
          "midi": 60,
          "time": 70.125,
          "velocity": 1,
          "duration": 0.375
        },
        {
          "name": "D3",
          "midi": 50,
          "time": 70.875,
          "velocity": 1,
          "duration": 0.1875
        },
        {
          "name": "C4",
          "midi": 60,
          "time": 70.875,
          "velocity": 1,
          "duration": 0.1875
        },
        {
          "name": "D3",
          "midi": 50,
          "time": 71.0625,
          "velocity": 1,
          "duration": 0.1875
        },
        {
          "name": "C4",
          "midi": 60,
          "time": 71.0625,
          "velocity": 1,
          "duration": 0.1875
        },
        {
          "name": "D3",
          "midi": 50,
          "time": 71.25,
          "velocity": 1,
          "duration": 0.75
        },
        {
          "name": "C4",
          "midi": 60,
          "time": 71.25,
          "velocity": 1,
          "duration": 0.375
        },
        {
          "name": "D2",
          "midi": 38,
          "time": 71.625,
          "velocity": 1,
          "duration": 1.125
        },
        {
          "name": "D3",
          "midi": 50,
          "time": 72,
          "velocity": 1,
          "duration": 0.1875
        },
        {
          "name": "D4",
          "midi": 62,
          "time": 72,
          "velocity": 1,
          "duration": 0.1875
        },
        {
          "name": "D3",
          "midi": 50,
          "time": 72.1875,
          "velocity": 1,
          "duration": 0.1875
        },
        {
          "name": "D4",
          "midi": 62,
          "time": 72.1875,
          "velocity": 1,
          "duration": 0.1875
        },
        {
          "name": "D3",
          "midi": 50,
          "time": 72.375,
          "velocity": 1,
          "duration": 0.75
        },
        {
          "name": "D4",
          "midi": 62,
          "time": 72.375,
          "velocity": 1,
          "duration": 0.375
        },
        {
          "name": "D3",
          "midi": 50,
          "time": 73.125,
          "velocity": 1,
          "duration": 0.1875
        },
        {
          "name": "A3",
          "midi": 57,
          "time": 73.125,
          "velocity": 1,
          "duration": 0.375
        },
        {
          "name": "D3",
          "midi": 50,
          "time": 73.3125,
          "velocity": 1,
          "duration": 0.1875
        },
        {
          "name": "A3",
          "midi": 57,
          "time": 73.3125,
          "velocity": 1,
          "duration": 0.5625
        },
        {
          "name": "D3",
          "midi": 50,
          "time": 73.5,
          "velocity": 1,
          "duration": 0.75
        },
        {
          "name": "A3",
          "midi": 57,
          "time": 73.5,
          "velocity": 1,
          "duration": 8.8125
        },
        {
          "name": "D2",
          "midi": 38,
          "time": 73.875,
          "velocity": 1,
          "duration": 1.125
        },
        {
          "name": "D3",
          "midi": 50,
          "time": 74.25,
          "velocity": 1,
          "duration": 0.1875
        },
        {
          "name": "A#3",
          "midi": 58,
          "time": 74.25,
          "velocity": 1,
          "duration": 0.1875
        },
        {
          "name": "D3",
          "midi": 50,
          "time": 74.4375,
          "velocity": 1,
          "duration": 0.1875
        },
        {
          "name": "A#3",
          "midi": 58,
          "time": 74.4375,
          "velocity": 1,
          "duration": 0.1875
        },
        {
          "name": "D3",
          "midi": 50,
          "time": 74.625,
          "velocity": 1,
          "duration": 0.75
        },
        {
          "name": "A#3",
          "midi": 58,
          "time": 74.625,
          "velocity": 1,
          "duration": 0.375
        },
        {
          "name": "D3",
          "midi": 50,
          "time": 75.375,
          "velocity": 1,
          "duration": 0.1875
        },
        {
          "name": "A#3",
          "midi": 58,
          "time": 75.375,
          "velocity": 1,
          "duration": 0.1875
        },
        {
          "name": "D3",
          "midi": 50,
          "time": 75.5625,
          "velocity": 1,
          "duration": 0.1875
        },
        {
          "name": "A#3",
          "midi": 58,
          "time": 75.5625,
          "velocity": 1,
          "duration": 0.1875
        },
        {
          "name": "D3",
          "midi": 50,
          "time": 75.75,
          "velocity": 1,
          "duration": 0.75
        },
        {
          "name": "A#3",
          "midi": 58,
          "time": 75.75,
          "velocity": 1,
          "duration": 0.375
        },
        {
          "name": "D2",
          "midi": 38,
          "time": 76.125,
          "velocity": 1,
          "duration": 1.125
        },
        {
          "name": "D3",
          "midi": 50,
          "time": 76.5,
          "velocity": 1,
          "duration": 0.1875
        },
        {
          "name": "B3",
          "midi": 59,
          "time": 76.5,
          "velocity": 1,
          "duration": 0.1875
        },
        {
          "name": "D3",
          "midi": 50,
          "time": 76.6875,
          "velocity": 1,
          "duration": 0.1875
        },
        {
          "name": "B3",
          "midi": 59,
          "time": 76.6875,
          "velocity": 1,
          "duration": 0.1875
        },
        {
          "name": "D3",
          "midi": 50,
          "time": 76.875,
          "velocity": 1,
          "duration": 0.75
        },
        {
          "name": "B3",
          "midi": 59,
          "time": 76.875,
          "velocity": 1,
          "duration": 0.375
        },
        {
          "name": "D3",
          "midi": 50,
          "time": 77.625,
          "velocity": 1,
          "duration": 0.1875
        },
        {
          "name": "B3",
          "midi": 59,
          "time": 77.625,
          "velocity": 1,
          "duration": 0.1875
        },
        {
          "name": "D3",
          "midi": 50,
          "time": 77.8125,
          "velocity": 1,
          "duration": 0.1875
        },
        {
          "name": "B3",
          "midi": 59,
          "time": 77.8125,
          "velocity": 1,
          "duration": 0.1875
        },
        {
          "name": "D3",
          "midi": 50,
          "time": 78,
          "velocity": 1,
          "duration": 0.75
        },
        {
          "name": "B3",
          "midi": 59,
          "time": 78,
          "velocity": 1,
          "duration": 0.375
        },
        {
          "name": "D2",
          "midi": 38,
          "time": 78.375,
          "velocity": 1,
          "duration": 1.125
        },
        {
          "name": "D3",
          "midi": 50,
          "time": 78.75,
          "velocity": 1,
          "duration": 0.1875
        },
        {
          "name": "C4",
          "midi": 60,
          "time": 78.75,
          "velocity": 1,
          "duration": 0.1875
        },
        {
          "name": "D3",
          "midi": 50,
          "time": 78.9375,
          "velocity": 1,
          "duration": 0.1875
        },
        {
          "name": "C4",
          "midi": 60,
          "time": 78.9375,
          "velocity": 1,
          "duration": 0.1875
        },
        {
          "name": "D3",
          "midi": 50,
          "time": 79.125,
          "velocity": 1,
          "duration": 0.75
        },
        {
          "name": "C4",
          "midi": 60,
          "time": 79.125,
          "velocity": 1,
          "duration": 0.375
        },
        {
          "name": "D3",
          "midi": 50,
          "time": 79.875,
          "velocity": 1,
          "duration": 0.1875
        },
        {
          "name": "C4",
          "midi": 60,
          "time": 79.875,
          "velocity": 1,
          "duration": 0.1875
        },
        {
          "name": "D3",
          "midi": 50,
          "time": 80.0625,
          "velocity": 1,
          "duration": 0.1875
        },
        {
          "name": "C4",
          "midi": 60,
          "time": 80.0625,
          "velocity": 1,
          "duration": 0.1875
        },
        {
          "name": "D3",
          "midi": 50,
          "time": 80.25,
          "velocity": 1,
          "duration": 0.75
        },
        {
          "name": "C4",
          "midi": 60,
          "time": 80.25,
          "velocity": 1,
          "duration": 0.375
        },
        {
          "name": "D2",
          "midi": 38,
          "time": 80.625,
          "velocity": 1,
          "duration": 1.125
        },
        {
          "name": "D3",
          "midi": 50,
          "time": 81,
          "velocity": 1,
          "duration": 0.1875
        },
        {
          "name": "D4",
          "midi": 62,
          "time": 81,
          "velocity": 1,
          "duration": 0.1875
        },
        {
          "name": "D3",
          "midi": 50,
          "time": 81.1875,
          "velocity": 1,
          "duration": 0.1875
        },
        {
          "name": "D4",
          "midi": 62,
          "time": 81.1875,
          "velocity": 1,
          "duration": 0.1875
        },
        {
          "name": "D3",
          "midi": 50,
          "time": 81.375,
          "velocity": 1,
          "duration": 0.75
        },
        {
          "name": "D4",
          "midi": 62,
          "time": 81.375,
          "velocity": 1,
          "duration": 0.375
        },
        {
          "name": "D3",
          "midi": 50,
          "time": 82.125,
          "velocity": 1,
          "duration": 0.1875
        },
        {
          "name": "A3",
          "midi": 57,
          "time": 82.125,
          "velocity": 1,
          "duration": 0.375
        },
        {
          "name": "D3",
          "midi": 50,
          "time": 82.3125,
          "velocity": 1,
          "duration": 0.1875
        },
        {
          "name": "A3",
          "midi": 57,
          "time": 82.3125,
          "velocity": 1,
          "duration": 0.5625
        },
        {
          "name": "D3",
          "midi": 50,
          "time": 82.5,
          "velocity": 1,
          "duration": 0.75
        },
        {
          "name": "A3",
          "midi": 57,
          "time": 82.5,
          "velocity": 1,
          "duration": 8.8125
        },
        {
          "name": "D2",
          "midi": 38,
          "time": 82.875,
          "velocity": 1,
          "duration": 1.125
        },
        {
          "name": "D3",
          "midi": 50,
          "time": 83.25,
          "velocity": 1,
          "duration": 0.1875
        },
        {
          "name": "A#3",
          "midi": 58,
          "time": 83.25,
          "velocity": 1,
          "duration": 0.1875
        },
        {
          "name": "D3",
          "midi": 50,
          "time": 83.4375,
          "velocity": 1,
          "duration": 0.1875
        },
        {
          "name": "A#3",
          "midi": 58,
          "time": 83.4375,
          "velocity": 1,
          "duration": 0.1875
        },
        {
          "name": "D3",
          "midi": 50,
          "time": 83.625,
          "velocity": 1,
          "duration": 0.75
        },
        {
          "name": "A#3",
          "midi": 58,
          "time": 83.625,
          "velocity": 1,
          "duration": 0.375
        },
        {
          "name": "D3",
          "midi": 50,
          "time": 84.375,
          "velocity": 1,
          "duration": 0.1875
        },
        {
          "name": "A#3",
          "midi": 58,
          "time": 84.375,
          "velocity": 1,
          "duration": 0.1875
        },
        {
          "name": "D3",
          "midi": 50,
          "time": 84.5625,
          "velocity": 1,
          "duration": 0.1875
        },
        {
          "name": "A#3",
          "midi": 58,
          "time": 84.5625,
          "velocity": 1,
          "duration": 0.1875
        },
        {
          "name": "D3",
          "midi": 50,
          "time": 84.75,
          "velocity": 1,
          "duration": 0.75
        },
        {
          "name": "A#3",
          "midi": 58,
          "time": 84.75,
          "velocity": 1,
          "duration": 0.375
        },
        {
          "name": "D2",
          "midi": 38,
          "time": 85.125,
          "velocity": 1,
          "duration": 1.125
        },
        {
          "name": "D3",
          "midi": 50,
          "time": 85.5,
          "velocity": 1,
          "duration": 0.1875
        },
        {
          "name": "B3",
          "midi": 59,
          "time": 85.5,
          "velocity": 1,
          "duration": 0.1875
        },
        {
          "name": "D3",
          "midi": 50,
          "time": 85.6875,
          "velocity": 1,
          "duration": 0.1875
        },
        {
          "name": "B3",
          "midi": 59,
          "time": 85.6875,
          "velocity": 1,
          "duration": 0.1875
        },
        {
          "name": "D3",
          "midi": 50,
          "time": 85.875,
          "velocity": 1,
          "duration": 0.75
        },
        {
          "name": "B3",
          "midi": 59,
          "time": 85.875,
          "velocity": 1,
          "duration": 0.375
        },
        {
          "name": "D3",
          "midi": 50,
          "time": 86.625,
          "velocity": 1,
          "duration": 0.1875
        },
        {
          "name": "B3",
          "midi": 59,
          "time": 86.625,
          "velocity": 1,
          "duration": 0.1875
        },
        {
          "name": "D3",
          "midi": 50,
          "time": 86.8125,
          "velocity": 1,
          "duration": 0.1875
        },
        {
          "name": "B3",
          "midi": 59,
          "time": 86.8125,
          "velocity": 1,
          "duration": 0.1875
        },
        {
          "name": "D3",
          "midi": 50,
          "time": 87,
          "velocity": 1,
          "duration": 0.75
        },
        {
          "name": "B3",
          "midi": 59,
          "time": 87,
          "velocity": 1,
          "duration": 0.375
        },
        {
          "name": "D2",
          "midi": 38,
          "time": 87.375,
          "velocity": 1,
          "duration": 1.125
        },
        {
          "name": "D3",
          "midi": 50,
          "time": 87.75,
          "velocity": 1,
          "duration": 0.1875
        },
        {
          "name": "C4",
          "midi": 60,
          "time": 87.75,
          "velocity": 1,
          "duration": 0.1875
        },
        {
          "name": "D3",
          "midi": 50,
          "time": 87.9375,
          "velocity": 1,
          "duration": 0.1875
        },
        {
          "name": "C4",
          "midi": 60,
          "time": 87.9375,
          "velocity": 1,
          "duration": 0.1875
        },
        {
          "name": "D3",
          "midi": 50,
          "time": 88.125,
          "velocity": 1,
          "duration": 0.75
        },
        {
          "name": "C4",
          "midi": 60,
          "time": 88.125,
          "velocity": 1,
          "duration": 0.375
        },
        {
          "name": "D3",
          "midi": 50,
          "time": 88.875,
          "velocity": 1,
          "duration": 0.1875
        },
        {
          "name": "C4",
          "midi": 60,
          "time": 88.875,
          "velocity": 1,
          "duration": 0.1875
        },
        {
          "name": "D3",
          "midi": 50,
          "time": 89.0625,
          "velocity": 1,
          "duration": 0.1875
        },
        {
          "name": "C4",
          "midi": 60,
          "time": 89.0625,
          "velocity": 1,
          "duration": 0.1875
        },
        {
          "name": "D3",
          "midi": 50,
          "time": 89.25,
          "velocity": 1,
          "duration": 0.75
        },
        {
          "name": "C4",
          "midi": 60,
          "time": 89.25,
          "velocity": 1,
          "duration": 0.375
        },
        {
          "name": "D2",
          "midi": 38,
          "time": 89.625,
          "velocity": 1,
          "duration": 1.125
        },
        {
          "name": "D3",
          "midi": 50,
          "time": 90,
          "velocity": 1,
          "duration": 0.1875
        },
        {
          "name": "D4",
          "midi": 62,
          "time": 90,
          "velocity": 1,
          "duration": 0.1875
        },
        {
          "name": "D3",
          "midi": 50,
          "time": 90.1875,
          "velocity": 1,
          "duration": 0.1875
        },
        {
          "name": "D4",
          "midi": 62,
          "time": 90.1875,
          "velocity": 1,
          "duration": 0.1875
        },
        {
          "name": "D3",
          "midi": 50,
          "time": 90.375,
          "velocity": 1,
          "duration": 0.75
        },
        {
          "name": "D4",
          "midi": 62,
          "time": 90.375,
          "velocity": 1,
          "duration": 0.375
        },
        {
          "name": "D3",
          "midi": 50,
          "time": 91.125,
          "velocity": 1,
          "duration": 0.1875
        },
        {
          "name": "A3",
          "midi": 57,
          "time": 91.125,
          "velocity": 1,
          "duration": 0.375
        },
        {
          "name": "D3",
          "midi": 50,
          "time": 91.3125,
          "velocity": 1,
          "duration": 0.1875
        },
        {
          "name": "A3",
          "midi": 57,
          "time": 91.3125,
          "velocity": 1,
          "duration": 0.5625
        },
        {
          "name": "D3",
          "midi": 50,
          "time": 91.5,
          "velocity": 1,
          "duration": 0.75
        },
        {
          "name": "A3",
          "midi": 57,
          "time": 91.5,
          "velocity": 1,
          "duration": 8.8125
        },
        {
          "name": "D2",
          "midi": 38,
          "time": 91.875,
          "velocity": 1,
          "duration": 1.125
        },
        {
          "name": "D3",
          "midi": 50,
          "time": 92.25,
          "velocity": 1,
          "duration": 0.1875
        },
        {
          "name": "A#3",
          "midi": 58,
          "time": 92.25,
          "velocity": 1,
          "duration": 0.1875
        },
        {
          "name": "D3",
          "midi": 50,
          "time": 92.4375,
          "velocity": 1,
          "duration": 0.1875
        },
        {
          "name": "A#3",
          "midi": 58,
          "time": 92.4375,
          "velocity": 1,
          "duration": 0.1875
        },
        {
          "name": "D3",
          "midi": 50,
          "time": 92.625,
          "velocity": 1,
          "duration": 0.75
        },
        {
          "name": "A#3",
          "midi": 58,
          "time": 92.625,
          "velocity": 1,
          "duration": 0.375
        },
        {
          "name": "D3",
          "midi": 50,
          "time": 93.375,
          "velocity": 1,
          "duration": 0.1875
        },
        {
          "name": "A#3",
          "midi": 58,
          "time": 93.375,
          "velocity": 1,
          "duration": 0.1875
        },
        {
          "name": "D3",
          "midi": 50,
          "time": 93.5625,
          "velocity": 1,
          "duration": 0.1875
        },
        {
          "name": "A#3",
          "midi": 58,
          "time": 93.5625,
          "velocity": 1,
          "duration": 0.1875
        },
        {
          "name": "D3",
          "midi": 50,
          "time": 93.75,
          "velocity": 1,
          "duration": 0.75
        },
        {
          "name": "A#3",
          "midi": 58,
          "time": 93.75,
          "velocity": 1,
          "duration": 0.375
        },
        {
          "name": "D2",
          "midi": 38,
          "time": 94.125,
          "velocity": 1,
          "duration": 1.125
        },
        {
          "name": "D3",
          "midi": 50,
          "time": 94.5,
          "velocity": 1,
          "duration": 0.1875
        },
        {
          "name": "B3",
          "midi": 59,
          "time": 94.5,
          "velocity": 1,
          "duration": 0.1875
        },
        {
          "name": "D3",
          "midi": 50,
          "time": 94.6875,
          "velocity": 1,
          "duration": 0.1875
        },
        {
          "name": "B3",
          "midi": 59,
          "time": 94.6875,
          "velocity": 1,
          "duration": 0.1875
        },
        {
          "name": "D3",
          "midi": 50,
          "time": 94.875,
          "velocity": 1,
          "duration": 0.75
        },
        {
          "name": "B3",
          "midi": 59,
          "time": 94.875,
          "velocity": 1,
          "duration": 0.375
        },
        {
          "name": "D3",
          "midi": 50,
          "time": 95.625,
          "velocity": 1,
          "duration": 0.1875
        },
        {
          "name": "B3",
          "midi": 59,
          "time": 95.625,
          "velocity": 1,
          "duration": 0.1875
        },
        {
          "name": "D3",
          "midi": 50,
          "time": 95.8125,
          "velocity": 1,
          "duration": 0.1875
        },
        {
          "name": "B3",
          "midi": 59,
          "time": 95.8125,
          "velocity": 1,
          "duration": 0.1875
        },
        {
          "name": "D3",
          "midi": 50,
          "time": 96,
          "velocity": 1,
          "duration": 0.75
        },
        {
          "name": "B3",
          "midi": 59,
          "time": 96,
          "velocity": 1,
          "duration": 0.375
        },
        {
          "name": "D2",
          "midi": 38,
          "time": 96.375,
          "velocity": 1,
          "duration": 1.125
        },
        {
          "name": "D3",
          "midi": 50,
          "time": 96.75,
          "velocity": 1,
          "duration": 0.1875
        },
        {
          "name": "C4",
          "midi": 60,
          "time": 96.75,
          "velocity": 1,
          "duration": 0.1875
        },
        {
          "name": "D3",
          "midi": 50,
          "time": 96.9375,
          "velocity": 1,
          "duration": 0.1875
        },
        {
          "name": "C4",
          "midi": 60,
          "time": 96.9375,
          "velocity": 1,
          "duration": 0.1875
        },
        {
          "name": "D3",
          "midi": 50,
          "time": 97.125,
          "velocity": 1,
          "duration": 0.75
        },
        {
          "name": "C4",
          "midi": 60,
          "time": 97.125,
          "velocity": 1,
          "duration": 0.375
        },
        {
          "name": "D3",
          "midi": 50,
          "time": 97.875,
          "velocity": 1,
          "duration": 0.1875
        },
        {
          "name": "C4",
          "midi": 60,
          "time": 97.875,
          "velocity": 1,
          "duration": 0.1875
        },
        {
          "name": "D3",
          "midi": 50,
          "time": 98.0625,
          "velocity": 1,
          "duration": 0.1875
        },
        {
          "name": "C4",
          "midi": 60,
          "time": 98.0625,
          "velocity": 1,
          "duration": 0.1875
        },
        {
          "name": "D3",
          "midi": 50,
          "time": 98.25,
          "velocity": 1,
          "duration": 0.75
        },
        {
          "name": "C4",
          "midi": 60,
          "time": 98.25,
          "velocity": 1,
          "duration": 0.375
        },
        {
          "name": "D2",
          "midi": 38,
          "time": 98.625,
          "velocity": 1,
          "duration": 1.125
        },
        {
          "name": "D3",
          "midi": 50,
          "time": 99,
          "velocity": 1,
          "duration": 0.1875
        },
        {
          "name": "D4",
          "midi": 62,
          "time": 99,
          "velocity": 1,
          "duration": 0.1875
        },
        {
          "name": "D3",
          "midi": 50,
          "time": 99.1875,
          "velocity": 1,
          "duration": 0.1875
        },
        {
          "name": "D4",
          "midi": 62,
          "time": 99.1875,
          "velocity": 1,
          "duration": 0.1875
        },
        {
          "name": "D3",
          "midi": 50,
          "time": 99.375,
          "velocity": 1,
          "duration": 0.75
        },
        {
          "name": "D4",
          "midi": 62,
          "time": 99.375,
          "velocity": 1,
          "duration": 0.375
        },
        {
          "name": "D3",
          "midi": 50,
          "time": 100.125,
          "velocity": 1,
          "duration": 0.1875
        },
        {
          "name": "A3",
          "midi": 57,
          "time": 100.125,
          "velocity": 1,
          "duration": 0.375
        },
        {
          "name": "D3",
          "midi": 50,
          "time": 100.3125,
          "velocity": 1,
          "duration": 0.1875
        },
        {
          "name": "A3",
          "midi": 57,
          "time": 100.3125,
          "velocity": 1,
          "duration": 0.5625
        },
        {
          "name": "D3",
          "midi": 50,
          "time": 100.5,
          "velocity": 1,
          "duration": 0.75
        },
        {
          "name": "A3",
          "midi": 57,
          "time": 100.5,
          "velocity": 1,
          "duration": 8.0625
        },
        {
          "name": "D2",
          "midi": 38,
          "time": 100.875,
          "velocity": 1,
          "duration": 1.125
        },
        {
          "name": "D3",
          "midi": 50,
          "time": 101.25,
          "velocity": 1,
          "duration": 0.1875
        },
        {
          "name": "A#3",
          "midi": 58,
          "time": 101.25,
          "velocity": 1,
          "duration": 0.1875
        },
        {
          "name": "D3",
          "midi": 50,
          "time": 101.4375,
          "velocity": 1,
          "duration": 0.1875
        },
        {
          "name": "A#3",
          "midi": 58,
          "time": 101.4375,
          "velocity": 1,
          "duration": 0.1875
        },
        {
          "name": "D3",
          "midi": 50,
          "time": 101.625,
          "velocity": 1,
          "duration": 0.75
        },
        {
          "name": "A#3",
          "midi": 58,
          "time": 101.625,
          "velocity": 1,
          "duration": 0.375
        },
        {
          "name": "D3",
          "midi": 50,
          "time": 102.375,
          "velocity": 1,
          "duration": 0.1875
        },
        {
          "name": "A#3",
          "midi": 58,
          "time": 102.375,
          "velocity": 1,
          "duration": 0.1875
        },
        {
          "name": "D3",
          "midi": 50,
          "time": 102.5625,
          "velocity": 1,
          "duration": 0.1875
        },
        {
          "name": "A#3",
          "midi": 58,
          "time": 102.5625,
          "velocity": 1,
          "duration": 0.1875
        },
        {
          "name": "D3",
          "midi": 50,
          "time": 102.75,
          "velocity": 1,
          "duration": 0.75
        },
        {
          "name": "A#3",
          "midi": 58,
          "time": 102.75,
          "velocity": 1,
          "duration": 0.375
        },
        {
          "name": "D2",
          "midi": 38,
          "time": 103.125,
          "velocity": 1,
          "duration": 1.125
        },
        {
          "name": "D3",
          "midi": 50,
          "time": 103.5,
          "velocity": 1,
          "duration": 0.1875
        },
        {
          "name": "B3",
          "midi": 59,
          "time": 103.5,
          "velocity": 1,
          "duration": 0.1875
        },
        {
          "name": "D3",
          "midi": 50,
          "time": 103.6875,
          "velocity": 1,
          "duration": 0.1875
        },
        {
          "name": "B3",
          "midi": 59,
          "time": 103.6875,
          "velocity": 1,
          "duration": 0.1875
        },
        {
          "name": "D3",
          "midi": 50,
          "time": 103.875,
          "velocity": 1,
          "duration": 0.75
        },
        {
          "name": "B3",
          "midi": 59,
          "time": 103.875,
          "velocity": 1,
          "duration": 0.375
        },
        {
          "name": "D3",
          "midi": 50,
          "time": 104.625,
          "velocity": 1,
          "duration": 0.1875
        },
        {
          "name": "B3",
          "midi": 59,
          "time": 104.625,
          "velocity": 1,
          "duration": 0.1875
        },
        {
          "name": "D3",
          "midi": 50,
          "time": 104.8125,
          "velocity": 1,
          "duration": 0.1875
        },
        {
          "name": "B3",
          "midi": 59,
          "time": 104.8125,
          "velocity": 1,
          "duration": 0.1875
        },
        {
          "name": "D3",
          "midi": 50,
          "time": 105,
          "velocity": 1,
          "duration": 0.75
        },
        {
          "name": "B3",
          "midi": 59,
          "time": 105,
          "velocity": 1,
          "duration": 0.375
        },
        {
          "name": "D2",
          "midi": 38,
          "time": 105.375,
          "velocity": 1,
          "duration": 1.125
        },
        {
          "name": "D3",
          "midi": 50,
          "time": 105.75,
          "velocity": 1,
          "duration": 0.1875
        },
        {
          "name": "C4",
          "midi": 60,
          "time": 105.75,
          "velocity": 1,
          "duration": 0.1875
        },
        {
          "name": "D3",
          "midi": 50,
          "time": 105.9375,
          "velocity": 1,
          "duration": 0.1875
        },
        {
          "name": "C4",
          "midi": 60,
          "time": 105.9375,
          "velocity": 1,
          "duration": 0.1875
        },
        {
          "name": "D3",
          "midi": 50,
          "time": 106.125,
          "velocity": 1,
          "duration": 0.75
        },
        {
          "name": "C4",
          "midi": 60,
          "time": 106.125,
          "velocity": 1,
          "duration": 0.375
        },
        {
          "name": "D3",
          "midi": 50,
          "time": 106.875,
          "velocity": 1,
          "duration": 0.1875
        },
        {
          "name": "C4",
          "midi": 60,
          "time": 106.875,
          "velocity": 1,
          "duration": 0.1875
        },
        {
          "name": "D3",
          "midi": 50,
          "time": 107.0625,
          "velocity": 1,
          "duration": 0.1875
        },
        {
          "name": "C4",
          "midi": 60,
          "time": 107.0625,
          "velocity": 1,
          "duration": 0.1875
        },
        {
          "name": "D3",
          "midi": 50,
          "time": 107.25,
          "velocity": 1,
          "duration": 6.75
        },
        {
          "name": "C4",
          "midi": 60,
          "time": 107.25,
          "velocity": 1,
          "duration": 0.375
        },
        {
          "name": "D4",
          "midi": 62,
          "time": 108,
          "velocity": 1,
          "duration": 0.5625
        },
        {
          "name": "G4",
          "midi": 67,
          "time": 108,
          "velocity": 1,
          "duration": 0.5625
        },
        {
          "name": "A3",
          "midi": 57,
          "time": 108,
          "velocity": 1,
          "duration": 1.125
        },
        {
          "name": "D5",
          "midi": 74,
          "time": 108,
          "velocity": 1,
          "duration": 0.5625
        },
        {
          "name": "D4",
          "midi": 62,
          "time": 108.5625,
          "velocity": 1,
          "duration": 0.5625
        },
        {
          "name": "F#4",
          "midi": 66,
          "time": 108.5625,
          "velocity": 1,
          "duration": 0.5625
        },
        {
          "name": "A3",
          "midi": 57,
          "time": 108.5625,
          "velocity": 1,
          "duration": 1.125
        },
        {
          "name": "D5",
          "midi": 74,
          "time": 108.5625,
          "velocity": 1,
          "duration": 0.5625
        },
        {
          "name": "C4",
          "midi": 60,
          "time": 109.125,
          "velocity": 1,
          "duration": 0.5625
        },
        {
          "name": "F4",
          "midi": 65,
          "time": 109.125,
          "velocity": 1,
          "duration": 0.5625
        },
        {
          "name": "A3",
          "midi": 57,
          "time": 109.125,
          "velocity": 1,
          "duration": 1.125
        },
        {
          "name": "C5",
          "midi": 72,
          "time": 109.125,
          "velocity": 1,
          "duration": 0.5625
        },
        {
          "name": "C4",
          "midi": 60,
          "time": 109.6875,
          "velocity": 1,
          "duration": 0.5625
        },
        {
          "name": "E4",
          "midi": 64,
          "time": 109.6875,
          "velocity": 1,
          "duration": 0.5625
        },
        {
          "name": "A3",
          "midi": 57,
          "time": 109.6875,
          "velocity": 1,
          "duration": 0.5625
        },
        {
          "name": "C5",
          "midi": 72,
          "time": 109.6875,
          "velocity": 1,
          "duration": 0.5625
        },
        {
          "name": "A3",
          "midi": 57,
          "time": 110.25,
          "velocity": 1,
          "duration": 0.375
        },
        {
          "name": "D4",
          "midi": 62,
          "time": 110.25,
          "velocity": 1,
          "duration": 0.375
        },
        {
          "name": "A4",
          "midi": 69,
          "time": 110.25,
          "velocity": 1,
          "duration": 0.375
        },
        {
          "name": "A3",
          "midi": 57,
          "time": 110.625,
          "velocity": 1,
          "duration": 0.9375
        },
        {
          "name": "C#4",
          "midi": 61,
          "time": 110.625,
          "velocity": 1,
          "duration": 0.375
        },
        {
          "name": "A4",
          "midi": 69,
          "time": 110.625,
          "velocity": 1,
          "duration": 0.375
        },
        {
          "name": "G3",
          "midi": 55,
          "time": 111,
          "velocity": 1,
          "duration": 0.5625
        },
        {
          "name": "C4",
          "midi": 60,
          "time": 111,
          "velocity": 1,
          "duration": 0.5625
        },
        {
          "name": "A3",
          "midi": 57,
          "time": 111,
          "velocity": 1,
          "duration": 1.125
        },
        {
          "name": "G4",
          "midi": 67,
          "time": 111,
          "velocity": 1,
          "duration": 0.5625
        },
        {
          "name": "G3",
          "midi": 55,
          "time": 111.5625,
          "velocity": 1,
          "duration": 0.5625
        },
        {
          "name": "B3",
          "midi": 59,
          "time": 111.5625,
          "velocity": 1,
          "duration": 0.5625
        },
        {
          "name": "A3",
          "midi": 57,
          "time": 111.5625,
          "velocity": 1,
          "duration": 1.125
        },
        {
          "name": "G4",
          "midi": 67,
          "time": 111.5625,
          "velocity": 1,
          "duration": 0.5625
        },
        {
          "name": "F3",
          "midi": 53,
          "time": 112.125,
          "velocity": 1,
          "duration": 0.5625
        },
        {
          "name": "A#3",
          "midi": 58,
          "time": 112.125,
          "velocity": 1,
          "duration": 0.5625
        },
        {
          "name": "A3",
          "midi": 57,
          "time": 112.125,
          "velocity": 1,
          "duration": 0.5625
        },
        {
          "name": "F4",
          "midi": 65,
          "time": 112.125,
          "velocity": 1,
          "duration": 0.5625
        },
        {
          "name": "F3",
          "midi": 53,
          "time": 112.6875,
          "velocity": 1,
          "duration": 0.5625
        },
        {
          "name": "A3",
          "midi": 57,
          "time": 112.6875,
          "velocity": 1,
          "duration": 1.875
        },
        {
          "name": "F4",
          "midi": 65,
          "time": 112.6875,
          "velocity": 1,
          "duration": 0.5625
        },
        {
          "name": "F3",
          "midi": 53,
          "time": 113.25,
          "velocity": 1,
          "duration": 0.1875
        },
        {
          "name": "E3",
          "midi": 52,
          "time": 113.4375,
          "velocity": 1,
          "duration": 0.1875
        },
        {
          "name": "D3",
          "midi": 50,
          "time": 113.625,
          "velocity": 1,
          "duration": 6.375
        },
        {
          "name": "D4",
          "midi": 62,
          "time": 114,
          "velocity": 1,
          "duration": 0.5625
        },
        {
          "name": "G4",
          "midi": 67,
          "time": 114,
          "velocity": 1,
          "duration": 0.5625
        },
        {
          "name": "A3",
          "midi": 57,
          "time": 114,
          "velocity": 1,
          "duration": 1.125
        },
        {
          "name": "D5",
          "midi": 74,
          "time": 114,
          "velocity": 1,
          "duration": 0.5625
        },
        {
          "name": "D4",
          "midi": 62,
          "time": 114.5625,
          "velocity": 1,
          "duration": 0.5625
        },
        {
          "name": "F#4",
          "midi": 66,
          "time": 114.5625,
          "velocity": 1,
          "duration": 0.5625
        },
        {
          "name": "A3",
          "midi": 57,
          "time": 114.5625,
          "velocity": 1,
          "duration": 1.125
        },
        {
          "name": "D5",
          "midi": 74,
          "time": 114.5625,
          "velocity": 1,
          "duration": 0.5625
        },
        {
          "name": "C4",
          "midi": 60,
          "time": 115.125,
          "velocity": 1,
          "duration": 0.5625
        },
        {
          "name": "F4",
          "midi": 65,
          "time": 115.125,
          "velocity": 1,
          "duration": 0.5625
        },
        {
          "name": "A3",
          "midi": 57,
          "time": 115.125,
          "velocity": 1,
          "duration": 1.125
        },
        {
          "name": "C5",
          "midi": 72,
          "time": 115.125,
          "velocity": 1,
          "duration": 0.5625
        },
        {
          "name": "C4",
          "midi": 60,
          "time": 115.6875,
          "velocity": 1,
          "duration": 0.5625
        },
        {
          "name": "E4",
          "midi": 64,
          "time": 115.6875,
          "velocity": 1,
          "duration": 0.5625
        },
        {
          "name": "A3",
          "midi": 57,
          "time": 115.6875,
          "velocity": 1,
          "duration": 0.5625
        },
        {
          "name": "C5",
          "midi": 72,
          "time": 115.6875,
          "velocity": 1,
          "duration": 0.5625
        },
        {
          "name": "A3",
          "midi": 57,
          "time": 116.25,
          "velocity": 1,
          "duration": 0.375
        },
        {
          "name": "D4",
          "midi": 62,
          "time": 116.25,
          "velocity": 1,
          "duration": 0.375
        },
        {
          "name": "A4",
          "midi": 69,
          "time": 116.25,
          "velocity": 1,
          "duration": 0.375
        },
        {
          "name": "A3",
          "midi": 57,
          "time": 116.625,
          "velocity": 1,
          "duration": 0.9375
        },
        {
          "name": "C#4",
          "midi": 61,
          "time": 116.625,
          "velocity": 1,
          "duration": 0.375
        },
        {
          "name": "A4",
          "midi": 69,
          "time": 116.625,
          "velocity": 1,
          "duration": 0.375
        },
        {
          "name": "G3",
          "midi": 55,
          "time": 117,
          "velocity": 1,
          "duration": 0.5625
        },
        {
          "name": "C4",
          "midi": 60,
          "time": 117,
          "velocity": 1,
          "duration": 0.5625
        },
        {
          "name": "A3",
          "midi": 57,
          "time": 117,
          "velocity": 1,
          "duration": 1.125
        },
        {
          "name": "G4",
          "midi": 67,
          "time": 117,
          "velocity": 1,
          "duration": 0.5625
        },
        {
          "name": "G3",
          "midi": 55,
          "time": 117.5625,
          "velocity": 1,
          "duration": 0.5625
        },
        {
          "name": "B3",
          "midi": 59,
          "time": 117.5625,
          "velocity": 1,
          "duration": 0.5625
        },
        {
          "name": "A3",
          "midi": 57,
          "time": 117.5625,
          "velocity": 1,
          "duration": 1.125
        },
        {
          "name": "G4",
          "midi": 67,
          "time": 117.5625,
          "velocity": 1,
          "duration": 0.5625
        },
        {
          "name": "F3",
          "midi": 53,
          "time": 118.125,
          "velocity": 1,
          "duration": 0.5625
        },
        {
          "name": "A#3",
          "midi": 58,
          "time": 118.125,
          "velocity": 1,
          "duration": 0.5625
        },
        {
          "name": "A3",
          "midi": 57,
          "time": 118.125,
          "velocity": 1,
          "duration": 0.5625
        },
        {
          "name": "F4",
          "midi": 65,
          "time": 118.125,
          "velocity": 1,
          "duration": 0.5625
        },
        {
          "name": "F3",
          "midi": 53,
          "time": 118.6875,
          "velocity": 1,
          "duration": 0.5625
        },
        {
          "name": "A3",
          "midi": 57,
          "time": 118.6875,
          "velocity": 1,
          "duration": 7.875
        },
        {
          "name": "F4",
          "midi": 65,
          "time": 118.6875,
          "velocity": 1,
          "duration": 0.5625
        },
        {
          "name": "F3",
          "midi": 53,
          "time": 119.25,
          "velocity": 1,
          "duration": 0.1875
        },
        {
          "name": "E3",
          "midi": 52,
          "time": 119.4375,
          "velocity": 1,
          "duration": 0.1875
        },
        {
          "name": "D3",
          "midi": 50,
          "time": 119.625,
          "velocity": 1,
          "duration": 0.75
        },
        {
          "name": "D3",
          "midi": 50,
          "time": 120.375,
          "velocity": 1,
          "duration": 0.1875
        },
        {
          "name": "A#3",
          "midi": 58,
          "time": 120.375,
          "velocity": 1,
          "duration": 0.1875
        },
        {
          "name": "D3",
          "midi": 50,
          "time": 120.5625,
          "velocity": 1,
          "duration": 0.1875
        },
        {
          "name": "A#3",
          "midi": 58,
          "time": 120.5625,
          "velocity": 1,
          "duration": 0.1875
        },
        {
          "name": "D3",
          "midi": 50,
          "time": 120.75,
          "velocity": 1,
          "duration": 0.75
        },
        {
          "name": "A#3",
          "midi": 58,
          "time": 120.75,
          "velocity": 1,
          "duration": 0.375
        },
        {
          "name": "D2",
          "midi": 38,
          "time": 121.125,
          "velocity": 1,
          "duration": 1.125
        },
        {
          "name": "D3",
          "midi": 50,
          "time": 121.5,
          "velocity": 1,
          "duration": 0.1875
        },
        {
          "name": "B3",
          "midi": 59,
          "time": 121.5,
          "velocity": 1,
          "duration": 0.1875
        },
        {
          "name": "D3",
          "midi": 50,
          "time": 121.6875,
          "velocity": 1,
          "duration": 0.1875
        },
        {
          "name": "B3",
          "midi": 59,
          "time": 121.6875,
          "velocity": 1,
          "duration": 0.1875
        },
        {
          "name": "D3",
          "midi": 50,
          "time": 121.875,
          "velocity": 1,
          "duration": 0.75
        },
        {
          "name": "B3",
          "midi": 59,
          "time": 121.875,
          "velocity": 1,
          "duration": 0.375
        },
        {
          "name": "D3",
          "midi": 50,
          "time": 122.625,
          "velocity": 1,
          "duration": 0.1875
        },
        {
          "name": "B3",
          "midi": 59,
          "time": 122.625,
          "velocity": 1,
          "duration": 0.1875
        },
        {
          "name": "D3",
          "midi": 50,
          "time": 122.8125,
          "velocity": 1,
          "duration": 0.1875
        },
        {
          "name": "B3",
          "midi": 59,
          "time": 122.8125,
          "velocity": 1,
          "duration": 0.1875
        },
        {
          "name": "D3",
          "midi": 50,
          "time": 123,
          "velocity": 1,
          "duration": 0.75
        },
        {
          "name": "B3",
          "midi": 59,
          "time": 123,
          "velocity": 1,
          "duration": 0.375
        },
        {
          "name": "D2",
          "midi": 38,
          "time": 123.375,
          "velocity": 1,
          "duration": 1.125
        },
        {
          "name": "D3",
          "midi": 50,
          "time": 123.75,
          "velocity": 1,
          "duration": 0.1875
        },
        {
          "name": "C4",
          "midi": 60,
          "time": 123.75,
          "velocity": 1,
          "duration": 0.1875
        },
        {
          "name": "D3",
          "midi": 50,
          "time": 123.9375,
          "velocity": 1,
          "duration": 0.1875
        },
        {
          "name": "C4",
          "midi": 60,
          "time": 123.9375,
          "velocity": 1,
          "duration": 0.1875
        },
        {
          "name": "D3",
          "midi": 50,
          "time": 124.125,
          "velocity": 1,
          "duration": 0.75
        },
        {
          "name": "C4",
          "midi": 60,
          "time": 124.125,
          "velocity": 1,
          "duration": 0.375
        },
        {
          "name": "D3",
          "midi": 50,
          "time": 124.875,
          "velocity": 1,
          "duration": 0.1875
        },
        {
          "name": "C4",
          "midi": 60,
          "time": 124.875,
          "velocity": 1,
          "duration": 0.1875
        },
        {
          "name": "D3",
          "midi": 50,
          "time": 125.0625,
          "velocity": 1,
          "duration": 0.1875
        },
        {
          "name": "C4",
          "midi": 60,
          "time": 125.0625,
          "velocity": 1,
          "duration": 0.1875
        },
        {
          "name": "D3",
          "midi": 50,
          "time": 125.25,
          "velocity": 1,
          "duration": 6.5625
        },
        {
          "name": "C4",
          "midi": 60,
          "time": 125.25,
          "velocity": 1,
          "duration": 0.375
        },
        {
          "name": "D4",
          "midi": 62,
          "time": 126,
          "velocity": 1,
          "duration": 0.5625
        },
        {
          "name": "G4",
          "midi": 67,
          "time": 126,
          "velocity": 1,
          "duration": 0.5625
        },
        {
          "name": "A3",
          "midi": 57,
          "time": 126,
          "velocity": 1,
          "duration": 1.125
        },
        {
          "name": "D5",
          "midi": 74,
          "time": 126,
          "velocity": 1,
          "duration": 0.5625
        },
        {
          "name": "D4",
          "midi": 62,
          "time": 126.5625,
          "velocity": 1,
          "duration": 0.5625
        },
        {
          "name": "F#4",
          "midi": 66,
          "time": 126.5625,
          "velocity": 1,
          "duration": 0.5625
        },
        {
          "name": "A3",
          "midi": 57,
          "time": 126.5625,
          "velocity": 1,
          "duration": 1.125
        },
        {
          "name": "D5",
          "midi": 74,
          "time": 126.5625,
          "velocity": 1,
          "duration": 0.5625
        },
        {
          "name": "C4",
          "midi": 60,
          "time": 127.125,
          "velocity": 1,
          "duration": 0.5625
        },
        {
          "name": "F4",
          "midi": 65,
          "time": 127.125,
          "velocity": 1,
          "duration": 0.5625
        },
        {
          "name": "A3",
          "midi": 57,
          "time": 127.125,
          "velocity": 1,
          "duration": 1.125
        },
        {
          "name": "C5",
          "midi": 72,
          "time": 127.125,
          "velocity": 1,
          "duration": 0.5625
        },
        {
          "name": "C4",
          "midi": 60,
          "time": 127.6875,
          "velocity": 1,
          "duration": 0.5625
        },
        {
          "name": "E4",
          "midi": 64,
          "time": 127.6875,
          "velocity": 1,
          "duration": 0.5625
        },
        {
          "name": "A3",
          "midi": 57,
          "time": 127.6875,
          "velocity": 1,
          "duration": 0.5625
        },
        {
          "name": "C5",
          "midi": 72,
          "time": 127.6875,
          "velocity": 1,
          "duration": 0.5625
        },
        {
          "name": "A3",
          "midi": 57,
          "time": 128.25,
          "velocity": 1,
          "duration": 0.375
        },
        {
          "name": "D4",
          "midi": 62,
          "time": 128.25,
          "velocity": 1,
          "duration": 0.375
        },
        {
          "name": "A4",
          "midi": 69,
          "time": 128.25,
          "velocity": 1,
          "duration": 0.375
        },
        {
          "name": "A3",
          "midi": 57,
          "time": 128.625,
          "velocity": 1,
          "duration": 0.9375
        },
        {
          "name": "C#4",
          "midi": 61,
          "time": 128.625,
          "velocity": 1,
          "duration": 0.375
        },
        {
          "name": "A4",
          "midi": 69,
          "time": 128.625,
          "velocity": 1,
          "duration": 0.375
        },
        {
          "name": "G3",
          "midi": 55,
          "time": 129,
          "velocity": 1,
          "duration": 0.5625
        },
        {
          "name": "C4",
          "midi": 60,
          "time": 129,
          "velocity": 1,
          "duration": 0.5625
        },
        {
          "name": "A3",
          "midi": 57,
          "time": 129,
          "velocity": 1,
          "duration": 1.125
        },
        {
          "name": "G4",
          "midi": 67,
          "time": 129,
          "velocity": 1,
          "duration": 0.5625
        },
        {
          "name": "G3",
          "midi": 55,
          "time": 129.5625,
          "velocity": 1,
          "duration": 0.5625
        },
        {
          "name": "B3",
          "midi": 59,
          "time": 129.5625,
          "velocity": 1,
          "duration": 0.5625
        },
        {
          "name": "A3",
          "midi": 57,
          "time": 129.5625,
          "velocity": 1,
          "duration": 1.125
        },
        {
          "name": "G4",
          "midi": 67,
          "time": 129.5625,
          "velocity": 1,
          "duration": 0.5625
        },
        {
          "name": "F3",
          "midi": 53,
          "time": 130.125,
          "velocity": 1,
          "duration": 0.5625
        },
        {
          "name": "A#3",
          "midi": 58,
          "time": 130.125,
          "velocity": 1,
          "duration": 0.5625
        },
        {
          "name": "A3",
          "midi": 57,
          "time": 130.125,
          "velocity": 1,
          "duration": 0.5625
        },
        {
          "name": "F4",
          "midi": 65,
          "time": 130.125,
          "velocity": 1,
          "duration": 0.5625
        },
        {
          "name": "F3",
          "midi": 53,
          "time": 130.6875,
          "velocity": 1,
          "duration": 0.5625
        },
        {
          "name": "A3",
          "midi": 57,
          "time": 130.6875,
          "velocity": 1,
          "duration": 5.0625
        },
        {
          "name": "F4",
          "midi": 65,
          "time": 130.6875,
          "velocity": 1,
          "duration": 0.5625
        },
        {
          "name": "F3",
          "midi": 53,
          "time": 131.25,
          "velocity": 1,
          "duration": 0.1875
        },
        {
          "name": "E3",
          "midi": 52,
          "time": 131.4375,
          "velocity": 1,
          "duration": 0.1875
        },
        {
          "name": "D3",
          "midi": 50,
          "time": 131.625,
          "velocity": 1,
          "duration": 0.75
        },
        {
          "name": "A2",
          "midi": 45,
          "time": 131.8125,
          "velocity": 1,
          "duration": 0.1875
        },
        {
          "name": "B2",
          "midi": 47,
          "time": 132,
          "velocity": 1,
          "duration": 0.1875
        },
        {
          "name": "D3",
          "midi": 50,
          "time": 132.1875,
          "velocity": 1,
          "duration": 11.625
        },
        {
          "name": "A2",
          "midi": 45,
          "time": 132.375,
          "velocity": 1,
          "duration": 0.375
        },
        {
          "name": "E3",
          "midi": 52,
          "time": 132.375,
          "velocity": 1,
          "duration": 0.375
        },
        {
          "name": "A2",
          "midi": 45,
          "time": 133.5,
          "velocity": 1,
          "duration": 0.375
        },
        {
          "name": "F#3",
          "midi": 54,
          "time": 133.5,
          "velocity": 1,
          "duration": 0.375
        },
        {
          "name": "A2",
          "midi": 45,
          "time": 134.25,
          "velocity": 1,
          "duration": 0.375
        },
        {
          "name": "E3",
          "midi": 52,
          "time": 134.25,
          "velocity": 1,
          "duration": 0.375
        },
        {
          "name": "A3",
          "midi": 57,
          "time": 135,
          "velocity": 1,
          "duration": 6.75
        },
        {
          "name": "C#4",
          "midi": 61,
          "time": 135,
          "velocity": 1,
          "duration": 0.75
        },
        {
          "name": "A2",
          "midi": 45,
          "time": 135.75,
          "velocity": 1,
          "duration": 0.375
        },
        {
          "name": "E3",
          "midi": 52,
          "time": 135.75,
          "velocity": 1,
          "duration": 0.375
        },
        {
          "name": "A2",
          "midi": 45,
          "time": 138.375,
          "velocity": 1,
          "duration": 0.375
        },
        {
          "name": "E3",
          "midi": 52,
          "time": 138.375,
          "velocity": 1,
          "duration": 0.375
        },
        {
          "name": "A2",
          "midi": 45,
          "time": 139.5,
          "velocity": 1,
          "duration": 0.375
        },
        {
          "name": "F#3",
          "midi": 54,
          "time": 139.5,
          "velocity": 1,
          "duration": 0.375
        },
        {
          "name": "A2",
          "midi": 45,
          "time": 140.25,
          "velocity": 1,
          "duration": 0.375
        },
        {
          "name": "E3",
          "midi": 52,
          "time": 140.25,
          "velocity": 1,
          "duration": 0.375
        },
        {
          "name": "A3",
          "midi": 57,
          "time": 141,
          "velocity": 1,
          "duration": 6.75
        },
        {
          "name": "C#4",
          "midi": 61,
          "time": 141,
          "velocity": 1,
          "duration": 0.75
        },
        {
          "name": "A2",
          "midi": 45,
          "time": 141.75,
          "velocity": 1,
          "duration": 0.375
        },
        {
          "name": "E3",
          "midi": 52,
          "time": 141.75,
          "velocity": 1,
          "duration": 0.375
        },
        {
          "name": "F3",
          "midi": 53,
          "time": 143.25,
          "velocity": 1,
          "duration": 0.1875
        },
        {
          "name": "E3",
          "midi": 52,
          "time": 143.4375,
          "velocity": 1,
          "duration": 0.1875
        },
        {
          "name": "D3",
          "midi": 50,
          "time": 143.625,
          "velocity": 1,
          "duration": 0.75
        },
        {
          "name": "A2",
          "midi": 45,
          "time": 143.8125,
          "velocity": 1,
          "duration": 0.1875
        },
        {
          "name": "B2",
          "midi": 47,
          "time": 144,
          "velocity": 1,
          "duration": 0.1875
        },
        {
          "name": "D3",
          "midi": 50,
          "time": 144.1875,
          "velocity": 1,
          "duration": 11.625
        },
        {
          "name": "A2",
          "midi": 45,
          "time": 144.375,
          "velocity": 1,
          "duration": 0.375
        },
        {
          "name": "E3",
          "midi": 52,
          "time": 144.375,
          "velocity": 1,
          "duration": 0.375
        },
        {
          "name": "A2",
          "midi": 45,
          "time": 145.5,
          "velocity": 1,
          "duration": 0.375
        },
        {
          "name": "F#3",
          "midi": 54,
          "time": 145.5,
          "velocity": 1,
          "duration": 0.375
        },
        {
          "name": "A2",
          "midi": 45,
          "time": 146.25,
          "velocity": 1,
          "duration": 0.375
        },
        {
          "name": "E3",
          "midi": 52,
          "time": 146.25,
          "velocity": 1,
          "duration": 0.375
        },
        {
          "name": "A3",
          "midi": 57,
          "time": 147,
          "velocity": 1,
          "duration": 6.75
        },
        {
          "name": "C#4",
          "midi": 61,
          "time": 147,
          "velocity": 1,
          "duration": 0.75
        },
        {
          "name": "A2",
          "midi": 45,
          "time": 147.75,
          "velocity": 1,
          "duration": 0.375
        },
        {
          "name": "E3",
          "midi": 52,
          "time": 147.75,
          "velocity": 1,
          "duration": 0.375
        },
        {
          "name": "A2",
          "midi": 45,
          "time": 150.375,
          "velocity": 1,
          "duration": 0.375
        },
        {
          "name": "E3",
          "midi": 52,
          "time": 150.375,
          "velocity": 1,
          "duration": 0.375
        },
        {
          "name": "A2",
          "midi": 45,
          "time": 151.5,
          "velocity": 1,
          "duration": 0.375
        },
        {
          "name": "F#3",
          "midi": 54,
          "time": 151.5,
          "velocity": 1,
          "duration": 0.375
        },
        {
          "name": "A2",
          "midi": 45,
          "time": 152.25,
          "velocity": 1,
          "duration": 0.375
        },
        {
          "name": "E3",
          "midi": 52,
          "time": 152.25,
          "velocity": 1,
          "duration": 0.375
        },
        {
          "name": "A3",
          "midi": 57,
          "time": 153,
          "velocity": 1,
          "duration": 6.75
        },
        {
          "name": "C#4",
          "midi": 61,
          "time": 153,
          "velocity": 1,
          "duration": 0.75
        },
        {
          "name": "A2",
          "midi": 45,
          "time": 153.75,
          "velocity": 1,
          "duration": 0.375
        },
        {
          "name": "E3",
          "midi": 52,
          "time": 153.75,
          "velocity": 1,
          "duration": 0.375
        },
        {
          "name": "F3",
          "midi": 53,
          "time": 155.25,
          "velocity": 1,
          "duration": 0.1875
        },
        {
          "name": "E3",
          "midi": 52,
          "time": 155.4375,
          "velocity": 1,
          "duration": 0.1875
        },
        {
          "name": "D3",
          "midi": 50,
          "time": 155.625,
          "velocity": 1,
          "duration": 0.75
        },
        {
          "name": "A2",
          "midi": 45,
          "time": 155.8125,
          "velocity": 1,
          "duration": 0.1875
        },
        {
          "name": "B2",
          "midi": 47,
          "time": 156,
          "velocity": 1,
          "duration": 0.1875
        },
        {
          "name": "D3",
          "midi": 50,
          "time": 156.1875,
          "velocity": 1,
          "duration": 11.625
        },
        {
          "name": "A2",
          "midi": 45,
          "time": 156.375,
          "velocity": 1,
          "duration": 0.375
        },
        {
          "name": "E3",
          "midi": 52,
          "time": 156.375,
          "velocity": 1,
          "duration": 0.375
        },
        {
          "name": "A2",
          "midi": 45,
          "time": 157.5,
          "velocity": 1,
          "duration": 0.375
        },
        {
          "name": "F#3",
          "midi": 54,
          "time": 157.5,
          "velocity": 1,
          "duration": 0.375
        },
        {
          "name": "A2",
          "midi": 45,
          "time": 158.25,
          "velocity": 1,
          "duration": 0.375
        },
        {
          "name": "E3",
          "midi": 52,
          "time": 158.25,
          "velocity": 1,
          "duration": 0.375
        },
        {
          "name": "A3",
          "midi": 57,
          "time": 159,
          "velocity": 1,
          "duration": 6.75
        },
        {
          "name": "C#4",
          "midi": 61,
          "time": 159,
          "velocity": 1,
          "duration": 0.75
        },
        {
          "name": "A2",
          "midi": 45,
          "time": 159.75,
          "velocity": 1,
          "duration": 0.375
        },
        {
          "name": "E3",
          "midi": 52,
          "time": 159.75,
          "velocity": 1,
          "duration": 0.375
        },
        {
          "name": "A2",
          "midi": 45,
          "time": 162.375,
          "velocity": 1,
          "duration": 0.375
        },
        {
          "name": "E3",
          "midi": 52,
          "time": 162.375,
          "velocity": 1,
          "duration": 0.375
        },
        {
          "name": "A2",
          "midi": 45,
          "time": 163.5,
          "velocity": 1,
          "duration": 0.375
        },
        {
          "name": "F#3",
          "midi": 54,
          "time": 163.5,
          "velocity": 1,
          "duration": 0.375
        },
        {
          "name": "A2",
          "midi": 45,
          "time": 164.25,
          "velocity": 1,
          "duration": 0.375
        },
        {
          "name": "E3",
          "midi": 52,
          "time": 164.25,
          "velocity": 1,
          "duration": 0.375
        },
        {
          "name": "A3",
          "midi": 57,
          "time": 165,
          "velocity": 1,
          "duration": 6.75
        },
        {
          "name": "C#4",
          "midi": 61,
          "time": 165,
          "velocity": 1,
          "duration": 0.75
        },
        {
          "name": "A2",
          "midi": 45,
          "time": 165.75,
          "velocity": 1,
          "duration": 0.375
        },
        {
          "name": "E3",
          "midi": 52,
          "time": 165.75,
          "velocity": 1,
          "duration": 0.375
        },
        {
          "name": "F3",
          "midi": 53,
          "time": 167.25,
          "velocity": 1,
          "duration": 0.1875
        },
        {
          "name": "E3",
          "midi": 52,
          "time": 167.4375,
          "velocity": 1,
          "duration": 0.1875
        },
        {
          "name": "D3",
          "midi": 50,
          "time": 167.625,
          "velocity": 1,
          "duration": 0.75
        },
        {
          "name": "A2",
          "midi": 45,
          "time": 167.8125,
          "velocity": 1,
          "duration": 0.1875
        },
        {
          "name": "B2",
          "midi": 47,
          "time": 168,
          "velocity": 1,
          "duration": 0.1875
        },
        {
          "name": "D3",
          "midi": 50,
          "time": 168.1875,
          "velocity": 1,
          "duration": 11.625
        },
        {
          "name": "A2",
          "midi": 45,
          "time": 168.375,
          "velocity": 1,
          "duration": 0.375
        },
        {
          "name": "E3",
          "midi": 52,
          "time": 168.375,
          "velocity": 1,
          "duration": 0.375
        },
        {
          "name": "A2",
          "midi": 45,
          "time": 169.5,
          "velocity": 1,
          "duration": 0.375
        },
        {
          "name": "F#3",
          "midi": 54,
          "time": 169.5,
          "velocity": 1,
          "duration": 0.375
        },
        {
          "name": "A2",
          "midi": 45,
          "time": 170.25,
          "velocity": 1,
          "duration": 0.375
        },
        {
          "name": "E3",
          "midi": 52,
          "time": 170.25,
          "velocity": 1,
          "duration": 0.375
        },
        {
          "name": "A3",
          "midi": 57,
          "time": 171,
          "velocity": 1,
          "duration": 6.75
        },
        {
          "name": "C#4",
          "midi": 61,
          "time": 171,
          "velocity": 1,
          "duration": 0.75
        },
        {
          "name": "A2",
          "midi": 45,
          "time": 171.75,
          "velocity": 1,
          "duration": 0.375
        },
        {
          "name": "E3",
          "midi": 52,
          "time": 171.75,
          "velocity": 1,
          "duration": 0.375
        },
        {
          "name": "A2",
          "midi": 45,
          "time": 174.375,
          "velocity": 1,
          "duration": 0.375
        },
        {
          "name": "E3",
          "midi": 52,
          "time": 174.375,
          "velocity": 1,
          "duration": 0.375
        },
        {
          "name": "A2",
          "midi": 45,
          "time": 175.5,
          "velocity": 1,
          "duration": 0.375
        },
        {
          "name": "F#3",
          "midi": 54,
          "time": 175.5,
          "velocity": 1,
          "duration": 0.375
        },
        {
          "name": "A2",
          "midi": 45,
          "time": 176.25,
          "velocity": 1,
          "duration": 0.375
        },
        {
          "name": "E3",
          "midi": 52,
          "time": 176.25,
          "velocity": 1,
          "duration": 0.375
        },
        {
          "name": "A3",
          "midi": 57,
          "time": 177,
          "velocity": 1,
          "duration": 6.75
        },
        {
          "name": "C#4",
          "midi": 61,
          "time": 177,
          "velocity": 1,
          "duration": 0.75
        },
        {
          "name": "A2",
          "midi": 45,
          "time": 177.75,
          "velocity": 1,
          "duration": 0.375
        },
        {
          "name": "E3",
          "midi": 52,
          "time": 177.75,
          "velocity": 1,
          "duration": 0.375
        },
        {
          "name": "F3",
          "midi": 53,
          "time": 179.25,
          "velocity": 1,
          "duration": 0.1875
        },
        {
          "name": "E3",
          "midi": 52,
          "time": 179.4375,
          "velocity": 1,
          "duration": 0.1875
        },
        {
          "name": "D3",
          "midi": 50,
          "time": 179.625,
          "velocity": 1,
          "duration": 0.75
        },
        {
          "name": "A2",
          "midi": 45,
          "time": 179.8125,
          "velocity": 1,
          "duration": 0.1875
        },
        {
          "name": "B2",
          "midi": 47,
          "time": 180,
          "velocity": 1,
          "duration": 0.1875
        },
        {
          "name": "D3",
          "midi": 50,
          "time": 180.1875,
          "velocity": 1,
          "duration": 11.625
        },
        {
          "name": "A2",
          "midi": 45,
          "time": 180.375,
          "velocity": 1,
          "duration": 0.375
        },
        {
          "name": "E3",
          "midi": 52,
          "time": 180.375,
          "velocity": 1,
          "duration": 0.375
        },
        {
          "name": "A2",
          "midi": 45,
          "time": 181.5,
          "velocity": 1,
          "duration": 0.375
        },
        {
          "name": "F#3",
          "midi": 54,
          "time": 181.5,
          "velocity": 1,
          "duration": 0.375
        },
        {
          "name": "A2",
          "midi": 45,
          "time": 182.25,
          "velocity": 1,
          "duration": 0.375
        },
        {
          "name": "E3",
          "midi": 52,
          "time": 182.25,
          "velocity": 1,
          "duration": 0.375
        },
        {
          "name": "A3",
          "midi": 57,
          "time": 183,
          "velocity": 1,
          "duration": 6.75
        },
        {
          "name": "C#4",
          "midi": 61,
          "time": 183,
          "velocity": 1,
          "duration": 0.75
        },
        {
          "name": "A2",
          "midi": 45,
          "time": 183.75,
          "velocity": 1,
          "duration": 0.375
        },
        {
          "name": "E3",
          "midi": 52,
          "time": 183.75,
          "velocity": 1,
          "duration": 0.375
        },
        {
          "name": "A2",
          "midi": 45,
          "time": 186.375,
          "velocity": 1,
          "duration": 0.375
        },
        {
          "name": "E3",
          "midi": 52,
          "time": 186.375,
          "velocity": 1,
          "duration": 0.375
        },
        {
          "name": "A2",
          "midi": 45,
          "time": 187.5,
          "velocity": 1,
          "duration": 0.375
        },
        {
          "name": "F#3",
          "midi": 54,
          "time": 187.5,
          "velocity": 1,
          "duration": 0.375
        },
        {
          "name": "A2",
          "midi": 45,
          "time": 188.25,
          "velocity": 1,
          "duration": 0.375
        },
        {
          "name": "E3",
          "midi": 52,
          "time": 188.25,
          "velocity": 1,
          "duration": 0.375
        },
        {
          "name": "A3",
          "midi": 57,
          "time": 189,
          "velocity": 1,
          "duration": 3.9375
        },
        {
          "name": "C#4",
          "midi": 61,
          "time": 189,
          "velocity": 1,
          "duration": 0.75
        },
        {
          "name": "A2",
          "midi": 45,
          "time": 189.75,
          "velocity": 1,
          "duration": 0.375
        },
        {
          "name": "E3",
          "midi": 52,
          "time": 189.75,
          "velocity": 1,
          "duration": 0.375
        },
        {
          "name": "F3",
          "midi": 53,
          "time": 191.25,
          "velocity": 1,
          "duration": 0.1875
        },
        {
          "name": "E3",
          "midi": 52,
          "time": 191.4375,
          "velocity": 1,
          "duration": 0.1875
        },
        {
          "name": "D3",
          "midi": 50,
          "time": 191.625,
          "velocity": 1,
          "duration": 0.75
        },
        {
          "name": "A2",
          "midi": 45,
          "time": 191.8125,
          "velocity": 1,
          "duration": 0.1875
        },
        {
          "name": "B2",
          "midi": 47,
          "time": 192,
          "velocity": 1,
          "duration": 0.1875
        },
        {
          "name": "D3",
          "midi": 50,
          "time": 192.1875,
          "velocity": 1,
          "duration": 6.1875
        },
        {
          "name": "D4",
          "midi": 62,
          "time": 192.375,
          "velocity": 1,
          "duration": 0.5625
        },
        {
          "name": "G4",
          "midi": 67,
          "time": 192.375,
          "velocity": 1,
          "duration": 0.5625
        },
        {
          "name": "A3",
          "midi": 57,
          "time": 192.375,
          "velocity": 1,
          "duration": 1.125
        },
        {
          "name": "D5",
          "midi": 74,
          "time": 192.375,
          "velocity": 1,
          "duration": 0.5625
        },
        {
          "name": "D4",
          "midi": 62,
          "time": 192.9375,
          "velocity": 1,
          "duration": 0.5625
        },
        {
          "name": "F#4",
          "midi": 66,
          "time": 192.9375,
          "velocity": 1,
          "duration": 0.5625
        },
        {
          "name": "A3",
          "midi": 57,
          "time": 192.9375,
          "velocity": 1,
          "duration": 1.125
        },
        {
          "name": "D5",
          "midi": 74,
          "time": 192.9375,
          "velocity": 1,
          "duration": 0.5625
        },
        {
          "name": "C4",
          "midi": 60,
          "time": 193.5,
          "velocity": 1,
          "duration": 0.5625
        },
        {
          "name": "F4",
          "midi": 65,
          "time": 193.5,
          "velocity": 1,
          "duration": 0.5625
        },
        {
          "name": "A3",
          "midi": 57,
          "time": 193.5,
          "velocity": 1,
          "duration": 1.125
        },
        {
          "name": "C5",
          "midi": 72,
          "time": 193.5,
          "velocity": 1,
          "duration": 0.5625
        },
        {
          "name": "C4",
          "midi": 60,
          "time": 194.0625,
          "velocity": 1,
          "duration": 0.5625
        },
        {
          "name": "E4",
          "midi": 64,
          "time": 194.0625,
          "velocity": 1,
          "duration": 0.5625
        },
        {
          "name": "A3",
          "midi": 57,
          "time": 194.0625,
          "velocity": 1,
          "duration": 0.5625
        },
        {
          "name": "C5",
          "midi": 72,
          "time": 194.0625,
          "velocity": 1,
          "duration": 0.5625
        },
        {
          "name": "A3",
          "midi": 57,
          "time": 194.625,
          "velocity": 1,
          "duration": 0.375
        },
        {
          "name": "D4",
          "midi": 62,
          "time": 194.625,
          "velocity": 1,
          "duration": 0.375
        },
        {
          "name": "A4",
          "midi": 69,
          "time": 194.625,
          "velocity": 1,
          "duration": 0.375
        },
        {
          "name": "A3",
          "midi": 57,
          "time": 195,
          "velocity": 1,
          "duration": 0.9375
        },
        {
          "name": "C#4",
          "midi": 61,
          "time": 195,
          "velocity": 1,
          "duration": 0.375
        },
        {
          "name": "A4",
          "midi": 69,
          "time": 195,
          "velocity": 1,
          "duration": 0.375
        },
        {
          "name": "G3",
          "midi": 55,
          "time": 195.375,
          "velocity": 1,
          "duration": 0.5625
        },
        {
          "name": "C4",
          "midi": 60,
          "time": 195.375,
          "velocity": 1,
          "duration": 0.5625
        },
        {
          "name": "A3",
          "midi": 57,
          "time": 195.375,
          "velocity": 1,
          "duration": 1.125
        },
        {
          "name": "G4",
          "midi": 67,
          "time": 195.375,
          "velocity": 1,
          "duration": 0.5625
        },
        {
          "name": "G3",
          "midi": 55,
          "time": 195.9375,
          "velocity": 1,
          "duration": 0.5625
        },
        {
          "name": "B3",
          "midi": 59,
          "time": 195.9375,
          "velocity": 1,
          "duration": 0.5625
        },
        {
          "name": "A3",
          "midi": 57,
          "time": 195.9375,
          "velocity": 1,
          "duration": 1.125
        },
        {
          "name": "G4",
          "midi": 67,
          "time": 195.9375,
          "velocity": 1,
          "duration": 0.5625
        },
        {
          "name": "F3",
          "midi": 53,
          "time": 196.5,
          "velocity": 1,
          "duration": 0.5625
        },
        {
          "name": "A#3",
          "midi": 58,
          "time": 196.5,
          "velocity": 1,
          "duration": 0.5625
        },
        {
          "name": "A3",
          "midi": 57,
          "time": 196.5,
          "velocity": 1,
          "duration": 0.5625
        },
        {
          "name": "F4",
          "midi": 65,
          "time": 196.5,
          "velocity": 1,
          "duration": 0.5625
        },
        {
          "name": "F3",
          "midi": 53,
          "time": 197.0625,
          "velocity": 1,
          "duration": 0.5625
        },
        {
          "name": "A3",
          "midi": 57,
          "time": 197.0625,
          "velocity": 1,
          "duration": 1.875
        },
        {
          "name": "F4",
          "midi": 65,
          "time": 197.0625,
          "velocity": 1,
          "duration": 0.5625
        },
        {
          "name": "F3",
          "midi": 53,
          "time": 197.625,
          "velocity": 1,
          "duration": 0.1875
        },
        {
          "name": "E3",
          "midi": 52,
          "time": 197.8125,
          "velocity": 1,
          "duration": 0.1875
        },
        {
          "name": "D3",
          "midi": 50,
          "time": 198,
          "velocity": 1,
          "duration": 6.375
        },
        {
          "name": "D4",
          "midi": 62,
          "time": 198.375,
          "velocity": 1,
          "duration": 0.5625
        },
        {
          "name": "G4",
          "midi": 67,
          "time": 198.375,
          "velocity": 1,
          "duration": 0.5625
        },
        {
          "name": "A3",
          "midi": 57,
          "time": 198.375,
          "velocity": 1,
          "duration": 1.125
        },
        {
          "name": "D5",
          "midi": 74,
          "time": 198.375,
          "velocity": 1,
          "duration": 0.5625
        },
        {
          "name": "D4",
          "midi": 62,
          "time": 198.9375,
          "velocity": 1,
          "duration": 0.5625
        },
        {
          "name": "F#4",
          "midi": 66,
          "time": 198.9375,
          "velocity": 1,
          "duration": 0.5625
        },
        {
          "name": "A3",
          "midi": 57,
          "time": 198.9375,
          "velocity": 1,
          "duration": 1.125
        },
        {
          "name": "D5",
          "midi": 74,
          "time": 198.9375,
          "velocity": 1,
          "duration": 0.5625
        },
        {
          "name": "C4",
          "midi": 60,
          "time": 199.5,
          "velocity": 1,
          "duration": 0.5625
        },
        {
          "name": "F4",
          "midi": 65,
          "time": 199.5,
          "velocity": 1,
          "duration": 0.5625
        },
        {
          "name": "A3",
          "midi": 57,
          "time": 199.5,
          "velocity": 1,
          "duration": 1.125
        },
        {
          "name": "C5",
          "midi": 72,
          "time": 199.5,
          "velocity": 1,
          "duration": 0.5625
        },
        {
          "name": "C4",
          "midi": 60,
          "time": 200.0625,
          "velocity": 1,
          "duration": 0.5625
        },
        {
          "name": "E4",
          "midi": 64,
          "time": 200.0625,
          "velocity": 1,
          "duration": 0.5625
        },
        {
          "name": "A3",
          "midi": 57,
          "time": 200.0625,
          "velocity": 1,
          "duration": 0.5625
        },
        {
          "name": "C5",
          "midi": 72,
          "time": 200.0625,
          "velocity": 1,
          "duration": 0.5625
        },
        {
          "name": "A3",
          "midi": 57,
          "time": 200.625,
          "velocity": 1,
          "duration": 0.375
        },
        {
          "name": "D4",
          "midi": 62,
          "time": 200.625,
          "velocity": 1,
          "duration": 0.375
        },
        {
          "name": "A4",
          "midi": 69,
          "time": 200.625,
          "velocity": 1,
          "duration": 0.375
        },
        {
          "name": "A3",
          "midi": 57,
          "time": 201,
          "velocity": 1,
          "duration": 0.9375
        },
        {
          "name": "C#4",
          "midi": 61,
          "time": 201,
          "velocity": 1,
          "duration": 0.375
        },
        {
          "name": "A4",
          "midi": 69,
          "time": 201,
          "velocity": 1,
          "duration": 0.375
        },
        {
          "name": "G3",
          "midi": 55,
          "time": 201.375,
          "velocity": 1,
          "duration": 0.5625
        },
        {
          "name": "C4",
          "midi": 60,
          "time": 201.375,
          "velocity": 1,
          "duration": 0.5625
        },
        {
          "name": "A3",
          "midi": 57,
          "time": 201.375,
          "velocity": 1,
          "duration": 1.125
        },
        {
          "name": "G4",
          "midi": 67,
          "time": 201.375,
          "velocity": 1,
          "duration": 0.5625
        },
        {
          "name": "G3",
          "midi": 55,
          "time": 201.9375,
          "velocity": 1,
          "duration": 0.5625
        },
        {
          "name": "B3",
          "midi": 59,
          "time": 201.9375,
          "velocity": 1,
          "duration": 0.5625
        },
        {
          "name": "A3",
          "midi": 57,
          "time": 201.9375,
          "velocity": 1,
          "duration": 1.125
        },
        {
          "name": "G4",
          "midi": 67,
          "time": 201.9375,
          "velocity": 1,
          "duration": 0.5625
        },
        {
          "name": "F3",
          "midi": 53,
          "time": 202.5,
          "velocity": 1,
          "duration": 0.5625
        },
        {
          "name": "A#3",
          "midi": 58,
          "time": 202.5,
          "velocity": 1,
          "duration": 0.5625
        },
        {
          "name": "A3",
          "midi": 57,
          "time": 202.5,
          "velocity": 1,
          "duration": 0.5625
        },
        {
          "name": "F4",
          "midi": 65,
          "time": 202.5,
          "velocity": 1,
          "duration": 0.5625
        },
        {
          "name": "F3",
          "midi": 53,
          "time": 203.0625,
          "velocity": 1,
          "duration": 0.5625
        },
        {
          "name": "A3",
          "midi": 57,
          "time": 203.0625,
          "velocity": 1,
          "duration": 8.0625
        },
        {
          "name": "F4",
          "midi": 65,
          "time": 203.0625,
          "velocity": 1,
          "duration": 0.5625
        },
        {
          "name": "F3",
          "midi": 53,
          "time": 203.625,
          "velocity": 1,
          "duration": 0.1875
        },
        {
          "name": "E3",
          "midi": 52,
          "time": 203.8125,
          "velocity": 1,
          "duration": 0.1875
        },
        {
          "name": "D3",
          "midi": 50,
          "time": 204,
          "velocity": 1,
          "duration": 1.125
        },
        {
          "name": "G2",
          "midi": 43,
          "time": 204.375,
          "velocity": 1,
          "duration": 0.75
        },
        {
          "name": "D3",
          "midi": 50,
          "time": 204.375,
          "velocity": 1,
          "duration": 1.3125
        },
        {
          "name": "G3",
          "midi": 55,
          "time": 204.375,
          "velocity": 1,
          "duration": 0.75
        },
        {
          "name": "D4",
          "midi": 62,
          "time": 204.375,
          "velocity": 1,
          "duration": 0.75
        },
        {
          "name": "G4",
          "midi": 67,
          "time": 204.375,
          "velocity": 1,
          "duration": 0.75
        },
        {
          "name": "G2",
          "midi": 43,
          "time": 205.125,
          "velocity": 1,
          "duration": 0.5625
        },
        {
          "name": "D3",
          "midi": 50,
          "time": 205.125,
          "velocity": 1,
          "duration": 0.75
        },
        {
          "name": "G3",
          "midi": 55,
          "time": 205.125,
          "velocity": 1,
          "duration": 0.5625
        },
        {
          "name": "D4",
          "midi": 62,
          "time": 205.125,
          "velocity": 1,
          "duration": 0.5625
        },
        {
          "name": "G4",
          "midi": 67,
          "time": 205.125,
          "velocity": 1,
          "duration": 0.5625
        },
        {
          "name": "G2",
          "midi": 43,
          "time": 205.6875,
          "velocity": 1,
          "duration": 0.1875
        },
        {
          "name": "D3",
          "midi": 50,
          "time": 205.6875,
          "velocity": 1,
          "duration": 0.375
        },
        {
          "name": "G3",
          "midi": 55,
          "time": 205.6875,
          "velocity": 1,
          "duration": 0.1875
        },
        {
          "name": "D4",
          "midi": 62,
          "time": 205.6875,
          "velocity": 1,
          "duration": 0.1875
        },
        {
          "name": "G4",
          "midi": 67,
          "time": 205.6875,
          "velocity": 1,
          "duration": 0.1875
        },
        {
          "name": "G2",
          "midi": 43,
          "time": 205.875,
          "velocity": 1,
          "duration": 0.1875
        },
        {
          "name": "D3",
          "midi": 50,
          "time": 205.875,
          "velocity": 1,
          "duration": 0.375
        },
        {
          "name": "G3",
          "midi": 55,
          "time": 205.875,
          "velocity": 1,
          "duration": 0.1875
        },
        {
          "name": "D4",
          "midi": 62,
          "time": 205.875,
          "velocity": 1,
          "duration": 0.1875
        },
        {
          "name": "G4",
          "midi": 67,
          "time": 205.875,
          "velocity": 1,
          "duration": 0.1875
        },
        {
          "name": "G2",
          "midi": 43,
          "time": 206.0625,
          "velocity": 1,
          "duration": 0.1875
        },
        {
          "name": "D3",
          "midi": 50,
          "time": 206.0625,
          "velocity": 1,
          "duration": 0.9375
        },
        {
          "name": "G3",
          "midi": 55,
          "time": 206.0625,
          "velocity": 1,
          "duration": 0.1875
        },
        {
          "name": "D4",
          "midi": 62,
          "time": 206.0625,
          "velocity": 1,
          "duration": 0.1875
        },
        {
          "name": "G4",
          "midi": 67,
          "time": 206.0625,
          "velocity": 1,
          "duration": 0.1875
        },
        {
          "name": "G2",
          "midi": 43,
          "time": 206.25,
          "velocity": 1,
          "duration": 0.75
        },
        {
          "name": "D3",
          "midi": 50,
          "time": 206.25,
          "velocity": 1,
          "duration": 1.5
        },
        {
          "name": "G3",
          "midi": 55,
          "time": 206.25,
          "velocity": 1,
          "duration": 0.75
        },
        {
          "name": "D4",
          "midi": 62,
          "time": 206.25,
          "velocity": 1,
          "duration": 0.75
        },
        {
          "name": "G4",
          "midi": 67,
          "time": 206.25,
          "velocity": 1,
          "duration": 0.75
        },
        {
          "name": "G2",
          "midi": 43,
          "time": 207,
          "velocity": 1,
          "duration": 0.75
        },
        {
          "name": "D3",
          "midi": 50,
          "time": 207,
          "velocity": 1,
          "duration": 1.5
        },
        {
          "name": "G3",
          "midi": 55,
          "time": 207,
          "velocity": 1,
          "duration": 0.75
        },
        {
          "name": "D4",
          "midi": 62,
          "time": 207,
          "velocity": 1,
          "duration": 0.75
        },
        {
          "name": "G4",
          "midi": 67,
          "time": 207,
          "velocity": 1,
          "duration": 0.75
        },
        {
          "name": "G2",
          "midi": 43,
          "time": 207.75,
          "velocity": 1,
          "duration": 0.75
        },
        {
          "name": "D3",
          "midi": 50,
          "time": 207.75,
          "velocity": 1,
          "duration": 1.875
        },
        {
          "name": "G3",
          "midi": 55,
          "time": 207.75,
          "velocity": 1,
          "duration": 0.75
        },
        {
          "name": "D4",
          "midi": 62,
          "time": 207.75,
          "velocity": 1,
          "duration": 0.75
        },
        {
          "name": "G4",
          "midi": 67,
          "time": 207.75,
          "velocity": 1,
          "duration": 0.75
        },
        {
          "name": "G2",
          "midi": 43,
          "time": 208.5,
          "velocity": 1,
          "duration": 1.125
        },
        {
          "name": "D3",
          "midi": 50,
          "time": 208.5,
          "velocity": 1,
          "duration": 1.3125
        },
        {
          "name": "G3",
          "midi": 55,
          "time": 208.5,
          "velocity": 1,
          "duration": 1.125
        },
        {
          "name": "D4",
          "midi": 62,
          "time": 208.5,
          "velocity": 1,
          "duration": 1.125
        },
        {
          "name": "G4",
          "midi": 67,
          "time": 208.5,
          "velocity": 1,
          "duration": 1.125
        },
        {
          "name": "G2",
          "midi": 43,
          "time": 209.625,
          "velocity": 1,
          "duration": 0.1875
        },
        {
          "name": "D3",
          "midi": 50,
          "time": 209.625,
          "velocity": 1,
          "duration": 0.375
        },
        {
          "name": "G3",
          "midi": 55,
          "time": 209.625,
          "velocity": 1,
          "duration": 0.1875
        },
        {
          "name": "D4",
          "midi": 62,
          "time": 209.625,
          "velocity": 1,
          "duration": 0.1875
        },
        {
          "name": "G4",
          "midi": 67,
          "time": 209.625,
          "velocity": 1,
          "duration": 0.1875
        },
        {
          "name": "G2",
          "midi": 43,
          "time": 209.8125,
          "velocity": 1,
          "duration": 0.1875
        },
        {
          "name": "D3",
          "midi": 50,
          "time": 209.8125,
          "velocity": 1,
          "duration": 0.5625
        },
        {
          "name": "G3",
          "midi": 55,
          "time": 209.8125,
          "velocity": 1,
          "duration": 0.1875
        },
        {
          "name": "D4",
          "midi": 62,
          "time": 209.8125,
          "velocity": 1,
          "duration": 0.1875
        },
        {
          "name": "G4",
          "midi": 67,
          "time": 209.8125,
          "velocity": 1,
          "duration": 0.1875
        },
        {
          "name": "G2",
          "midi": 43,
          "time": 210,
          "velocity": 1,
          "duration": 0.375
        },
        {
          "name": "D3",
          "midi": 50,
          "time": 210,
          "velocity": 1,
          "duration": 7.125
        },
        {
          "name": "G3",
          "midi": 55,
          "time": 210,
          "velocity": 1,
          "duration": 0.375
        },
        {
          "name": "D4",
          "midi": 62,
          "time": 210,
          "velocity": 1,
          "duration": 6.375
        },
        {
          "name": "G4",
          "midi": 67,
          "time": 210,
          "velocity": 1,
          "duration": 0.375
        },
        {
          "name": "A2",
          "midi": 45,
          "time": 210.375,
          "velocity": 1,
          "duration": 0.75
        },
        {
          "name": "E3",
          "midi": 52,
          "time": 210.375,
          "velocity": 1,
          "duration": 0.75
        },
        {
          "name": "A3",
          "midi": 57,
          "time": 210.375,
          "velocity": 1,
          "duration": 1.3125
        },
        {
          "name": "E4",
          "midi": 64,
          "time": 210.375,
          "velocity": 1,
          "duration": 0.75
        },
        {
          "name": "A4",
          "midi": 69,
          "time": 210.375,
          "velocity": 1,
          "duration": 0.75
        },
        {
          "name": "A2",
          "midi": 45,
          "time": 211.125,
          "velocity": 1,
          "duration": 0.5625
        },
        {
          "name": "E3",
          "midi": 52,
          "time": 211.125,
          "velocity": 1,
          "duration": 0.5625
        },
        {
          "name": "A3",
          "midi": 57,
          "time": 211.125,
          "velocity": 1,
          "duration": 0.75
        },
        {
          "name": "E4",
          "midi": 64,
          "time": 211.125,
          "velocity": 1,
          "duration": 0.5625
        },
        {
          "name": "A4",
          "midi": 69,
          "time": 211.125,
          "velocity": 1,
          "duration": 0.5625
        },
        {
          "name": "A2",
          "midi": 45,
          "time": 211.6875,
          "velocity": 1,
          "duration": 0.1875
        },
        {
          "name": "E3",
          "midi": 52,
          "time": 211.6875,
          "velocity": 1,
          "duration": 0.1875
        },
        {
          "name": "A3",
          "midi": 57,
          "time": 211.6875,
          "velocity": 1,
          "duration": 0.375
        },
        {
          "name": "E4",
          "midi": 64,
          "time": 211.6875,
          "velocity": 1,
          "duration": 0.1875
        },
        {
          "name": "A4",
          "midi": 69,
          "time": 211.6875,
          "velocity": 1,
          "duration": 0.1875
        },
        {
          "name": "A2",
          "midi": 45,
          "time": 211.875,
          "velocity": 1,
          "duration": 0.1875
        },
        {
          "name": "E3",
          "midi": 52,
          "time": 211.875,
          "velocity": 1,
          "duration": 0.1875
        },
        {
          "name": "A3",
          "midi": 57,
          "time": 211.875,
          "velocity": 1,
          "duration": 0.375
        },
        {
          "name": "E4",
          "midi": 64,
          "time": 211.875,
          "velocity": 1,
          "duration": 0.1875
        },
        {
          "name": "A4",
          "midi": 69,
          "time": 211.875,
          "velocity": 1,
          "duration": 0.1875
        },
        {
          "name": "A2",
          "midi": 45,
          "time": 212.0625,
          "velocity": 1,
          "duration": 0.1875
        },
        {
          "name": "E3",
          "midi": 52,
          "time": 212.0625,
          "velocity": 1,
          "duration": 0.1875
        },
        {
          "name": "A3",
          "midi": 57,
          "time": 212.0625,
          "velocity": 1,
          "duration": 0.9375
        },
        {
          "name": "E4",
          "midi": 64,
          "time": 212.0625,
          "velocity": 1,
          "duration": 0.1875
        },
        {
          "name": "A4",
          "midi": 69,
          "time": 212.0625,
          "velocity": 1,
          "duration": 0.1875
        },
        {
          "name": "A2",
          "midi": 45,
          "time": 212.25,
          "velocity": 1,
          "duration": 0.75
        },
        {
          "name": "E3",
          "midi": 52,
          "time": 212.25,
          "velocity": 1,
          "duration": 0.75
        },
        {
          "name": "A3",
          "midi": 57,
          "time": 212.25,
          "velocity": 1,
          "duration": 1.5
        },
        {
          "name": "E4",
          "midi": 64,
          "time": 212.25,
          "velocity": 1,
          "duration": 0.75
        },
        {
          "name": "A4",
          "midi": 69,
          "time": 212.25,
          "velocity": 1,
          "duration": 0.75
        },
        {
          "name": "A2",
          "midi": 45,
          "time": 213,
          "velocity": 1,
          "duration": 0.75
        },
        {
          "name": "E3",
          "midi": 52,
          "time": 213,
          "velocity": 1,
          "duration": 0.75
        },
        {
          "name": "A3",
          "midi": 57,
          "time": 213,
          "velocity": 1,
          "duration": 1.125
        },
        {
          "name": "E4",
          "midi": 64,
          "time": 213,
          "velocity": 1,
          "duration": 0.75
        },
        {
          "name": "A4",
          "midi": 69,
          "time": 213,
          "velocity": 1,
          "duration": 0.75
        },
        {
          "name": "A2",
          "midi": 45,
          "time": 213.75,
          "velocity": 1,
          "duration": 0.375
        },
        {
          "name": "E3",
          "midi": 52,
          "time": 213.75,
          "velocity": 1,
          "duration": 0.375
        },
        {
          "name": "A3",
          "midi": 57,
          "time": 213.75,
          "velocity": 1,
          "duration": 1.875
        },
        {
          "name": "E4",
          "midi": 64,
          "time": 213.75,
          "velocity": 1,
          "duration": 0.375
        },
        {
          "name": "A4",
          "midi": 69,
          "time": 213.75,
          "velocity": 1,
          "duration": 0.375
        },
        {
          "name": "A2",
          "midi": 45,
          "time": 214.125,
          "velocity": 1,
          "duration": 1.5
        },
        {
          "name": "E3",
          "midi": 52,
          "time": 214.125,
          "velocity": 1,
          "duration": 1.5
        },
        {
          "name": "A3",
          "midi": 57,
          "time": 214.125,
          "velocity": 1,
          "duration": 1.875
        },
        {
          "name": "E4",
          "midi": 64,
          "time": 214.125,
          "velocity": 1,
          "duration": 1.5
        },
        {
          "name": "A4",
          "midi": 69,
          "time": 214.125,
          "velocity": 1,
          "duration": 1.5
        },
        {
          "name": "A2",
          "midi": 45,
          "time": 215.625,
          "velocity": 1,
          "duration": 0.375
        },
        {
          "name": "E3",
          "midi": 52,
          "time": 215.625,
          "velocity": 1,
          "duration": 0.375
        },
        {
          "name": "A3",
          "midi": 57,
          "time": 215.625,
          "velocity": 1,
          "duration": 0.5625
        },
        {
          "name": "E4",
          "midi": 64,
          "time": 215.625,
          "velocity": 1,
          "duration": 0.375
        },
        {
          "name": "A4",
          "midi": 69,
          "time": 215.625,
          "velocity": 1,
          "duration": 0.375
        },
        {
          "name": "A2",
          "midi": 45,
          "time": 216,
          "velocity": 1,
          "duration": 0.1875
        },
        {
          "name": "E3",
          "midi": 52,
          "time": 216,
          "velocity": 1,
          "duration": 0.1875
        },
        {
          "name": "A3",
          "midi": 57,
          "time": 216,
          "velocity": 1,
          "duration": 0.375
        },
        {
          "name": "E4",
          "midi": 64,
          "time": 216,
          "velocity": 1,
          "duration": 0.1875
        },
        {
          "name": "A4",
          "midi": 69,
          "time": 216,
          "velocity": 1,
          "duration": 0.1875
        },
        {
          "name": "A2",
          "midi": 45,
          "time": 216.1875,
          "velocity": 1,
          "duration": 0.1875
        },
        {
          "name": "E3",
          "midi": 52,
          "time": 216.1875,
          "velocity": 1,
          "duration": 0.1875
        },
        {
          "name": "A3",
          "midi": 57,
          "time": 216.1875,
          "velocity": 1,
          "duration": 6.9375
        },
        {
          "name": "E4",
          "midi": 64,
          "time": 216.1875,
          "velocity": 1,
          "duration": 6.1875
        },
        {
          "name": "A4",
          "midi": 69,
          "time": 216.1875,
          "velocity": 1,
          "duration": 0.1875
        },
        {
          "name": "G2",
          "midi": 43,
          "time": 216.375,
          "velocity": 1,
          "duration": 0.75
        },
        {
          "name": "D3",
          "midi": 50,
          "time": 216.375,
          "velocity": 1,
          "duration": 1.3125
        },
        {
          "name": "G3",
          "midi": 55,
          "time": 216.375,
          "velocity": 1,
          "duration": 0.75
        },
        {
          "name": "D4",
          "midi": 62,
          "time": 216.375,
          "velocity": 1,
          "duration": 0.75
        },
        {
          "name": "G4",
          "midi": 67,
          "time": 216.375,
          "velocity": 1,
          "duration": 0.75
        },
        {
          "name": "G2",
          "midi": 43,
          "time": 217.125,
          "velocity": 1,
          "duration": 0.5625
        },
        {
          "name": "D3",
          "midi": 50,
          "time": 217.125,
          "velocity": 1,
          "duration": 0.75
        },
        {
          "name": "G3",
          "midi": 55,
          "time": 217.125,
          "velocity": 1,
          "duration": 0.5625
        },
        {
          "name": "D4",
          "midi": 62,
          "time": 217.125,
          "velocity": 1,
          "duration": 0.5625
        },
        {
          "name": "G4",
          "midi": 67,
          "time": 217.125,
          "velocity": 1,
          "duration": 0.5625
        },
        {
          "name": "G2",
          "midi": 43,
          "time": 217.6875,
          "velocity": 1,
          "duration": 0.1875
        },
        {
          "name": "D3",
          "midi": 50,
          "time": 217.6875,
          "velocity": 1,
          "duration": 0.375
        },
        {
          "name": "G3",
          "midi": 55,
          "time": 217.6875,
          "velocity": 1,
          "duration": 0.1875
        },
        {
          "name": "D4",
          "midi": 62,
          "time": 217.6875,
          "velocity": 1,
          "duration": 0.1875
        },
        {
          "name": "G4",
          "midi": 67,
          "time": 217.6875,
          "velocity": 1,
          "duration": 0.1875
        },
        {
          "name": "G2",
          "midi": 43,
          "time": 217.875,
          "velocity": 1,
          "duration": 0.1875
        },
        {
          "name": "D3",
          "midi": 50,
          "time": 217.875,
          "velocity": 1,
          "duration": 0.375
        },
        {
          "name": "G3",
          "midi": 55,
          "time": 217.875,
          "velocity": 1,
          "duration": 0.1875
        },
        {
          "name": "D4",
          "midi": 62,
          "time": 217.875,
          "velocity": 1,
          "duration": 0.1875
        },
        {
          "name": "G4",
          "midi": 67,
          "time": 217.875,
          "velocity": 1,
          "duration": 0.1875
        },
        {
          "name": "G2",
          "midi": 43,
          "time": 218.0625,
          "velocity": 1,
          "duration": 0.1875
        },
        {
          "name": "D3",
          "midi": 50,
          "time": 218.0625,
          "velocity": 1,
          "duration": 0.9375
        },
        {
          "name": "G3",
          "midi": 55,
          "time": 218.0625,
          "velocity": 1,
          "duration": 0.1875
        },
        {
          "name": "D4",
          "midi": 62,
          "time": 218.0625,
          "velocity": 1,
          "duration": 0.1875
        },
        {
          "name": "G4",
          "midi": 67,
          "time": 218.0625,
          "velocity": 1,
          "duration": 0.1875
        },
        {
          "name": "G2",
          "midi": 43,
          "time": 218.25,
          "velocity": 1,
          "duration": 0.75
        },
        {
          "name": "D3",
          "midi": 50,
          "time": 218.25,
          "velocity": 1,
          "duration": 1.5
        },
        {
          "name": "G3",
          "midi": 55,
          "time": 218.25,
          "velocity": 1,
          "duration": 0.75
        },
        {
          "name": "D4",
          "midi": 62,
          "time": 218.25,
          "velocity": 1,
          "duration": 0.75
        },
        {
          "name": "G4",
          "midi": 67,
          "time": 218.25,
          "velocity": 1,
          "duration": 0.75
        },
        {
          "name": "G2",
          "midi": 43,
          "time": 219,
          "velocity": 1,
          "duration": 0.75
        },
        {
          "name": "D3",
          "midi": 50,
          "time": 219,
          "velocity": 1,
          "duration": 1.5
        },
        {
          "name": "G3",
          "midi": 55,
          "time": 219,
          "velocity": 1,
          "duration": 0.75
        },
        {
          "name": "D4",
          "midi": 62,
          "time": 219,
          "velocity": 1,
          "duration": 0.75
        },
        {
          "name": "G4",
          "midi": 67,
          "time": 219,
          "velocity": 1,
          "duration": 0.75
        },
        {
          "name": "G2",
          "midi": 43,
          "time": 219.75,
          "velocity": 1,
          "duration": 0.75
        },
        {
          "name": "D3",
          "midi": 50,
          "time": 219.75,
          "velocity": 1,
          "duration": 1.875
        },
        {
          "name": "G3",
          "midi": 55,
          "time": 219.75,
          "velocity": 1,
          "duration": 0.75
        },
        {
          "name": "D4",
          "midi": 62,
          "time": 219.75,
          "velocity": 1,
          "duration": 0.75
        },
        {
          "name": "G4",
          "midi": 67,
          "time": 219.75,
          "velocity": 1,
          "duration": 0.75
        },
        {
          "name": "G2",
          "midi": 43,
          "time": 220.5,
          "velocity": 1,
          "duration": 1.125
        },
        {
          "name": "D3",
          "midi": 50,
          "time": 220.5,
          "velocity": 1,
          "duration": 1.3125
        },
        {
          "name": "G3",
          "midi": 55,
          "time": 220.5,
          "velocity": 1,
          "duration": 1.125
        },
        {
          "name": "D4",
          "midi": 62,
          "time": 220.5,
          "velocity": 1,
          "duration": 1.125
        },
        {
          "name": "G4",
          "midi": 67,
          "time": 220.5,
          "velocity": 1,
          "duration": 1.125
        },
        {
          "name": "G2",
          "midi": 43,
          "time": 221.625,
          "velocity": 1,
          "duration": 0.1875
        },
        {
          "name": "D3",
          "midi": 50,
          "time": 221.625,
          "velocity": 1,
          "duration": 0.375
        },
        {
          "name": "G3",
          "midi": 55,
          "time": 221.625,
          "velocity": 1,
          "duration": 0.1875
        },
        {
          "name": "D4",
          "midi": 62,
          "time": 221.625,
          "velocity": 1,
          "duration": 0.1875
        },
        {
          "name": "G4",
          "midi": 67,
          "time": 221.625,
          "velocity": 1,
          "duration": 0.1875
        },
        {
          "name": "G2",
          "midi": 43,
          "time": 221.8125,
          "velocity": 1,
          "duration": 0.1875
        },
        {
          "name": "D3",
          "midi": 50,
          "time": 221.8125,
          "velocity": 1,
          "duration": 0.5625
        },
        {
          "name": "G3",
          "midi": 55,
          "time": 221.8125,
          "velocity": 1,
          "duration": 0.1875
        },
        {
          "name": "D4",
          "midi": 62,
          "time": 221.8125,
          "velocity": 1,
          "duration": 0.1875
        },
        {
          "name": "G4",
          "midi": 67,
          "time": 221.8125,
          "velocity": 1,
          "duration": 0.1875
        },
        {
          "name": "G2",
          "midi": 43,
          "time": 222,
          "velocity": 1,
          "duration": 0.375
        },
        {
          "name": "D3",
          "midi": 50,
          "time": 222,
          "velocity": 1,
          "duration": 7.125
        },
        {
          "name": "G3",
          "midi": 55,
          "time": 222,
          "velocity": 1,
          "duration": 0.375
        },
        {
          "name": "D4",
          "midi": 62,
          "time": 222,
          "velocity": 1,
          "duration": 6.375
        },
        {
          "name": "G4",
          "midi": 67,
          "time": 222,
          "velocity": 1,
          "duration": 0.375
        },
        {
          "name": "A2",
          "midi": 45,
          "time": 222.375,
          "velocity": 1,
          "duration": 0.75
        },
        {
          "name": "E3",
          "midi": 52,
          "time": 222.375,
          "velocity": 1,
          "duration": 0.75
        },
        {
          "name": "A3",
          "midi": 57,
          "time": 222.375,
          "velocity": 1,
          "duration": 1.3125
        },
        {
          "name": "E4",
          "midi": 64,
          "time": 222.375,
          "velocity": 1,
          "duration": 0.75
        },
        {
          "name": "A4",
          "midi": 69,
          "time": 222.375,
          "velocity": 1,
          "duration": 0.75
        },
        {
          "name": "A2",
          "midi": 45,
          "time": 223.125,
          "velocity": 1,
          "duration": 0.5625
        },
        {
          "name": "E3",
          "midi": 52,
          "time": 223.125,
          "velocity": 1,
          "duration": 0.5625
        },
        {
          "name": "A3",
          "midi": 57,
          "time": 223.125,
          "velocity": 1,
          "duration": 0.75
        },
        {
          "name": "E4",
          "midi": 64,
          "time": 223.125,
          "velocity": 1,
          "duration": 0.5625
        },
        {
          "name": "A4",
          "midi": 69,
          "time": 223.125,
          "velocity": 1,
          "duration": 0.5625
        },
        {
          "name": "A2",
          "midi": 45,
          "time": 223.6875,
          "velocity": 1,
          "duration": 0.1875
        },
        {
          "name": "E3",
          "midi": 52,
          "time": 223.6875,
          "velocity": 1,
          "duration": 0.1875
        },
        {
          "name": "A3",
          "midi": 57,
          "time": 223.6875,
          "velocity": 1,
          "duration": 0.375
        },
        {
          "name": "E4",
          "midi": 64,
          "time": 223.6875,
          "velocity": 1,
          "duration": 0.1875
        },
        {
          "name": "A4",
          "midi": 69,
          "time": 223.6875,
          "velocity": 1,
          "duration": 0.1875
        },
        {
          "name": "A2",
          "midi": 45,
          "time": 223.875,
          "velocity": 1,
          "duration": 0.1875
        },
        {
          "name": "E3",
          "midi": 52,
          "time": 223.875,
          "velocity": 1,
          "duration": 0.1875
        },
        {
          "name": "A3",
          "midi": 57,
          "time": 223.875,
          "velocity": 1,
          "duration": 0.375
        },
        {
          "name": "E4",
          "midi": 64,
          "time": 223.875,
          "velocity": 1,
          "duration": 0.1875
        },
        {
          "name": "A4",
          "midi": 69,
          "time": 223.875,
          "velocity": 1,
          "duration": 0.1875
        },
        {
          "name": "A2",
          "midi": 45,
          "time": 224.0625,
          "velocity": 1,
          "duration": 0.1875
        },
        {
          "name": "E3",
          "midi": 52,
          "time": 224.0625,
          "velocity": 1,
          "duration": 0.1875
        },
        {
          "name": "A3",
          "midi": 57,
          "time": 224.0625,
          "velocity": 1,
          "duration": 0.9375
        },
        {
          "name": "E4",
          "midi": 64,
          "time": 224.0625,
          "velocity": 1,
          "duration": 0.1875
        },
        {
          "name": "A4",
          "midi": 69,
          "time": 224.0625,
          "velocity": 1,
          "duration": 0.1875
        },
        {
          "name": "A2",
          "midi": 45,
          "time": 224.25,
          "velocity": 1,
          "duration": 0.75
        },
        {
          "name": "E3",
          "midi": 52,
          "time": 224.25,
          "velocity": 1,
          "duration": 0.75
        },
        {
          "name": "A3",
          "midi": 57,
          "time": 224.25,
          "velocity": 1,
          "duration": 1.5
        },
        {
          "name": "E4",
          "midi": 64,
          "time": 224.25,
          "velocity": 1,
          "duration": 0.75
        },
        {
          "name": "A4",
          "midi": 69,
          "time": 224.25,
          "velocity": 1,
          "duration": 0.75
        },
        {
          "name": "A2",
          "midi": 45,
          "time": 225,
          "velocity": 1,
          "duration": 0.75
        },
        {
          "name": "E3",
          "midi": 52,
          "time": 225,
          "velocity": 1,
          "duration": 0.75
        },
        {
          "name": "A3",
          "midi": 57,
          "time": 225,
          "velocity": 1,
          "duration": 1.125
        },
        {
          "name": "E4",
          "midi": 64,
          "time": 225,
          "velocity": 1,
          "duration": 0.75
        },
        {
          "name": "A4",
          "midi": 69,
          "time": 225,
          "velocity": 1,
          "duration": 0.75
        },
        {
          "name": "A2",
          "midi": 45,
          "time": 225.75,
          "velocity": 1,
          "duration": 0.375
        },
        {
          "name": "E3",
          "midi": 52,
          "time": 225.75,
          "velocity": 1,
          "duration": 0.375
        },
        {
          "name": "A3",
          "midi": 57,
          "time": 225.75,
          "velocity": 1,
          "duration": 1.875
        },
        {
          "name": "E4",
          "midi": 64,
          "time": 225.75,
          "velocity": 1,
          "duration": 0.375
        },
        {
          "name": "A4",
          "midi": 69,
          "time": 225.75,
          "velocity": 1,
          "duration": 0.375
        },
        {
          "name": "A2",
          "midi": 45,
          "time": 226.125,
          "velocity": 1,
          "duration": 1.5
        },
        {
          "name": "E3",
          "midi": 52,
          "time": 226.125,
          "velocity": 1,
          "duration": 1.5
        },
        {
          "name": "A3",
          "midi": 57,
          "time": 226.125,
          "velocity": 1,
          "duration": 1.875
        },
        {
          "name": "E4",
          "midi": 64,
          "time": 226.125,
          "velocity": 1,
          "duration": 1.5
        },
        {
          "name": "A4",
          "midi": 69,
          "time": 226.125,
          "velocity": 1,
          "duration": 1.5
        },
        {
          "name": "A2",
          "midi": 45,
          "time": 227.625,
          "velocity": 1,
          "duration": 0.375
        },
        {
          "name": "E3",
          "midi": 52,
          "time": 227.625,
          "velocity": 1,
          "duration": 0.375
        },
        {
          "name": "A3",
          "midi": 57,
          "time": 227.625,
          "velocity": 1,
          "duration": 0.5625
        },
        {
          "name": "E4",
          "midi": 64,
          "time": 227.625,
          "velocity": 1,
          "duration": 0.375
        },
        {
          "name": "A4",
          "midi": 69,
          "time": 227.625,
          "velocity": 1,
          "duration": 0.375
        },
        {
          "name": "A2",
          "midi": 45,
          "time": 228,
          "velocity": 1,
          "duration": 0.1875
        },
        {
          "name": "E3",
          "midi": 52,
          "time": 228,
          "velocity": 1,
          "duration": 0.1875
        },
        {
          "name": "A3",
          "midi": 57,
          "time": 228,
          "velocity": 1,
          "duration": 0.375
        },
        {
          "name": "E4",
          "midi": 64,
          "time": 228,
          "velocity": 1,
          "duration": 0.1875
        },
        {
          "name": "A4",
          "midi": 69,
          "time": 228,
          "velocity": 1,
          "duration": 0.1875
        },
        {
          "name": "A2",
          "midi": 45,
          "time": 228.1875,
          "velocity": 1,
          "duration": 0.1875
        },
        {
          "name": "E3",
          "midi": 52,
          "time": 228.1875,
          "velocity": 1,
          "duration": 0.1875
        },
        {
          "name": "A3",
          "midi": 57,
          "time": 228.1875,
          "velocity": 1,
          "duration": 6.9375
        },
        {
          "name": "E4",
          "midi": 64,
          "time": 228.1875,
          "velocity": 1,
          "duration": 6.1875
        },
        {
          "name": "A4",
          "midi": 69,
          "time": 228.1875,
          "velocity": 1,
          "duration": 0.1875
        },
        {
          "name": "G2",
          "midi": 43,
          "time": 228.375,
          "velocity": 1,
          "duration": 0.75
        },
        {
          "name": "D3",
          "midi": 50,
          "time": 228.375,
          "velocity": 1,
          "duration": 1.3125
        },
        {
          "name": "G3",
          "midi": 55,
          "time": 228.375,
          "velocity": 1,
          "duration": 0.75
        },
        {
          "name": "D4",
          "midi": 62,
          "time": 228.375,
          "velocity": 1,
          "duration": 0.75
        },
        {
          "name": "G4",
          "midi": 67,
          "time": 228.375,
          "velocity": 1,
          "duration": 0.75
        },
        {
          "name": "G2",
          "midi": 43,
          "time": 229.125,
          "velocity": 1,
          "duration": 0.5625
        },
        {
          "name": "D3",
          "midi": 50,
          "time": 229.125,
          "velocity": 1,
          "duration": 0.75
        },
        {
          "name": "G3",
          "midi": 55,
          "time": 229.125,
          "velocity": 1,
          "duration": 0.5625
        },
        {
          "name": "D4",
          "midi": 62,
          "time": 229.125,
          "velocity": 1,
          "duration": 0.5625
        },
        {
          "name": "G4",
          "midi": 67,
          "time": 229.125,
          "velocity": 1,
          "duration": 0.5625
        },
        {
          "name": "G2",
          "midi": 43,
          "time": 229.6875,
          "velocity": 1,
          "duration": 0.1875
        },
        {
          "name": "D3",
          "midi": 50,
          "time": 229.6875,
          "velocity": 1,
          "duration": 0.375
        },
        {
          "name": "G3",
          "midi": 55,
          "time": 229.6875,
          "velocity": 1,
          "duration": 0.1875
        },
        {
          "name": "D4",
          "midi": 62,
          "time": 229.6875,
          "velocity": 1,
          "duration": 0.1875
        },
        {
          "name": "G4",
          "midi": 67,
          "time": 229.6875,
          "velocity": 1,
          "duration": 0.1875
        },
        {
          "name": "G2",
          "midi": 43,
          "time": 229.875,
          "velocity": 1,
          "duration": 0.1875
        },
        {
          "name": "D3",
          "midi": 50,
          "time": 229.875,
          "velocity": 1,
          "duration": 0.375
        },
        {
          "name": "G3",
          "midi": 55,
          "time": 229.875,
          "velocity": 1,
          "duration": 0.1875
        },
        {
          "name": "D4",
          "midi": 62,
          "time": 229.875,
          "velocity": 1,
          "duration": 0.1875
        },
        {
          "name": "G4",
          "midi": 67,
          "time": 229.875,
          "velocity": 1,
          "duration": 0.1875
        },
        {
          "name": "G2",
          "midi": 43,
          "time": 230.0625,
          "velocity": 1,
          "duration": 0.1875
        },
        {
          "name": "D3",
          "midi": 50,
          "time": 230.0625,
          "velocity": 1,
          "duration": 0.9375
        },
        {
          "name": "G3",
          "midi": 55,
          "time": 230.0625,
          "velocity": 1,
          "duration": 0.1875
        },
        {
          "name": "D4",
          "midi": 62,
          "time": 230.0625,
          "velocity": 1,
          "duration": 0.1875
        },
        {
          "name": "G4",
          "midi": 67,
          "time": 230.0625,
          "velocity": 1,
          "duration": 0.1875
        },
        {
          "name": "G2",
          "midi": 43,
          "time": 230.25,
          "velocity": 1,
          "duration": 0.75
        },
        {
          "name": "D3",
          "midi": 50,
          "time": 230.25,
          "velocity": 1,
          "duration": 1.5
        },
        {
          "name": "G3",
          "midi": 55,
          "time": 230.25,
          "velocity": 1,
          "duration": 0.75
        },
        {
          "name": "D4",
          "midi": 62,
          "time": 230.25,
          "velocity": 1,
          "duration": 0.75
        },
        {
          "name": "G4",
          "midi": 67,
          "time": 230.25,
          "velocity": 1,
          "duration": 0.75
        },
        {
          "name": "G2",
          "midi": 43,
          "time": 231,
          "velocity": 1,
          "duration": 0.75
        },
        {
          "name": "D3",
          "midi": 50,
          "time": 231,
          "velocity": 1,
          "duration": 1.5
        },
        {
          "name": "G3",
          "midi": 55,
          "time": 231,
          "velocity": 1,
          "duration": 0.75
        },
        {
          "name": "D4",
          "midi": 62,
          "time": 231,
          "velocity": 1,
          "duration": 0.75
        },
        {
          "name": "G4",
          "midi": 67,
          "time": 231,
          "velocity": 1,
          "duration": 0.75
        },
        {
          "name": "G2",
          "midi": 43,
          "time": 231.75,
          "velocity": 1,
          "duration": 0.75
        },
        {
          "name": "D3",
          "midi": 50,
          "time": 231.75,
          "velocity": 1,
          "duration": 1.875
        },
        {
          "name": "G3",
          "midi": 55,
          "time": 231.75,
          "velocity": 1,
          "duration": 0.75
        },
        {
          "name": "D4",
          "midi": 62,
          "time": 231.75,
          "velocity": 1,
          "duration": 0.75
        },
        {
          "name": "G4",
          "midi": 67,
          "time": 231.75,
          "velocity": 1,
          "duration": 0.75
        },
        {
          "name": "G2",
          "midi": 43,
          "time": 232.5,
          "velocity": 1,
          "duration": 1.125
        },
        {
          "name": "D3",
          "midi": 50,
          "time": 232.5,
          "velocity": 1,
          "duration": 1.3125
        },
        {
          "name": "G3",
          "midi": 55,
          "time": 232.5,
          "velocity": 1,
          "duration": 1.125
        },
        {
          "name": "D4",
          "midi": 62,
          "time": 232.5,
          "velocity": 1,
          "duration": 1.125
        },
        {
          "name": "G4",
          "midi": 67,
          "time": 232.5,
          "velocity": 1,
          "duration": 1.125
        },
        {
          "name": "G2",
          "midi": 43,
          "time": 233.625,
          "velocity": 1,
          "duration": 0.1875
        },
        {
          "name": "D3",
          "midi": 50,
          "time": 233.625,
          "velocity": 1,
          "duration": 0.375
        },
        {
          "name": "G3",
          "midi": 55,
          "time": 233.625,
          "velocity": 1,
          "duration": 0.1875
        },
        {
          "name": "D4",
          "midi": 62,
          "time": 233.625,
          "velocity": 1,
          "duration": 0.1875
        },
        {
          "name": "G4",
          "midi": 67,
          "time": 233.625,
          "velocity": 1,
          "duration": 0.1875
        },
        {
          "name": "G2",
          "midi": 43,
          "time": 233.8125,
          "velocity": 1,
          "duration": 0.1875
        },
        {
          "name": "D3",
          "midi": 50,
          "time": 233.8125,
          "velocity": 1,
          "duration": 0.5625
        },
        {
          "name": "G3",
          "midi": 55,
          "time": 233.8125,
          "velocity": 1,
          "duration": 0.1875
        },
        {
          "name": "D4",
          "midi": 62,
          "time": 233.8125,
          "velocity": 1,
          "duration": 0.1875
        },
        {
          "name": "G4",
          "midi": 67,
          "time": 233.8125,
          "velocity": 1,
          "duration": 0.1875
        },
        {
          "name": "G2",
          "midi": 43,
          "time": 234,
          "velocity": 1,
          "duration": 0.375
        },
        {
          "name": "D3",
          "midi": 50,
          "time": 234,
          "velocity": 1,
          "duration": 7.125
        },
        {
          "name": "G3",
          "midi": 55,
          "time": 234,
          "velocity": 1,
          "duration": 0.375
        },
        {
          "name": "D4",
          "midi": 62,
          "time": 234,
          "velocity": 1,
          "duration": 6.375
        },
        {
          "name": "G4",
          "midi": 67,
          "time": 234,
          "velocity": 1,
          "duration": 0.375
        },
        {
          "name": "A2",
          "midi": 45,
          "time": 234.375,
          "velocity": 1,
          "duration": 0.75
        },
        {
          "name": "E3",
          "midi": 52,
          "time": 234.375,
          "velocity": 1,
          "duration": 0.75
        },
        {
          "name": "A3",
          "midi": 57,
          "time": 234.375,
          "velocity": 1,
          "duration": 1.3125
        },
        {
          "name": "E4",
          "midi": 64,
          "time": 234.375,
          "velocity": 1,
          "duration": 0.75
        },
        {
          "name": "A4",
          "midi": 69,
          "time": 234.375,
          "velocity": 1,
          "duration": 0.75
        },
        {
          "name": "A2",
          "midi": 45,
          "time": 235.125,
          "velocity": 1,
          "duration": 0.5625
        },
        {
          "name": "E3",
          "midi": 52,
          "time": 235.125,
          "velocity": 1,
          "duration": 0.5625
        },
        {
          "name": "A3",
          "midi": 57,
          "time": 235.125,
          "velocity": 1,
          "duration": 0.75
        },
        {
          "name": "E4",
          "midi": 64,
          "time": 235.125,
          "velocity": 1,
          "duration": 0.5625
        },
        {
          "name": "A4",
          "midi": 69,
          "time": 235.125,
          "velocity": 1,
          "duration": 0.5625
        },
        {
          "name": "A2",
          "midi": 45,
          "time": 235.6875,
          "velocity": 1,
          "duration": 0.1875
        },
        {
          "name": "E3",
          "midi": 52,
          "time": 235.6875,
          "velocity": 1,
          "duration": 0.1875
        },
        {
          "name": "A3",
          "midi": 57,
          "time": 235.6875,
          "velocity": 1,
          "duration": 0.375
        },
        {
          "name": "E4",
          "midi": 64,
          "time": 235.6875,
          "velocity": 1,
          "duration": 0.1875
        },
        {
          "name": "A4",
          "midi": 69,
          "time": 235.6875,
          "velocity": 1,
          "duration": 0.1875
        },
        {
          "name": "A2",
          "midi": 45,
          "time": 235.875,
          "velocity": 1,
          "duration": 0.1875
        },
        {
          "name": "E3",
          "midi": 52,
          "time": 235.875,
          "velocity": 1,
          "duration": 0.1875
        },
        {
          "name": "A3",
          "midi": 57,
          "time": 235.875,
          "velocity": 1,
          "duration": 0.375
        },
        {
          "name": "E4",
          "midi": 64,
          "time": 235.875,
          "velocity": 1,
          "duration": 0.1875
        },
        {
          "name": "A4",
          "midi": 69,
          "time": 235.875,
          "velocity": 1,
          "duration": 0.1875
        },
        {
          "name": "A2",
          "midi": 45,
          "time": 236.0625,
          "velocity": 1,
          "duration": 0.1875
        },
        {
          "name": "E3",
          "midi": 52,
          "time": 236.0625,
          "velocity": 1,
          "duration": 0.1875
        },
        {
          "name": "A3",
          "midi": 57,
          "time": 236.0625,
          "velocity": 1,
          "duration": 0.9375
        },
        {
          "name": "E4",
          "midi": 64,
          "time": 236.0625,
          "velocity": 1,
          "duration": 0.1875
        },
        {
          "name": "A4",
          "midi": 69,
          "time": 236.0625,
          "velocity": 1,
          "duration": 0.1875
        },
        {
          "name": "A2",
          "midi": 45,
          "time": 236.25,
          "velocity": 1,
          "duration": 0.75
        },
        {
          "name": "E3",
          "midi": 52,
          "time": 236.25,
          "velocity": 1,
          "duration": 0.75
        },
        {
          "name": "A3",
          "midi": 57,
          "time": 236.25,
          "velocity": 1,
          "duration": 1.5
        },
        {
          "name": "E4",
          "midi": 64,
          "time": 236.25,
          "velocity": 1,
          "duration": 0.75
        },
        {
          "name": "A4",
          "midi": 69,
          "time": 236.25,
          "velocity": 1,
          "duration": 0.75
        },
        {
          "name": "A2",
          "midi": 45,
          "time": 237,
          "velocity": 1,
          "duration": 0.75
        },
        {
          "name": "E3",
          "midi": 52,
          "time": 237,
          "velocity": 1,
          "duration": 0.75
        },
        {
          "name": "A3",
          "midi": 57,
          "time": 237,
          "velocity": 1,
          "duration": 1.125
        },
        {
          "name": "E4",
          "midi": 64,
          "time": 237,
          "velocity": 1,
          "duration": 0.75
        },
        {
          "name": "A4",
          "midi": 69,
          "time": 237,
          "velocity": 1,
          "duration": 0.75
        },
        {
          "name": "A2",
          "midi": 45,
          "time": 237.75,
          "velocity": 1,
          "duration": 0.375
        },
        {
          "name": "E3",
          "midi": 52,
          "time": 237.75,
          "velocity": 1,
          "duration": 0.375
        },
        {
          "name": "A3",
          "midi": 57,
          "time": 237.75,
          "velocity": 1,
          "duration": 1.875
        },
        {
          "name": "E4",
          "midi": 64,
          "time": 237.75,
          "velocity": 1,
          "duration": 0.375
        },
        {
          "name": "A4",
          "midi": 69,
          "time": 237.75,
          "velocity": 1,
          "duration": 0.375
        },
        {
          "name": "A2",
          "midi": 45,
          "time": 238.125,
          "velocity": 1,
          "duration": 1.5
        },
        {
          "name": "E3",
          "midi": 52,
          "time": 238.125,
          "velocity": 1,
          "duration": 1.5
        },
        {
          "name": "A3",
          "midi": 57,
          "time": 238.125,
          "velocity": 1,
          "duration": 1.875
        },
        {
          "name": "E4",
          "midi": 64,
          "time": 238.125,
          "velocity": 1,
          "duration": 1.5
        },
        {
          "name": "A4",
          "midi": 69,
          "time": 238.125,
          "velocity": 1,
          "duration": 1.5
        },
        {
          "name": "A2",
          "midi": 45,
          "time": 239.625,
          "velocity": 1,
          "duration": 0.375
        },
        {
          "name": "E3",
          "midi": 52,
          "time": 239.625,
          "velocity": 1,
          "duration": 0.375
        },
        {
          "name": "A3",
          "midi": 57,
          "time": 239.625,
          "velocity": 1,
          "duration": 0.5625
        },
        {
          "name": "E4",
          "midi": 64,
          "time": 239.625,
          "velocity": 1,
          "duration": 0.375
        },
        {
          "name": "A4",
          "midi": 69,
          "time": 239.625,
          "velocity": 1,
          "duration": 0.375
        },
        {
          "name": "A2",
          "midi": 45,
          "time": 240,
          "velocity": 1,
          "duration": 0.1875
        },
        {
          "name": "E3",
          "midi": 52,
          "time": 240,
          "velocity": 1,
          "duration": 0.1875
        },
        {
          "name": "A3",
          "midi": 57,
          "time": 240,
          "velocity": 1,
          "duration": 0.375
        },
        {
          "name": "E4",
          "midi": 64,
          "time": 240,
          "velocity": 1,
          "duration": 0.1875
        },
        {
          "name": "A4",
          "midi": 69,
          "time": 240,
          "velocity": 1,
          "duration": 0.1875
        },
        {
          "name": "A2",
          "midi": 45,
          "time": 240.1875,
          "velocity": 1,
          "duration": 0.1875
        },
        {
          "name": "E3",
          "midi": 52,
          "time": 240.1875,
          "velocity": 1,
          "duration": 0.1875
        },
        {
          "name": "A3",
          "midi": 57,
          "time": 240.1875,
          "velocity": 1,
          "duration": 6.9375
        },
        {
          "name": "E4",
          "midi": 64,
          "time": 240.1875,
          "velocity": 1,
          "duration": 6.1875
        },
        {
          "name": "A4",
          "midi": 69,
          "time": 240.1875,
          "velocity": 1,
          "duration": 0.1875
        },
        {
          "name": "G2",
          "midi": 43,
          "time": 240.375,
          "velocity": 1,
          "duration": 0.75
        },
        {
          "name": "D3",
          "midi": 50,
          "time": 240.375,
          "velocity": 1,
          "duration": 1.3125
        },
        {
          "name": "G3",
          "midi": 55,
          "time": 240.375,
          "velocity": 1,
          "duration": 0.75
        },
        {
          "name": "D4",
          "midi": 62,
          "time": 240.375,
          "velocity": 1,
          "duration": 0.75
        },
        {
          "name": "G4",
          "midi": 67,
          "time": 240.375,
          "velocity": 1,
          "duration": 0.75
        },
        {
          "name": "G2",
          "midi": 43,
          "time": 241.125,
          "velocity": 1,
          "duration": 0.5625
        },
        {
          "name": "D3",
          "midi": 50,
          "time": 241.125,
          "velocity": 1,
          "duration": 0.75
        },
        {
          "name": "G3",
          "midi": 55,
          "time": 241.125,
          "velocity": 1,
          "duration": 0.5625
        },
        {
          "name": "D4",
          "midi": 62,
          "time": 241.125,
          "velocity": 1,
          "duration": 0.5625
        },
        {
          "name": "G4",
          "midi": 67,
          "time": 241.125,
          "velocity": 1,
          "duration": 0.5625
        },
        {
          "name": "G2",
          "midi": 43,
          "time": 241.6875,
          "velocity": 1,
          "duration": 0.1875
        },
        {
          "name": "D3",
          "midi": 50,
          "time": 241.6875,
          "velocity": 1,
          "duration": 0.375
        },
        {
          "name": "G3",
          "midi": 55,
          "time": 241.6875,
          "velocity": 1,
          "duration": 0.1875
        },
        {
          "name": "D4",
          "midi": 62,
          "time": 241.6875,
          "velocity": 1,
          "duration": 0.1875
        },
        {
          "name": "G4",
          "midi": 67,
          "time": 241.6875,
          "velocity": 1,
          "duration": 0.1875
        },
        {
          "name": "G2",
          "midi": 43,
          "time": 241.875,
          "velocity": 1,
          "duration": 0.1875
        },
        {
          "name": "D3",
          "midi": 50,
          "time": 241.875,
          "velocity": 1,
          "duration": 0.375
        },
        {
          "name": "G3",
          "midi": 55,
          "time": 241.875,
          "velocity": 1,
          "duration": 0.1875
        },
        {
          "name": "D4",
          "midi": 62,
          "time": 241.875,
          "velocity": 1,
          "duration": 0.1875
        },
        {
          "name": "G4",
          "midi": 67,
          "time": 241.875,
          "velocity": 1,
          "duration": 0.1875
        },
        {
          "name": "G2",
          "midi": 43,
          "time": 242.0625,
          "velocity": 1,
          "duration": 0.1875
        },
        {
          "name": "D3",
          "midi": 50,
          "time": 242.0625,
          "velocity": 1,
          "duration": 0.9375
        },
        {
          "name": "G3",
          "midi": 55,
          "time": 242.0625,
          "velocity": 1,
          "duration": 0.1875
        },
        {
          "name": "D4",
          "midi": 62,
          "time": 242.0625,
          "velocity": 1,
          "duration": 0.1875
        },
        {
          "name": "G4",
          "midi": 67,
          "time": 242.0625,
          "velocity": 1,
          "duration": 0.1875
        },
        {
          "name": "G2",
          "midi": 43,
          "time": 242.25,
          "velocity": 1,
          "duration": 0.75
        },
        {
          "name": "D3",
          "midi": 50,
          "time": 242.25,
          "velocity": 1,
          "duration": 1.5
        },
        {
          "name": "G3",
          "midi": 55,
          "time": 242.25,
          "velocity": 1,
          "duration": 0.75
        },
        {
          "name": "D4",
          "midi": 62,
          "time": 242.25,
          "velocity": 1,
          "duration": 0.75
        },
        {
          "name": "G4",
          "midi": 67,
          "time": 242.25,
          "velocity": 1,
          "duration": 0.75
        },
        {
          "name": "G2",
          "midi": 43,
          "time": 243,
          "velocity": 1,
          "duration": 0.75
        },
        {
          "name": "D3",
          "midi": 50,
          "time": 243,
          "velocity": 1,
          "duration": 1.5
        },
        {
          "name": "G3",
          "midi": 55,
          "time": 243,
          "velocity": 1,
          "duration": 0.75
        },
        {
          "name": "D4",
          "midi": 62,
          "time": 243,
          "velocity": 1,
          "duration": 0.75
        },
        {
          "name": "G4",
          "midi": 67,
          "time": 243,
          "velocity": 1,
          "duration": 0.75
        },
        {
          "name": "G2",
          "midi": 43,
          "time": 243.75,
          "velocity": 1,
          "duration": 0.75
        },
        {
          "name": "D3",
          "midi": 50,
          "time": 243.75,
          "velocity": 1,
          "duration": 1.875
        },
        {
          "name": "G3",
          "midi": 55,
          "time": 243.75,
          "velocity": 1,
          "duration": 0.75
        },
        {
          "name": "D4",
          "midi": 62,
          "time": 243.75,
          "velocity": 1,
          "duration": 0.75
        },
        {
          "name": "G4",
          "midi": 67,
          "time": 243.75,
          "velocity": 1,
          "duration": 0.75
        },
        {
          "name": "G2",
          "midi": 43,
          "time": 244.5,
          "velocity": 1,
          "duration": 1.125
        },
        {
          "name": "D3",
          "midi": 50,
          "time": 244.5,
          "velocity": 1,
          "duration": 1.3125
        },
        {
          "name": "G3",
          "midi": 55,
          "time": 244.5,
          "velocity": 1,
          "duration": 1.125
        },
        {
          "name": "D4",
          "midi": 62,
          "time": 244.5,
          "velocity": 1,
          "duration": 1.125
        },
        {
          "name": "G4",
          "midi": 67,
          "time": 244.5,
          "velocity": 1,
          "duration": 1.125
        },
        {
          "name": "G2",
          "midi": 43,
          "time": 245.625,
          "velocity": 1,
          "duration": 0.1875
        },
        {
          "name": "D3",
          "midi": 50,
          "time": 245.625,
          "velocity": 1,
          "duration": 0.375
        },
        {
          "name": "G3",
          "midi": 55,
          "time": 245.625,
          "velocity": 1,
          "duration": 0.1875
        },
        {
          "name": "D4",
          "midi": 62,
          "time": 245.625,
          "velocity": 1,
          "duration": 0.1875
        },
        {
          "name": "G4",
          "midi": 67,
          "time": 245.625,
          "velocity": 1,
          "duration": 0.1875
        },
        {
          "name": "G2",
          "midi": 43,
          "time": 245.8125,
          "velocity": 1,
          "duration": 0.1875
        },
        {
          "name": "D3",
          "midi": 50,
          "time": 245.8125,
          "velocity": 1,
          "duration": 0.5625
        },
        {
          "name": "G3",
          "midi": 55,
          "time": 245.8125,
          "velocity": 1,
          "duration": 0.1875
        },
        {
          "name": "D4",
          "midi": 62,
          "time": 245.8125,
          "velocity": 1,
          "duration": 0.1875
        },
        {
          "name": "G4",
          "midi": 67,
          "time": 245.8125,
          "velocity": 1,
          "duration": 0.1875
        },
        {
          "name": "G2",
          "midi": 43,
          "time": 246,
          "velocity": 1,
          "duration": 0.375
        },
        {
          "name": "D3",
          "midi": 50,
          "time": 246,
          "velocity": 1,
          "duration": 7.125
        },
        {
          "name": "G3",
          "midi": 55,
          "time": 246,
          "velocity": 1,
          "duration": 0.375
        },
        {
          "name": "D4",
          "midi": 62,
          "time": 246,
          "velocity": 1,
          "duration": 6.375
        },
        {
          "name": "G4",
          "midi": 67,
          "time": 246,
          "velocity": 1,
          "duration": 0.375
        },
        {
          "name": "A2",
          "midi": 45,
          "time": 246.375,
          "velocity": 1,
          "duration": 0.75
        },
        {
          "name": "E3",
          "midi": 52,
          "time": 246.375,
          "velocity": 1,
          "duration": 0.75
        },
        {
          "name": "A3",
          "midi": 57,
          "time": 246.375,
          "velocity": 1,
          "duration": 1.3125
        },
        {
          "name": "E4",
          "midi": 64,
          "time": 246.375,
          "velocity": 1,
          "duration": 0.75
        },
        {
          "name": "A4",
          "midi": 69,
          "time": 246.375,
          "velocity": 1,
          "duration": 0.75
        },
        {
          "name": "A2",
          "midi": 45,
          "time": 247.125,
          "velocity": 1,
          "duration": 0.5625
        },
        {
          "name": "E3",
          "midi": 52,
          "time": 247.125,
          "velocity": 1,
          "duration": 0.5625
        },
        {
          "name": "A3",
          "midi": 57,
          "time": 247.125,
          "velocity": 1,
          "duration": 0.75
        },
        {
          "name": "E4",
          "midi": 64,
          "time": 247.125,
          "velocity": 1,
          "duration": 0.5625
        },
        {
          "name": "A4",
          "midi": 69,
          "time": 247.125,
          "velocity": 1,
          "duration": 0.5625
        },
        {
          "name": "A2",
          "midi": 45,
          "time": 247.6875,
          "velocity": 1,
          "duration": 0.1875
        },
        {
          "name": "E3",
          "midi": 52,
          "time": 247.6875,
          "velocity": 1,
          "duration": 0.1875
        },
        {
          "name": "A3",
          "midi": 57,
          "time": 247.6875,
          "velocity": 1,
          "duration": 0.375
        },
        {
          "name": "E4",
          "midi": 64,
          "time": 247.6875,
          "velocity": 1,
          "duration": 0.1875
        },
        {
          "name": "A4",
          "midi": 69,
          "time": 247.6875,
          "velocity": 1,
          "duration": 0.1875
        },
        {
          "name": "A2",
          "midi": 45,
          "time": 247.875,
          "velocity": 1,
          "duration": 0.1875
        },
        {
          "name": "E3",
          "midi": 52,
          "time": 247.875,
          "velocity": 1,
          "duration": 0.1875
        },
        {
          "name": "A3",
          "midi": 57,
          "time": 247.875,
          "velocity": 1,
          "duration": 0.375
        },
        {
          "name": "E4",
          "midi": 64,
          "time": 247.875,
          "velocity": 1,
          "duration": 0.1875
        },
        {
          "name": "A4",
          "midi": 69,
          "time": 247.875,
          "velocity": 1,
          "duration": 0.1875
        },
        {
          "name": "A2",
          "midi": 45,
          "time": 248.0625,
          "velocity": 1,
          "duration": 0.1875
        },
        {
          "name": "E3",
          "midi": 52,
          "time": 248.0625,
          "velocity": 1,
          "duration": 0.1875
        },
        {
          "name": "A3",
          "midi": 57,
          "time": 248.0625,
          "velocity": 1,
          "duration": 0.9375
        },
        {
          "name": "E4",
          "midi": 64,
          "time": 248.0625,
          "velocity": 1,
          "duration": 0.1875
        },
        {
          "name": "A4",
          "midi": 69,
          "time": 248.0625,
          "velocity": 1,
          "duration": 0.1875
        },
        {
          "name": "A2",
          "midi": 45,
          "time": 248.25,
          "velocity": 1,
          "duration": 0.75
        },
        {
          "name": "E3",
          "midi": 52,
          "time": 248.25,
          "velocity": 1,
          "duration": 0.75
        },
        {
          "name": "A3",
          "midi": 57,
          "time": 248.25,
          "velocity": 1,
          "duration": 1.5
        },
        {
          "name": "E4",
          "midi": 64,
          "time": 248.25,
          "velocity": 1,
          "duration": 0.75
        },
        {
          "name": "A4",
          "midi": 69,
          "time": 248.25,
          "velocity": 1,
          "duration": 0.75
        },
        {
          "name": "A2",
          "midi": 45,
          "time": 249,
          "velocity": 1,
          "duration": 0.75
        },
        {
          "name": "E3",
          "midi": 52,
          "time": 249,
          "velocity": 1,
          "duration": 0.75
        },
        {
          "name": "A3",
          "midi": 57,
          "time": 249,
          "velocity": 1,
          "duration": 1.125
        },
        {
          "name": "E4",
          "midi": 64,
          "time": 249,
          "velocity": 1,
          "duration": 0.75
        },
        {
          "name": "A4",
          "midi": 69,
          "time": 249,
          "velocity": 1,
          "duration": 0.75
        },
        {
          "name": "A2",
          "midi": 45,
          "time": 249.75,
          "velocity": 1,
          "duration": 0.375
        },
        {
          "name": "E3",
          "midi": 52,
          "time": 249.75,
          "velocity": 1,
          "duration": 0.375
        },
        {
          "name": "A3",
          "midi": 57,
          "time": 249.75,
          "velocity": 1,
          "duration": 1.875
        },
        {
          "name": "E4",
          "midi": 64,
          "time": 249.75,
          "velocity": 1,
          "duration": 0.375
        },
        {
          "name": "A4",
          "midi": 69,
          "time": 249.75,
          "velocity": 1,
          "duration": 0.375
        },
        {
          "name": "A2",
          "midi": 45,
          "time": 250.125,
          "velocity": 1,
          "duration": 1.5
        },
        {
          "name": "E3",
          "midi": 52,
          "time": 250.125,
          "velocity": 1,
          "duration": 1.5
        },
        {
          "name": "A3",
          "midi": 57,
          "time": 250.125,
          "velocity": 1,
          "duration": 1.875
        },
        {
          "name": "E4",
          "midi": 64,
          "time": 250.125,
          "velocity": 1,
          "duration": 1.5
        },
        {
          "name": "A4",
          "midi": 69,
          "time": 250.125,
          "velocity": 1,
          "duration": 1.5
        },
        {
          "name": "A2",
          "midi": 45,
          "time": 251.625,
          "velocity": 1,
          "duration": 0.375
        },
        {
          "name": "E3",
          "midi": 52,
          "time": 251.625,
          "velocity": 1,
          "duration": 0.375
        },
        {
          "name": "A3",
          "midi": 57,
          "time": 251.625,
          "velocity": 1,
          "duration": 0.5625
        },
        {
          "name": "E4",
          "midi": 64,
          "time": 251.625,
          "velocity": 1,
          "duration": 0.375
        },
        {
          "name": "A4",
          "midi": 69,
          "time": 251.625,
          "velocity": 1,
          "duration": 0.375
        },
        {
          "name": "A2",
          "midi": 45,
          "time": 252,
          "velocity": 1,
          "duration": 0.1875
        },
        {
          "name": "E3",
          "midi": 52,
          "time": 252,
          "velocity": 1,
          "duration": 0.1875
        },
        {
          "name": "A3",
          "midi": 57,
          "time": 252,
          "velocity": 1,
          "duration": 0.375
        },
        {
          "name": "E4",
          "midi": 64,
          "time": 252,
          "velocity": 1,
          "duration": 0.1875
        },
        {
          "name": "A4",
          "midi": 69,
          "time": 252,
          "velocity": 1,
          "duration": 0.1875
        },
        {
          "name": "A2",
          "midi": 45,
          "time": 252.1875,
          "velocity": 1,
          "duration": 0.1875
        },
        {
          "name": "E3",
          "midi": 52,
          "time": 252.1875,
          "velocity": 1,
          "duration": 0.1875
        },
        {
          "name": "A3",
          "midi": 57,
          "time": 252.1875,
          "velocity": 1,
          "duration": 6.9375
        },
        {
          "name": "E4",
          "midi": 64,
          "time": 252.1875,
          "velocity": 1,
          "duration": 6.1875
        },
        {
          "name": "A4",
          "midi": 69,
          "time": 252.1875,
          "velocity": 1,
          "duration": 0.1875
        },
        {
          "name": "G2",
          "midi": 43,
          "time": 252.375,
          "velocity": 1,
          "duration": 0.75
        },
        {
          "name": "D3",
          "midi": 50,
          "time": 252.375,
          "velocity": 1,
          "duration": 1.3125
        },
        {
          "name": "G3",
          "midi": 55,
          "time": 252.375,
          "velocity": 1,
          "duration": 0.75
        },
        {
          "name": "D4",
          "midi": 62,
          "time": 252.375,
          "velocity": 1,
          "duration": 0.75
        },
        {
          "name": "G4",
          "midi": 67,
          "time": 252.375,
          "velocity": 1,
          "duration": 0.75
        },
        {
          "name": "G2",
          "midi": 43,
          "time": 253.125,
          "velocity": 1,
          "duration": 0.5625
        },
        {
          "name": "D3",
          "midi": 50,
          "time": 253.125,
          "velocity": 1,
          "duration": 0.75
        },
        {
          "name": "G3",
          "midi": 55,
          "time": 253.125,
          "velocity": 1,
          "duration": 0.5625
        },
        {
          "name": "D4",
          "midi": 62,
          "time": 253.125,
          "velocity": 1,
          "duration": 0.5625
        },
        {
          "name": "G4",
          "midi": 67,
          "time": 253.125,
          "velocity": 1,
          "duration": 0.5625
        },
        {
          "name": "G2",
          "midi": 43,
          "time": 253.6875,
          "velocity": 1,
          "duration": 0.1875
        },
        {
          "name": "D3",
          "midi": 50,
          "time": 253.6875,
          "velocity": 1,
          "duration": 0.375
        },
        {
          "name": "G3",
          "midi": 55,
          "time": 253.6875,
          "velocity": 1,
          "duration": 0.1875
        },
        {
          "name": "D4",
          "midi": 62,
          "time": 253.6875,
          "velocity": 1,
          "duration": 0.1875
        },
        {
          "name": "G4",
          "midi": 67,
          "time": 253.6875,
          "velocity": 1,
          "duration": 0.1875
        },
        {
          "name": "G2",
          "midi": 43,
          "time": 253.875,
          "velocity": 1,
          "duration": 0.1875
        },
        {
          "name": "D3",
          "midi": 50,
          "time": 253.875,
          "velocity": 1,
          "duration": 0.375
        },
        {
          "name": "G3",
          "midi": 55,
          "time": 253.875,
          "velocity": 1,
          "duration": 0.1875
        },
        {
          "name": "D4",
          "midi": 62,
          "time": 253.875,
          "velocity": 1,
          "duration": 0.1875
        },
        {
          "name": "G4",
          "midi": 67,
          "time": 253.875,
          "velocity": 1,
          "duration": 0.1875
        },
        {
          "name": "G2",
          "midi": 43,
          "time": 254.0625,
          "velocity": 1,
          "duration": 0.1875
        },
        {
          "name": "D3",
          "midi": 50,
          "time": 254.0625,
          "velocity": 1,
          "duration": 0.9375
        },
        {
          "name": "G3",
          "midi": 55,
          "time": 254.0625,
          "velocity": 1,
          "duration": 0.1875
        },
        {
          "name": "D4",
          "midi": 62,
          "time": 254.0625,
          "velocity": 1,
          "duration": 0.1875
        },
        {
          "name": "G4",
          "midi": 67,
          "time": 254.0625,
          "velocity": 1,
          "duration": 0.1875
        },
        {
          "name": "G2",
          "midi": 43,
          "time": 254.25,
          "velocity": 1,
          "duration": 0.75
        },
        {
          "name": "D3",
          "midi": 50,
          "time": 254.25,
          "velocity": 1,
          "duration": 1.5
        },
        {
          "name": "G3",
          "midi": 55,
          "time": 254.25,
          "velocity": 1,
          "duration": 0.75
        },
        {
          "name": "D4",
          "midi": 62,
          "time": 254.25,
          "velocity": 1,
          "duration": 0.75
        },
        {
          "name": "G4",
          "midi": 67,
          "time": 254.25,
          "velocity": 1,
          "duration": 0.75
        },
        {
          "name": "G2",
          "midi": 43,
          "time": 255,
          "velocity": 1,
          "duration": 0.75
        },
        {
          "name": "D3",
          "midi": 50,
          "time": 255,
          "velocity": 1,
          "duration": 1.5
        },
        {
          "name": "G3",
          "midi": 55,
          "time": 255,
          "velocity": 1,
          "duration": 0.75
        },
        {
          "name": "D4",
          "midi": 62,
          "time": 255,
          "velocity": 1,
          "duration": 0.75
        },
        {
          "name": "G4",
          "midi": 67,
          "time": 255,
          "velocity": 1,
          "duration": 0.75
        },
        {
          "name": "G2",
          "midi": 43,
          "time": 255.75,
          "velocity": 1,
          "duration": 0.75
        },
        {
          "name": "D3",
          "midi": 50,
          "time": 255.75,
          "velocity": 1,
          "duration": 1.875
        },
        {
          "name": "G3",
          "midi": 55,
          "time": 255.75,
          "velocity": 1,
          "duration": 0.75
        },
        {
          "name": "D4",
          "midi": 62,
          "time": 255.75,
          "velocity": 1,
          "duration": 0.75
        },
        {
          "name": "G4",
          "midi": 67,
          "time": 255.75,
          "velocity": 1,
          "duration": 0.75
        },
        {
          "name": "G2",
          "midi": 43,
          "time": 256.5,
          "velocity": 1,
          "duration": 1.125
        },
        {
          "name": "D3",
          "midi": 50,
          "time": 256.5,
          "velocity": 1,
          "duration": 1.3125
        },
        {
          "name": "G3",
          "midi": 55,
          "time": 256.5,
          "velocity": 1,
          "duration": 1.125
        },
        {
          "name": "D4",
          "midi": 62,
          "time": 256.5,
          "velocity": 1,
          "duration": 1.125
        },
        {
          "name": "G4",
          "midi": 67,
          "time": 256.5,
          "velocity": 1,
          "duration": 1.125
        },
        {
          "name": "G2",
          "midi": 43,
          "time": 257.625,
          "velocity": 1,
          "duration": 0.1875
        },
        {
          "name": "D3",
          "midi": 50,
          "time": 257.625,
          "velocity": 1,
          "duration": 0.375
        },
        {
          "name": "G3",
          "midi": 55,
          "time": 257.625,
          "velocity": 1,
          "duration": 0.1875
        },
        {
          "name": "D4",
          "midi": 62,
          "time": 257.625,
          "velocity": 1,
          "duration": 0.1875
        },
        {
          "name": "G4",
          "midi": 67,
          "time": 257.625,
          "velocity": 1,
          "duration": 0.1875
        },
        {
          "name": "G2",
          "midi": 43,
          "time": 257.8125,
          "velocity": 1,
          "duration": 0.1875
        },
        {
          "name": "D3",
          "midi": 50,
          "time": 257.8125,
          "velocity": 1,
          "duration": 0.5625
        },
        {
          "name": "G3",
          "midi": 55,
          "time": 257.8125,
          "velocity": 1,
          "duration": 0.1875
        },
        {
          "name": "D4",
          "midi": 62,
          "time": 257.8125,
          "velocity": 1,
          "duration": 0.1875
        },
        {
          "name": "G4",
          "midi": 67,
          "time": 257.8125,
          "velocity": 1,
          "duration": 0.1875
        },
        {
          "name": "G2",
          "midi": 43,
          "time": 258,
          "velocity": 1,
          "duration": 0.375
        },
        {
          "name": "D3",
          "midi": 50,
          "time": 258,
          "velocity": 1,
          "duration": 6.375
        },
        {
          "name": "G3",
          "midi": 55,
          "time": 258,
          "velocity": 1,
          "duration": 0.375
        },
        {
          "name": "D4",
          "midi": 62,
          "time": 258,
          "velocity": 1,
          "duration": 6.5625
        },
        {
          "name": "G4",
          "midi": 67,
          "time": 258,
          "velocity": 1,
          "duration": 0.375
        },
        {
          "name": "A2",
          "midi": 45,
          "time": 258.375,
          "velocity": 1,
          "duration": 0.75
        },
        {
          "name": "E3",
          "midi": 52,
          "time": 258.375,
          "velocity": 1,
          "duration": 0.75
        },
        {
          "name": "A3",
          "midi": 57,
          "time": 258.375,
          "velocity": 1,
          "duration": 1.3125
        },
        {
          "name": "E4",
          "midi": 64,
          "time": 258.375,
          "velocity": 1,
          "duration": 0.75
        },
        {
          "name": "A4",
          "midi": 69,
          "time": 258.375,
          "velocity": 1,
          "duration": 0.75
        },
        {
          "name": "A2",
          "midi": 45,
          "time": 259.125,
          "velocity": 1,
          "duration": 0.5625
        },
        {
          "name": "E3",
          "midi": 52,
          "time": 259.125,
          "velocity": 1,
          "duration": 0.5625
        },
        {
          "name": "A3",
          "midi": 57,
          "time": 259.125,
          "velocity": 1,
          "duration": 0.75
        },
        {
          "name": "E4",
          "midi": 64,
          "time": 259.125,
          "velocity": 1,
          "duration": 0.5625
        },
        {
          "name": "A4",
          "midi": 69,
          "time": 259.125,
          "velocity": 1,
          "duration": 0.5625
        },
        {
          "name": "A2",
          "midi": 45,
          "time": 259.6875,
          "velocity": 1,
          "duration": 0.1875
        },
        {
          "name": "E3",
          "midi": 52,
          "time": 259.6875,
          "velocity": 1,
          "duration": 0.1875
        },
        {
          "name": "A3",
          "midi": 57,
          "time": 259.6875,
          "velocity": 1,
          "duration": 0.375
        },
        {
          "name": "E4",
          "midi": 64,
          "time": 259.6875,
          "velocity": 1,
          "duration": 0.1875
        },
        {
          "name": "A4",
          "midi": 69,
          "time": 259.6875,
          "velocity": 1,
          "duration": 0.1875
        },
        {
          "name": "A2",
          "midi": 45,
          "time": 259.875,
          "velocity": 1,
          "duration": 0.1875
        },
        {
          "name": "E3",
          "midi": 52,
          "time": 259.875,
          "velocity": 1,
          "duration": 0.1875
        },
        {
          "name": "A3",
          "midi": 57,
          "time": 259.875,
          "velocity": 1,
          "duration": 0.375
        },
        {
          "name": "E4",
          "midi": 64,
          "time": 259.875,
          "velocity": 1,
          "duration": 0.1875
        },
        {
          "name": "A4",
          "midi": 69,
          "time": 259.875,
          "velocity": 1,
          "duration": 0.1875
        },
        {
          "name": "A2",
          "midi": 45,
          "time": 260.0625,
          "velocity": 1,
          "duration": 0.1875
        },
        {
          "name": "E3",
          "midi": 52,
          "time": 260.0625,
          "velocity": 1,
          "duration": 0.1875
        },
        {
          "name": "A3",
          "midi": 57,
          "time": 260.0625,
          "velocity": 1,
          "duration": 0.9375
        },
        {
          "name": "E4",
          "midi": 64,
          "time": 260.0625,
          "velocity": 1,
          "duration": 0.1875
        },
        {
          "name": "A4",
          "midi": 69,
          "time": 260.0625,
          "velocity": 1,
          "duration": 0.1875
        },
        {
          "name": "A2",
          "midi": 45,
          "time": 260.25,
          "velocity": 1,
          "duration": 0.75
        },
        {
          "name": "E3",
          "midi": 52,
          "time": 260.25,
          "velocity": 1,
          "duration": 0.75
        },
        {
          "name": "A3",
          "midi": 57,
          "time": 260.25,
          "velocity": 1,
          "duration": 1.5
        },
        {
          "name": "E4",
          "midi": 64,
          "time": 260.25,
          "velocity": 1,
          "duration": 0.75
        },
        {
          "name": "A4",
          "midi": 69,
          "time": 260.25,
          "velocity": 1,
          "duration": 0.75
        },
        {
          "name": "A2",
          "midi": 45,
          "time": 261,
          "velocity": 1,
          "duration": 0.75
        },
        {
          "name": "E3",
          "midi": 52,
          "time": 261,
          "velocity": 1,
          "duration": 0.75
        },
        {
          "name": "A3",
          "midi": 57,
          "time": 261,
          "velocity": 1,
          "duration": 1.125
        },
        {
          "name": "E4",
          "midi": 64,
          "time": 261,
          "velocity": 1,
          "duration": 0.75
        },
        {
          "name": "A4",
          "midi": 69,
          "time": 261,
          "velocity": 1,
          "duration": 0.75
        },
        {
          "name": "A2",
          "midi": 45,
          "time": 261.75,
          "velocity": 1,
          "duration": 0.375
        },
        {
          "name": "E3",
          "midi": 52,
          "time": 261.75,
          "velocity": 1,
          "duration": 0.375
        },
        {
          "name": "A3",
          "midi": 57,
          "time": 261.75,
          "velocity": 1,
          "duration": 1.875
        },
        {
          "name": "E4",
          "midi": 64,
          "time": 261.75,
          "velocity": 1,
          "duration": 0.375
        },
        {
          "name": "A4",
          "midi": 69,
          "time": 261.75,
          "velocity": 1,
          "duration": 0.375
        },
        {
          "name": "A2",
          "midi": 45,
          "time": 262.125,
          "velocity": 1,
          "duration": 1.5
        },
        {
          "name": "E3",
          "midi": 52,
          "time": 262.125,
          "velocity": 1,
          "duration": 1.5
        },
        {
          "name": "A3",
          "midi": 57,
          "time": 262.125,
          "velocity": 1,
          "duration": 1.875
        },
        {
          "name": "E4",
          "midi": 64,
          "time": 262.125,
          "velocity": 1,
          "duration": 1.5
        },
        {
          "name": "A4",
          "midi": 69,
          "time": 262.125,
          "velocity": 1,
          "duration": 1.5
        },
        {
          "name": "A2",
          "midi": 45,
          "time": 263.625,
          "velocity": 1,
          "duration": 0.375
        },
        {
          "name": "E3",
          "midi": 52,
          "time": 263.625,
          "velocity": 1,
          "duration": 0.375
        },
        {
          "name": "A3",
          "midi": 57,
          "time": 263.625,
          "velocity": 1,
          "duration": 0.5625
        },
        {
          "name": "E4",
          "midi": 64,
          "time": 263.625,
          "velocity": 1,
          "duration": 0.375
        },
        {
          "name": "A4",
          "midi": 69,
          "time": 263.625,
          "velocity": 1,
          "duration": 0.375
        },
        {
          "name": "A2",
          "midi": 45,
          "time": 264,
          "velocity": 1,
          "duration": 0.1875
        },
        {
          "name": "E3",
          "midi": 52,
          "time": 264,
          "velocity": 1,
          "duration": 0.1875
        },
        {
          "name": "A3",
          "midi": 57,
          "time": 264,
          "velocity": 1,
          "duration": 0.375
        },
        {
          "name": "E4",
          "midi": 64,
          "time": 264,
          "velocity": 1,
          "duration": 0.1875
        },
        {
          "name": "A4",
          "midi": 69,
          "time": 264,
          "velocity": 1,
          "duration": 0.1875
        },
        {
          "name": "A2",
          "midi": 45,
          "time": 264.1875,
          "velocity": 1,
          "duration": 0.1875
        },
        {
          "name": "E3",
          "midi": 52,
          "time": 264.1875,
          "velocity": 1,
          "duration": 0.1875
        },
        {
          "name": "A3",
          "midi": 57,
          "time": 264.1875,
          "velocity": 1,
          "duration": 1.5
        },
        {
          "name": "E4",
          "midi": 64,
          "time": 264.1875,
          "velocity": 1,
          "duration": 56.4375
        },
        {
          "name": "A4",
          "midi": 69,
          "time": 264.1875,
          "velocity": 1,
          "duration": 0.1875
        },
        {
          "name": "D3",
          "midi": 50,
          "time": 264.375,
          "velocity": 1,
          "duration": 0.1875
        },
        {
          "name": "D4",
          "midi": 62,
          "time": 264.375,
          "velocity": 1,
          "duration": 0.375
        },
        {
          "name": "D3",
          "midi": 50,
          "time": 264.5625,
          "velocity": 1,
          "duration": 0.1875
        },
        {
          "name": "D4",
          "midi": 62,
          "time": 264.5625,
          "velocity": 1,
          "duration": 0.5625
        },
        {
          "name": "D3",
          "midi": 50,
          "time": 264.75,
          "velocity": 1,
          "duration": 0.75
        },
        {
          "name": "D4",
          "midi": 62,
          "time": 264.75,
          "velocity": 1,
          "duration": 8.8125
        },
        {
          "name": "D3",
          "midi": 50,
          "time": 265.5,
          "velocity": 1,
          "duration": 0.1875
        },
        {
          "name": "A3",
          "midi": 57,
          "time": 265.5,
          "velocity": 1,
          "duration": 0.375
        },
        {
          "name": "D3",
          "midi": 50,
          "time": 265.6875,
          "velocity": 1,
          "duration": 0.1875
        },
        {
          "name": "A3",
          "midi": 57,
          "time": 265.6875,
          "velocity": 1,
          "duration": 0.5625
        },
        {
          "name": "D3",
          "midi": 50,
          "time": 265.875,
          "velocity": 1,
          "duration": 0.75
        },
        {
          "name": "A3",
          "midi": 57,
          "time": 265.875,
          "velocity": 1,
          "duration": 8.8125
        },
        {
          "name": "D2",
          "midi": 38,
          "time": 266.25,
          "velocity": 1,
          "duration": 1.125
        },
        {
          "name": "D3",
          "midi": 50,
          "time": 266.625,
          "velocity": 1,
          "duration": 0.1875
        },
        {
          "name": "A#3",
          "midi": 58,
          "time": 266.625,
          "velocity": 1,
          "duration": 0.1875
        },
        {
          "name": "D3",
          "midi": 50,
          "time": 266.8125,
          "velocity": 1,
          "duration": 0.1875
        },
        {
          "name": "A#3",
          "midi": 58,
          "time": 266.8125,
          "velocity": 1,
          "duration": 0.1875
        },
        {
          "name": "D3",
          "midi": 50,
          "time": 267,
          "velocity": 1,
          "duration": 0.75
        },
        {
          "name": "A#3",
          "midi": 58,
          "time": 267,
          "velocity": 1,
          "duration": 0.375
        },
        {
          "name": "D3",
          "midi": 50,
          "time": 267.75,
          "velocity": 1,
          "duration": 0.1875
        },
        {
          "name": "A#3",
          "midi": 58,
          "time": 267.75,
          "velocity": 1,
          "duration": 0.1875
        },
        {
          "name": "D3",
          "midi": 50,
          "time": 267.9375,
          "velocity": 1,
          "duration": 0.1875
        },
        {
          "name": "A#3",
          "midi": 58,
          "time": 267.9375,
          "velocity": 1,
          "duration": 0.1875
        },
        {
          "name": "D3",
          "midi": 50,
          "time": 268.125,
          "velocity": 1,
          "duration": 0.75
        },
        {
          "name": "A#3",
          "midi": 58,
          "time": 268.125,
          "velocity": 1,
          "duration": 0.375
        },
        {
          "name": "D2",
          "midi": 38,
          "time": 268.5,
          "velocity": 1,
          "duration": 1.125
        },
        {
          "name": "D3",
          "midi": 50,
          "time": 268.875,
          "velocity": 1,
          "duration": 0.1875
        },
        {
          "name": "B3",
          "midi": 59,
          "time": 268.875,
          "velocity": 1,
          "duration": 0.1875
        },
        {
          "name": "D3",
          "midi": 50,
          "time": 269.0625,
          "velocity": 1,
          "duration": 0.1875
        },
        {
          "name": "B3",
          "midi": 59,
          "time": 269.0625,
          "velocity": 1,
          "duration": 0.1875
        },
        {
          "name": "D3",
          "midi": 50,
          "time": 269.25,
          "velocity": 1,
          "duration": 0.75
        },
        {
          "name": "B3",
          "midi": 59,
          "time": 269.25,
          "velocity": 1,
          "duration": 0.375
        },
        {
          "name": "D3",
          "midi": 50,
          "time": 270,
          "velocity": 1,
          "duration": 0.1875
        },
        {
          "name": "B3",
          "midi": 59,
          "time": 270,
          "velocity": 1,
          "duration": 0.1875
        },
        {
          "name": "D3",
          "midi": 50,
          "time": 270.1875,
          "velocity": 1,
          "duration": 0.1875
        },
        {
          "name": "B3",
          "midi": 59,
          "time": 270.1875,
          "velocity": 1,
          "duration": 0.1875
        },
        {
          "name": "D3",
          "midi": 50,
          "time": 270.375,
          "velocity": 1,
          "duration": 0.75
        },
        {
          "name": "B3",
          "midi": 59,
          "time": 270.375,
          "velocity": 1,
          "duration": 0.375
        },
        {
          "name": "D2",
          "midi": 38,
          "time": 270.75,
          "velocity": 1,
          "duration": 1.125
        },
        {
          "name": "D3",
          "midi": 50,
          "time": 271.125,
          "velocity": 1,
          "duration": 0.1875
        },
        {
          "name": "C4",
          "midi": 60,
          "time": 271.125,
          "velocity": 1,
          "duration": 0.1875
        },
        {
          "name": "D3",
          "midi": 50,
          "time": 271.3125,
          "velocity": 1,
          "duration": 0.1875
        },
        {
          "name": "C4",
          "midi": 60,
          "time": 271.3125,
          "velocity": 1,
          "duration": 0.1875
        },
        {
          "name": "D3",
          "midi": 50,
          "time": 271.5,
          "velocity": 1,
          "duration": 0.75
        },
        {
          "name": "C4",
          "midi": 60,
          "time": 271.5,
          "velocity": 1,
          "duration": 0.375
        },
        {
          "name": "D3",
          "midi": 50,
          "time": 272.25,
          "velocity": 1,
          "duration": 0.1875
        },
        {
          "name": "C4",
          "midi": 60,
          "time": 272.25,
          "velocity": 1,
          "duration": 0.1875
        },
        {
          "name": "D3",
          "midi": 50,
          "time": 272.4375,
          "velocity": 1,
          "duration": 0.1875
        },
        {
          "name": "C4",
          "midi": 60,
          "time": 272.4375,
          "velocity": 1,
          "duration": 0.1875
        },
        {
          "name": "D3",
          "midi": 50,
          "time": 272.625,
          "velocity": 1,
          "duration": 0.75
        },
        {
          "name": "C4",
          "midi": 60,
          "time": 272.625,
          "velocity": 1,
          "duration": 0.375
        },
        {
          "name": "D2",
          "midi": 38,
          "time": 273,
          "velocity": 1,
          "duration": 1.125
        },
        {
          "name": "D3",
          "midi": 50,
          "time": 273.375,
          "velocity": 1,
          "duration": 0.1875
        },
        {
          "name": "D4",
          "midi": 62,
          "time": 273.375,
          "velocity": 1,
          "duration": 0.375
        },
        {
          "name": "D3",
          "midi": 50,
          "time": 273.5625,
          "velocity": 1,
          "duration": 0.1875
        },
        {
          "name": "D4",
          "midi": 62,
          "time": 273.5625,
          "velocity": 1,
          "duration": 0.5625
        },
        {
          "name": "D3",
          "midi": 50,
          "time": 273.75,
          "velocity": 1,
          "duration": 0.75
        },
        {
          "name": "D4",
          "midi": 62,
          "time": 273.75,
          "velocity": 1,
          "duration": 8.8125
        },
        {
          "name": "D3",
          "midi": 50,
          "time": 274.5,
          "velocity": 1,
          "duration": 0.1875
        },
        {
          "name": "A3",
          "midi": 57,
          "time": 274.5,
          "velocity": 1,
          "duration": 0.375
        },
        {
          "name": "D3",
          "midi": 50,
          "time": 274.6875,
          "velocity": 1,
          "duration": 0.1875
        },
        {
          "name": "A3",
          "midi": 57,
          "time": 274.6875,
          "velocity": 1,
          "duration": 0.5625
        },
        {
          "name": "D3",
          "midi": 50,
          "time": 274.875,
          "velocity": 1,
          "duration": 0.75
        },
        {
          "name": "A3",
          "midi": 57,
          "time": 274.875,
          "velocity": 1,
          "duration": 8.8125
        },
        {
          "name": "D2",
          "midi": 38,
          "time": 275.25,
          "velocity": 1,
          "duration": 1.125
        },
        {
          "name": "D3",
          "midi": 50,
          "time": 275.625,
          "velocity": 1,
          "duration": 0.1875
        },
        {
          "name": "A#3",
          "midi": 58,
          "time": 275.625,
          "velocity": 1,
          "duration": 0.1875
        },
        {
          "name": "D3",
          "midi": 50,
          "time": 275.8125,
          "velocity": 1,
          "duration": 0.1875
        },
        {
          "name": "A#3",
          "midi": 58,
          "time": 275.8125,
          "velocity": 1,
          "duration": 0.1875
        },
        {
          "name": "D3",
          "midi": 50,
          "time": 276,
          "velocity": 1,
          "duration": 0.75
        },
        {
          "name": "A#3",
          "midi": 58,
          "time": 276,
          "velocity": 1,
          "duration": 0.375
        },
        {
          "name": "D3",
          "midi": 50,
          "time": 276.75,
          "velocity": 1,
          "duration": 0.1875
        },
        {
          "name": "A#3",
          "midi": 58,
          "time": 276.75,
          "velocity": 1,
          "duration": 0.1875
        },
        {
          "name": "D3",
          "midi": 50,
          "time": 276.9375,
          "velocity": 1,
          "duration": 0.1875
        },
        {
          "name": "A#3",
          "midi": 58,
          "time": 276.9375,
          "velocity": 1,
          "duration": 0.1875
        },
        {
          "name": "D3",
          "midi": 50,
          "time": 277.125,
          "velocity": 1,
          "duration": 0.75
        },
        {
          "name": "A#3",
          "midi": 58,
          "time": 277.125,
          "velocity": 1,
          "duration": 0.375
        },
        {
          "name": "D2",
          "midi": 38,
          "time": 277.5,
          "velocity": 1,
          "duration": 1.125
        },
        {
          "name": "D3",
          "midi": 50,
          "time": 277.875,
          "velocity": 1,
          "duration": 0.1875
        },
        {
          "name": "B3",
          "midi": 59,
          "time": 277.875,
          "velocity": 1,
          "duration": 0.1875
        },
        {
          "name": "D3",
          "midi": 50,
          "time": 278.0625,
          "velocity": 1,
          "duration": 0.1875
        },
        {
          "name": "B3",
          "midi": 59,
          "time": 278.0625,
          "velocity": 1,
          "duration": 0.1875
        },
        {
          "name": "D3",
          "midi": 50,
          "time": 278.25,
          "velocity": 1,
          "duration": 0.75
        },
        {
          "name": "B3",
          "midi": 59,
          "time": 278.25,
          "velocity": 1,
          "duration": 0.375
        },
        {
          "name": "D3",
          "midi": 50,
          "time": 279,
          "velocity": 1,
          "duration": 0.1875
        },
        {
          "name": "B3",
          "midi": 59,
          "time": 279,
          "velocity": 1,
          "duration": 0.1875
        },
        {
          "name": "D3",
          "midi": 50,
          "time": 279.1875,
          "velocity": 1,
          "duration": 0.1875
        },
        {
          "name": "B3",
          "midi": 59,
          "time": 279.1875,
          "velocity": 1,
          "duration": 0.1875
        },
        {
          "name": "D3",
          "midi": 50,
          "time": 279.375,
          "velocity": 1,
          "duration": 0.75
        },
        {
          "name": "B3",
          "midi": 59,
          "time": 279.375,
          "velocity": 1,
          "duration": 0.375
        },
        {
          "name": "D2",
          "midi": 38,
          "time": 279.75,
          "velocity": 1,
          "duration": 1.125
        },
        {
          "name": "D3",
          "midi": 50,
          "time": 280.125,
          "velocity": 1,
          "duration": 0.1875
        },
        {
          "name": "C4",
          "midi": 60,
          "time": 280.125,
          "velocity": 1,
          "duration": 0.1875
        },
        {
          "name": "D3",
          "midi": 50,
          "time": 280.3125,
          "velocity": 1,
          "duration": 0.1875
        },
        {
          "name": "C4",
          "midi": 60,
          "time": 280.3125,
          "velocity": 1,
          "duration": 0.1875
        },
        {
          "name": "D3",
          "midi": 50,
          "time": 280.5,
          "velocity": 1,
          "duration": 0.75
        },
        {
          "name": "C4",
          "midi": 60,
          "time": 280.5,
          "velocity": 1,
          "duration": 0.375
        },
        {
          "name": "D3",
          "midi": 50,
          "time": 281.25,
          "velocity": 1,
          "duration": 0.1875
        },
        {
          "name": "C4",
          "midi": 60,
          "time": 281.25,
          "velocity": 1,
          "duration": 0.1875
        },
        {
          "name": "D3",
          "midi": 50,
          "time": 281.4375,
          "velocity": 1,
          "duration": 0.1875
        },
        {
          "name": "C4",
          "midi": 60,
          "time": 281.4375,
          "velocity": 1,
          "duration": 0.1875
        },
        {
          "name": "D3",
          "midi": 50,
          "time": 281.625,
          "velocity": 1,
          "duration": 0.75
        },
        {
          "name": "C4",
          "midi": 60,
          "time": 281.625,
          "velocity": 1,
          "duration": 0.375
        },
        {
          "name": "D2",
          "midi": 38,
          "time": 282,
          "velocity": 1,
          "duration": 1.125
        },
        {
          "name": "D3",
          "midi": 50,
          "time": 282.375,
          "velocity": 1,
          "duration": 0.1875
        },
        {
          "name": "D4",
          "midi": 62,
          "time": 282.375,
          "velocity": 1,
          "duration": 0.375
        },
        {
          "name": "D3",
          "midi": 50,
          "time": 282.5625,
          "velocity": 1,
          "duration": 0.1875
        },
        {
          "name": "D4",
          "midi": 62,
          "time": 282.5625,
          "velocity": 1,
          "duration": 0.5625
        },
        {
          "name": "D3",
          "midi": 50,
          "time": 282.75,
          "velocity": 1,
          "duration": 0.75
        },
        {
          "name": "D4",
          "midi": 62,
          "time": 282.75,
          "velocity": 1,
          "duration": 8.8125
        },
        {
          "name": "D3",
          "midi": 50,
          "time": 283.5,
          "velocity": 1,
          "duration": 0.1875
        },
        {
          "name": "A3",
          "midi": 57,
          "time": 283.5,
          "velocity": 1,
          "duration": 0.375
        },
        {
          "name": "D3",
          "midi": 50,
          "time": 283.6875,
          "velocity": 1,
          "duration": 0.1875
        },
        {
          "name": "A3",
          "midi": 57,
          "time": 283.6875,
          "velocity": 1,
          "duration": 0.5625
        },
        {
          "name": "D3",
          "midi": 50,
          "time": 283.875,
          "velocity": 1,
          "duration": 0.75
        },
        {
          "name": "A3",
          "midi": 57,
          "time": 283.875,
          "velocity": 1,
          "duration": 8.8125
        },
        {
          "name": "D2",
          "midi": 38,
          "time": 284.25,
          "velocity": 1,
          "duration": 1.125
        },
        {
          "name": "D3",
          "midi": 50,
          "time": 284.625,
          "velocity": 1,
          "duration": 0.1875
        },
        {
          "name": "A#3",
          "midi": 58,
          "time": 284.625,
          "velocity": 1,
          "duration": 0.1875
        },
        {
          "name": "D3",
          "midi": 50,
          "time": 284.8125,
          "velocity": 1,
          "duration": 0.1875
        },
        {
          "name": "A#3",
          "midi": 58,
          "time": 284.8125,
          "velocity": 1,
          "duration": 0.1875
        },
        {
          "name": "D3",
          "midi": 50,
          "time": 285,
          "velocity": 1,
          "duration": 0.75
        },
        {
          "name": "A#3",
          "midi": 58,
          "time": 285,
          "velocity": 1,
          "duration": 0.375
        },
        {
          "name": "D3",
          "midi": 50,
          "time": 285.75,
          "velocity": 1,
          "duration": 0.1875
        },
        {
          "name": "A#3",
          "midi": 58,
          "time": 285.75,
          "velocity": 1,
          "duration": 0.1875
        },
        {
          "name": "D3",
          "midi": 50,
          "time": 285.9375,
          "velocity": 1,
          "duration": 0.1875
        },
        {
          "name": "A#3",
          "midi": 58,
          "time": 285.9375,
          "velocity": 1,
          "duration": 0.1875
        },
        {
          "name": "D3",
          "midi": 50,
          "time": 286.125,
          "velocity": 1,
          "duration": 0.75
        },
        {
          "name": "A#3",
          "midi": 58,
          "time": 286.125,
          "velocity": 1,
          "duration": 0.375
        },
        {
          "name": "D2",
          "midi": 38,
          "time": 286.5,
          "velocity": 1,
          "duration": 1.125
        },
        {
          "name": "D3",
          "midi": 50,
          "time": 286.875,
          "velocity": 1,
          "duration": 0.1875
        },
        {
          "name": "B3",
          "midi": 59,
          "time": 286.875,
          "velocity": 1,
          "duration": 0.1875
        },
        {
          "name": "D3",
          "midi": 50,
          "time": 287.0625,
          "velocity": 1,
          "duration": 0.1875
        },
        {
          "name": "B3",
          "midi": 59,
          "time": 287.0625,
          "velocity": 1,
          "duration": 0.1875
        },
        {
          "name": "D3",
          "midi": 50,
          "time": 287.25,
          "velocity": 1,
          "duration": 0.75
        },
        {
          "name": "B3",
          "midi": 59,
          "time": 287.25,
          "velocity": 1,
          "duration": 0.375
        },
        {
          "name": "D3",
          "midi": 50,
          "time": 288,
          "velocity": 1,
          "duration": 0.1875
        },
        {
          "name": "B3",
          "midi": 59,
          "time": 288,
          "velocity": 1,
          "duration": 0.1875
        },
        {
          "name": "D3",
          "midi": 50,
          "time": 288.1875,
          "velocity": 1,
          "duration": 0.1875
        },
        {
          "name": "B3",
          "midi": 59,
          "time": 288.1875,
          "velocity": 1,
          "duration": 0.1875
        },
        {
          "name": "D3",
          "midi": 50,
          "time": 288.375,
          "velocity": 1,
          "duration": 0.75
        },
        {
          "name": "B3",
          "midi": 59,
          "time": 288.375,
          "velocity": 1,
          "duration": 0.375
        },
        {
          "name": "D2",
          "midi": 38,
          "time": 288.75,
          "velocity": 1,
          "duration": 1.125
        },
        {
          "name": "D3",
          "midi": 50,
          "time": 289.125,
          "velocity": 1,
          "duration": 0.1875
        },
        {
          "name": "C4",
          "midi": 60,
          "time": 289.125,
          "velocity": 1,
          "duration": 0.1875
        },
        {
          "name": "D3",
          "midi": 50,
          "time": 289.3125,
          "velocity": 1,
          "duration": 0.1875
        },
        {
          "name": "C4",
          "midi": 60,
          "time": 289.3125,
          "velocity": 1,
          "duration": 0.1875
        },
        {
          "name": "D3",
          "midi": 50,
          "time": 289.5,
          "velocity": 1,
          "duration": 0.75
        },
        {
          "name": "C4",
          "midi": 60,
          "time": 289.5,
          "velocity": 1,
          "duration": 0.375
        },
        {
          "name": "D3",
          "midi": 50,
          "time": 290.25,
          "velocity": 1,
          "duration": 0.1875
        },
        {
          "name": "C4",
          "midi": 60,
          "time": 290.25,
          "velocity": 1,
          "duration": 0.1875
        },
        {
          "name": "D3",
          "midi": 50,
          "time": 290.4375,
          "velocity": 1,
          "duration": 0.1875
        },
        {
          "name": "C4",
          "midi": 60,
          "time": 290.4375,
          "velocity": 1,
          "duration": 0.1875
        },
        {
          "name": "D3",
          "midi": 50,
          "time": 290.625,
          "velocity": 1,
          "duration": 0.75
        },
        {
          "name": "C4",
          "midi": 60,
          "time": 290.625,
          "velocity": 1,
          "duration": 0.375
        },
        {
          "name": "D2",
          "midi": 38,
          "time": 291,
          "velocity": 1,
          "duration": 1.125
        },
        {
          "name": "D3",
          "midi": 50,
          "time": 291.375,
          "velocity": 1,
          "duration": 0.1875
        },
        {
          "name": "D4",
          "midi": 62,
          "time": 291.375,
          "velocity": 1,
          "duration": 0.375
        },
        {
          "name": "D3",
          "midi": 50,
          "time": 291.5625,
          "velocity": 1,
          "duration": 0.1875
        },
        {
          "name": "D4",
          "midi": 62,
          "time": 291.5625,
          "velocity": 1,
          "duration": 0.5625
        },
        {
          "name": "D3",
          "midi": 50,
          "time": 291.75,
          "velocity": 1,
          "duration": 0.75
        },
        {
          "name": "D4",
          "midi": 62,
          "time": 291.75,
          "velocity": 1,
          "duration": 8.8125
        },
        {
          "name": "D3",
          "midi": 50,
          "time": 292.5,
          "velocity": 1,
          "duration": 0.1875
        },
        {
          "name": "A3",
          "midi": 57,
          "time": 292.5,
          "velocity": 1,
          "duration": 0.375
        },
        {
          "name": "D3",
          "midi": 50,
          "time": 292.6875,
          "velocity": 1,
          "duration": 0.1875
        },
        {
          "name": "A3",
          "midi": 57,
          "time": 292.6875,
          "velocity": 1,
          "duration": 0.5625
        },
        {
          "name": "D3",
          "midi": 50,
          "time": 292.875,
          "velocity": 1,
          "duration": 0.75
        },
        {
          "name": "A3",
          "midi": 57,
          "time": 292.875,
          "velocity": 1,
          "duration": 8.8125
        },
        {
          "name": "D2",
          "midi": 38,
          "time": 293.25,
          "velocity": 1,
          "duration": 1.125
        },
        {
          "name": "D3",
          "midi": 50,
          "time": 293.625,
          "velocity": 1,
          "duration": 0.1875
        },
        {
          "name": "A#3",
          "midi": 58,
          "time": 293.625,
          "velocity": 1,
          "duration": 0.1875
        },
        {
          "name": "D3",
          "midi": 50,
          "time": 293.8125,
          "velocity": 1,
          "duration": 0.1875
        },
        {
          "name": "A#3",
          "midi": 58,
          "time": 293.8125,
          "velocity": 1,
          "duration": 0.1875
        },
        {
          "name": "D3",
          "midi": 50,
          "time": 294,
          "velocity": 1,
          "duration": 0.75
        },
        {
          "name": "A#3",
          "midi": 58,
          "time": 294,
          "velocity": 1,
          "duration": 0.375
        },
        {
          "name": "D3",
          "midi": 50,
          "time": 294.75,
          "velocity": 1,
          "duration": 0.1875
        },
        {
          "name": "A#3",
          "midi": 58,
          "time": 294.75,
          "velocity": 1,
          "duration": 0.1875
        },
        {
          "name": "D3",
          "midi": 50,
          "time": 294.9375,
          "velocity": 1,
          "duration": 0.1875
        },
        {
          "name": "A#3",
          "midi": 58,
          "time": 294.9375,
          "velocity": 1,
          "duration": 0.1875
        },
        {
          "name": "D3",
          "midi": 50,
          "time": 295.125,
          "velocity": 1,
          "duration": 0.75
        },
        {
          "name": "A#3",
          "midi": 58,
          "time": 295.125,
          "velocity": 1,
          "duration": 0.375
        },
        {
          "name": "D2",
          "midi": 38,
          "time": 295.5,
          "velocity": 1,
          "duration": 1.125
        },
        {
          "name": "D3",
          "midi": 50,
          "time": 295.875,
          "velocity": 1,
          "duration": 0.1875
        },
        {
          "name": "B3",
          "midi": 59,
          "time": 295.875,
          "velocity": 1,
          "duration": 0.1875
        },
        {
          "name": "D3",
          "midi": 50,
          "time": 296.0625,
          "velocity": 1,
          "duration": 0.1875
        },
        {
          "name": "B3",
          "midi": 59,
          "time": 296.0625,
          "velocity": 1,
          "duration": 0.1875
        },
        {
          "name": "D3",
          "midi": 50,
          "time": 296.25,
          "velocity": 1,
          "duration": 0.75
        },
        {
          "name": "B3",
          "midi": 59,
          "time": 296.25,
          "velocity": 1,
          "duration": 0.375
        },
        {
          "name": "D3",
          "midi": 50,
          "time": 297,
          "velocity": 1,
          "duration": 0.1875
        },
        {
          "name": "B3",
          "midi": 59,
          "time": 297,
          "velocity": 1,
          "duration": 0.1875
        },
        {
          "name": "D3",
          "midi": 50,
          "time": 297.1875,
          "velocity": 1,
          "duration": 0.1875
        },
        {
          "name": "B3",
          "midi": 59,
          "time": 297.1875,
          "velocity": 1,
          "duration": 0.1875
        },
        {
          "name": "D3",
          "midi": 50,
          "time": 297.375,
          "velocity": 1,
          "duration": 0.75
        },
        {
          "name": "B3",
          "midi": 59,
          "time": 297.375,
          "velocity": 1,
          "duration": 0.375
        },
        {
          "name": "D2",
          "midi": 38,
          "time": 297.75,
          "velocity": 1,
          "duration": 1.125
        },
        {
          "name": "D3",
          "midi": 50,
          "time": 298.125,
          "velocity": 1,
          "duration": 0.1875
        },
        {
          "name": "C4",
          "midi": 60,
          "time": 298.125,
          "velocity": 1,
          "duration": 0.1875
        },
        {
          "name": "D3",
          "midi": 50,
          "time": 298.3125,
          "velocity": 1,
          "duration": 0.1875
        },
        {
          "name": "C4",
          "midi": 60,
          "time": 298.3125,
          "velocity": 1,
          "duration": 0.1875
        },
        {
          "name": "D3",
          "midi": 50,
          "time": 298.5,
          "velocity": 1,
          "duration": 0.75
        },
        {
          "name": "C4",
          "midi": 60,
          "time": 298.5,
          "velocity": 1,
          "duration": 0.375
        },
        {
          "name": "D3",
          "midi": 50,
          "time": 299.25,
          "velocity": 1,
          "duration": 0.1875
        },
        {
          "name": "C4",
          "midi": 60,
          "time": 299.25,
          "velocity": 1,
          "duration": 0.1875
        },
        {
          "name": "D3",
          "midi": 50,
          "time": 299.4375,
          "velocity": 1,
          "duration": 0.1875
        },
        {
          "name": "C4",
          "midi": 60,
          "time": 299.4375,
          "velocity": 1,
          "duration": 0.1875
        },
        {
          "name": "D3",
          "midi": 50,
          "time": 299.625,
          "velocity": 1,
          "duration": 0.75
        },
        {
          "name": "C4",
          "midi": 60,
          "time": 299.625,
          "velocity": 1,
          "duration": 0.375
        },
        {
          "name": "D2",
          "midi": 38,
          "time": 300,
          "velocity": 1,
          "duration": 1.125
        },
        {
          "name": "D3",
          "midi": 50,
          "time": 300.375,
          "velocity": 1,
          "duration": 0.1875
        },
        {
          "name": "D4",
          "midi": 62,
          "time": 300.375,
          "velocity": 1,
          "duration": 0.375
        },
        {
          "name": "D3",
          "midi": 50,
          "time": 300.5625,
          "velocity": 1,
          "duration": 0.1875
        },
        {
          "name": "D4",
          "midi": 62,
          "time": 300.5625,
          "velocity": 1,
          "duration": 0.5625
        },
        {
          "name": "D3",
          "midi": 50,
          "time": 300.75,
          "velocity": 1,
          "duration": 0.75
        },
        {
          "name": "D4",
          "midi": 62,
          "time": 300.75,
          "velocity": 1,
          "duration": 8.8125
        },
        {
          "name": "D3",
          "midi": 50,
          "time": 301.5,
          "velocity": 1,
          "duration": 0.1875
        },
        {
          "name": "A3",
          "midi": 57,
          "time": 301.5,
          "velocity": 1,
          "duration": 0.375
        },
        {
          "name": "D3",
          "midi": 50,
          "time": 301.6875,
          "velocity": 1,
          "duration": 0.1875
        },
        {
          "name": "A3",
          "midi": 57,
          "time": 301.6875,
          "velocity": 1,
          "duration": 0.5625
        },
        {
          "name": "D3",
          "midi": 50,
          "time": 301.875,
          "velocity": 1,
          "duration": 0.75
        },
        {
          "name": "A3",
          "midi": 57,
          "time": 301.875,
          "velocity": 1,
          "duration": 8.8125
        },
        {
          "name": "D2",
          "midi": 38,
          "time": 302.25,
          "velocity": 1,
          "duration": 1.125
        },
        {
          "name": "D3",
          "midi": 50,
          "time": 302.625,
          "velocity": 1,
          "duration": 0.1875
        },
        {
          "name": "A#3",
          "midi": 58,
          "time": 302.625,
          "velocity": 1,
          "duration": 0.1875
        },
        {
          "name": "D3",
          "midi": 50,
          "time": 302.8125,
          "velocity": 1,
          "duration": 0.1875
        },
        {
          "name": "A#3",
          "midi": 58,
          "time": 302.8125,
          "velocity": 1,
          "duration": 0.1875
        },
        {
          "name": "D3",
          "midi": 50,
          "time": 303,
          "velocity": 1,
          "duration": 0.75
        },
        {
          "name": "A#3",
          "midi": 58,
          "time": 303,
          "velocity": 1,
          "duration": 0.375
        },
        {
          "name": "D3",
          "midi": 50,
          "time": 303.75,
          "velocity": 1,
          "duration": 0.1875
        },
        {
          "name": "A#3",
          "midi": 58,
          "time": 303.75,
          "velocity": 1,
          "duration": 0.1875
        },
        {
          "name": "D3",
          "midi": 50,
          "time": 303.9375,
          "velocity": 1,
          "duration": 0.1875
        },
        {
          "name": "A#3",
          "midi": 58,
          "time": 303.9375,
          "velocity": 1,
          "duration": 0.1875
        },
        {
          "name": "D3",
          "midi": 50,
          "time": 304.125,
          "velocity": 1,
          "duration": 0.75
        },
        {
          "name": "A#3",
          "midi": 58,
          "time": 304.125,
          "velocity": 1,
          "duration": 0.375
        },
        {
          "name": "D2",
          "midi": 38,
          "time": 304.5,
          "velocity": 1,
          "duration": 1.125
        },
        {
          "name": "D3",
          "midi": 50,
          "time": 304.875,
          "velocity": 1,
          "duration": 0.1875
        },
        {
          "name": "B3",
          "midi": 59,
          "time": 304.875,
          "velocity": 1,
          "duration": 0.1875
        },
        {
          "name": "D3",
          "midi": 50,
          "time": 305.0625,
          "velocity": 1,
          "duration": 0.1875
        },
        {
          "name": "B3",
          "midi": 59,
          "time": 305.0625,
          "velocity": 1,
          "duration": 0.1875
        },
        {
          "name": "D3",
          "midi": 50,
          "time": 305.25,
          "velocity": 1,
          "duration": 0.75
        },
        {
          "name": "B3",
          "midi": 59,
          "time": 305.25,
          "velocity": 1,
          "duration": 0.375
        },
        {
          "name": "D3",
          "midi": 50,
          "time": 306,
          "velocity": 1,
          "duration": 0.1875
        },
        {
          "name": "B3",
          "midi": 59,
          "time": 306,
          "velocity": 1,
          "duration": 0.1875
        },
        {
          "name": "D3",
          "midi": 50,
          "time": 306.1875,
          "velocity": 1,
          "duration": 0.1875
        },
        {
          "name": "B3",
          "midi": 59,
          "time": 306.1875,
          "velocity": 1,
          "duration": 0.1875
        },
        {
          "name": "D3",
          "midi": 50,
          "time": 306.375,
          "velocity": 1,
          "duration": 0.75
        },
        {
          "name": "B3",
          "midi": 59,
          "time": 306.375,
          "velocity": 1,
          "duration": 0.375
        },
        {
          "name": "D2",
          "midi": 38,
          "time": 306.75,
          "velocity": 1,
          "duration": 1.125
        },
        {
          "name": "D3",
          "midi": 50,
          "time": 307.125,
          "velocity": 1,
          "duration": 0.1875
        },
        {
          "name": "C4",
          "midi": 60,
          "time": 307.125,
          "velocity": 1,
          "duration": 0.1875
        },
        {
          "name": "D3",
          "midi": 50,
          "time": 307.3125,
          "velocity": 1,
          "duration": 0.1875
        },
        {
          "name": "C4",
          "midi": 60,
          "time": 307.3125,
          "velocity": 1,
          "duration": 0.1875
        },
        {
          "name": "D3",
          "midi": 50,
          "time": 307.5,
          "velocity": 1,
          "duration": 0.75
        },
        {
          "name": "C4",
          "midi": 60,
          "time": 307.5,
          "velocity": 1,
          "duration": 0.375
        },
        {
          "name": "D3",
          "midi": 50,
          "time": 308.25,
          "velocity": 1,
          "duration": 0.1875
        },
        {
          "name": "C4",
          "midi": 60,
          "time": 308.25,
          "velocity": 1,
          "duration": 0.1875
        },
        {
          "name": "D3",
          "midi": 50,
          "time": 308.4375,
          "velocity": 1,
          "duration": 0.1875
        },
        {
          "name": "C4",
          "midi": 60,
          "time": 308.4375,
          "velocity": 1,
          "duration": 0.1875
        },
        {
          "name": "D3",
          "midi": 50,
          "time": 308.625,
          "velocity": 1,
          "duration": 0.75
        },
        {
          "name": "C4",
          "midi": 60,
          "time": 308.625,
          "velocity": 1,
          "duration": 0.375
        },
        {
          "name": "D2",
          "midi": 38,
          "time": 309,
          "velocity": 1,
          "duration": 1.125
        },
        {
          "name": "D3",
          "midi": 50,
          "time": 309.375,
          "velocity": 1,
          "duration": 0.1875
        },
        {
          "name": "D4",
          "midi": 62,
          "time": 309.375,
          "velocity": 1,
          "duration": 0.375
        },
        {
          "name": "D3",
          "midi": 50,
          "time": 309.5625,
          "velocity": 1,
          "duration": 0.1875
        },
        {
          "name": "D4",
          "midi": 62,
          "time": 309.5625,
          "velocity": 1,
          "duration": 0.5625
        },
        {
          "name": "D3",
          "midi": 50,
          "time": 309.75,
          "velocity": 1,
          "duration": 0.75
        },
        {
          "name": "D4",
          "midi": 62,
          "time": 309.75,
          "velocity": 1,
          "duration": 9.1875
        },
        {
          "name": "D3",
          "midi": 50,
          "time": 310.5,
          "velocity": 1,
          "duration": 0.1875
        },
        {
          "name": "A3",
          "midi": 57,
          "time": 310.5,
          "velocity": 1,
          "duration": 0.375
        },
        {
          "name": "D3",
          "midi": 50,
          "time": 310.6875,
          "velocity": 1,
          "duration": 0.1875
        },
        {
          "name": "A3",
          "midi": 57,
          "time": 310.6875,
          "velocity": 1,
          "duration": 0.5625
        },
        {
          "name": "D3",
          "midi": 50,
          "time": 310.875,
          "velocity": 1,
          "duration": 0.75
        },
        {
          "name": "A3",
          "midi": 57,
          "time": 310.875,
          "velocity": 1,
          "duration": 8.0625
        },
        {
          "name": "D2",
          "midi": 38,
          "time": 311.25,
          "velocity": 1,
          "duration": 1.125
        },
        {
          "name": "D3",
          "midi": 50,
          "time": 311.625,
          "velocity": 1,
          "duration": 0.1875
        },
        {
          "name": "A#3",
          "midi": 58,
          "time": 311.625,
          "velocity": 1,
          "duration": 0.1875
        },
        {
          "name": "D3",
          "midi": 50,
          "time": 311.8125,
          "velocity": 1,
          "duration": 0.1875
        },
        {
          "name": "A#3",
          "midi": 58,
          "time": 311.8125,
          "velocity": 1,
          "duration": 0.1875
        },
        {
          "name": "D3",
          "midi": 50,
          "time": 312,
          "velocity": 1,
          "duration": 0.75
        },
        {
          "name": "A#3",
          "midi": 58,
          "time": 312,
          "velocity": 1,
          "duration": 0.375
        },
        {
          "name": "D3",
          "midi": 50,
          "time": 312.75,
          "velocity": 1,
          "duration": 0.1875
        },
        {
          "name": "A#3",
          "midi": 58,
          "time": 312.75,
          "velocity": 1,
          "duration": 0.1875
        },
        {
          "name": "D3",
          "midi": 50,
          "time": 312.9375,
          "velocity": 1,
          "duration": 0.1875
        },
        {
          "name": "A#3",
          "midi": 58,
          "time": 312.9375,
          "velocity": 1,
          "duration": 0.1875
        },
        {
          "name": "D3",
          "midi": 50,
          "time": 313.125,
          "velocity": 1,
          "duration": 0.75
        },
        {
          "name": "A#3",
          "midi": 58,
          "time": 313.125,
          "velocity": 1,
          "duration": 0.375
        },
        {
          "name": "D2",
          "midi": 38,
          "time": 313.5,
          "velocity": 1,
          "duration": 1.125
        },
        {
          "name": "D3",
          "midi": 50,
          "time": 313.875,
          "velocity": 1,
          "duration": 0.1875
        },
        {
          "name": "B3",
          "midi": 59,
          "time": 313.875,
          "velocity": 1,
          "duration": 0.1875
        },
        {
          "name": "D3",
          "midi": 50,
          "time": 314.0625,
          "velocity": 1,
          "duration": 0.1875
        },
        {
          "name": "B3",
          "midi": 59,
          "time": 314.0625,
          "velocity": 1,
          "duration": 0.1875
        },
        {
          "name": "D3",
          "midi": 50,
          "time": 314.25,
          "velocity": 1,
          "duration": 0.75
        },
        {
          "name": "B3",
          "midi": 59,
          "time": 314.25,
          "velocity": 1,
          "duration": 0.375
        },
        {
          "name": "D3",
          "midi": 50,
          "time": 315,
          "velocity": 1,
          "duration": 0.1875
        },
        {
          "name": "B3",
          "midi": 59,
          "time": 315,
          "velocity": 1,
          "duration": 0.1875
        },
        {
          "name": "D3",
          "midi": 50,
          "time": 315.1875,
          "velocity": 1,
          "duration": 0.1875
        },
        {
          "name": "B3",
          "midi": 59,
          "time": 315.1875,
          "velocity": 1,
          "duration": 0.1875
        },
        {
          "name": "D3",
          "midi": 50,
          "time": 315.375,
          "velocity": 1,
          "duration": 0.75
        },
        {
          "name": "B3",
          "midi": 59,
          "time": 315.375,
          "velocity": 1,
          "duration": 0.375
        },
        {
          "name": "D2",
          "midi": 38,
          "time": 315.75,
          "velocity": 1,
          "duration": 1.125
        },
        {
          "name": "D3",
          "midi": 50,
          "time": 316.125,
          "velocity": 1,
          "duration": 0.1875
        },
        {
          "name": "C4",
          "midi": 60,
          "time": 316.125,
          "velocity": 1,
          "duration": 0.1875
        },
        {
          "name": "D3",
          "midi": 50,
          "time": 316.3125,
          "velocity": 1,
          "duration": 0.1875
        },
        {
          "name": "C4",
          "midi": 60,
          "time": 316.3125,
          "velocity": 1,
          "duration": 0.1875
        },
        {
          "name": "D3",
          "midi": 50,
          "time": 316.5,
          "velocity": 1,
          "duration": 0.75
        },
        {
          "name": "C4",
          "midi": 60,
          "time": 316.5,
          "velocity": 1,
          "duration": 0.375
        },
        {
          "name": "D3",
          "midi": 50,
          "time": 317.25,
          "velocity": 1,
          "duration": 0.1875
        },
        {
          "name": "C4",
          "midi": 60,
          "time": 317.25,
          "velocity": 1,
          "duration": 0.1875
        },
        {
          "name": "D3",
          "midi": 50,
          "time": 317.4375,
          "velocity": 1,
          "duration": 0.1875
        },
        {
          "name": "C4",
          "midi": 60,
          "time": 317.4375,
          "velocity": 1,
          "duration": 0.1875
        },
        {
          "name": "D3",
          "midi": 50,
          "time": 317.625,
          "velocity": 1,
          "duration": 6.75
        },
        {
          "name": "C4",
          "midi": 60,
          "time": 317.625,
          "velocity": 1,
          "duration": 0.375
        },
        {
          "name": "D2",
          "midi": 38,
          "time": 318,
          "velocity": 1,
          "duration": 0.375
        },
        {
          "name": "D4",
          "midi": 62,
          "time": 318.375,
          "velocity": 1,
          "duration": 1.125
        },
        {
          "name": "G4",
          "midi": 67,
          "time": 318.375,
          "velocity": 1,
          "duration": 0.5625
        },
        {
          "name": "A3",
          "midi": 57,
          "time": 318.375,
          "velocity": 1,
          "duration": 1.125
        },
        {
          "name": "D5",
          "midi": 74,
          "time": 318.375,
          "velocity": 1,
          "duration": 0.5625
        },
        {
          "name": "D4",
          "midi": 62,
          "time": 318.9375,
          "velocity": 1,
          "duration": 2.0625
        },
        {
          "name": "F#4",
          "midi": 66,
          "time": 318.9375,
          "velocity": 1,
          "duration": 0.5625
        },
        {
          "name": "A3",
          "midi": 57,
          "time": 318.9375,
          "velocity": 1,
          "duration": 1.125
        },
        {
          "name": "D5",
          "midi": 74,
          "time": 318.9375,
          "velocity": 1,
          "duration": 0.5625
        },
        {
          "name": "C4",
          "midi": 60,
          "time": 319.5,
          "velocity": 1,
          "duration": 0.5625
        },
        {
          "name": "F4",
          "midi": 65,
          "time": 319.5,
          "velocity": 1,
          "duration": 0.5625
        },
        {
          "name": "A3",
          "midi": 57,
          "time": 319.5,
          "velocity": 1,
          "duration": 1.125
        },
        {
          "name": "C5",
          "midi": 72,
          "time": 319.5,
          "velocity": 1,
          "duration": 0.5625
        },
        {
          "name": "C4",
          "midi": 60,
          "time": 320.0625,
          "velocity": 1,
          "duration": 0.5625
        },
        {
          "name": "E4",
          "midi": 64,
          "time": 320.0625,
          "velocity": 1,
          "duration": 6.5625
        },
        {
          "name": "A3",
          "midi": 57,
          "time": 320.0625,
          "velocity": 1,
          "duration": 0.5625
        },
        {
          "name": "C5",
          "midi": 72,
          "time": 320.0625,
          "velocity": 1,
          "duration": 0.5625
        },
        {
          "name": "A3",
          "midi": 57,
          "time": 320.625,
          "velocity": 1,
          "duration": 0.375
        },
        {
          "name": "D4",
          "midi": 62,
          "time": 320.625,
          "velocity": 1,
          "duration": 4.3125
        },
        {
          "name": "A4",
          "midi": 69,
          "time": 320.625,
          "velocity": 1,
          "duration": 0.375
        },
        {
          "name": "A3",
          "midi": 57,
          "time": 321,
          "velocity": 1,
          "duration": 0.9375
        },
        {
          "name": "C#4",
          "midi": 61,
          "time": 321,
          "velocity": 1,
          "duration": 0.375
        },
        {
          "name": "A4",
          "midi": 69,
          "time": 321,
          "velocity": 1,
          "duration": 0.375
        },
        {
          "name": "G3",
          "midi": 55,
          "time": 321.375,
          "velocity": 1,
          "duration": 0.5625
        },
        {
          "name": "C4",
          "midi": 60,
          "time": 321.375,
          "velocity": 1,
          "duration": 0.5625
        },
        {
          "name": "A3",
          "midi": 57,
          "time": 321.375,
          "velocity": 1,
          "duration": 1.125
        },
        {
          "name": "G4",
          "midi": 67,
          "time": 321.375,
          "velocity": 1,
          "duration": 0.5625
        },
        {
          "name": "G3",
          "midi": 55,
          "time": 321.9375,
          "velocity": 1,
          "duration": 0.5625
        },
        {
          "name": "B3",
          "midi": 59,
          "time": 321.9375,
          "velocity": 1,
          "duration": 0.5625
        },
        {
          "name": "A3",
          "midi": 57,
          "time": 321.9375,
          "velocity": 1,
          "duration": 1.125
        },
        {
          "name": "G4",
          "midi": 67,
          "time": 321.9375,
          "velocity": 1,
          "duration": 0.5625
        },
        {
          "name": "F3",
          "midi": 53,
          "time": 322.5,
          "velocity": 1,
          "duration": 0.5625
        },
        {
          "name": "A#3",
          "midi": 58,
          "time": 322.5,
          "velocity": 1,
          "duration": 0.5625
        },
        {
          "name": "A3",
          "midi": 57,
          "time": 322.5,
          "velocity": 1,
          "duration": 0.5625
        },
        {
          "name": "F4",
          "midi": 65,
          "time": 322.5,
          "velocity": 1,
          "duration": 0.5625
        },
        {
          "name": "F3",
          "midi": 53,
          "time": 323.0625,
          "velocity": 1,
          "duration": 0.5625
        },
        {
          "name": "A3",
          "midi": 57,
          "time": 323.0625,
          "velocity": 1,
          "duration": 1.875
        },
        {
          "name": "F4",
          "midi": 65,
          "time": 323.0625,
          "velocity": 1,
          "duration": 0.5625
        },
        {
          "name": "F3",
          "midi": 53,
          "time": 323.625,
          "velocity": 1,
          "duration": 0.1875
        },
        {
          "name": "E3",
          "midi": 52,
          "time": 323.8125,
          "velocity": 1,
          "duration": 0.1875
        },
        {
          "name": "D3",
          "midi": 50,
          "time": 324,
          "velocity": 1,
          "duration": 6.375
        },
        {
          "name": "D4",
          "midi": 62,
          "time": 324.375,
          "velocity": 1,
          "duration": 1.125
        },
        {
          "name": "G4",
          "midi": 67,
          "time": 324.375,
          "velocity": 1,
          "duration": 0.5625
        },
        {
          "name": "A3",
          "midi": 57,
          "time": 324.375,
          "velocity": 1,
          "duration": 1.125
        },
        {
          "name": "D5",
          "midi": 74,
          "time": 324.375,
          "velocity": 1,
          "duration": 0.5625
        },
        {
          "name": "D4",
          "midi": 62,
          "time": 324.9375,
          "velocity": 1,
          "duration": 2.0625
        },
        {
          "name": "F#4",
          "midi": 66,
          "time": 324.9375,
          "velocity": 1,
          "duration": 0.5625
        },
        {
          "name": "A3",
          "midi": 57,
          "time": 324.9375,
          "velocity": 1,
          "duration": 1.125
        },
        {
          "name": "D5",
          "midi": 74,
          "time": 324.9375,
          "velocity": 1,
          "duration": 0.5625
        },
        {
          "name": "C4",
          "midi": 60,
          "time": 325.5,
          "velocity": 1,
          "duration": 0.5625
        },
        {
          "name": "F4",
          "midi": 65,
          "time": 325.5,
          "velocity": 1,
          "duration": 0.5625
        },
        {
          "name": "A3",
          "midi": 57,
          "time": 325.5,
          "velocity": 1,
          "duration": 1.125
        },
        {
          "name": "C5",
          "midi": 72,
          "time": 325.5,
          "velocity": 1,
          "duration": 0.5625
        },
        {
          "name": "C4",
          "midi": 60,
          "time": 326.0625,
          "velocity": 1,
          "duration": 0.5625
        },
        {
          "name": "E4",
          "midi": 64,
          "time": 326.0625,
          "velocity": 1,
          "duration": 48.5625
        },
        {
          "name": "A3",
          "midi": 57,
          "time": 326.0625,
          "velocity": 1,
          "duration": 0.5625
        },
        {
          "name": "C5",
          "midi": 72,
          "time": 326.0625,
          "velocity": 1,
          "duration": 0.5625
        },
        {
          "name": "A3",
          "midi": 57,
          "time": 326.625,
          "velocity": 1,
          "duration": 0.375
        },
        {
          "name": "D4",
          "midi": 62,
          "time": 326.625,
          "velocity": 1,
          "duration": 9.9375
        },
        {
          "name": "A4",
          "midi": 69,
          "time": 326.625,
          "velocity": 1,
          "duration": 0.375
        },
        {
          "name": "A3",
          "midi": 57,
          "time": 327,
          "velocity": 1,
          "duration": 0.9375
        },
        {
          "name": "C#4",
          "midi": 61,
          "time": 327,
          "velocity": 1,
          "duration": 0.375
        },
        {
          "name": "A4",
          "midi": 69,
          "time": 327,
          "velocity": 1,
          "duration": 0.375
        },
        {
          "name": "G3",
          "midi": 55,
          "time": 327.375,
          "velocity": 1,
          "duration": 0.5625
        },
        {
          "name": "C4",
          "midi": 60,
          "time": 327.375,
          "velocity": 1,
          "duration": 0.5625
        },
        {
          "name": "A3",
          "midi": 57,
          "time": 327.375,
          "velocity": 1,
          "duration": 1.125
        },
        {
          "name": "G4",
          "midi": 67,
          "time": 327.375,
          "velocity": 1,
          "duration": 0.5625
        },
        {
          "name": "G3",
          "midi": 55,
          "time": 327.9375,
          "velocity": 1,
          "duration": 0.5625
        },
        {
          "name": "B3",
          "midi": 59,
          "time": 327.9375,
          "velocity": 1,
          "duration": 0.5625
        },
        {
          "name": "A3",
          "midi": 57,
          "time": 327.9375,
          "velocity": 1,
          "duration": 1.125
        },
        {
          "name": "G4",
          "midi": 67,
          "time": 327.9375,
          "velocity": 1,
          "duration": 0.5625
        },
        {
          "name": "F3",
          "midi": 53,
          "time": 328.5,
          "velocity": 1,
          "duration": 0.5625
        },
        {
          "name": "A#3",
          "midi": 58,
          "time": 328.5,
          "velocity": 1,
          "duration": 0.5625
        },
        {
          "name": "A3",
          "midi": 57,
          "time": 328.5,
          "velocity": 1,
          "duration": 0.5625
        },
        {
          "name": "F4",
          "midi": 65,
          "time": 328.5,
          "velocity": 1,
          "duration": 0.5625
        },
        {
          "name": "F3",
          "midi": 53,
          "time": 329.0625,
          "velocity": 1,
          "duration": 0.5625
        },
        {
          "name": "A3",
          "midi": 57,
          "time": 329.0625,
          "velocity": 1,
          "duration": 8.625
        },
        {
          "name": "F4",
          "midi": 65,
          "time": 329.0625,
          "velocity": 1,
          "duration": 0.5625
        },
        {
          "name": "F3",
          "midi": 53,
          "time": 329.625,
          "velocity": 1,
          "duration": 0.1875
        },
        {
          "name": "E3",
          "midi": 52,
          "time": 329.8125,
          "velocity": 1,
          "duration": 0.1875
        },
        {
          "name": "D3",
          "midi": 50,
          "time": 330,
          "velocity": 1,
          "duration": 0.75
        },
        {
          "name": "D3",
          "midi": 50,
          "time": 330.75,
          "velocity": 1,
          "duration": 0.1875
        },
        {
          "name": "A#3",
          "midi": 58,
          "time": 330.75,
          "velocity": 1,
          "duration": 0.1875
        },
        {
          "name": "D3",
          "midi": 50,
          "time": 330.9375,
          "velocity": 1,
          "duration": 0.1875
        },
        {
          "name": "A#3",
          "midi": 58,
          "time": 330.9375,
          "velocity": 1,
          "duration": 0.1875
        },
        {
          "name": "D3",
          "midi": 50,
          "time": 331.125,
          "velocity": 1,
          "duration": 0.75
        },
        {
          "name": "A#3",
          "midi": 58,
          "time": 331.125,
          "velocity": 1,
          "duration": 0.375
        },
        {
          "name": "D2",
          "midi": 38,
          "time": 331.5,
          "velocity": 1,
          "duration": 1.125
        },
        {
          "name": "D3",
          "midi": 50,
          "time": 331.875,
          "velocity": 1,
          "duration": 0.1875
        },
        {
          "name": "B3",
          "midi": 59,
          "time": 331.875,
          "velocity": 1,
          "duration": 0.1875
        },
        {
          "name": "D3",
          "midi": 50,
          "time": 332.0625,
          "velocity": 1,
          "duration": 0.1875
        },
        {
          "name": "B3",
          "midi": 59,
          "time": 332.0625,
          "velocity": 1,
          "duration": 0.1875
        },
        {
          "name": "D3",
          "midi": 50,
          "time": 332.25,
          "velocity": 1,
          "duration": 0.75
        },
        {
          "name": "B3",
          "midi": 59,
          "time": 332.25,
          "velocity": 1,
          "duration": 0.375
        },
        {
          "name": "D3",
          "midi": 50,
          "time": 333,
          "velocity": 1,
          "duration": 0.1875
        },
        {
          "name": "B3",
          "midi": 59,
          "time": 333,
          "velocity": 1,
          "duration": 0.1875
        },
        {
          "name": "D3",
          "midi": 50,
          "time": 333.1875,
          "velocity": 1,
          "duration": 0.1875
        },
        {
          "name": "B3",
          "midi": 59,
          "time": 333.1875,
          "velocity": 1,
          "duration": 0.1875
        },
        {
          "name": "D3",
          "midi": 50,
          "time": 333.375,
          "velocity": 1,
          "duration": 0.75
        },
        {
          "name": "B3",
          "midi": 59,
          "time": 333.375,
          "velocity": 1,
          "duration": 0.375
        },
        {
          "name": "D2",
          "midi": 38,
          "time": 333.75,
          "velocity": 1,
          "duration": 1.125
        },
        {
          "name": "D3",
          "midi": 50,
          "time": 334.125,
          "velocity": 1,
          "duration": 0.1875
        },
        {
          "name": "C4",
          "midi": 60,
          "time": 334.125,
          "velocity": 1,
          "duration": 0.1875
        },
        {
          "name": "D3",
          "midi": 50,
          "time": 334.3125,
          "velocity": 1,
          "duration": 0.1875
        },
        {
          "name": "C4",
          "midi": 60,
          "time": 334.3125,
          "velocity": 1,
          "duration": 0.1875
        },
        {
          "name": "D3",
          "midi": 50,
          "time": 334.5,
          "velocity": 1,
          "duration": 0.75
        },
        {
          "name": "C4",
          "midi": 60,
          "time": 334.5,
          "velocity": 1,
          "duration": 0.375
        },
        {
          "name": "D3",
          "midi": 50,
          "time": 335.25,
          "velocity": 1,
          "duration": 0.1875
        },
        {
          "name": "C4",
          "midi": 60,
          "time": 335.25,
          "velocity": 1,
          "duration": 0.1875
        },
        {
          "name": "D3",
          "midi": 50,
          "time": 335.4375,
          "velocity": 1,
          "duration": 0.1875
        },
        {
          "name": "C4",
          "midi": 60,
          "time": 335.4375,
          "velocity": 1,
          "duration": 0.1875
        },
        {
          "name": "D3",
          "midi": 50,
          "time": 335.625,
          "velocity": 1,
          "duration": 0.75
        },
        {
          "name": "C4",
          "midi": 60,
          "time": 335.625,
          "velocity": 1,
          "duration": 0.375
        },
        {
          "name": "D2",
          "midi": 38,
          "time": 336,
          "velocity": 1,
          "duration": 1.125
        },
        {
          "name": "D3",
          "midi": 50,
          "time": 336.375,
          "velocity": 1,
          "duration": 0.1875
        },
        {
          "name": "D4",
          "midi": 62,
          "time": 336.375,
          "velocity": 1,
          "duration": 0.375
        },
        {
          "name": "D3",
          "midi": 50,
          "time": 336.5625,
          "velocity": 1,
          "duration": 0.1875
        },
        {
          "name": "D4",
          "midi": 62,
          "time": 336.5625,
          "velocity": 1,
          "duration": 0.5625
        },
        {
          "name": "D3",
          "midi": 50,
          "time": 336.75,
          "velocity": 1,
          "duration": 0.75
        },
        {
          "name": "D4",
          "midi": 62,
          "time": 336.75,
          "velocity": 1,
          "duration": 8.8125
        },
        {
          "name": "D3",
          "midi": 50,
          "time": 337.5,
          "velocity": 1,
          "duration": 0.1875
        },
        {
          "name": "A3",
          "midi": 57,
          "time": 337.5,
          "velocity": 1,
          "duration": 0.375
        },
        {
          "name": "D3",
          "midi": 50,
          "time": 337.6875,
          "velocity": 1,
          "duration": 0.1875
        },
        {
          "name": "A3",
          "midi": 57,
          "time": 337.6875,
          "velocity": 1,
          "duration": 0.5625
        },
        {
          "name": "D3",
          "midi": 50,
          "time": 337.875,
          "velocity": 1,
          "duration": 0.75
        },
        {
          "name": "A3",
          "midi": 57,
          "time": 337.875,
          "velocity": 1,
          "duration": 8.8125
        },
        {
          "name": "D2",
          "midi": 38,
          "time": 338.25,
          "velocity": 1,
          "duration": 1.125
        },
        {
          "name": "D3",
          "midi": 50,
          "time": 338.625,
          "velocity": 1,
          "duration": 0.1875
        },
        {
          "name": "A#3",
          "midi": 58,
          "time": 338.625,
          "velocity": 1,
          "duration": 0.1875
        },
        {
          "name": "D3",
          "midi": 50,
          "time": 338.8125,
          "velocity": 1,
          "duration": 0.1875
        },
        {
          "name": "A#3",
          "midi": 58,
          "time": 338.8125,
          "velocity": 1,
          "duration": 0.1875
        },
        {
          "name": "D3",
          "midi": 50,
          "time": 339,
          "velocity": 1,
          "duration": 0.75
        },
        {
          "name": "A#3",
          "midi": 58,
          "time": 339,
          "velocity": 1,
          "duration": 0.375
        },
        {
          "name": "D3",
          "midi": 50,
          "time": 339.75,
          "velocity": 1,
          "duration": 0.1875
        },
        {
          "name": "A#3",
          "midi": 58,
          "time": 339.75,
          "velocity": 1,
          "duration": 0.1875
        },
        {
          "name": "D3",
          "midi": 50,
          "time": 339.9375,
          "velocity": 1,
          "duration": 0.1875
        },
        {
          "name": "A#3",
          "midi": 58,
          "time": 339.9375,
          "velocity": 1,
          "duration": 0.1875
        },
        {
          "name": "D3",
          "midi": 50,
          "time": 340.125,
          "velocity": 1,
          "duration": 0.75
        },
        {
          "name": "A#3",
          "midi": 58,
          "time": 340.125,
          "velocity": 1,
          "duration": 0.375
        },
        {
          "name": "D2",
          "midi": 38,
          "time": 340.5,
          "velocity": 1,
          "duration": 1.125
        },
        {
          "name": "D3",
          "midi": 50,
          "time": 340.875,
          "velocity": 1,
          "duration": 0.1875
        },
        {
          "name": "B3",
          "midi": 59,
          "time": 340.875,
          "velocity": 1,
          "duration": 0.1875
        },
        {
          "name": "D3",
          "midi": 50,
          "time": 341.0625,
          "velocity": 1,
          "duration": 0.1875
        },
        {
          "name": "B3",
          "midi": 59,
          "time": 341.0625,
          "velocity": 1,
          "duration": 0.1875
        },
        {
          "name": "D3",
          "midi": 50,
          "time": 341.25,
          "velocity": 1,
          "duration": 0.75
        },
        {
          "name": "B3",
          "midi": 59,
          "time": 341.25,
          "velocity": 1,
          "duration": 0.375
        },
        {
          "name": "D3",
          "midi": 50,
          "time": 342,
          "velocity": 1,
          "duration": 0.1875
        },
        {
          "name": "B3",
          "midi": 59,
          "time": 342,
          "velocity": 1,
          "duration": 0.1875
        },
        {
          "name": "D3",
          "midi": 50,
          "time": 342.1875,
          "velocity": 1,
          "duration": 0.1875
        },
        {
          "name": "B3",
          "midi": 59,
          "time": 342.1875,
          "velocity": 1,
          "duration": 0.1875
        },
        {
          "name": "D3",
          "midi": 50,
          "time": 342.375,
          "velocity": 1,
          "duration": 0.75
        },
        {
          "name": "B3",
          "midi": 59,
          "time": 342.375,
          "velocity": 1,
          "duration": 0.375
        },
        {
          "name": "D2",
          "midi": 38,
          "time": 342.75,
          "velocity": 1,
          "duration": 1.125
        },
        {
          "name": "D3",
          "midi": 50,
          "time": 343.125,
          "velocity": 1,
          "duration": 0.1875
        },
        {
          "name": "C4",
          "midi": 60,
          "time": 343.125,
          "velocity": 1,
          "duration": 0.1875
        },
        {
          "name": "D3",
          "midi": 50,
          "time": 343.3125,
          "velocity": 1,
          "duration": 0.1875
        },
        {
          "name": "C4",
          "midi": 60,
          "time": 343.3125,
          "velocity": 1,
          "duration": 0.1875
        },
        {
          "name": "D3",
          "midi": 50,
          "time": 343.5,
          "velocity": 1,
          "duration": 0.75
        },
        {
          "name": "C4",
          "midi": 60,
          "time": 343.5,
          "velocity": 1,
          "duration": 0.375
        },
        {
          "name": "D3",
          "midi": 50,
          "time": 344.25,
          "velocity": 1,
          "duration": 0.1875
        },
        {
          "name": "C4",
          "midi": 60,
          "time": 344.25,
          "velocity": 1,
          "duration": 0.1875
        },
        {
          "name": "D3",
          "midi": 50,
          "time": 344.4375,
          "velocity": 1,
          "duration": 0.1875
        },
        {
          "name": "C4",
          "midi": 60,
          "time": 344.4375,
          "velocity": 1,
          "duration": 0.1875
        },
        {
          "name": "D3",
          "midi": 50,
          "time": 344.625,
          "velocity": 1,
          "duration": 0.75
        },
        {
          "name": "C4",
          "midi": 60,
          "time": 344.625,
          "velocity": 1,
          "duration": 0.375
        },
        {
          "name": "D2",
          "midi": 38,
          "time": 345,
          "velocity": 1,
          "duration": 1.125
        },
        {
          "name": "D3",
          "midi": 50,
          "time": 345.375,
          "velocity": 1,
          "duration": 0.1875
        },
        {
          "name": "D4",
          "midi": 62,
          "time": 345.375,
          "velocity": 1,
          "duration": 0.375
        },
        {
          "name": "D3",
          "midi": 50,
          "time": 345.5625,
          "velocity": 1,
          "duration": 0.1875
        },
        {
          "name": "D4",
          "midi": 62,
          "time": 345.5625,
          "velocity": 1,
          "duration": 0.5625
        },
        {
          "name": "D3",
          "midi": 50,
          "time": 345.75,
          "velocity": 1,
          "duration": 0.75
        },
        {
          "name": "D4",
          "midi": 62,
          "time": 345.75,
          "velocity": 1,
          "duration": 8.8125
        },
        {
          "name": "D3",
          "midi": 50,
          "time": 346.5,
          "velocity": 1,
          "duration": 0.1875
        },
        {
          "name": "A3",
          "midi": 57,
          "time": 346.5,
          "velocity": 1,
          "duration": 0.375
        },
        {
          "name": "D3",
          "midi": 50,
          "time": 346.6875,
          "velocity": 1,
          "duration": 0.1875
        },
        {
          "name": "A3",
          "midi": 57,
          "time": 346.6875,
          "velocity": 1,
          "duration": 0.5625
        },
        {
          "name": "D3",
          "midi": 50,
          "time": 346.875,
          "velocity": 1,
          "duration": 0.75
        },
        {
          "name": "A3",
          "midi": 57,
          "time": 346.875,
          "velocity": 1,
          "duration": 8.8125
        },
        {
          "name": "D2",
          "midi": 38,
          "time": 347.25,
          "velocity": 1,
          "duration": 1.125
        },
        {
          "name": "D3",
          "midi": 50,
          "time": 347.625,
          "velocity": 1,
          "duration": 0.1875
        },
        {
          "name": "A#3",
          "midi": 58,
          "time": 347.625,
          "velocity": 1,
          "duration": 0.1875
        },
        {
          "name": "D3",
          "midi": 50,
          "time": 347.8125,
          "velocity": 1,
          "duration": 0.1875
        },
        {
          "name": "A#3",
          "midi": 58,
          "time": 347.8125,
          "velocity": 1,
          "duration": 0.1875
        },
        {
          "name": "D3",
          "midi": 50,
          "time": 348,
          "velocity": 1,
          "duration": 0.75
        },
        {
          "name": "A#3",
          "midi": 58,
          "time": 348,
          "velocity": 1,
          "duration": 0.375
        },
        {
          "name": "D3",
          "midi": 50,
          "time": 348.75,
          "velocity": 1,
          "duration": 0.1875
        },
        {
          "name": "A#3",
          "midi": 58,
          "time": 348.75,
          "velocity": 1,
          "duration": 0.1875
        },
        {
          "name": "D3",
          "midi": 50,
          "time": 348.9375,
          "velocity": 1,
          "duration": 0.1875
        },
        {
          "name": "A#3",
          "midi": 58,
          "time": 348.9375,
          "velocity": 1,
          "duration": 0.1875
        },
        {
          "name": "D3",
          "midi": 50,
          "time": 349.125,
          "velocity": 1,
          "duration": 0.75
        },
        {
          "name": "A#3",
          "midi": 58,
          "time": 349.125,
          "velocity": 1,
          "duration": 0.375
        },
        {
          "name": "D2",
          "midi": 38,
          "time": 349.5,
          "velocity": 1,
          "duration": 1.125
        },
        {
          "name": "D3",
          "midi": 50,
          "time": 349.875,
          "velocity": 1,
          "duration": 0.1875
        },
        {
          "name": "B3",
          "midi": 59,
          "time": 349.875,
          "velocity": 1,
          "duration": 0.1875
        },
        {
          "name": "D3",
          "midi": 50,
          "time": 350.0625,
          "velocity": 1,
          "duration": 0.1875
        },
        {
          "name": "B3",
          "midi": 59,
          "time": 350.0625,
          "velocity": 1,
          "duration": 0.1875
        },
        {
          "name": "D3",
          "midi": 50,
          "time": 350.25,
          "velocity": 1,
          "duration": 0.75
        },
        {
          "name": "B3",
          "midi": 59,
          "time": 350.25,
          "velocity": 1,
          "duration": 0.375
        },
        {
          "name": "D3",
          "midi": 50,
          "time": 351,
          "velocity": 1,
          "duration": 0.1875
        },
        {
          "name": "B3",
          "midi": 59,
          "time": 351,
          "velocity": 1,
          "duration": 0.1875
        },
        {
          "name": "D3",
          "midi": 50,
          "time": 351.1875,
          "velocity": 1,
          "duration": 0.1875
        },
        {
          "name": "B3",
          "midi": 59,
          "time": 351.1875,
          "velocity": 1,
          "duration": 0.1875
        },
        {
          "name": "D3",
          "midi": 50,
          "time": 351.375,
          "velocity": 1,
          "duration": 0.75
        },
        {
          "name": "B3",
          "midi": 59,
          "time": 351.375,
          "velocity": 1,
          "duration": 0.375
        },
        {
          "name": "D2",
          "midi": 38,
          "time": 351.75,
          "velocity": 1,
          "duration": 1.125
        },
        {
          "name": "D3",
          "midi": 50,
          "time": 352.125,
          "velocity": 1,
          "duration": 0.1875
        },
        {
          "name": "C4",
          "midi": 60,
          "time": 352.125,
          "velocity": 1,
          "duration": 0.1875
        },
        {
          "name": "D3",
          "midi": 50,
          "time": 352.3125,
          "velocity": 1,
          "duration": 0.1875
        },
        {
          "name": "C4",
          "midi": 60,
          "time": 352.3125,
          "velocity": 1,
          "duration": 0.1875
        },
        {
          "name": "D3",
          "midi": 50,
          "time": 352.5,
          "velocity": 1,
          "duration": 0.75
        },
        {
          "name": "C4",
          "midi": 60,
          "time": 352.5,
          "velocity": 1,
          "duration": 0.375
        },
        {
          "name": "D3",
          "midi": 50,
          "time": 353.25,
          "velocity": 1,
          "duration": 0.1875
        },
        {
          "name": "C4",
          "midi": 60,
          "time": 353.25,
          "velocity": 1,
          "duration": 0.1875
        },
        {
          "name": "D3",
          "midi": 50,
          "time": 353.4375,
          "velocity": 1,
          "duration": 0.1875
        },
        {
          "name": "C4",
          "midi": 60,
          "time": 353.4375,
          "velocity": 1,
          "duration": 0.1875
        },
        {
          "name": "D3",
          "midi": 50,
          "time": 353.625,
          "velocity": 1,
          "duration": 0.75
        },
        {
          "name": "C4",
          "midi": 60,
          "time": 353.625,
          "velocity": 1,
          "duration": 0.375
        },
        {
          "name": "D2",
          "midi": 38,
          "time": 354,
          "velocity": 1,
          "duration": 1.125
        },
        {
          "name": "D3",
          "midi": 50,
          "time": 354.375,
          "velocity": 1,
          "duration": 0.1875
        },
        {
          "name": "D4",
          "midi": 62,
          "time": 354.375,
          "velocity": 1,
          "duration": 0.375
        },
        {
          "name": "D3",
          "midi": 50,
          "time": 354.5625,
          "velocity": 1,
          "duration": 0.1875
        },
        {
          "name": "D4",
          "midi": 62,
          "time": 354.5625,
          "velocity": 1,
          "duration": 0.5625
        },
        {
          "name": "D3",
          "midi": 50,
          "time": 354.75,
          "velocity": 1,
          "duration": 0.75
        },
        {
          "name": "D4",
          "midi": 62,
          "time": 354.75,
          "velocity": 1,
          "duration": 8.8125
        },
        {
          "name": "D3",
          "midi": 50,
          "time": 355.5,
          "velocity": 1,
          "duration": 0.1875
        },
        {
          "name": "A3",
          "midi": 57,
          "time": 355.5,
          "velocity": 1,
          "duration": 0.375
        },
        {
          "name": "D3",
          "midi": 50,
          "time": 355.6875,
          "velocity": 1,
          "duration": 0.1875
        },
        {
          "name": "A3",
          "midi": 57,
          "time": 355.6875,
          "velocity": 1,
          "duration": 0.5625
        },
        {
          "name": "D3",
          "midi": 50,
          "time": 355.875,
          "velocity": 1,
          "duration": 0.75
        },
        {
          "name": "A3",
          "midi": 57,
          "time": 355.875,
          "velocity": 1,
          "duration": 8.8125
        },
        {
          "name": "D2",
          "midi": 38,
          "time": 356.25,
          "velocity": 1,
          "duration": 1.125
        },
        {
          "name": "D3",
          "midi": 50,
          "time": 356.625,
          "velocity": 1,
          "duration": 0.1875
        },
        {
          "name": "A#3",
          "midi": 58,
          "time": 356.625,
          "velocity": 1,
          "duration": 0.1875
        },
        {
          "name": "D3",
          "midi": 50,
          "time": 356.8125,
          "velocity": 1,
          "duration": 0.1875
        },
        {
          "name": "A#3",
          "midi": 58,
          "time": 356.8125,
          "velocity": 1,
          "duration": 0.1875
        },
        {
          "name": "D3",
          "midi": 50,
          "time": 357,
          "velocity": 1,
          "duration": 0.75
        },
        {
          "name": "A#3",
          "midi": 58,
          "time": 357,
          "velocity": 1,
          "duration": 0.375
        },
        {
          "name": "D3",
          "midi": 50,
          "time": 357.75,
          "velocity": 1,
          "duration": 0.1875
        },
        {
          "name": "A#3",
          "midi": 58,
          "time": 357.75,
          "velocity": 1,
          "duration": 0.1875
        },
        {
          "name": "D3",
          "midi": 50,
          "time": 357.9375,
          "velocity": 1,
          "duration": 0.1875
        },
        {
          "name": "A#3",
          "midi": 58,
          "time": 357.9375,
          "velocity": 1,
          "duration": 0.1875
        },
        {
          "name": "D3",
          "midi": 50,
          "time": 358.125,
          "velocity": 1,
          "duration": 0.75
        },
        {
          "name": "A#3",
          "midi": 58,
          "time": 358.125,
          "velocity": 1,
          "duration": 0.375
        },
        {
          "name": "D2",
          "midi": 38,
          "time": 358.5,
          "velocity": 1,
          "duration": 1.125
        },
        {
          "name": "D3",
          "midi": 50,
          "time": 358.875,
          "velocity": 1,
          "duration": 0.1875
        },
        {
          "name": "B3",
          "midi": 59,
          "time": 358.875,
          "velocity": 1,
          "duration": 0.1875
        },
        {
          "name": "D3",
          "midi": 50,
          "time": 359.0625,
          "velocity": 1,
          "duration": 0.1875
        },
        {
          "name": "B3",
          "midi": 59,
          "time": 359.0625,
          "velocity": 1,
          "duration": 0.1875
        },
        {
          "name": "D3",
          "midi": 50,
          "time": 359.25,
          "velocity": 1,
          "duration": 0.75
        },
        {
          "name": "B3",
          "midi": 59,
          "time": 359.25,
          "velocity": 1,
          "duration": 0.375
        },
        {
          "name": "D3",
          "midi": 50,
          "time": 360,
          "velocity": 1,
          "duration": 0.1875
        },
        {
          "name": "B3",
          "midi": 59,
          "time": 360,
          "velocity": 1,
          "duration": 0.1875
        },
        {
          "name": "D3",
          "midi": 50,
          "time": 360.1875,
          "velocity": 1,
          "duration": 0.1875
        },
        {
          "name": "B3",
          "midi": 59,
          "time": 360.1875,
          "velocity": 1,
          "duration": 0.1875
        },
        {
          "name": "D3",
          "midi": 50,
          "time": 360.375,
          "velocity": 1,
          "duration": 0.75
        },
        {
          "name": "B3",
          "midi": 59,
          "time": 360.375,
          "velocity": 1,
          "duration": 0.375
        },
        {
          "name": "D2",
          "midi": 38,
          "time": 360.75,
          "velocity": 1,
          "duration": 1.125
        },
        {
          "name": "D3",
          "midi": 50,
          "time": 361.125,
          "velocity": 1,
          "duration": 0.1875
        },
        {
          "name": "C4",
          "midi": 60,
          "time": 361.125,
          "velocity": 1,
          "duration": 0.1875
        },
        {
          "name": "D3",
          "midi": 50,
          "time": 361.3125,
          "velocity": 1,
          "duration": 0.1875
        },
        {
          "name": "C4",
          "midi": 60,
          "time": 361.3125,
          "velocity": 1,
          "duration": 0.1875
        },
        {
          "name": "D3",
          "midi": 50,
          "time": 361.5,
          "velocity": 1,
          "duration": 0.75
        },
        {
          "name": "C4",
          "midi": 60,
          "time": 361.5,
          "velocity": 1,
          "duration": 0.375
        },
        {
          "name": "D3",
          "midi": 50,
          "time": 362.25,
          "velocity": 1,
          "duration": 0.1875
        },
        {
          "name": "C4",
          "midi": 60,
          "time": 362.25,
          "velocity": 1,
          "duration": 0.1875
        },
        {
          "name": "D3",
          "midi": 50,
          "time": 362.4375,
          "velocity": 1,
          "duration": 0.1875
        },
        {
          "name": "C4",
          "midi": 60,
          "time": 362.4375,
          "velocity": 1,
          "duration": 0.1875
        },
        {
          "name": "D3",
          "midi": 50,
          "time": 362.625,
          "velocity": 1,
          "duration": 0.75
        },
        {
          "name": "C4",
          "midi": 60,
          "time": 362.625,
          "velocity": 1,
          "duration": 0.375
        },
        {
          "name": "D2",
          "midi": 38,
          "time": 363,
          "velocity": 1,
          "duration": 1.125
        },
        {
          "name": "D3",
          "midi": 50,
          "time": 363.375,
          "velocity": 1,
          "duration": 0.1875
        },
        {
          "name": "D4",
          "midi": 62,
          "time": 363.375,
          "velocity": 1,
          "duration": 0.375
        },
        {
          "name": "D3",
          "midi": 50,
          "time": 363.5625,
          "velocity": 1,
          "duration": 0.1875
        },
        {
          "name": "D4",
          "midi": 62,
          "time": 363.5625,
          "velocity": 1,
          "duration": 0.5625
        },
        {
          "name": "D3",
          "midi": 50,
          "time": 363.75,
          "velocity": 1,
          "duration": 0.75
        },
        {
          "name": "D4",
          "midi": 62,
          "time": 363.75,
          "velocity": 1,
          "duration": 9.1875
        },
        {
          "name": "D3",
          "midi": 50,
          "time": 364.5,
          "velocity": 1,
          "duration": 0.1875
        },
        {
          "name": "A3",
          "midi": 57,
          "time": 364.5,
          "velocity": 1,
          "duration": 0.375
        },
        {
          "name": "D3",
          "midi": 50,
          "time": 364.6875,
          "velocity": 1,
          "duration": 0.1875
        },
        {
          "name": "A3",
          "midi": 57,
          "time": 364.6875,
          "velocity": 1,
          "duration": 0.5625
        },
        {
          "name": "D3",
          "midi": 50,
          "time": 364.875,
          "velocity": 1,
          "duration": 0.75
        },
        {
          "name": "A3",
          "midi": 57,
          "time": 364.875,
          "velocity": 1,
          "duration": 8.0625
        },
        {
          "name": "D2",
          "midi": 38,
          "time": 365.25,
          "velocity": 1,
          "duration": 1.125
        },
        {
          "name": "D3",
          "midi": 50,
          "time": 365.625,
          "velocity": 1,
          "duration": 0.1875
        },
        {
          "name": "A#3",
          "midi": 58,
          "time": 365.625,
          "velocity": 1,
          "duration": 0.1875
        },
        {
          "name": "D3",
          "midi": 50,
          "time": 365.8125,
          "velocity": 1,
          "duration": 0.1875
        },
        {
          "name": "A#3",
          "midi": 58,
          "time": 365.8125,
          "velocity": 1,
          "duration": 0.1875
        },
        {
          "name": "D3",
          "midi": 50,
          "time": 366,
          "velocity": 1,
          "duration": 0.75
        },
        {
          "name": "A#3",
          "midi": 58,
          "time": 366,
          "velocity": 1,
          "duration": 0.375
        },
        {
          "name": "D3",
          "midi": 50,
          "time": 366.75,
          "velocity": 1,
          "duration": 0.1875
        },
        {
          "name": "A#3",
          "midi": 58,
          "time": 366.75,
          "velocity": 1,
          "duration": 0.1875
        },
        {
          "name": "D3",
          "midi": 50,
          "time": 366.9375,
          "velocity": 1,
          "duration": 0.1875
        },
        {
          "name": "A#3",
          "midi": 58,
          "time": 366.9375,
          "velocity": 1,
          "duration": 0.1875
        },
        {
          "name": "D3",
          "midi": 50,
          "time": 367.125,
          "velocity": 1,
          "duration": 0.75
        },
        {
          "name": "A#3",
          "midi": 58,
          "time": 367.125,
          "velocity": 1,
          "duration": 0.375
        },
        {
          "name": "D2",
          "midi": 38,
          "time": 367.5,
          "velocity": 1,
          "duration": 1.125
        },
        {
          "name": "D3",
          "midi": 50,
          "time": 367.875,
          "velocity": 1,
          "duration": 0.1875
        },
        {
          "name": "B3",
          "midi": 59,
          "time": 367.875,
          "velocity": 1,
          "duration": 0.1875
        },
        {
          "name": "D3",
          "midi": 50,
          "time": 368.0625,
          "velocity": 1,
          "duration": 0.1875
        },
        {
          "name": "B3",
          "midi": 59,
          "time": 368.0625,
          "velocity": 1,
          "duration": 0.1875
        },
        {
          "name": "D3",
          "midi": 50,
          "time": 368.25,
          "velocity": 1,
          "duration": 0.75
        },
        {
          "name": "B3",
          "midi": 59,
          "time": 368.25,
          "velocity": 1,
          "duration": 0.375
        },
        {
          "name": "D3",
          "midi": 50,
          "time": 369,
          "velocity": 1,
          "duration": 0.1875
        },
        {
          "name": "B3",
          "midi": 59,
          "time": 369,
          "velocity": 1,
          "duration": 0.1875
        },
        {
          "name": "D3",
          "midi": 50,
          "time": 369.1875,
          "velocity": 1,
          "duration": 0.1875
        },
        {
          "name": "B3",
          "midi": 59,
          "time": 369.1875,
          "velocity": 1,
          "duration": 0.1875
        },
        {
          "name": "D3",
          "midi": 50,
          "time": 369.375,
          "velocity": 1,
          "duration": 0.75
        },
        {
          "name": "B3",
          "midi": 59,
          "time": 369.375,
          "velocity": 1,
          "duration": 0.375
        },
        {
          "name": "D2",
          "midi": 38,
          "time": 369.75,
          "velocity": 1,
          "duration": 1.125
        },
        {
          "name": "D3",
          "midi": 50,
          "time": 370.125,
          "velocity": 1,
          "duration": 0.1875
        },
        {
          "name": "C4",
          "midi": 60,
          "time": 370.125,
          "velocity": 1,
          "duration": 0.1875
        },
        {
          "name": "D3",
          "midi": 50,
          "time": 370.3125,
          "velocity": 1,
          "duration": 0.1875
        },
        {
          "name": "C4",
          "midi": 60,
          "time": 370.3125,
          "velocity": 1,
          "duration": 0.1875
        },
        {
          "name": "D3",
          "midi": 50,
          "time": 370.5,
          "velocity": 1,
          "duration": 0.75
        },
        {
          "name": "C4",
          "midi": 60,
          "time": 370.5,
          "velocity": 1,
          "duration": 0.375
        },
        {
          "name": "D3",
          "midi": 50,
          "time": 371.25,
          "velocity": 1,
          "duration": 0.1875
        },
        {
          "name": "C4",
          "midi": 60,
          "time": 371.25,
          "velocity": 1,
          "duration": 0.1875
        },
        {
          "name": "D3",
          "midi": 50,
          "time": 371.4375,
          "velocity": 1,
          "duration": 0.1875
        },
        {
          "name": "C4",
          "midi": 60,
          "time": 371.4375,
          "velocity": 1,
          "duration": 0.1875
        },
        {
          "name": "D3",
          "midi": 50,
          "time": 371.625,
          "velocity": 1,
          "duration": 6.75
        },
        {
          "name": "C4",
          "midi": 60,
          "time": 371.625,
          "velocity": 1,
          "duration": 0.375
        },
        {
          "name": "D4",
          "midi": 62,
          "time": 372.375,
          "velocity": 1,
          "duration": 1.125
        },
        {
          "name": "G4",
          "midi": 67,
          "time": 372.375,
          "velocity": 1,
          "duration": 0.5625
        },
        {
          "name": "A3",
          "midi": 57,
          "time": 372.375,
          "velocity": 1,
          "duration": 1.125
        },
        {
          "name": "D5",
          "midi": 74,
          "time": 372.375,
          "velocity": 1,
          "duration": 0.5625
        },
        {
          "name": "D4",
          "midi": 62,
          "time": 372.9375,
          "velocity": 1,
          "duration": 2.0625
        },
        {
          "name": "F#4",
          "midi": 66,
          "time": 372.9375,
          "velocity": 1,
          "duration": 0.5625
        },
        {
          "name": "A3",
          "midi": 57,
          "time": 372.9375,
          "velocity": 1,
          "duration": 1.125
        },
        {
          "name": "D5",
          "midi": 74,
          "time": 372.9375,
          "velocity": 1,
          "duration": 0.5625
        },
        {
          "name": "C4",
          "midi": 60,
          "time": 373.5,
          "velocity": 1,
          "duration": 0.5625
        },
        {
          "name": "F4",
          "midi": 65,
          "time": 373.5,
          "velocity": 1,
          "duration": 0.5625
        },
        {
          "name": "A3",
          "midi": 57,
          "time": 373.5,
          "velocity": 1,
          "duration": 1.125
        },
        {
          "name": "C5",
          "midi": 72,
          "time": 373.5,
          "velocity": 1,
          "duration": 0.5625
        },
        {
          "name": "C4",
          "midi": 60,
          "time": 374.0625,
          "velocity": 1,
          "duration": 0.5625
        },
        {
          "name": "E4",
          "midi": 64,
          "time": 374.0625,
          "velocity": 1,
          "duration": 6.5625
        },
        {
          "name": "A3",
          "midi": 57,
          "time": 374.0625,
          "velocity": 1,
          "duration": 0.5625
        },
        {
          "name": "C5",
          "midi": 72,
          "time": 374.0625,
          "velocity": 1,
          "duration": 0.5625
        },
        {
          "name": "A3",
          "midi": 57,
          "time": 374.625,
          "velocity": 1,
          "duration": 0.375
        },
        {
          "name": "D4",
          "midi": 62,
          "time": 374.625,
          "velocity": 1,
          "duration": 4.3125
        },
        {
          "name": "A4",
          "midi": 69,
          "time": 374.625,
          "velocity": 1,
          "duration": 0.375
        },
        {
          "name": "A3",
          "midi": 57,
          "time": 375,
          "velocity": 1,
          "duration": 0.9375
        },
        {
          "name": "C#4",
          "midi": 61,
          "time": 375,
          "velocity": 1,
          "duration": 0.375
        },
        {
          "name": "A4",
          "midi": 69,
          "time": 375,
          "velocity": 1,
          "duration": 0.375
        },
        {
          "name": "G3",
          "midi": 55,
          "time": 375.375,
          "velocity": 1,
          "duration": 0.5625
        },
        {
          "name": "C4",
          "midi": 60,
          "time": 375.375,
          "velocity": 1,
          "duration": 0.5625
        },
        {
          "name": "A3",
          "midi": 57,
          "time": 375.375,
          "velocity": 1,
          "duration": 1.125
        },
        {
          "name": "G4",
          "midi": 67,
          "time": 375.375,
          "velocity": 1,
          "duration": 0.5625
        },
        {
          "name": "G3",
          "midi": 55,
          "time": 375.9375,
          "velocity": 1,
          "duration": 0.5625
        },
        {
          "name": "B3",
          "midi": 59,
          "time": 375.9375,
          "velocity": 1,
          "duration": 0.5625
        },
        {
          "name": "A3",
          "midi": 57,
          "time": 375.9375,
          "velocity": 1,
          "duration": 1.125
        },
        {
          "name": "G4",
          "midi": 67,
          "time": 375.9375,
          "velocity": 1,
          "duration": 0.5625
        },
        {
          "name": "F3",
          "midi": 53,
          "time": 376.5,
          "velocity": 1,
          "duration": 0.5625
        },
        {
          "name": "A#3",
          "midi": 58,
          "time": 376.5,
          "velocity": 1,
          "duration": 0.5625
        },
        {
          "name": "A3",
          "midi": 57,
          "time": 376.5,
          "velocity": 1,
          "duration": 0.5625
        },
        {
          "name": "F4",
          "midi": 65,
          "time": 376.5,
          "velocity": 1,
          "duration": 0.5625
        },
        {
          "name": "F3",
          "midi": 53,
          "time": 377.0625,
          "velocity": 1,
          "duration": 0.5625
        },
        {
          "name": "A3",
          "midi": 57,
          "time": 377.0625,
          "velocity": 1,
          "duration": 1.875
        },
        {
          "name": "F4",
          "midi": 65,
          "time": 377.0625,
          "velocity": 1,
          "duration": 0.5625
        },
        {
          "name": "F3",
          "midi": 53,
          "time": 377.625,
          "velocity": 1,
          "duration": 0.1875
        },
        {
          "name": "E3",
          "midi": 52,
          "time": 377.8125,
          "velocity": 1,
          "duration": 0.1875
        },
        {
          "name": "D3",
          "midi": 50,
          "time": 378,
          "velocity": 1,
          "duration": 6.375
        },
        {
          "name": "D4",
          "midi": 62,
          "time": 378.375,
          "velocity": 1,
          "duration": 1.125
        },
        {
          "name": "G4",
          "midi": 67,
          "time": 378.375,
          "velocity": 1,
          "duration": 0.5625
        },
        {
          "name": "A3",
          "midi": 57,
          "time": 378.375,
          "velocity": 1,
          "duration": 1.125
        },
        {
          "name": "D5",
          "midi": 74,
          "time": 378.375,
          "velocity": 1,
          "duration": 0.5625
        },
        {
          "name": "D4",
          "midi": 62,
          "time": 378.9375,
          "velocity": 1,
          "duration": 2.0625
        },
        {
          "name": "F#4",
          "midi": 66,
          "time": 378.9375,
          "velocity": 1,
          "duration": 0.5625
        },
        {
          "name": "A3",
          "midi": 57,
          "time": 378.9375,
          "velocity": 1,
          "duration": 1.125
        },
        {
          "name": "D5",
          "midi": 74,
          "time": 378.9375,
          "velocity": 1,
          "duration": 0.5625
        },
        {
          "name": "C4",
          "midi": 60,
          "time": 379.5,
          "velocity": 1,
          "duration": 0.5625
        },
        {
          "name": "F4",
          "midi": 65,
          "time": 379.5,
          "velocity": 1,
          "duration": 0.5625
        },
        {
          "name": "A3",
          "midi": 57,
          "time": 379.5,
          "velocity": 1,
          "duration": 1.125
        },
        {
          "name": "C5",
          "midi": 72,
          "time": 379.5,
          "velocity": 1,
          "duration": 0.5625
        },
        {
          "name": "C4",
          "midi": 60,
          "time": 380.0625,
          "velocity": 1,
          "duration": 0.5625
        },
        {
          "name": "E4",
          "midi": 64,
          "time": 380.0625,
          "velocity": 1,
          "duration": 12.5625
        },
        {
          "name": "A3",
          "midi": 57,
          "time": 380.0625,
          "velocity": 1,
          "duration": 0.5625
        },
        {
          "name": "C5",
          "midi": 72,
          "time": 380.0625,
          "velocity": 1,
          "duration": 0.5625
        },
        {
          "name": "A3",
          "midi": 57,
          "time": 380.625,
          "velocity": 1,
          "duration": 0.375
        },
        {
          "name": "D4",
          "midi": 62,
          "time": 380.625,
          "velocity": 1,
          "duration": 10.3125
        },
        {
          "name": "A4",
          "midi": 69,
          "time": 380.625,
          "velocity": 1,
          "duration": 0.375
        },
        {
          "name": "A3",
          "midi": 57,
          "time": 381,
          "velocity": 1,
          "duration": 0.9375
        },
        {
          "name": "C#4",
          "midi": 61,
          "time": 381,
          "velocity": 1,
          "duration": 0.375
        },
        {
          "name": "A4",
          "midi": 69,
          "time": 381,
          "velocity": 1,
          "duration": 0.375
        },
        {
          "name": "G3",
          "midi": 55,
          "time": 381.375,
          "velocity": 1,
          "duration": 0.5625
        },
        {
          "name": "C4",
          "midi": 60,
          "time": 381.375,
          "velocity": 1,
          "duration": 0.5625
        },
        {
          "name": "A3",
          "midi": 57,
          "time": 381.375,
          "velocity": 1,
          "duration": 1.125
        },
        {
          "name": "G4",
          "midi": 67,
          "time": 381.375,
          "velocity": 1,
          "duration": 0.5625
        },
        {
          "name": "G3",
          "midi": 55,
          "time": 381.9375,
          "velocity": 1,
          "duration": 0.5625
        },
        {
          "name": "B3",
          "midi": 59,
          "time": 381.9375,
          "velocity": 1,
          "duration": 0.5625
        },
        {
          "name": "A3",
          "midi": 57,
          "time": 381.9375,
          "velocity": 1,
          "duration": 1.125
        },
        {
          "name": "G4",
          "midi": 67,
          "time": 381.9375,
          "velocity": 1,
          "duration": 0.5625
        },
        {
          "name": "F3",
          "midi": 53,
          "time": 382.5,
          "velocity": 1,
          "duration": 0.5625
        },
        {
          "name": "A#3",
          "midi": 58,
          "time": 382.5,
          "velocity": 1,
          "duration": 0.5625
        },
        {
          "name": "A3",
          "midi": 57,
          "time": 382.5,
          "velocity": 1,
          "duration": 0.5625
        },
        {
          "name": "F4",
          "midi": 65,
          "time": 382.5,
          "velocity": 1,
          "duration": 0.5625
        },
        {
          "name": "F3",
          "midi": 53,
          "time": 383.0625,
          "velocity": 1,
          "duration": 0.5625
        },
        {
          "name": "A3",
          "midi": 57,
          "time": 383.0625,
          "velocity": 1,
          "duration": 7.875
        },
        {
          "name": "F4",
          "midi": 65,
          "time": 383.0625,
          "velocity": 1,
          "duration": 0.5625
        },
        {
          "name": "F3",
          "midi": 53,
          "time": 383.625,
          "velocity": 1,
          "duration": 0.1875
        },
        {
          "name": "E3",
          "midi": 52,
          "time": 383.8125,
          "velocity": 1,
          "duration": 0.1875
        },
        {
          "name": "D3",
          "midi": 50,
          "time": 384,
          "velocity": 1,
          "duration": 0.75
        },
        {
          "name": "D3",
          "midi": 50,
          "time": 384.75,
          "velocity": 1,
          "duration": 0.1875
        },
        {
          "name": "A#3",
          "midi": 58,
          "time": 384.75,
          "velocity": 1,
          "duration": 0.1875
        },
        {
          "name": "D3",
          "midi": 50,
          "time": 384.9375,
          "velocity": 1,
          "duration": 0.1875
        },
        {
          "name": "A#3",
          "midi": 58,
          "time": 384.9375,
          "velocity": 1,
          "duration": 0.1875
        },
        {
          "name": "D3",
          "midi": 50,
          "time": 385.125,
          "velocity": 1,
          "duration": 0.75
        },
        {
          "name": "A#3",
          "midi": 58,
          "time": 385.125,
          "velocity": 1,
          "duration": 0.375
        },
        {
          "name": "D2",
          "midi": 38,
          "time": 385.5,
          "velocity": 1,
          "duration": 1.125
        },
        {
          "name": "D3",
          "midi": 50,
          "time": 385.875,
          "velocity": 1,
          "duration": 0.1875
        },
        {
          "name": "B3",
          "midi": 59,
          "time": 385.875,
          "velocity": 1,
          "duration": 0.1875
        },
        {
          "name": "D3",
          "midi": 50,
          "time": 386.0625,
          "velocity": 1,
          "duration": 0.1875
        },
        {
          "name": "B3",
          "midi": 59,
          "time": 386.0625,
          "velocity": 1,
          "duration": 0.1875
        },
        {
          "name": "D3",
          "midi": 50,
          "time": 386.25,
          "velocity": 1,
          "duration": 0.75
        },
        {
          "name": "B3",
          "midi": 59,
          "time": 386.25,
          "velocity": 1,
          "duration": 0.375
        },
        {
          "name": "D3",
          "midi": 50,
          "time": 387,
          "velocity": 1,
          "duration": 0.1875
        },
        {
          "name": "B3",
          "midi": 59,
          "time": 387,
          "velocity": 1,
          "duration": 0.1875
        },
        {
          "name": "D3",
          "midi": 50,
          "time": 387.1875,
          "velocity": 1,
          "duration": 0.1875
        },
        {
          "name": "B3",
          "midi": 59,
          "time": 387.1875,
          "velocity": 1,
          "duration": 0.1875
        },
        {
          "name": "D3",
          "midi": 50,
          "time": 387.375,
          "velocity": 1,
          "duration": 0.75
        },
        {
          "name": "B3",
          "midi": 59,
          "time": 387.375,
          "velocity": 1,
          "duration": 0.375
        },
        {
          "name": "D2",
          "midi": 38,
          "time": 387.75,
          "velocity": 1,
          "duration": 1.125
        },
        {
          "name": "D3",
          "midi": 50,
          "time": 388.125,
          "velocity": 1,
          "duration": 0.1875
        },
        {
          "name": "C4",
          "midi": 60,
          "time": 388.125,
          "velocity": 1,
          "duration": 0.1875
        },
        {
          "name": "D3",
          "midi": 50,
          "time": 388.3125,
          "velocity": 1,
          "duration": 0.1875
        },
        {
          "name": "C4",
          "midi": 60,
          "time": 388.3125,
          "velocity": 1,
          "duration": 0.1875
        },
        {
          "name": "D3",
          "midi": 50,
          "time": 388.5,
          "velocity": 1,
          "duration": 0.75
        },
        {
          "name": "C4",
          "midi": 60,
          "time": 388.5,
          "velocity": 1,
          "duration": 0.375
        },
        {
          "name": "D3",
          "midi": 50,
          "time": 389.25,
          "velocity": 1,
          "duration": 0.1875
        },
        {
          "name": "C4",
          "midi": 60,
          "time": 389.25,
          "velocity": 1,
          "duration": 0.1875
        },
        {
          "name": "D3",
          "midi": 50,
          "time": 389.4375,
          "velocity": 1,
          "duration": 0.1875
        },
        {
          "name": "C4",
          "midi": 60,
          "time": 389.4375,
          "velocity": 1,
          "duration": 0.1875
        },
        {
          "name": "D3",
          "midi": 50,
          "time": 389.625,
          "velocity": 1,
          "duration": 6.75
        },
        {
          "name": "C4",
          "midi": 60,
          "time": 389.625,
          "velocity": 1,
          "duration": 0.375
        },
        {
          "name": "D4",
          "midi": 62,
          "time": 390.375,
          "velocity": 1,
          "duration": 1.125
        },
        {
          "name": "G4",
          "midi": 67,
          "time": 390.375,
          "velocity": 1,
          "duration": 0.5625
        },
        {
          "name": "A3",
          "midi": 57,
          "time": 390.375,
          "velocity": 1,
          "duration": 1.125
        },
        {
          "name": "D5",
          "midi": 74,
          "time": 390.375,
          "velocity": 1,
          "duration": 0.5625
        },
        {
          "name": "D4",
          "midi": 62,
          "time": 390.9375,
          "velocity": 1,
          "duration": 2.0625
        },
        {
          "name": "F#4",
          "midi": 66,
          "time": 390.9375,
          "velocity": 1,
          "duration": 0.5625
        },
        {
          "name": "A3",
          "midi": 57,
          "time": 390.9375,
          "velocity": 1,
          "duration": 1.125
        },
        {
          "name": "D5",
          "midi": 74,
          "time": 390.9375,
          "velocity": 1,
          "duration": 0.5625
        },
        {
          "name": "C4",
          "midi": 60,
          "time": 391.5,
          "velocity": 1,
          "duration": 0.5625
        },
        {
          "name": "F4",
          "midi": 65,
          "time": 391.5,
          "velocity": 1,
          "duration": 0.5625
        },
        {
          "name": "A3",
          "midi": 57,
          "time": 391.5,
          "velocity": 1,
          "duration": 1.125
        },
        {
          "name": "C5",
          "midi": 72,
          "time": 391.5,
          "velocity": 1,
          "duration": 0.5625
        },
        {
          "name": "C4",
          "midi": 60,
          "time": 392.0625,
          "velocity": 1,
          "duration": 0.5625
        },
        {
          "name": "E4",
          "midi": 64,
          "time": 392.0625,
          "velocity": 1,
          "duration": 6.5625
        },
        {
          "name": "A3",
          "midi": 57,
          "time": 392.0625,
          "velocity": 1,
          "duration": 0.5625
        },
        {
          "name": "C5",
          "midi": 72,
          "time": 392.0625,
          "velocity": 1,
          "duration": 0.5625
        },
        {
          "name": "A3",
          "midi": 57,
          "time": 392.625,
          "velocity": 1,
          "duration": 0.375
        },
        {
          "name": "D4",
          "midi": 62,
          "time": 392.625,
          "velocity": 1,
          "duration": 4.3125
        },
        {
          "name": "A4",
          "midi": 69,
          "time": 392.625,
          "velocity": 1,
          "duration": 0.375
        },
        {
          "name": "A3",
          "midi": 57,
          "time": 393,
          "velocity": 1,
          "duration": 0.9375
        },
        {
          "name": "C#4",
          "midi": 61,
          "time": 393,
          "velocity": 1,
          "duration": 0.375
        },
        {
          "name": "A4",
          "midi": 69,
          "time": 393,
          "velocity": 1,
          "duration": 0.375
        },
        {
          "name": "G3",
          "midi": 55,
          "time": 393.375,
          "velocity": 1,
          "duration": 0.5625
        },
        {
          "name": "C4",
          "midi": 60,
          "time": 393.375,
          "velocity": 1,
          "duration": 0.5625
        },
        {
          "name": "A3",
          "midi": 57,
          "time": 393.375,
          "velocity": 1,
          "duration": 1.125
        },
        {
          "name": "G4",
          "midi": 67,
          "time": 393.375,
          "velocity": 1,
          "duration": 0.5625
        },
        {
          "name": "G3",
          "midi": 55,
          "time": 393.9375,
          "velocity": 1,
          "duration": 0.5625
        },
        {
          "name": "B3",
          "midi": 59,
          "time": 393.9375,
          "velocity": 1,
          "duration": 0.5625
        },
        {
          "name": "A3",
          "midi": 57,
          "time": 393.9375,
          "velocity": 1,
          "duration": 1.125
        },
        {
          "name": "G4",
          "midi": 67,
          "time": 393.9375,
          "velocity": 1,
          "duration": 0.5625
        },
        {
          "name": "F3",
          "midi": 53,
          "time": 394.5,
          "velocity": 1,
          "duration": 0.5625
        },
        {
          "name": "A#3",
          "midi": 58,
          "time": 394.5,
          "velocity": 1,
          "duration": 0.5625
        },
        {
          "name": "A3",
          "midi": 57,
          "time": 394.5,
          "velocity": 1,
          "duration": 0.5625
        },
        {
          "name": "F4",
          "midi": 65,
          "time": 394.5,
          "velocity": 1,
          "duration": 0.5625
        },
        {
          "name": "F3",
          "midi": 53,
          "time": 395.0625,
          "velocity": 1,
          "duration": 0.5625
        },
        {
          "name": "A3",
          "midi": 57,
          "time": 395.0625,
          "velocity": 1,
          "duration": 1.875
        },
        {
          "name": "F4",
          "midi": 65,
          "time": 395.0625,
          "velocity": 1,
          "duration": 0.5625
        },
        {
          "name": "F3",
          "midi": 53,
          "time": 395.625,
          "velocity": 1,
          "duration": 0.1875
        },
        {
          "name": "E3",
          "midi": 52,
          "time": 395.8125,
          "velocity": 1,
          "duration": 0.1875
        },
        {
          "name": "D3",
          "midi": 50,
          "time": 396,
          "velocity": 1,
          "duration": 6.375
        },
        {
          "name": "D4",
          "midi": 62,
          "time": 396.375,
          "velocity": 1,
          "duration": 1.125
        },
        {
          "name": "G4",
          "midi": 67,
          "time": 396.375,
          "velocity": 1,
          "duration": 0.5625
        },
        {
          "name": "A3",
          "midi": 57,
          "time": 396.375,
          "velocity": 1,
          "duration": 1.125
        },
        {
          "name": "D5",
          "midi": 74,
          "time": 396.375,
          "velocity": 1,
          "duration": 0.5625
        },
        {
          "name": "D4",
          "midi": 62,
          "time": 396.9375,
          "velocity": 1,
          "duration": 2.0625
        },
        {
          "name": "F#4",
          "midi": 66,
          "time": 396.9375,
          "velocity": 1,
          "duration": 0.5625
        },
        {
          "name": "A3",
          "midi": 57,
          "time": 396.9375,
          "velocity": 1,
          "duration": 1.125
        },
        {
          "name": "D5",
          "midi": 74,
          "time": 396.9375,
          "velocity": 1,
          "duration": 0.5625
        },
        {
          "name": "C4",
          "midi": 60,
          "time": 397.5,
          "velocity": 1,
          "duration": 0.5625
        },
        {
          "name": "F4",
          "midi": 65,
          "time": 397.5,
          "velocity": 1,
          "duration": 0.5625
        },
        {
          "name": "A3",
          "midi": 57,
          "time": 397.5,
          "velocity": 1,
          "duration": 1.125
        },
        {
          "name": "C5",
          "midi": 72,
          "time": 397.5,
          "velocity": 1,
          "duration": 0.5625
        },
        {
          "name": "C4",
          "midi": 60,
          "time": 398.0625,
          "velocity": 1,
          "duration": 0.5625
        },
        {
          "name": "E4",
          "midi": 64,
          "time": 398.0625,
          "velocity": 1,
          "duration": 10.3125
        },
        {
          "name": "A3",
          "midi": 57,
          "time": 398.0625,
          "velocity": 1,
          "duration": 0.5625
        },
        {
          "name": "C5",
          "midi": 72,
          "time": 398.0625,
          "velocity": 1,
          "duration": 0.5625
        },
        {
          "name": "A3",
          "midi": 57,
          "time": 398.625,
          "velocity": 1,
          "duration": 0.375
        },
        {
          "name": "D4",
          "midi": 62,
          "time": 398.625,
          "velocity": 1,
          "duration": 3.75
        },
        {
          "name": "A4",
          "midi": 69,
          "time": 398.625,
          "velocity": 1,
          "duration": 0.375
        },
        {
          "name": "A3",
          "midi": 57,
          "time": 399,
          "velocity": 1,
          "duration": 0.9375
        },
        {
          "name": "C#4",
          "midi": 61,
          "time": 399,
          "velocity": 1,
          "duration": 0.375
        },
        {
          "name": "A4",
          "midi": 69,
          "time": 399,
          "velocity": 1,
          "duration": 0.375
        },
        {
          "name": "G3",
          "midi": 55,
          "time": 399.375,
          "velocity": 1,
          "duration": 0.5625
        },
        {
          "name": "C4",
          "midi": 60,
          "time": 399.375,
          "velocity": 1,
          "duration": 0.5625
        },
        {
          "name": "A3",
          "midi": 57,
          "time": 399.375,
          "velocity": 1,
          "duration": 1.125
        },
        {
          "name": "G4",
          "midi": 67,
          "time": 399.375,
          "velocity": 1,
          "duration": 0.5625
        },
        {
          "name": "G3",
          "midi": 55,
          "time": 399.9375,
          "velocity": 1,
          "duration": 0.5625
        },
        {
          "name": "B3",
          "midi": 59,
          "time": 399.9375,
          "velocity": 1,
          "duration": 0.5625
        },
        {
          "name": "A3",
          "midi": 57,
          "time": 399.9375,
          "velocity": 1,
          "duration": 1.125
        },
        {
          "name": "G4",
          "midi": 67,
          "time": 399.9375,
          "velocity": 1,
          "duration": 0.5625
        },
        {
          "name": "F3",
          "midi": 53,
          "time": 400.5,
          "velocity": 1,
          "duration": 0.5625
        },
        {
          "name": "A#3",
          "midi": 58,
          "time": 400.5,
          "velocity": 1,
          "duration": 0.5625
        },
        {
          "name": "A3",
          "midi": 57,
          "time": 400.5,
          "velocity": 1,
          "duration": 0.5625
        },
        {
          "name": "F4",
          "midi": 65,
          "time": 400.5,
          "velocity": 1,
          "duration": 0.5625
        },
        {
          "name": "F3",
          "midi": 53,
          "time": 401.0625,
          "velocity": 1,
          "duration": 0.5625
        },
        {
          "name": "A3",
          "midi": 57,
          "time": 401.0625,
          "velocity": 1,
          "duration": 8.0625
        },
        {
          "name": "F4",
          "midi": 65,
          "time": 401.0625,
          "velocity": 1,
          "duration": 0.5625
        },
        {
          "name": "F3",
          "midi": 53,
          "time": 401.625,
          "velocity": 1,
          "duration": 0.1875
        },
        {
          "name": "E3",
          "midi": 52,
          "time": 401.8125,
          "velocity": 1,
          "duration": 0.1875
        },
        {
          "name": "D3",
          "midi": 50,
          "time": 402,
          "velocity": 1,
          "duration": 1.125
        },
        {
          "name": "G2",
          "midi": 43,
          "time": 402.375,
          "velocity": 1,
          "duration": 0.75
        },
        {
          "name": "D3",
          "midi": 50,
          "time": 402.375,
          "velocity": 1,
          "duration": 1.3125
        },
        {
          "name": "G3",
          "midi": 55,
          "time": 402.375,
          "velocity": 1,
          "duration": 0.75
        },
        {
          "name": "D4",
          "midi": 62,
          "time": 402.375,
          "velocity": 1,
          "duration": 0.75
        },
        {
          "name": "G4",
          "midi": 67,
          "time": 402.375,
          "velocity": 1,
          "duration": 0.75
        },
        {
          "name": "G2",
          "midi": 43,
          "time": 403.125,
          "velocity": 1,
          "duration": 0.5625
        },
        {
          "name": "D3",
          "midi": 50,
          "time": 403.125,
          "velocity": 1,
          "duration": 0.75
        },
        {
          "name": "G3",
          "midi": 55,
          "time": 403.125,
          "velocity": 1,
          "duration": 0.5625
        },
        {
          "name": "D4",
          "midi": 62,
          "time": 403.125,
          "velocity": 1,
          "duration": 0.5625
        },
        {
          "name": "G4",
          "midi": 67,
          "time": 403.125,
          "velocity": 1,
          "duration": 0.5625
        },
        {
          "name": "G2",
          "midi": 43,
          "time": 403.6875,
          "velocity": 1,
          "duration": 0.1875
        },
        {
          "name": "D3",
          "midi": 50,
          "time": 403.6875,
          "velocity": 1,
          "duration": 0.375
        },
        {
          "name": "G3",
          "midi": 55,
          "time": 403.6875,
          "velocity": 1,
          "duration": 0.1875
        },
        {
          "name": "D4",
          "midi": 62,
          "time": 403.6875,
          "velocity": 1,
          "duration": 0.1875
        },
        {
          "name": "G4",
          "midi": 67,
          "time": 403.6875,
          "velocity": 1,
          "duration": 0.1875
        },
        {
          "name": "G2",
          "midi": 43,
          "time": 403.875,
          "velocity": 1,
          "duration": 0.1875
        },
        {
          "name": "D3",
          "midi": 50,
          "time": 403.875,
          "velocity": 1,
          "duration": 0.375
        },
        {
          "name": "G3",
          "midi": 55,
          "time": 403.875,
          "velocity": 1,
          "duration": 0.1875
        },
        {
          "name": "D4",
          "midi": 62,
          "time": 403.875,
          "velocity": 1,
          "duration": 0.1875
        },
        {
          "name": "G4",
          "midi": 67,
          "time": 403.875,
          "velocity": 1,
          "duration": 0.1875
        },
        {
          "name": "G2",
          "midi": 43,
          "time": 404.0625,
          "velocity": 1,
          "duration": 0.1875
        },
        {
          "name": "D3",
          "midi": 50,
          "time": 404.0625,
          "velocity": 1,
          "duration": 0.9375
        },
        {
          "name": "G3",
          "midi": 55,
          "time": 404.0625,
          "velocity": 1,
          "duration": 0.1875
        },
        {
          "name": "D4",
          "midi": 62,
          "time": 404.0625,
          "velocity": 1,
          "duration": 0.1875
        },
        {
          "name": "G4",
          "midi": 67,
          "time": 404.0625,
          "velocity": 1,
          "duration": 0.1875
        },
        {
          "name": "G2",
          "midi": 43,
          "time": 404.25,
          "velocity": 1,
          "duration": 0.75
        },
        {
          "name": "D3",
          "midi": 50,
          "time": 404.25,
          "velocity": 1,
          "duration": 1.5
        },
        {
          "name": "G3",
          "midi": 55,
          "time": 404.25,
          "velocity": 1,
          "duration": 0.75
        },
        {
          "name": "D4",
          "midi": 62,
          "time": 404.25,
          "velocity": 1,
          "duration": 0.75
        },
        {
          "name": "G4",
          "midi": 67,
          "time": 404.25,
          "velocity": 1,
          "duration": 0.75
        },
        {
          "name": "G2",
          "midi": 43,
          "time": 405,
          "velocity": 1,
          "duration": 0.75
        },
        {
          "name": "D3",
          "midi": 50,
          "time": 405,
          "velocity": 1,
          "duration": 1.5
        },
        {
          "name": "G3",
          "midi": 55,
          "time": 405,
          "velocity": 1,
          "duration": 0.75
        },
        {
          "name": "D4",
          "midi": 62,
          "time": 405,
          "velocity": 1,
          "duration": 0.75
        },
        {
          "name": "G4",
          "midi": 67,
          "time": 405,
          "velocity": 1,
          "duration": 0.75
        },
        {
          "name": "G2",
          "midi": 43,
          "time": 405.75,
          "velocity": 1,
          "duration": 0.75
        },
        {
          "name": "D3",
          "midi": 50,
          "time": 405.75,
          "velocity": 1,
          "duration": 1.875
        },
        {
          "name": "G3",
          "midi": 55,
          "time": 405.75,
          "velocity": 1,
          "duration": 0.75
        },
        {
          "name": "D4",
          "midi": 62,
          "time": 405.75,
          "velocity": 1,
          "duration": 0.75
        },
        {
          "name": "G4",
          "midi": 67,
          "time": 405.75,
          "velocity": 1,
          "duration": 0.75
        },
        {
          "name": "G2",
          "midi": 43,
          "time": 406.5,
          "velocity": 1,
          "duration": 1.125
        },
        {
          "name": "D3",
          "midi": 50,
          "time": 406.5,
          "velocity": 1,
          "duration": 1.3125
        },
        {
          "name": "G3",
          "midi": 55,
          "time": 406.5,
          "velocity": 1,
          "duration": 1.125
        },
        {
          "name": "D4",
          "midi": 62,
          "time": 406.5,
          "velocity": 1,
          "duration": 1.125
        },
        {
          "name": "G4",
          "midi": 67,
          "time": 406.5,
          "velocity": 1,
          "duration": 1.125
        },
        {
          "name": "G2",
          "midi": 43,
          "time": 407.625,
          "velocity": 1,
          "duration": 0.1875
        },
        {
          "name": "D3",
          "midi": 50,
          "time": 407.625,
          "velocity": 1,
          "duration": 0.375
        },
        {
          "name": "G3",
          "midi": 55,
          "time": 407.625,
          "velocity": 1,
          "duration": 0.1875
        },
        {
          "name": "D4",
          "midi": 62,
          "time": 407.625,
          "velocity": 1,
          "duration": 0.1875
        },
        {
          "name": "G4",
          "midi": 67,
          "time": 407.625,
          "velocity": 1,
          "duration": 0.1875
        },
        {
          "name": "G2",
          "midi": 43,
          "time": 407.8125,
          "velocity": 1,
          "duration": 0.1875
        },
        {
          "name": "D3",
          "midi": 50,
          "time": 407.8125,
          "velocity": 1,
          "duration": 0.5625
        },
        {
          "name": "G3",
          "midi": 55,
          "time": 407.8125,
          "velocity": 1,
          "duration": 0.1875
        },
        {
          "name": "D4",
          "midi": 62,
          "time": 407.8125,
          "velocity": 1,
          "duration": 0.1875
        },
        {
          "name": "G4",
          "midi": 67,
          "time": 407.8125,
          "velocity": 1,
          "duration": 0.1875
        },
        {
          "name": "G2",
          "midi": 43,
          "time": 408,
          "velocity": 1,
          "duration": 0.375
        },
        {
          "name": "D3",
          "midi": 50,
          "time": 408,
          "velocity": 1,
          "duration": 7.125
        },
        {
          "name": "G3",
          "midi": 55,
          "time": 408,
          "velocity": 1,
          "duration": 0.375
        },
        {
          "name": "D4",
          "midi": 62,
          "time": 408,
          "velocity": 1,
          "duration": 6.375
        },
        {
          "name": "G4",
          "midi": 67,
          "time": 408,
          "velocity": 1,
          "duration": 0.375
        },
        {
          "name": "A2",
          "midi": 45,
          "time": 408.375,
          "velocity": 1,
          "duration": 0.75
        },
        {
          "name": "E3",
          "midi": 52,
          "time": 408.375,
          "velocity": 1,
          "duration": 0.75
        },
        {
          "name": "A3",
          "midi": 57,
          "time": 408.375,
          "velocity": 1,
          "duration": 1.3125
        },
        {
          "name": "E4",
          "midi": 64,
          "time": 408.375,
          "velocity": 1,
          "duration": 0.75
        },
        {
          "name": "A4",
          "midi": 69,
          "time": 408.375,
          "velocity": 1,
          "duration": 0.75
        },
        {
          "name": "A2",
          "midi": 45,
          "time": 409.125,
          "velocity": 1,
          "duration": 0.5625
        },
        {
          "name": "E3",
          "midi": 52,
          "time": 409.125,
          "velocity": 1,
          "duration": 0.5625
        },
        {
          "name": "A3",
          "midi": 57,
          "time": 409.125,
          "velocity": 1,
          "duration": 0.75
        },
        {
          "name": "E4",
          "midi": 64,
          "time": 409.125,
          "velocity": 1,
          "duration": 0.5625
        },
        {
          "name": "A4",
          "midi": 69,
          "time": 409.125,
          "velocity": 1,
          "duration": 0.5625
        },
        {
          "name": "A2",
          "midi": 45,
          "time": 409.6875,
          "velocity": 1,
          "duration": 0.1875
        },
        {
          "name": "E3",
          "midi": 52,
          "time": 409.6875,
          "velocity": 1,
          "duration": 0.1875
        },
        {
          "name": "A3",
          "midi": 57,
          "time": 409.6875,
          "velocity": 1,
          "duration": 0.375
        },
        {
          "name": "E4",
          "midi": 64,
          "time": 409.6875,
          "velocity": 1,
          "duration": 0.1875
        },
        {
          "name": "A4",
          "midi": 69,
          "time": 409.6875,
          "velocity": 1,
          "duration": 0.1875
        },
        {
          "name": "A2",
          "midi": 45,
          "time": 409.875,
          "velocity": 1,
          "duration": 0.1875
        },
        {
          "name": "E3",
          "midi": 52,
          "time": 409.875,
          "velocity": 1,
          "duration": 0.1875
        },
        {
          "name": "A3",
          "midi": 57,
          "time": 409.875,
          "velocity": 1,
          "duration": 0.375
        },
        {
          "name": "E4",
          "midi": 64,
          "time": 409.875,
          "velocity": 1,
          "duration": 0.1875
        },
        {
          "name": "A4",
          "midi": 69,
          "time": 409.875,
          "velocity": 1,
          "duration": 0.1875
        },
        {
          "name": "A2",
          "midi": 45,
          "time": 410.0625,
          "velocity": 1,
          "duration": 0.1875
        },
        {
          "name": "E3",
          "midi": 52,
          "time": 410.0625,
          "velocity": 1,
          "duration": 0.1875
        },
        {
          "name": "A3",
          "midi": 57,
          "time": 410.0625,
          "velocity": 1,
          "duration": 0.9375
        },
        {
          "name": "E4",
          "midi": 64,
          "time": 410.0625,
          "velocity": 1,
          "duration": 0.1875
        },
        {
          "name": "A4",
          "midi": 69,
          "time": 410.0625,
          "velocity": 1,
          "duration": 0.1875
        },
        {
          "name": "A2",
          "midi": 45,
          "time": 410.25,
          "velocity": 1,
          "duration": 0.75
        },
        {
          "name": "E3",
          "midi": 52,
          "time": 410.25,
          "velocity": 1,
          "duration": 0.75
        },
        {
          "name": "A3",
          "midi": 57,
          "time": 410.25,
          "velocity": 1,
          "duration": 1.5
        },
        {
          "name": "E4",
          "midi": 64,
          "time": 410.25,
          "velocity": 1,
          "duration": 0.75
        },
        {
          "name": "A4",
          "midi": 69,
          "time": 410.25,
          "velocity": 1,
          "duration": 0.75
        },
        {
          "name": "A2",
          "midi": 45,
          "time": 411,
          "velocity": 1,
          "duration": 0.75
        },
        {
          "name": "E3",
          "midi": 52,
          "time": 411,
          "velocity": 1,
          "duration": 0.75
        },
        {
          "name": "A3",
          "midi": 57,
          "time": 411,
          "velocity": 1,
          "duration": 1.125
        },
        {
          "name": "E4",
          "midi": 64,
          "time": 411,
          "velocity": 1,
          "duration": 0.75
        },
        {
          "name": "A4",
          "midi": 69,
          "time": 411,
          "velocity": 1,
          "duration": 0.75
        },
        {
          "name": "A2",
          "midi": 45,
          "time": 411.75,
          "velocity": 1,
          "duration": 0.375
        },
        {
          "name": "E3",
          "midi": 52,
          "time": 411.75,
          "velocity": 1,
          "duration": 0.375
        },
        {
          "name": "A3",
          "midi": 57,
          "time": 411.75,
          "velocity": 1,
          "duration": 1.875
        },
        {
          "name": "E4",
          "midi": 64,
          "time": 411.75,
          "velocity": 1,
          "duration": 0.375
        },
        {
          "name": "A4",
          "midi": 69,
          "time": 411.75,
          "velocity": 1,
          "duration": 0.375
        },
        {
          "name": "A2",
          "midi": 45,
          "time": 412.125,
          "velocity": 1,
          "duration": 1.5
        },
        {
          "name": "E3",
          "midi": 52,
          "time": 412.125,
          "velocity": 1,
          "duration": 1.5
        },
        {
          "name": "A3",
          "midi": 57,
          "time": 412.125,
          "velocity": 1,
          "duration": 1.875
        },
        {
          "name": "E4",
          "midi": 64,
          "time": 412.125,
          "velocity": 1,
          "duration": 1.5
        },
        {
          "name": "A4",
          "midi": 69,
          "time": 412.125,
          "velocity": 1,
          "duration": 1.5
        },
        {
          "name": "A2",
          "midi": 45,
          "time": 413.625,
          "velocity": 1,
          "duration": 0.375
        },
        {
          "name": "E3",
          "midi": 52,
          "time": 413.625,
          "velocity": 1,
          "duration": 0.375
        },
        {
          "name": "A3",
          "midi": 57,
          "time": 413.625,
          "velocity": 1,
          "duration": 0.5625
        },
        {
          "name": "E4",
          "midi": 64,
          "time": 413.625,
          "velocity": 1,
          "duration": 0.375
        },
        {
          "name": "A4",
          "midi": 69,
          "time": 413.625,
          "velocity": 1,
          "duration": 0.375
        },
        {
          "name": "A2",
          "midi": 45,
          "time": 414,
          "velocity": 1,
          "duration": 0.1875
        },
        {
          "name": "E3",
          "midi": 52,
          "time": 414,
          "velocity": 1,
          "duration": 0.1875
        },
        {
          "name": "A3",
          "midi": 57,
          "time": 414,
          "velocity": 1,
          "duration": 0.375
        },
        {
          "name": "E4",
          "midi": 64,
          "time": 414,
          "velocity": 1,
          "duration": 0.1875
        },
        {
          "name": "A4",
          "midi": 69,
          "time": 414,
          "velocity": 1,
          "duration": 0.1875
        },
        {
          "name": "A2",
          "midi": 45,
          "time": 414.1875,
          "velocity": 1,
          "duration": 0.1875
        },
        {
          "name": "E3",
          "midi": 52,
          "time": 414.1875,
          "velocity": 1,
          "duration": 0.1875
        },
        {
          "name": "A3",
          "midi": 57,
          "time": 414.1875,
          "velocity": 1,
          "duration": 6.9375
        },
        {
          "name": "E4",
          "midi": 64,
          "time": 414.1875,
          "velocity": 1,
          "duration": 6.1875
        },
        {
          "name": "A4",
          "midi": 69,
          "time": 414.1875,
          "velocity": 1,
          "duration": 0.1875
        },
        {
          "name": "G2",
          "midi": 43,
          "time": 414.375,
          "velocity": 1,
          "duration": 0.75
        },
        {
          "name": "D3",
          "midi": 50,
          "time": 414.375,
          "velocity": 1,
          "duration": 1.3125
        },
        {
          "name": "G3",
          "midi": 55,
          "time": 414.375,
          "velocity": 1,
          "duration": 0.75
        },
        {
          "name": "D4",
          "midi": 62,
          "time": 414.375,
          "velocity": 1,
          "duration": 0.75
        },
        {
          "name": "G4",
          "midi": 67,
          "time": 414.375,
          "velocity": 1,
          "duration": 0.75
        },
        {
          "name": "G2",
          "midi": 43,
          "time": 415.125,
          "velocity": 1,
          "duration": 0.5625
        },
        {
          "name": "D3",
          "midi": 50,
          "time": 415.125,
          "velocity": 1,
          "duration": 0.75
        },
        {
          "name": "G3",
          "midi": 55,
          "time": 415.125,
          "velocity": 1,
          "duration": 0.5625
        },
        {
          "name": "D4",
          "midi": 62,
          "time": 415.125,
          "velocity": 1,
          "duration": 0.5625
        },
        {
          "name": "G4",
          "midi": 67,
          "time": 415.125,
          "velocity": 1,
          "duration": 0.5625
        },
        {
          "name": "G2",
          "midi": 43,
          "time": 415.6875,
          "velocity": 1,
          "duration": 0.1875
        },
        {
          "name": "D3",
          "midi": 50,
          "time": 415.6875,
          "velocity": 1,
          "duration": 0.375
        },
        {
          "name": "G3",
          "midi": 55,
          "time": 415.6875,
          "velocity": 1,
          "duration": 0.1875
        },
        {
          "name": "D4",
          "midi": 62,
          "time": 415.6875,
          "velocity": 1,
          "duration": 0.1875
        },
        {
          "name": "G4",
          "midi": 67,
          "time": 415.6875,
          "velocity": 1,
          "duration": 0.1875
        },
        {
          "name": "G2",
          "midi": 43,
          "time": 415.875,
          "velocity": 1,
          "duration": 0.1875
        },
        {
          "name": "D3",
          "midi": 50,
          "time": 415.875,
          "velocity": 1,
          "duration": 0.375
        },
        {
          "name": "G3",
          "midi": 55,
          "time": 415.875,
          "velocity": 1,
          "duration": 0.1875
        },
        {
          "name": "D4",
          "midi": 62,
          "time": 415.875,
          "velocity": 1,
          "duration": 0.1875
        },
        {
          "name": "G4",
          "midi": 67,
          "time": 415.875,
          "velocity": 1,
          "duration": 0.1875
        },
        {
          "name": "G2",
          "midi": 43,
          "time": 416.0625,
          "velocity": 1,
          "duration": 0.1875
        },
        {
          "name": "D3",
          "midi": 50,
          "time": 416.0625,
          "velocity": 1,
          "duration": 0.9375
        },
        {
          "name": "G3",
          "midi": 55,
          "time": 416.0625,
          "velocity": 1,
          "duration": 0.1875
        },
        {
          "name": "D4",
          "midi": 62,
          "time": 416.0625,
          "velocity": 1,
          "duration": 0.1875
        },
        {
          "name": "G4",
          "midi": 67,
          "time": 416.0625,
          "velocity": 1,
          "duration": 0.1875
        },
        {
          "name": "G2",
          "midi": 43,
          "time": 416.25,
          "velocity": 1,
          "duration": 0.75
        },
        {
          "name": "D3",
          "midi": 50,
          "time": 416.25,
          "velocity": 1,
          "duration": 1.5
        },
        {
          "name": "G3",
          "midi": 55,
          "time": 416.25,
          "velocity": 1,
          "duration": 0.75
        },
        {
          "name": "D4",
          "midi": 62,
          "time": 416.25,
          "velocity": 1,
          "duration": 0.75
        },
        {
          "name": "G4",
          "midi": 67,
          "time": 416.25,
          "velocity": 1,
          "duration": 0.75
        },
        {
          "name": "G2",
          "midi": 43,
          "time": 417,
          "velocity": 1,
          "duration": 0.75
        },
        {
          "name": "D3",
          "midi": 50,
          "time": 417,
          "velocity": 1,
          "duration": 1.5
        },
        {
          "name": "G3",
          "midi": 55,
          "time": 417,
          "velocity": 1,
          "duration": 0.75
        },
        {
          "name": "D4",
          "midi": 62,
          "time": 417,
          "velocity": 1,
          "duration": 0.75
        },
        {
          "name": "G4",
          "midi": 67,
          "time": 417,
          "velocity": 1,
          "duration": 0.75
        },
        {
          "name": "G2",
          "midi": 43,
          "time": 417.75,
          "velocity": 1,
          "duration": 0.75
        },
        {
          "name": "D3",
          "midi": 50,
          "time": 417.75,
          "velocity": 1,
          "duration": 1.875
        },
        {
          "name": "G3",
          "midi": 55,
          "time": 417.75,
          "velocity": 1,
          "duration": 0.75
        },
        {
          "name": "D4",
          "midi": 62,
          "time": 417.75,
          "velocity": 1,
          "duration": 0.75
        },
        {
          "name": "G4",
          "midi": 67,
          "time": 417.75,
          "velocity": 1,
          "duration": 0.75
        },
        {
          "name": "G2",
          "midi": 43,
          "time": 418.5,
          "velocity": 1,
          "duration": 1.125
        },
        {
          "name": "D3",
          "midi": 50,
          "time": 418.5,
          "velocity": 1,
          "duration": 1.3125
        },
        {
          "name": "G3",
          "midi": 55,
          "time": 418.5,
          "velocity": 1,
          "duration": 1.125
        },
        {
          "name": "D4",
          "midi": 62,
          "time": 418.5,
          "velocity": 1,
          "duration": 1.125
        },
        {
          "name": "G4",
          "midi": 67,
          "time": 418.5,
          "velocity": 1,
          "duration": 1.125
        },
        {
          "name": "G2",
          "midi": 43,
          "time": 419.625,
          "velocity": 1,
          "duration": 0.1875
        },
        {
          "name": "D3",
          "midi": 50,
          "time": 419.625,
          "velocity": 1,
          "duration": 0.375
        },
        {
          "name": "G3",
          "midi": 55,
          "time": 419.625,
          "velocity": 1,
          "duration": 0.1875
        },
        {
          "name": "D4",
          "midi": 62,
          "time": 419.625,
          "velocity": 1,
          "duration": 0.1875
        },
        {
          "name": "G4",
          "midi": 67,
          "time": 419.625,
          "velocity": 1,
          "duration": 0.1875
        },
        {
          "name": "G2",
          "midi": 43,
          "time": 419.8125,
          "velocity": 1,
          "duration": 0.1875
        },
        {
          "name": "D3",
          "midi": 50,
          "time": 419.8125,
          "velocity": 1,
          "duration": 0.5625
        },
        {
          "name": "G3",
          "midi": 55,
          "time": 419.8125,
          "velocity": 1,
          "duration": 0.1875
        },
        {
          "name": "D4",
          "midi": 62,
          "time": 419.8125,
          "velocity": 1,
          "duration": 0.1875
        },
        {
          "name": "G4",
          "midi": 67,
          "time": 419.8125,
          "velocity": 1,
          "duration": 0.1875
        },
        {
          "name": "G2",
          "midi": 43,
          "time": 420,
          "velocity": 1,
          "duration": 0.375
        },
        {
          "name": "D3",
          "midi": 50,
          "time": 420,
          "velocity": 1,
          "duration": 7.125
        },
        {
          "name": "G3",
          "midi": 55,
          "time": 420,
          "velocity": 1,
          "duration": 0.375
        },
        {
          "name": "D4",
          "midi": 62,
          "time": 420,
          "velocity": 1,
          "duration": 6.375
        },
        {
          "name": "G4",
          "midi": 67,
          "time": 420,
          "velocity": 1,
          "duration": 0.375
        },
        {
          "name": "A2",
          "midi": 45,
          "time": 420.375,
          "velocity": 1,
          "duration": 0.75
        },
        {
          "name": "E3",
          "midi": 52,
          "time": 420.375,
          "velocity": 1,
          "duration": 0.75
        },
        {
          "name": "A3",
          "midi": 57,
          "time": 420.375,
          "velocity": 1,
          "duration": 1.3125
        },
        {
          "name": "E4",
          "midi": 64,
          "time": 420.375,
          "velocity": 1,
          "duration": 0.75
        },
        {
          "name": "A4",
          "midi": 69,
          "time": 420.375,
          "velocity": 1,
          "duration": 0.75
        },
        {
          "name": "A2",
          "midi": 45,
          "time": 421.125,
          "velocity": 1,
          "duration": 0.5625
        },
        {
          "name": "E3",
          "midi": 52,
          "time": 421.125,
          "velocity": 1,
          "duration": 0.5625
        },
        {
          "name": "A3",
          "midi": 57,
          "time": 421.125,
          "velocity": 1,
          "duration": 0.75
        },
        {
          "name": "E4",
          "midi": 64,
          "time": 421.125,
          "velocity": 1,
          "duration": 0.5625
        },
        {
          "name": "A4",
          "midi": 69,
          "time": 421.125,
          "velocity": 1,
          "duration": 0.5625
        },
        {
          "name": "A2",
          "midi": 45,
          "time": 421.6875,
          "velocity": 1,
          "duration": 0.1875
        },
        {
          "name": "E3",
          "midi": 52,
          "time": 421.6875,
          "velocity": 1,
          "duration": 0.1875
        },
        {
          "name": "A3",
          "midi": 57,
          "time": 421.6875,
          "velocity": 1,
          "duration": 0.375
        },
        {
          "name": "E4",
          "midi": 64,
          "time": 421.6875,
          "velocity": 1,
          "duration": 0.1875
        },
        {
          "name": "A4",
          "midi": 69,
          "time": 421.6875,
          "velocity": 1,
          "duration": 0.1875
        },
        {
          "name": "A2",
          "midi": 45,
          "time": 421.875,
          "velocity": 1,
          "duration": 0.1875
        },
        {
          "name": "E3",
          "midi": 52,
          "time": 421.875,
          "velocity": 1,
          "duration": 0.1875
        },
        {
          "name": "A3",
          "midi": 57,
          "time": 421.875,
          "velocity": 1,
          "duration": 0.375
        },
        {
          "name": "E4",
          "midi": 64,
          "time": 421.875,
          "velocity": 1,
          "duration": 0.1875
        },
        {
          "name": "A4",
          "midi": 69,
          "time": 421.875,
          "velocity": 1,
          "duration": 0.1875
        },
        {
          "name": "A2",
          "midi": 45,
          "time": 422.0625,
          "velocity": 1,
          "duration": 0.1875
        },
        {
          "name": "E3",
          "midi": 52,
          "time": 422.0625,
          "velocity": 1,
          "duration": 0.1875
        },
        {
          "name": "A3",
          "midi": 57,
          "time": 422.0625,
          "velocity": 1,
          "duration": 0.9375
        },
        {
          "name": "E4",
          "midi": 64,
          "time": 422.0625,
          "velocity": 1,
          "duration": 0.1875
        },
        {
          "name": "A4",
          "midi": 69,
          "time": 422.0625,
          "velocity": 1,
          "duration": 0.1875
        },
        {
          "name": "A2",
          "midi": 45,
          "time": 422.25,
          "velocity": 1,
          "duration": 0.75
        },
        {
          "name": "E3",
          "midi": 52,
          "time": 422.25,
          "velocity": 1,
          "duration": 0.75
        },
        {
          "name": "A3",
          "midi": 57,
          "time": 422.25,
          "velocity": 1,
          "duration": 1.5
        },
        {
          "name": "E4",
          "midi": 64,
          "time": 422.25,
          "velocity": 1,
          "duration": 0.75
        },
        {
          "name": "A4",
          "midi": 69,
          "time": 422.25,
          "velocity": 1,
          "duration": 0.75
        },
        {
          "name": "A2",
          "midi": 45,
          "time": 423,
          "velocity": 1,
          "duration": 0.75
        },
        {
          "name": "E3",
          "midi": 52,
          "time": 423,
          "velocity": 1,
          "duration": 0.75
        },
        {
          "name": "A3",
          "midi": 57,
          "time": 423,
          "velocity": 1,
          "duration": 1.125
        },
        {
          "name": "E4",
          "midi": 64,
          "time": 423,
          "velocity": 1,
          "duration": 0.75
        },
        {
          "name": "A4",
          "midi": 69,
          "time": 423,
          "velocity": 1,
          "duration": 0.75
        },
        {
          "name": "A2",
          "midi": 45,
          "time": 423.75,
          "velocity": 1,
          "duration": 0.375
        },
        {
          "name": "E3",
          "midi": 52,
          "time": 423.75,
          "velocity": 1,
          "duration": 0.375
        },
        {
          "name": "A3",
          "midi": 57,
          "time": 423.75,
          "velocity": 1,
          "duration": 1.875
        },
        {
          "name": "E4",
          "midi": 64,
          "time": 423.75,
          "velocity": 1,
          "duration": 0.375
        },
        {
          "name": "A4",
          "midi": 69,
          "time": 423.75,
          "velocity": 1,
          "duration": 0.375
        },
        {
          "name": "A2",
          "midi": 45,
          "time": 424.125,
          "velocity": 1,
          "duration": 1.5
        },
        {
          "name": "E3",
          "midi": 52,
          "time": 424.125,
          "velocity": 1,
          "duration": 1.5
        },
        {
          "name": "A3",
          "midi": 57,
          "time": 424.125,
          "velocity": 1,
          "duration": 1.875
        },
        {
          "name": "E4",
          "midi": 64,
          "time": 424.125,
          "velocity": 1,
          "duration": 1.5
        },
        {
          "name": "A4",
          "midi": 69,
          "time": 424.125,
          "velocity": 1,
          "duration": 1.5
        },
        {
          "name": "A2",
          "midi": 45,
          "time": 425.625,
          "velocity": 1,
          "duration": 0.375
        },
        {
          "name": "E3",
          "midi": 52,
          "time": 425.625,
          "velocity": 1,
          "duration": 0.375
        },
        {
          "name": "A3",
          "midi": 57,
          "time": 425.625,
          "velocity": 1,
          "duration": 0.5625
        },
        {
          "name": "E4",
          "midi": 64,
          "time": 425.625,
          "velocity": 1,
          "duration": 0.375
        },
        {
          "name": "A4",
          "midi": 69,
          "time": 425.625,
          "velocity": 1,
          "duration": 0.375
        },
        {
          "name": "A2",
          "midi": 45,
          "time": 426,
          "velocity": 1,
          "duration": 0.1875
        },
        {
          "name": "E3",
          "midi": 52,
          "time": 426,
          "velocity": 1,
          "duration": 0.1875
        },
        {
          "name": "A3",
          "midi": 57,
          "time": 426,
          "velocity": 1,
          "duration": 0.375
        },
        {
          "name": "E4",
          "midi": 64,
          "time": 426,
          "velocity": 1,
          "duration": 0.1875
        },
        {
          "name": "A4",
          "midi": 69,
          "time": 426,
          "velocity": 1,
          "duration": 0.1875
        },
        {
          "name": "A2",
          "midi": 45,
          "time": 426.1875,
          "velocity": 1,
          "duration": 0.1875
        },
        {
          "name": "E3",
          "midi": 52,
          "time": 426.1875,
          "velocity": 1,
          "duration": 0.1875
        },
        {
          "name": "A3",
          "midi": 57,
          "time": 426.1875,
          "velocity": 1,
          "duration": 6.9375
        },
        {
          "name": "E4",
          "midi": 64,
          "time": 426.1875,
          "velocity": 1,
          "duration": 6.1875
        },
        {
          "name": "A4",
          "midi": 69,
          "time": 426.1875,
          "velocity": 1,
          "duration": 0.1875
        },
        {
          "name": "G2",
          "midi": 43,
          "time": 426.375,
          "velocity": 1,
          "duration": 0.75
        },
        {
          "name": "D3",
          "midi": 50,
          "time": 426.375,
          "velocity": 1,
          "duration": 1.3125
        },
        {
          "name": "G3",
          "midi": 55,
          "time": 426.375,
          "velocity": 1,
          "duration": 0.75
        },
        {
          "name": "D4",
          "midi": 62,
          "time": 426.375,
          "velocity": 1,
          "duration": 0.75
        },
        {
          "name": "G4",
          "midi": 67,
          "time": 426.375,
          "velocity": 1,
          "duration": 0.75
        },
        {
          "name": "G2",
          "midi": 43,
          "time": 427.125,
          "velocity": 1,
          "duration": 0.5625
        },
        {
          "name": "D3",
          "midi": 50,
          "time": 427.125,
          "velocity": 1,
          "duration": 0.75
        },
        {
          "name": "G3",
          "midi": 55,
          "time": 427.125,
          "velocity": 1,
          "duration": 0.5625
        },
        {
          "name": "D4",
          "midi": 62,
          "time": 427.125,
          "velocity": 1,
          "duration": 0.5625
        },
        {
          "name": "G4",
          "midi": 67,
          "time": 427.125,
          "velocity": 1,
          "duration": 0.5625
        },
        {
          "name": "G2",
          "midi": 43,
          "time": 427.6875,
          "velocity": 1,
          "duration": 0.1875
        },
        {
          "name": "D3",
          "midi": 50,
          "time": 427.6875,
          "velocity": 1,
          "duration": 0.375
        },
        {
          "name": "G3",
          "midi": 55,
          "time": 427.6875,
          "velocity": 1,
          "duration": 0.1875
        },
        {
          "name": "D4",
          "midi": 62,
          "time": 427.6875,
          "velocity": 1,
          "duration": 0.1875
        },
        {
          "name": "G4",
          "midi": 67,
          "time": 427.6875,
          "velocity": 1,
          "duration": 0.1875
        },
        {
          "name": "G2",
          "midi": 43,
          "time": 427.875,
          "velocity": 1,
          "duration": 0.1875
        },
        {
          "name": "D3",
          "midi": 50,
          "time": 427.875,
          "velocity": 1,
          "duration": 0.375
        },
        {
          "name": "G3",
          "midi": 55,
          "time": 427.875,
          "velocity": 1,
          "duration": 0.1875
        },
        {
          "name": "D4",
          "midi": 62,
          "time": 427.875,
          "velocity": 1,
          "duration": 0.1875
        },
        {
          "name": "G4",
          "midi": 67,
          "time": 427.875,
          "velocity": 1,
          "duration": 0.1875
        },
        {
          "name": "G2",
          "midi": 43,
          "time": 428.0625,
          "velocity": 1,
          "duration": 0.1875
        },
        {
          "name": "D3",
          "midi": 50,
          "time": 428.0625,
          "velocity": 1,
          "duration": 0.9375
        },
        {
          "name": "G3",
          "midi": 55,
          "time": 428.0625,
          "velocity": 1,
          "duration": 0.1875
        },
        {
          "name": "D4",
          "midi": 62,
          "time": 428.0625,
          "velocity": 1,
          "duration": 0.1875
        },
        {
          "name": "G4",
          "midi": 67,
          "time": 428.0625,
          "velocity": 1,
          "duration": 0.1875
        },
        {
          "name": "G2",
          "midi": 43,
          "time": 428.25,
          "velocity": 1,
          "duration": 0.75
        },
        {
          "name": "D3",
          "midi": 50,
          "time": 428.25,
          "velocity": 1,
          "duration": 1.5
        },
        {
          "name": "G3",
          "midi": 55,
          "time": 428.25,
          "velocity": 1,
          "duration": 0.75
        },
        {
          "name": "D4",
          "midi": 62,
          "time": 428.25,
          "velocity": 1,
          "duration": 0.75
        },
        {
          "name": "G4",
          "midi": 67,
          "time": 428.25,
          "velocity": 1,
          "duration": 0.75
        },
        {
          "name": "G2",
          "midi": 43,
          "time": 429,
          "velocity": 1,
          "duration": 0.75
        },
        {
          "name": "D3",
          "midi": 50,
          "time": 429,
          "velocity": 1,
          "duration": 1.5
        },
        {
          "name": "G3",
          "midi": 55,
          "time": 429,
          "velocity": 1,
          "duration": 0.75
        },
        {
          "name": "D4",
          "midi": 62,
          "time": 429,
          "velocity": 1,
          "duration": 0.75
        },
        {
          "name": "G4",
          "midi": 67,
          "time": 429,
          "velocity": 1,
          "duration": 0.75
        },
        {
          "name": "G2",
          "midi": 43,
          "time": 429.75,
          "velocity": 1,
          "duration": 0.75
        },
        {
          "name": "D3",
          "midi": 50,
          "time": 429.75,
          "velocity": 1,
          "duration": 1.875
        },
        {
          "name": "G3",
          "midi": 55,
          "time": 429.75,
          "velocity": 1,
          "duration": 0.75
        },
        {
          "name": "D4",
          "midi": 62,
          "time": 429.75,
          "velocity": 1,
          "duration": 0.75
        },
        {
          "name": "G4",
          "midi": 67,
          "time": 429.75,
          "velocity": 1,
          "duration": 0.75
        },
        {
          "name": "G2",
          "midi": 43,
          "time": 430.5,
          "velocity": 1,
          "duration": 1.125
        },
        {
          "name": "D3",
          "midi": 50,
          "time": 430.5,
          "velocity": 1,
          "duration": 1.3125
        },
        {
          "name": "G3",
          "midi": 55,
          "time": 430.5,
          "velocity": 1,
          "duration": 1.125
        },
        {
          "name": "D4",
          "midi": 62,
          "time": 430.5,
          "velocity": 1,
          "duration": 1.125
        },
        {
          "name": "G4",
          "midi": 67,
          "time": 430.5,
          "velocity": 1,
          "duration": 1.125
        },
        {
          "name": "G2",
          "midi": 43,
          "time": 431.625,
          "velocity": 1,
          "duration": 0.1875
        },
        {
          "name": "D3",
          "midi": 50,
          "time": 431.625,
          "velocity": 1,
          "duration": 0.375
        },
        {
          "name": "G3",
          "midi": 55,
          "time": 431.625,
          "velocity": 1,
          "duration": 0.1875
        },
        {
          "name": "D4",
          "midi": 62,
          "time": 431.625,
          "velocity": 1,
          "duration": 0.1875
        },
        {
          "name": "G4",
          "midi": 67,
          "time": 431.625,
          "velocity": 1,
          "duration": 0.1875
        },
        {
          "name": "G2",
          "midi": 43,
          "time": 431.8125,
          "velocity": 1,
          "duration": 0.1875
        },
        {
          "name": "D3",
          "midi": 50,
          "time": 431.8125,
          "velocity": 1,
          "duration": 0.5625
        },
        {
          "name": "G3",
          "midi": 55,
          "time": 431.8125,
          "velocity": 1,
          "duration": 0.1875
        },
        {
          "name": "D4",
          "midi": 62,
          "time": 431.8125,
          "velocity": 1,
          "duration": 0.1875
        },
        {
          "name": "G4",
          "midi": 67,
          "time": 431.8125,
          "velocity": 1,
          "duration": 0.1875
        },
        {
          "name": "G2",
          "midi": 43,
          "time": 432,
          "velocity": 1,
          "duration": 0.375
        },
        {
          "name": "D3",
          "midi": 50,
          "time": 432,
          "velocity": 1,
          "duration": 7.125
        },
        {
          "name": "G3",
          "midi": 55,
          "time": 432,
          "velocity": 1,
          "duration": 0.375
        },
        {
          "name": "D4",
          "midi": 62,
          "time": 432,
          "velocity": 1,
          "duration": 6.375
        },
        {
          "name": "G4",
          "midi": 67,
          "time": 432,
          "velocity": 1,
          "duration": 0.375
        },
        {
          "name": "A2",
          "midi": 45,
          "time": 432.375,
          "velocity": 1,
          "duration": 0.75
        },
        {
          "name": "E3",
          "midi": 52,
          "time": 432.375,
          "velocity": 1,
          "duration": 0.75
        },
        {
          "name": "A3",
          "midi": 57,
          "time": 432.375,
          "velocity": 1,
          "duration": 1.3125
        },
        {
          "name": "E4",
          "midi": 64,
          "time": 432.375,
          "velocity": 1,
          "duration": 0.75
        },
        {
          "name": "A4",
          "midi": 69,
          "time": 432.375,
          "velocity": 1,
          "duration": 0.75
        },
        {
          "name": "A2",
          "midi": 45,
          "time": 433.125,
          "velocity": 1,
          "duration": 0.5625
        },
        {
          "name": "E3",
          "midi": 52,
          "time": 433.125,
          "velocity": 1,
          "duration": 0.5625
        },
        {
          "name": "A3",
          "midi": 57,
          "time": 433.125,
          "velocity": 1,
          "duration": 0.75
        },
        {
          "name": "E4",
          "midi": 64,
          "time": 433.125,
          "velocity": 1,
          "duration": 0.5625
        },
        {
          "name": "A4",
          "midi": 69,
          "time": 433.125,
          "velocity": 1,
          "duration": 0.5625
        },
        {
          "name": "A2",
          "midi": 45,
          "time": 433.6875,
          "velocity": 1,
          "duration": 0.1875
        },
        {
          "name": "E3",
          "midi": 52,
          "time": 433.6875,
          "velocity": 1,
          "duration": 0.1875
        },
        {
          "name": "A3",
          "midi": 57,
          "time": 433.6875,
          "velocity": 1,
          "duration": 0.375
        },
        {
          "name": "E4",
          "midi": 64,
          "time": 433.6875,
          "velocity": 1,
          "duration": 0.1875
        },
        {
          "name": "A4",
          "midi": 69,
          "time": 433.6875,
          "velocity": 1,
          "duration": 0.1875
        },
        {
          "name": "A2",
          "midi": 45,
          "time": 433.875,
          "velocity": 1,
          "duration": 0.1875
        },
        {
          "name": "E3",
          "midi": 52,
          "time": 433.875,
          "velocity": 1,
          "duration": 0.1875
        },
        {
          "name": "A3",
          "midi": 57,
          "time": 433.875,
          "velocity": 1,
          "duration": 0.375
        },
        {
          "name": "E4",
          "midi": 64,
          "time": 433.875,
          "velocity": 1,
          "duration": 0.1875
        },
        {
          "name": "A4",
          "midi": 69,
          "time": 433.875,
          "velocity": 1,
          "duration": 0.1875
        },
        {
          "name": "A2",
          "midi": 45,
          "time": 434.0625,
          "velocity": 1,
          "duration": 0.1875
        },
        {
          "name": "E3",
          "midi": 52,
          "time": 434.0625,
          "velocity": 1,
          "duration": 0.1875
        },
        {
          "name": "A3",
          "midi": 57,
          "time": 434.0625,
          "velocity": 1,
          "duration": 0.9375
        },
        {
          "name": "E4",
          "midi": 64,
          "time": 434.0625,
          "velocity": 1,
          "duration": 0.1875
        },
        {
          "name": "A4",
          "midi": 69,
          "time": 434.0625,
          "velocity": 1,
          "duration": 0.1875
        },
        {
          "name": "A2",
          "midi": 45,
          "time": 434.25,
          "velocity": 1,
          "duration": 0.75
        },
        {
          "name": "E3",
          "midi": 52,
          "time": 434.25,
          "velocity": 1,
          "duration": 0.75
        },
        {
          "name": "A3",
          "midi": 57,
          "time": 434.25,
          "velocity": 1,
          "duration": 1.5
        },
        {
          "name": "E4",
          "midi": 64,
          "time": 434.25,
          "velocity": 1,
          "duration": 0.75
        },
        {
          "name": "A4",
          "midi": 69,
          "time": 434.25,
          "velocity": 1,
          "duration": 0.75
        },
        {
          "name": "A2",
          "midi": 45,
          "time": 435,
          "velocity": 1,
          "duration": 0.75
        },
        {
          "name": "E3",
          "midi": 52,
          "time": 435,
          "velocity": 1,
          "duration": 0.75
        },
        {
          "name": "A3",
          "midi": 57,
          "time": 435,
          "velocity": 1,
          "duration": 1.125
        },
        {
          "name": "E4",
          "midi": 64,
          "time": 435,
          "velocity": 1,
          "duration": 0.75
        },
        {
          "name": "A4",
          "midi": 69,
          "time": 435,
          "velocity": 1,
          "duration": 0.75
        },
        {
          "name": "A2",
          "midi": 45,
          "time": 435.75,
          "velocity": 1,
          "duration": 0.375
        },
        {
          "name": "E3",
          "midi": 52,
          "time": 435.75,
          "velocity": 1,
          "duration": 0.375
        },
        {
          "name": "A3",
          "midi": 57,
          "time": 435.75,
          "velocity": 1,
          "duration": 1.875
        },
        {
          "name": "E4",
          "midi": 64,
          "time": 435.75,
          "velocity": 1,
          "duration": 0.375
        },
        {
          "name": "A4",
          "midi": 69,
          "time": 435.75,
          "velocity": 1,
          "duration": 0.375
        },
        {
          "name": "A2",
          "midi": 45,
          "time": 436.125,
          "velocity": 1,
          "duration": 1.5
        },
        {
          "name": "E3",
          "midi": 52,
          "time": 436.125,
          "velocity": 1,
          "duration": 1.5
        },
        {
          "name": "A3",
          "midi": 57,
          "time": 436.125,
          "velocity": 1,
          "duration": 1.875
        },
        {
          "name": "E4",
          "midi": 64,
          "time": 436.125,
          "velocity": 1,
          "duration": 1.5
        },
        {
          "name": "A4",
          "midi": 69,
          "time": 436.125,
          "velocity": 1,
          "duration": 1.5
        },
        {
          "name": "A2",
          "midi": 45,
          "time": 437.625,
          "velocity": 1,
          "duration": 0.375
        },
        {
          "name": "E3",
          "midi": 52,
          "time": 437.625,
          "velocity": 1,
          "duration": 0.375
        },
        {
          "name": "A3",
          "midi": 57,
          "time": 437.625,
          "velocity": 1,
          "duration": 0.5625
        },
        {
          "name": "E4",
          "midi": 64,
          "time": 437.625,
          "velocity": 1,
          "duration": 0.375
        },
        {
          "name": "A4",
          "midi": 69,
          "time": 437.625,
          "velocity": 1,
          "duration": 0.375
        },
        {
          "name": "A2",
          "midi": 45,
          "time": 438,
          "velocity": 1,
          "duration": 0.1875
        },
        {
          "name": "E3",
          "midi": 52,
          "time": 438,
          "velocity": 1,
          "duration": 0.1875
        },
        {
          "name": "A3",
          "midi": 57,
          "time": 438,
          "velocity": 1,
          "duration": 0.375
        },
        {
          "name": "E4",
          "midi": 64,
          "time": 438,
          "velocity": 1,
          "duration": 0.1875
        },
        {
          "name": "A4",
          "midi": 69,
          "time": 438,
          "velocity": 1,
          "duration": 0.1875
        },
        {
          "name": "A2",
          "midi": 45,
          "time": 438.1875,
          "velocity": 1,
          "duration": 0.1875
        },
        {
          "name": "E3",
          "midi": 52,
          "time": 438.1875,
          "velocity": 1,
          "duration": 0.1875
        },
        {
          "name": "A3",
          "midi": 57,
          "time": 438.1875,
          "velocity": 1,
          "duration": 6.9375
        },
        {
          "name": "E4",
          "midi": 64,
          "time": 438.1875,
          "velocity": 1,
          "duration": 6.1875
        },
        {
          "name": "A4",
          "midi": 69,
          "time": 438.1875,
          "velocity": 1,
          "duration": 0.1875
        },
        {
          "name": "G2",
          "midi": 43,
          "time": 438.375,
          "velocity": 1,
          "duration": 0.75
        },
        {
          "name": "D3",
          "midi": 50,
          "time": 438.375,
          "velocity": 1,
          "duration": 1.3125
        },
        {
          "name": "G3",
          "midi": 55,
          "time": 438.375,
          "velocity": 1,
          "duration": 0.75
        },
        {
          "name": "D4",
          "midi": 62,
          "time": 438.375,
          "velocity": 1,
          "duration": 0.75
        },
        {
          "name": "G4",
          "midi": 67,
          "time": 438.375,
          "velocity": 1,
          "duration": 0.75
        },
        {
          "name": "G2",
          "midi": 43,
          "time": 439.125,
          "velocity": 1,
          "duration": 0.5625
        },
        {
          "name": "D3",
          "midi": 50,
          "time": 439.125,
          "velocity": 1,
          "duration": 0.75
        },
        {
          "name": "G3",
          "midi": 55,
          "time": 439.125,
          "velocity": 1,
          "duration": 0.5625
        },
        {
          "name": "D4",
          "midi": 62,
          "time": 439.125,
          "velocity": 1,
          "duration": 0.5625
        },
        {
          "name": "G4",
          "midi": 67,
          "time": 439.125,
          "velocity": 1,
          "duration": 0.5625
        },
        {
          "name": "G2",
          "midi": 43,
          "time": 439.6875,
          "velocity": 1,
          "duration": 0.1875
        },
        {
          "name": "D3",
          "midi": 50,
          "time": 439.6875,
          "velocity": 1,
          "duration": 0.375
        },
        {
          "name": "G3",
          "midi": 55,
          "time": 439.6875,
          "velocity": 1,
          "duration": 0.1875
        },
        {
          "name": "D4",
          "midi": 62,
          "time": 439.6875,
          "velocity": 1,
          "duration": 0.1875
        },
        {
          "name": "G4",
          "midi": 67,
          "time": 439.6875,
          "velocity": 1,
          "duration": 0.1875
        },
        {
          "name": "G2",
          "midi": 43,
          "time": 439.875,
          "velocity": 1,
          "duration": 0.1875
        },
        {
          "name": "D3",
          "midi": 50,
          "time": 439.875,
          "velocity": 1,
          "duration": 0.375
        },
        {
          "name": "G3",
          "midi": 55,
          "time": 439.875,
          "velocity": 1,
          "duration": 0.1875
        },
        {
          "name": "D4",
          "midi": 62,
          "time": 439.875,
          "velocity": 1,
          "duration": 0.1875
        },
        {
          "name": "G4",
          "midi": 67,
          "time": 439.875,
          "velocity": 1,
          "duration": 0.1875
        },
        {
          "name": "G2",
          "midi": 43,
          "time": 440.0625,
          "velocity": 1,
          "duration": 0.1875
        },
        {
          "name": "D3",
          "midi": 50,
          "time": 440.0625,
          "velocity": 1,
          "duration": 0.9375
        },
        {
          "name": "G3",
          "midi": 55,
          "time": 440.0625,
          "velocity": 1,
          "duration": 0.1875
        },
        {
          "name": "D4",
          "midi": 62,
          "time": 440.0625,
          "velocity": 1,
          "duration": 0.1875
        },
        {
          "name": "G4",
          "midi": 67,
          "time": 440.0625,
          "velocity": 1,
          "duration": 0.1875
        },
        {
          "name": "G2",
          "midi": 43,
          "time": 440.25,
          "velocity": 1,
          "duration": 0.75
        },
        {
          "name": "D3",
          "midi": 50,
          "time": 440.25,
          "velocity": 1,
          "duration": 1.5
        },
        {
          "name": "G3",
          "midi": 55,
          "time": 440.25,
          "velocity": 1,
          "duration": 0.75
        },
        {
          "name": "D4",
          "midi": 62,
          "time": 440.25,
          "velocity": 1,
          "duration": 0.75
        },
        {
          "name": "G4",
          "midi": 67,
          "time": 440.25,
          "velocity": 1,
          "duration": 0.75
        },
        {
          "name": "G2",
          "midi": 43,
          "time": 441,
          "velocity": 1,
          "duration": 0.75
        },
        {
          "name": "D3",
          "midi": 50,
          "time": 441,
          "velocity": 1,
          "duration": 1.5
        },
        {
          "name": "G3",
          "midi": 55,
          "time": 441,
          "velocity": 1,
          "duration": 0.75
        },
        {
          "name": "D4",
          "midi": 62,
          "time": 441,
          "velocity": 1,
          "duration": 0.75
        },
        {
          "name": "G4",
          "midi": 67,
          "time": 441,
          "velocity": 1,
          "duration": 0.75
        },
        {
          "name": "G2",
          "midi": 43,
          "time": 441.75,
          "velocity": 1,
          "duration": 0.75
        },
        {
          "name": "D3",
          "midi": 50,
          "time": 441.75,
          "velocity": 1,
          "duration": 1.875
        },
        {
          "name": "G3",
          "midi": 55,
          "time": 441.75,
          "velocity": 1,
          "duration": 0.75
        },
        {
          "name": "D4",
          "midi": 62,
          "time": 441.75,
          "velocity": 1,
          "duration": 0.75
        },
        {
          "name": "G4",
          "midi": 67,
          "time": 441.75,
          "velocity": 1,
          "duration": 0.75
        },
        {
          "name": "G2",
          "midi": 43,
          "time": 442.5,
          "velocity": 1,
          "duration": 1.125
        },
        {
          "name": "D3",
          "midi": 50,
          "time": 442.5,
          "velocity": 1,
          "duration": 1.3125
        },
        {
          "name": "G3",
          "midi": 55,
          "time": 442.5,
          "velocity": 1,
          "duration": 1.125
        },
        {
          "name": "D4",
          "midi": 62,
          "time": 442.5,
          "velocity": 1,
          "duration": 1.125
        },
        {
          "name": "G4",
          "midi": 67,
          "time": 442.5,
          "velocity": 1,
          "duration": 1.125
        },
        {
          "name": "G2",
          "midi": 43,
          "time": 443.625,
          "velocity": 1,
          "duration": 0.1875
        },
        {
          "name": "D3",
          "midi": 50,
          "time": 443.625,
          "velocity": 1,
          "duration": 0.375
        },
        {
          "name": "G3",
          "midi": 55,
          "time": 443.625,
          "velocity": 1,
          "duration": 0.1875
        },
        {
          "name": "D4",
          "midi": 62,
          "time": 443.625,
          "velocity": 1,
          "duration": 0.1875
        },
        {
          "name": "G4",
          "midi": 67,
          "time": 443.625,
          "velocity": 1,
          "duration": 0.1875
        },
        {
          "name": "G2",
          "midi": 43,
          "time": 443.8125,
          "velocity": 1,
          "duration": 0.1875
        },
        {
          "name": "D3",
          "midi": 50,
          "time": 443.8125,
          "velocity": 1,
          "duration": 0.5625
        },
        {
          "name": "G3",
          "midi": 55,
          "time": 443.8125,
          "velocity": 1,
          "duration": 0.1875
        },
        {
          "name": "D4",
          "midi": 62,
          "time": 443.8125,
          "velocity": 1,
          "duration": 0.1875
        },
        {
          "name": "G4",
          "midi": 67,
          "time": 443.8125,
          "velocity": 1,
          "duration": 0.1875
        },
        {
          "name": "G2",
          "midi": 43,
          "time": 444,
          "velocity": 1,
          "duration": 0.375
        },
        {
          "name": "D3",
          "midi": 50,
          "time": 444,
          "velocity": 1,
          "duration": 7.125
        },
        {
          "name": "G3",
          "midi": 55,
          "time": 444,
          "velocity": 1,
          "duration": 0.375
        },
        {
          "name": "D4",
          "midi": 62,
          "time": 444,
          "velocity": 1,
          "duration": 6.375
        },
        {
          "name": "G4",
          "midi": 67,
          "time": 444,
          "velocity": 1,
          "duration": 0.375
        },
        {
          "name": "A2",
          "midi": 45,
          "time": 444.375,
          "velocity": 1,
          "duration": 0.75
        },
        {
          "name": "E3",
          "midi": 52,
          "time": 444.375,
          "velocity": 1,
          "duration": 0.75
        },
        {
          "name": "A3",
          "midi": 57,
          "time": 444.375,
          "velocity": 1,
          "duration": 1.3125
        },
        {
          "name": "E4",
          "midi": 64,
          "time": 444.375,
          "velocity": 1,
          "duration": 0.75
        },
        {
          "name": "A4",
          "midi": 69,
          "time": 444.375,
          "velocity": 1,
          "duration": 0.75
        },
        {
          "name": "A2",
          "midi": 45,
          "time": 445.125,
          "velocity": 1,
          "duration": 0.5625
        },
        {
          "name": "E3",
          "midi": 52,
          "time": 445.125,
          "velocity": 1,
          "duration": 0.5625
        },
        {
          "name": "A3",
          "midi": 57,
          "time": 445.125,
          "velocity": 1,
          "duration": 0.75
        },
        {
          "name": "E4",
          "midi": 64,
          "time": 445.125,
          "velocity": 1,
          "duration": 0.5625
        },
        {
          "name": "A4",
          "midi": 69,
          "time": 445.125,
          "velocity": 1,
          "duration": 0.5625
        },
        {
          "name": "A2",
          "midi": 45,
          "time": 445.6875,
          "velocity": 1,
          "duration": 0.1875
        },
        {
          "name": "E3",
          "midi": 52,
          "time": 445.6875,
          "velocity": 1,
          "duration": 0.1875
        },
        {
          "name": "A3",
          "midi": 57,
          "time": 445.6875,
          "velocity": 1,
          "duration": 0.375
        },
        {
          "name": "E4",
          "midi": 64,
          "time": 445.6875,
          "velocity": 1,
          "duration": 0.1875
        },
        {
          "name": "A4",
          "midi": 69,
          "time": 445.6875,
          "velocity": 1,
          "duration": 0.1875
        },
        {
          "name": "A2",
          "midi": 45,
          "time": 445.875,
          "velocity": 1,
          "duration": 0.1875
        },
        {
          "name": "E3",
          "midi": 52,
          "time": 445.875,
          "velocity": 1,
          "duration": 0.1875
        },
        {
          "name": "A3",
          "midi": 57,
          "time": 445.875,
          "velocity": 1,
          "duration": 0.375
        },
        {
          "name": "E4",
          "midi": 64,
          "time": 445.875,
          "velocity": 1,
          "duration": 0.1875
        },
        {
          "name": "A4",
          "midi": 69,
          "time": 445.875,
          "velocity": 1,
          "duration": 0.1875
        },
        {
          "name": "A2",
          "midi": 45,
          "time": 446.0625,
          "velocity": 1,
          "duration": 0.1875
        },
        {
          "name": "E3",
          "midi": 52,
          "time": 446.0625,
          "velocity": 1,
          "duration": 0.1875
        },
        {
          "name": "A3",
          "midi": 57,
          "time": 446.0625,
          "velocity": 1,
          "duration": 0.9375
        },
        {
          "name": "E4",
          "midi": 64,
          "time": 446.0625,
          "velocity": 1,
          "duration": 0.1875
        },
        {
          "name": "A4",
          "midi": 69,
          "time": 446.0625,
          "velocity": 1,
          "duration": 0.1875
        },
        {
          "name": "A2",
          "midi": 45,
          "time": 446.25,
          "velocity": 1,
          "duration": 0.75
        },
        {
          "name": "E3",
          "midi": 52,
          "time": 446.25,
          "velocity": 1,
          "duration": 0.75
        },
        {
          "name": "A3",
          "midi": 57,
          "time": 446.25,
          "velocity": 1,
          "duration": 1.5
        },
        {
          "name": "E4",
          "midi": 64,
          "time": 446.25,
          "velocity": 1,
          "duration": 0.75
        },
        {
          "name": "A4",
          "midi": 69,
          "time": 446.25,
          "velocity": 1,
          "duration": 0.75
        },
        {
          "name": "A2",
          "midi": 45,
          "time": 447,
          "velocity": 1,
          "duration": 0.75
        },
        {
          "name": "E3",
          "midi": 52,
          "time": 447,
          "velocity": 1,
          "duration": 0.75
        },
        {
          "name": "A3",
          "midi": 57,
          "time": 447,
          "velocity": 1,
          "duration": 1.125
        },
        {
          "name": "E4",
          "midi": 64,
          "time": 447,
          "velocity": 1,
          "duration": 0.75
        },
        {
          "name": "A4",
          "midi": 69,
          "time": 447,
          "velocity": 1,
          "duration": 0.75
        },
        {
          "name": "A2",
          "midi": 45,
          "time": 447.75,
          "velocity": 1,
          "duration": 0.375
        },
        {
          "name": "E3",
          "midi": 52,
          "time": 447.75,
          "velocity": 1,
          "duration": 0.375
        },
        {
          "name": "A3",
          "midi": 57,
          "time": 447.75,
          "velocity": 1,
          "duration": 1.875
        },
        {
          "name": "E4",
          "midi": 64,
          "time": 447.75,
          "velocity": 1,
          "duration": 0.375
        },
        {
          "name": "A4",
          "midi": 69,
          "time": 447.75,
          "velocity": 1,
          "duration": 0.375
        },
        {
          "name": "A2",
          "midi": 45,
          "time": 448.125,
          "velocity": 1,
          "duration": 1.5
        },
        {
          "name": "E3",
          "midi": 52,
          "time": 448.125,
          "velocity": 1,
          "duration": 1.5
        },
        {
          "name": "A3",
          "midi": 57,
          "time": 448.125,
          "velocity": 1,
          "duration": 1.875
        },
        {
          "name": "E4",
          "midi": 64,
          "time": 448.125,
          "velocity": 1,
          "duration": 1.5
        },
        {
          "name": "A4",
          "midi": 69,
          "time": 448.125,
          "velocity": 1,
          "duration": 1.5
        },
        {
          "name": "A2",
          "midi": 45,
          "time": 449.625,
          "velocity": 1,
          "duration": 0.375
        },
        {
          "name": "E3",
          "midi": 52,
          "time": 449.625,
          "velocity": 1,
          "duration": 0.375
        },
        {
          "name": "A3",
          "midi": 57,
          "time": 449.625,
          "velocity": 1,
          "duration": 0.5625
        },
        {
          "name": "E4",
          "midi": 64,
          "time": 449.625,
          "velocity": 1,
          "duration": 0.375
        },
        {
          "name": "A4",
          "midi": 69,
          "time": 449.625,
          "velocity": 1,
          "duration": 0.375
        },
        {
          "name": "A2",
          "midi": 45,
          "time": 450,
          "velocity": 1,
          "duration": 0.1875
        },
        {
          "name": "E3",
          "midi": 52,
          "time": 450,
          "velocity": 1,
          "duration": 0.1875
        },
        {
          "name": "A3",
          "midi": 57,
          "time": 450,
          "velocity": 1,
          "duration": 0.375
        },
        {
          "name": "E4",
          "midi": 64,
          "time": 450,
          "velocity": 1,
          "duration": 0.1875
        },
        {
          "name": "A4",
          "midi": 69,
          "time": 450,
          "velocity": 1,
          "duration": 0.1875
        },
        {
          "name": "A2",
          "midi": 45,
          "time": 450.1875,
          "velocity": 1,
          "duration": 0.1875
        },
        {
          "name": "E3",
          "midi": 52,
          "time": 450.1875,
          "velocity": 1,
          "duration": 0.1875
        },
        {
          "name": "A3",
          "midi": 57,
          "time": 450.1875,
          "velocity": 1,
          "duration": 6.9375
        },
        {
          "name": "E4",
          "midi": 64,
          "time": 450.1875,
          "velocity": 1,
          "duration": 6.1875
        },
        {
          "name": "A4",
          "midi": 69,
          "time": 450.1875,
          "velocity": 1,
          "duration": 0.1875
        },
        {
          "name": "G2",
          "midi": 43,
          "time": 450.375,
          "velocity": 1,
          "duration": 0.75
        },
        {
          "name": "D3",
          "midi": 50,
          "time": 450.375,
          "velocity": 1,
          "duration": 1.3125
        },
        {
          "name": "G3",
          "midi": 55,
          "time": 450.375,
          "velocity": 1,
          "duration": 0.75
        },
        {
          "name": "D4",
          "midi": 62,
          "time": 450.375,
          "velocity": 1,
          "duration": 0.75
        },
        {
          "name": "G4",
          "midi": 67,
          "time": 450.375,
          "velocity": 1,
          "duration": 0.75
        },
        {
          "name": "G2",
          "midi": 43,
          "time": 451.125,
          "velocity": 1,
          "duration": 0.5625
        },
        {
          "name": "D3",
          "midi": 50,
          "time": 451.125,
          "velocity": 1,
          "duration": 0.75
        },
        {
          "name": "G3",
          "midi": 55,
          "time": 451.125,
          "velocity": 1,
          "duration": 0.5625
        },
        {
          "name": "D4",
          "midi": 62,
          "time": 451.125,
          "velocity": 1,
          "duration": 0.5625
        },
        {
          "name": "G4",
          "midi": 67,
          "time": 451.125,
          "velocity": 1,
          "duration": 0.5625
        },
        {
          "name": "G2",
          "midi": 43,
          "time": 451.6875,
          "velocity": 1,
          "duration": 0.1875
        },
        {
          "name": "D3",
          "midi": 50,
          "time": 451.6875,
          "velocity": 1,
          "duration": 0.375
        },
        {
          "name": "G3",
          "midi": 55,
          "time": 451.6875,
          "velocity": 1,
          "duration": 0.1875
        },
        {
          "name": "D4",
          "midi": 62,
          "time": 451.6875,
          "velocity": 1,
          "duration": 0.1875
        },
        {
          "name": "G4",
          "midi": 67,
          "time": 451.6875,
          "velocity": 1,
          "duration": 0.1875
        },
        {
          "name": "G2",
          "midi": 43,
          "time": 451.875,
          "velocity": 1,
          "duration": 0.1875
        },
        {
          "name": "D3",
          "midi": 50,
          "time": 451.875,
          "velocity": 1,
          "duration": 0.375
        },
        {
          "name": "G3",
          "midi": 55,
          "time": 451.875,
          "velocity": 1,
          "duration": 0.1875
        },
        {
          "name": "D4",
          "midi": 62,
          "time": 451.875,
          "velocity": 1,
          "duration": 0.1875
        },
        {
          "name": "G4",
          "midi": 67,
          "time": 451.875,
          "velocity": 1,
          "duration": 0.1875
        },
        {
          "name": "G2",
          "midi": 43,
          "time": 452.0625,
          "velocity": 1,
          "duration": 0.1875
        },
        {
          "name": "D3",
          "midi": 50,
          "time": 452.0625,
          "velocity": 1,
          "duration": 0.9375
        },
        {
          "name": "G3",
          "midi": 55,
          "time": 452.0625,
          "velocity": 1,
          "duration": 0.1875
        },
        {
          "name": "D4",
          "midi": 62,
          "time": 452.0625,
          "velocity": 1,
          "duration": 0.1875
        },
        {
          "name": "G4",
          "midi": 67,
          "time": 452.0625,
          "velocity": 1,
          "duration": 0.1875
        },
        {
          "name": "G2",
          "midi": 43,
          "time": 452.25,
          "velocity": 1,
          "duration": 0.75
        },
        {
          "name": "D3",
          "midi": 50,
          "time": 452.25,
          "velocity": 1,
          "duration": 1.5
        },
        {
          "name": "G3",
          "midi": 55,
          "time": 452.25,
          "velocity": 1,
          "duration": 0.75
        },
        {
          "name": "D4",
          "midi": 62,
          "time": 452.25,
          "velocity": 1,
          "duration": 0.75
        },
        {
          "name": "G4",
          "midi": 67,
          "time": 452.25,
          "velocity": 1,
          "duration": 0.75
        },
        {
          "name": "G2",
          "midi": 43,
          "time": 453,
          "velocity": 1,
          "duration": 0.75
        },
        {
          "name": "D3",
          "midi": 50,
          "time": 453,
          "velocity": 1,
          "duration": 1.5
        },
        {
          "name": "G3",
          "midi": 55,
          "time": 453,
          "velocity": 1,
          "duration": 0.75
        },
        {
          "name": "D4",
          "midi": 62,
          "time": 453,
          "velocity": 1,
          "duration": 0.75
        },
        {
          "name": "G4",
          "midi": 67,
          "time": 453,
          "velocity": 1,
          "duration": 0.75
        },
        {
          "name": "G2",
          "midi": 43,
          "time": 453.75,
          "velocity": 1,
          "duration": 0.75
        },
        {
          "name": "D3",
          "midi": 50,
          "time": 453.75,
          "velocity": 1,
          "duration": 1.875
        },
        {
          "name": "G3",
          "midi": 55,
          "time": 453.75,
          "velocity": 1,
          "duration": 0.75
        },
        {
          "name": "D4",
          "midi": 62,
          "time": 453.75,
          "velocity": 1,
          "duration": 0.75
        },
        {
          "name": "G4",
          "midi": 67,
          "time": 453.75,
          "velocity": 1,
          "duration": 0.75
        },
        {
          "name": "G2",
          "midi": 43,
          "time": 454.5,
          "velocity": 1,
          "duration": 1.125
        },
        {
          "name": "D3",
          "midi": 50,
          "time": 454.5,
          "velocity": 1,
          "duration": 1.3125
        },
        {
          "name": "G3",
          "midi": 55,
          "time": 454.5,
          "velocity": 1,
          "duration": 1.125
        },
        {
          "name": "D4",
          "midi": 62,
          "time": 454.5,
          "velocity": 1,
          "duration": 1.125
        },
        {
          "name": "G4",
          "midi": 67,
          "time": 454.5,
          "velocity": 1,
          "duration": 1.125
        },
        {
          "name": "G2",
          "midi": 43,
          "time": 455.625,
          "velocity": 1,
          "duration": 0.1875
        },
        {
          "name": "D3",
          "midi": 50,
          "time": 455.625,
          "velocity": 1,
          "duration": 0.375
        },
        {
          "name": "G3",
          "midi": 55,
          "time": 455.625,
          "velocity": 1,
          "duration": 0.1875
        },
        {
          "name": "D4",
          "midi": 62,
          "time": 455.625,
          "velocity": 1,
          "duration": 0.1875
        },
        {
          "name": "G4",
          "midi": 67,
          "time": 455.625,
          "velocity": 1,
          "duration": 0.1875
        },
        {
          "name": "G2",
          "midi": 43,
          "time": 455.8125,
          "velocity": 1,
          "duration": 0.1875
        },
        {
          "name": "D3",
          "midi": 50,
          "time": 455.8125,
          "velocity": 1,
          "duration": 0.5625
        },
        {
          "name": "G3",
          "midi": 55,
          "time": 455.8125,
          "velocity": 1,
          "duration": 0.1875
        },
        {
          "name": "D4",
          "midi": 62,
          "time": 455.8125,
          "velocity": 1,
          "duration": 0.1875
        },
        {
          "name": "G4",
          "midi": 67,
          "time": 455.8125,
          "velocity": 1,
          "duration": 0.1875
        },
        {
          "name": "G2",
          "midi": 43,
          "time": 456,
          "velocity": 1,
          "duration": 0.375
        },
        {
          "name": "D3",
          "midi": 50,
          "time": 456,
          "velocity": 1,
          "duration": 7.125
        },
        {
          "name": "G3",
          "midi": 55,
          "time": 456,
          "velocity": 1,
          "duration": 0.375
        },
        {
          "name": "D4",
          "midi": 62,
          "time": 456,
          "velocity": 1,
          "duration": 6.375
        },
        {
          "name": "G4",
          "midi": 67,
          "time": 456,
          "velocity": 1,
          "duration": 0.375
        },
        {
          "name": "A2",
          "midi": 45,
          "time": 456.375,
          "velocity": 1,
          "duration": 0.75
        },
        {
          "name": "E3",
          "midi": 52,
          "time": 456.375,
          "velocity": 1,
          "duration": 0.75
        },
        {
          "name": "A3",
          "midi": 57,
          "time": 456.375,
          "velocity": 1,
          "duration": 1.3125
        },
        {
          "name": "E4",
          "midi": 64,
          "time": 456.375,
          "velocity": 1,
          "duration": 0.75
        },
        {
          "name": "A4",
          "midi": 69,
          "time": 456.375,
          "velocity": 1,
          "duration": 0.75
        },
        {
          "name": "A2",
          "midi": 45,
          "time": 457.125,
          "velocity": 1,
          "duration": 0.5625
        },
        {
          "name": "E3",
          "midi": 52,
          "time": 457.125,
          "velocity": 1,
          "duration": 0.5625
        },
        {
          "name": "A3",
          "midi": 57,
          "time": 457.125,
          "velocity": 1,
          "duration": 0.75
        },
        {
          "name": "E4",
          "midi": 64,
          "time": 457.125,
          "velocity": 1,
          "duration": 0.5625
        },
        {
          "name": "A4",
          "midi": 69,
          "time": 457.125,
          "velocity": 1,
          "duration": 0.5625
        },
        {
          "name": "A2",
          "midi": 45,
          "time": 457.6875,
          "velocity": 1,
          "duration": 0.1875
        },
        {
          "name": "E3",
          "midi": 52,
          "time": 457.6875,
          "velocity": 1,
          "duration": 0.1875
        },
        {
          "name": "A3",
          "midi": 57,
          "time": 457.6875,
          "velocity": 1,
          "duration": 0.375
        },
        {
          "name": "E4",
          "midi": 64,
          "time": 457.6875,
          "velocity": 1,
          "duration": 0.1875
        },
        {
          "name": "A4",
          "midi": 69,
          "time": 457.6875,
          "velocity": 1,
          "duration": 0.1875
        },
        {
          "name": "A2",
          "midi": 45,
          "time": 457.875,
          "velocity": 1,
          "duration": 0.1875
        },
        {
          "name": "E3",
          "midi": 52,
          "time": 457.875,
          "velocity": 1,
          "duration": 0.1875
        },
        {
          "name": "A3",
          "midi": 57,
          "time": 457.875,
          "velocity": 1,
          "duration": 0.375
        },
        {
          "name": "E4",
          "midi": 64,
          "time": 457.875,
          "velocity": 1,
          "duration": 0.1875
        },
        {
          "name": "A4",
          "midi": 69,
          "time": 457.875,
          "velocity": 1,
          "duration": 0.1875
        },
        {
          "name": "A2",
          "midi": 45,
          "time": 458.0625,
          "velocity": 1,
          "duration": 0.1875
        },
        {
          "name": "E3",
          "midi": 52,
          "time": 458.0625,
          "velocity": 1,
          "duration": 0.1875
        },
        {
          "name": "A3",
          "midi": 57,
          "time": 458.0625,
          "velocity": 1,
          "duration": 0.9375
        },
        {
          "name": "E4",
          "midi": 64,
          "time": 458.0625,
          "velocity": 1,
          "duration": 0.1875
        },
        {
          "name": "A4",
          "midi": 69,
          "time": 458.0625,
          "velocity": 1,
          "duration": 0.1875
        },
        {
          "name": "A2",
          "midi": 45,
          "time": 458.25,
          "velocity": 1,
          "duration": 0.75
        },
        {
          "name": "E3",
          "midi": 52,
          "time": 458.25,
          "velocity": 1,
          "duration": 0.75
        },
        {
          "name": "A3",
          "midi": 57,
          "time": 458.25,
          "velocity": 1,
          "duration": 1.5
        },
        {
          "name": "E4",
          "midi": 64,
          "time": 458.25,
          "velocity": 1,
          "duration": 0.75
        },
        {
          "name": "A4",
          "midi": 69,
          "time": 458.25,
          "velocity": 1,
          "duration": 0.75
        },
        {
          "name": "A2",
          "midi": 45,
          "time": 459,
          "velocity": 1,
          "duration": 0.75
        },
        {
          "name": "E3",
          "midi": 52,
          "time": 459,
          "velocity": 1,
          "duration": 0.75
        },
        {
          "name": "A3",
          "midi": 57,
          "time": 459,
          "velocity": 1,
          "duration": 1.125
        },
        {
          "name": "E4",
          "midi": 64,
          "time": 459,
          "velocity": 1,
          "duration": 0.75
        },
        {
          "name": "A4",
          "midi": 69,
          "time": 459,
          "velocity": 1,
          "duration": 0.75
        },
        {
          "name": "A2",
          "midi": 45,
          "time": 459.75,
          "velocity": 1,
          "duration": 0.375
        },
        {
          "name": "E3",
          "midi": 52,
          "time": 459.75,
          "velocity": 1,
          "duration": 0.375
        },
        {
          "name": "A3",
          "midi": 57,
          "time": 459.75,
          "velocity": 1,
          "duration": 1.875
        },
        {
          "name": "E4",
          "midi": 64,
          "time": 459.75,
          "velocity": 1,
          "duration": 0.375
        },
        {
          "name": "A4",
          "midi": 69,
          "time": 459.75,
          "velocity": 1,
          "duration": 0.375
        },
        {
          "name": "A2",
          "midi": 45,
          "time": 460.125,
          "velocity": 1,
          "duration": 1.5
        },
        {
          "name": "E3",
          "midi": 52,
          "time": 460.125,
          "velocity": 1,
          "duration": 1.5
        },
        {
          "name": "A3",
          "midi": 57,
          "time": 460.125,
          "velocity": 1,
          "duration": 1.875
        },
        {
          "name": "E4",
          "midi": 64,
          "time": 460.125,
          "velocity": 1,
          "duration": 1.5
        },
        {
          "name": "A4",
          "midi": 69,
          "time": 460.125,
          "velocity": 1,
          "duration": 1.5
        },
        {
          "name": "A2",
          "midi": 45,
          "time": 461.625,
          "velocity": 1,
          "duration": 0.375
        },
        {
          "name": "E3",
          "midi": 52,
          "time": 461.625,
          "velocity": 1,
          "duration": 0.375
        },
        {
          "name": "A3",
          "midi": 57,
          "time": 461.625,
          "velocity": 1,
          "duration": 0.5625
        },
        {
          "name": "E4",
          "midi": 64,
          "time": 461.625,
          "velocity": 1,
          "duration": 0.375
        },
        {
          "name": "A4",
          "midi": 69,
          "time": 461.625,
          "velocity": 1,
          "duration": 0.375
        },
        {
          "name": "A2",
          "midi": 45,
          "time": 462,
          "velocity": 1,
          "duration": 0.1875
        },
        {
          "name": "E3",
          "midi": 52,
          "time": 462,
          "velocity": 1,
          "duration": 0.1875
        },
        {
          "name": "A3",
          "midi": 57,
          "time": 462,
          "velocity": 1,
          "duration": 0.375
        },
        {
          "name": "E4",
          "midi": 64,
          "time": 462,
          "velocity": 1,
          "duration": 0.1875
        },
        {
          "name": "A4",
          "midi": 69,
          "time": 462,
          "velocity": 1,
          "duration": 0.1875
        },
        {
          "name": "A2",
          "midi": 45,
          "time": 462.1875,
          "velocity": 1,
          "duration": 0.1875
        },
        {
          "name": "E3",
          "midi": 52,
          "time": 462.1875,
          "velocity": 1,
          "duration": 0.1875
        },
        {
          "name": "A3",
          "midi": 57,
          "time": 462.1875,
          "velocity": 1,
          "duration": 6.9375
        },
        {
          "name": "E4",
          "midi": 64,
          "time": 462.1875,
          "velocity": 1,
          "duration": 6.1875
        },
        {
          "name": "A4",
          "midi": 69,
          "time": 462.1875,
          "velocity": 1,
          "duration": 0.1875
        },
        {
          "name": "G2",
          "midi": 43,
          "time": 462.375,
          "velocity": 1,
          "duration": 0.75
        },
        {
          "name": "D3",
          "midi": 50,
          "time": 462.375,
          "velocity": 1,
          "duration": 1.3125
        },
        {
          "name": "G3",
          "midi": 55,
          "time": 462.375,
          "velocity": 1,
          "duration": 0.75
        },
        {
          "name": "D4",
          "midi": 62,
          "time": 462.375,
          "velocity": 1,
          "duration": 0.75
        },
        {
          "name": "G4",
          "midi": 67,
          "time": 462.375,
          "velocity": 1,
          "duration": 0.75
        },
        {
          "name": "G2",
          "midi": 43,
          "time": 463.125,
          "velocity": 1,
          "duration": 0.5625
        },
        {
          "name": "D3",
          "midi": 50,
          "time": 463.125,
          "velocity": 1,
          "duration": 0.75
        },
        {
          "name": "G3",
          "midi": 55,
          "time": 463.125,
          "velocity": 1,
          "duration": 0.5625
        },
        {
          "name": "D4",
          "midi": 62,
          "time": 463.125,
          "velocity": 1,
          "duration": 0.5625
        },
        {
          "name": "G4",
          "midi": 67,
          "time": 463.125,
          "velocity": 1,
          "duration": 0.5625
        },
        {
          "name": "G2",
          "midi": 43,
          "time": 463.6875,
          "velocity": 1,
          "duration": 0.1875
        },
        {
          "name": "D3",
          "midi": 50,
          "time": 463.6875,
          "velocity": 1,
          "duration": 0.375
        },
        {
          "name": "G3",
          "midi": 55,
          "time": 463.6875,
          "velocity": 1,
          "duration": 0.1875
        },
        {
          "name": "D4",
          "midi": 62,
          "time": 463.6875,
          "velocity": 1,
          "duration": 0.1875
        },
        {
          "name": "G4",
          "midi": 67,
          "time": 463.6875,
          "velocity": 1,
          "duration": 0.1875
        },
        {
          "name": "G2",
          "midi": 43,
          "time": 463.875,
          "velocity": 1,
          "duration": 0.1875
        },
        {
          "name": "D3",
          "midi": 50,
          "time": 463.875,
          "velocity": 1,
          "duration": 0.375
        },
        {
          "name": "G3",
          "midi": 55,
          "time": 463.875,
          "velocity": 1,
          "duration": 0.1875
        },
        {
          "name": "D4",
          "midi": 62,
          "time": 463.875,
          "velocity": 1,
          "duration": 0.1875
        },
        {
          "name": "G4",
          "midi": 67,
          "time": 463.875,
          "velocity": 1,
          "duration": 0.1875
        },
        {
          "name": "G2",
          "midi": 43,
          "time": 464.0625,
          "velocity": 1,
          "duration": 0.1875
        },
        {
          "name": "D3",
          "midi": 50,
          "time": 464.0625,
          "velocity": 1,
          "duration": 0.9375
        },
        {
          "name": "G3",
          "midi": 55,
          "time": 464.0625,
          "velocity": 1,
          "duration": 0.1875
        },
        {
          "name": "D4",
          "midi": 62,
          "time": 464.0625,
          "velocity": 1,
          "duration": 0.1875
        },
        {
          "name": "G4",
          "midi": 67,
          "time": 464.0625,
          "velocity": 1,
          "duration": 0.1875
        },
        {
          "name": "G2",
          "midi": 43,
          "time": 464.25,
          "velocity": 1,
          "duration": 0.75
        },
        {
          "name": "D3",
          "midi": 50,
          "time": 464.25,
          "velocity": 1,
          "duration": 1.5
        },
        {
          "name": "G3",
          "midi": 55,
          "time": 464.25,
          "velocity": 1,
          "duration": 0.75
        },
        {
          "name": "D4",
          "midi": 62,
          "time": 464.25,
          "velocity": 1,
          "duration": 0.75
        },
        {
          "name": "G4",
          "midi": 67,
          "time": 464.25,
          "velocity": 1,
          "duration": 0.75
        },
        {
          "name": "G2",
          "midi": 43,
          "time": 465,
          "velocity": 1,
          "duration": 0.75
        },
        {
          "name": "D3",
          "midi": 50,
          "time": 465,
          "velocity": 1,
          "duration": 1.5
        },
        {
          "name": "G3",
          "midi": 55,
          "time": 465,
          "velocity": 1,
          "duration": 0.75
        },
        {
          "name": "D4",
          "midi": 62,
          "time": 465,
          "velocity": 1,
          "duration": 0.75
        },
        {
          "name": "G4",
          "midi": 67,
          "time": 465,
          "velocity": 1,
          "duration": 0.75
        },
        {
          "name": "G2",
          "midi": 43,
          "time": 465.75,
          "velocity": 1,
          "duration": 0.75
        },
        {
          "name": "D3",
          "midi": 50,
          "time": 465.75,
          "velocity": 1,
          "duration": 1.875
        },
        {
          "name": "G3",
          "midi": 55,
          "time": 465.75,
          "velocity": 1,
          "duration": 0.75
        },
        {
          "name": "D4",
          "midi": 62,
          "time": 465.75,
          "velocity": 1,
          "duration": 0.75
        },
        {
          "name": "G4",
          "midi": 67,
          "time": 465.75,
          "velocity": 1,
          "duration": 0.75
        },
        {
          "name": "G2",
          "midi": 43,
          "time": 466.5,
          "velocity": 1,
          "duration": 1.125
        },
        {
          "name": "D3",
          "midi": 50,
          "time": 466.5,
          "velocity": 1,
          "duration": 1.3125
        },
        {
          "name": "G3",
          "midi": 55,
          "time": 466.5,
          "velocity": 1,
          "duration": 1.125
        },
        {
          "name": "D4",
          "midi": 62,
          "time": 466.5,
          "velocity": 1,
          "duration": 1.125
        },
        {
          "name": "G4",
          "midi": 67,
          "time": 466.5,
          "velocity": 1,
          "duration": 1.125
        },
        {
          "name": "G2",
          "midi": 43,
          "time": 467.625,
          "velocity": 1,
          "duration": 0.1875
        },
        {
          "name": "D3",
          "midi": 50,
          "time": 467.625,
          "velocity": 1,
          "duration": 0.375
        },
        {
          "name": "G3",
          "midi": 55,
          "time": 467.625,
          "velocity": 1,
          "duration": 0.1875
        },
        {
          "name": "D4",
          "midi": 62,
          "time": 467.625,
          "velocity": 1,
          "duration": 0.1875
        },
        {
          "name": "G4",
          "midi": 67,
          "time": 467.625,
          "velocity": 1,
          "duration": 0.1875
        },
        {
          "name": "G2",
          "midi": 43,
          "time": 467.8125,
          "velocity": 1,
          "duration": 0.1875
        },
        {
          "name": "D3",
          "midi": 50,
          "time": 467.8125,
          "velocity": 1,
          "duration": 0.5625
        },
        {
          "name": "G3",
          "midi": 55,
          "time": 467.8125,
          "velocity": 1,
          "duration": 0.1875
        },
        {
          "name": "D4",
          "midi": 62,
          "time": 467.8125,
          "velocity": 1,
          "duration": 0.1875
        },
        {
          "name": "G4",
          "midi": 67,
          "time": 467.8125,
          "velocity": 1,
          "duration": 0.1875
        },
        {
          "name": "G2",
          "midi": 43,
          "time": 468,
          "velocity": 1,
          "duration": 0.375
        },
        {
          "name": "D3",
          "midi": 50,
          "time": 468,
          "velocity": 1,
          "duration": 7.125
        },
        {
          "name": "G3",
          "midi": 55,
          "time": 468,
          "velocity": 1,
          "duration": 0.375
        },
        {
          "name": "D4",
          "midi": 62,
          "time": 468,
          "velocity": 1,
          "duration": 6.375
        },
        {
          "name": "G4",
          "midi": 67,
          "time": 468,
          "velocity": 1,
          "duration": 0.375
        },
        {
          "name": "A2",
          "midi": 45,
          "time": 468.375,
          "velocity": 1,
          "duration": 0.75
        },
        {
          "name": "E3",
          "midi": 52,
          "time": 468.375,
          "velocity": 1,
          "duration": 0.75
        },
        {
          "name": "A3",
          "midi": 57,
          "time": 468.375,
          "velocity": 1,
          "duration": 1.3125
        },
        {
          "name": "E4",
          "midi": 64,
          "time": 468.375,
          "velocity": 1,
          "duration": 0.75
        },
        {
          "name": "A4",
          "midi": 69,
          "time": 468.375,
          "velocity": 1,
          "duration": 0.75
        },
        {
          "name": "A2",
          "midi": 45,
          "time": 469.125,
          "velocity": 1,
          "duration": 0.5625
        },
        {
          "name": "E3",
          "midi": 52,
          "time": 469.125,
          "velocity": 1,
          "duration": 0.5625
        },
        {
          "name": "A3",
          "midi": 57,
          "time": 469.125,
          "velocity": 1,
          "duration": 0.75
        },
        {
          "name": "E4",
          "midi": 64,
          "time": 469.125,
          "velocity": 1,
          "duration": 0.5625
        },
        {
          "name": "A4",
          "midi": 69,
          "time": 469.125,
          "velocity": 1,
          "duration": 0.5625
        },
        {
          "name": "A2",
          "midi": 45,
          "time": 469.6875,
          "velocity": 1,
          "duration": 0.1875
        },
        {
          "name": "E3",
          "midi": 52,
          "time": 469.6875,
          "velocity": 1,
          "duration": 0.1875
        },
        {
          "name": "A3",
          "midi": 57,
          "time": 469.6875,
          "velocity": 1,
          "duration": 0.375
        },
        {
          "name": "E4",
          "midi": 64,
          "time": 469.6875,
          "velocity": 1,
          "duration": 0.1875
        },
        {
          "name": "A4",
          "midi": 69,
          "time": 469.6875,
          "velocity": 1,
          "duration": 0.1875
        },
        {
          "name": "A2",
          "midi": 45,
          "time": 469.875,
          "velocity": 1,
          "duration": 0.1875
        },
        {
          "name": "E3",
          "midi": 52,
          "time": 469.875,
          "velocity": 1,
          "duration": 0.1875
        },
        {
          "name": "A3",
          "midi": 57,
          "time": 469.875,
          "velocity": 1,
          "duration": 0.375
        },
        {
          "name": "E4",
          "midi": 64,
          "time": 469.875,
          "velocity": 1,
          "duration": 0.1875
        },
        {
          "name": "A4",
          "midi": 69,
          "time": 469.875,
          "velocity": 1,
          "duration": 0.1875
        },
        {
          "name": "A2",
          "midi": 45,
          "time": 470.0625,
          "velocity": 1,
          "duration": 0.1875
        },
        {
          "name": "E3",
          "midi": 52,
          "time": 470.0625,
          "velocity": 1,
          "duration": 0.1875
        },
        {
          "name": "A3",
          "midi": 57,
          "time": 470.0625,
          "velocity": 1,
          "duration": 0.9375
        },
        {
          "name": "E4",
          "midi": 64,
          "time": 470.0625,
          "velocity": 1,
          "duration": 0.1875
        },
        {
          "name": "A4",
          "midi": 69,
          "time": 470.0625,
          "velocity": 1,
          "duration": 0.1875
        },
        {
          "name": "A2",
          "midi": 45,
          "time": 470.25,
          "velocity": 1,
          "duration": 0.75
        },
        {
          "name": "E3",
          "midi": 52,
          "time": 470.25,
          "velocity": 1,
          "duration": 0.75
        },
        {
          "name": "A3",
          "midi": 57,
          "time": 470.25,
          "velocity": 1,
          "duration": 1.5
        },
        {
          "name": "E4",
          "midi": 64,
          "time": 470.25,
          "velocity": 1,
          "duration": 0.75
        },
        {
          "name": "A4",
          "midi": 69,
          "time": 470.25,
          "velocity": 1,
          "duration": 0.75
        },
        {
          "name": "A2",
          "midi": 45,
          "time": 471,
          "velocity": 1,
          "duration": 0.75
        },
        {
          "name": "E3",
          "midi": 52,
          "time": 471,
          "velocity": 1,
          "duration": 0.75
        },
        {
          "name": "A3",
          "midi": 57,
          "time": 471,
          "velocity": 1,
          "duration": 1.125
        },
        {
          "name": "E4",
          "midi": 64,
          "time": 471,
          "velocity": 1,
          "duration": 0.75
        },
        {
          "name": "A4",
          "midi": 69,
          "time": 471,
          "velocity": 1,
          "duration": 0.75
        },
        {
          "name": "A2",
          "midi": 45,
          "time": 471.75,
          "velocity": 1,
          "duration": 0.375
        },
        {
          "name": "E3",
          "midi": 52,
          "time": 471.75,
          "velocity": 1,
          "duration": 0.375
        },
        {
          "name": "A3",
          "midi": 57,
          "time": 471.75,
          "velocity": 1,
          "duration": 1.875
        },
        {
          "name": "E4",
          "midi": 64,
          "time": 471.75,
          "velocity": 1,
          "duration": 0.375
        },
        {
          "name": "A4",
          "midi": 69,
          "time": 471.75,
          "velocity": 1,
          "duration": 0.375
        },
        {
          "name": "A2",
          "midi": 45,
          "time": 472.125,
          "velocity": 1,
          "duration": 1.5
        },
        {
          "name": "E3",
          "midi": 52,
          "time": 472.125,
          "velocity": 1,
          "duration": 1.5
        },
        {
          "name": "A3",
          "midi": 57,
          "time": 472.125,
          "velocity": 1,
          "duration": 1.875
        },
        {
          "name": "E4",
          "midi": 64,
          "time": 472.125,
          "velocity": 1,
          "duration": 1.5
        },
        {
          "name": "A4",
          "midi": 69,
          "time": 472.125,
          "velocity": 1,
          "duration": 1.5
        },
        {
          "name": "A2",
          "midi": 45,
          "time": 473.625,
          "velocity": 1,
          "duration": 0.375
        },
        {
          "name": "E3",
          "midi": 52,
          "time": 473.625,
          "velocity": 1,
          "duration": 0.375
        },
        {
          "name": "A3",
          "midi": 57,
          "time": 473.625,
          "velocity": 1,
          "duration": 0.5625
        },
        {
          "name": "E4",
          "midi": 64,
          "time": 473.625,
          "velocity": 1,
          "duration": 0.375
        },
        {
          "name": "A4",
          "midi": 69,
          "time": 473.625,
          "velocity": 1,
          "duration": 0.375
        },
        {
          "name": "A2",
          "midi": 45,
          "time": 474,
          "velocity": 1,
          "duration": 0.1875
        },
        {
          "name": "E3",
          "midi": 52,
          "time": 474,
          "velocity": 1,
          "duration": 0.1875
        },
        {
          "name": "A3",
          "midi": 57,
          "time": 474,
          "velocity": 1,
          "duration": 0.375
        },
        {
          "name": "E4",
          "midi": 64,
          "time": 474,
          "velocity": 1,
          "duration": 0.1875
        },
        {
          "name": "A4",
          "midi": 69,
          "time": 474,
          "velocity": 1,
          "duration": 0.1875
        },
        {
          "name": "A2",
          "midi": 45,
          "time": 474.1875,
          "velocity": 1,
          "duration": 0.1875
        },
        {
          "name": "E3",
          "midi": 52,
          "time": 474.1875,
          "velocity": 1,
          "duration": 0.1875
        },
        {
          "name": "A3",
          "midi": 57,
          "time": 474.1875,
          "velocity": 1,
          "duration": 6.9375
        },
        {
          "name": "E4",
          "midi": 64,
          "time": 474.1875,
          "velocity": 1,
          "duration": 6.1875
        },
        {
          "name": "A4",
          "midi": 69,
          "time": 474.1875,
          "velocity": 1,
          "duration": 0.1875
        },
        {
          "name": "G2",
          "midi": 43,
          "time": 474.375,
          "velocity": 1,
          "duration": 0.75
        },
        {
          "name": "D3",
          "midi": 50,
          "time": 474.375,
          "velocity": 1,
          "duration": 1.3125
        },
        {
          "name": "G3",
          "midi": 55,
          "time": 474.375,
          "velocity": 1,
          "duration": 0.75
        },
        {
          "name": "D4",
          "midi": 62,
          "time": 474.375,
          "velocity": 1,
          "duration": 0.75
        },
        {
          "name": "G4",
          "midi": 67,
          "time": 474.375,
          "velocity": 1,
          "duration": 0.75
        },
        {
          "name": "G2",
          "midi": 43,
          "time": 475.125,
          "velocity": 1,
          "duration": 0.5625
        },
        {
          "name": "D3",
          "midi": 50,
          "time": 475.125,
          "velocity": 1,
          "duration": 0.75
        },
        {
          "name": "G3",
          "midi": 55,
          "time": 475.125,
          "velocity": 1,
          "duration": 0.5625
        },
        {
          "name": "D4",
          "midi": 62,
          "time": 475.125,
          "velocity": 1,
          "duration": 0.5625
        },
        {
          "name": "G4",
          "midi": 67,
          "time": 475.125,
          "velocity": 1,
          "duration": 0.5625
        },
        {
          "name": "G2",
          "midi": 43,
          "time": 475.6875,
          "velocity": 1,
          "duration": 0.1875
        },
        {
          "name": "D3",
          "midi": 50,
          "time": 475.6875,
          "velocity": 1,
          "duration": 0.375
        },
        {
          "name": "G3",
          "midi": 55,
          "time": 475.6875,
          "velocity": 1,
          "duration": 0.1875
        },
        {
          "name": "D4",
          "midi": 62,
          "time": 475.6875,
          "velocity": 1,
          "duration": 0.1875
        },
        {
          "name": "G4",
          "midi": 67,
          "time": 475.6875,
          "velocity": 1,
          "duration": 0.1875
        },
        {
          "name": "G2",
          "midi": 43,
          "time": 475.875,
          "velocity": 1,
          "duration": 0.1875
        },
        {
          "name": "D3",
          "midi": 50,
          "time": 475.875,
          "velocity": 1,
          "duration": 0.375
        },
        {
          "name": "G3",
          "midi": 55,
          "time": 475.875,
          "velocity": 1,
          "duration": 0.1875
        },
        {
          "name": "D4",
          "midi": 62,
          "time": 475.875,
          "velocity": 1,
          "duration": 0.1875
        },
        {
          "name": "G4",
          "midi": 67,
          "time": 475.875,
          "velocity": 1,
          "duration": 0.1875
        },
        {
          "name": "G2",
          "midi": 43,
          "time": 476.0625,
          "velocity": 1,
          "duration": 0.1875
        },
        {
          "name": "D3",
          "midi": 50,
          "time": 476.0625,
          "velocity": 1,
          "duration": 0.9375
        },
        {
          "name": "G3",
          "midi": 55,
          "time": 476.0625,
          "velocity": 1,
          "duration": 0.1875
        },
        {
          "name": "D4",
          "midi": 62,
          "time": 476.0625,
          "velocity": 1,
          "duration": 0.1875
        },
        {
          "name": "G4",
          "midi": 67,
          "time": 476.0625,
          "velocity": 1,
          "duration": 0.1875
        },
        {
          "name": "G2",
          "midi": 43,
          "time": 476.25,
          "velocity": 1,
          "duration": 0.75
        },
        {
          "name": "D3",
          "midi": 50,
          "time": 476.25,
          "velocity": 1,
          "duration": 1.5
        },
        {
          "name": "G3",
          "midi": 55,
          "time": 476.25,
          "velocity": 1,
          "duration": 0.75
        },
        {
          "name": "D4",
          "midi": 62,
          "time": 476.25,
          "velocity": 1,
          "duration": 0.75
        },
        {
          "name": "G4",
          "midi": 67,
          "time": 476.25,
          "velocity": 1,
          "duration": 0.75
        },
        {
          "name": "G2",
          "midi": 43,
          "time": 477,
          "velocity": 1,
          "duration": 0.75
        },
        {
          "name": "D3",
          "midi": 50,
          "time": 477,
          "velocity": 1,
          "duration": 1.5
        },
        {
          "name": "G3",
          "midi": 55,
          "time": 477,
          "velocity": 1,
          "duration": 0.75
        },
        {
          "name": "D4",
          "midi": 62,
          "time": 477,
          "velocity": 1,
          "duration": 0.75
        },
        {
          "name": "G4",
          "midi": 67,
          "time": 477,
          "velocity": 1,
          "duration": 0.75
        },
        {
          "name": "G2",
          "midi": 43,
          "time": 477.75,
          "velocity": 1,
          "duration": 0.75
        },
        {
          "name": "D3",
          "midi": 50,
          "time": 477.75,
          "velocity": 1,
          "duration": 1.875
        },
        {
          "name": "G3",
          "midi": 55,
          "time": 477.75,
          "velocity": 1,
          "duration": 0.75
        },
        {
          "name": "D4",
          "midi": 62,
          "time": 477.75,
          "velocity": 1,
          "duration": 0.75
        },
        {
          "name": "G4",
          "midi": 67,
          "time": 477.75,
          "velocity": 1,
          "duration": 0.75
        },
        {
          "name": "G2",
          "midi": 43,
          "time": 478.5,
          "velocity": 1,
          "duration": 1.125
        },
        {
          "name": "D3",
          "midi": 50,
          "time": 478.5,
          "velocity": 1,
          "duration": 1.3125
        },
        {
          "name": "G3",
          "midi": 55,
          "time": 478.5,
          "velocity": 1,
          "duration": 1.125
        },
        {
          "name": "D4",
          "midi": 62,
          "time": 478.5,
          "velocity": 1,
          "duration": 1.125
        },
        {
          "name": "G4",
          "midi": 67,
          "time": 478.5,
          "velocity": 1,
          "duration": 1.125
        },
        {
          "name": "G2",
          "midi": 43,
          "time": 479.625,
          "velocity": 1,
          "duration": 0.1875
        },
        {
          "name": "D3",
          "midi": 50,
          "time": 479.625,
          "velocity": 1,
          "duration": 0.375
        },
        {
          "name": "G3",
          "midi": 55,
          "time": 479.625,
          "velocity": 1,
          "duration": 0.1875
        },
        {
          "name": "D4",
          "midi": 62,
          "time": 479.625,
          "velocity": 1,
          "duration": 0.1875
        },
        {
          "name": "G4",
          "midi": 67,
          "time": 479.625,
          "velocity": 1,
          "duration": 0.1875
        },
        {
          "name": "G2",
          "midi": 43,
          "time": 479.8125,
          "velocity": 1,
          "duration": 0.1875
        },
        {
          "name": "D3",
          "midi": 50,
          "time": 479.8125,
          "velocity": 1,
          "duration": 0.5625
        },
        {
          "name": "G3",
          "midi": 55,
          "time": 479.8125,
          "velocity": 1,
          "duration": 0.1875
        },
        {
          "name": "D4",
          "midi": 62,
          "time": 479.8125,
          "velocity": 1,
          "duration": 0.1875
        },
        {
          "name": "G4",
          "midi": 67,
          "time": 479.8125,
          "velocity": 1,
          "duration": 0.1875
        },
        {
          "name": "G2",
          "midi": 43,
          "time": 480,
          "velocity": 1,
          "duration": 0.375
        },
        {
          "name": "D3",
          "midi": 50,
          "time": 480,
          "velocity": 1,
          "duration": 0
        },
        {
          "name": "G3",
          "midi": 55,
          "time": 480,
          "velocity": 1,
          "duration": 0.375
        },
        {
          "name": "D4",
          "midi": 62,
          "time": 480,
          "velocity": 1,
          "duration": 0
        },
        {
          "name": "G4",
          "midi": 67,
          "time": 480,
          "velocity": 1,
          "duration": 0.375
        },
        {
          "name": "A2",
          "midi": 45,
          "time": 480.375,
          "velocity": 1,
          "duration": 0.75
        },
        {
          "name": "E3",
          "midi": 52,
          "time": 480.375,
          "velocity": 1,
          "duration": 0.75
        },
        {
          "name": "A3",
          "midi": 57,
          "time": 480.375,
          "velocity": 1,
          "duration": 1.3125
        },
        {
          "name": "E4",
          "midi": 64,
          "time": 480.375,
          "velocity": 1,
          "duration": 0.75
        },
        {
          "name": "A4",
          "midi": 69,
          "time": 480.375,
          "velocity": 1,
          "duration": 0.75
        },
        {
          "name": "A2",
          "midi": 45,
          "time": 481.125,
          "velocity": 1,
          "duration": 0.5625
        },
        {
          "name": "E3",
          "midi": 52,
          "time": 481.125,
          "velocity": 1,
          "duration": 0.5625
        },
        {
          "name": "A3",
          "midi": 57,
          "time": 481.125,
          "velocity": 1,
          "duration": 0.75
        },
        {
          "name": "E4",
          "midi": 64,
          "time": 481.125,
          "velocity": 1,
          "duration": 0.5625
        },
        {
          "name": "A4",
          "midi": 69,
          "time": 481.125,
          "velocity": 1,
          "duration": 0.5625
        },
        {
          "name": "A2",
          "midi": 45,
          "time": 481.6875,
          "velocity": 1,
          "duration": 0.1875
        },
        {
          "name": "E3",
          "midi": 52,
          "time": 481.6875,
          "velocity": 1,
          "duration": 0.1875
        },
        {
          "name": "A3",
          "midi": 57,
          "time": 481.6875,
          "velocity": 1,
          "duration": 0.375
        },
        {
          "name": "E4",
          "midi": 64,
          "time": 481.6875,
          "velocity": 1,
          "duration": 0.1875
        },
        {
          "name": "A4",
          "midi": 69,
          "time": 481.6875,
          "velocity": 1,
          "duration": 0.1875
        },
        {
          "name": "A2",
          "midi": 45,
          "time": 481.875,
          "velocity": 1,
          "duration": 0.1875
        },
        {
          "name": "E3",
          "midi": 52,
          "time": 481.875,
          "velocity": 1,
          "duration": 0.1875
        },
        {
          "name": "A3",
          "midi": 57,
          "time": 481.875,
          "velocity": 1,
          "duration": 0.375
        },
        {
          "name": "E4",
          "midi": 64,
          "time": 481.875,
          "velocity": 1,
          "duration": 0.1875
        },
        {
          "name": "A4",
          "midi": 69,
          "time": 481.875,
          "velocity": 1,
          "duration": 0.1875
        },
        {
          "name": "A2",
          "midi": 45,
          "time": 482.0625,
          "velocity": 1,
          "duration": 0.1875
        },
        {
          "name": "E3",
          "midi": 52,
          "time": 482.0625,
          "velocity": 1,
          "duration": 0.1875
        },
        {
          "name": "A3",
          "midi": 57,
          "time": 482.0625,
          "velocity": 1,
          "duration": 0.9375
        },
        {
          "name": "E4",
          "midi": 64,
          "time": 482.0625,
          "velocity": 1,
          "duration": 0.1875
        },
        {
          "name": "A4",
          "midi": 69,
          "time": 482.0625,
          "velocity": 1,
          "duration": 0.1875
        },
        {
          "name": "A2",
          "midi": 45,
          "time": 482.25,
          "velocity": 1,
          "duration": 0.75
        },
        {
          "name": "E3",
          "midi": 52,
          "time": 482.25,
          "velocity": 1,
          "duration": 0.75
        },
        {
          "name": "A3",
          "midi": 57,
          "time": 482.25,
          "velocity": 1,
          "duration": 1.5
        },
        {
          "name": "E4",
          "midi": 64,
          "time": 482.25,
          "velocity": 1,
          "duration": 0.75
        },
        {
          "name": "A4",
          "midi": 69,
          "time": 482.25,
          "velocity": 1,
          "duration": 0.75
        },
        {
          "name": "A2",
          "midi": 45,
          "time": 483,
          "velocity": 1,
          "duration": 0.75
        },
        {
          "name": "E3",
          "midi": 52,
          "time": 483,
          "velocity": 1,
          "duration": 0.75
        },
        {
          "name": "A3",
          "midi": 57,
          "time": 483,
          "velocity": 1,
          "duration": 1.125
        },
        {
          "name": "E4",
          "midi": 64,
          "time": 483,
          "velocity": 1,
          "duration": 0.75
        },
        {
          "name": "A4",
          "midi": 69,
          "time": 483,
          "velocity": 1,
          "duration": 0.75
        },
        {
          "name": "A2",
          "midi": 45,
          "time": 483.75,
          "velocity": 1,
          "duration": 0.375
        },
        {
          "name": "E3",
          "midi": 52,
          "time": 483.75,
          "velocity": 1,
          "duration": 0.375
        },
        {
          "name": "A3",
          "midi": 57,
          "time": 483.75,
          "velocity": 1,
          "duration": 1.875
        },
        {
          "name": "E4",
          "midi": 64,
          "time": 483.75,
          "velocity": 1,
          "duration": 0.375
        },
        {
          "name": "A4",
          "midi": 69,
          "time": 483.75,
          "velocity": 1,
          "duration": 0.375
        },
        {
          "name": "A2",
          "midi": 45,
          "time": 484.125,
          "velocity": 1,
          "duration": 1.5
        },
        {
          "name": "E3",
          "midi": 52,
          "time": 484.125,
          "velocity": 1,
          "duration": 1.5
        },
        {
          "name": "A3",
          "midi": 57,
          "time": 484.125,
          "velocity": 1,
          "duration": 1.875
        },
        {
          "name": "E4",
          "midi": 64,
          "time": 484.125,
          "velocity": 1,
          "duration": 1.5
        },
        {
          "name": "A4",
          "midi": 69,
          "time": 484.125,
          "velocity": 1,
          "duration": 1.5
        },
        {
          "name": "A2",
          "midi": 45,
          "time": 485.625,
          "velocity": 1,
          "duration": 0.375
        },
        {
          "name": "E3",
          "midi": 52,
          "time": 485.625,
          "velocity": 1,
          "duration": 0.375
        },
        {
          "name": "A3",
          "midi": 57,
          "time": 485.625,
          "velocity": 1,
          "duration": 0.5625
        },
        {
          "name": "E4",
          "midi": 64,
          "time": 485.625,
          "velocity": 1,
          "duration": 0.375
        },
        {
          "name": "A4",
          "midi": 69,
          "time": 485.625,
          "velocity": 1,
          "duration": 0.375
        },
        {
          "name": "A2",
          "midi": 45,
          "time": 486,
          "velocity": 1,
          "duration": 0.1875
        },
        {
          "name": "E3",
          "midi": 52,
          "time": 486,
          "velocity": 1,
          "duration": 0.1875
        },
        {
          "name": "A3",
          "midi": 57,
          "time": 486,
          "velocity": 1,
          "duration": 0.375
        },
        {
          "name": "E4",
          "midi": 64,
          "time": 486,
          "velocity": 1,
          "duration": 0.1875
        },
        {
          "name": "A4",
          "midi": 69,
          "time": 486,
          "velocity": 1,
          "duration": 0.1875
        },
        {
          "name": "A2",
          "midi": 45,
          "time": 486.1875,
          "velocity": 1,
          "duration": 0.1875
        },
        {
          "name": "E3",
          "midi": 52,
          "time": 486.1875,
          "velocity": 1,
          "duration": 0.1875
        },
        {
          "name": "A3",
          "midi": 57,
          "time": 486.1875,
          "velocity": 1,
          "duration": 0
        },
        {
          "name": "E4",
          "midi": 64,
          "time": 486.1875,
          "velocity": 1,
          "duration": 0
        },
        {
          "name": "A4",
          "midi": 69,
          "time": 486.1875,
          "velocity": 1,
          "duration": 0.1875
        }
      ],
      "controlChanges": {},
      "id": 1,
      "name": "Clean Guitar        ",
      "instrumentNumber": 25,
      "instrument": "acoustic guitar (steel)",
      "instrumentFamily": "guitar",
      "channelNumber": 7,
      "isPercussion": false
    },
    {
      "startTime": 0,
      "duration": 486.375,
      "length": 1218,
      "notes": [
        {
          "name": "D3",
          "midi": 50,
          "time": 0,
          "velocity": 1,
          "duration": 0.1875
        },
        {
          "name": "D3",
          "midi": 50,
          "time": 0.1875,
          "velocity": 1,
          "duration": 0.1875
        },
        {
          "name": "D3",
          "midi": 50,
          "time": 1.125,
          "velocity": 1,
          "duration": 0.1875
        },
        {
          "name": "D3",
          "midi": 50,
          "time": 1.3125,
          "velocity": 1,
          "duration": 0.1875
        },
        {
          "name": "D3",
          "midi": 50,
          "time": 1.5,
          "velocity": 1,
          "duration": 0.1875
        },
        {
          "name": "D2",
          "midi": 38,
          "time": 1.6875,
          "velocity": 1,
          "duration": 0.1875
        },
        {
          "name": "D2",
          "midi": 38,
          "time": 1.875,
          "velocity": 1,
          "duration": 0.375
        },
        {
          "name": "D2",
          "midi": 38,
          "time": 2.25,
          "velocity": 1,
          "duration": 0.1875
        },
        {
          "name": "D2",
          "midi": 38,
          "time": 2.4375,
          "velocity": 1,
          "duration": 0.1875
        },
        {
          "name": "D2",
          "midi": 38,
          "time": 2.625,
          "velocity": 1,
          "duration": 0.375
        },
        {
          "name": "D3",
          "midi": 50,
          "time": 3.375,
          "velocity": 1,
          "duration": 0.1875
        },
        {
          "name": "D3",
          "midi": 50,
          "time": 3.5625,
          "velocity": 1,
          "duration": 0.1875
        },
        {
          "name": "D3",
          "midi": 50,
          "time": 3.75,
          "velocity": 1,
          "duration": 0.375
        },
        {
          "name": "D2",
          "midi": 38,
          "time": 4.125,
          "velocity": 1,
          "duration": 0.375
        },
        {
          "name": "D2",
          "midi": 38,
          "time": 4.5,
          "velocity": 1,
          "duration": 0.1875
        },
        {
          "name": "D2",
          "midi": 38,
          "time": 4.6875,
          "velocity": 1,
          "duration": 0.1875
        },
        {
          "name": "D2",
          "midi": 38,
          "time": 4.875,
          "velocity": 1,
          "duration": 0.375
        },
        {
          "name": "D3",
          "midi": 50,
          "time": 5.625,
          "velocity": 1,
          "duration": 0.1875
        },
        {
          "name": "D3",
          "midi": 50,
          "time": 5.8125,
          "velocity": 1,
          "duration": 0.1875
        },
        {
          "name": "D3",
          "midi": 50,
          "time": 6,
          "velocity": 1,
          "duration": 0.375
        },
        {
          "name": "D2",
          "midi": 38,
          "time": 6.375,
          "velocity": 1,
          "duration": 0.375
        },
        {
          "name": "D2",
          "midi": 38,
          "time": 6.75,
          "velocity": 1,
          "duration": 0.1875
        },
        {
          "name": "D2",
          "midi": 38,
          "time": 6.9375,
          "velocity": 1,
          "duration": 0.1875
        },
        {
          "name": "D2",
          "midi": 38,
          "time": 7.125,
          "velocity": 1,
          "duration": 0.375
        },
        {
          "name": "D3",
          "midi": 50,
          "time": 7.875,
          "velocity": 1,
          "duration": 0.1875
        },
        {
          "name": "D3",
          "midi": 50,
          "time": 8.0625,
          "velocity": 1,
          "duration": 0.1875
        },
        {
          "name": "D3",
          "midi": 50,
          "time": 8.25,
          "velocity": 1,
          "duration": 0.375
        },
        {
          "name": "D2",
          "midi": 38,
          "time": 8.625,
          "velocity": 1,
          "duration": 0.375
        },
        {
          "name": "D2",
          "midi": 38,
          "time": 9,
          "velocity": 1,
          "duration": 0.1875
        },
        {
          "name": "D2",
          "midi": 38,
          "time": 9.1875,
          "velocity": 1,
          "duration": 0.1875
        },
        {
          "name": "D2",
          "midi": 38,
          "time": 9.375,
          "velocity": 1,
          "duration": 0.375
        },
        {
          "name": "D3",
          "midi": 50,
          "time": 10.125,
          "velocity": 1,
          "duration": 0.1875
        },
        {
          "name": "D3",
          "midi": 50,
          "time": 10.3125,
          "velocity": 1,
          "duration": 0.1875
        },
        {
          "name": "D3",
          "midi": 50,
          "time": 10.5,
          "velocity": 1,
          "duration": 0.1875
        },
        {
          "name": "D2",
          "midi": 38,
          "time": 10.6875,
          "velocity": 1,
          "duration": 0.1875
        },
        {
          "name": "D2",
          "midi": 38,
          "time": 10.875,
          "velocity": 1,
          "duration": 0.375
        },
        {
          "name": "D2",
          "midi": 38,
          "time": 11.25,
          "velocity": 1,
          "duration": 0.1875
        },
        {
          "name": "D2",
          "midi": 38,
          "time": 11.4375,
          "velocity": 1,
          "duration": 0.1875
        },
        {
          "name": "D2",
          "midi": 38,
          "time": 11.625,
          "velocity": 1,
          "duration": 0.375
        },
        {
          "name": "D3",
          "midi": 50,
          "time": 12.375,
          "velocity": 1,
          "duration": 0.1875
        },
        {
          "name": "D3",
          "midi": 50,
          "time": 12.5625,
          "velocity": 1,
          "duration": 0.1875
        },
        {
          "name": "D3",
          "midi": 50,
          "time": 12.75,
          "velocity": 1,
          "duration": 0.375
        },
        {
          "name": "D2",
          "midi": 38,
          "time": 13.125,
          "velocity": 1,
          "duration": 0.375
        },
        {
          "name": "D2",
          "midi": 38,
          "time": 13.5,
          "velocity": 1,
          "duration": 0.1875
        },
        {
          "name": "D2",
          "midi": 38,
          "time": 13.6875,
          "velocity": 1,
          "duration": 0.1875
        },
        {
          "name": "D2",
          "midi": 38,
          "time": 13.875,
          "velocity": 1,
          "duration": 0.375
        },
        {
          "name": "D3",
          "midi": 50,
          "time": 14.625,
          "velocity": 1,
          "duration": 0.1875
        },
        {
          "name": "D3",
          "midi": 50,
          "time": 14.8125,
          "velocity": 1,
          "duration": 0.1875
        },
        {
          "name": "D3",
          "midi": 50,
          "time": 15,
          "velocity": 1,
          "duration": 0.375
        },
        {
          "name": "D2",
          "midi": 38,
          "time": 15.375,
          "velocity": 1,
          "duration": 0.375
        },
        {
          "name": "D2",
          "midi": 38,
          "time": 15.75,
          "velocity": 1,
          "duration": 0.1875
        },
        {
          "name": "D2",
          "midi": 38,
          "time": 15.9375,
          "velocity": 1,
          "duration": 0.1875
        },
        {
          "name": "D2",
          "midi": 38,
          "time": 16.125,
          "velocity": 1,
          "duration": 0.375
        },
        {
          "name": "D3",
          "midi": 50,
          "time": 16.875,
          "velocity": 1,
          "duration": 0.1875
        },
        {
          "name": "D3",
          "midi": 50,
          "time": 17.0625,
          "velocity": 1,
          "duration": 0.1875
        },
        {
          "name": "D3",
          "midi": 50,
          "time": 17.25,
          "velocity": 1,
          "duration": 0.375
        },
        {
          "name": "D2",
          "midi": 38,
          "time": 17.625,
          "velocity": 1,
          "duration": 0.375
        },
        {
          "name": "D2",
          "midi": 38,
          "time": 18,
          "velocity": 1,
          "duration": 0.1875
        },
        {
          "name": "D2",
          "midi": 38,
          "time": 18.1875,
          "velocity": 1,
          "duration": 0.1875
        },
        {
          "name": "D2",
          "midi": 38,
          "time": 18.375,
          "velocity": 1,
          "duration": 0.375
        },
        {
          "name": "D3",
          "midi": 50,
          "time": 19.125,
          "velocity": 1,
          "duration": 0.1875
        },
        {
          "name": "D3",
          "midi": 50,
          "time": 19.3125,
          "velocity": 1,
          "duration": 0.1875
        },
        {
          "name": "D3",
          "midi": 50,
          "time": 19.5,
          "velocity": 1,
          "duration": 0.1875
        },
        {
          "name": "D2",
          "midi": 38,
          "time": 19.6875,
          "velocity": 1,
          "duration": 0.1875
        },
        {
          "name": "D2",
          "midi": 38,
          "time": 19.875,
          "velocity": 1,
          "duration": 0.375
        },
        {
          "name": "D2",
          "midi": 38,
          "time": 20.25,
          "velocity": 1,
          "duration": 0.1875
        },
        {
          "name": "D2",
          "midi": 38,
          "time": 20.4375,
          "velocity": 1,
          "duration": 0.1875
        },
        {
          "name": "D2",
          "midi": 38,
          "time": 20.625,
          "velocity": 1,
          "duration": 0.375
        },
        {
          "name": "D3",
          "midi": 50,
          "time": 21.375,
          "velocity": 1,
          "duration": 0.1875
        },
        {
          "name": "D3",
          "midi": 50,
          "time": 21.5625,
          "velocity": 1,
          "duration": 0.1875
        },
        {
          "name": "D3",
          "midi": 50,
          "time": 21.75,
          "velocity": 1,
          "duration": 0.375
        },
        {
          "name": "D2",
          "midi": 38,
          "time": 22.125,
          "velocity": 1,
          "duration": 0.375
        },
        {
          "name": "D2",
          "midi": 38,
          "time": 22.5,
          "velocity": 1,
          "duration": 0.1875
        },
        {
          "name": "D2",
          "midi": 38,
          "time": 22.6875,
          "velocity": 1,
          "duration": 0.1875
        },
        {
          "name": "D2",
          "midi": 38,
          "time": 22.875,
          "velocity": 1,
          "duration": 0.375
        },
        {
          "name": "D3",
          "midi": 50,
          "time": 23.625,
          "velocity": 1,
          "duration": 0.1875
        },
        {
          "name": "D3",
          "midi": 50,
          "time": 23.8125,
          "velocity": 1,
          "duration": 0.1875
        },
        {
          "name": "D3",
          "midi": 50,
          "time": 24,
          "velocity": 1,
          "duration": 0.375
        },
        {
          "name": "D2",
          "midi": 38,
          "time": 24.375,
          "velocity": 1,
          "duration": 0.375
        },
        {
          "name": "D2",
          "midi": 38,
          "time": 24.75,
          "velocity": 1,
          "duration": 0.1875
        },
        {
          "name": "D2",
          "midi": 38,
          "time": 24.9375,
          "velocity": 1,
          "duration": 0.1875
        },
        {
          "name": "D2",
          "midi": 38,
          "time": 25.125,
          "velocity": 1,
          "duration": 0.375
        },
        {
          "name": "D3",
          "midi": 50,
          "time": 25.875,
          "velocity": 1,
          "duration": 0.1875
        },
        {
          "name": "D3",
          "midi": 50,
          "time": 26.0625,
          "velocity": 1,
          "duration": 0.1875
        },
        {
          "name": "D3",
          "midi": 50,
          "time": 26.25,
          "velocity": 1,
          "duration": 0.375
        },
        {
          "name": "D2",
          "midi": 38,
          "time": 26.625,
          "velocity": 1,
          "duration": 0.375
        },
        {
          "name": "D2",
          "midi": 38,
          "time": 27,
          "velocity": 1,
          "duration": 0.1875
        },
        {
          "name": "D2",
          "midi": 38,
          "time": 27.1875,
          "velocity": 1,
          "duration": 0.1875
        },
        {
          "name": "D2",
          "midi": 38,
          "time": 27.375,
          "velocity": 1,
          "duration": 0.375
        },
        {
          "name": "D2",
          "midi": 38,
          "time": 28.125,
          "velocity": 1,
          "duration": 0.1875
        },
        {
          "name": "D2",
          "midi": 38,
          "time": 28.3125,
          "velocity": 1,
          "duration": 0.1875
        },
        {
          "name": "D2",
          "midi": 38,
          "time": 28.5,
          "velocity": 1,
          "duration": 0.1875
        },
        {
          "name": "D2",
          "midi": 38,
          "time": 28.6875,
          "velocity": 1,
          "duration": 0.1875
        },
        {
          "name": "D2",
          "midi": 38,
          "time": 28.875,
          "velocity": 1,
          "duration": 0.375
        },
        {
          "name": "D2",
          "midi": 38,
          "time": 29.25,
          "velocity": 1,
          "duration": 0.1875
        },
        {
          "name": "D2",
          "midi": 38,
          "time": 29.4375,
          "velocity": 1,
          "duration": 0.1875
        },
        {
          "name": "D2",
          "midi": 38,
          "time": 29.625,
          "velocity": 1,
          "duration": 0.375
        },
        {
          "name": "D2",
          "midi": 38,
          "time": 30.375,
          "velocity": 1,
          "duration": 0.1875
        },
        {
          "name": "D2",
          "midi": 38,
          "time": 30.5625,
          "velocity": 1,
          "duration": 0.1875
        },
        {
          "name": "D2",
          "midi": 38,
          "time": 30.75,
          "velocity": 1,
          "duration": 0.1875
        },
        {
          "name": "D2",
          "midi": 38,
          "time": 30.9375,
          "velocity": 1,
          "duration": 0.1875
        },
        {
          "name": "D2",
          "midi": 38,
          "time": 31.125,
          "velocity": 1,
          "duration": 0.375
        },
        {
          "name": "D2",
          "midi": 38,
          "time": 31.5,
          "velocity": 1,
          "duration": 0.1875
        },
        {
          "name": "D2",
          "midi": 38,
          "time": 31.6875,
          "velocity": 1,
          "duration": 0.1875
        },
        {
          "name": "D2",
          "midi": 38,
          "time": 31.875,
          "velocity": 1,
          "duration": 0.375
        },
        {
          "name": "D3",
          "midi": 50,
          "time": 32.625,
          "velocity": 1,
          "duration": 0.1875
        },
        {
          "name": "D3",
          "midi": 50,
          "time": 32.8125,
          "velocity": 1,
          "duration": 0.1875
        },
        {
          "name": "D3",
          "midi": 50,
          "time": 33,
          "velocity": 1,
          "duration": 0.375
        },
        {
          "name": "D2",
          "midi": 38,
          "time": 33.375,
          "velocity": 1,
          "duration": 0.375
        },
        {
          "name": "D2",
          "midi": 38,
          "time": 33.75,
          "velocity": 1,
          "duration": 0.1875
        },
        {
          "name": "D2",
          "midi": 38,
          "time": 33.9375,
          "velocity": 1,
          "duration": 0.1875
        },
        {
          "name": "D2",
          "midi": 38,
          "time": 34.125,
          "velocity": 1,
          "duration": 0.375
        },
        {
          "name": "D3",
          "midi": 50,
          "time": 34.875,
          "velocity": 1,
          "duration": 0.1875
        },
        {
          "name": "D3",
          "midi": 50,
          "time": 35.0625,
          "velocity": 1,
          "duration": 0.1875
        },
        {
          "name": "D3",
          "midi": 50,
          "time": 35.25,
          "velocity": 1,
          "duration": 0.375
        },
        {
          "name": "D2",
          "midi": 38,
          "time": 35.625,
          "velocity": 1,
          "duration": 0.375
        },
        {
          "name": "D2",
          "midi": 38,
          "time": 36,
          "velocity": 1,
          "duration": 0.1875
        },
        {
          "name": "D2",
          "midi": 38,
          "time": 36.1875,
          "velocity": 1,
          "duration": 0.1875
        },
        {
          "name": "D2",
          "midi": 38,
          "time": 36.375,
          "velocity": 1,
          "duration": 0.375
        },
        {
          "name": "D3",
          "midi": 50,
          "time": 37.125,
          "velocity": 1,
          "duration": 0.1875
        },
        {
          "name": "D3",
          "midi": 50,
          "time": 37.3125,
          "velocity": 1,
          "duration": 0.1875
        },
        {
          "name": "D3",
          "midi": 50,
          "time": 37.5,
          "velocity": 1,
          "duration": 0.1875
        },
        {
          "name": "D2",
          "midi": 38,
          "time": 37.6875,
          "velocity": 1,
          "duration": 0.1875
        },
        {
          "name": "D2",
          "midi": 38,
          "time": 37.875,
          "velocity": 1,
          "duration": 0.375
        },
        {
          "name": "D2",
          "midi": 38,
          "time": 38.25,
          "velocity": 1,
          "duration": 0.1875
        },
        {
          "name": "D2",
          "midi": 38,
          "time": 38.4375,
          "velocity": 1,
          "duration": 0.1875
        },
        {
          "name": "D2",
          "midi": 38,
          "time": 38.625,
          "velocity": 1,
          "duration": 0.375
        },
        {
          "name": "D3",
          "midi": 50,
          "time": 39.375,
          "velocity": 1,
          "duration": 0.1875
        },
        {
          "name": "D3",
          "midi": 50,
          "time": 39.5625,
          "velocity": 1,
          "duration": 0.1875
        },
        {
          "name": "D3",
          "midi": 50,
          "time": 39.75,
          "velocity": 1,
          "duration": 0.1875
        },
        {
          "name": "D2",
          "midi": 38,
          "time": 39.9375,
          "velocity": 1,
          "duration": 0.1875
        },
        {
          "name": "D2",
          "midi": 38,
          "time": 40.125,
          "velocity": 1,
          "duration": 0.375
        },
        {
          "name": "D2",
          "midi": 38,
          "time": 40.5,
          "velocity": 1,
          "duration": 0.1875
        },
        {
          "name": "D2",
          "midi": 38,
          "time": 40.6875,
          "velocity": 1,
          "duration": 0.1875
        },
        {
          "name": "D2",
          "midi": 38,
          "time": 40.875,
          "velocity": 1,
          "duration": 0.375
        },
        {
          "name": "D3",
          "midi": 50,
          "time": 41.625,
          "velocity": 1,
          "duration": 0.1875
        },
        {
          "name": "D3",
          "midi": 50,
          "time": 41.8125,
          "velocity": 1,
          "duration": 0.1875
        },
        {
          "name": "D3",
          "midi": 50,
          "time": 42,
          "velocity": 1,
          "duration": 0.375
        },
        {
          "name": "D2",
          "midi": 38,
          "time": 42.375,
          "velocity": 1,
          "duration": 0.375
        },
        {
          "name": "D2",
          "midi": 38,
          "time": 42.75,
          "velocity": 1,
          "duration": 0.1875
        },
        {
          "name": "D2",
          "midi": 38,
          "time": 42.9375,
          "velocity": 1,
          "duration": 0.1875
        },
        {
          "name": "D2",
          "midi": 38,
          "time": 43.125,
          "velocity": 1,
          "duration": 0.375
        },
        {
          "name": "D2",
          "midi": 38,
          "time": 43.875,
          "velocity": 1,
          "duration": 0.1875
        },
        {
          "name": "D2",
          "midi": 38,
          "time": 44.0625,
          "velocity": 1,
          "duration": 0.1875
        },
        {
          "name": "D2",
          "midi": 38,
          "time": 44.25,
          "velocity": 1,
          "duration": 0.1875
        },
        {
          "name": "D2",
          "midi": 38,
          "time": 44.4375,
          "velocity": 1,
          "duration": 0.1875
        },
        {
          "name": "D2",
          "midi": 38,
          "time": 44.625,
          "velocity": 1,
          "duration": 0.375
        },
        {
          "name": "D2",
          "midi": 38,
          "time": 45,
          "velocity": 1,
          "duration": 0.1875
        },
        {
          "name": "D2",
          "midi": 38,
          "time": 45.1875,
          "velocity": 1,
          "duration": 0.1875
        },
        {
          "name": "D2",
          "midi": 38,
          "time": 45.375,
          "velocity": 1,
          "duration": 0.375
        },
        {
          "name": "D2",
          "midi": 38,
          "time": 46.125,
          "velocity": 1,
          "duration": 0.1875
        },
        {
          "name": "D2",
          "midi": 38,
          "time": 46.3125,
          "velocity": 1,
          "duration": 0.1875
        },
        {
          "name": "D2",
          "midi": 38,
          "time": 46.5,
          "velocity": 1,
          "duration": 0.1875
        },
        {
          "name": "D2",
          "midi": 38,
          "time": 46.6875,
          "velocity": 1,
          "duration": 0.1875
        },
        {
          "name": "D2",
          "midi": 38,
          "time": 46.875,
          "velocity": 1,
          "duration": 0.375
        },
        {
          "name": "D2",
          "midi": 38,
          "time": 47.25,
          "velocity": 1,
          "duration": 0.1875
        },
        {
          "name": "D2",
          "midi": 38,
          "time": 47.4375,
          "velocity": 1,
          "duration": 0.1875
        },
        {
          "name": "D2",
          "midi": 38,
          "time": 47.625,
          "velocity": 1,
          "duration": 0.375
        },
        {
          "name": "D2",
          "midi": 38,
          "time": 48.375,
          "velocity": 1,
          "duration": 0.1875
        },
        {
          "name": "D2",
          "midi": 38,
          "time": 48.5625,
          "velocity": 1,
          "duration": 0.1875
        },
        {
          "name": "D2",
          "midi": 38,
          "time": 48.75,
          "velocity": 1,
          "duration": 0.1875
        },
        {
          "name": "D2",
          "midi": 38,
          "time": 48.9375,
          "velocity": 1,
          "duration": 0.1875
        },
        {
          "name": "D2",
          "midi": 38,
          "time": 49.125,
          "velocity": 1,
          "duration": 0.375
        },
        {
          "name": "D2",
          "midi": 38,
          "time": 49.5,
          "velocity": 1,
          "duration": 0.1875
        },
        {
          "name": "D2",
          "midi": 38,
          "time": 49.6875,
          "velocity": 1,
          "duration": 0.1875
        },
        {
          "name": "D2",
          "midi": 38,
          "time": 49.875,
          "velocity": 1,
          "duration": 0.375
        },
        {
          "name": "D3",
          "midi": 50,
          "time": 50.625,
          "velocity": 1,
          "duration": 0.1875
        },
        {
          "name": "D3",
          "midi": 50,
          "time": 50.8125,
          "velocity": 1,
          "duration": 0.1875
        },
        {
          "name": "D3",
          "midi": 50,
          "time": 51,
          "velocity": 1,
          "duration": 0.1875
        },
        {
          "name": "D2",
          "midi": 38,
          "time": 51.1875,
          "velocity": 1,
          "duration": 0.1875
        },
        {
          "name": "D2",
          "midi": 38,
          "time": 51.375,
          "velocity": 1,
          "duration": 0.375
        },
        {
          "name": "D2",
          "midi": 38,
          "time": 51.75,
          "velocity": 1,
          "duration": 0.1875
        },
        {
          "name": "D2",
          "midi": 38,
          "time": 51.9375,
          "velocity": 1,
          "duration": 0.1875
        },
        {
          "name": "D2",
          "midi": 38,
          "time": 52.125,
          "velocity": 1,
          "duration": 0.375
        },
        {
          "name": "D2",
          "midi": 38,
          "time": 52.875,
          "velocity": 1,
          "duration": 0.1875
        },
        {
          "name": "D2",
          "midi": 38,
          "time": 53.0625,
          "velocity": 1,
          "duration": 0.1875
        },
        {
          "name": "D2",
          "midi": 38,
          "time": 53.25,
          "velocity": 1,
          "duration": 0.1875
        },
        {
          "name": "D2",
          "midi": 38,
          "time": 53.4375,
          "velocity": 1,
          "duration": 0.1875
        },
        {
          "name": "D2",
          "midi": 38,
          "time": 53.625,
          "velocity": 1,
          "duration": 0.375
        },
        {
          "name": "D2",
          "midi": 38,
          "time": 54,
          "velocity": 1,
          "duration": 0.1875
        },
        {
          "name": "D2",
          "midi": 38,
          "time": 54.1875,
          "velocity": 1,
          "duration": 0.1875
        },
        {
          "name": "D2",
          "midi": 38,
          "time": 54.375,
          "velocity": 1,
          "duration": 0.75
        },
        {
          "name": "D3",
          "midi": 50,
          "time": 55.125,
          "velocity": 1,
          "duration": 1.875
        },
        {
          "name": "D3",
          "midi": 50,
          "time": 57.375,
          "velocity": 1,
          "duration": 0.1875
        },
        {
          "name": "D2",
          "midi": 38,
          "time": 57.5625,
          "velocity": 1,
          "duration": 0.1875
        },
        {
          "name": "D3",
          "midi": 50,
          "time": 57.75,
          "velocity": 1,
          "duration": 0.375
        },
        {
          "name": "D2",
          "midi": 38,
          "time": 58.125,
          "velocity": 1,
          "duration": 0.1875
        },
        {
          "name": "D2",
          "midi": 38,
          "time": 58.3125,
          "velocity": 1,
          "duration": 0.1875
        },
        {
          "name": "D2",
          "midi": 38,
          "time": 58.6875,
          "velocity": 1,
          "duration": 0.1875
        },
        {
          "name": "D2",
          "midi": 38,
          "time": 58.875,
          "velocity": 1,
          "duration": 0.375
        },
        {
          "name": "D3",
          "midi": 50,
          "time": 59.625,
          "velocity": 1,
          "duration": 0.1875
        },
        {
          "name": "D3",
          "midi": 50,
          "time": 59.8125,
          "velocity": 1,
          "duration": 0.1875
        },
        {
          "name": "D2",
          "midi": 38,
          "time": 60.375,
          "velocity": 1,
          "duration": 0.1875
        },
        {
          "name": "D2",
          "midi": 38,
          "time": 60.5625,
          "velocity": 1,
          "duration": 0.1875
        },
        {
          "name": "D2",
          "midi": 38,
          "time": 60.75,
          "velocity": 1,
          "duration": 0.1875
        },
        {
          "name": "D2",
          "midi": 38,
          "time": 60.9375,
          "velocity": 1,
          "duration": 0.1875
        },
        {
          "name": "D2",
          "midi": 38,
          "time": 61.125,
          "velocity": 1,
          "duration": 0.75
        },
        {
          "name": "D3",
          "midi": 50,
          "time": 61.875,
          "velocity": 1,
          "duration": 0.1875
        },
        {
          "name": "D3",
          "midi": 50,
          "time": 62.0625,
          "velocity": 1,
          "duration": 0.1875
        },
        {
          "name": "D2",
          "midi": 38,
          "time": 62.625,
          "velocity": 1,
          "duration": 0.1875
        },
        {
          "name": "D2",
          "midi": 38,
          "time": 62.8125,
          "velocity": 1,
          "duration": 0.1875
        },
        {
          "name": "D2",
          "midi": 38,
          "time": 63,
          "velocity": 1,
          "duration": 0.1875
        },
        {
          "name": "D2",
          "midi": 38,
          "time": 63.1875,
          "velocity": 1,
          "duration": 0.1875
        },
        {
          "name": "D2",
          "midi": 38,
          "time": 63.375,
          "velocity": 1,
          "duration": 0.375
        },
        {
          "name": "D2",
          "midi": 38,
          "time": 64.125,
          "velocity": 1,
          "duration": 0.1875
        },
        {
          "name": "D2",
          "midi": 38,
          "time": 64.3125,
          "velocity": 1,
          "duration": 0.1875
        },
        {
          "name": "D2",
          "midi": 38,
          "time": 64.5,
          "velocity": 1,
          "duration": 0.1875
        },
        {
          "name": "D2",
          "midi": 38,
          "time": 64.6875,
          "velocity": 1,
          "duration": 0.1875
        },
        {
          "name": "D2",
          "midi": 38,
          "time": 64.875,
          "velocity": 1,
          "duration": 0.375
        },
        {
          "name": "D2",
          "midi": 38,
          "time": 65.25,
          "velocity": 1,
          "duration": 0.1875
        },
        {
          "name": "D2",
          "midi": 38,
          "time": 65.4375,
          "velocity": 1,
          "duration": 0.1875
        },
        {
          "name": "D2",
          "midi": 38,
          "time": 65.625,
          "velocity": 1,
          "duration": 0.375
        },
        {
          "name": "D3",
          "midi": 50,
          "time": 66.375,
          "velocity": 1,
          "duration": 0.1875
        },
        {
          "name": "D3",
          "midi": 50,
          "time": 66.5625,
          "velocity": 1,
          "duration": 0.1875
        },
        {
          "name": "D3",
          "midi": 50,
          "time": 66.75,
          "velocity": 1,
          "duration": 0.375
        },
        {
          "name": "D2",
          "midi": 38,
          "time": 67.125,
          "velocity": 1,
          "duration": 0.375
        },
        {
          "name": "D2",
          "midi": 38,
          "time": 67.5,
          "velocity": 1,
          "duration": 0.1875
        },
        {
          "name": "D2",
          "midi": 38,
          "time": 67.6875,
          "velocity": 1,
          "duration": 0.1875
        },
        {
          "name": "D2",
          "midi": 38,
          "time": 67.875,
          "velocity": 1,
          "duration": 0.375
        },
        {
          "name": "D3",
          "midi": 50,
          "time": 68.625,
          "velocity": 1,
          "duration": 0.1875
        },
        {
          "name": "D3",
          "midi": 50,
          "time": 68.8125,
          "velocity": 1,
          "duration": 0.1875
        },
        {
          "name": "D3",
          "midi": 50,
          "time": 69,
          "velocity": 1,
          "duration": 0.1875
        },
        {
          "name": "D2",
          "midi": 38,
          "time": 69.1875,
          "velocity": 1,
          "duration": 0.1875
        },
        {
          "name": "D2",
          "midi": 38,
          "time": 69.375,
          "velocity": 1,
          "duration": 0.375
        },
        {
          "name": "D2",
          "midi": 38,
          "time": 69.75,
          "velocity": 1,
          "duration": 0.1875
        },
        {
          "name": "D2",
          "midi": 38,
          "time": 69.9375,
          "velocity": 1,
          "duration": 0.1875
        },
        {
          "name": "D2",
          "midi": 38,
          "time": 70.125,
          "velocity": 1,
          "duration": 0.375
        },
        {
          "name": "D3",
          "midi": 50,
          "time": 70.875,
          "velocity": 1,
          "duration": 0.1875
        },
        {
          "name": "D3",
          "midi": 50,
          "time": 71.0625,
          "velocity": 1,
          "duration": 0.1875
        },
        {
          "name": "D3",
          "midi": 50,
          "time": 71.25,
          "velocity": 1,
          "duration": 0.375
        },
        {
          "name": "D2",
          "midi": 38,
          "time": 71.625,
          "velocity": 1,
          "duration": 0.375
        },
        {
          "name": "D2",
          "midi": 38,
          "time": 72,
          "velocity": 1,
          "duration": 0.1875
        },
        {
          "name": "D2",
          "midi": 38,
          "time": 72.1875,
          "velocity": 1,
          "duration": 0.1875
        },
        {
          "name": "D2",
          "midi": 38,
          "time": 72.375,
          "velocity": 1,
          "duration": 0.375
        },
        {
          "name": "D2",
          "midi": 38,
          "time": 73.125,
          "velocity": 1,
          "duration": 0.1875
        },
        {
          "name": "D2",
          "midi": 38,
          "time": 73.3125,
          "velocity": 1,
          "duration": 0.1875
        },
        {
          "name": "D2",
          "midi": 38,
          "time": 73.5,
          "velocity": 1,
          "duration": 0.1875
        },
        {
          "name": "D2",
          "midi": 38,
          "time": 73.6875,
          "velocity": 1,
          "duration": 0.1875
        },
        {
          "name": "D2",
          "midi": 38,
          "time": 73.875,
          "velocity": 1,
          "duration": 0.375
        },
        {
          "name": "D2",
          "midi": 38,
          "time": 74.25,
          "velocity": 1,
          "duration": 0.1875
        },
        {
          "name": "D2",
          "midi": 38,
          "time": 74.4375,
          "velocity": 1,
          "duration": 0.1875
        },
        {
          "name": "D2",
          "midi": 38,
          "time": 74.625,
          "velocity": 1,
          "duration": 0.375
        },
        {
          "name": "D3",
          "midi": 50,
          "time": 75.375,
          "velocity": 1,
          "duration": 0.1875
        },
        {
          "name": "D3",
          "midi": 50,
          "time": 75.5625,
          "velocity": 1,
          "duration": 0.1875
        },
        {
          "name": "D3",
          "midi": 50,
          "time": 75.75,
          "velocity": 1,
          "duration": 0.1875
        },
        {
          "name": "D2",
          "midi": 38,
          "time": 75.9375,
          "velocity": 1,
          "duration": 0.1875
        },
        {
          "name": "D2",
          "midi": 38,
          "time": 76.125,
          "velocity": 1,
          "duration": 0.375
        },
        {
          "name": "D2",
          "midi": 38,
          "time": 76.5,
          "velocity": 1,
          "duration": 0.1875
        },
        {
          "name": "D2",
          "midi": 38,
          "time": 76.6875,
          "velocity": 1,
          "duration": 0.1875
        },
        {
          "name": "D2",
          "midi": 38,
          "time": 76.875,
          "velocity": 1,
          "duration": 0.375
        },
        {
          "name": "D3",
          "midi": 50,
          "time": 77.625,
          "velocity": 1,
          "duration": 0.1875
        },
        {
          "name": "D3",
          "midi": 50,
          "time": 77.8125,
          "velocity": 1,
          "duration": 0.1875
        },
        {
          "name": "D3",
          "midi": 50,
          "time": 78,
          "velocity": 1,
          "duration": 0.375
        },
        {
          "name": "D2",
          "midi": 38,
          "time": 78.375,
          "velocity": 1,
          "duration": 0.375
        },
        {
          "name": "D2",
          "midi": 38,
          "time": 78.75,
          "velocity": 1,
          "duration": 0.1875
        },
        {
          "name": "D2",
          "midi": 38,
          "time": 78.9375,
          "velocity": 1,
          "duration": 0.1875
        },
        {
          "name": "D2",
          "midi": 38,
          "time": 79.125,
          "velocity": 1,
          "duration": 0.375
        },
        {
          "name": "D3",
          "midi": 50,
          "time": 79.875,
          "velocity": 1,
          "duration": 0.1875
        },
        {
          "name": "D3",
          "midi": 50,
          "time": 80.0625,
          "velocity": 1,
          "duration": 0.1875
        },
        {
          "name": "D3",
          "midi": 50,
          "time": 80.25,
          "velocity": 1,
          "duration": 0.375
        },
        {
          "name": "D2",
          "midi": 38,
          "time": 80.625,
          "velocity": 1,
          "duration": 0.375
        },
        {
          "name": "D2",
          "midi": 38,
          "time": 81,
          "velocity": 1,
          "duration": 0.1875
        },
        {
          "name": "D2",
          "midi": 38,
          "time": 81.1875,
          "velocity": 1,
          "duration": 0.1875
        },
        {
          "name": "D2",
          "midi": 38,
          "time": 81.375,
          "velocity": 1,
          "duration": 0.375
        },
        {
          "name": "D2",
          "midi": 38,
          "time": 82.125,
          "velocity": 1,
          "duration": 0.1875
        },
        {
          "name": "D2",
          "midi": 38,
          "time": 82.3125,
          "velocity": 1,
          "duration": 0.1875
        },
        {
          "name": "D2",
          "midi": 38,
          "time": 82.5,
          "velocity": 1,
          "duration": 0.1875
        },
        {
          "name": "D2",
          "midi": 38,
          "time": 82.6875,
          "velocity": 1,
          "duration": 0.1875
        },
        {
          "name": "D2",
          "midi": 38,
          "time": 82.875,
          "velocity": 1,
          "duration": 0.375
        },
        {
          "name": "D2",
          "midi": 38,
          "time": 83.25,
          "velocity": 1,
          "duration": 0.1875
        },
        {
          "name": "D2",
          "midi": 38,
          "time": 83.4375,
          "velocity": 1,
          "duration": 0.1875
        },
        {
          "name": "D2",
          "midi": 38,
          "time": 83.625,
          "velocity": 1,
          "duration": 0.375
        },
        {
          "name": "D3",
          "midi": 50,
          "time": 84.375,
          "velocity": 1,
          "duration": 0.1875
        },
        {
          "name": "D3",
          "midi": 50,
          "time": 84.5625,
          "velocity": 1,
          "duration": 0.1875
        },
        {
          "name": "D3",
          "midi": 50,
          "time": 84.75,
          "velocity": 1,
          "duration": 0.1875
        },
        {
          "name": "D2",
          "midi": 38,
          "time": 84.9375,
          "velocity": 1,
          "duration": 0.1875
        },
        {
          "name": "D2",
          "midi": 38,
          "time": 85.125,
          "velocity": 1,
          "duration": 0.375
        },
        {
          "name": "D2",
          "midi": 38,
          "time": 85.5,
          "velocity": 1,
          "duration": 0.1875
        },
        {
          "name": "D2",
          "midi": 38,
          "time": 85.6875,
          "velocity": 1,
          "duration": 0.1875
        },
        {
          "name": "D2",
          "midi": 38,
          "time": 85.875,
          "velocity": 1,
          "duration": 0.375
        },
        {
          "name": "D3",
          "midi": 50,
          "time": 86.625,
          "velocity": 1,
          "duration": 0.1875
        },
        {
          "name": "D3",
          "midi": 50,
          "time": 86.8125,
          "velocity": 1,
          "duration": 0.1875
        },
        {
          "name": "D3",
          "midi": 50,
          "time": 87,
          "velocity": 1,
          "duration": 0.375
        },
        {
          "name": "D2",
          "midi": 38,
          "time": 87.375,
          "velocity": 1,
          "duration": 0.375
        },
        {
          "name": "D2",
          "midi": 38,
          "time": 87.75,
          "velocity": 1,
          "duration": 0.1875
        },
        {
          "name": "D2",
          "midi": 38,
          "time": 87.9375,
          "velocity": 1,
          "duration": 0.1875
        },
        {
          "name": "D2",
          "midi": 38,
          "time": 88.125,
          "velocity": 1,
          "duration": 0.375
        },
        {
          "name": "D3",
          "midi": 50,
          "time": 88.875,
          "velocity": 1,
          "duration": 0.1875
        },
        {
          "name": "D3",
          "midi": 50,
          "time": 89.0625,
          "velocity": 1,
          "duration": 0.1875
        },
        {
          "name": "D3",
          "midi": 50,
          "time": 89.25,
          "velocity": 1,
          "duration": 0.375
        },
        {
          "name": "D2",
          "midi": 38,
          "time": 89.625,
          "velocity": 1,
          "duration": 0.375
        },
        {
          "name": "D2",
          "midi": 38,
          "time": 90,
          "velocity": 1,
          "duration": 0.1875
        },
        {
          "name": "D2",
          "midi": 38,
          "time": 90.1875,
          "velocity": 1,
          "duration": 0.1875
        },
        {
          "name": "D2",
          "midi": 38,
          "time": 90.375,
          "velocity": 1,
          "duration": 0.375
        },
        {
          "name": "D2",
          "midi": 38,
          "time": 91.125,
          "velocity": 1,
          "duration": 0.1875
        },
        {
          "name": "D2",
          "midi": 38,
          "time": 91.3125,
          "velocity": 1,
          "duration": 0.1875
        },
        {
          "name": "D2",
          "midi": 38,
          "time": 91.5,
          "velocity": 1,
          "duration": 0.1875
        },
        {
          "name": "D2",
          "midi": 38,
          "time": 91.6875,
          "velocity": 1,
          "duration": 0.1875
        },
        {
          "name": "D2",
          "midi": 38,
          "time": 91.875,
          "velocity": 1,
          "duration": 0.375
        },
        {
          "name": "D2",
          "midi": 38,
          "time": 92.25,
          "velocity": 1,
          "duration": 0.1875
        },
        {
          "name": "D2",
          "midi": 38,
          "time": 92.4375,
          "velocity": 1,
          "duration": 0.1875
        },
        {
          "name": "D2",
          "midi": 38,
          "time": 92.625,
          "velocity": 1,
          "duration": 0.375
        },
        {
          "name": "D3",
          "midi": 50,
          "time": 93.375,
          "velocity": 1,
          "duration": 0.1875
        },
        {
          "name": "D3",
          "midi": 50,
          "time": 93.5625,
          "velocity": 1,
          "duration": 0.1875
        },
        {
          "name": "D3",
          "midi": 50,
          "time": 93.75,
          "velocity": 1,
          "duration": 0.1875
        },
        {
          "name": "D2",
          "midi": 38,
          "time": 93.9375,
          "velocity": 1,
          "duration": 0.1875
        },
        {
          "name": "D2",
          "midi": 38,
          "time": 94.125,
          "velocity": 1,
          "duration": 0.375
        },
        {
          "name": "D2",
          "midi": 38,
          "time": 94.5,
          "velocity": 1,
          "duration": 0.1875
        },
        {
          "name": "D2",
          "midi": 38,
          "time": 94.6875,
          "velocity": 1,
          "duration": 0.1875
        },
        {
          "name": "D2",
          "midi": 38,
          "time": 94.875,
          "velocity": 1,
          "duration": 0.375
        },
        {
          "name": "D3",
          "midi": 50,
          "time": 95.625,
          "velocity": 1,
          "duration": 0.1875
        },
        {
          "name": "D3",
          "midi": 50,
          "time": 95.8125,
          "velocity": 1,
          "duration": 0.1875
        },
        {
          "name": "D3",
          "midi": 50,
          "time": 96,
          "velocity": 1,
          "duration": 0.375
        },
        {
          "name": "D2",
          "midi": 38,
          "time": 96.375,
          "velocity": 1,
          "duration": 0.375
        },
        {
          "name": "D2",
          "midi": 38,
          "time": 96.75,
          "velocity": 1,
          "duration": 0.1875
        },
        {
          "name": "D2",
          "midi": 38,
          "time": 96.9375,
          "velocity": 1,
          "duration": 0.1875
        },
        {
          "name": "D2",
          "midi": 38,
          "time": 97.125,
          "velocity": 1,
          "duration": 0.375
        },
        {
          "name": "D3",
          "midi": 50,
          "time": 97.875,
          "velocity": 1,
          "duration": 0.1875
        },
        {
          "name": "D3",
          "midi": 50,
          "time": 98.0625,
          "velocity": 1,
          "duration": 0.1875
        },
        {
          "name": "D3",
          "midi": 50,
          "time": 98.25,
          "velocity": 1,
          "duration": 0.375
        },
        {
          "name": "D2",
          "midi": 38,
          "time": 98.625,
          "velocity": 1,
          "duration": 0.375
        },
        {
          "name": "D2",
          "midi": 38,
          "time": 99,
          "velocity": 1,
          "duration": 0.1875
        },
        {
          "name": "D2",
          "midi": 38,
          "time": 99.1875,
          "velocity": 1,
          "duration": 0.1875
        },
        {
          "name": "D2",
          "midi": 38,
          "time": 99.375,
          "velocity": 1,
          "duration": 0.375
        },
        {
          "name": "D2",
          "midi": 38,
          "time": 100.125,
          "velocity": 1,
          "duration": 0.1875
        },
        {
          "name": "D2",
          "midi": 38,
          "time": 100.3125,
          "velocity": 1,
          "duration": 0.1875
        },
        {
          "name": "D2",
          "midi": 38,
          "time": 100.5,
          "velocity": 1,
          "duration": 0.1875
        },
        {
          "name": "D2",
          "midi": 38,
          "time": 100.6875,
          "velocity": 1,
          "duration": 0.1875
        },
        {
          "name": "D2",
          "midi": 38,
          "time": 100.875,
          "velocity": 1,
          "duration": 0.375
        },
        {
          "name": "D2",
          "midi": 38,
          "time": 101.25,
          "velocity": 1,
          "duration": 0.1875
        },
        {
          "name": "D2",
          "midi": 38,
          "time": 101.4375,
          "velocity": 1,
          "duration": 0.1875
        },
        {
          "name": "D2",
          "midi": 38,
          "time": 101.625,
          "velocity": 1,
          "duration": 0.375
        },
        {
          "name": "D3",
          "midi": 50,
          "time": 102.375,
          "velocity": 1,
          "duration": 0.1875
        },
        {
          "name": "D3",
          "midi": 50,
          "time": 102.5625,
          "velocity": 1,
          "duration": 0.1875
        },
        {
          "name": "D3",
          "midi": 50,
          "time": 102.75,
          "velocity": 1,
          "duration": 0.1875
        },
        {
          "name": "D2",
          "midi": 38,
          "time": 102.9375,
          "velocity": 1,
          "duration": 0.1875
        },
        {
          "name": "D2",
          "midi": 38,
          "time": 103.125,
          "velocity": 1,
          "duration": 0.375
        },
        {
          "name": "D2",
          "midi": 38,
          "time": 103.5,
          "velocity": 1,
          "duration": 0.1875
        },
        {
          "name": "D2",
          "midi": 38,
          "time": 103.6875,
          "velocity": 1,
          "duration": 0.1875
        },
        {
          "name": "D2",
          "midi": 38,
          "time": 103.875,
          "velocity": 1,
          "duration": 0.375
        },
        {
          "name": "D3",
          "midi": 50,
          "time": 104.625,
          "velocity": 1,
          "duration": 0.1875
        },
        {
          "name": "D3",
          "midi": 50,
          "time": 104.8125,
          "velocity": 1,
          "duration": 0.1875
        },
        {
          "name": "D3",
          "midi": 50,
          "time": 105,
          "velocity": 1,
          "duration": 0.375
        },
        {
          "name": "D2",
          "midi": 38,
          "time": 105.375,
          "velocity": 1,
          "duration": 0.375
        },
        {
          "name": "D2",
          "midi": 38,
          "time": 105.75,
          "velocity": 1,
          "duration": 0.1875
        },
        {
          "name": "D2",
          "midi": 38,
          "time": 105.9375,
          "velocity": 1,
          "duration": 0.1875
        },
        {
          "name": "D2",
          "midi": 38,
          "time": 106.125,
          "velocity": 1,
          "duration": 0.375
        },
        {
          "name": "D3",
          "midi": 50,
          "time": 106.875,
          "velocity": 1,
          "duration": 0.1875
        },
        {
          "name": "D3",
          "midi": 50,
          "time": 107.0625,
          "velocity": 1,
          "duration": 0.1875
        },
        {
          "name": "D3",
          "midi": 50,
          "time": 107.25,
          "velocity": 1,
          "duration": 0.375
        },
        {
          "name": "D2",
          "midi": 38,
          "time": 107.625,
          "velocity": 1,
          "duration": 0.375
        },
        {
          "name": "D3",
          "midi": 50,
          "time": 108,
          "velocity": 1,
          "duration": 0.1875
        },
        {
          "name": "D3",
          "midi": 50,
          "time": 108.1875,
          "velocity": 1,
          "duration": 0.1875
        },
        {
          "name": "D3",
          "midi": 50,
          "time": 108.375,
          "velocity": 1,
          "duration": 0.375
        },
        {
          "name": "D3",
          "midi": 50,
          "time": 109.125,
          "velocity": 1,
          "duration": 0.1875
        },
        {
          "name": "D3",
          "midi": 50,
          "time": 109.3125,
          "velocity": 1,
          "duration": 0.1875
        },
        {
          "name": "D3",
          "midi": 50,
          "time": 109.5,
          "velocity": 1,
          "duration": 0.1875
        },
        {
          "name": "D2",
          "midi": 38,
          "time": 109.6875,
          "velocity": 1,
          "duration": 0.1875
        },
        {
          "name": "D2",
          "midi": 38,
          "time": 109.875,
          "velocity": 1,
          "duration": 0.375
        },
        {
          "name": "D2",
          "midi": 38,
          "time": 110.25,
          "velocity": 1,
          "duration": 0.1875
        },
        {
          "name": "D2",
          "midi": 38,
          "time": 110.4375,
          "velocity": 1,
          "duration": 0.1875
        },
        {
          "name": "D2",
          "midi": 38,
          "time": 110.625,
          "velocity": 1,
          "duration": 0.375
        },
        {
          "name": "D3",
          "midi": 50,
          "time": 111.375,
          "velocity": 1,
          "duration": 0.1875
        },
        {
          "name": "D3",
          "midi": 50,
          "time": 111.5625,
          "velocity": 1,
          "duration": 0.1875
        },
        {
          "name": "D3",
          "midi": 50,
          "time": 111.75,
          "velocity": 1,
          "duration": 0.375
        },
        {
          "name": "D2",
          "midi": 38,
          "time": 112.125,
          "velocity": 1,
          "duration": 0.375
        },
        {
          "name": "D2",
          "midi": 38,
          "time": 112.5,
          "velocity": 1,
          "duration": 0.1875
        },
        {
          "name": "D2",
          "midi": 38,
          "time": 112.6875,
          "velocity": 1,
          "duration": 0.1875
        },
        {
          "name": "D2",
          "midi": 38,
          "time": 112.875,
          "velocity": 1,
          "duration": 0.375
        },
        {
          "name": "D3",
          "midi": 50,
          "time": 113.625,
          "velocity": 1,
          "duration": 0.1875
        },
        {
          "name": "D3",
          "midi": 50,
          "time": 113.8125,
          "velocity": 1,
          "duration": 0.1875
        },
        {
          "name": "D3",
          "midi": 50,
          "time": 114,
          "velocity": 1,
          "duration": 0.1875
        },
        {
          "name": "D2",
          "midi": 38,
          "time": 114.1875,
          "velocity": 1,
          "duration": 0.1875
        },
        {
          "name": "D2",
          "midi": 38,
          "time": 114.375,
          "velocity": 1,
          "duration": 0.375
        },
        {
          "name": "D2",
          "midi": 38,
          "time": 114.75,
          "velocity": 1,
          "duration": 0.1875
        },
        {
          "name": "D2",
          "midi": 38,
          "time": 114.9375,
          "velocity": 1,
          "duration": 0.1875
        },
        {
          "name": "D2",
          "midi": 38,
          "time": 115.125,
          "velocity": 1,
          "duration": 0.375
        },
        {
          "name": "D3",
          "midi": 50,
          "time": 115.875,
          "velocity": 1,
          "duration": 0.1875
        },
        {
          "name": "D3",
          "midi": 50,
          "time": 116.0625,
          "velocity": 1,
          "duration": 0.1875
        },
        {
          "name": "D3",
          "midi": 50,
          "time": 116.25,
          "velocity": 1,
          "duration": 0.375
        },
        {
          "name": "A2",
          "midi": 45,
          "time": 116.625,
          "velocity": 1,
          "duration": 1.5
        },
        {
          "name": "D2",
          "midi": 38,
          "time": 117,
          "velocity": 1,
          "duration": 1.125
        },
        {
          "name": "D3",
          "midi": 50,
          "time": 118.125,
          "velocity": 1,
          "duration": 0.1875
        },
        {
          "name": "D3",
          "midi": 50,
          "time": 118.3125,
          "velocity": 1,
          "duration": 0.1875
        },
        {
          "name": "D3",
          "midi": 50,
          "time": 118.5,
          "velocity": 1,
          "duration": 0.1875
        },
        {
          "name": "D2",
          "midi": 38,
          "time": 118.6875,
          "velocity": 1,
          "duration": 0.1875
        },
        {
          "name": "D2",
          "midi": 38,
          "time": 118.875,
          "velocity": 1,
          "duration": 0.375
        },
        {
          "name": "D2",
          "midi": 38,
          "time": 119.25,
          "velocity": 1,
          "duration": 0.1875
        },
        {
          "name": "D2",
          "midi": 38,
          "time": 119.4375,
          "velocity": 1,
          "duration": 0.1875
        },
        {
          "name": "D2",
          "midi": 38,
          "time": 119.625,
          "velocity": 1,
          "duration": 0.375
        },
        {
          "name": "D3",
          "midi": 50,
          "time": 120.375,
          "velocity": 1,
          "duration": 0.1875
        },
        {
          "name": "D3",
          "midi": 50,
          "time": 120.5625,
          "velocity": 1,
          "duration": 0.1875
        },
        {
          "name": "D3",
          "midi": 50,
          "time": 120.75,
          "velocity": 1,
          "duration": 0.1875
        },
        {
          "name": "D2",
          "midi": 38,
          "time": 120.9375,
          "velocity": 1,
          "duration": 0.1875
        },
        {
          "name": "D2",
          "midi": 38,
          "time": 121.125,
          "velocity": 1,
          "duration": 0.375
        },
        {
          "name": "D2",
          "midi": 38,
          "time": 121.5,
          "velocity": 1,
          "duration": 0.1875
        },
        {
          "name": "D2",
          "midi": 38,
          "time": 121.6875,
          "velocity": 1,
          "duration": 0.1875
        },
        {
          "name": "D2",
          "midi": 38,
          "time": 121.875,
          "velocity": 1,
          "duration": 0.375
        },
        {
          "name": "D3",
          "midi": 50,
          "time": 122.625,
          "velocity": 1,
          "duration": 0.1875
        },
        {
          "name": "D3",
          "midi": 50,
          "time": 122.8125,
          "velocity": 1,
          "duration": 0.1875
        },
        {
          "name": "D3",
          "midi": 50,
          "time": 123,
          "velocity": 1,
          "duration": 0.375
        },
        {
          "name": "D2",
          "midi": 38,
          "time": 123.375,
          "velocity": 1,
          "duration": 0.375
        },
        {
          "name": "D2",
          "midi": 38,
          "time": 123.75,
          "velocity": 1,
          "duration": 0.1875
        },
        {
          "name": "D2",
          "midi": 38,
          "time": 123.9375,
          "velocity": 1,
          "duration": 0.1875
        },
        {
          "name": "D2",
          "midi": 38,
          "time": 124.125,
          "velocity": 1,
          "duration": 0.375
        },
        {
          "name": "D3",
          "midi": 50,
          "time": 124.875,
          "velocity": 1,
          "duration": 0.1875
        },
        {
          "name": "D3",
          "midi": 50,
          "time": 125.0625,
          "velocity": 1,
          "duration": 0.1875
        },
        {
          "name": "D3",
          "midi": 50,
          "time": 125.25,
          "velocity": 1,
          "duration": 0.375
        },
        {
          "name": "D2",
          "midi": 38,
          "time": 125.625,
          "velocity": 1,
          "duration": 0.375
        },
        {
          "name": "E3",
          "midi": 52,
          "time": 126,
          "velocity": 1,
          "duration": 0.5625
        },
        {
          "name": "D3",
          "midi": 50,
          "time": 126.5625,
          "velocity": 1,
          "duration": 0.5625
        },
        {
          "name": "C3",
          "midi": 48,
          "time": 127.125,
          "velocity": 1,
          "duration": 0.5625
        },
        {
          "name": "A2",
          "midi": 45,
          "time": 127.6875,
          "velocity": 1,
          "duration": 0.5625
        },
        {
          "name": "D2",
          "midi": 38,
          "time": 128.25,
          "velocity": 1,
          "duration": 0.375
        },
        {
          "name": "A2",
          "midi": 45,
          "time": 128.625,
          "velocity": 1,
          "duration": 0.375
        },
        {
          "name": "G2",
          "midi": 43,
          "time": 129,
          "velocity": 1,
          "duration": 0.5625
        },
        {
          "name": "G2",
          "midi": 43,
          "time": 129.5625,
          "velocity": 1,
          "duration": 0.5625
        },
        {
          "name": "F2",
          "midi": 41,
          "time": 130.125,
          "velocity": 1,
          "duration": 0.5625
        },
        {
          "name": "F2",
          "midi": 41,
          "time": 130.6875,
          "velocity": 1,
          "duration": 0.5625
        },
        {
          "name": "F2",
          "midi": 41,
          "time": 131.25,
          "velocity": 1,
          "duration": 0.1875
        },
        {
          "name": "E2",
          "midi": 40,
          "time": 131.4375,
          "velocity": 1,
          "duration": 0.1875
        },
        {
          "name": "D2",
          "midi": 38,
          "time": 131.625,
          "velocity": 1,
          "duration": 0.1875
        },
        {
          "name": "A1",
          "midi": 33,
          "time": 131.8125,
          "velocity": 1,
          "duration": 0.1875
        },
        {
          "name": "B1",
          "midi": 35,
          "time": 132,
          "velocity": 1,
          "duration": 0.1875
        },
        {
          "name": "D2",
          "midi": 38,
          "time": 132.1875,
          "velocity": 1,
          "duration": 0.1875
        },
        {
          "name": "A1",
          "midi": 33,
          "time": 132.375,
          "velocity": 1,
          "duration": 0.375
        },
        {
          "name": "A1",
          "midi": 33,
          "time": 133.5,
          "velocity": 1,
          "duration": 0.375
        },
        {
          "name": "A1",
          "midi": 33,
          "time": 134.25,
          "velocity": 1,
          "duration": 0.375
        },
        {
          "name": "A2",
          "midi": 45,
          "time": 135,
          "velocity": 1,
          "duration": 0.75
        },
        {
          "name": "A1",
          "midi": 33,
          "time": 135.75,
          "velocity": 1,
          "duration": 0.375
        },
        {
          "name": "A1",
          "midi": 33,
          "time": 138.375,
          "velocity": 1,
          "duration": 0.375
        },
        {
          "name": "A1",
          "midi": 33,
          "time": 139.5,
          "velocity": 1,
          "duration": 0.375
        },
        {
          "name": "A1",
          "midi": 33,
          "time": 140.25,
          "velocity": 1,
          "duration": 0.375
        },
        {
          "name": "A2",
          "midi": 45,
          "time": 141,
          "velocity": 1,
          "duration": 0.75
        },
        {
          "name": "A1",
          "midi": 33,
          "time": 141.75,
          "velocity": 1,
          "duration": 0.375
        },
        {
          "name": "F2",
          "midi": 41,
          "time": 143.25,
          "velocity": 1,
          "duration": 0.1875
        },
        {
          "name": "E2",
          "midi": 40,
          "time": 143.4375,
          "velocity": 1,
          "duration": 0.1875
        },
        {
          "name": "D2",
          "midi": 38,
          "time": 143.625,
          "velocity": 1,
          "duration": 0.1875
        },
        {
          "name": "A1",
          "midi": 33,
          "time": 143.8125,
          "velocity": 1,
          "duration": 0.1875
        },
        {
          "name": "B1",
          "midi": 35,
          "time": 144,
          "velocity": 1,
          "duration": 0.1875
        },
        {
          "name": "D2",
          "midi": 38,
          "time": 144.1875,
          "velocity": 1,
          "duration": 0.1875
        },
        {
          "name": "A1",
          "midi": 33,
          "time": 144.375,
          "velocity": 1,
          "duration": 0.375
        },
        {
          "name": "A1",
          "midi": 33,
          "time": 145.5,
          "velocity": 1,
          "duration": 0.375
        },
        {
          "name": "A1",
          "midi": 33,
          "time": 146.25,
          "velocity": 1,
          "duration": 0.375
        },
        {
          "name": "A2",
          "midi": 45,
          "time": 147,
          "velocity": 1,
          "duration": 0.75
        },
        {
          "name": "A1",
          "midi": 33,
          "time": 147.75,
          "velocity": 1,
          "duration": 0.375
        },
        {
          "name": "A1",
          "midi": 33,
          "time": 150.375,
          "velocity": 1,
          "duration": 0.375
        },
        {
          "name": "A1",
          "midi": 33,
          "time": 151.5,
          "velocity": 1,
          "duration": 0.375
        },
        {
          "name": "A1",
          "midi": 33,
          "time": 152.25,
          "velocity": 1,
          "duration": 0.375
        },
        {
          "name": "A2",
          "midi": 45,
          "time": 153,
          "velocity": 1,
          "duration": 0.75
        },
        {
          "name": "A1",
          "midi": 33,
          "time": 153.75,
          "velocity": 1,
          "duration": 0.375
        },
        {
          "name": "F2",
          "midi": 41,
          "time": 155.25,
          "velocity": 1,
          "duration": 0.1875
        },
        {
          "name": "E2",
          "midi": 40,
          "time": 155.4375,
          "velocity": 1,
          "duration": 0.1875
        },
        {
          "name": "D2",
          "midi": 38,
          "time": 155.625,
          "velocity": 1,
          "duration": 0.1875
        },
        {
          "name": "A1",
          "midi": 33,
          "time": 155.8125,
          "velocity": 1,
          "duration": 0.1875
        },
        {
          "name": "B1",
          "midi": 35,
          "time": 156,
          "velocity": 1,
          "duration": 0.1875
        },
        {
          "name": "D2",
          "midi": 38,
          "time": 156.1875,
          "velocity": 1,
          "duration": 0.1875
        },
        {
          "name": "A1",
          "midi": 33,
          "time": 156.375,
          "velocity": 1,
          "duration": 0.375
        },
        {
          "name": "A1",
          "midi": 33,
          "time": 157.5,
          "velocity": 1,
          "duration": 0.375
        },
        {
          "name": "A1",
          "midi": 33,
          "time": 158.25,
          "velocity": 1,
          "duration": 0.375
        },
        {
          "name": "A2",
          "midi": 45,
          "time": 159,
          "velocity": 1,
          "duration": 0.75
        },
        {
          "name": "A1",
          "midi": 33,
          "time": 159.75,
          "velocity": 1,
          "duration": 0.375
        },
        {
          "name": "A1",
          "midi": 33,
          "time": 162.375,
          "velocity": 1,
          "duration": 0.375
        },
        {
          "name": "A1",
          "midi": 33,
          "time": 163.5,
          "velocity": 1,
          "duration": 0.375
        },
        {
          "name": "A1",
          "midi": 33,
          "time": 164.25,
          "velocity": 1,
          "duration": 0.375
        },
        {
          "name": "A2",
          "midi": 45,
          "time": 165,
          "velocity": 1,
          "duration": 0.75
        },
        {
          "name": "A1",
          "midi": 33,
          "time": 165.75,
          "velocity": 1,
          "duration": 0.375
        },
        {
          "name": "F2",
          "midi": 41,
          "time": 167.25,
          "velocity": 1,
          "duration": 0.1875
        },
        {
          "name": "E2",
          "midi": 40,
          "time": 167.4375,
          "velocity": 1,
          "duration": 0.1875
        },
        {
          "name": "D2",
          "midi": 38,
          "time": 167.625,
          "velocity": 1,
          "duration": 0.1875
        },
        {
          "name": "A1",
          "midi": 33,
          "time": 167.8125,
          "velocity": 1,
          "duration": 0.1875
        },
        {
          "name": "B1",
          "midi": 35,
          "time": 168,
          "velocity": 1,
          "duration": 0.1875
        },
        {
          "name": "D2",
          "midi": 38,
          "time": 168.1875,
          "velocity": 1,
          "duration": 0.1875
        },
        {
          "name": "A1",
          "midi": 33,
          "time": 168.375,
          "velocity": 1,
          "duration": 0.375
        },
        {
          "name": "A1",
          "midi": 33,
          "time": 169.5,
          "velocity": 1,
          "duration": 0.375
        },
        {
          "name": "A1",
          "midi": 33,
          "time": 170.25,
          "velocity": 1,
          "duration": 0.375
        },
        {
          "name": "A2",
          "midi": 45,
          "time": 171,
          "velocity": 1,
          "duration": 0.75
        },
        {
          "name": "A1",
          "midi": 33,
          "time": 171.75,
          "velocity": 1,
          "duration": 0.375
        },
        {
          "name": "A1",
          "midi": 33,
          "time": 174.375,
          "velocity": 1,
          "duration": 0.375
        },
        {
          "name": "A1",
          "midi": 33,
          "time": 175.5,
          "velocity": 1,
          "duration": 0.375
        },
        {
          "name": "A1",
          "midi": 33,
          "time": 176.25,
          "velocity": 1,
          "duration": 0.375
        },
        {
          "name": "A2",
          "midi": 45,
          "time": 177,
          "velocity": 1,
          "duration": 0.75
        },
        {
          "name": "A1",
          "midi": 33,
          "time": 177.75,
          "velocity": 1,
          "duration": 0.375
        },
        {
          "name": "F2",
          "midi": 41,
          "time": 179.25,
          "velocity": 1,
          "duration": 0.1875
        },
        {
          "name": "E2",
          "midi": 40,
          "time": 179.4375,
          "velocity": 1,
          "duration": 0.1875
        },
        {
          "name": "D2",
          "midi": 38,
          "time": 179.625,
          "velocity": 1,
          "duration": 0.1875
        },
        {
          "name": "A1",
          "midi": 33,
          "time": 179.8125,
          "velocity": 1,
          "duration": 0.1875
        },
        {
          "name": "B1",
          "midi": 35,
          "time": 180,
          "velocity": 1,
          "duration": 0.1875
        },
        {
          "name": "D2",
          "midi": 38,
          "time": 180.1875,
          "velocity": 1,
          "duration": 0.1875
        },
        {
          "name": "A1",
          "midi": 33,
          "time": 180.375,
          "velocity": 1,
          "duration": 0.375
        },
        {
          "name": "A1",
          "midi": 33,
          "time": 181.5,
          "velocity": 1,
          "duration": 0.375
        },
        {
          "name": "A1",
          "midi": 33,
          "time": 182.25,
          "velocity": 1,
          "duration": 0.375
        },
        {
          "name": "A2",
          "midi": 45,
          "time": 183,
          "velocity": 1,
          "duration": 0.75
        },
        {
          "name": "A1",
          "midi": 33,
          "time": 183.75,
          "velocity": 1,
          "duration": 0.375
        },
        {
          "name": "A1",
          "midi": 33,
          "time": 186.375,
          "velocity": 1,
          "duration": 0.375
        },
        {
          "name": "A1",
          "midi": 33,
          "time": 187.5,
          "velocity": 1,
          "duration": 0.375
        },
        {
          "name": "A1",
          "midi": 33,
          "time": 188.25,
          "velocity": 1,
          "duration": 0.375
        },
        {
          "name": "A2",
          "midi": 45,
          "time": 189,
          "velocity": 1,
          "duration": 0.75
        },
        {
          "name": "A1",
          "midi": 33,
          "time": 189.75,
          "velocity": 1,
          "duration": 0.375
        },
        {
          "name": "E3",
          "midi": 52,
          "time": 192.375,
          "velocity": 1,
          "duration": 0.5625
        },
        {
          "name": "D3",
          "midi": 50,
          "time": 192.9375,
          "velocity": 1,
          "duration": 0.5625
        },
        {
          "name": "C3",
          "midi": 48,
          "time": 193.5,
          "velocity": 1,
          "duration": 0.5625
        },
        {
          "name": "A2",
          "midi": 45,
          "time": 194.0625,
          "velocity": 1,
          "duration": 0.5625
        },
        {
          "name": "D2",
          "midi": 38,
          "time": 194.625,
          "velocity": 1,
          "duration": 0.375
        },
        {
          "name": "A2",
          "midi": 45,
          "time": 195,
          "velocity": 1,
          "duration": 0.375
        },
        {
          "name": "G2",
          "midi": 43,
          "time": 195.375,
          "velocity": 1,
          "duration": 0.5625
        },
        {
          "name": "G2",
          "midi": 43,
          "time": 195.9375,
          "velocity": 1,
          "duration": 0.5625
        },
        {
          "name": "F2",
          "midi": 41,
          "time": 196.5,
          "velocity": 1,
          "duration": 0.5625
        },
        {
          "name": "F2",
          "midi": 41,
          "time": 197.0625,
          "velocity": 1,
          "duration": 0.5625
        },
        {
          "name": "F2",
          "midi": 41,
          "time": 197.625,
          "velocity": 1,
          "duration": 0.1875
        },
        {
          "name": "E2",
          "midi": 40,
          "time": 197.8125,
          "velocity": 1,
          "duration": 0.1875
        },
        {
          "name": "D2",
          "midi": 38,
          "time": 198,
          "velocity": 1,
          "duration": 0.375
        },
        {
          "name": "E3",
          "midi": 52,
          "time": 198.375,
          "velocity": 1,
          "duration": 0.5625
        },
        {
          "name": "D3",
          "midi": 50,
          "time": 198.9375,
          "velocity": 1,
          "duration": 0.5625
        },
        {
          "name": "C3",
          "midi": 48,
          "time": 199.5,
          "velocity": 1,
          "duration": 0.5625
        },
        {
          "name": "A2",
          "midi": 45,
          "time": 200.0625,
          "velocity": 1,
          "duration": 0.5625
        },
        {
          "name": "D2",
          "midi": 38,
          "time": 200.625,
          "velocity": 1,
          "duration": 0.375
        },
        {
          "name": "A2",
          "midi": 45,
          "time": 201,
          "velocity": 1,
          "duration": 0.375
        },
        {
          "name": "G2",
          "midi": 43,
          "time": 201.375,
          "velocity": 1,
          "duration": 0.5625
        },
        {
          "name": "G2",
          "midi": 43,
          "time": 201.9375,
          "velocity": 1,
          "duration": 0.5625
        },
        {
          "name": "F2",
          "midi": 41,
          "time": 202.5,
          "velocity": 1,
          "duration": 0.5625
        },
        {
          "name": "F2",
          "midi": 41,
          "time": 203.0625,
          "velocity": 1,
          "duration": 0.5625
        },
        {
          "name": "F2",
          "midi": 41,
          "time": 203.625,
          "velocity": 1,
          "duration": 0.1875
        },
        {
          "name": "E2",
          "midi": 40,
          "time": 203.8125,
          "velocity": 1,
          "duration": 0.1875
        },
        {
          "name": "D2",
          "midi": 38,
          "time": 204,
          "velocity": 1,
          "duration": 0.375
        },
        {
          "name": "G1",
          "midi": 31,
          "time": 204.375,
          "velocity": 1,
          "duration": 1.5
        },
        {
          "name": "G1",
          "midi": 31,
          "time": 205.875,
          "velocity": 1,
          "duration": 0.375
        },
        {
          "name": "G1",
          "midi": 31,
          "time": 206.25,
          "velocity": 1,
          "duration": 1.125
        },
        {
          "name": "G1",
          "midi": 31,
          "time": 207.375,
          "velocity": 1,
          "duration": 0.375
        },
        {
          "name": "G1",
          "midi": 31,
          "time": 207.75,
          "velocity": 1,
          "duration": 0.375
        },
        {
          "name": "G1",
          "midi": 31,
          "time": 208.125,
          "velocity": 1,
          "duration": 0.75
        },
        {
          "name": "G2",
          "midi": 43,
          "time": 208.875,
          "velocity": 1,
          "duration": 0.375
        },
        {
          "name": "G2",
          "midi": 43,
          "time": 209.25,
          "velocity": 1,
          "duration": 1.125
        },
        {
          "name": "A1",
          "midi": 33,
          "time": 210.375,
          "velocity": 1,
          "duration": 0.75
        },
        {
          "name": "A2",
          "midi": 45,
          "time": 211.125,
          "velocity": 1,
          "duration": 0.75
        },
        {
          "name": "A1",
          "midi": 33,
          "time": 211.875,
          "velocity": 1,
          "duration": 0.375
        },
        {
          "name": "A1",
          "midi": 33,
          "time": 212.25,
          "velocity": 1,
          "duration": 0.375
        },
        {
          "name": "A2",
          "midi": 45,
          "time": 212.625,
          "velocity": 1,
          "duration": 0.375
        },
        {
          "name": "A1",
          "midi": 33,
          "time": 213,
          "velocity": 1,
          "duration": 0.75
        },
        {
          "name": "A1",
          "midi": 33,
          "time": 213.75,
          "velocity": 1,
          "duration": 0.375
        },
        {
          "name": "A2",
          "midi": 45,
          "time": 214.125,
          "velocity": 1,
          "duration": 0.75
        },
        {
          "name": "A2",
          "midi": 45,
          "time": 214.875,
          "velocity": 1,
          "duration": 0.375
        },
        {
          "name": "A2",
          "midi": 45,
          "time": 215.25,
          "velocity": 1,
          "duration": 0.375
        },
        {
          "name": "A2",
          "midi": 45,
          "time": 215.625,
          "velocity": 1,
          "duration": 0.375
        },
        {
          "name": "A2",
          "midi": 45,
          "time": 216,
          "velocity": 1,
          "duration": 0.375
        },
        {
          "name": "G1",
          "midi": 31,
          "time": 216.375,
          "velocity": 1,
          "duration": 0.75
        },
        {
          "name": "G1",
          "midi": 31,
          "time": 217.125,
          "velocity": 1,
          "duration": 0.75
        },
        {
          "name": "G1",
          "midi": 31,
          "time": 217.875,
          "velocity": 1,
          "duration": 0.375
        },
        {
          "name": "G1",
          "midi": 31,
          "time": 218.25,
          "velocity": 1,
          "duration": 0.75
        },
        {
          "name": "G1",
          "midi": 31,
          "time": 219,
          "velocity": 1,
          "duration": 0.75
        },
        {
          "name": "G1",
          "midi": 31,
          "time": 219.75,
          "velocity": 1,
          "duration": 0.375
        },
        {
          "name": "G1",
          "midi": 31,
          "time": 220.125,
          "velocity": 1,
          "duration": 0.75
        },
        {
          "name": "G1",
          "midi": 31,
          "time": 220.875,
          "velocity": 1,
          "duration": 0.375
        },
        {
          "name": "G1",
          "midi": 31,
          "time": 221.25,
          "velocity": 1,
          "duration": 1.125
        },
        {
          "name": "A1",
          "midi": 33,
          "time": 222.375,
          "velocity": 1,
          "duration": 0.75
        },
        {
          "name": "A2",
          "midi": 45,
          "time": 223.125,
          "velocity": 1,
          "duration": 0.75
        },
        {
          "name": "A2",
          "midi": 45,
          "time": 223.875,
          "velocity": 1,
          "duration": 0.1875
        },
        {
          "name": "A2",
          "midi": 45,
          "time": 224.0625,
          "velocity": 1,
          "duration": 0.1875
        },
        {
          "name": "A2",
          "midi": 45,
          "time": 224.25,
          "velocity": 1,
          "duration": 0.1875
        },
        {
          "name": "A2",
          "midi": 45,
          "time": 224.4375,
          "velocity": 1,
          "duration": 0.1875
        },
        {
          "name": "A2",
          "midi": 45,
          "time": 224.625,
          "velocity": 1,
          "duration": 0.375
        },
        {
          "name": "A2",
          "midi": 45,
          "time": 225,
          "velocity": 1,
          "duration": 0.75
        },
        {
          "name": "A2",
          "midi": 45,
          "time": 225.75,
          "velocity": 1,
          "duration": 0.375
        },
        {
          "name": "A2",
          "midi": 45,
          "time": 226.125,
          "velocity": 1,
          "duration": 0.375
        },
        {
          "name": "A2",
          "midi": 45,
          "time": 226.5,
          "velocity": 1,
          "duration": 0.75
        },
        {
          "name": "A2",
          "midi": 45,
          "time": 227.25,
          "velocity": 1,
          "duration": 0.375
        },
        {
          "name": "A2",
          "midi": 45,
          "time": 227.625,
          "velocity": 1,
          "duration": 0.75
        },
        {
          "name": "G1",
          "midi": 31,
          "time": 228.375,
          "velocity": 1,
          "duration": 0.75
        },
        {
          "name": "G1",
          "midi": 31,
          "time": 229.125,
          "velocity": 1,
          "duration": 0.5625
        },
        {
          "name": "G1",
          "midi": 31,
          "time": 229.6875,
          "velocity": 1,
          "duration": 0.1875
        },
        {
          "name": "G2",
          "midi": 43,
          "time": 229.875,
          "velocity": 1,
          "duration": 0.375
        },
        {
          "name": "G2",
          "midi": 43,
          "time": 230.25,
          "velocity": 1,
          "duration": 0.75
        },
        {
          "name": "G1",
          "midi": 31,
          "time": 231,
          "velocity": 1,
          "duration": 0.75
        },
        {
          "name": "G1",
          "midi": 31,
          "time": 231.75,
          "velocity": 1,
          "duration": 0.375
        },
        {
          "name": "G1",
          "midi": 31,
          "time": 232.125,
          "velocity": 1,
          "duration": 0.375
        },
        {
          "name": "G1",
          "midi": 31,
          "time": 232.5,
          "velocity": 1,
          "duration": 0.375
        },
        {
          "name": "G1",
          "midi": 31,
          "time": 232.875,
          "velocity": 1,
          "duration": 0.375
        },
        {
          "name": "G1",
          "midi": 31,
          "time": 233.25,
          "velocity": 1,
          "duration": 0.375
        },
        {
          "name": "G1",
          "midi": 31,
          "time": 233.625,
          "velocity": 1,
          "duration": 0.375
        },
        {
          "name": "G1",
          "midi": 31,
          "time": 234,
          "velocity": 1,
          "duration": 0.375
        },
        {
          "name": "A2",
          "midi": 45,
          "time": 234.375,
          "velocity": 1,
          "duration": 0.1875
        },
        {
          "name": "A2",
          "midi": 45,
          "time": 234.5625,
          "velocity": 1,
          "duration": 0.5625
        },
        {
          "name": "A1",
          "midi": 33,
          "time": 235.125,
          "velocity": 1,
          "duration": 0.75
        },
        {
          "name": "A1",
          "midi": 33,
          "time": 235.875,
          "velocity": 1,
          "duration": 0.375
        },
        {
          "name": "G2",
          "midi": 43,
          "time": 236.25,
          "velocity": 1,
          "duration": 0.1875
        },
        {
          "name": "A2",
          "midi": 45,
          "time": 236.4375,
          "velocity": 1,
          "duration": 0.5625
        },
        {
          "name": "G2",
          "midi": 43,
          "time": 237,
          "velocity": 1,
          "duration": 0.1875
        },
        {
          "name": "A2",
          "midi": 45,
          "time": 237.1875,
          "velocity": 1,
          "duration": 0.1875
        },
        {
          "name": "A2",
          "midi": 45,
          "time": 237.375,
          "velocity": 1,
          "duration": 0.375
        },
        {
          "name": "A2",
          "midi": 45,
          "time": 237.75,
          "velocity": 1,
          "duration": 0.1875
        },
        {
          "name": "A2",
          "midi": 45,
          "time": 237.9375,
          "velocity": 1,
          "duration": 0.1875
        },
        {
          "name": "A2",
          "midi": 45,
          "time": 238.125,
          "velocity": 1,
          "duration": 0.375
        },
        {
          "name": "A2",
          "midi": 45,
          "time": 238.5,
          "velocity": 1,
          "duration": 0.375
        },
        {
          "name": "A2",
          "midi": 45,
          "time": 238.875,
          "velocity": 1,
          "duration": 0.1875
        },
        {
          "name": "A2",
          "midi": 45,
          "time": 239.0625,
          "velocity": 1,
          "duration": 0.1875
        },
        {
          "name": "A2",
          "midi": 45,
          "time": 239.25,
          "velocity": 1,
          "duration": 0.375
        },
        {
          "name": "A2",
          "midi": 45,
          "time": 239.625,
          "velocity": 1,
          "duration": 0.375
        },
        {
          "name": "A2",
          "midi": 45,
          "time": 240,
          "velocity": 1,
          "duration": 0.375
        },
        {
          "name": "G1",
          "midi": 31,
          "time": 240.375,
          "velocity": 1,
          "duration": 1.5
        },
        {
          "name": "G1",
          "midi": 31,
          "time": 241.875,
          "velocity": 1,
          "duration": 0.375
        },
        {
          "name": "G1",
          "midi": 31,
          "time": 242.25,
          "velocity": 1,
          "duration": 0.75
        },
        {
          "name": "G1",
          "midi": 31,
          "time": 243,
          "velocity": 1,
          "duration": 1.125
        },
        {
          "name": "G1",
          "midi": 31,
          "time": 244.125,
          "velocity": 1,
          "duration": 0.75
        },
        {
          "name": "G1",
          "midi": 31,
          "time": 244.875,
          "velocity": 1,
          "duration": 0.375
        },
        {
          "name": "G1",
          "midi": 31,
          "time": 245.25,
          "velocity": 1,
          "duration": 1.125
        },
        {
          "name": "A1",
          "midi": 33,
          "time": 246.375,
          "velocity": 1,
          "duration": 0.375
        },
        {
          "name": "A1",
          "midi": 33,
          "time": 246.75,
          "velocity": 1,
          "duration": 0.375
        },
        {
          "name": "A2",
          "midi": 45,
          "time": 247.125,
          "velocity": 1,
          "duration": 0.75
        },
        {
          "name": "A2",
          "midi": 45,
          "time": 247.875,
          "velocity": 1,
          "duration": 0.1875
        },
        {
          "name": "A2",
          "midi": 45,
          "time": 248.0625,
          "velocity": 1,
          "duration": 0.1875
        },
        {
          "name": "A2",
          "midi": 45,
          "time": 248.25,
          "velocity": 1,
          "duration": 0.1875
        },
        {
          "name": "A2",
          "midi": 45,
          "time": 248.4375,
          "velocity": 1,
          "duration": 0.1875
        },
        {
          "name": "A2",
          "midi": 45,
          "time": 248.625,
          "velocity": 1,
          "duration": 0.375
        },
        {
          "name": "A1",
          "midi": 33,
          "time": 249,
          "velocity": 1,
          "duration": 0.5625
        },
        {
          "name": "A2",
          "midi": 45,
          "time": 249.5625,
          "velocity": 1,
          "duration": 0.1875
        },
        {
          "name": "A2",
          "midi": 45,
          "time": 249.75,
          "velocity": 1,
          "duration": 0.375
        },
        {
          "name": "A2",
          "midi": 45,
          "time": 250.125,
          "velocity": 1,
          "duration": 0.375
        },
        {
          "name": "A2",
          "midi": 45,
          "time": 250.5,
          "velocity": 1,
          "duration": 0.375
        },
        {
          "name": "A2",
          "midi": 45,
          "time": 250.875,
          "velocity": 1,
          "duration": 0.375
        },
        {
          "name": "A2",
          "midi": 45,
          "time": 251.25,
          "velocity": 1,
          "duration": 0.375
        },
        {
          "name": "A2",
          "midi": 45,
          "time": 251.625,
          "velocity": 1,
          "duration": 0.375
        },
        {
          "name": "A2",
          "midi": 45,
          "time": 252,
          "velocity": 1,
          "duration": 0.375
        },
        {
          "name": "G1",
          "midi": 31,
          "time": 252.375,
          "velocity": 1,
          "duration": 0.75
        },
        {
          "name": "G2",
          "midi": 43,
          "time": 253.125,
          "velocity": 1,
          "duration": 0.75
        },
        {
          "name": "G1",
          "midi": 31,
          "time": 253.875,
          "velocity": 1,
          "duration": 0.375
        },
        {
          "name": "G1",
          "midi": 31,
          "time": 254.25,
          "velocity": 1,
          "duration": 0.1875
        },
        {
          "name": "G1",
          "midi": 31,
          "time": 254.4375,
          "velocity": 1,
          "duration": 0.1875
        },
        {
          "name": "G1",
          "midi": 31,
          "time": 254.625,
          "velocity": 1,
          "duration": 0.375
        },
        {
          "name": "G1",
          "midi": 31,
          "time": 255,
          "velocity": 1,
          "duration": 0.75
        },
        {
          "name": "G1",
          "midi": 31,
          "time": 255.75,
          "velocity": 1,
          "duration": 0.375
        },
        {
          "name": "G2",
          "midi": 43,
          "time": 256.125,
          "velocity": 1,
          "duration": 0.75
        },
        {
          "name": "G1",
          "midi": 31,
          "time": 256.875,
          "velocity": 1,
          "duration": 0.375
        },
        {
          "name": "G1",
          "midi": 31,
          "time": 257.25,
          "velocity": 1,
          "duration": 1.125
        },
        {
          "name": "A1",
          "midi": 33,
          "time": 258.375,
          "velocity": 1,
          "duration": 0.75
        },
        {
          "name": "E3",
          "midi": 52,
          "time": 259.125,
          "velocity": 1,
          "duration": 0.75
        },
        {
          "name": "A1",
          "midi": 33,
          "time": 259.875,
          "velocity": 1,
          "duration": 0.375
        },
        {
          "name": "A1",
          "midi": 33,
          "time": 260.25,
          "velocity": 1,
          "duration": 0.75
        },
        {
          "name": "E3",
          "midi": 52,
          "time": 261,
          "velocity": 1,
          "duration": 2.625
        },
        {
          "name": "D2",
          "midi": 38,
          "time": 264.375,
          "velocity": 1,
          "duration": 0.1875
        },
        {
          "name": "D2",
          "midi": 38,
          "time": 264.5625,
          "velocity": 1,
          "duration": 0.1875
        },
        {
          "name": "D2",
          "midi": 38,
          "time": 264.75,
          "velocity": 1,
          "duration": 0.375
        },
        {
          "name": "D3",
          "midi": 50,
          "time": 265.5,
          "velocity": 1,
          "duration": 0.1875
        },
        {
          "name": "D3",
          "midi": 50,
          "time": 265.6875,
          "velocity": 1,
          "duration": 0.1875
        },
        {
          "name": "D3",
          "midi": 50,
          "time": 265.875,
          "velocity": 1,
          "duration": 0.1875
        },
        {
          "name": "D2",
          "midi": 38,
          "time": 266.0625,
          "velocity": 1,
          "duration": 0.1875
        },
        {
          "name": "D2",
          "midi": 38,
          "time": 266.25,
          "velocity": 1,
          "duration": 0.375
        },
        {
          "name": "D2",
          "midi": 38,
          "time": 266.625,
          "velocity": 1,
          "duration": 0.1875
        },
        {
          "name": "D2",
          "midi": 38,
          "time": 266.8125,
          "velocity": 1,
          "duration": 0.1875
        },
        {
          "name": "D2",
          "midi": 38,
          "time": 267,
          "velocity": 1,
          "duration": 0.375
        },
        {
          "name": "D3",
          "midi": 50,
          "time": 267.75,
          "velocity": 1,
          "duration": 0.1875
        },
        {
          "name": "D3",
          "midi": 50,
          "time": 267.9375,
          "velocity": 1,
          "duration": 0.1875
        },
        {
          "name": "D3",
          "midi": 50,
          "time": 268.125,
          "velocity": 1,
          "duration": 0.375
        },
        {
          "name": "D2",
          "midi": 38,
          "time": 268.5,
          "velocity": 1,
          "duration": 0.375
        },
        {
          "name": "D2",
          "midi": 38,
          "time": 268.875,
          "velocity": 1,
          "duration": 0.1875
        },
        {
          "name": "D2",
          "midi": 38,
          "time": 269.0625,
          "velocity": 1,
          "duration": 0.1875
        },
        {
          "name": "D2",
          "midi": 38,
          "time": 269.25,
          "velocity": 1,
          "duration": 0.375
        },
        {
          "name": "D3",
          "midi": 50,
          "time": 270,
          "velocity": 1,
          "duration": 0.1875
        },
        {
          "name": "D3",
          "midi": 50,
          "time": 270.1875,
          "velocity": 1,
          "duration": 0.1875
        },
        {
          "name": "D3",
          "midi": 50,
          "time": 270.375,
          "velocity": 1,
          "duration": 0.1875
        },
        {
          "name": "D2",
          "midi": 38,
          "time": 270.5625,
          "velocity": 1,
          "duration": 0.1875
        },
        {
          "name": "D2",
          "midi": 38,
          "time": 270.75,
          "velocity": 1,
          "duration": 0.375
        },
        {
          "name": "D2",
          "midi": 38,
          "time": 271.125,
          "velocity": 1,
          "duration": 0.1875
        },
        {
          "name": "D2",
          "midi": 38,
          "time": 271.3125,
          "velocity": 1,
          "duration": 0.1875
        },
        {
          "name": "D2",
          "midi": 38,
          "time": 271.5,
          "velocity": 1,
          "duration": 0.375
        },
        {
          "name": "D3",
          "midi": 50,
          "time": 272.25,
          "velocity": 1,
          "duration": 0.1875
        },
        {
          "name": "D3",
          "midi": 50,
          "time": 272.4375,
          "velocity": 1,
          "duration": 0.1875
        },
        {
          "name": "D3",
          "midi": 50,
          "time": 272.625,
          "velocity": 1,
          "duration": 0.375
        },
        {
          "name": "D2",
          "midi": 38,
          "time": 273,
          "velocity": 1,
          "duration": 0.375
        },
        {
          "name": "D2",
          "midi": 38,
          "time": 273.375,
          "velocity": 1,
          "duration": 0.1875
        },
        {
          "name": "D2",
          "midi": 38,
          "time": 273.5625,
          "velocity": 1,
          "duration": 0.1875
        },
        {
          "name": "D2",
          "midi": 38,
          "time": 273.75,
          "velocity": 1,
          "duration": 0.375
        },
        {
          "name": "D3",
          "midi": 50,
          "time": 274.5,
          "velocity": 1,
          "duration": 0.1875
        },
        {
          "name": "D3",
          "midi": 50,
          "time": 274.6875,
          "velocity": 1,
          "duration": 0.1875
        },
        {
          "name": "D3",
          "midi": 50,
          "time": 274.875,
          "velocity": 1,
          "duration": 0.1875
        },
        {
          "name": "D2",
          "midi": 38,
          "time": 275.0625,
          "velocity": 1,
          "duration": 0.1875
        },
        {
          "name": "D2",
          "midi": 38,
          "time": 275.25,
          "velocity": 1,
          "duration": 0.375
        },
        {
          "name": "D2",
          "midi": 38,
          "time": 275.625,
          "velocity": 1,
          "duration": 0.1875
        },
        {
          "name": "D2",
          "midi": 38,
          "time": 275.8125,
          "velocity": 1,
          "duration": 0.1875
        },
        {
          "name": "D2",
          "midi": 38,
          "time": 276,
          "velocity": 1,
          "duration": 0.375
        },
        {
          "name": "D3",
          "midi": 50,
          "time": 276.75,
          "velocity": 1,
          "duration": 0.1875
        },
        {
          "name": "D3",
          "midi": 50,
          "time": 276.9375,
          "velocity": 1,
          "duration": 0.1875
        },
        {
          "name": "D3",
          "midi": 50,
          "time": 277.125,
          "velocity": 1,
          "duration": 0.375
        },
        {
          "name": "D2",
          "midi": 38,
          "time": 277.5,
          "velocity": 1,
          "duration": 0.375
        },
        {
          "name": "D2",
          "midi": 38,
          "time": 277.875,
          "velocity": 1,
          "duration": 0.1875
        },
        {
          "name": "D2",
          "midi": 38,
          "time": 278.0625,
          "velocity": 1,
          "duration": 0.1875
        },
        {
          "name": "D2",
          "midi": 38,
          "time": 278.25,
          "velocity": 1,
          "duration": 0.375
        },
        {
          "name": "D3",
          "midi": 50,
          "time": 279,
          "velocity": 1,
          "duration": 0.1875
        },
        {
          "name": "D3",
          "midi": 50,
          "time": 279.1875,
          "velocity": 1,
          "duration": 0.1875
        },
        {
          "name": "D3",
          "midi": 50,
          "time": 279.375,
          "velocity": 1,
          "duration": 0.1875
        },
        {
          "name": "D2",
          "midi": 38,
          "time": 279.5625,
          "velocity": 1,
          "duration": 0.1875
        },
        {
          "name": "D2",
          "midi": 38,
          "time": 279.75,
          "velocity": 1,
          "duration": 0.375
        },
        {
          "name": "D2",
          "midi": 38,
          "time": 280.125,
          "velocity": 1,
          "duration": 0.1875
        },
        {
          "name": "D2",
          "midi": 38,
          "time": 280.3125,
          "velocity": 1,
          "duration": 0.1875
        },
        {
          "name": "D2",
          "midi": 38,
          "time": 280.5,
          "velocity": 1,
          "duration": 0.375
        },
        {
          "name": "D3",
          "midi": 50,
          "time": 281.25,
          "velocity": 1,
          "duration": 0.1875
        },
        {
          "name": "D3",
          "midi": 50,
          "time": 281.4375,
          "velocity": 1,
          "duration": 0.1875
        },
        {
          "name": "D3",
          "midi": 50,
          "time": 281.625,
          "velocity": 1,
          "duration": 0.375
        },
        {
          "name": "D2",
          "midi": 38,
          "time": 282,
          "velocity": 1,
          "duration": 0.375
        },
        {
          "name": "D2",
          "midi": 38,
          "time": 282.375,
          "velocity": 1,
          "duration": 0.1875
        },
        {
          "name": "D2",
          "midi": 38,
          "time": 282.5625,
          "velocity": 1,
          "duration": 0.1875
        },
        {
          "name": "D2",
          "midi": 38,
          "time": 282.75,
          "velocity": 1,
          "duration": 0.375
        },
        {
          "name": "D2",
          "midi": 38,
          "time": 283.5,
          "velocity": 1,
          "duration": 0.1875
        },
        {
          "name": "D2",
          "midi": 38,
          "time": 283.6875,
          "velocity": 1,
          "duration": 0.1875
        },
        {
          "name": "D2",
          "midi": 38,
          "time": 283.875,
          "velocity": 1,
          "duration": 0.375
        },
        {
          "name": "D2",
          "midi": 38,
          "time": 284.25,
          "velocity": 1,
          "duration": 0.375
        },
        {
          "name": "D2",
          "midi": 38,
          "time": 284.625,
          "velocity": 1,
          "duration": 0.1875
        },
        {
          "name": "D2",
          "midi": 38,
          "time": 284.8125,
          "velocity": 1,
          "duration": 0.1875
        },
        {
          "name": "D2",
          "midi": 38,
          "time": 285,
          "velocity": 1,
          "duration": 0.375
        },
        {
          "name": "D3",
          "midi": 50,
          "time": 285.75,
          "velocity": 1,
          "duration": 0.1875
        },
        {
          "name": "D3",
          "midi": 50,
          "time": 285.9375,
          "velocity": 1,
          "duration": 0.1875
        },
        {
          "name": "D3",
          "midi": 50,
          "time": 286.125,
          "velocity": 1,
          "duration": 0.375
        },
        {
          "name": "D2",
          "midi": 38,
          "time": 286.5,
          "velocity": 1,
          "duration": 0.375
        },
        {
          "name": "D2",
          "midi": 38,
          "time": 286.875,
          "velocity": 1,
          "duration": 0.1875
        },
        {
          "name": "D2",
          "midi": 38,
          "time": 287.0625,
          "velocity": 1,
          "duration": 0.1875
        },
        {
          "name": "D2",
          "midi": 38,
          "time": 287.25,
          "velocity": 1,
          "duration": 0.375
        },
        {
          "name": "D3",
          "midi": 50,
          "time": 288,
          "velocity": 1,
          "duration": 0.1875
        },
        {
          "name": "D3",
          "midi": 50,
          "time": 288.1875,
          "velocity": 1,
          "duration": 0.1875
        },
        {
          "name": "D3",
          "midi": 50,
          "time": 288.375,
          "velocity": 1,
          "duration": 0.1875
        },
        {
          "name": "D2",
          "midi": 38,
          "time": 288.5625,
          "velocity": 1,
          "duration": 0.1875
        },
        {
          "name": "D2",
          "midi": 38,
          "time": 288.75,
          "velocity": 1,
          "duration": 0.375
        },
        {
          "name": "D2",
          "midi": 38,
          "time": 289.125,
          "velocity": 1,
          "duration": 0.1875
        },
        {
          "name": "D2",
          "midi": 38,
          "time": 289.3125,
          "velocity": 1,
          "duration": 0.1875
        },
        {
          "name": "D2",
          "midi": 38,
          "time": 289.5,
          "velocity": 1,
          "duration": 0.375
        },
        {
          "name": "D3",
          "midi": 50,
          "time": 290.25,
          "velocity": 1,
          "duration": 0.1875
        },
        {
          "name": "D3",
          "midi": 50,
          "time": 290.4375,
          "velocity": 1,
          "duration": 0.1875
        },
        {
          "name": "D3",
          "midi": 50,
          "time": 290.625,
          "velocity": 1,
          "duration": 0.375
        },
        {
          "name": "D2",
          "midi": 38,
          "time": 291,
          "velocity": 1,
          "duration": 0.375
        },
        {
          "name": "D2",
          "midi": 38,
          "time": 291.375,
          "velocity": 1,
          "duration": 0.1875
        },
        {
          "name": "D2",
          "midi": 38,
          "time": 291.5625,
          "velocity": 1,
          "duration": 0.1875
        },
        {
          "name": "D2",
          "midi": 38,
          "time": 291.75,
          "velocity": 1,
          "duration": 0.375
        },
        {
          "name": "D2",
          "midi": 38,
          "time": 292.5,
          "velocity": 1,
          "duration": 0.1875
        },
        {
          "name": "D2",
          "midi": 38,
          "time": 292.6875,
          "velocity": 1,
          "duration": 0.1875
        },
        {
          "name": "D2",
          "midi": 38,
          "time": 292.875,
          "velocity": 1,
          "duration": 0.375
        },
        {
          "name": "D2",
          "midi": 38,
          "time": 293.25,
          "velocity": 1,
          "duration": 0.375
        },
        {
          "name": "D2",
          "midi": 38,
          "time": 293.625,
          "velocity": 1,
          "duration": 0.1875
        },
        {
          "name": "D2",
          "midi": 38,
          "time": 293.8125,
          "velocity": 1,
          "duration": 0.1875
        },
        {
          "name": "D2",
          "midi": 38,
          "time": 294,
          "velocity": 1,
          "duration": 0.375
        },
        {
          "name": "D3",
          "midi": 50,
          "time": 294.75,
          "velocity": 1,
          "duration": 0.1875
        },
        {
          "name": "D3",
          "midi": 50,
          "time": 294.9375,
          "velocity": 1,
          "duration": 0.1875
        },
        {
          "name": "D3",
          "midi": 50,
          "time": 295.125,
          "velocity": 1,
          "duration": 0.375
        },
        {
          "name": "D2",
          "midi": 38,
          "time": 295.5,
          "velocity": 1,
          "duration": 0.375
        },
        {
          "name": "D2",
          "midi": 38,
          "time": 295.875,
          "velocity": 1,
          "duration": 0.1875
        },
        {
          "name": "D2",
          "midi": 38,
          "time": 296.0625,
          "velocity": 1,
          "duration": 0.1875
        },
        {
          "name": "D2",
          "midi": 38,
          "time": 296.25,
          "velocity": 1,
          "duration": 0.375
        },
        {
          "name": "D3",
          "midi": 50,
          "time": 297,
          "velocity": 1,
          "duration": 0.1875
        },
        {
          "name": "D3",
          "midi": 50,
          "time": 297.1875,
          "velocity": 1,
          "duration": 0.1875
        },
        {
          "name": "D3",
          "midi": 50,
          "time": 297.375,
          "velocity": 1,
          "duration": 0.1875
        },
        {
          "name": "D2",
          "midi": 38,
          "time": 297.5625,
          "velocity": 1,
          "duration": 0.1875
        },
        {
          "name": "D2",
          "midi": 38,
          "time": 297.75,
          "velocity": 1,
          "duration": 0.375
        },
        {
          "name": "D2",
          "midi": 38,
          "time": 298.125,
          "velocity": 1,
          "duration": 0.1875
        },
        {
          "name": "D2",
          "midi": 38,
          "time": 298.3125,
          "velocity": 1,
          "duration": 0.1875
        },
        {
          "name": "D2",
          "midi": 38,
          "time": 298.5,
          "velocity": 1,
          "duration": 0.375
        },
        {
          "name": "D3",
          "midi": 50,
          "time": 299.25,
          "velocity": 1,
          "duration": 0.1875
        },
        {
          "name": "D3",
          "midi": 50,
          "time": 299.4375,
          "velocity": 1,
          "duration": 0.1875
        },
        {
          "name": "D3",
          "midi": 50,
          "time": 299.625,
          "velocity": 1,
          "duration": 0.375
        },
        {
          "name": "D2",
          "midi": 38,
          "time": 300,
          "velocity": 1,
          "duration": 0.375
        },
        {
          "name": "D2",
          "midi": 38,
          "time": 300.375,
          "velocity": 1,
          "duration": 0.1875
        },
        {
          "name": "D2",
          "midi": 38,
          "time": 300.5625,
          "velocity": 1,
          "duration": 0.1875
        },
        {
          "name": "D2",
          "midi": 38,
          "time": 300.75,
          "velocity": 1,
          "duration": 0.375
        },
        {
          "name": "D2",
          "midi": 38,
          "time": 301.5,
          "velocity": 1,
          "duration": 0.1875
        },
        {
          "name": "D2",
          "midi": 38,
          "time": 301.6875,
          "velocity": 1,
          "duration": 0.1875
        },
        {
          "name": "D2",
          "midi": 38,
          "time": 301.875,
          "velocity": 1,
          "duration": 0.375
        },
        {
          "name": "D2",
          "midi": 38,
          "time": 302.25,
          "velocity": 1,
          "duration": 0.375
        },
        {
          "name": "D2",
          "midi": 38,
          "time": 302.625,
          "velocity": 1,
          "duration": 0.1875
        },
        {
          "name": "D2",
          "midi": 38,
          "time": 302.8125,
          "velocity": 1,
          "duration": 0.1875
        },
        {
          "name": "D2",
          "midi": 38,
          "time": 303,
          "velocity": 1,
          "duration": 0.375
        },
        {
          "name": "D3",
          "midi": 50,
          "time": 303.75,
          "velocity": 1,
          "duration": 0.1875
        },
        {
          "name": "D3",
          "midi": 50,
          "time": 303.9375,
          "velocity": 1,
          "duration": 0.1875
        },
        {
          "name": "D3",
          "midi": 50,
          "time": 304.125,
          "velocity": 1,
          "duration": 0.375
        },
        {
          "name": "D2",
          "midi": 38,
          "time": 304.5,
          "velocity": 1,
          "duration": 0.375
        },
        {
          "name": "D2",
          "midi": 38,
          "time": 304.875,
          "velocity": 1,
          "duration": 0.1875
        },
        {
          "name": "D2",
          "midi": 38,
          "time": 305.0625,
          "velocity": 1,
          "duration": 0.1875
        },
        {
          "name": "D2",
          "midi": 38,
          "time": 305.25,
          "velocity": 1,
          "duration": 0.375
        },
        {
          "name": "D3",
          "midi": 50,
          "time": 306,
          "velocity": 1,
          "duration": 0.1875
        },
        {
          "name": "D3",
          "midi": 50,
          "time": 306.1875,
          "velocity": 1,
          "duration": 0.1875
        },
        {
          "name": "D3",
          "midi": 50,
          "time": 306.375,
          "velocity": 1,
          "duration": 0.1875
        },
        {
          "name": "D2",
          "midi": 38,
          "time": 306.5625,
          "velocity": 1,
          "duration": 0.1875
        },
        {
          "name": "D2",
          "midi": 38,
          "time": 306.75,
          "velocity": 1,
          "duration": 0.375
        },
        {
          "name": "D2",
          "midi": 38,
          "time": 307.125,
          "velocity": 1,
          "duration": 0.1875
        },
        {
          "name": "D2",
          "midi": 38,
          "time": 307.3125,
          "velocity": 1,
          "duration": 0.1875
        },
        {
          "name": "D2",
          "midi": 38,
          "time": 307.5,
          "velocity": 1,
          "duration": 0.375
        },
        {
          "name": "D3",
          "midi": 50,
          "time": 308.25,
          "velocity": 1,
          "duration": 0.1875
        },
        {
          "name": "D3",
          "midi": 50,
          "time": 308.4375,
          "velocity": 1,
          "duration": 0.1875
        },
        {
          "name": "D3",
          "midi": 50,
          "time": 308.625,
          "velocity": 1,
          "duration": 0.375
        },
        {
          "name": "D2",
          "midi": 38,
          "time": 309,
          "velocity": 1,
          "duration": 0.375
        },
        {
          "name": "D2",
          "midi": 38,
          "time": 309.375,
          "velocity": 1,
          "duration": 0.1875
        },
        {
          "name": "D2",
          "midi": 38,
          "time": 309.5625,
          "velocity": 1,
          "duration": 0.1875
        },
        {
          "name": "D2",
          "midi": 38,
          "time": 309.75,
          "velocity": 1,
          "duration": 0.375
        },
        {
          "name": "D2",
          "midi": 38,
          "time": 310.5,
          "velocity": 1,
          "duration": 0.1875
        },
        {
          "name": "D2",
          "midi": 38,
          "time": 310.6875,
          "velocity": 1,
          "duration": 0.1875
        },
        {
          "name": "D2",
          "midi": 38,
          "time": 310.875,
          "velocity": 1,
          "duration": 0.375
        },
        {
          "name": "D2",
          "midi": 38,
          "time": 311.25,
          "velocity": 1,
          "duration": 0.375
        },
        {
          "name": "D2",
          "midi": 38,
          "time": 311.625,
          "velocity": 1,
          "duration": 0.1875
        },
        {
          "name": "D2",
          "midi": 38,
          "time": 311.8125,
          "velocity": 1,
          "duration": 0.1875
        },
        {
          "name": "D2",
          "midi": 38,
          "time": 312,
          "velocity": 1,
          "duration": 0.375
        },
        {
          "name": "D3",
          "midi": 50,
          "time": 312.75,
          "velocity": 1,
          "duration": 0.1875
        },
        {
          "name": "D3",
          "midi": 50,
          "time": 312.9375,
          "velocity": 1,
          "duration": 0.1875
        },
        {
          "name": "D3",
          "midi": 50,
          "time": 313.125,
          "velocity": 1,
          "duration": 0.375
        },
        {
          "name": "D2",
          "midi": 38,
          "time": 313.5,
          "velocity": 1,
          "duration": 0.375
        },
        {
          "name": "D2",
          "midi": 38,
          "time": 313.875,
          "velocity": 1,
          "duration": 0.1875
        },
        {
          "name": "D2",
          "midi": 38,
          "time": 314.0625,
          "velocity": 1,
          "duration": 0.1875
        },
        {
          "name": "D2",
          "midi": 38,
          "time": 314.25,
          "velocity": 1,
          "duration": 0.375
        },
        {
          "name": "D3",
          "midi": 50,
          "time": 315,
          "velocity": 1,
          "duration": 0.1875
        },
        {
          "name": "D3",
          "midi": 50,
          "time": 315.1875,
          "velocity": 1,
          "duration": 0.1875
        },
        {
          "name": "D3",
          "midi": 50,
          "time": 315.375,
          "velocity": 1,
          "duration": 0.1875
        },
        {
          "name": "D2",
          "midi": 38,
          "time": 315.5625,
          "velocity": 1,
          "duration": 0.1875
        },
        {
          "name": "D2",
          "midi": 38,
          "time": 315.75,
          "velocity": 1,
          "duration": 0.375
        },
        {
          "name": "D2",
          "midi": 38,
          "time": 316.125,
          "velocity": 1,
          "duration": 0.1875
        },
        {
          "name": "D2",
          "midi": 38,
          "time": 316.3125,
          "velocity": 1,
          "duration": 0.1875
        },
        {
          "name": "D2",
          "midi": 38,
          "time": 316.5,
          "velocity": 1,
          "duration": 0.375
        },
        {
          "name": "D3",
          "midi": 50,
          "time": 317.25,
          "velocity": 1,
          "duration": 0.1875
        },
        {
          "name": "D3",
          "midi": 50,
          "time": 317.4375,
          "velocity": 1,
          "duration": 0.1875
        },
        {
          "name": "D3",
          "midi": 50,
          "time": 317.625,
          "velocity": 1,
          "duration": 0.375
        },
        {
          "name": "D2",
          "midi": 38,
          "time": 318,
          "velocity": 1,
          "duration": 0.375
        },
        {
          "name": "D2",
          "midi": 38,
          "time": 318.375,
          "velocity": 1,
          "duration": 0.1875
        },
        {
          "name": "D2",
          "midi": 38,
          "time": 318.5625,
          "velocity": 1,
          "duration": 0.1875
        },
        {
          "name": "D2",
          "midi": 38,
          "time": 318.75,
          "velocity": 1,
          "duration": 0.75
        },
        {
          "name": "D3",
          "midi": 50,
          "time": 319.5,
          "velocity": 1,
          "duration": 0.1875
        },
        {
          "name": "D3",
          "midi": 50,
          "time": 319.6875,
          "velocity": 1,
          "duration": 0.1875
        },
        {
          "name": "D3",
          "midi": 50,
          "time": 319.875,
          "velocity": 1,
          "duration": 0.1875
        },
        {
          "name": "A2",
          "midi": 45,
          "time": 320.0625,
          "velocity": 1,
          "duration": 0.1875
        },
        {
          "name": "D2",
          "midi": 38,
          "time": 320.25,
          "velocity": 1,
          "duration": 1.125
        },
        {
          "name": "D2",
          "midi": 38,
          "time": 321.75,
          "velocity": 1,
          "duration": 0.1875
        },
        {
          "name": "D2",
          "midi": 38,
          "time": 321.9375,
          "velocity": 1,
          "duration": 0.1875
        },
        {
          "name": "D3",
          "midi": 50,
          "time": 322.125,
          "velocity": 1,
          "duration": 0.375
        },
        {
          "name": "D3",
          "midi": 50,
          "time": 324,
          "velocity": 1,
          "duration": 0.1875
        },
        {
          "name": "D3",
          "midi": 50,
          "time": 324.1875,
          "velocity": 1,
          "duration": 0.1875
        },
        {
          "name": "D3",
          "midi": 50,
          "time": 324.375,
          "velocity": 1,
          "duration": 0.1875
        },
        {
          "name": "A2",
          "midi": 45,
          "time": 324.5625,
          "velocity": 1,
          "duration": 0.1875
        },
        {
          "name": "D2",
          "midi": 38,
          "time": 324.75,
          "velocity": 1,
          "duration": 1.5
        },
        {
          "name": "D3",
          "midi": 50,
          "time": 326.25,
          "velocity": 1,
          "duration": 0.1875
        },
        {
          "name": "D3",
          "midi": 50,
          "time": 326.4375,
          "velocity": 1,
          "duration": 0.1875
        },
        {
          "name": "D3",
          "midi": 50,
          "time": 326.625,
          "velocity": 1,
          "duration": 0.375
        },
        {
          "name": "D2",
          "midi": 38,
          "time": 327,
          "velocity": 1,
          "duration": 0.5625
        },
        {
          "name": "A2",
          "midi": 45,
          "time": 327.5625,
          "velocity": 1,
          "duration": 0.1875
        },
        {
          "name": "D3",
          "midi": 50,
          "time": 327.75,
          "velocity": 1,
          "duration": 0.75
        },
        {
          "name": "D3",
          "midi": 50,
          "time": 328.5,
          "velocity": 1,
          "duration": 0.1875
        },
        {
          "name": "D3",
          "midi": 50,
          "time": 328.6875,
          "velocity": 1,
          "duration": 0.1875
        },
        {
          "name": "D3",
          "midi": 50,
          "time": 330.75,
          "velocity": 1,
          "duration": 0.1875
        },
        {
          "name": "D3",
          "midi": 50,
          "time": 330.9375,
          "velocity": 1,
          "duration": 0.1875
        },
        {
          "name": "D3",
          "midi": 50,
          "time": 331.125,
          "velocity": 1,
          "duration": 0.375
        },
        {
          "name": "D2",
          "midi": 38,
          "time": 331.5,
          "velocity": 1,
          "duration": 0.375
        },
        {
          "name": "D2",
          "midi": 38,
          "time": 331.875,
          "velocity": 1,
          "duration": 0.1875
        },
        {
          "name": "D2",
          "midi": 38,
          "time": 332.0625,
          "velocity": 1,
          "duration": 0.1875
        },
        {
          "name": "D2",
          "midi": 38,
          "time": 332.25,
          "velocity": 1,
          "duration": 0.375
        },
        {
          "name": "D3",
          "midi": 50,
          "time": 333,
          "velocity": 1,
          "duration": 0.1875
        },
        {
          "name": "D3",
          "midi": 50,
          "time": 333.1875,
          "velocity": 1,
          "duration": 0.1875
        },
        {
          "name": "D3",
          "midi": 50,
          "time": 333.375,
          "velocity": 1,
          "duration": 0.1875
        },
        {
          "name": "D2",
          "midi": 38,
          "time": 333.5625,
          "velocity": 1,
          "duration": 0.1875
        },
        {
          "name": "D2",
          "midi": 38,
          "time": 333.75,
          "velocity": 1,
          "duration": 0.375
        },
        {
          "name": "D2",
          "midi": 38,
          "time": 334.125,
          "velocity": 1,
          "duration": 0.1875
        },
        {
          "name": "D2",
          "midi": 38,
          "time": 334.3125,
          "velocity": 1,
          "duration": 0.1875
        },
        {
          "name": "D2",
          "midi": 38,
          "time": 334.5,
          "velocity": 1,
          "duration": 0.375
        },
        {
          "name": "D3",
          "midi": 50,
          "time": 335.25,
          "velocity": 1,
          "duration": 0.1875
        },
        {
          "name": "D3",
          "midi": 50,
          "time": 335.4375,
          "velocity": 1,
          "duration": 0.1875
        },
        {
          "name": "D3",
          "midi": 50,
          "time": 335.625,
          "velocity": 1,
          "duration": 0.375
        },
        {
          "name": "D2",
          "midi": 38,
          "time": 336,
          "velocity": 1,
          "duration": 0.375
        },
        {
          "name": "D2",
          "midi": 38,
          "time": 336.375,
          "velocity": 1,
          "duration": 0.1875
        },
        {
          "name": "D2",
          "midi": 38,
          "time": 336.5625,
          "velocity": 1,
          "duration": 0.1875
        },
        {
          "name": "D2",
          "midi": 38,
          "time": 336.75,
          "velocity": 1,
          "duration": 0.375
        },
        {
          "name": "D2",
          "midi": 38,
          "time": 337.5,
          "velocity": 1,
          "duration": 0.1875
        },
        {
          "name": "D2",
          "midi": 38,
          "time": 337.6875,
          "velocity": 1,
          "duration": 0.1875
        },
        {
          "name": "D2",
          "midi": 38,
          "time": 337.875,
          "velocity": 1,
          "duration": 0.375
        },
        {
          "name": "D2",
          "midi": 38,
          "time": 338.25,
          "velocity": 1,
          "duration": 0.375
        },
        {
          "name": "D2",
          "midi": 38,
          "time": 338.625,
          "velocity": 1,
          "duration": 0.1875
        },
        {
          "name": "D2",
          "midi": 38,
          "time": 338.8125,
          "velocity": 1,
          "duration": 0.1875
        },
        {
          "name": "D2",
          "midi": 38,
          "time": 339,
          "velocity": 1,
          "duration": 0.375
        },
        {
          "name": "D3",
          "midi": 50,
          "time": 339.75,
          "velocity": 1,
          "duration": 0.1875
        },
        {
          "name": "D3",
          "midi": 50,
          "time": 339.9375,
          "velocity": 1,
          "duration": 0.1875
        },
        {
          "name": "D3",
          "midi": 50,
          "time": 340.125,
          "velocity": 1,
          "duration": 0.375
        },
        {
          "name": "D2",
          "midi": 38,
          "time": 340.5,
          "velocity": 1,
          "duration": 0.375
        },
        {
          "name": "D2",
          "midi": 38,
          "time": 340.875,
          "velocity": 1,
          "duration": 0.1875
        },
        {
          "name": "D2",
          "midi": 38,
          "time": 341.0625,
          "velocity": 1,
          "duration": 0.1875
        },
        {
          "name": "D2",
          "midi": 38,
          "time": 341.25,
          "velocity": 1,
          "duration": 0.375
        },
        {
          "name": "D3",
          "midi": 50,
          "time": 342,
          "velocity": 1,
          "duration": 0.1875
        },
        {
          "name": "D3",
          "midi": 50,
          "time": 342.1875,
          "velocity": 1,
          "duration": 0.1875
        },
        {
          "name": "D3",
          "midi": 50,
          "time": 342.375,
          "velocity": 1,
          "duration": 0.1875
        },
        {
          "name": "D2",
          "midi": 38,
          "time": 342.5625,
          "velocity": 1,
          "duration": 0.1875
        },
        {
          "name": "D2",
          "midi": 38,
          "time": 342.75,
          "velocity": 1,
          "duration": 0.375
        },
        {
          "name": "D2",
          "midi": 38,
          "time": 343.125,
          "velocity": 1,
          "duration": 0.1875
        },
        {
          "name": "D2",
          "midi": 38,
          "time": 343.3125,
          "velocity": 1,
          "duration": 0.1875
        },
        {
          "name": "D2",
          "midi": 38,
          "time": 343.5,
          "velocity": 1,
          "duration": 0.375
        },
        {
          "name": "D3",
          "midi": 50,
          "time": 344.25,
          "velocity": 1,
          "duration": 0.1875
        },
        {
          "name": "D3",
          "midi": 50,
          "time": 344.4375,
          "velocity": 1,
          "duration": 0.1875
        },
        {
          "name": "D3",
          "midi": 50,
          "time": 344.625,
          "velocity": 1,
          "duration": 0.375
        },
        {
          "name": "D2",
          "midi": 38,
          "time": 345,
          "velocity": 1,
          "duration": 0.375
        },
        {
          "name": "D2",
          "midi": 38,
          "time": 345.375,
          "velocity": 1,
          "duration": 0.1875
        },
        {
          "name": "D2",
          "midi": 38,
          "time": 345.5625,
          "velocity": 1,
          "duration": 0.1875
        },
        {
          "name": "D2",
          "midi": 38,
          "time": 345.75,
          "velocity": 1,
          "duration": 0.375
        },
        {
          "name": "D2",
          "midi": 38,
          "time": 346.5,
          "velocity": 1,
          "duration": 0.1875
        },
        {
          "name": "D2",
          "midi": 38,
          "time": 346.6875,
          "velocity": 1,
          "duration": 0.1875
        },
        {
          "name": "D2",
          "midi": 38,
          "time": 346.875,
          "velocity": 1,
          "duration": 0.375
        },
        {
          "name": "D2",
          "midi": 38,
          "time": 347.25,
          "velocity": 1,
          "duration": 0.375
        },
        {
          "name": "D2",
          "midi": 38,
          "time": 347.625,
          "velocity": 1,
          "duration": 0.1875
        },
        {
          "name": "D2",
          "midi": 38,
          "time": 347.8125,
          "velocity": 1,
          "duration": 0.1875
        },
        {
          "name": "D2",
          "midi": 38,
          "time": 348,
          "velocity": 1,
          "duration": 0.375
        },
        {
          "name": "D3",
          "midi": 50,
          "time": 348.75,
          "velocity": 1,
          "duration": 0.1875
        },
        {
          "name": "D3",
          "midi": 50,
          "time": 348.9375,
          "velocity": 1,
          "duration": 0.1875
        },
        {
          "name": "D3",
          "midi": 50,
          "time": 349.125,
          "velocity": 1,
          "duration": 0.375
        },
        {
          "name": "D2",
          "midi": 38,
          "time": 349.5,
          "velocity": 1,
          "duration": 0.375
        },
        {
          "name": "D2",
          "midi": 38,
          "time": 349.875,
          "velocity": 1,
          "duration": 0.1875
        },
        {
          "name": "D2",
          "midi": 38,
          "time": 350.0625,
          "velocity": 1,
          "duration": 0.1875
        },
        {
          "name": "D2",
          "midi": 38,
          "time": 350.25,
          "velocity": 1,
          "duration": 0.375
        },
        {
          "name": "D3",
          "midi": 50,
          "time": 351,
          "velocity": 1,
          "duration": 0.1875
        },
        {
          "name": "D3",
          "midi": 50,
          "time": 351.1875,
          "velocity": 1,
          "duration": 0.1875
        },
        {
          "name": "D3",
          "midi": 50,
          "time": 351.375,
          "velocity": 1,
          "duration": 0.1875
        },
        {
          "name": "D2",
          "midi": 38,
          "time": 351.5625,
          "velocity": 1,
          "duration": 0.1875
        },
        {
          "name": "D2",
          "midi": 38,
          "time": 351.75,
          "velocity": 1,
          "duration": 0.375
        },
        {
          "name": "D2",
          "midi": 38,
          "time": 352.125,
          "velocity": 1,
          "duration": 0.1875
        },
        {
          "name": "D2",
          "midi": 38,
          "time": 352.3125,
          "velocity": 1,
          "duration": 0.1875
        },
        {
          "name": "D2",
          "midi": 38,
          "time": 352.5,
          "velocity": 1,
          "duration": 0.375
        },
        {
          "name": "D3",
          "midi": 50,
          "time": 353.25,
          "velocity": 1,
          "duration": 0.1875
        },
        {
          "name": "D3",
          "midi": 50,
          "time": 353.4375,
          "velocity": 1,
          "duration": 0.1875
        },
        {
          "name": "D3",
          "midi": 50,
          "time": 353.625,
          "velocity": 1,
          "duration": 0.375
        },
        {
          "name": "D2",
          "midi": 38,
          "time": 354,
          "velocity": 1,
          "duration": 0.375
        },
        {
          "name": "D2",
          "midi": 38,
          "time": 354.375,
          "velocity": 1,
          "duration": 0.1875
        },
        {
          "name": "D2",
          "midi": 38,
          "time": 354.5625,
          "velocity": 1,
          "duration": 0.1875
        },
        {
          "name": "D2",
          "midi": 38,
          "time": 354.75,
          "velocity": 1,
          "duration": 0.375
        },
        {
          "name": "D2",
          "midi": 38,
          "time": 355.5,
          "velocity": 1,
          "duration": 0.1875
        },
        {
          "name": "D2",
          "midi": 38,
          "time": 355.6875,
          "velocity": 1,
          "duration": 0.1875
        },
        {
          "name": "D2",
          "midi": 38,
          "time": 355.875,
          "velocity": 1,
          "duration": 0.375
        },
        {
          "name": "D2",
          "midi": 38,
          "time": 356.25,
          "velocity": 1,
          "duration": 0.375
        },
        {
          "name": "D2",
          "midi": 38,
          "time": 356.625,
          "velocity": 1,
          "duration": 0.1875
        },
        {
          "name": "D2",
          "midi": 38,
          "time": 356.8125,
          "velocity": 1,
          "duration": 0.1875
        },
        {
          "name": "D2",
          "midi": 38,
          "time": 357,
          "velocity": 1,
          "duration": 0.375
        },
        {
          "name": "D3",
          "midi": 50,
          "time": 357.75,
          "velocity": 1,
          "duration": 0.1875
        },
        {
          "name": "D3",
          "midi": 50,
          "time": 357.9375,
          "velocity": 1,
          "duration": 0.1875
        },
        {
          "name": "D3",
          "midi": 50,
          "time": 358.125,
          "velocity": 1,
          "duration": 0.375
        },
        {
          "name": "D2",
          "midi": 38,
          "time": 358.5,
          "velocity": 1,
          "duration": 0.375
        },
        {
          "name": "D2",
          "midi": 38,
          "time": 358.875,
          "velocity": 1,
          "duration": 0.1875
        },
        {
          "name": "D2",
          "midi": 38,
          "time": 359.0625,
          "velocity": 1,
          "duration": 0.1875
        },
        {
          "name": "D2",
          "midi": 38,
          "time": 359.25,
          "velocity": 1,
          "duration": 0.375
        },
        {
          "name": "D3",
          "midi": 50,
          "time": 360,
          "velocity": 1,
          "duration": 0.1875
        },
        {
          "name": "D3",
          "midi": 50,
          "time": 360.1875,
          "velocity": 1,
          "duration": 0.1875
        },
        {
          "name": "D3",
          "midi": 50,
          "time": 360.375,
          "velocity": 1,
          "duration": 0.1875
        },
        {
          "name": "D2",
          "midi": 38,
          "time": 360.5625,
          "velocity": 1,
          "duration": 0.1875
        },
        {
          "name": "D2",
          "midi": 38,
          "time": 360.75,
          "velocity": 1,
          "duration": 0.375
        },
        {
          "name": "D2",
          "midi": 38,
          "time": 361.125,
          "velocity": 1,
          "duration": 0.1875
        },
        {
          "name": "D2",
          "midi": 38,
          "time": 361.3125,
          "velocity": 1,
          "duration": 0.1875
        },
        {
          "name": "D2",
          "midi": 38,
          "time": 361.5,
          "velocity": 1,
          "duration": 0.375
        },
        {
          "name": "D3",
          "midi": 50,
          "time": 362.25,
          "velocity": 1,
          "duration": 0.1875
        },
        {
          "name": "D3",
          "midi": 50,
          "time": 362.4375,
          "velocity": 1,
          "duration": 0.1875
        },
        {
          "name": "D3",
          "midi": 50,
          "time": 362.625,
          "velocity": 1,
          "duration": 0.375
        },
        {
          "name": "D2",
          "midi": 38,
          "time": 363,
          "velocity": 1,
          "duration": 0.375
        },
        {
          "name": "D2",
          "midi": 38,
          "time": 363.375,
          "velocity": 1,
          "duration": 0.1875
        },
        {
          "name": "D2",
          "midi": 38,
          "time": 363.5625,
          "velocity": 1,
          "duration": 0.1875
        },
        {
          "name": "D2",
          "midi": 38,
          "time": 363.75,
          "velocity": 1,
          "duration": 0.375
        },
        {
          "name": "D2",
          "midi": 38,
          "time": 364.5,
          "velocity": 1,
          "duration": 0.1875
        },
        {
          "name": "D2",
          "midi": 38,
          "time": 364.6875,
          "velocity": 1,
          "duration": 0.1875
        },
        {
          "name": "D2",
          "midi": 38,
          "time": 364.875,
          "velocity": 1,
          "duration": 0.375
        },
        {
          "name": "D2",
          "midi": 38,
          "time": 365.25,
          "velocity": 1,
          "duration": 0.375
        },
        {
          "name": "D2",
          "midi": 38,
          "time": 365.625,
          "velocity": 1,
          "duration": 0.1875
        },
        {
          "name": "D2",
          "midi": 38,
          "time": 365.8125,
          "velocity": 1,
          "duration": 0.1875
        },
        {
          "name": "D2",
          "midi": 38,
          "time": 366,
          "velocity": 1,
          "duration": 0.375
        },
        {
          "name": "D3",
          "midi": 50,
          "time": 366.75,
          "velocity": 1,
          "duration": 0.1875
        },
        {
          "name": "D3",
          "midi": 50,
          "time": 366.9375,
          "velocity": 1,
          "duration": 0.1875
        },
        {
          "name": "D3",
          "midi": 50,
          "time": 367.125,
          "velocity": 1,
          "duration": 0.375
        },
        {
          "name": "D2",
          "midi": 38,
          "time": 367.5,
          "velocity": 1,
          "duration": 0.375
        },
        {
          "name": "D2",
          "midi": 38,
          "time": 367.875,
          "velocity": 1,
          "duration": 0.1875
        },
        {
          "name": "D2",
          "midi": 38,
          "time": 368.0625,
          "velocity": 1,
          "duration": 0.1875
        },
        {
          "name": "D2",
          "midi": 38,
          "time": 368.25,
          "velocity": 1,
          "duration": 0.375
        },
        {
          "name": "D3",
          "midi": 50,
          "time": 369,
          "velocity": 1,
          "duration": 0.1875
        },
        {
          "name": "D3",
          "midi": 50,
          "time": 369.1875,
          "velocity": 1,
          "duration": 0.1875
        },
        {
          "name": "D3",
          "midi": 50,
          "time": 369.375,
          "velocity": 1,
          "duration": 0.1875
        },
        {
          "name": "D2",
          "midi": 38,
          "time": 369.5625,
          "velocity": 1,
          "duration": 0.1875
        },
        {
          "name": "D2",
          "midi": 38,
          "time": 369.75,
          "velocity": 1,
          "duration": 0.375
        },
        {
          "name": "D2",
          "midi": 38,
          "time": 370.125,
          "velocity": 1,
          "duration": 0.1875
        },
        {
          "name": "D2",
          "midi": 38,
          "time": 370.3125,
          "velocity": 1,
          "duration": 0.1875
        },
        {
          "name": "D2",
          "midi": 38,
          "time": 370.5,
          "velocity": 1,
          "duration": 0.375
        },
        {
          "name": "D3",
          "midi": 50,
          "time": 371.25,
          "velocity": 1,
          "duration": 0.1875
        },
        {
          "name": "D3",
          "midi": 50,
          "time": 371.4375,
          "velocity": 1,
          "duration": 0.1875
        },
        {
          "name": "D3",
          "midi": 50,
          "time": 371.625,
          "velocity": 1,
          "duration": 0.375
        },
        {
          "name": "D2",
          "midi": 38,
          "time": 372,
          "velocity": 1,
          "duration": 0.375
        },
        {
          "name": "D2",
          "midi": 38,
          "time": 372.375,
          "velocity": 1,
          "duration": 0.1875
        },
        {
          "name": "E3",
          "midi": 52,
          "time": 372.5625,
          "velocity": 1,
          "duration": 0.1875
        },
        {
          "name": "D3",
          "midi": 50,
          "time": 372.75,
          "velocity": 1,
          "duration": 0.75
        },
        {
          "name": "D3",
          "midi": 50,
          "time": 373.5,
          "velocity": 1,
          "duration": 0.1875
        },
        {
          "name": "D3",
          "midi": 50,
          "time": 373.6875,
          "velocity": 1,
          "duration": 0.1875
        },
        {
          "name": "D3",
          "midi": 50,
          "time": 373.875,
          "velocity": 1,
          "duration": 0.1875
        },
        {
          "name": "A2",
          "midi": 45,
          "time": 374.0625,
          "velocity": 1,
          "duration": 0.1875
        },
        {
          "name": "D2",
          "midi": 38,
          "time": 374.25,
          "velocity": 1,
          "duration": 0.5625
        },
        {
          "name": "A2",
          "midi": 45,
          "time": 374.8125,
          "velocity": 1,
          "duration": 0.1875
        },
        {
          "name": "D3",
          "midi": 50,
          "time": 375,
          "velocity": 1,
          "duration": 0.1875
        },
        {
          "name": "D3",
          "midi": 50,
          "time": 375.75,
          "velocity": 1,
          "duration": 0.1875
        },
        {
          "name": "D3",
          "midi": 50,
          "time": 375.9375,
          "velocity": 1,
          "duration": 0.1875
        },
        {
          "name": "D3",
          "midi": 50,
          "time": 376.125,
          "velocity": 1,
          "duration": 0.375
        },
        {
          "name": "D2",
          "midi": 38,
          "time": 376.5,
          "velocity": 1,
          "duration": 0.5625
        },
        {
          "name": "D2",
          "midi": 38,
          "time": 377.0625,
          "velocity": 1,
          "duration": 0.5625
        },
        {
          "name": "D3",
          "midi": 50,
          "time": 378,
          "velocity": 1,
          "duration": 0.1875
        },
        {
          "name": "D3",
          "midi": 50,
          "time": 378.1875,
          "velocity": 1,
          "duration": 0.1875
        },
        {
          "name": "D3",
          "midi": 50,
          "time": 378.375,
          "velocity": 1,
          "duration": 0.1875
        },
        {
          "name": "D2",
          "midi": 38,
          "time": 378.5625,
          "velocity": 1,
          "duration": 0.1875
        },
        {
          "name": "D2",
          "midi": 38,
          "time": 378.75,
          "velocity": 1,
          "duration": 0.5625
        },
        {
          "name": "D2",
          "midi": 38,
          "time": 379.3125,
          "velocity": 1,
          "duration": 0.9375
        },
        {
          "name": "D3",
          "midi": 50,
          "time": 380.25,
          "velocity": 1,
          "duration": 0.1875
        },
        {
          "name": "D3",
          "midi": 50,
          "time": 380.4375,
          "velocity": 1,
          "duration": 0.1875
        },
        {
          "name": "D3",
          "midi": 50,
          "time": 380.625,
          "velocity": 1,
          "duration": 0.375
        },
        {
          "name": "D2",
          "midi": 38,
          "time": 381,
          "velocity": 1,
          "duration": 0.375
        },
        {
          "name": "D2",
          "midi": 38,
          "time": 381.375,
          "velocity": 1,
          "duration": 0.1875
        },
        {
          "name": "D2",
          "midi": 38,
          "time": 381.5625,
          "velocity": 1,
          "duration": 0.1875
        },
        {
          "name": "D2",
          "midi": 38,
          "time": 381.75,
          "velocity": 1,
          "duration": 0.375
        },
        {
          "name": "D3",
          "midi": 50,
          "time": 382.5,
          "velocity": 1,
          "duration": 0.1875
        },
        {
          "name": "D3",
          "midi": 50,
          "time": 382.6875,
          "velocity": 1,
          "duration": 0.1875
        },
        {
          "name": "D3",
          "midi": 50,
          "time": 382.875,
          "velocity": 1,
          "duration": 0.1875
        },
        {
          "name": "D2",
          "midi": 38,
          "time": 383.0625,
          "velocity": 1,
          "duration": 0.1875
        },
        {
          "name": "D2",
          "midi": 38,
          "time": 383.25,
          "velocity": 1,
          "duration": 1.125
        },
        {
          "name": "D3",
          "midi": 50,
          "time": 384.75,
          "velocity": 1,
          "duration": 0.1875
        },
        {
          "name": "D3",
          "midi": 50,
          "time": 384.9375,
          "velocity": 1,
          "duration": 0.1875
        },
        {
          "name": "D3",
          "midi": 50,
          "time": 385.125,
          "velocity": 1,
          "duration": 0.375
        },
        {
          "name": "D2",
          "midi": 38,
          "time": 385.5,
          "velocity": 1,
          "duration": 0.375
        },
        {
          "name": "D2",
          "midi": 38,
          "time": 385.875,
          "velocity": 1,
          "duration": 0.1875
        },
        {
          "name": "D2",
          "midi": 38,
          "time": 386.0625,
          "velocity": 1,
          "duration": 0.1875
        },
        {
          "name": "D2",
          "midi": 38,
          "time": 386.25,
          "velocity": 1,
          "duration": 0.375
        },
        {
          "name": "D3",
          "midi": 50,
          "time": 387,
          "velocity": 1,
          "duration": 0.1875
        },
        {
          "name": "D3",
          "midi": 50,
          "time": 387.1875,
          "velocity": 1,
          "duration": 0.1875
        },
        {
          "name": "D3",
          "midi": 50,
          "time": 387.375,
          "velocity": 1,
          "duration": 0.375
        },
        {
          "name": "D2",
          "midi": 38,
          "time": 387.75,
          "velocity": 1,
          "duration": 0.375
        },
        {
          "name": "D2",
          "midi": 38,
          "time": 388.125,
          "velocity": 1,
          "duration": 0.1875
        },
        {
          "name": "D2",
          "midi": 38,
          "time": 388.3125,
          "velocity": 1,
          "duration": 0.1875
        },
        {
          "name": "D2",
          "midi": 38,
          "time": 388.5,
          "velocity": 1,
          "duration": 0.375
        },
        {
          "name": "D3",
          "midi": 50,
          "time": 389.25,
          "velocity": 1,
          "duration": 0.1875
        },
        {
          "name": "D3",
          "midi": 50,
          "time": 389.4375,
          "velocity": 1,
          "duration": 0.1875
        },
        {
          "name": "D3",
          "midi": 50,
          "time": 389.625,
          "velocity": 1,
          "duration": 0.375
        },
        {
          "name": "D2",
          "midi": 38,
          "time": 390,
          "velocity": 1,
          "duration": 0.375
        },
        {
          "name": "E3",
          "midi": 52,
          "time": 390.375,
          "velocity": 1,
          "duration": 0.5625
        },
        {
          "name": "D3",
          "midi": 50,
          "time": 390.9375,
          "velocity": 1,
          "duration": 0.5625
        },
        {
          "name": "C3",
          "midi": 48,
          "time": 391.5,
          "velocity": 1,
          "duration": 0.5625
        },
        {
          "name": "A2",
          "midi": 45,
          "time": 392.0625,
          "velocity": 1,
          "duration": 0.5625
        },
        {
          "name": "D2",
          "midi": 38,
          "time": 392.625,
          "velocity": 1,
          "duration": 0.375
        },
        {
          "name": "A2",
          "midi": 45,
          "time": 393,
          "velocity": 1,
          "duration": 0.375
        },
        {
          "name": "G2",
          "midi": 43,
          "time": 393.375,
          "velocity": 1,
          "duration": 0.5625
        },
        {
          "name": "G2",
          "midi": 43,
          "time": 393.9375,
          "velocity": 1,
          "duration": 0.5625
        },
        {
          "name": "F2",
          "midi": 41,
          "time": 394.5,
          "velocity": 1,
          "duration": 0.5625
        },
        {
          "name": "F2",
          "midi": 41,
          "time": 395.0625,
          "velocity": 1,
          "duration": 0.5625
        },
        {
          "name": "F2",
          "midi": 41,
          "time": 395.625,
          "velocity": 1,
          "duration": 0.1875
        },
        {
          "name": "E2",
          "midi": 40,
          "time": 395.8125,
          "velocity": 1,
          "duration": 0.1875
        },
        {
          "name": "D2",
          "midi": 38,
          "time": 396,
          "velocity": 1,
          "duration": 0.375
        },
        {
          "name": "E3",
          "midi": 52,
          "time": 396.375,
          "velocity": 1,
          "duration": 0.5625
        },
        {
          "name": "D3",
          "midi": 50,
          "time": 396.9375,
          "velocity": 1,
          "duration": 0.5625
        },
        {
          "name": "C3",
          "midi": 48,
          "time": 397.5,
          "velocity": 1,
          "duration": 0.5625
        },
        {
          "name": "A2",
          "midi": 45,
          "time": 398.0625,
          "velocity": 1,
          "duration": 0.5625
        },
        {
          "name": "D2",
          "midi": 38,
          "time": 398.625,
          "velocity": 1,
          "duration": 0.375
        },
        {
          "name": "A2",
          "midi": 45,
          "time": 399,
          "velocity": 1,
          "duration": 0.375
        },
        {
          "name": "G2",
          "midi": 43,
          "time": 399.375,
          "velocity": 1,
          "duration": 0.5625
        },
        {
          "name": "G2",
          "midi": 43,
          "time": 399.9375,
          "velocity": 1,
          "duration": 0.5625
        },
        {
          "name": "F2",
          "midi": 41,
          "time": 400.5,
          "velocity": 1,
          "duration": 0.5625
        },
        {
          "name": "F2",
          "midi": 41,
          "time": 401.0625,
          "velocity": 1,
          "duration": 0.5625
        },
        {
          "name": "F2",
          "midi": 41,
          "time": 401.625,
          "velocity": 1,
          "duration": 0.1875
        },
        {
          "name": "E2",
          "midi": 40,
          "time": 401.8125,
          "velocity": 1,
          "duration": 0.1875
        },
        {
          "name": "D2",
          "midi": 38,
          "time": 402,
          "velocity": 1,
          "duration": 0.375
        },
        {
          "name": "G1",
          "midi": 31,
          "time": 402.375,
          "velocity": 1,
          "duration": 0.75
        },
        {
          "name": "G1",
          "midi": 31,
          "time": 403.125,
          "velocity": 1,
          "duration": 0.75
        },
        {
          "name": "G1",
          "midi": 31,
          "time": 403.875,
          "velocity": 1,
          "duration": 0.375
        },
        {
          "name": "G1",
          "midi": 31,
          "time": 404.25,
          "velocity": 1,
          "duration": 0.75
        },
        {
          "name": "G1",
          "midi": 31,
          "time": 405,
          "velocity": 1,
          "duration": 0.75
        },
        {
          "name": "G1",
          "midi": 31,
          "time": 405.75,
          "velocity": 1,
          "duration": 0.1875
        },
        {
          "name": "G1",
          "midi": 31,
          "time": 405.9375,
          "velocity": 1,
          "duration": 0.1875
        },
        {
          "name": "G1",
          "midi": 31,
          "time": 406.125,
          "velocity": 1,
          "duration": 0.75
        },
        {
          "name": "G1",
          "midi": 31,
          "time": 406.875,
          "velocity": 1,
          "duration": 0.375
        },
        {
          "name": "G1",
          "midi": 31,
          "time": 407.25,
          "velocity": 1,
          "duration": 0.75
        },
        {
          "name": "G1",
          "midi": 31,
          "time": 408,
          "velocity": 1,
          "duration": 0.375
        },
        {
          "name": "A1",
          "midi": 33,
          "time": 408.375,
          "velocity": 1,
          "duration": 0.375
        },
        {
          "name": "A1",
          "midi": 33,
          "time": 408.75,
          "velocity": 1,
          "duration": 0.375
        },
        {
          "name": "A1",
          "midi": 33,
          "time": 409.125,
          "velocity": 1,
          "duration": 0.75
        },
        {
          "name": "A1",
          "midi": 33,
          "time": 409.875,
          "velocity": 1,
          "duration": 0.375
        },
        {
          "name": "A1",
          "midi": 33,
          "time": 410.25,
          "velocity": 1,
          "duration": 0.75
        },
        {
          "name": "A1",
          "midi": 33,
          "time": 411,
          "velocity": 1,
          "duration": 0.75
        },
        {
          "name": "A1",
          "midi": 33,
          "time": 411.75,
          "velocity": 1,
          "duration": 0.1875
        },
        {
          "name": "A1",
          "midi": 33,
          "time": 411.9375,
          "velocity": 1,
          "duration": 0.1875
        },
        {
          "name": "A1",
          "midi": 33,
          "time": 412.125,
          "velocity": 1,
          "duration": 0.75
        },
        {
          "name": "A1",
          "midi": 33,
          "time": 412.875,
          "velocity": 1,
          "duration": 0.375
        },
        {
          "name": "A1",
          "midi": 33,
          "time": 413.25,
          "velocity": 1,
          "duration": 0.375
        },
        {
          "name": "A1",
          "midi": 33,
          "time": 413.625,
          "velocity": 1,
          "duration": 0.375
        },
        {
          "name": "A1",
          "midi": 33,
          "time": 414,
          "velocity": 1,
          "duration": 0.375
        },
        {
          "name": "G1",
          "midi": 31,
          "time": 414.375,
          "velocity": 1,
          "duration": 0.75
        },
        {
          "name": "G1",
          "midi": 31,
          "time": 415.125,
          "velocity": 1,
          "duration": 0.75
        },
        {
          "name": "G1",
          "midi": 31,
          "time": 415.875,
          "velocity": 1,
          "duration": 0.375
        },
        {
          "name": "G1",
          "midi": 31,
          "time": 416.25,
          "velocity": 1,
          "duration": 0.75
        },
        {
          "name": "G1",
          "midi": 31,
          "time": 417,
          "velocity": 1,
          "duration": 0.75
        },
        {
          "name": "G1",
          "midi": 31,
          "time": 417.75,
          "velocity": 1,
          "duration": 0.1875
        },
        {
          "name": "G1",
          "midi": 31,
          "time": 417.9375,
          "velocity": 1,
          "duration": 0.1875
        },
        {
          "name": "G1",
          "midi": 31,
          "time": 418.125,
          "velocity": 1,
          "duration": 0.75
        },
        {
          "name": "G1",
          "midi": 31,
          "time": 418.875,
          "velocity": 1,
          "duration": 0.375
        },
        {
          "name": "G1",
          "midi": 31,
          "time": 419.25,
          "velocity": 1,
          "duration": 0.75
        },
        {
          "name": "G1",
          "midi": 31,
          "time": 420,
          "velocity": 1,
          "duration": 0.375
        },
        {
          "name": "A1",
          "midi": 33,
          "time": 420.375,
          "velocity": 1,
          "duration": 0.375
        },
        {
          "name": "A1",
          "midi": 33,
          "time": 420.75,
          "velocity": 1,
          "duration": 0.375
        },
        {
          "name": "A1",
          "midi": 33,
          "time": 421.125,
          "velocity": 1,
          "duration": 0.75
        },
        {
          "name": "A1",
          "midi": 33,
          "time": 421.875,
          "velocity": 1,
          "duration": 0.375
        },
        {
          "name": "A1",
          "midi": 33,
          "time": 422.25,
          "velocity": 1,
          "duration": 0.75
        },
        {
          "name": "A1",
          "midi": 33,
          "time": 423,
          "velocity": 1,
          "duration": 0.75
        },
        {
          "name": "A1",
          "midi": 33,
          "time": 423.75,
          "velocity": 1,
          "duration": 0.1875
        },
        {
          "name": "A1",
          "midi": 33,
          "time": 423.9375,
          "velocity": 1,
          "duration": 0.1875
        },
        {
          "name": "A1",
          "midi": 33,
          "time": 424.125,
          "velocity": 1,
          "duration": 0.75
        },
        {
          "name": "A1",
          "midi": 33,
          "time": 424.875,
          "velocity": 1,
          "duration": 0.375
        },
        {
          "name": "A1",
          "midi": 33,
          "time": 425.25,
          "velocity": 1,
          "duration": 0.375
        },
        {
          "name": "A1",
          "midi": 33,
          "time": 425.625,
          "velocity": 1,
          "duration": 0.375
        },
        {
          "name": "A1",
          "midi": 33,
          "time": 426,
          "velocity": 1,
          "duration": 0.375
        },
        {
          "name": "G1",
          "midi": 31,
          "time": 426.375,
          "velocity": 1,
          "duration": 0.75
        },
        {
          "name": "G1",
          "midi": 31,
          "time": 427.125,
          "velocity": 1,
          "duration": 0.75
        },
        {
          "name": "G1",
          "midi": 31,
          "time": 427.875,
          "velocity": 1,
          "duration": 0.375
        },
        {
          "name": "G1",
          "midi": 31,
          "time": 428.25,
          "velocity": 1,
          "duration": 0.75
        },
        {
          "name": "G1",
          "midi": 31,
          "time": 429,
          "velocity": 1,
          "duration": 0.75
        },
        {
          "name": "G1",
          "midi": 31,
          "time": 429.75,
          "velocity": 1,
          "duration": 0.1875
        },
        {
          "name": "G1",
          "midi": 31,
          "time": 429.9375,
          "velocity": 1,
          "duration": 0.1875
        },
        {
          "name": "G1",
          "midi": 31,
          "time": 430.125,
          "velocity": 1,
          "duration": 0.75
        },
        {
          "name": "G1",
          "midi": 31,
          "time": 430.875,
          "velocity": 1,
          "duration": 0.375
        },
        {
          "name": "G1",
          "midi": 31,
          "time": 431.25,
          "velocity": 1,
          "duration": 0.75
        },
        {
          "name": "G1",
          "midi": 31,
          "time": 432,
          "velocity": 1,
          "duration": 0.375
        },
        {
          "name": "A1",
          "midi": 33,
          "time": 432.375,
          "velocity": 1,
          "duration": 0.375
        },
        {
          "name": "A1",
          "midi": 33,
          "time": 432.75,
          "velocity": 1,
          "duration": 0.375
        },
        {
          "name": "A1",
          "midi": 33,
          "time": 433.125,
          "velocity": 1,
          "duration": 0.75
        },
        {
          "name": "A1",
          "midi": 33,
          "time": 433.875,
          "velocity": 1,
          "duration": 0.375
        },
        {
          "name": "A1",
          "midi": 33,
          "time": 434.25,
          "velocity": 1,
          "duration": 0.75
        },
        {
          "name": "A1",
          "midi": 33,
          "time": 435,
          "velocity": 1,
          "duration": 0.75
        },
        {
          "name": "A1",
          "midi": 33,
          "time": 435.75,
          "velocity": 1,
          "duration": 0.1875
        },
        {
          "name": "A1",
          "midi": 33,
          "time": 435.9375,
          "velocity": 1,
          "duration": 0.1875
        },
        {
          "name": "A1",
          "midi": 33,
          "time": 436.125,
          "velocity": 1,
          "duration": 0.75
        },
        {
          "name": "A1",
          "midi": 33,
          "time": 436.875,
          "velocity": 1,
          "duration": 0.375
        },
        {
          "name": "A1",
          "midi": 33,
          "time": 437.25,
          "velocity": 1,
          "duration": 0.375
        },
        {
          "name": "A1",
          "midi": 33,
          "time": 437.625,
          "velocity": 1,
          "duration": 0.375
        },
        {
          "name": "A1",
          "midi": 33,
          "time": 438,
          "velocity": 1,
          "duration": 0.375
        },
        {
          "name": "G1",
          "midi": 31,
          "time": 438.375,
          "velocity": 1,
          "duration": 0.75
        },
        {
          "name": "G1",
          "midi": 31,
          "time": 439.125,
          "velocity": 1,
          "duration": 0.75
        },
        {
          "name": "G1",
          "midi": 31,
          "time": 439.875,
          "velocity": 1,
          "duration": 0.375
        },
        {
          "name": "G1",
          "midi": 31,
          "time": 440.25,
          "velocity": 1,
          "duration": 0.75
        },
        {
          "name": "G1",
          "midi": 31,
          "time": 441,
          "velocity": 1,
          "duration": 0.75
        },
        {
          "name": "G1",
          "midi": 31,
          "time": 441.75,
          "velocity": 1,
          "duration": 0.1875
        },
        {
          "name": "G1",
          "midi": 31,
          "time": 441.9375,
          "velocity": 1,
          "duration": 0.1875
        },
        {
          "name": "G1",
          "midi": 31,
          "time": 442.125,
          "velocity": 1,
          "duration": 0.75
        },
        {
          "name": "G1",
          "midi": 31,
          "time": 442.875,
          "velocity": 1,
          "duration": 0.375
        },
        {
          "name": "G1",
          "midi": 31,
          "time": 443.25,
          "velocity": 1,
          "duration": 0.75
        },
        {
          "name": "G1",
          "midi": 31,
          "time": 444,
          "velocity": 1,
          "duration": 0.375
        },
        {
          "name": "A1",
          "midi": 33,
          "time": 444.375,
          "velocity": 1,
          "duration": 0.375
        },
        {
          "name": "A1",
          "midi": 33,
          "time": 444.75,
          "velocity": 1,
          "duration": 0.375
        },
        {
          "name": "A1",
          "midi": 33,
          "time": 445.125,
          "velocity": 1,
          "duration": 0.75
        },
        {
          "name": "A1",
          "midi": 33,
          "time": 445.875,
          "velocity": 1,
          "duration": 0.375
        },
        {
          "name": "A1",
          "midi": 33,
          "time": 446.25,
          "velocity": 1,
          "duration": 0.75
        },
        {
          "name": "A1",
          "midi": 33,
          "time": 447,
          "velocity": 1,
          "duration": 0.75
        },
        {
          "name": "A1",
          "midi": 33,
          "time": 447.75,
          "velocity": 1,
          "duration": 0.1875
        },
        {
          "name": "A1",
          "midi": 33,
          "time": 447.9375,
          "velocity": 1,
          "duration": 0.1875
        },
        {
          "name": "A1",
          "midi": 33,
          "time": 448.125,
          "velocity": 1,
          "duration": 0.75
        },
        {
          "name": "A1",
          "midi": 33,
          "time": 448.875,
          "velocity": 1,
          "duration": 0.375
        },
        {
          "name": "A1",
          "midi": 33,
          "time": 449.25,
          "velocity": 1,
          "duration": 0.375
        },
        {
          "name": "A1",
          "midi": 33,
          "time": 449.625,
          "velocity": 1,
          "duration": 0.375
        },
        {
          "name": "A1",
          "midi": 33,
          "time": 450,
          "velocity": 1,
          "duration": 0.375
        },
        {
          "name": "G1",
          "midi": 31,
          "time": 450.375,
          "velocity": 1,
          "duration": 0.75
        },
        {
          "name": "G1",
          "midi": 31,
          "time": 451.125,
          "velocity": 1,
          "duration": 0.75
        },
        {
          "name": "G1",
          "midi": 31,
          "time": 451.875,
          "velocity": 1,
          "duration": 0.375
        },
        {
          "name": "G1",
          "midi": 31,
          "time": 452.25,
          "velocity": 1,
          "duration": 0.75
        },
        {
          "name": "G1",
          "midi": 31,
          "time": 453,
          "velocity": 1,
          "duration": 0.75
        },
        {
          "name": "G1",
          "midi": 31,
          "time": 453.75,
          "velocity": 1,
          "duration": 0.1875
        },
        {
          "name": "G1",
          "midi": 31,
          "time": 453.9375,
          "velocity": 1,
          "duration": 0.1875
        },
        {
          "name": "G1",
          "midi": 31,
          "time": 454.125,
          "velocity": 1,
          "duration": 0.75
        },
        {
          "name": "G1",
          "midi": 31,
          "time": 454.875,
          "velocity": 1,
          "duration": 0.375
        },
        {
          "name": "G1",
          "midi": 31,
          "time": 455.25,
          "velocity": 1,
          "duration": 0.75
        },
        {
          "name": "G1",
          "midi": 31,
          "time": 456,
          "velocity": 1,
          "duration": 0.375
        },
        {
          "name": "A1",
          "midi": 33,
          "time": 456.375,
          "velocity": 1,
          "duration": 0.375
        },
        {
          "name": "A1",
          "midi": 33,
          "time": 456.75,
          "velocity": 1,
          "duration": 0.375
        },
        {
          "name": "A1",
          "midi": 33,
          "time": 457.125,
          "velocity": 1,
          "duration": 0.75
        },
        {
          "name": "A1",
          "midi": 33,
          "time": 457.875,
          "velocity": 1,
          "duration": 0.375
        },
        {
          "name": "A1",
          "midi": 33,
          "time": 458.25,
          "velocity": 1,
          "duration": 0.75
        },
        {
          "name": "A1",
          "midi": 33,
          "time": 459,
          "velocity": 1,
          "duration": 0.75
        },
        {
          "name": "A1",
          "midi": 33,
          "time": 459.75,
          "velocity": 1,
          "duration": 0.1875
        },
        {
          "name": "A1",
          "midi": 33,
          "time": 459.9375,
          "velocity": 1,
          "duration": 0.1875
        },
        {
          "name": "A1",
          "midi": 33,
          "time": 460.125,
          "velocity": 1,
          "duration": 0.75
        },
        {
          "name": "A1",
          "midi": 33,
          "time": 460.875,
          "velocity": 1,
          "duration": 0.375
        },
        {
          "name": "A1",
          "midi": 33,
          "time": 461.25,
          "velocity": 1,
          "duration": 0.375
        },
        {
          "name": "A1",
          "midi": 33,
          "time": 461.625,
          "velocity": 1,
          "duration": 0.375
        },
        {
          "name": "A1",
          "midi": 33,
          "time": 462,
          "velocity": 1,
          "duration": 0.375
        },
        {
          "name": "G1",
          "midi": 31,
          "time": 462.375,
          "velocity": 1,
          "duration": 0.75
        },
        {
          "name": "G1",
          "midi": 31,
          "time": 463.125,
          "velocity": 1,
          "duration": 0.75
        },
        {
          "name": "G1",
          "midi": 31,
          "time": 463.875,
          "velocity": 1,
          "duration": 0.375
        },
        {
          "name": "G1",
          "midi": 31,
          "time": 464.25,
          "velocity": 1,
          "duration": 0.75
        },
        {
          "name": "G1",
          "midi": 31,
          "time": 465,
          "velocity": 1,
          "duration": 0.75
        },
        {
          "name": "G1",
          "midi": 31,
          "time": 465.75,
          "velocity": 1,
          "duration": 0.1875
        },
        {
          "name": "G1",
          "midi": 31,
          "time": 465.9375,
          "velocity": 1,
          "duration": 0.1875
        },
        {
          "name": "G1",
          "midi": 31,
          "time": 466.125,
          "velocity": 1,
          "duration": 0.75
        },
        {
          "name": "G1",
          "midi": 31,
          "time": 466.875,
          "velocity": 1,
          "duration": 0.375
        },
        {
          "name": "G1",
          "midi": 31,
          "time": 467.25,
          "velocity": 1,
          "duration": 0.75
        },
        {
          "name": "G1",
          "midi": 31,
          "time": 468,
          "velocity": 1,
          "duration": 0.375
        },
        {
          "name": "A1",
          "midi": 33,
          "time": 468.375,
          "velocity": 1,
          "duration": 0.375
        },
        {
          "name": "A1",
          "midi": 33,
          "time": 468.75,
          "velocity": 1,
          "duration": 0.375
        },
        {
          "name": "A1",
          "midi": 33,
          "time": 469.125,
          "velocity": 1,
          "duration": 0.75
        },
        {
          "name": "A1",
          "midi": 33,
          "time": 469.875,
          "velocity": 1,
          "duration": 0.375
        },
        {
          "name": "A1",
          "midi": 33,
          "time": 470.25,
          "velocity": 1,
          "duration": 0.75
        },
        {
          "name": "A1",
          "midi": 33,
          "time": 471,
          "velocity": 1,
          "duration": 0.75
        },
        {
          "name": "A1",
          "midi": 33,
          "time": 471.75,
          "velocity": 1,
          "duration": 0.1875
        },
        {
          "name": "A1",
          "midi": 33,
          "time": 471.9375,
          "velocity": 1,
          "duration": 0.1875
        },
        {
          "name": "A1",
          "midi": 33,
          "time": 472.125,
          "velocity": 1,
          "duration": 0.75
        },
        {
          "name": "A1",
          "midi": 33,
          "time": 472.875,
          "velocity": 1,
          "duration": 0.375
        },
        {
          "name": "A1",
          "midi": 33,
          "time": 473.25,
          "velocity": 1,
          "duration": 0.375
        },
        {
          "name": "A1",
          "midi": 33,
          "time": 473.625,
          "velocity": 1,
          "duration": 0.375
        },
        {
          "name": "A1",
          "midi": 33,
          "time": 474,
          "velocity": 1,
          "duration": 0.375
        },
        {
          "name": "G1",
          "midi": 31,
          "time": 474.375,
          "velocity": 1,
          "duration": 0.75
        },
        {
          "name": "G1",
          "midi": 31,
          "time": 475.125,
          "velocity": 1,
          "duration": 0.75
        },
        {
          "name": "G1",
          "midi": 31,
          "time": 475.875,
          "velocity": 1,
          "duration": 0.375
        },
        {
          "name": "G1",
          "midi": 31,
          "time": 476.25,
          "velocity": 1,
          "duration": 0.75
        },
        {
          "name": "G1",
          "midi": 31,
          "time": 477,
          "velocity": 1,
          "duration": 0.75
        },
        {
          "name": "G1",
          "midi": 31,
          "time": 477.75,
          "velocity": 1,
          "duration": 0.1875
        },
        {
          "name": "G1",
          "midi": 31,
          "time": 477.9375,
          "velocity": 1,
          "duration": 0.1875
        },
        {
          "name": "G1",
          "midi": 31,
          "time": 478.125,
          "velocity": 1,
          "duration": 0.75
        },
        {
          "name": "G1",
          "midi": 31,
          "time": 478.875,
          "velocity": 1,
          "duration": 0.375
        },
        {
          "name": "G1",
          "midi": 31,
          "time": 479.25,
          "velocity": 1,
          "duration": 0.75
        },
        {
          "name": "G1",
          "midi": 31,
          "time": 480,
          "velocity": 1,
          "duration": 0.375
        },
        {
          "name": "A1",
          "midi": 33,
          "time": 480.375,
          "velocity": 1,
          "duration": 0.375
        },
        {
          "name": "A1",
          "midi": 33,
          "time": 480.75,
          "velocity": 1,
          "duration": 0.375
        },
        {
          "name": "A1",
          "midi": 33,
          "time": 481.125,
          "velocity": 1,
          "duration": 0.75
        },
        {
          "name": "A1",
          "midi": 33,
          "time": 481.875,
          "velocity": 1,
          "duration": 0.375
        },
        {
          "name": "A1",
          "midi": 33,
          "time": 482.25,
          "velocity": 1,
          "duration": 0.75
        },
        {
          "name": "A1",
          "midi": 33,
          "time": 483,
          "velocity": 1,
          "duration": 0.75
        },
        {
          "name": "A1",
          "midi": 33,
          "time": 483.75,
          "velocity": 1,
          "duration": 0.1875
        },
        {
          "name": "A1",
          "midi": 33,
          "time": 483.9375,
          "velocity": 1,
          "duration": 0.1875
        },
        {
          "name": "A1",
          "midi": 33,
          "time": 484.125,
          "velocity": 1,
          "duration": 0.75
        },
        {
          "name": "A1",
          "midi": 33,
          "time": 484.875,
          "velocity": 1,
          "duration": 0.375
        },
        {
          "name": "A1",
          "midi": 33,
          "time": 485.25,
          "velocity": 1,
          "duration": 0.375
        },
        {
          "name": "A1",
          "midi": 33,
          "time": 485.625,
          "velocity": 1,
          "duration": 0.375
        },
        {
          "name": "A1",
          "midi": 33,
          "time": 486,
          "velocity": 1,
          "duration": 0.375
        }
      ],
      "controlChanges": {},
      "id": 2,
      "name": "Electric Bass       ",
      "instrumentNumber": 33,
      "instrument": "electric bass (finger)",
      "instrumentFamily": "bass",
      "channelNumber": 1,
      "isPercussion": false
    },
    {
      "startTime": 204.375,
      "duration": 486.375,
      "length": 265,
      "notes": [
        {
          "name": "G3",
          "midi": 55,
          "time": 204.375,
          "velocity": 1,
          "duration": 3
        },
        {
          "name": "A3",
          "midi": 57,
          "time": 207.375,
          "velocity": 1,
          "duration": 0.1875
        },
        {
          "name": "A#3",
          "midi": 58,
          "time": 207.5625,
          "velocity": 1,
          "duration": 0.1875
        },
        {
          "name": "A3",
          "midi": 57,
          "time": 207.75,
          "velocity": 1,
          "duration": 0.375
        },
        {
          "name": "G3",
          "midi": 55,
          "time": 208.125,
          "velocity": 1,
          "duration": 0.375
        },
        {
          "name": "A3",
          "midi": 57,
          "time": 208.5,
          "velocity": 1,
          "duration": 0.375
        },
        {
          "name": "A#3",
          "midi": 58,
          "time": 208.875,
          "velocity": 1,
          "duration": 0.375
        },
        {
          "name": "D4",
          "midi": 62,
          "time": 209.25,
          "velocity": 1,
          "duration": 0.375
        },
        {
          "name": "E4",
          "midi": 64,
          "time": 209.625,
          "velocity": 1,
          "duration": 0.1875
        },
        {
          "name": "D4",
          "midi": 62,
          "time": 209.8125,
          "velocity": 1,
          "duration": 0.1875
        },
        {
          "name": "C#4",
          "midi": 61,
          "time": 210,
          "velocity": 1,
          "duration": 0.1875
        },
        {
          "name": "D4",
          "midi": 62,
          "time": 210.1875,
          "velocity": 1,
          "duration": 0.1875
        },
        {
          "name": "E4",
          "midi": 64,
          "time": 210.375,
          "velocity": 1,
          "duration": 2.25
        },
        {
          "name": "D4",
          "midi": 62,
          "time": 212.625,
          "velocity": 1,
          "duration": 0.1875
        },
        {
          "name": "C#4",
          "midi": 61,
          "time": 212.8125,
          "velocity": 1,
          "duration": 0.1875
        },
        {
          "name": "D4",
          "midi": 62,
          "time": 213,
          "velocity": 1,
          "duration": 0.1875
        },
        {
          "name": "C#4",
          "midi": 61,
          "time": 213.1875,
          "velocity": 1,
          "duration": 1.6875
        },
        {
          "name": "A#3",
          "midi": 58,
          "time": 214.875,
          "velocity": 1,
          "duration": 0.1875
        },
        {
          "name": "A3",
          "midi": 57,
          "time": 215.0625,
          "velocity": 1,
          "duration": 0.1875
        },
        {
          "name": "A3",
          "midi": 57,
          "time": 215.25,
          "velocity": 1,
          "duration": 0.1875
        },
        {
          "name": "A3",
          "midi": 57,
          "time": 215.625,
          "velocity": 1,
          "duration": 0.375
        },
        {
          "name": "A3",
          "midi": 57,
          "time": 216,
          "velocity": 1,
          "duration": 0.1875
        },
        {
          "name": "A3",
          "midi": 57,
          "time": 216.1875,
          "velocity": 1,
          "duration": 0.1875
        },
        {
          "name": "G3",
          "midi": 55,
          "time": 216.375,
          "velocity": 1,
          "duration": 2.25
        },
        {
          "name": "A3",
          "midi": 57,
          "time": 219.375,
          "velocity": 1,
          "duration": 0.1875
        },
        {
          "name": "A#3",
          "midi": 58,
          "time": 219.5625,
          "velocity": 1,
          "duration": 0.375
        },
        {
          "name": "C#4",
          "midi": 61,
          "time": 219.9375,
          "velocity": 1,
          "duration": 0.1875
        },
        {
          "name": "D4",
          "midi": 62,
          "time": 220.125,
          "velocity": 1,
          "duration": 0.375
        },
        {
          "name": "E4",
          "midi": 64,
          "time": 220.5,
          "velocity": 1,
          "duration": 0.375
        },
        {
          "name": "C#4",
          "midi": 61,
          "time": 220.875,
          "velocity": 1,
          "duration": 0.1875
        },
        {
          "name": "D4",
          "midi": 62,
          "time": 221.0625,
          "velocity": 1,
          "duration": 0.1875
        },
        {
          "name": "E4",
          "midi": 64,
          "time": 221.25,
          "velocity": 1,
          "duration": 0.1875
        },
        {
          "name": "F4",
          "midi": 65,
          "time": 221.4375,
          "velocity": 1,
          "duration": 0.1875
        },
        {
          "name": "D4",
          "midi": 62,
          "time": 221.625,
          "velocity": 1,
          "duration": 0.1875
        },
        {
          "name": "C#4",
          "midi": 61,
          "time": 221.8125,
          "velocity": 1,
          "duration": 0.1875
        },
        {
          "name": "E4",
          "midi": 64,
          "time": 222,
          "velocity": 1,
          "duration": 1.125
        },
        {
          "name": "D4",
          "midi": 62,
          "time": 223.125,
          "velocity": 1,
          "duration": 0.1875
        },
        {
          "name": "C#4",
          "midi": 61,
          "time": 223.3125,
          "velocity": 1,
          "duration": 0.1875
        },
        {
          "name": "A3",
          "midi": 57,
          "time": 223.5,
          "velocity": 1,
          "duration": 0.1875
        },
        {
          "name": "E4",
          "midi": 64,
          "time": 223.6875,
          "velocity": 1,
          "duration": 1.125
        },
        {
          "name": "F4",
          "midi": 65,
          "time": 224.8125,
          "velocity": 1,
          "duration": 0.1875
        },
        {
          "name": "D4",
          "midi": 62,
          "time": 225,
          "velocity": 1,
          "duration": 0.1875
        },
        {
          "name": "A#3",
          "midi": 58,
          "time": 225.1875,
          "velocity": 1,
          "duration": 0.1875
        },
        {
          "name": "A3",
          "midi": 57,
          "time": 225.375,
          "velocity": 1,
          "duration": 0.75
        },
        {
          "name": "A#3",
          "midi": 58,
          "time": 226.125,
          "velocity": 1,
          "duration": 0.1875
        },
        {
          "name": "G3",
          "midi": 55,
          "time": 226.3125,
          "velocity": 1,
          "duration": 0.1875
        },
        {
          "name": "A3",
          "midi": 57,
          "time": 226.5,
          "velocity": 1,
          "duration": 0.75
        },
        {
          "name": "G3",
          "midi": 55,
          "time": 227.25,
          "velocity": 1,
          "duration": 0.1875
        },
        {
          "name": "F3",
          "midi": 53,
          "time": 227.4375,
          "velocity": 1,
          "duration": 0.75
        },
        {
          "name": "F3",
          "midi": 53,
          "time": 228.1875,
          "velocity": 1,
          "duration": 0.1875
        },
        {
          "name": "G3",
          "midi": 55,
          "time": 228.375,
          "velocity": 1,
          "duration": 2.25
        },
        {
          "name": "A3",
          "midi": 57,
          "time": 231,
          "velocity": 1,
          "duration": 0.1875
        },
        {
          "name": "A#3",
          "midi": 58,
          "time": 231.1875,
          "velocity": 1,
          "duration": 0.1875
        },
        {
          "name": "A3",
          "midi": 57,
          "time": 231.375,
          "velocity": 1,
          "duration": 0.375
        },
        {
          "name": "G3",
          "midi": 55,
          "time": 231.75,
          "velocity": 1,
          "duration": 0.375
        },
        {
          "name": "A3",
          "midi": 57,
          "time": 232.125,
          "velocity": 1,
          "duration": 0.375
        },
        {
          "name": "A#3",
          "midi": 58,
          "time": 232.5,
          "velocity": 1,
          "duration": 0.375
        },
        {
          "name": "G3",
          "midi": 55,
          "time": 232.875,
          "velocity": 1,
          "duration": 0.375
        },
        {
          "name": "A3",
          "midi": 57,
          "time": 233.25,
          "velocity": 1,
          "duration": 0.375
        },
        {
          "name": "A#3",
          "midi": 58,
          "time": 233.625,
          "velocity": 1,
          "duration": 0.1875
        },
        {
          "name": "C#4",
          "midi": 61,
          "time": 233.8125,
          "velocity": 1,
          "duration": 0.1875
        },
        {
          "name": "D4",
          "midi": 62,
          "time": 234,
          "velocity": 1,
          "duration": 0.1875
        },
        {
          "name": "E4",
          "midi": 64,
          "time": 234.1875,
          "velocity": 1,
          "duration": 0.1875
        },
        {
          "name": "C#4",
          "midi": 61,
          "time": 234.375,
          "velocity": 1,
          "duration": 0.1875
        },
        {
          "name": "D4",
          "midi": 62,
          "time": 234.5625,
          "velocity": 1,
          "duration": 0.1875
        },
        {
          "name": "E4",
          "midi": 64,
          "time": 234.75,
          "velocity": 1,
          "duration": 0.1875
        },
        {
          "name": "F4",
          "midi": 65,
          "time": 234.9375,
          "velocity": 1,
          "duration": 0.1875
        },
        {
          "name": "E4",
          "midi": 64,
          "time": 235.125,
          "velocity": 1,
          "duration": 0.1875
        },
        {
          "name": "D4",
          "midi": 62,
          "time": 235.3125,
          "velocity": 1,
          "duration": 0.1875
        },
        {
          "name": "E4",
          "midi": 64,
          "time": 235.5,
          "velocity": 1,
          "duration": 0.1875
        },
        {
          "name": "D4",
          "midi": 62,
          "time": 235.6875,
          "velocity": 1,
          "duration": 0.1875
        },
        {
          "name": "C#4",
          "midi": 61,
          "time": 235.875,
          "velocity": 1,
          "duration": 0.75
        },
        {
          "name": "D4",
          "midi": 62,
          "time": 236.625,
          "velocity": 1,
          "duration": 0.1875
        },
        {
          "name": "C#4",
          "midi": 61,
          "time": 236.8125,
          "velocity": 1,
          "duration": 0.1875
        },
        {
          "name": "A#3",
          "midi": 58,
          "time": 237,
          "velocity": 1,
          "duration": 0.1875
        },
        {
          "name": "A3",
          "midi": 57,
          "time": 237.1875,
          "velocity": 1,
          "duration": 0.5625
        },
        {
          "name": "A#3",
          "midi": 58,
          "time": 237.75,
          "velocity": 1,
          "duration": 0.1875
        },
        {
          "name": "G3",
          "midi": 55,
          "time": 237.9375,
          "velocity": 1,
          "duration": 0.5625
        },
        {
          "name": "A3",
          "midi": 57,
          "time": 238.5,
          "velocity": 1,
          "duration": 0.1875
        },
        {
          "name": "F#3",
          "midi": 54,
          "time": 238.6875,
          "velocity": 1,
          "duration": 0.5625
        },
        {
          "name": "G3",
          "midi": 55,
          "time": 239.25,
          "velocity": 1,
          "duration": 0.1875
        },
        {
          "name": "E3",
          "midi": 52,
          "time": 239.4375,
          "velocity": 1,
          "duration": 0.5625
        },
        {
          "name": "D3",
          "midi": 50,
          "time": 240,
          "velocity": 1,
          "duration": 0.1875
        },
        {
          "name": "F#3",
          "midi": 54,
          "time": 240.1875,
          "velocity": 1,
          "duration": 0.1875
        },
        {
          "name": "G3",
          "midi": 55,
          "time": 240.375,
          "velocity": 1,
          "duration": 2.25
        },
        {
          "name": "A3",
          "midi": 57,
          "time": 243.375,
          "velocity": 1,
          "duration": 0.1875
        },
        {
          "name": "A#3",
          "midi": 58,
          "time": 243.5625,
          "velocity": 1,
          "duration": 0.1875
        },
        {
          "name": "A3",
          "midi": 57,
          "time": 243.75,
          "velocity": 1,
          "duration": 0.1875
        },
        {
          "name": "G3",
          "midi": 55,
          "time": 243.9375,
          "velocity": 1,
          "duration": 0.9375
        },
        {
          "name": "F4",
          "midi": 65,
          "time": 244.875,
          "velocity": 1,
          "duration": 0.1875
        },
        {
          "name": "E4",
          "midi": 64,
          "time": 245.0625,
          "velocity": 1,
          "duration": 0.1875
        },
        {
          "name": "D4",
          "midi": 62,
          "time": 245.25,
          "velocity": 1,
          "duration": 0.1875
        },
        {
          "name": "C#4",
          "midi": 61,
          "time": 245.625,
          "velocity": 1,
          "duration": 0.1875
        },
        {
          "name": "D4",
          "midi": 62,
          "time": 245.8125,
          "velocity": 1,
          "duration": 0.1875
        },
        {
          "name": "E4",
          "midi": 64,
          "time": 246,
          "velocity": 1,
          "duration": 0.5625
        },
        {
          "name": "D4",
          "midi": 62,
          "time": 246.5625,
          "velocity": 1,
          "duration": 0.1875
        },
        {
          "name": "C#4",
          "midi": 61,
          "time": 246.75,
          "velocity": 1,
          "duration": 0.1875
        },
        {
          "name": "D4",
          "midi": 62,
          "time": 246.9375,
          "velocity": 1,
          "duration": 0.1875
        },
        {
          "name": "C#4",
          "midi": 61,
          "time": 247.125,
          "velocity": 1,
          "duration": 0.75
        },
        {
          "name": "A#3",
          "midi": 58,
          "time": 247.875,
          "velocity": 1,
          "duration": 0.1875
        },
        {
          "name": "C#4",
          "midi": 61,
          "time": 248.0625,
          "velocity": 1,
          "duration": 0.1875
        },
        {
          "name": "A#3",
          "midi": 58,
          "time": 248.25,
          "velocity": 1,
          "duration": 0.1875
        },
        {
          "name": "A3",
          "midi": 57,
          "time": 248.4375,
          "velocity": 1,
          "duration": 1.6875
        },
        {
          "name": "E4",
          "midi": 64,
          "time": 250.125,
          "velocity": 1,
          "duration": 0.1875
        },
        {
          "name": "F4",
          "midi": 65,
          "time": 250.3125,
          "velocity": 1,
          "duration": 0.1875
        },
        {
          "name": "D4",
          "midi": 62,
          "time": 250.5,
          "velocity": 1,
          "duration": 0.1875
        },
        {
          "name": "E4",
          "midi": 64,
          "time": 250.6875,
          "velocity": 1,
          "duration": 0.1875
        },
        {
          "name": "C#4",
          "midi": 61,
          "time": 250.875,
          "velocity": 1,
          "duration": 0.1875
        },
        {
          "name": "D4",
          "midi": 62,
          "time": 251.0625,
          "velocity": 1,
          "duration": 0.1875
        },
        {
          "name": "A#3",
          "midi": 58,
          "time": 251.25,
          "velocity": 1,
          "duration": 0.1875
        },
        {
          "name": "C#4",
          "midi": 61,
          "time": 251.4375,
          "velocity": 1,
          "duration": 0.1875
        },
        {
          "name": "A3",
          "midi": 57,
          "time": 251.625,
          "velocity": 1,
          "duration": 0.5625
        },
        {
          "name": "A3",
          "midi": 57,
          "time": 252.1875,
          "velocity": 1,
          "duration": 0.1875
        },
        {
          "name": "G3",
          "midi": 55,
          "time": 252.375,
          "velocity": 1,
          "duration": 1.125
        },
        {
          "name": "F4",
          "midi": 65,
          "time": 253.5,
          "velocity": 1,
          "duration": 0.1875
        },
        {
          "name": "E4",
          "midi": 64,
          "time": 253.6875,
          "velocity": 1,
          "duration": 0.1875
        },
        {
          "name": "F4",
          "midi": 65,
          "time": 253.875,
          "velocity": 1,
          "duration": 0.1875
        },
        {
          "name": "E4",
          "midi": 64,
          "time": 254.0625,
          "velocity": 1,
          "duration": 0.1875
        },
        {
          "name": "D4",
          "midi": 62,
          "time": 254.25,
          "velocity": 1,
          "duration": 0.75
        },
        {
          "name": "C#4",
          "midi": 61,
          "time": 255,
          "velocity": 1,
          "duration": 0.1875
        },
        {
          "name": "D4",
          "midi": 62,
          "time": 255.1875,
          "velocity": 1,
          "duration": 0.5625
        },
        {
          "name": "E4",
          "midi": 64,
          "time": 255.75,
          "velocity": 1,
          "duration": 0.1875
        },
        {
          "name": "F4",
          "midi": 65,
          "time": 255.9375,
          "velocity": 1,
          "duration": 0.5625
        },
        {
          "name": "E4",
          "midi": 64,
          "time": 256.5,
          "velocity": 1,
          "duration": 0.1875
        },
        {
          "name": "F4",
          "midi": 65,
          "time": 256.6875,
          "velocity": 1,
          "duration": 0.9375
        },
        {
          "name": "E4",
          "midi": 64,
          "time": 257.625,
          "velocity": 1,
          "duration": 0.1875
        },
        {
          "name": "D4",
          "midi": 62,
          "time": 257.8125,
          "velocity": 1,
          "duration": 0.1875
        },
        {
          "name": "E4",
          "midi": 64,
          "time": 258,
          "velocity": 1,
          "duration": 1.125
        },
        {
          "name": "C#4",
          "midi": 61,
          "time": 259.125,
          "velocity": 1,
          "duration": 0.75
        },
        {
          "name": "A3",
          "midi": 57,
          "time": 259.875,
          "velocity": 1,
          "duration": 0.5625
        },
        {
          "name": "A#3",
          "midi": 58,
          "time": 260.4375,
          "velocity": 1,
          "duration": 0.1875
        },
        {
          "name": "A3",
          "midi": 57,
          "time": 260.625,
          "velocity": 1,
          "duration": 3.75
        },
        {
          "name": "A2",
          "midi": 45,
          "time": 402.375,
          "velocity": 1,
          "duration": 5.25
        },
        {
          "name": "B2",
          "midi": 47,
          "time": 407.625,
          "velocity": 1,
          "duration": 0.375
        },
        {
          "name": "C3",
          "midi": 48,
          "time": 408,
          "velocity": 1,
          "duration": 0.375
        },
        {
          "name": "B2",
          "midi": 47,
          "time": 408.375,
          "velocity": 1,
          "duration": 1.125
        },
        {
          "name": "A#2",
          "midi": 46,
          "time": 409.5,
          "velocity": 1,
          "duration": 0.1875
        },
        {
          "name": "C#3",
          "midi": 49,
          "time": 409.6875,
          "velocity": 1,
          "duration": 0.1875
        },
        {
          "name": "D3",
          "midi": 50,
          "time": 409.875,
          "velocity": 1,
          "duration": 0.1875
        },
        {
          "name": "E3",
          "midi": 52,
          "time": 410.0625,
          "velocity": 1,
          "duration": 0.5625
        },
        {
          "name": "D3",
          "midi": 50,
          "time": 410.625,
          "velocity": 1,
          "duration": 0.1875
        },
        {
          "name": "C#3",
          "midi": 49,
          "time": 410.8125,
          "velocity": 1,
          "duration": 0.1875
        },
        {
          "name": "D3",
          "midi": 50,
          "time": 411,
          "velocity": 1,
          "duration": 0.1875
        },
        {
          "name": "E3",
          "midi": 52,
          "time": 411.1875,
          "velocity": 1,
          "duration": 0.1875
        },
        {
          "name": "F#3",
          "midi": 54,
          "time": 411.375,
          "velocity": 1,
          "duration": 0.1875
        },
        {
          "name": "G3",
          "midi": 55,
          "time": 411.5625,
          "velocity": 1,
          "duration": 0.1875
        },
        {
          "name": "A3",
          "midi": 57,
          "time": 411.75,
          "velocity": 1,
          "duration": 0.75
        },
        {
          "name": "A#3",
          "midi": 58,
          "time": 412.5,
          "velocity": 1,
          "duration": 0.1875
        },
        {
          "name": "G3",
          "midi": 55,
          "time": 412.6875,
          "velocity": 1,
          "duration": 0.1875
        },
        {
          "name": "A3",
          "midi": 57,
          "time": 412.875,
          "velocity": 1,
          "duration": 0.75
        },
        {
          "name": "C#4",
          "midi": 61,
          "time": 413.625,
          "velocity": 1,
          "duration": 0.1875
        },
        {
          "name": "D4",
          "midi": 62,
          "time": 413.8125,
          "velocity": 1,
          "duration": 0.1875
        },
        {
          "name": "E4",
          "midi": 64,
          "time": 414,
          "velocity": 1,
          "duration": 0.375
        },
        {
          "name": "D4",
          "midi": 62,
          "time": 414.375,
          "velocity": 1,
          "duration": 1.5
        },
        {
          "name": "C3",
          "midi": 48,
          "time": 416.625,
          "velocity": 1,
          "duration": 0.1875
        },
        {
          "name": "B2",
          "midi": 47,
          "time": 416.8125,
          "velocity": 1,
          "duration": 0.1875
        },
        {
          "name": "C3",
          "midi": 48,
          "time": 417,
          "velocity": 1,
          "duration": 0.1875
        },
        {
          "name": "B2",
          "midi": 47,
          "time": 417.1875,
          "velocity": 1,
          "duration": 0.1875
        },
        {
          "name": "A2",
          "midi": 45,
          "time": 417.375,
          "velocity": 1,
          "duration": 0.75
        },
        {
          "name": "A2",
          "midi": 45,
          "time": 418.125,
          "velocity": 1,
          "duration": 0.1875
        },
        {
          "name": "B2",
          "midi": 47,
          "time": 418.3125,
          "velocity": 1,
          "duration": 0.1875
        },
        {
          "name": "C3",
          "midi": 48,
          "time": 418.5,
          "velocity": 1,
          "duration": 0.375
        },
        {
          "name": "C#3",
          "midi": 49,
          "time": 418.875,
          "velocity": 1,
          "duration": 0.1875
        },
        {
          "name": "D3",
          "midi": 50,
          "time": 419.0625,
          "velocity": 1,
          "duration": 0.1875
        },
        {
          "name": "E3",
          "midi": 52,
          "time": 419.25,
          "velocity": 1,
          "duration": 0.5625
        },
        {
          "name": "D3",
          "midi": 50,
          "time": 419.8125,
          "velocity": 1,
          "duration": 0.1875
        },
        {
          "name": "C#3",
          "midi": 49,
          "time": 420,
          "velocity": 1,
          "duration": 0.1875
        },
        {
          "name": "D3",
          "midi": 50,
          "time": 420.1875,
          "velocity": 1,
          "duration": 0.1875
        },
        {
          "name": "E3",
          "midi": 52,
          "time": 420.375,
          "velocity": 1,
          "duration": 1.5
        },
        {
          "name": "F#3",
          "midi": 54,
          "time": 421.875,
          "velocity": 1,
          "duration": 0.1875
        },
        {
          "name": "G3",
          "midi": 55,
          "time": 422.0625,
          "velocity": 1,
          "duration": 0.1875
        },
        {
          "name": "E3",
          "midi": 52,
          "time": 422.25,
          "velocity": 1,
          "duration": 0.375
        },
        {
          "name": "F#3",
          "midi": 54,
          "time": 422.625,
          "velocity": 1,
          "duration": 0.1875
        },
        {
          "name": "G3",
          "midi": 55,
          "time": 422.8125,
          "velocity": 1,
          "duration": 0.1875
        },
        {
          "name": "A3",
          "midi": 57,
          "time": 423,
          "velocity": 1,
          "duration": 0.1875
        },
        {
          "name": "A#3",
          "midi": 58,
          "time": 423.1875,
          "velocity": 1,
          "duration": 0.1875
        },
        {
          "name": "G3",
          "midi": 55,
          "time": 423.375,
          "velocity": 1,
          "duration": 0.1875
        },
        {
          "name": "A3",
          "midi": 57,
          "time": 423.5625,
          "velocity": 1,
          "duration": 0.9375
        },
        {
          "name": "G3",
          "midi": 55,
          "time": 424.5,
          "velocity": 1,
          "duration": 0.1875
        },
        {
          "name": "F3",
          "midi": 53,
          "time": 424.6875,
          "velocity": 1,
          "duration": 0.1875
        },
        {
          "name": "E3",
          "midi": 52,
          "time": 424.875,
          "velocity": 1,
          "duration": 0.375
        },
        {
          "name": "F3",
          "midi": 53,
          "time": 425.25,
          "velocity": 1,
          "duration": 0.1875
        },
        {
          "name": "G3",
          "midi": 55,
          "time": 425.4375,
          "velocity": 1,
          "duration": 0.1875
        },
        {
          "name": "A3",
          "midi": 57,
          "time": 425.625,
          "velocity": 1,
          "duration": 0.375
        },
        {
          "name": "A3",
          "midi": 57,
          "time": 426,
          "velocity": 1,
          "duration": 0.375
        },
        {
          "name": "A2",
          "midi": 45,
          "time": 426.375,
          "velocity": 1,
          "duration": 1.125
        },
        {
          "name": "B2",
          "midi": 47,
          "time": 427.5,
          "velocity": 1,
          "duration": 0.75
        },
        {
          "name": "C3",
          "midi": 48,
          "time": 428.25,
          "velocity": 1,
          "duration": 0.375
        },
        {
          "name": "E3",
          "midi": 52,
          "time": 428.625,
          "velocity": 1,
          "duration": 0.75
        },
        {
          "name": "D3",
          "midi": 50,
          "time": 429.375,
          "velocity": 1,
          "duration": 0.75
        },
        {
          "name": "E3",
          "midi": 52,
          "time": 430.125,
          "velocity": 1,
          "duration": 0.75
        },
        {
          "name": "F3",
          "midi": 53,
          "time": 430.875,
          "velocity": 1,
          "duration": 0.375
        },
        {
          "name": "G3",
          "midi": 55,
          "time": 431.25,
          "velocity": 1,
          "duration": 0.375
        },
        {
          "name": "A3",
          "midi": 57,
          "time": 431.625,
          "velocity": 1,
          "duration": 0.375
        },
        {
          "name": "A#3",
          "midi": 58,
          "time": 432,
          "velocity": 1,
          "duration": 0.375
        },
        {
          "name": "C#4",
          "midi": 61,
          "time": 432.375,
          "velocity": 1,
          "duration": 2.25
        },
        {
          "name": "C#4",
          "midi": 61,
          "time": 434.625,
          "velocity": 1,
          "duration": 0.1875
        },
        {
          "name": "D4",
          "midi": 62,
          "time": 434.8125,
          "velocity": 1,
          "duration": 0.1875
        },
        {
          "name": "C#4",
          "midi": 61,
          "time": 435,
          "velocity": 1,
          "duration": 0.1875
        },
        {
          "name": "B3",
          "midi": 59,
          "time": 435.1875,
          "velocity": 1,
          "duration": 0.1875
        },
        {
          "name": "C#4",
          "midi": 61,
          "time": 435.375,
          "velocity": 1,
          "duration": 3
        },
        {
          "name": "A2",
          "midi": 45,
          "time": 438.375,
          "velocity": 1,
          "duration": 1.125
        },
        {
          "name": "B2",
          "midi": 47,
          "time": 439.5,
          "velocity": 1,
          "duration": 0.75
        },
        {
          "name": "C3",
          "midi": 48,
          "time": 440.25,
          "velocity": 1,
          "duration": 0.375
        },
        {
          "name": "E3",
          "midi": 52,
          "time": 440.625,
          "velocity": 1,
          "duration": 0.75
        },
        {
          "name": "D3",
          "midi": 50,
          "time": 441.375,
          "velocity": 1,
          "duration": 0.75
        },
        {
          "name": "E3",
          "midi": 52,
          "time": 442.125,
          "velocity": 1,
          "duration": 0.75
        },
        {
          "name": "F3",
          "midi": 53,
          "time": 442.875,
          "velocity": 1,
          "duration": 0.375
        },
        {
          "name": "G3",
          "midi": 55,
          "time": 443.25,
          "velocity": 1,
          "duration": 0.375
        },
        {
          "name": "A3",
          "midi": 57,
          "time": 443.625,
          "velocity": 1,
          "duration": 0.375
        },
        {
          "name": "A#3",
          "midi": 58,
          "time": 444,
          "velocity": 1,
          "duration": 0.375
        },
        {
          "name": "C#4",
          "midi": 61,
          "time": 444.375,
          "velocity": 1,
          "duration": 2.25
        },
        {
          "name": "C#4",
          "midi": 61,
          "time": 446.625,
          "velocity": 1,
          "duration": 0.1875
        },
        {
          "name": "D4",
          "midi": 62,
          "time": 446.8125,
          "velocity": 1,
          "duration": 0.1875
        },
        {
          "name": "C#4",
          "midi": 61,
          "time": 447,
          "velocity": 1,
          "duration": 0.1875
        },
        {
          "name": "B3",
          "midi": 59,
          "time": 447.1875,
          "velocity": 1,
          "duration": 0.1875
        },
        {
          "name": "C#4",
          "midi": 61,
          "time": 447.375,
          "velocity": 1,
          "duration": 3
        },
        {
          "name": "A2",
          "midi": 45,
          "time": 450.375,
          "velocity": 1,
          "duration": 1.125
        },
        {
          "name": "B2",
          "midi": 47,
          "time": 451.5,
          "velocity": 1,
          "duration": 0.75
        },
        {
          "name": "C3",
          "midi": 48,
          "time": 452.25,
          "velocity": 1,
          "duration": 0.375
        },
        {
          "name": "E3",
          "midi": 52,
          "time": 452.625,
          "velocity": 1,
          "duration": 0.75
        },
        {
          "name": "D3",
          "midi": 50,
          "time": 453.375,
          "velocity": 1,
          "duration": 0.75
        },
        {
          "name": "E3",
          "midi": 52,
          "time": 454.125,
          "velocity": 1,
          "duration": 0.75
        },
        {
          "name": "F3",
          "midi": 53,
          "time": 454.875,
          "velocity": 1,
          "duration": 0.375
        },
        {
          "name": "G3",
          "midi": 55,
          "time": 455.25,
          "velocity": 1,
          "duration": 0.375
        },
        {
          "name": "A3",
          "midi": 57,
          "time": 455.625,
          "velocity": 1,
          "duration": 0.375
        },
        {
          "name": "A#3",
          "midi": 58,
          "time": 456,
          "velocity": 1,
          "duration": 0.375
        },
        {
          "name": "C#4",
          "midi": 61,
          "time": 456.375,
          "velocity": 1,
          "duration": 2.25
        },
        {
          "name": "C#4",
          "midi": 61,
          "time": 458.625,
          "velocity": 1,
          "duration": 0.1875
        },
        {
          "name": "D4",
          "midi": 62,
          "time": 458.8125,
          "velocity": 1,
          "duration": 0.1875
        },
        {
          "name": "C#4",
          "midi": 61,
          "time": 459,
          "velocity": 1,
          "duration": 0.1875
        },
        {
          "name": "B3",
          "midi": 59,
          "time": 459.1875,
          "velocity": 1,
          "duration": 0.1875
        },
        {
          "name": "C#4",
          "midi": 61,
          "time": 459.375,
          "velocity": 1,
          "duration": 3
        },
        {
          "name": "A2",
          "midi": 45,
          "time": 462.375,
          "velocity": 1,
          "duration": 1.125
        },
        {
          "name": "B2",
          "midi": 47,
          "time": 463.5,
          "velocity": 1,
          "duration": 0.75
        },
        {
          "name": "C3",
          "midi": 48,
          "time": 464.25,
          "velocity": 1,
          "duration": 0.375
        },
        {
          "name": "E3",
          "midi": 52,
          "time": 464.625,
          "velocity": 1,
          "duration": 0.75
        },
        {
          "name": "D3",
          "midi": 50,
          "time": 465.375,
          "velocity": 1,
          "duration": 0.75
        },
        {
          "name": "E3",
          "midi": 52,
          "time": 466.125,
          "velocity": 1,
          "duration": 0.75
        },
        {
          "name": "F3",
          "midi": 53,
          "time": 466.875,
          "velocity": 1,
          "duration": 0.375
        },
        {
          "name": "G3",
          "midi": 55,
          "time": 467.25,
          "velocity": 1,
          "duration": 0.375
        },
        {
          "name": "A3",
          "midi": 57,
          "time": 467.625,
          "velocity": 1,
          "duration": 0.375
        },
        {
          "name": "A#3",
          "midi": 58,
          "time": 468,
          "velocity": 1,
          "duration": 0.375
        },
        {
          "name": "C#4",
          "midi": 61,
          "time": 468.375,
          "velocity": 1,
          "duration": 2.25
        },
        {
          "name": "C#4",
          "midi": 61,
          "time": 470.625,
          "velocity": 1,
          "duration": 0.1875
        },
        {
          "name": "D4",
          "midi": 62,
          "time": 470.8125,
          "velocity": 1,
          "duration": 0.1875
        },
        {
          "name": "C#4",
          "midi": 61,
          "time": 471,
          "velocity": 1,
          "duration": 0.1875
        },
        {
          "name": "B3",
          "midi": 59,
          "time": 471.1875,
          "velocity": 1,
          "duration": 0.1875
        },
        {
          "name": "C#4",
          "midi": 61,
          "time": 471.375,
          "velocity": 1,
          "duration": 3
        },
        {
          "name": "A2",
          "midi": 45,
          "time": 474.375,
          "velocity": 1,
          "duration": 1.125
        },
        {
          "name": "B2",
          "midi": 47,
          "time": 475.5,
          "velocity": 1,
          "duration": 0.75
        },
        {
          "name": "C3",
          "midi": 48,
          "time": 476.25,
          "velocity": 1,
          "duration": 0.375
        },
        {
          "name": "E3",
          "midi": 52,
          "time": 476.625,
          "velocity": 1,
          "duration": 0.75
        },
        {
          "name": "D3",
          "midi": 50,
          "time": 477.375,
          "velocity": 1,
          "duration": 0.75
        },
        {
          "name": "E3",
          "midi": 52,
          "time": 478.125,
          "velocity": 1,
          "duration": 0.75
        },
        {
          "name": "F3",
          "midi": 53,
          "time": 478.875,
          "velocity": 1,
          "duration": 0.375
        },
        {
          "name": "G3",
          "midi": 55,
          "time": 479.25,
          "velocity": 1,
          "duration": 0.375
        },
        {
          "name": "A3",
          "midi": 57,
          "time": 479.625,
          "velocity": 1,
          "duration": 0.375
        },
        {
          "name": "A#3",
          "midi": 58,
          "time": 480,
          "velocity": 1,
          "duration": 0.375
        },
        {
          "name": "C#4",
          "midi": 61,
          "time": 480.375,
          "velocity": 1,
          "duration": 2.25
        },
        {
          "name": "C#4",
          "midi": 61,
          "time": 482.625,
          "velocity": 1,
          "duration": 0.1875
        },
        {
          "name": "D4",
          "midi": 62,
          "time": 482.8125,
          "velocity": 1,
          "duration": 0.1875
        },
        {
          "name": "C#4",
          "midi": 61,
          "time": 483,
          "velocity": 1,
          "duration": 0.1875
        },
        {
          "name": "B3",
          "midi": 59,
          "time": 483.1875,
          "velocity": 1,
          "duration": 0.1875
        },
        {
          "name": "C#4",
          "midi": 61,
          "time": 483.375,
          "velocity": 1,
          "duration": 3
        }
      ],
      "controlChanges": {},
      "id": 3,
      "name": "Mellotron           ",
      "instrumentNumber": 7,
      "instrument": "clavi",
      "instrumentFamily": "piano",
      "channelNumber": 2,
      "isPercussion": false
    },
    {
      "startTime": 204.375,
      "duration": 486.375,
      "length": 265,
      "notes": [
        {
          "name": "G4",
          "midi": 67,
          "time": 204.375,
          "velocity": 1,
          "duration": 3
        },
        {
          "name": "A4",
          "midi": 69,
          "time": 207.375,
          "velocity": 1,
          "duration": 0.1875
        },
        {
          "name": "A#4",
          "midi": 70,
          "time": 207.5625,
          "velocity": 1,
          "duration": 0.1875
        },
        {
          "name": "A4",
          "midi": 69,
          "time": 207.75,
          "velocity": 1,
          "duration": 0.375
        },
        {
          "name": "G4",
          "midi": 67,
          "time": 208.125,
          "velocity": 1,
          "duration": 0.375
        },
        {
          "name": "A4",
          "midi": 69,
          "time": 208.5,
          "velocity": 1,
          "duration": 0.375
        },
        {
          "name": "A#4",
          "midi": 70,
          "time": 208.875,
          "velocity": 1,
          "duration": 0.375
        },
        {
          "name": "D5",
          "midi": 74,
          "time": 209.25,
          "velocity": 1,
          "duration": 0.375
        },
        {
          "name": "E5",
          "midi": 76,
          "time": 209.625,
          "velocity": 1,
          "duration": 0.1875
        },
        {
          "name": "D5",
          "midi": 74,
          "time": 209.8125,
          "velocity": 1,
          "duration": 0.1875
        },
        {
          "name": "C#5",
          "midi": 73,
          "time": 210,
          "velocity": 1,
          "duration": 0.1875
        },
        {
          "name": "D5",
          "midi": 74,
          "time": 210.1875,
          "velocity": 1,
          "duration": 0.1875
        },
        {
          "name": "E5",
          "midi": 76,
          "time": 210.375,
          "velocity": 1,
          "duration": 2.25
        },
        {
          "name": "D5",
          "midi": 74,
          "time": 212.625,
          "velocity": 1,
          "duration": 0.1875
        },
        {
          "name": "C#5",
          "midi": 73,
          "time": 212.8125,
          "velocity": 1,
          "duration": 0.1875
        },
        {
          "name": "D5",
          "midi": 74,
          "time": 213,
          "velocity": 1,
          "duration": 0.1875
        },
        {
          "name": "C#5",
          "midi": 73,
          "time": 213.1875,
          "velocity": 1,
          "duration": 1.6875
        },
        {
          "name": "A#4",
          "midi": 70,
          "time": 214.875,
          "velocity": 1,
          "duration": 0.1875
        },
        {
          "name": "A4",
          "midi": 69,
          "time": 215.0625,
          "velocity": 1,
          "duration": 0.1875
        },
        {
          "name": "A4",
          "midi": 69,
          "time": 215.25,
          "velocity": 1,
          "duration": 0.1875
        },
        {
          "name": "A4",
          "midi": 69,
          "time": 215.625,
          "velocity": 1,
          "duration": 0.375
        },
        {
          "name": "A4",
          "midi": 69,
          "time": 216,
          "velocity": 1,
          "duration": 0.1875
        },
        {
          "name": "A4",
          "midi": 69,
          "time": 216.1875,
          "velocity": 1,
          "duration": 0.1875
        },
        {
          "name": "G4",
          "midi": 67,
          "time": 216.375,
          "velocity": 1,
          "duration": 2.25
        },
        {
          "name": "A4",
          "midi": 69,
          "time": 219.375,
          "velocity": 1,
          "duration": 0.1875
        },
        {
          "name": "A#4",
          "midi": 70,
          "time": 219.5625,
          "velocity": 1,
          "duration": 0.375
        },
        {
          "name": "C#5",
          "midi": 73,
          "time": 219.9375,
          "velocity": 1,
          "duration": 0.1875
        },
        {
          "name": "D5",
          "midi": 74,
          "time": 220.125,
          "velocity": 1,
          "duration": 0.375
        },
        {
          "name": "E5",
          "midi": 76,
          "time": 220.5,
          "velocity": 1,
          "duration": 0.375
        },
        {
          "name": "C#5",
          "midi": 73,
          "time": 220.875,
          "velocity": 1,
          "duration": 0.1875
        },
        {
          "name": "D5",
          "midi": 74,
          "time": 221.0625,
          "velocity": 1,
          "duration": 0.1875
        },
        {
          "name": "E5",
          "midi": 76,
          "time": 221.25,
          "velocity": 1,
          "duration": 0.1875
        },
        {
          "name": "F5",
          "midi": 77,
          "time": 221.4375,
          "velocity": 1,
          "duration": 0.1875
        },
        {
          "name": "D5",
          "midi": 74,
          "time": 221.625,
          "velocity": 1,
          "duration": 0.1875
        },
        {
          "name": "C#5",
          "midi": 73,
          "time": 221.8125,
          "velocity": 1,
          "duration": 0.1875
        },
        {
          "name": "E5",
          "midi": 76,
          "time": 222,
          "velocity": 1,
          "duration": 1.125
        },
        {
          "name": "D5",
          "midi": 74,
          "time": 223.125,
          "velocity": 1,
          "duration": 0.1875
        },
        {
          "name": "C#5",
          "midi": 73,
          "time": 223.3125,
          "velocity": 1,
          "duration": 0.1875
        },
        {
          "name": "A4",
          "midi": 69,
          "time": 223.5,
          "velocity": 1,
          "duration": 0.1875
        },
        {
          "name": "E5",
          "midi": 76,
          "time": 223.6875,
          "velocity": 1,
          "duration": 1.125
        },
        {
          "name": "F5",
          "midi": 77,
          "time": 224.8125,
          "velocity": 1,
          "duration": 0.1875
        },
        {
          "name": "D5",
          "midi": 74,
          "time": 225,
          "velocity": 1,
          "duration": 0.1875
        },
        {
          "name": "A#4",
          "midi": 70,
          "time": 225.1875,
          "velocity": 1,
          "duration": 0.1875
        },
        {
          "name": "A4",
          "midi": 69,
          "time": 225.375,
          "velocity": 1,
          "duration": 0.75
        },
        {
          "name": "A#4",
          "midi": 70,
          "time": 226.125,
          "velocity": 1,
          "duration": 0.1875
        },
        {
          "name": "G4",
          "midi": 67,
          "time": 226.3125,
          "velocity": 1,
          "duration": 0.1875
        },
        {
          "name": "A4",
          "midi": 69,
          "time": 226.5,
          "velocity": 1,
          "duration": 0.75
        },
        {
          "name": "G4",
          "midi": 67,
          "time": 227.25,
          "velocity": 1,
          "duration": 0.1875
        },
        {
          "name": "F4",
          "midi": 65,
          "time": 227.4375,
          "velocity": 1,
          "duration": 0.75
        },
        {
          "name": "F4",
          "midi": 65,
          "time": 228.1875,
          "velocity": 1,
          "duration": 0.1875
        },
        {
          "name": "G4",
          "midi": 67,
          "time": 228.375,
          "velocity": 1,
          "duration": 2.25
        },
        {
          "name": "A4",
          "midi": 69,
          "time": 231,
          "velocity": 1,
          "duration": 0.1875
        },
        {
          "name": "A#4",
          "midi": 70,
          "time": 231.1875,
          "velocity": 1,
          "duration": 0.1875
        },
        {
          "name": "A4",
          "midi": 69,
          "time": 231.375,
          "velocity": 1,
          "duration": 0.375
        },
        {
          "name": "G4",
          "midi": 67,
          "time": 231.75,
          "velocity": 1,
          "duration": 0.375
        },
        {
          "name": "A4",
          "midi": 69,
          "time": 232.125,
          "velocity": 1,
          "duration": 0.375
        },
        {
          "name": "A#4",
          "midi": 70,
          "time": 232.5,
          "velocity": 1,
          "duration": 0.375
        },
        {
          "name": "G4",
          "midi": 67,
          "time": 232.875,
          "velocity": 1,
          "duration": 0.375
        },
        {
          "name": "A4",
          "midi": 69,
          "time": 233.25,
          "velocity": 1,
          "duration": 0.375
        },
        {
          "name": "A#4",
          "midi": 70,
          "time": 233.625,
          "velocity": 1,
          "duration": 0.1875
        },
        {
          "name": "C#5",
          "midi": 73,
          "time": 233.8125,
          "velocity": 1,
          "duration": 0.1875
        },
        {
          "name": "D5",
          "midi": 74,
          "time": 234,
          "velocity": 1,
          "duration": 0.1875
        },
        {
          "name": "E5",
          "midi": 76,
          "time": 234.1875,
          "velocity": 1,
          "duration": 0.1875
        },
        {
          "name": "C#5",
          "midi": 73,
          "time": 234.375,
          "velocity": 1,
          "duration": 0.1875
        },
        {
          "name": "D5",
          "midi": 74,
          "time": 234.5625,
          "velocity": 1,
          "duration": 0.1875
        },
        {
          "name": "E5",
          "midi": 76,
          "time": 234.75,
          "velocity": 1,
          "duration": 0.1875
        },
        {
          "name": "F5",
          "midi": 77,
          "time": 234.9375,
          "velocity": 1,
          "duration": 0.1875
        },
        {
          "name": "E5",
          "midi": 76,
          "time": 235.125,
          "velocity": 1,
          "duration": 0.1875
        },
        {
          "name": "D5",
          "midi": 74,
          "time": 235.3125,
          "velocity": 1,
          "duration": 0.1875
        },
        {
          "name": "E5",
          "midi": 76,
          "time": 235.5,
          "velocity": 1,
          "duration": 0.1875
        },
        {
          "name": "D5",
          "midi": 74,
          "time": 235.6875,
          "velocity": 1,
          "duration": 0.1875
        },
        {
          "name": "C#5",
          "midi": 73,
          "time": 235.875,
          "velocity": 1,
          "duration": 0.75
        },
        {
          "name": "D5",
          "midi": 74,
          "time": 236.625,
          "velocity": 1,
          "duration": 0.1875
        },
        {
          "name": "C#5",
          "midi": 73,
          "time": 236.8125,
          "velocity": 1,
          "duration": 0.1875
        },
        {
          "name": "A#4",
          "midi": 70,
          "time": 237,
          "velocity": 1,
          "duration": 0.1875
        },
        {
          "name": "A4",
          "midi": 69,
          "time": 237.1875,
          "velocity": 1,
          "duration": 0.5625
        },
        {
          "name": "A#4",
          "midi": 70,
          "time": 237.75,
          "velocity": 1,
          "duration": 0.1875
        },
        {
          "name": "G4",
          "midi": 67,
          "time": 237.9375,
          "velocity": 1,
          "duration": 0.5625
        },
        {
          "name": "A4",
          "midi": 69,
          "time": 238.5,
          "velocity": 1,
          "duration": 0.1875
        },
        {
          "name": "F#4",
          "midi": 66,
          "time": 238.6875,
          "velocity": 1,
          "duration": 0.5625
        },
        {
          "name": "G4",
          "midi": 67,
          "time": 239.25,
          "velocity": 1,
          "duration": 0.1875
        },
        {
          "name": "E4",
          "midi": 64,
          "time": 239.4375,
          "velocity": 1,
          "duration": 0.5625
        },
        {
          "name": "D4",
          "midi": 62,
          "time": 240,
          "velocity": 1,
          "duration": 0.1875
        },
        {
          "name": "F#4",
          "midi": 66,
          "time": 240.1875,
          "velocity": 1,
          "duration": 0.1875
        },
        {
          "name": "G4",
          "midi": 67,
          "time": 240.375,
          "velocity": 1,
          "duration": 2.25
        },
        {
          "name": "A4",
          "midi": 69,
          "time": 243.375,
          "velocity": 1,
          "duration": 0.1875
        },
        {
          "name": "A#4",
          "midi": 70,
          "time": 243.5625,
          "velocity": 1,
          "duration": 0.1875
        },
        {
          "name": "A4",
          "midi": 69,
          "time": 243.75,
          "velocity": 1,
          "duration": 0.1875
        },
        {
          "name": "G4",
          "midi": 67,
          "time": 243.9375,
          "velocity": 1,
          "duration": 0.9375
        },
        {
          "name": "F5",
          "midi": 77,
          "time": 244.875,
          "velocity": 1,
          "duration": 0.1875
        },
        {
          "name": "E5",
          "midi": 76,
          "time": 245.0625,
          "velocity": 1,
          "duration": 0.1875
        },
        {
          "name": "D5",
          "midi": 74,
          "time": 245.25,
          "velocity": 1,
          "duration": 0.1875
        },
        {
          "name": "C#5",
          "midi": 73,
          "time": 245.625,
          "velocity": 1,
          "duration": 0.1875
        },
        {
          "name": "D5",
          "midi": 74,
          "time": 245.8125,
          "velocity": 1,
          "duration": 0.1875
        },
        {
          "name": "E5",
          "midi": 76,
          "time": 246,
          "velocity": 1,
          "duration": 0.5625
        },
        {
          "name": "D5",
          "midi": 74,
          "time": 246.5625,
          "velocity": 1,
          "duration": 0.1875
        },
        {
          "name": "C#5",
          "midi": 73,
          "time": 246.75,
          "velocity": 1,
          "duration": 0.1875
        },
        {
          "name": "D5",
          "midi": 74,
          "time": 246.9375,
          "velocity": 1,
          "duration": 0.1875
        },
        {
          "name": "C#5",
          "midi": 73,
          "time": 247.125,
          "velocity": 1,
          "duration": 0.75
        },
        {
          "name": "A#4",
          "midi": 70,
          "time": 247.875,
          "velocity": 1,
          "duration": 0.1875
        },
        {
          "name": "C#5",
          "midi": 73,
          "time": 248.0625,
          "velocity": 1,
          "duration": 0.1875
        },
        {
          "name": "A#4",
          "midi": 70,
          "time": 248.25,
          "velocity": 1,
          "duration": 0.1875
        },
        {
          "name": "A4",
          "midi": 69,
          "time": 248.4375,
          "velocity": 1,
          "duration": 1.6875
        },
        {
          "name": "E5",
          "midi": 76,
          "time": 250.125,
          "velocity": 1,
          "duration": 0.1875
        },
        {
          "name": "F5",
          "midi": 77,
          "time": 250.3125,
          "velocity": 1,
          "duration": 0.1875
        },
        {
          "name": "D5",
          "midi": 74,
          "time": 250.5,
          "velocity": 1,
          "duration": 0.1875
        },
        {
          "name": "E5",
          "midi": 76,
          "time": 250.6875,
          "velocity": 1,
          "duration": 0.1875
        },
        {
          "name": "C#5",
          "midi": 73,
          "time": 250.875,
          "velocity": 1,
          "duration": 0.1875
        },
        {
          "name": "D5",
          "midi": 74,
          "time": 251.0625,
          "velocity": 1,
          "duration": 0.1875
        },
        {
          "name": "A#4",
          "midi": 70,
          "time": 251.25,
          "velocity": 1,
          "duration": 0.1875
        },
        {
          "name": "C#5",
          "midi": 73,
          "time": 251.4375,
          "velocity": 1,
          "duration": 0.1875
        },
        {
          "name": "A4",
          "midi": 69,
          "time": 251.625,
          "velocity": 1,
          "duration": 0.5625
        },
        {
          "name": "A4",
          "midi": 69,
          "time": 252.1875,
          "velocity": 1,
          "duration": 0.1875
        },
        {
          "name": "G4",
          "midi": 67,
          "time": 252.375,
          "velocity": 1,
          "duration": 1.125
        },
        {
          "name": "F5",
          "midi": 77,
          "time": 253.5,
          "velocity": 1,
          "duration": 0.1875
        },
        {
          "name": "E5",
          "midi": 76,
          "time": 253.6875,
          "velocity": 1,
          "duration": 0.1875
        },
        {
          "name": "F5",
          "midi": 77,
          "time": 253.875,
          "velocity": 1,
          "duration": 0.1875
        },
        {
          "name": "E5",
          "midi": 76,
          "time": 254.0625,
          "velocity": 1,
          "duration": 0.1875
        },
        {
          "name": "D5",
          "midi": 74,
          "time": 254.25,
          "velocity": 1,
          "duration": 0.75
        },
        {
          "name": "C#5",
          "midi": 73,
          "time": 255,
          "velocity": 1,
          "duration": 0.1875
        },
        {
          "name": "D5",
          "midi": 74,
          "time": 255.1875,
          "velocity": 1,
          "duration": 0.5625
        },
        {
          "name": "E5",
          "midi": 76,
          "time": 255.75,
          "velocity": 1,
          "duration": 0.1875
        },
        {
          "name": "F5",
          "midi": 77,
          "time": 255.9375,
          "velocity": 1,
          "duration": 0.5625
        },
        {
          "name": "E5",
          "midi": 76,
          "time": 256.5,
          "velocity": 1,
          "duration": 0.1875
        },
        {
          "name": "F5",
          "midi": 77,
          "time": 256.6875,
          "velocity": 1,
          "duration": 0.9375
        },
        {
          "name": "E5",
          "midi": 76,
          "time": 257.625,
          "velocity": 1,
          "duration": 0.1875
        },
        {
          "name": "D5",
          "midi": 74,
          "time": 257.8125,
          "velocity": 1,
          "duration": 0.1875
        },
        {
          "name": "E5",
          "midi": 76,
          "time": 258,
          "velocity": 1,
          "duration": 1.125
        },
        {
          "name": "C#5",
          "midi": 73,
          "time": 259.125,
          "velocity": 1,
          "duration": 0.75
        },
        {
          "name": "A4",
          "midi": 69,
          "time": 259.875,
          "velocity": 1,
          "duration": 0.5625
        },
        {
          "name": "A#4",
          "midi": 70,
          "time": 260.4375,
          "velocity": 1,
          "duration": 0.1875
        },
        {
          "name": "A4",
          "midi": 69,
          "time": 260.625,
          "velocity": 1,
          "duration": 3.75
        },
        {
          "name": "A3",
          "midi": 57,
          "time": 402.375,
          "velocity": 1,
          "duration": 5.25
        },
        {
          "name": "B3",
          "midi": 59,
          "time": 407.625,
          "velocity": 1,
          "duration": 0.375
        },
        {
          "name": "C4",
          "midi": 60,
          "time": 408,
          "velocity": 1,
          "duration": 0.375
        },
        {
          "name": "B3",
          "midi": 59,
          "time": 408.375,
          "velocity": 1,
          "duration": 1.125
        },
        {
          "name": "A#3",
          "midi": 58,
          "time": 409.5,
          "velocity": 1,
          "duration": 0.1875
        },
        {
          "name": "C#4",
          "midi": 61,
          "time": 409.6875,
          "velocity": 1,
          "duration": 0.1875
        },
        {
          "name": "D4",
          "midi": 62,
          "time": 409.875,
          "velocity": 1,
          "duration": 0.1875
        },
        {
          "name": "E4",
          "midi": 64,
          "time": 410.0625,
          "velocity": 1,
          "duration": 0.5625
        },
        {
          "name": "D4",
          "midi": 62,
          "time": 410.625,
          "velocity": 1,
          "duration": 0.1875
        },
        {
          "name": "C#4",
          "midi": 61,
          "time": 410.8125,
          "velocity": 1,
          "duration": 0.1875
        },
        {
          "name": "D4",
          "midi": 62,
          "time": 411,
          "velocity": 1,
          "duration": 0.1875
        },
        {
          "name": "E4",
          "midi": 64,
          "time": 411.1875,
          "velocity": 1,
          "duration": 0.1875
        },
        {
          "name": "F#4",
          "midi": 66,
          "time": 411.375,
          "velocity": 1,
          "duration": 0.1875
        },
        {
          "name": "G4",
          "midi": 67,
          "time": 411.5625,
          "velocity": 1,
          "duration": 0.1875
        },
        {
          "name": "A4",
          "midi": 69,
          "time": 411.75,
          "velocity": 1,
          "duration": 0.75
        },
        {
          "name": "A#4",
          "midi": 70,
          "time": 412.5,
          "velocity": 1,
          "duration": 0.1875
        },
        {
          "name": "G4",
          "midi": 67,
          "time": 412.6875,
          "velocity": 1,
          "duration": 0.1875
        },
        {
          "name": "A4",
          "midi": 69,
          "time": 412.875,
          "velocity": 1,
          "duration": 0.75
        },
        {
          "name": "C#5",
          "midi": 73,
          "time": 413.625,
          "velocity": 1,
          "duration": 0.1875
        },
        {
          "name": "D5",
          "midi": 74,
          "time": 413.8125,
          "velocity": 1,
          "duration": 0.1875
        },
        {
          "name": "E5",
          "midi": 76,
          "time": 414,
          "velocity": 1,
          "duration": 0.375
        },
        {
          "name": "D5",
          "midi": 74,
          "time": 414.375,
          "velocity": 1,
          "duration": 1.5
        },
        {
          "name": "C4",
          "midi": 60,
          "time": 416.625,
          "velocity": 1,
          "duration": 0.1875
        },
        {
          "name": "B3",
          "midi": 59,
          "time": 416.8125,
          "velocity": 1,
          "duration": 0.1875
        },
        {
          "name": "C4",
          "midi": 60,
          "time": 417,
          "velocity": 1,
          "duration": 0.1875
        },
        {
          "name": "B3",
          "midi": 59,
          "time": 417.1875,
          "velocity": 1,
          "duration": 0.1875
        },
        {
          "name": "A3",
          "midi": 57,
          "time": 417.375,
          "velocity": 1,
          "duration": 0.75
        },
        {
          "name": "A3",
          "midi": 57,
          "time": 418.125,
          "velocity": 1,
          "duration": 0.1875
        },
        {
          "name": "B3",
          "midi": 59,
          "time": 418.3125,
          "velocity": 1,
          "duration": 0.1875
        },
        {
          "name": "C4",
          "midi": 60,
          "time": 418.5,
          "velocity": 1,
          "duration": 0.375
        },
        {
          "name": "C#4",
          "midi": 61,
          "time": 418.875,
          "velocity": 1,
          "duration": 0.1875
        },
        {
          "name": "D4",
          "midi": 62,
          "time": 419.0625,
          "velocity": 1,
          "duration": 0.1875
        },
        {
          "name": "E4",
          "midi": 64,
          "time": 419.25,
          "velocity": 1,
          "duration": 0.5625
        },
        {
          "name": "D4",
          "midi": 62,
          "time": 419.8125,
          "velocity": 1,
          "duration": 0.1875
        },
        {
          "name": "C#4",
          "midi": 61,
          "time": 420,
          "velocity": 1,
          "duration": 0.1875
        },
        {
          "name": "D4",
          "midi": 62,
          "time": 420.1875,
          "velocity": 1,
          "duration": 0.1875
        },
        {
          "name": "E4",
          "midi": 64,
          "time": 420.375,
          "velocity": 1,
          "duration": 1.5
        },
        {
          "name": "F#4",
          "midi": 66,
          "time": 421.875,
          "velocity": 1,
          "duration": 0.1875
        },
        {
          "name": "G4",
          "midi": 67,
          "time": 422.0625,
          "velocity": 1,
          "duration": 0.1875
        },
        {
          "name": "E4",
          "midi": 64,
          "time": 422.25,
          "velocity": 1,
          "duration": 0.375
        },
        {
          "name": "F#4",
          "midi": 66,
          "time": 422.625,
          "velocity": 1,
          "duration": 0.1875
        },
        {
          "name": "G4",
          "midi": 67,
          "time": 422.8125,
          "velocity": 1,
          "duration": 0.1875
        },
        {
          "name": "A4",
          "midi": 69,
          "time": 423,
          "velocity": 1,
          "duration": 0.1875
        },
        {
          "name": "A#4",
          "midi": 70,
          "time": 423.1875,
          "velocity": 1,
          "duration": 0.1875
        },
        {
          "name": "G4",
          "midi": 67,
          "time": 423.375,
          "velocity": 1,
          "duration": 0.1875
        },
        {
          "name": "A4",
          "midi": 69,
          "time": 423.5625,
          "velocity": 1,
          "duration": 0.9375
        },
        {
          "name": "G4",
          "midi": 67,
          "time": 424.5,
          "velocity": 1,
          "duration": 0.1875
        },
        {
          "name": "F4",
          "midi": 65,
          "time": 424.6875,
          "velocity": 1,
          "duration": 0.1875
        },
        {
          "name": "E4",
          "midi": 64,
          "time": 424.875,
          "velocity": 1,
          "duration": 0.375
        },
        {
          "name": "F4",
          "midi": 65,
          "time": 425.25,
          "velocity": 1,
          "duration": 0.1875
        },
        {
          "name": "G4",
          "midi": 67,
          "time": 425.4375,
          "velocity": 1,
          "duration": 0.1875
        },
        {
          "name": "A4",
          "midi": 69,
          "time": 425.625,
          "velocity": 1,
          "duration": 0.375
        },
        {
          "name": "A4",
          "midi": 69,
          "time": 426,
          "velocity": 1,
          "duration": 0.375
        },
        {
          "name": "A3",
          "midi": 57,
          "time": 426.375,
          "velocity": 1,
          "duration": 1.125
        },
        {
          "name": "B3",
          "midi": 59,
          "time": 427.5,
          "velocity": 1,
          "duration": 0.75
        },
        {
          "name": "C4",
          "midi": 60,
          "time": 428.25,
          "velocity": 1,
          "duration": 0.375
        },
        {
          "name": "E4",
          "midi": 64,
          "time": 428.625,
          "velocity": 1,
          "duration": 0.75
        },
        {
          "name": "D4",
          "midi": 62,
          "time": 429.375,
          "velocity": 1,
          "duration": 0.75
        },
        {
          "name": "E4",
          "midi": 64,
          "time": 430.125,
          "velocity": 1,
          "duration": 0.75
        },
        {
          "name": "F4",
          "midi": 65,
          "time": 430.875,
          "velocity": 1,
          "duration": 0.375
        },
        {
          "name": "G4",
          "midi": 67,
          "time": 431.25,
          "velocity": 1,
          "duration": 0.375
        },
        {
          "name": "A4",
          "midi": 69,
          "time": 431.625,
          "velocity": 1,
          "duration": 0.375
        },
        {
          "name": "A#4",
          "midi": 70,
          "time": 432,
          "velocity": 1,
          "duration": 0.375
        },
        {
          "name": "C#5",
          "midi": 73,
          "time": 432.375,
          "velocity": 1,
          "duration": 2.25
        },
        {
          "name": "C#5",
          "midi": 73,
          "time": 434.625,
          "velocity": 1,
          "duration": 0.1875
        },
        {
          "name": "D5",
          "midi": 74,
          "time": 434.8125,
          "velocity": 1,
          "duration": 0.1875
        },
        {
          "name": "C#5",
          "midi": 73,
          "time": 435,
          "velocity": 1,
          "duration": 0.1875
        },
        {
          "name": "B4",
          "midi": 71,
          "time": 435.1875,
          "velocity": 1,
          "duration": 0.1875
        },
        {
          "name": "C#5",
          "midi": 73,
          "time": 435.375,
          "velocity": 1,
          "duration": 3
        },
        {
          "name": "A3",
          "midi": 57,
          "time": 438.375,
          "velocity": 1,
          "duration": 1.125
        },
        {
          "name": "B3",
          "midi": 59,
          "time": 439.5,
          "velocity": 1,
          "duration": 0.75
        },
        {
          "name": "C4",
          "midi": 60,
          "time": 440.25,
          "velocity": 1,
          "duration": 0.375
        },
        {
          "name": "E4",
          "midi": 64,
          "time": 440.625,
          "velocity": 1,
          "duration": 0.75
        },
        {
          "name": "D4",
          "midi": 62,
          "time": 441.375,
          "velocity": 1,
          "duration": 0.75
        },
        {
          "name": "E4",
          "midi": 64,
          "time": 442.125,
          "velocity": 1,
          "duration": 0.75
        },
        {
          "name": "F4",
          "midi": 65,
          "time": 442.875,
          "velocity": 1,
          "duration": 0.375
        },
        {
          "name": "G4",
          "midi": 67,
          "time": 443.25,
          "velocity": 1,
          "duration": 0.375
        },
        {
          "name": "A4",
          "midi": 69,
          "time": 443.625,
          "velocity": 1,
          "duration": 0.375
        },
        {
          "name": "A#4",
          "midi": 70,
          "time": 444,
          "velocity": 1,
          "duration": 0.375
        },
        {
          "name": "C#5",
          "midi": 73,
          "time": 444.375,
          "velocity": 1,
          "duration": 2.25
        },
        {
          "name": "C#5",
          "midi": 73,
          "time": 446.625,
          "velocity": 1,
          "duration": 0.1875
        },
        {
          "name": "D5",
          "midi": 74,
          "time": 446.8125,
          "velocity": 1,
          "duration": 0.1875
        },
        {
          "name": "C#5",
          "midi": 73,
          "time": 447,
          "velocity": 1,
          "duration": 0.1875
        },
        {
          "name": "B4",
          "midi": 71,
          "time": 447.1875,
          "velocity": 1,
          "duration": 0.1875
        },
        {
          "name": "C#5",
          "midi": 73,
          "time": 447.375,
          "velocity": 1,
          "duration": 3
        },
        {
          "name": "A3",
          "midi": 57,
          "time": 450.375,
          "velocity": 1,
          "duration": 1.125
        },
        {
          "name": "B3",
          "midi": 59,
          "time": 451.5,
          "velocity": 1,
          "duration": 0.75
        },
        {
          "name": "C4",
          "midi": 60,
          "time": 452.25,
          "velocity": 1,
          "duration": 0.375
        },
        {
          "name": "E4",
          "midi": 64,
          "time": 452.625,
          "velocity": 1,
          "duration": 0.75
        },
        {
          "name": "D4",
          "midi": 62,
          "time": 453.375,
          "velocity": 1,
          "duration": 0.75
        },
        {
          "name": "E4",
          "midi": 64,
          "time": 454.125,
          "velocity": 1,
          "duration": 0.75
        },
        {
          "name": "F4",
          "midi": 65,
          "time": 454.875,
          "velocity": 1,
          "duration": 0.375
        },
        {
          "name": "G4",
          "midi": 67,
          "time": 455.25,
          "velocity": 1,
          "duration": 0.375
        },
        {
          "name": "A4",
          "midi": 69,
          "time": 455.625,
          "velocity": 1,
          "duration": 0.375
        },
        {
          "name": "A#4",
          "midi": 70,
          "time": 456,
          "velocity": 1,
          "duration": 0.375
        },
        {
          "name": "C#5",
          "midi": 73,
          "time": 456.375,
          "velocity": 1,
          "duration": 2.25
        },
        {
          "name": "C#5",
          "midi": 73,
          "time": 458.625,
          "velocity": 1,
          "duration": 0.1875
        },
        {
          "name": "D5",
          "midi": 74,
          "time": 458.8125,
          "velocity": 1,
          "duration": 0.1875
        },
        {
          "name": "C#5",
          "midi": 73,
          "time": 459,
          "velocity": 1,
          "duration": 0.1875
        },
        {
          "name": "B4",
          "midi": 71,
          "time": 459.1875,
          "velocity": 1,
          "duration": 0.1875
        },
        {
          "name": "C#5",
          "midi": 73,
          "time": 459.375,
          "velocity": 1,
          "duration": 3
        },
        {
          "name": "A3",
          "midi": 57,
          "time": 462.375,
          "velocity": 1,
          "duration": 1.125
        },
        {
          "name": "B3",
          "midi": 59,
          "time": 463.5,
          "velocity": 1,
          "duration": 0.75
        },
        {
          "name": "C4",
          "midi": 60,
          "time": 464.25,
          "velocity": 1,
          "duration": 0.375
        },
        {
          "name": "E4",
          "midi": 64,
          "time": 464.625,
          "velocity": 1,
          "duration": 0.75
        },
        {
          "name": "D4",
          "midi": 62,
          "time": 465.375,
          "velocity": 1,
          "duration": 0.75
        },
        {
          "name": "E4",
          "midi": 64,
          "time": 466.125,
          "velocity": 1,
          "duration": 0.75
        },
        {
          "name": "F4",
          "midi": 65,
          "time": 466.875,
          "velocity": 1,
          "duration": 0.375
        },
        {
          "name": "G4",
          "midi": 67,
          "time": 467.25,
          "velocity": 1,
          "duration": 0.375
        },
        {
          "name": "A4",
          "midi": 69,
          "time": 467.625,
          "velocity": 1,
          "duration": 0.375
        },
        {
          "name": "A#4",
          "midi": 70,
          "time": 468,
          "velocity": 1,
          "duration": 0.375
        },
        {
          "name": "C#5",
          "midi": 73,
          "time": 468.375,
          "velocity": 1,
          "duration": 2.25
        },
        {
          "name": "C#5",
          "midi": 73,
          "time": 470.625,
          "velocity": 1,
          "duration": 0.1875
        },
        {
          "name": "D5",
          "midi": 74,
          "time": 470.8125,
          "velocity": 1,
          "duration": 0.1875
        },
        {
          "name": "C#5",
          "midi": 73,
          "time": 471,
          "velocity": 1,
          "duration": 0.1875
        },
        {
          "name": "B4",
          "midi": 71,
          "time": 471.1875,
          "velocity": 1,
          "duration": 0.1875
        },
        {
          "name": "C#5",
          "midi": 73,
          "time": 471.375,
          "velocity": 1,
          "duration": 3
        },
        {
          "name": "A3",
          "midi": 57,
          "time": 474.375,
          "velocity": 1,
          "duration": 1.125
        },
        {
          "name": "B3",
          "midi": 59,
          "time": 475.5,
          "velocity": 1,
          "duration": 0.75
        },
        {
          "name": "C4",
          "midi": 60,
          "time": 476.25,
          "velocity": 1,
          "duration": 0.375
        },
        {
          "name": "E4",
          "midi": 64,
          "time": 476.625,
          "velocity": 1,
          "duration": 0.75
        },
        {
          "name": "D4",
          "midi": 62,
          "time": 477.375,
          "velocity": 1,
          "duration": 0.75
        },
        {
          "name": "E4",
          "midi": 64,
          "time": 478.125,
          "velocity": 1,
          "duration": 0.75
        },
        {
          "name": "F4",
          "midi": 65,
          "time": 478.875,
          "velocity": 1,
          "duration": 0.375
        },
        {
          "name": "G4",
          "midi": 67,
          "time": 479.25,
          "velocity": 1,
          "duration": 0.375
        },
        {
          "name": "A4",
          "midi": 69,
          "time": 479.625,
          "velocity": 1,
          "duration": 0.375
        },
        {
          "name": "A#4",
          "midi": 70,
          "time": 480,
          "velocity": 1,
          "duration": 0.375
        },
        {
          "name": "C#5",
          "midi": 73,
          "time": 480.375,
          "velocity": 1,
          "duration": 2.25
        },
        {
          "name": "C#5",
          "midi": 73,
          "time": 482.625,
          "velocity": 1,
          "duration": 0.1875
        },
        {
          "name": "D5",
          "midi": 74,
          "time": 482.8125,
          "velocity": 1,
          "duration": 0.1875
        },
        {
          "name": "C#5",
          "midi": 73,
          "time": 483,
          "velocity": 1,
          "duration": 0.1875
        },
        {
          "name": "B4",
          "midi": 71,
          "time": 483.1875,
          "velocity": 1,
          "duration": 0.1875
        },
        {
          "name": "C#5",
          "midi": 73,
          "time": 483.375,
          "velocity": 1,
          "duration": 3
        }
      ],
      "controlChanges": {},
      "id": 4,
      "name": "Strings             ",
      "instrumentNumber": 48,
      "instrument": "string ensemble 1",
      "instrumentFamily": "ensemble",
      "channelNumber": 3,
      "isPercussion": false
    },
    {
      "startTime": 53.625,
      "duration": 402,
      "length": 621,
      "notes": [
        {
          "name": "D2",
          "midi": 38,
          "time": 53.625,
          "velocity": 0.47244094488188976,
          "duration": 1.125
        },
        {
          "name": "D3",
          "midi": 50,
          "time": 54,
          "velocity": 0.47244094488188976,
          "duration": 0.1875
        },
        {
          "name": "D4",
          "midi": 62,
          "time": 54,
          "velocity": 0.47244094488188976,
          "duration": 0.1875
        },
        {
          "name": "D3",
          "midi": 50,
          "time": 54.1875,
          "velocity": 0.47244094488188976,
          "duration": 0.1875
        },
        {
          "name": "D4",
          "midi": 62,
          "time": 54.1875,
          "velocity": 0.47244094488188976,
          "duration": 0.1875
        },
        {
          "name": "D3",
          "midi": 50,
          "time": 54.375,
          "velocity": 0.47244094488188976,
          "duration": 0.75
        },
        {
          "name": "D4",
          "midi": 62,
          "time": 54.375,
          "velocity": 0.47244094488188976,
          "duration": 0.375
        },
        {
          "name": "D3",
          "midi": 50,
          "time": 55.125,
          "velocity": 0.47244094488188976,
          "duration": 0.1875
        },
        {
          "name": "A3",
          "midi": 57,
          "time": 55.125,
          "velocity": 0.47244094488188976,
          "duration": 0.1875
        },
        {
          "name": "D3",
          "midi": 50,
          "time": 55.3125,
          "velocity": 0.47244094488188976,
          "duration": 0.1875
        },
        {
          "name": "A3",
          "midi": 57,
          "time": 55.3125,
          "velocity": 0.47244094488188976,
          "duration": 0.1875
        },
        {
          "name": "D3",
          "midi": 50,
          "time": 55.5,
          "velocity": 0.47244094488188976,
          "duration": 0.75
        },
        {
          "name": "A3",
          "midi": 57,
          "time": 55.5,
          "velocity": 0.47244094488188976,
          "duration": 0.375
        },
        {
          "name": "D2",
          "midi": 38,
          "time": 55.875,
          "velocity": 0.47244094488188976,
          "duration": 1.125
        },
        {
          "name": "D3",
          "midi": 50,
          "time": 56.25,
          "velocity": 0.47244094488188976,
          "duration": 0.1875
        },
        {
          "name": "A#3",
          "midi": 58,
          "time": 56.25,
          "velocity": 0.47244094488188976,
          "duration": 0.1875
        },
        {
          "name": "D3",
          "midi": 50,
          "time": 56.4375,
          "velocity": 0.47244094488188976,
          "duration": 0.1875
        },
        {
          "name": "A#3",
          "midi": 58,
          "time": 56.4375,
          "velocity": 0.47244094488188976,
          "duration": 0.1875
        },
        {
          "name": "D3",
          "midi": 50,
          "time": 56.625,
          "velocity": 0.47244094488188976,
          "duration": 0.75
        },
        {
          "name": "A#3",
          "midi": 58,
          "time": 56.625,
          "velocity": 0.47244094488188976,
          "duration": 0.375
        },
        {
          "name": "D3",
          "midi": 50,
          "time": 57.375,
          "velocity": 0.47244094488188976,
          "duration": 0.1875
        },
        {
          "name": "A#3",
          "midi": 58,
          "time": 57.375,
          "velocity": 0.47244094488188976,
          "duration": 0.1875
        },
        {
          "name": "D3",
          "midi": 50,
          "time": 57.5625,
          "velocity": 0.47244094488188976,
          "duration": 0.1875
        },
        {
          "name": "A#3",
          "midi": 58,
          "time": 57.5625,
          "velocity": 0.47244094488188976,
          "duration": 0.1875
        },
        {
          "name": "D3",
          "midi": 50,
          "time": 57.75,
          "velocity": 0.47244094488188976,
          "duration": 0.75
        },
        {
          "name": "A#3",
          "midi": 58,
          "time": 57.75,
          "velocity": 0.47244094488188976,
          "duration": 0.375
        },
        {
          "name": "D2",
          "midi": 38,
          "time": 58.125,
          "velocity": 0.47244094488188976,
          "duration": 1.125
        },
        {
          "name": "D3",
          "midi": 50,
          "time": 58.5,
          "velocity": 0.47244094488188976,
          "duration": 0.1875
        },
        {
          "name": "B3",
          "midi": 59,
          "time": 58.5,
          "velocity": 0.47244094488188976,
          "duration": 0.1875
        },
        {
          "name": "D3",
          "midi": 50,
          "time": 58.6875,
          "velocity": 0.47244094488188976,
          "duration": 0.1875
        },
        {
          "name": "B3",
          "midi": 59,
          "time": 58.6875,
          "velocity": 0.47244094488188976,
          "duration": 0.1875
        },
        {
          "name": "D3",
          "midi": 50,
          "time": 58.875,
          "velocity": 0.47244094488188976,
          "duration": 0.75
        },
        {
          "name": "B3",
          "midi": 59,
          "time": 58.875,
          "velocity": 0.47244094488188976,
          "duration": 0.375
        },
        {
          "name": "D3",
          "midi": 50,
          "time": 59.625,
          "velocity": 0.47244094488188976,
          "duration": 0.1875
        },
        {
          "name": "B3",
          "midi": 59,
          "time": 59.625,
          "velocity": 0.47244094488188976,
          "duration": 0.1875
        },
        {
          "name": "D3",
          "midi": 50,
          "time": 59.8125,
          "velocity": 0.47244094488188976,
          "duration": 0.1875
        },
        {
          "name": "B3",
          "midi": 59,
          "time": 59.8125,
          "velocity": 0.47244094488188976,
          "duration": 0.1875
        },
        {
          "name": "D3",
          "midi": 50,
          "time": 60,
          "velocity": 0.47244094488188976,
          "duration": 0.75
        },
        {
          "name": "B3",
          "midi": 59,
          "time": 60,
          "velocity": 0.47244094488188976,
          "duration": 0.375
        },
        {
          "name": "D2",
          "midi": 38,
          "time": 60.375,
          "velocity": 0.47244094488188976,
          "duration": 1.125
        },
        {
          "name": "D3",
          "midi": 50,
          "time": 60.75,
          "velocity": 0.47244094488188976,
          "duration": 0.1875
        },
        {
          "name": "C4",
          "midi": 60,
          "time": 60.75,
          "velocity": 0.47244094488188976,
          "duration": 0.1875
        },
        {
          "name": "D3",
          "midi": 50,
          "time": 60.9375,
          "velocity": 0.47244094488188976,
          "duration": 0.1875
        },
        {
          "name": "C4",
          "midi": 60,
          "time": 60.9375,
          "velocity": 0.47244094488188976,
          "duration": 0.1875
        },
        {
          "name": "D3",
          "midi": 50,
          "time": 61.125,
          "velocity": 0.47244094488188976,
          "duration": 0.75
        },
        {
          "name": "C4",
          "midi": 60,
          "time": 61.125,
          "velocity": 0.47244094488188976,
          "duration": 0.375
        },
        {
          "name": "D3",
          "midi": 50,
          "time": 61.875,
          "velocity": 0.47244094488188976,
          "duration": 0.1875
        },
        {
          "name": "C4",
          "midi": 60,
          "time": 61.875,
          "velocity": 0.47244094488188976,
          "duration": 0.1875
        },
        {
          "name": "D3",
          "midi": 50,
          "time": 62.0625,
          "velocity": 0.47244094488188976,
          "duration": 0.1875
        },
        {
          "name": "C4",
          "midi": 60,
          "time": 62.0625,
          "velocity": 0.47244094488188976,
          "duration": 0.1875
        },
        {
          "name": "D3",
          "midi": 50,
          "time": 62.25,
          "velocity": 0.47244094488188976,
          "duration": 0.75
        },
        {
          "name": "C4",
          "midi": 60,
          "time": 62.25,
          "velocity": 0.47244094488188976,
          "duration": 0.375
        },
        {
          "name": "D2",
          "midi": 38,
          "time": 62.625,
          "velocity": 0.47244094488188976,
          "duration": 1.125
        },
        {
          "name": "D3",
          "midi": 50,
          "time": 63,
          "velocity": 0.47244094488188976,
          "duration": 0.1875
        },
        {
          "name": "D4",
          "midi": 62,
          "time": 63,
          "velocity": 0.47244094488188976,
          "duration": 0.1875
        },
        {
          "name": "D3",
          "midi": 50,
          "time": 63.1875,
          "velocity": 0.47244094488188976,
          "duration": 0.1875
        },
        {
          "name": "D4",
          "midi": 62,
          "time": 63.1875,
          "velocity": 0.47244094488188976,
          "duration": 0.1875
        },
        {
          "name": "D3",
          "midi": 50,
          "time": 63.375,
          "velocity": 0.47244094488188976,
          "duration": 0.75
        },
        {
          "name": "D4",
          "midi": 62,
          "time": 63.375,
          "velocity": 0.47244094488188976,
          "duration": 0.375
        },
        {
          "name": "D3",
          "midi": 50,
          "time": 64.125,
          "velocity": 0.47244094488188976,
          "duration": 0.1875
        },
        {
          "name": "A3",
          "midi": 57,
          "time": 64.125,
          "velocity": 0.47244094488188976,
          "duration": 0.1875
        },
        {
          "name": "D3",
          "midi": 50,
          "time": 64.3125,
          "velocity": 0.47244094488188976,
          "duration": 0.1875
        },
        {
          "name": "A3",
          "midi": 57,
          "time": 64.3125,
          "velocity": 0.47244094488188976,
          "duration": 0.1875
        },
        {
          "name": "D3",
          "midi": 50,
          "time": 64.5,
          "velocity": 0.47244094488188976,
          "duration": 0.75
        },
        {
          "name": "A3",
          "midi": 57,
          "time": 64.5,
          "velocity": 0.47244094488188976,
          "duration": 0.375
        },
        {
          "name": "D2",
          "midi": 38,
          "time": 64.875,
          "velocity": 0.47244094488188976,
          "duration": 1.125
        },
        {
          "name": "D3",
          "midi": 50,
          "time": 65.25,
          "velocity": 0.47244094488188976,
          "duration": 0.1875
        },
        {
          "name": "A#3",
          "midi": 58,
          "time": 65.25,
          "velocity": 0.47244094488188976,
          "duration": 0.1875
        },
        {
          "name": "D3",
          "midi": 50,
          "time": 65.4375,
          "velocity": 0.47244094488188976,
          "duration": 0.1875
        },
        {
          "name": "A#3",
          "midi": 58,
          "time": 65.4375,
          "velocity": 0.47244094488188976,
          "duration": 0.1875
        },
        {
          "name": "D3",
          "midi": 50,
          "time": 65.625,
          "velocity": 0.47244094488188976,
          "duration": 42.375
        },
        {
          "name": "A#3",
          "midi": 58,
          "time": 65.625,
          "velocity": 0.47244094488188976,
          "duration": 0.375
        },
        {
          "name": "D2",
          "midi": 38,
          "time": 107.625,
          "velocity": 0.47244094488188976,
          "duration": 1.125
        },
        {
          "name": "D3",
          "midi": 50,
          "time": 108,
          "velocity": 0.47244094488188976,
          "duration": 0.1875
        },
        {
          "name": "D4",
          "midi": 62,
          "time": 108,
          "velocity": 0.47244094488188976,
          "duration": 0.1875
        },
        {
          "name": "D3",
          "midi": 50,
          "time": 108.1875,
          "velocity": 0.47244094488188976,
          "duration": 0.1875
        },
        {
          "name": "D4",
          "midi": 62,
          "time": 108.1875,
          "velocity": 0.47244094488188976,
          "duration": 0.1875
        },
        {
          "name": "D3",
          "midi": 50,
          "time": 108.375,
          "velocity": 0.47244094488188976,
          "duration": 0.75
        },
        {
          "name": "D4",
          "midi": 62,
          "time": 108.375,
          "velocity": 0.47244094488188976,
          "duration": 0.375
        },
        {
          "name": "D3",
          "midi": 50,
          "time": 109.125,
          "velocity": 0.47244094488188976,
          "duration": 0.1875
        },
        {
          "name": "A3",
          "midi": 57,
          "time": 109.125,
          "velocity": 0.47244094488188976,
          "duration": 0.1875
        },
        {
          "name": "D3",
          "midi": 50,
          "time": 109.3125,
          "velocity": 0.47244094488188976,
          "duration": 0.1875
        },
        {
          "name": "A3",
          "midi": 57,
          "time": 109.3125,
          "velocity": 0.47244094488188976,
          "duration": 0.1875
        },
        {
          "name": "D3",
          "midi": 50,
          "time": 109.5,
          "velocity": 0.47244094488188976,
          "duration": 0.75
        },
        {
          "name": "A3",
          "midi": 57,
          "time": 109.5,
          "velocity": 0.47244094488188976,
          "duration": 0.375
        },
        {
          "name": "D2",
          "midi": 38,
          "time": 109.875,
          "velocity": 0.47244094488188976,
          "duration": 1.125
        },
        {
          "name": "D3",
          "midi": 50,
          "time": 110.25,
          "velocity": 0.47244094488188976,
          "duration": 0.1875
        },
        {
          "name": "A#3",
          "midi": 58,
          "time": 110.25,
          "velocity": 0.47244094488188976,
          "duration": 0.1875
        },
        {
          "name": "D3",
          "midi": 50,
          "time": 110.4375,
          "velocity": 0.47244094488188976,
          "duration": 0.1875
        },
        {
          "name": "A#3",
          "midi": 58,
          "time": 110.4375,
          "velocity": 0.47244094488188976,
          "duration": 0.1875
        },
        {
          "name": "D3",
          "midi": 50,
          "time": 110.625,
          "velocity": 0.47244094488188976,
          "duration": 0.75
        },
        {
          "name": "A#3",
          "midi": 58,
          "time": 110.625,
          "velocity": 0.47244094488188976,
          "duration": 0.375
        },
        {
          "name": "D3",
          "midi": 50,
          "time": 111.375,
          "velocity": 0.47244094488188976,
          "duration": 0.1875
        },
        {
          "name": "A#3",
          "midi": 58,
          "time": 111.375,
          "velocity": 0.47244094488188976,
          "duration": 0.1875
        },
        {
          "name": "D3",
          "midi": 50,
          "time": 111.5625,
          "velocity": 0.47244094488188976,
          "duration": 0.1875
        },
        {
          "name": "A#3",
          "midi": 58,
          "time": 111.5625,
          "velocity": 0.47244094488188976,
          "duration": 0.1875
        },
        {
          "name": "D3",
          "midi": 50,
          "time": 111.75,
          "velocity": 0.47244094488188976,
          "duration": 0.75
        },
        {
          "name": "A#3",
          "midi": 58,
          "time": 111.75,
          "velocity": 0.47244094488188976,
          "duration": 0.375
        },
        {
          "name": "D2",
          "midi": 38,
          "time": 112.125,
          "velocity": 0.47244094488188976,
          "duration": 1.125
        },
        {
          "name": "D3",
          "midi": 50,
          "time": 112.5,
          "velocity": 0.47244094488188976,
          "duration": 0.1875
        },
        {
          "name": "B3",
          "midi": 59,
          "time": 112.5,
          "velocity": 0.47244094488188976,
          "duration": 0.1875
        },
        {
          "name": "D3",
          "midi": 50,
          "time": 112.6875,
          "velocity": 0.47244094488188976,
          "duration": 0.1875
        },
        {
          "name": "B3",
          "midi": 59,
          "time": 112.6875,
          "velocity": 0.47244094488188976,
          "duration": 0.1875
        },
        {
          "name": "D3",
          "midi": 50,
          "time": 112.875,
          "velocity": 0.47244094488188976,
          "duration": 0.75
        },
        {
          "name": "B3",
          "midi": 59,
          "time": 112.875,
          "velocity": 0.47244094488188976,
          "duration": 0.375
        },
        {
          "name": "D3",
          "midi": 50,
          "time": 113.625,
          "velocity": 0.47244094488188976,
          "duration": 0.1875
        },
        {
          "name": "B3",
          "midi": 59,
          "time": 113.625,
          "velocity": 0.47244094488188976,
          "duration": 0.1875
        },
        {
          "name": "D3",
          "midi": 50,
          "time": 113.8125,
          "velocity": 0.47244094488188976,
          "duration": 0.1875
        },
        {
          "name": "B3",
          "midi": 59,
          "time": 113.8125,
          "velocity": 0.47244094488188976,
          "duration": 0.1875
        },
        {
          "name": "D3",
          "midi": 50,
          "time": 114,
          "velocity": 0.47244094488188976,
          "duration": 0.75
        },
        {
          "name": "B3",
          "midi": 59,
          "time": 114,
          "velocity": 0.47244094488188976,
          "duration": 0.375
        },
        {
          "name": "D2",
          "midi": 38,
          "time": 114.375,
          "velocity": 0.47244094488188976,
          "duration": 1.125
        },
        {
          "name": "D3",
          "midi": 50,
          "time": 114.75,
          "velocity": 0.47244094488188976,
          "duration": 0.1875
        },
        {
          "name": "C4",
          "midi": 60,
          "time": 114.75,
          "velocity": 0.47244094488188976,
          "duration": 0.1875
        },
        {
          "name": "D3",
          "midi": 50,
          "time": 114.9375,
          "velocity": 0.47244094488188976,
          "duration": 0.1875
        },
        {
          "name": "C4",
          "midi": 60,
          "time": 114.9375,
          "velocity": 0.47244094488188976,
          "duration": 0.1875
        },
        {
          "name": "D3",
          "midi": 50,
          "time": 115.125,
          "velocity": 0.47244094488188976,
          "duration": 0.75
        },
        {
          "name": "C4",
          "midi": 60,
          "time": 115.125,
          "velocity": 0.47244094488188976,
          "duration": 0.375
        },
        {
          "name": "D3",
          "midi": 50,
          "time": 115.875,
          "velocity": 0.47244094488188976,
          "duration": 0.1875
        },
        {
          "name": "C4",
          "midi": 60,
          "time": 115.875,
          "velocity": 0.47244094488188976,
          "duration": 0.1875
        },
        {
          "name": "D3",
          "midi": 50,
          "time": 116.0625,
          "velocity": 0.47244094488188976,
          "duration": 0.1875
        },
        {
          "name": "C4",
          "midi": 60,
          "time": 116.0625,
          "velocity": 0.47244094488188976,
          "duration": 0.1875
        },
        {
          "name": "D3",
          "midi": 50,
          "time": 116.25,
          "velocity": 0.47244094488188976,
          "duration": 0.75
        },
        {
          "name": "C4",
          "midi": 60,
          "time": 116.25,
          "velocity": 0.47244094488188976,
          "duration": 0.375
        },
        {
          "name": "D2",
          "midi": 38,
          "time": 116.625,
          "velocity": 0.47244094488188976,
          "duration": 1.125
        },
        {
          "name": "D3",
          "midi": 50,
          "time": 117,
          "velocity": 0.47244094488188976,
          "duration": 0.1875
        },
        {
          "name": "D4",
          "midi": 62,
          "time": 117,
          "velocity": 0.47244094488188976,
          "duration": 0.1875
        },
        {
          "name": "D3",
          "midi": 50,
          "time": 117.1875,
          "velocity": 0.47244094488188976,
          "duration": 0.1875
        },
        {
          "name": "D4",
          "midi": 62,
          "time": 117.1875,
          "velocity": 0.47244094488188976,
          "duration": 0.1875
        },
        {
          "name": "D3",
          "midi": 50,
          "time": 117.375,
          "velocity": 0.47244094488188976,
          "duration": 0.75
        },
        {
          "name": "D4",
          "midi": 62,
          "time": 117.375,
          "velocity": 0.47244094488188976,
          "duration": 0.375
        },
        {
          "name": "D3",
          "midi": 50,
          "time": 118.125,
          "velocity": 0.47244094488188976,
          "duration": 0.1875
        },
        {
          "name": "A3",
          "midi": 57,
          "time": 118.125,
          "velocity": 0.47244094488188976,
          "duration": 0.1875
        },
        {
          "name": "D3",
          "midi": 50,
          "time": 118.3125,
          "velocity": 0.47244094488188976,
          "duration": 0.1875
        },
        {
          "name": "A3",
          "midi": 57,
          "time": 118.3125,
          "velocity": 0.47244094488188976,
          "duration": 0.1875
        },
        {
          "name": "D3",
          "midi": 50,
          "time": 118.5,
          "velocity": 0.47244094488188976,
          "duration": 0.75
        },
        {
          "name": "A3",
          "midi": 57,
          "time": 118.5,
          "velocity": 0.47244094488188976,
          "duration": 0.375
        },
        {
          "name": "D2",
          "midi": 38,
          "time": 118.875,
          "velocity": 0.47244094488188976,
          "duration": 1.125
        },
        {
          "name": "D3",
          "midi": 50,
          "time": 119.25,
          "velocity": 0.47244094488188976,
          "duration": 0.1875
        },
        {
          "name": "A#3",
          "midi": 58,
          "time": 119.25,
          "velocity": 0.47244094488188976,
          "duration": 0.1875
        },
        {
          "name": "D3",
          "midi": 50,
          "time": 119.4375,
          "velocity": 0.47244094488188976,
          "duration": 0.1875
        },
        {
          "name": "A#3",
          "midi": 58,
          "time": 119.4375,
          "velocity": 0.47244094488188976,
          "duration": 0.1875
        },
        {
          "name": "D3",
          "midi": 50,
          "time": 119.625,
          "velocity": 0.47244094488188976,
          "duration": 12.1875
        },
        {
          "name": "A#3",
          "midi": 58,
          "time": 119.625,
          "velocity": 0.47244094488188976,
          "duration": 0.375
        },
        {
          "name": "D4",
          "midi": 62,
          "time": 126,
          "velocity": 1,
          "duration": 0.5625
        },
        {
          "name": "G4",
          "midi": 67,
          "time": 126,
          "velocity": 1,
          "duration": 0.5625
        },
        {
          "name": "A3",
          "midi": 57,
          "time": 126,
          "velocity": 1,
          "duration": 0.5625
        },
        {
          "name": "D5",
          "midi": 74,
          "time": 126,
          "velocity": 1,
          "duration": 0.5625
        },
        {
          "name": "D4",
          "midi": 62,
          "time": 126.5625,
          "velocity": 1,
          "duration": 0.5625
        },
        {
          "name": "F#4",
          "midi": 66,
          "time": 126.5625,
          "velocity": 1,
          "duration": 0.5625
        },
        {
          "name": "A3",
          "midi": 57,
          "time": 126.5625,
          "velocity": 1,
          "duration": 0.5625
        },
        {
          "name": "D5",
          "midi": 74,
          "time": 126.5625,
          "velocity": 1,
          "duration": 0.5625
        },
        {
          "name": "C4",
          "midi": 60,
          "time": 127.125,
          "velocity": 1,
          "duration": 0.5625
        },
        {
          "name": "F4",
          "midi": 65,
          "time": 127.125,
          "velocity": 1,
          "duration": 0.5625
        },
        {
          "name": "A3",
          "midi": 57,
          "time": 127.125,
          "velocity": 1,
          "duration": 0.5625
        },
        {
          "name": "C5",
          "midi": 72,
          "time": 127.125,
          "velocity": 1,
          "duration": 0.5625
        },
        {
          "name": "C4",
          "midi": 60,
          "time": 127.6875,
          "velocity": 1,
          "duration": 0.5625
        },
        {
          "name": "E4",
          "midi": 64,
          "time": 127.6875,
          "velocity": 1,
          "duration": 0.5625
        },
        {
          "name": "A3",
          "midi": 57,
          "time": 127.6875,
          "velocity": 1,
          "duration": 0.5625
        },
        {
          "name": "C5",
          "midi": 72,
          "time": 127.6875,
          "velocity": 1,
          "duration": 0.5625
        },
        {
          "name": "A3",
          "midi": 57,
          "time": 128.25,
          "velocity": 1,
          "duration": 0.375
        },
        {
          "name": "D4",
          "midi": 62,
          "time": 128.25,
          "velocity": 1,
          "duration": 0.375
        },
        {
          "name": "A4",
          "midi": 69,
          "time": 128.25,
          "velocity": 1,
          "duration": 0.375
        },
        {
          "name": "A3",
          "midi": 57,
          "time": 128.625,
          "velocity": 1,
          "duration": 0.9375
        },
        {
          "name": "C#4",
          "midi": 61,
          "time": 128.625,
          "velocity": 1,
          "duration": 0.375
        },
        {
          "name": "A4",
          "midi": 69,
          "time": 128.625,
          "velocity": 1,
          "duration": 0.375
        },
        {
          "name": "G3",
          "midi": 55,
          "time": 129,
          "velocity": 1,
          "duration": 0.5625
        },
        {
          "name": "C4",
          "midi": 60,
          "time": 129,
          "velocity": 1,
          "duration": 0.5625
        },
        {
          "name": "A3",
          "midi": 57,
          "time": 129,
          "velocity": 1,
          "duration": 1.125
        },
        {
          "name": "G4",
          "midi": 67,
          "time": 129,
          "velocity": 1,
          "duration": 0.5625
        },
        {
          "name": "G3",
          "midi": 55,
          "time": 129.5625,
          "velocity": 1,
          "duration": 0.5625
        },
        {
          "name": "B3",
          "midi": 59,
          "time": 129.5625,
          "velocity": 1,
          "duration": 0.5625
        },
        {
          "name": "A3",
          "midi": 57,
          "time": 129.5625,
          "velocity": 1,
          "duration": 1.125
        },
        {
          "name": "G4",
          "midi": 67,
          "time": 129.5625,
          "velocity": 1,
          "duration": 0.5625
        },
        {
          "name": "F3",
          "midi": 53,
          "time": 130.125,
          "velocity": 1,
          "duration": 0.5625
        },
        {
          "name": "A#3",
          "midi": 58,
          "time": 130.125,
          "velocity": 1,
          "duration": 0.5625
        },
        {
          "name": "A3",
          "midi": 57,
          "time": 130.125,
          "velocity": 1,
          "duration": 0.5625
        },
        {
          "name": "F4",
          "midi": 65,
          "time": 130.125,
          "velocity": 1,
          "duration": 0.5625
        },
        {
          "name": "F3",
          "midi": 53,
          "time": 130.6875,
          "velocity": 1,
          "duration": 0.5625
        },
        {
          "name": "A3",
          "midi": 57,
          "time": 130.6875,
          "velocity": 1,
          "duration": 5.0625
        },
        {
          "name": "F4",
          "midi": 65,
          "time": 130.6875,
          "velocity": 1,
          "duration": 0.5625
        },
        {
          "name": "F3",
          "midi": 53,
          "time": 131.25,
          "velocity": 1,
          "duration": 0.1875
        },
        {
          "name": "E3",
          "midi": 52,
          "time": 131.4375,
          "velocity": 1,
          "duration": 0.1875
        },
        {
          "name": "D3",
          "midi": 50,
          "time": 131.625,
          "velocity": 1,
          "duration": 0.75
        },
        {
          "name": "A2",
          "midi": 45,
          "time": 131.8125,
          "velocity": 1,
          "duration": 0.1875
        },
        {
          "name": "B2",
          "midi": 47,
          "time": 132,
          "velocity": 1,
          "duration": 0.1875
        },
        {
          "name": "D3",
          "midi": 50,
          "time": 132.1875,
          "velocity": 1,
          "duration": 11.625
        },
        {
          "name": "A2",
          "midi": 45,
          "time": 132.375,
          "velocity": 1,
          "duration": 0.375
        },
        {
          "name": "E3",
          "midi": 52,
          "time": 132.375,
          "velocity": 1,
          "duration": 0.375
        },
        {
          "name": "A2",
          "midi": 45,
          "time": 133.5,
          "velocity": 1,
          "duration": 0.375
        },
        {
          "name": "F#3",
          "midi": 54,
          "time": 133.5,
          "velocity": 1,
          "duration": 0.375
        },
        {
          "name": "A2",
          "midi": 45,
          "time": 134.25,
          "velocity": 1,
          "duration": 0.375
        },
        {
          "name": "E3",
          "midi": 52,
          "time": 134.25,
          "velocity": 1,
          "duration": 0.375
        },
        {
          "name": "A3",
          "midi": 57,
          "time": 135,
          "velocity": 1,
          "duration": 6.75
        },
        {
          "name": "C#4",
          "midi": 61,
          "time": 135,
          "velocity": 1,
          "duration": 0.75
        },
        {
          "name": "A2",
          "midi": 45,
          "time": 135.75,
          "velocity": 1,
          "duration": 0.375
        },
        {
          "name": "E3",
          "midi": 52,
          "time": 135.75,
          "velocity": 1,
          "duration": 0.375
        },
        {
          "name": "A2",
          "midi": 45,
          "time": 138.375,
          "velocity": 1,
          "duration": 0.375
        },
        {
          "name": "E3",
          "midi": 52,
          "time": 138.375,
          "velocity": 1,
          "duration": 0.375
        },
        {
          "name": "A2",
          "midi": 45,
          "time": 139.5,
          "velocity": 1,
          "duration": 0.375
        },
        {
          "name": "F#3",
          "midi": 54,
          "time": 139.5,
          "velocity": 1,
          "duration": 0.375
        },
        {
          "name": "A2",
          "midi": 45,
          "time": 140.25,
          "velocity": 1,
          "duration": 0.375
        },
        {
          "name": "E3",
          "midi": 52,
          "time": 140.25,
          "velocity": 1,
          "duration": 0.375
        },
        {
          "name": "A3",
          "midi": 57,
          "time": 141,
          "velocity": 1,
          "duration": 6.75
        },
        {
          "name": "C#4",
          "midi": 61,
          "time": 141,
          "velocity": 1,
          "duration": 0.75
        },
        {
          "name": "A2",
          "midi": 45,
          "time": 141.75,
          "velocity": 1,
          "duration": 0.375
        },
        {
          "name": "E3",
          "midi": 52,
          "time": 141.75,
          "velocity": 1,
          "duration": 0.375
        },
        {
          "name": "F3",
          "midi": 53,
          "time": 143.25,
          "velocity": 1,
          "duration": 0.1875
        },
        {
          "name": "E3",
          "midi": 52,
          "time": 143.4375,
          "velocity": 1,
          "duration": 0.1875
        },
        {
          "name": "D3",
          "midi": 50,
          "time": 143.625,
          "velocity": 1,
          "duration": 0.75
        },
        {
          "name": "A2",
          "midi": 45,
          "time": 143.8125,
          "velocity": 1,
          "duration": 0.1875
        },
        {
          "name": "B2",
          "midi": 47,
          "time": 144,
          "velocity": 1,
          "duration": 0.1875
        },
        {
          "name": "D3",
          "midi": 50,
          "time": 144.1875,
          "velocity": 1,
          "duration": 11.625
        },
        {
          "name": "A2",
          "midi": 45,
          "time": 144.375,
          "velocity": 1,
          "duration": 0.375
        },
        {
          "name": "E3",
          "midi": 52,
          "time": 144.375,
          "velocity": 1,
          "duration": 0.375
        },
        {
          "name": "A2",
          "midi": 45,
          "time": 145.5,
          "velocity": 1,
          "duration": 0.375
        },
        {
          "name": "F#3",
          "midi": 54,
          "time": 145.5,
          "velocity": 1,
          "duration": 0.375
        },
        {
          "name": "A2",
          "midi": 45,
          "time": 146.25,
          "velocity": 1,
          "duration": 0.375
        },
        {
          "name": "E3",
          "midi": 52,
          "time": 146.25,
          "velocity": 1,
          "duration": 0.375
        },
        {
          "name": "A3",
          "midi": 57,
          "time": 147,
          "velocity": 1,
          "duration": 6.75
        },
        {
          "name": "C#4",
          "midi": 61,
          "time": 147,
          "velocity": 1,
          "duration": 0.75
        },
        {
          "name": "A2",
          "midi": 45,
          "time": 147.75,
          "velocity": 1,
          "duration": 0.375
        },
        {
          "name": "E3",
          "midi": 52,
          "time": 147.75,
          "velocity": 1,
          "duration": 0.375
        },
        {
          "name": "A2",
          "midi": 45,
          "time": 150.375,
          "velocity": 1,
          "duration": 0.375
        },
        {
          "name": "E3",
          "midi": 52,
          "time": 150.375,
          "velocity": 1,
          "duration": 0.375
        },
        {
          "name": "A2",
          "midi": 45,
          "time": 151.5,
          "velocity": 1,
          "duration": 0.375
        },
        {
          "name": "F#3",
          "midi": 54,
          "time": 151.5,
          "velocity": 1,
          "duration": 0.375
        },
        {
          "name": "A2",
          "midi": 45,
          "time": 152.25,
          "velocity": 1,
          "duration": 0.375
        },
        {
          "name": "E3",
          "midi": 52,
          "time": 152.25,
          "velocity": 1,
          "duration": 0.375
        },
        {
          "name": "A3",
          "midi": 57,
          "time": 153,
          "velocity": 1,
          "duration": 6.75
        },
        {
          "name": "C#4",
          "midi": 61,
          "time": 153,
          "velocity": 1,
          "duration": 0.75
        },
        {
          "name": "A2",
          "midi": 45,
          "time": 153.75,
          "velocity": 1,
          "duration": 0.375
        },
        {
          "name": "E3",
          "midi": 52,
          "time": 153.75,
          "velocity": 1,
          "duration": 0.375
        },
        {
          "name": "F3",
          "midi": 53,
          "time": 155.25,
          "velocity": 1,
          "duration": 0.1875
        },
        {
          "name": "E3",
          "midi": 52,
          "time": 155.4375,
          "velocity": 1,
          "duration": 0.1875
        },
        {
          "name": "D3",
          "midi": 50,
          "time": 155.625,
          "velocity": 1,
          "duration": 0.75
        },
        {
          "name": "A2",
          "midi": 45,
          "time": 155.8125,
          "velocity": 1,
          "duration": 0.1875
        },
        {
          "name": "B2",
          "midi": 47,
          "time": 156,
          "velocity": 1,
          "duration": 0.1875
        },
        {
          "name": "D3",
          "midi": 50,
          "time": 156.1875,
          "velocity": 1,
          "duration": 11.625
        },
        {
          "name": "A2",
          "midi": 45,
          "time": 156.375,
          "velocity": 1,
          "duration": 0.375
        },
        {
          "name": "E3",
          "midi": 52,
          "time": 156.375,
          "velocity": 1,
          "duration": 0.375
        },
        {
          "name": "A2",
          "midi": 45,
          "time": 157.5,
          "velocity": 1,
          "duration": 0.375
        },
        {
          "name": "F#3",
          "midi": 54,
          "time": 157.5,
          "velocity": 1,
          "duration": 0.375
        },
        {
          "name": "A2",
          "midi": 45,
          "time": 158.25,
          "velocity": 1,
          "duration": 0.375
        },
        {
          "name": "E3",
          "midi": 52,
          "time": 158.25,
          "velocity": 1,
          "duration": 0.375
        },
        {
          "name": "A3",
          "midi": 57,
          "time": 159,
          "velocity": 1,
          "duration": 6.75
        },
        {
          "name": "C#4",
          "midi": 61,
          "time": 159,
          "velocity": 1,
          "duration": 0.75
        },
        {
          "name": "A2",
          "midi": 45,
          "time": 159.75,
          "velocity": 1,
          "duration": 0.375
        },
        {
          "name": "E3",
          "midi": 52,
          "time": 159.75,
          "velocity": 1,
          "duration": 0.375
        },
        {
          "name": "A2",
          "midi": 45,
          "time": 162.375,
          "velocity": 1,
          "duration": 0.375
        },
        {
          "name": "E3",
          "midi": 52,
          "time": 162.375,
          "velocity": 1,
          "duration": 0.375
        },
        {
          "name": "A2",
          "midi": 45,
          "time": 163.5,
          "velocity": 1,
          "duration": 0.375
        },
        {
          "name": "F#3",
          "midi": 54,
          "time": 163.5,
          "velocity": 1,
          "duration": 0.375
        },
        {
          "name": "A2",
          "midi": 45,
          "time": 164.25,
          "velocity": 1,
          "duration": 0.375
        },
        {
          "name": "E3",
          "midi": 52,
          "time": 164.25,
          "velocity": 1,
          "duration": 0.375
        },
        {
          "name": "A3",
          "midi": 57,
          "time": 165,
          "velocity": 1,
          "duration": 6.75
        },
        {
          "name": "C#4",
          "midi": 61,
          "time": 165,
          "velocity": 1,
          "duration": 0.75
        },
        {
          "name": "A2",
          "midi": 45,
          "time": 165.75,
          "velocity": 1,
          "duration": 0.375
        },
        {
          "name": "E3",
          "midi": 52,
          "time": 165.75,
          "velocity": 1,
          "duration": 0.375
        },
        {
          "name": "F3",
          "midi": 53,
          "time": 167.25,
          "velocity": 1,
          "duration": 0.1875
        },
        {
          "name": "E3",
          "midi": 52,
          "time": 167.4375,
          "velocity": 1,
          "duration": 0.1875
        },
        {
          "name": "D3",
          "midi": 50,
          "time": 167.625,
          "velocity": 1,
          "duration": 0.75
        },
        {
          "name": "A2",
          "midi": 45,
          "time": 167.8125,
          "velocity": 1,
          "duration": 0.1875
        },
        {
          "name": "B2",
          "midi": 47,
          "time": 168,
          "velocity": 1,
          "duration": 0.1875
        },
        {
          "name": "D3",
          "midi": 50,
          "time": 168.1875,
          "velocity": 1,
          "duration": 11.625
        },
        {
          "name": "A2",
          "midi": 45,
          "time": 168.375,
          "velocity": 1,
          "duration": 0.375
        },
        {
          "name": "E3",
          "midi": 52,
          "time": 168.375,
          "velocity": 1,
          "duration": 0.375
        },
        {
          "name": "A2",
          "midi": 45,
          "time": 169.5,
          "velocity": 1,
          "duration": 0.375
        },
        {
          "name": "F#3",
          "midi": 54,
          "time": 169.5,
          "velocity": 1,
          "duration": 0.375
        },
        {
          "name": "A2",
          "midi": 45,
          "time": 170.25,
          "velocity": 1,
          "duration": 0.375
        },
        {
          "name": "E3",
          "midi": 52,
          "time": 170.25,
          "velocity": 1,
          "duration": 0.375
        },
        {
          "name": "A3",
          "midi": 57,
          "time": 171,
          "velocity": 1,
          "duration": 6.75
        },
        {
          "name": "C#4",
          "midi": 61,
          "time": 171,
          "velocity": 1,
          "duration": 0.75
        },
        {
          "name": "A2",
          "midi": 45,
          "time": 171.75,
          "velocity": 1,
          "duration": 0.375
        },
        {
          "name": "E3",
          "midi": 52,
          "time": 171.75,
          "velocity": 1,
          "duration": 0.375
        },
        {
          "name": "A2",
          "midi": 45,
          "time": 174.375,
          "velocity": 1,
          "duration": 0.375
        },
        {
          "name": "E3",
          "midi": 52,
          "time": 174.375,
          "velocity": 1,
          "duration": 0.375
        },
        {
          "name": "A2",
          "midi": 45,
          "time": 175.5,
          "velocity": 1,
          "duration": 0.375
        },
        {
          "name": "F#3",
          "midi": 54,
          "time": 175.5,
          "velocity": 1,
          "duration": 0.375
        },
        {
          "name": "A2",
          "midi": 45,
          "time": 176.25,
          "velocity": 1,
          "duration": 0.375
        },
        {
          "name": "E3",
          "midi": 52,
          "time": 176.25,
          "velocity": 1,
          "duration": 0.375
        },
        {
          "name": "A3",
          "midi": 57,
          "time": 177,
          "velocity": 1,
          "duration": 6.75
        },
        {
          "name": "C#4",
          "midi": 61,
          "time": 177,
          "velocity": 1,
          "duration": 0.75
        },
        {
          "name": "A2",
          "midi": 45,
          "time": 177.75,
          "velocity": 1,
          "duration": 0.375
        },
        {
          "name": "E3",
          "midi": 52,
          "time": 177.75,
          "velocity": 1,
          "duration": 0.375
        },
        {
          "name": "F3",
          "midi": 53,
          "time": 179.25,
          "velocity": 1,
          "duration": 0.1875
        },
        {
          "name": "E3",
          "midi": 52,
          "time": 179.4375,
          "velocity": 1,
          "duration": 0.1875
        },
        {
          "name": "D3",
          "midi": 50,
          "time": 179.625,
          "velocity": 1,
          "duration": 0.75
        },
        {
          "name": "A2",
          "midi": 45,
          "time": 179.8125,
          "velocity": 1,
          "duration": 0.1875
        },
        {
          "name": "B2",
          "midi": 47,
          "time": 180,
          "velocity": 1,
          "duration": 0.1875
        },
        {
          "name": "D3",
          "midi": 50,
          "time": 180.1875,
          "velocity": 1,
          "duration": 11.625
        },
        {
          "name": "A2",
          "midi": 45,
          "time": 180.375,
          "velocity": 1,
          "duration": 0.375
        },
        {
          "name": "E3",
          "midi": 52,
          "time": 180.375,
          "velocity": 1,
          "duration": 0.375
        },
        {
          "name": "A2",
          "midi": 45,
          "time": 181.5,
          "velocity": 1,
          "duration": 0.375
        },
        {
          "name": "F#3",
          "midi": 54,
          "time": 181.5,
          "velocity": 1,
          "duration": 0.375
        },
        {
          "name": "A2",
          "midi": 45,
          "time": 182.25,
          "velocity": 1,
          "duration": 0.375
        },
        {
          "name": "E3",
          "midi": 52,
          "time": 182.25,
          "velocity": 1,
          "duration": 0.375
        },
        {
          "name": "A3",
          "midi": 57,
          "time": 183,
          "velocity": 1,
          "duration": 6.75
        },
        {
          "name": "C#4",
          "midi": 61,
          "time": 183,
          "velocity": 1,
          "duration": 0.75
        },
        {
          "name": "A2",
          "midi": 45,
          "time": 183.75,
          "velocity": 1,
          "duration": 0.375
        },
        {
          "name": "E3",
          "midi": 52,
          "time": 183.75,
          "velocity": 1,
          "duration": 0.375
        },
        {
          "name": "A2",
          "midi": 45,
          "time": 186.375,
          "velocity": 1,
          "duration": 0.375
        },
        {
          "name": "E3",
          "midi": 52,
          "time": 186.375,
          "velocity": 1,
          "duration": 0.375
        },
        {
          "name": "A2",
          "midi": 45,
          "time": 187.5,
          "velocity": 1,
          "duration": 0.375
        },
        {
          "name": "F#3",
          "midi": 54,
          "time": 187.5,
          "velocity": 1,
          "duration": 0.375
        },
        {
          "name": "A2",
          "midi": 45,
          "time": 188.25,
          "velocity": 1,
          "duration": 0.375
        },
        {
          "name": "E3",
          "midi": 52,
          "time": 188.25,
          "velocity": 1,
          "duration": 0.375
        },
        {
          "name": "A3",
          "midi": 57,
          "time": 189,
          "velocity": 1,
          "duration": 3.9375
        },
        {
          "name": "C#4",
          "midi": 61,
          "time": 189,
          "velocity": 1,
          "duration": 0.75
        },
        {
          "name": "A2",
          "midi": 45,
          "time": 189.75,
          "velocity": 1,
          "duration": 0.375
        },
        {
          "name": "E3",
          "midi": 52,
          "time": 189.75,
          "velocity": 1,
          "duration": 0.375
        },
        {
          "name": "F3",
          "midi": 53,
          "time": 191.25,
          "velocity": 1,
          "duration": 0.1875
        },
        {
          "name": "E3",
          "midi": 52,
          "time": 191.4375,
          "velocity": 1,
          "duration": 0.1875
        },
        {
          "name": "D3",
          "midi": 50,
          "time": 191.625,
          "velocity": 1,
          "duration": 0.75
        },
        {
          "name": "A2",
          "midi": 45,
          "time": 191.8125,
          "velocity": 1,
          "duration": 0.1875
        },
        {
          "name": "B2",
          "midi": 47,
          "time": 192,
          "velocity": 1,
          "duration": 0.1875
        },
        {
          "name": "D3",
          "midi": 50,
          "time": 192.1875,
          "velocity": 1,
          "duration": 6.1875
        },
        {
          "name": "D4",
          "midi": 62,
          "time": 192.375,
          "velocity": 1,
          "duration": 0.5625
        },
        {
          "name": "G4",
          "midi": 67,
          "time": 192.375,
          "velocity": 1,
          "duration": 0.5625
        },
        {
          "name": "A3",
          "midi": 57,
          "time": 192.375,
          "velocity": 1,
          "duration": 1.125
        },
        {
          "name": "D5",
          "midi": 74,
          "time": 192.375,
          "velocity": 1,
          "duration": 0.5625
        },
        {
          "name": "D4",
          "midi": 62,
          "time": 192.9375,
          "velocity": 1,
          "duration": 0.5625
        },
        {
          "name": "F#4",
          "midi": 66,
          "time": 192.9375,
          "velocity": 1,
          "duration": 0.5625
        },
        {
          "name": "A3",
          "midi": 57,
          "time": 192.9375,
          "velocity": 1,
          "duration": 1.125
        },
        {
          "name": "D5",
          "midi": 74,
          "time": 192.9375,
          "velocity": 1,
          "duration": 0.5625
        },
        {
          "name": "C4",
          "midi": 60,
          "time": 193.5,
          "velocity": 1,
          "duration": 0.5625
        },
        {
          "name": "F4",
          "midi": 65,
          "time": 193.5,
          "velocity": 1,
          "duration": 0.5625
        },
        {
          "name": "A3",
          "midi": 57,
          "time": 193.5,
          "velocity": 1,
          "duration": 1.125
        },
        {
          "name": "C5",
          "midi": 72,
          "time": 193.5,
          "velocity": 1,
          "duration": 0.5625
        },
        {
          "name": "C4",
          "midi": 60,
          "time": 194.0625,
          "velocity": 1,
          "duration": 0.5625
        },
        {
          "name": "E4",
          "midi": 64,
          "time": 194.0625,
          "velocity": 1,
          "duration": 0.5625
        },
        {
          "name": "A3",
          "midi": 57,
          "time": 194.0625,
          "velocity": 1,
          "duration": 0.5625
        },
        {
          "name": "C5",
          "midi": 72,
          "time": 194.0625,
          "velocity": 1,
          "duration": 0.5625
        },
        {
          "name": "A3",
          "midi": 57,
          "time": 194.625,
          "velocity": 1,
          "duration": 0.375
        },
        {
          "name": "D4",
          "midi": 62,
          "time": 194.625,
          "velocity": 1,
          "duration": 0.375
        },
        {
          "name": "A4",
          "midi": 69,
          "time": 194.625,
          "velocity": 1,
          "duration": 0.375
        },
        {
          "name": "A3",
          "midi": 57,
          "time": 195,
          "velocity": 1,
          "duration": 0.9375
        },
        {
          "name": "C#4",
          "midi": 61,
          "time": 195,
          "velocity": 1,
          "duration": 0.375
        },
        {
          "name": "A4",
          "midi": 69,
          "time": 195,
          "velocity": 1,
          "duration": 0.375
        },
        {
          "name": "G3",
          "midi": 55,
          "time": 195.375,
          "velocity": 1,
          "duration": 0.5625
        },
        {
          "name": "C4",
          "midi": 60,
          "time": 195.375,
          "velocity": 1,
          "duration": 0.5625
        },
        {
          "name": "A3",
          "midi": 57,
          "time": 195.375,
          "velocity": 1,
          "duration": 1.125
        },
        {
          "name": "G4",
          "midi": 67,
          "time": 195.375,
          "velocity": 1,
          "duration": 0.5625
        },
        {
          "name": "G3",
          "midi": 55,
          "time": 195.9375,
          "velocity": 1,
          "duration": 0.5625
        },
        {
          "name": "B3",
          "midi": 59,
          "time": 195.9375,
          "velocity": 1,
          "duration": 0.5625
        },
        {
          "name": "A3",
          "midi": 57,
          "time": 195.9375,
          "velocity": 1,
          "duration": 1.125
        },
        {
          "name": "G4",
          "midi": 67,
          "time": 195.9375,
          "velocity": 1,
          "duration": 0.5625
        },
        {
          "name": "F3",
          "midi": 53,
          "time": 196.5,
          "velocity": 1,
          "duration": 0.5625
        },
        {
          "name": "A#3",
          "midi": 58,
          "time": 196.5,
          "velocity": 1,
          "duration": 0.5625
        },
        {
          "name": "A3",
          "midi": 57,
          "time": 196.5,
          "velocity": 1,
          "duration": 0.5625
        },
        {
          "name": "F4",
          "midi": 65,
          "time": 196.5,
          "velocity": 1,
          "duration": 0.5625
        },
        {
          "name": "F3",
          "midi": 53,
          "time": 197.0625,
          "velocity": 1,
          "duration": 0.5625
        },
        {
          "name": "A3",
          "midi": 57,
          "time": 197.0625,
          "velocity": 1,
          "duration": 1.875
        },
        {
          "name": "F4",
          "midi": 65,
          "time": 197.0625,
          "velocity": 1,
          "duration": 0.5625
        },
        {
          "name": "F3",
          "midi": 53,
          "time": 197.625,
          "velocity": 1,
          "duration": 0.1875
        },
        {
          "name": "E3",
          "midi": 52,
          "time": 197.8125,
          "velocity": 1,
          "duration": 0.1875
        },
        {
          "name": "D3",
          "midi": 50,
          "time": 198,
          "velocity": 1,
          "duration": 6.375
        },
        {
          "name": "D4",
          "midi": 62,
          "time": 198.375,
          "velocity": 1,
          "duration": 0.5625
        },
        {
          "name": "G4",
          "midi": 67,
          "time": 198.375,
          "velocity": 1,
          "duration": 0.5625
        },
        {
          "name": "A3",
          "midi": 57,
          "time": 198.375,
          "velocity": 1,
          "duration": 1.125
        },
        {
          "name": "D5",
          "midi": 74,
          "time": 198.375,
          "velocity": 1,
          "duration": 0.5625
        },
        {
          "name": "D4",
          "midi": 62,
          "time": 198.9375,
          "velocity": 1,
          "duration": 0.5625
        },
        {
          "name": "F#4",
          "midi": 66,
          "time": 198.9375,
          "velocity": 1,
          "duration": 0.5625
        },
        {
          "name": "A3",
          "midi": 57,
          "time": 198.9375,
          "velocity": 1,
          "duration": 1.125
        },
        {
          "name": "D5",
          "midi": 74,
          "time": 198.9375,
          "velocity": 1,
          "duration": 0.5625
        },
        {
          "name": "C4",
          "midi": 60,
          "time": 199.5,
          "velocity": 1,
          "duration": 0.5625
        },
        {
          "name": "F4",
          "midi": 65,
          "time": 199.5,
          "velocity": 1,
          "duration": 0.5625
        },
        {
          "name": "A3",
          "midi": 57,
          "time": 199.5,
          "velocity": 1,
          "duration": 1.125
        },
        {
          "name": "C5",
          "midi": 72,
          "time": 199.5,
          "velocity": 1,
          "duration": 0.5625
        },
        {
          "name": "C4",
          "midi": 60,
          "time": 200.0625,
          "velocity": 1,
          "duration": 0.5625
        },
        {
          "name": "E4",
          "midi": 64,
          "time": 200.0625,
          "velocity": 1,
          "duration": 0.5625
        },
        {
          "name": "A3",
          "midi": 57,
          "time": 200.0625,
          "velocity": 1,
          "duration": 0.5625
        },
        {
          "name": "C5",
          "midi": 72,
          "time": 200.0625,
          "velocity": 1,
          "duration": 0.5625
        },
        {
          "name": "A3",
          "midi": 57,
          "time": 200.625,
          "velocity": 1,
          "duration": 0.375
        },
        {
          "name": "D4",
          "midi": 62,
          "time": 200.625,
          "velocity": 1,
          "duration": 0.375
        },
        {
          "name": "A4",
          "midi": 69,
          "time": 200.625,
          "velocity": 1,
          "duration": 0.375
        },
        {
          "name": "A3",
          "midi": 57,
          "time": 201,
          "velocity": 1,
          "duration": 0.9375
        },
        {
          "name": "C#4",
          "midi": 61,
          "time": 201,
          "velocity": 1,
          "duration": 0.375
        },
        {
          "name": "A4",
          "midi": 69,
          "time": 201,
          "velocity": 1,
          "duration": 0.375
        },
        {
          "name": "G3",
          "midi": 55,
          "time": 201.375,
          "velocity": 1,
          "duration": 0.5625
        },
        {
          "name": "C4",
          "midi": 60,
          "time": 201.375,
          "velocity": 1,
          "duration": 0.5625
        },
        {
          "name": "A3",
          "midi": 57,
          "time": 201.375,
          "velocity": 1,
          "duration": 1.125
        },
        {
          "name": "G4",
          "midi": 67,
          "time": 201.375,
          "velocity": 1,
          "duration": 0.5625
        },
        {
          "name": "G3",
          "midi": 55,
          "time": 201.9375,
          "velocity": 1,
          "duration": 0.5625
        },
        {
          "name": "B3",
          "midi": 59,
          "time": 201.9375,
          "velocity": 1,
          "duration": 0.5625
        },
        {
          "name": "A3",
          "midi": 57,
          "time": 201.9375,
          "velocity": 1,
          "duration": 1.125
        },
        {
          "name": "G4",
          "midi": 67,
          "time": 201.9375,
          "velocity": 1,
          "duration": 0.5625
        },
        {
          "name": "F3",
          "midi": 53,
          "time": 202.5,
          "velocity": 1,
          "duration": 0.5625
        },
        {
          "name": "A#3",
          "midi": 58,
          "time": 202.5,
          "velocity": 1,
          "duration": 0.5625
        },
        {
          "name": "A3",
          "midi": 57,
          "time": 202.5,
          "velocity": 1,
          "duration": 0.5625
        },
        {
          "name": "F4",
          "midi": 65,
          "time": 202.5,
          "velocity": 1,
          "duration": 0.5625
        },
        {
          "name": "F3",
          "midi": 53,
          "time": 203.0625,
          "velocity": 1,
          "duration": 0.5625
        },
        {
          "name": "A3",
          "midi": 57,
          "time": 203.0625,
          "velocity": 1,
          "duration": 116.625
        },
        {
          "name": "F4",
          "midi": 65,
          "time": 203.0625,
          "velocity": 1,
          "duration": 0.5625
        },
        {
          "name": "F3",
          "midi": 53,
          "time": 203.625,
          "velocity": 1,
          "duration": 0.1875
        },
        {
          "name": "E3",
          "midi": 52,
          "time": 203.8125,
          "velocity": 1,
          "duration": 0.1875
        },
        {
          "name": "D3",
          "midi": 50,
          "time": 204,
          "velocity": 1,
          "duration": 114.375
        },
        {
          "name": "D2",
          "midi": 38,
          "time": 318,
          "velocity": 0.47244094488188976,
          "duration": 1.125
        },
        {
          "name": "D3",
          "midi": 50,
          "time": 318.375,
          "velocity": 0.47244094488188976,
          "duration": 0.1875
        },
        {
          "name": "D4",
          "midi": 62,
          "time": 318.375,
          "velocity": 0.47244094488188976,
          "duration": 0.1875
        },
        {
          "name": "D3",
          "midi": 50,
          "time": 318.5625,
          "velocity": 0.47244094488188976,
          "duration": 0.1875
        },
        {
          "name": "D4",
          "midi": 62,
          "time": 318.5625,
          "velocity": 0.47244094488188976,
          "duration": 0.1875
        },
        {
          "name": "D3",
          "midi": 50,
          "time": 318.75,
          "velocity": 0.47244094488188976,
          "duration": 0.75
        },
        {
          "name": "D4",
          "midi": 62,
          "time": 318.75,
          "velocity": 0.47244094488188976,
          "duration": 0.375
        },
        {
          "name": "D3",
          "midi": 50,
          "time": 319.5,
          "velocity": 0.47244094488188976,
          "duration": 0.1875
        },
        {
          "name": "A3",
          "midi": 57,
          "time": 319.5,
          "velocity": 0.47244094488188976,
          "duration": 0.375
        },
        {
          "name": "D3",
          "midi": 50,
          "time": 319.6875,
          "velocity": 0.47244094488188976,
          "duration": 0.1875
        },
        {
          "name": "A3",
          "midi": 57,
          "time": 319.6875,
          "velocity": 0.47244094488188976,
          "duration": 0.5625
        },
        {
          "name": "D3",
          "midi": 50,
          "time": 319.875,
          "velocity": 0.47244094488188976,
          "duration": 0.75
        },
        {
          "name": "A3",
          "midi": 57,
          "time": 319.875,
          "velocity": 0.47244094488188976,
          "duration": 8.8125
        },
        {
          "name": "D2",
          "midi": 38,
          "time": 320.25,
          "velocity": 0.47244094488188976,
          "duration": 1.125
        },
        {
          "name": "D3",
          "midi": 50,
          "time": 320.625,
          "velocity": 0.47244094488188976,
          "duration": 0.1875
        },
        {
          "name": "A#3",
          "midi": 58,
          "time": 320.625,
          "velocity": 0.47244094488188976,
          "duration": 0.1875
        },
        {
          "name": "D3",
          "midi": 50,
          "time": 320.8125,
          "velocity": 0.47244094488188976,
          "duration": 0.1875
        },
        {
          "name": "A#3",
          "midi": 58,
          "time": 320.8125,
          "velocity": 0.47244094488188976,
          "duration": 0.1875
        },
        {
          "name": "D3",
          "midi": 50,
          "time": 321,
          "velocity": 0.47244094488188976,
          "duration": 0.75
        },
        {
          "name": "A#3",
          "midi": 58,
          "time": 321,
          "velocity": 0.47244094488188976,
          "duration": 0.375
        },
        {
          "name": "D3",
          "midi": 50,
          "time": 321.75,
          "velocity": 0.47244094488188976,
          "duration": 0.1875
        },
        {
          "name": "A#3",
          "midi": 58,
          "time": 321.75,
          "velocity": 0.47244094488188976,
          "duration": 0.1875
        },
        {
          "name": "D3",
          "midi": 50,
          "time": 321.9375,
          "velocity": 0.47244094488188976,
          "duration": 0.1875
        },
        {
          "name": "A#3",
          "midi": 58,
          "time": 321.9375,
          "velocity": 0.47244094488188976,
          "duration": 0.1875
        },
        {
          "name": "D3",
          "midi": 50,
          "time": 322.125,
          "velocity": 0.47244094488188976,
          "duration": 0.75
        },
        {
          "name": "A#3",
          "midi": 58,
          "time": 322.125,
          "velocity": 0.47244094488188976,
          "duration": 0.375
        },
        {
          "name": "D2",
          "midi": 38,
          "time": 322.5,
          "velocity": 0.47244094488188976,
          "duration": 1.125
        },
        {
          "name": "D3",
          "midi": 50,
          "time": 322.875,
          "velocity": 0.47244094488188976,
          "duration": 0.1875
        },
        {
          "name": "B3",
          "midi": 59,
          "time": 322.875,
          "velocity": 0.47244094488188976,
          "duration": 0.1875
        },
        {
          "name": "D3",
          "midi": 50,
          "time": 323.0625,
          "velocity": 0.47244094488188976,
          "duration": 0.1875
        },
        {
          "name": "B3",
          "midi": 59,
          "time": 323.0625,
          "velocity": 0.47244094488188976,
          "duration": 0.1875
        },
        {
          "name": "D3",
          "midi": 50,
          "time": 323.25,
          "velocity": 0.47244094488188976,
          "duration": 0.75
        },
        {
          "name": "B3",
          "midi": 59,
          "time": 323.25,
          "velocity": 0.47244094488188976,
          "duration": 0.375
        },
        {
          "name": "D3",
          "midi": 50,
          "time": 324,
          "velocity": 0.47244094488188976,
          "duration": 0.1875
        },
        {
          "name": "B3",
          "midi": 59,
          "time": 324,
          "velocity": 0.47244094488188976,
          "duration": 0.1875
        },
        {
          "name": "D3",
          "midi": 50,
          "time": 324.1875,
          "velocity": 0.47244094488188976,
          "duration": 0.1875
        },
        {
          "name": "B3",
          "midi": 59,
          "time": 324.1875,
          "velocity": 0.47244094488188976,
          "duration": 0.1875
        },
        {
          "name": "D3",
          "midi": 50,
          "time": 324.375,
          "velocity": 0.47244094488188976,
          "duration": 0.75
        },
        {
          "name": "B3",
          "midi": 59,
          "time": 324.375,
          "velocity": 0.47244094488188976,
          "duration": 0.375
        },
        {
          "name": "D2",
          "midi": 38,
          "time": 324.75,
          "velocity": 0.47244094488188976,
          "duration": 1.125
        },
        {
          "name": "D3",
          "midi": 50,
          "time": 325.125,
          "velocity": 0.47244094488188976,
          "duration": 0.1875
        },
        {
          "name": "C4",
          "midi": 60,
          "time": 325.125,
          "velocity": 0.47244094488188976,
          "duration": 0.1875
        },
        {
          "name": "D3",
          "midi": 50,
          "time": 325.3125,
          "velocity": 0.47244094488188976,
          "duration": 0.1875
        },
        {
          "name": "C4",
          "midi": 60,
          "time": 325.3125,
          "velocity": 0.47244094488188976,
          "duration": 0.1875
        },
        {
          "name": "D3",
          "midi": 50,
          "time": 325.5,
          "velocity": 0.47244094488188976,
          "duration": 0.75
        },
        {
          "name": "C4",
          "midi": 60,
          "time": 325.5,
          "velocity": 0.47244094488188976,
          "duration": 0.375
        },
        {
          "name": "D3",
          "midi": 50,
          "time": 326.25,
          "velocity": 0.47244094488188976,
          "duration": 0.1875
        },
        {
          "name": "C4",
          "midi": 60,
          "time": 326.25,
          "velocity": 0.47244094488188976,
          "duration": 0.1875
        },
        {
          "name": "D3",
          "midi": 50,
          "time": 326.4375,
          "velocity": 0.47244094488188976,
          "duration": 0.1875
        },
        {
          "name": "C4",
          "midi": 60,
          "time": 326.4375,
          "velocity": 0.47244094488188976,
          "duration": 0.1875
        },
        {
          "name": "D3",
          "midi": 50,
          "time": 326.625,
          "velocity": 0.47244094488188976,
          "duration": 0.75
        },
        {
          "name": "C4",
          "midi": 60,
          "time": 326.625,
          "velocity": 0.47244094488188976,
          "duration": 0.375
        },
        {
          "name": "D2",
          "midi": 38,
          "time": 327,
          "velocity": 0.47244094488188976,
          "duration": 1.125
        },
        {
          "name": "D3",
          "midi": 50,
          "time": 327.375,
          "velocity": 0.47244094488188976,
          "duration": 0.1875
        },
        {
          "name": "D4",
          "midi": 62,
          "time": 327.375,
          "velocity": 0.47244094488188976,
          "duration": 0.1875
        },
        {
          "name": "D3",
          "midi": 50,
          "time": 327.5625,
          "velocity": 0.47244094488188976,
          "duration": 0.1875
        },
        {
          "name": "D4",
          "midi": 62,
          "time": 327.5625,
          "velocity": 0.47244094488188976,
          "duration": 0.1875
        },
        {
          "name": "D3",
          "midi": 50,
          "time": 327.75,
          "velocity": 0.47244094488188976,
          "duration": 0.75
        },
        {
          "name": "D4",
          "midi": 62,
          "time": 327.75,
          "velocity": 0.47244094488188976,
          "duration": 0.375
        },
        {
          "name": "D3",
          "midi": 50,
          "time": 328.5,
          "velocity": 0.47244094488188976,
          "duration": 0.1875
        },
        {
          "name": "A3",
          "midi": 57,
          "time": 328.5,
          "velocity": 0.47244094488188976,
          "duration": 0.375
        },
        {
          "name": "D3",
          "midi": 50,
          "time": 328.6875,
          "velocity": 0.47244094488188976,
          "duration": 0.1875
        },
        {
          "name": "A3",
          "midi": 57,
          "time": 328.6875,
          "velocity": 0.47244094488188976,
          "duration": 0.5625
        },
        {
          "name": "D3",
          "midi": 50,
          "time": 328.875,
          "velocity": 0.47244094488188976,
          "duration": 0.75
        },
        {
          "name": "A3",
          "midi": 57,
          "time": 328.875,
          "velocity": 0.47244094488188976,
          "duration": 44.8125
        },
        {
          "name": "D2",
          "midi": 38,
          "time": 329.25,
          "velocity": 0.47244094488188976,
          "duration": 1.125
        },
        {
          "name": "D3",
          "midi": 50,
          "time": 329.625,
          "velocity": 0.47244094488188976,
          "duration": 0.1875
        },
        {
          "name": "A#3",
          "midi": 58,
          "time": 329.625,
          "velocity": 0.47244094488188976,
          "duration": 0.1875
        },
        {
          "name": "D3",
          "midi": 50,
          "time": 329.8125,
          "velocity": 0.47244094488188976,
          "duration": 0.1875
        },
        {
          "name": "A#3",
          "midi": 58,
          "time": 329.8125,
          "velocity": 0.47244094488188976,
          "duration": 0.1875
        },
        {
          "name": "D3",
          "midi": 50,
          "time": 330,
          "velocity": 0.47244094488188976,
          "duration": 42.375
        },
        {
          "name": "A#3",
          "midi": 58,
          "time": 330,
          "velocity": 0.47244094488188976,
          "duration": 0.375
        },
        {
          "name": "D2",
          "midi": 38,
          "time": 372,
          "velocity": 0.47244094488188976,
          "duration": 1.125
        },
        {
          "name": "D3",
          "midi": 50,
          "time": 372.375,
          "velocity": 0.47244094488188976,
          "duration": 0.1875
        },
        {
          "name": "D4",
          "midi": 62,
          "time": 372.375,
          "velocity": 0.47244094488188976,
          "duration": 0.1875
        },
        {
          "name": "D3",
          "midi": 50,
          "time": 372.5625,
          "velocity": 0.47244094488188976,
          "duration": 0.1875
        },
        {
          "name": "D4",
          "midi": 62,
          "time": 372.5625,
          "velocity": 0.47244094488188976,
          "duration": 0.1875
        },
        {
          "name": "D3",
          "midi": 50,
          "time": 372.75,
          "velocity": 0.47244094488188976,
          "duration": 0.75
        },
        {
          "name": "D4",
          "midi": 62,
          "time": 372.75,
          "velocity": 0.47244094488188976,
          "duration": 0.375
        },
        {
          "name": "D3",
          "midi": 50,
          "time": 373.5,
          "velocity": 0.47244094488188976,
          "duration": 0.1875
        },
        {
          "name": "A3",
          "midi": 57,
          "time": 373.5,
          "velocity": 0.47244094488188976,
          "duration": 0.375
        },
        {
          "name": "D3",
          "midi": 50,
          "time": 373.6875,
          "velocity": 0.47244094488188976,
          "duration": 0.1875
        },
        {
          "name": "A3",
          "midi": 57,
          "time": 373.6875,
          "velocity": 0.47244094488188976,
          "duration": 0.5625
        },
        {
          "name": "D3",
          "midi": 50,
          "time": 373.875,
          "velocity": 0.47244094488188976,
          "duration": 0.75
        },
        {
          "name": "A3",
          "midi": 57,
          "time": 373.875,
          "velocity": 0.47244094488188976,
          "duration": 8.8125
        },
        {
          "name": "D2",
          "midi": 38,
          "time": 374.25,
          "velocity": 0.47244094488188976,
          "duration": 1.125
        },
        {
          "name": "D3",
          "midi": 50,
          "time": 374.625,
          "velocity": 0.47244094488188976,
          "duration": 0.1875
        },
        {
          "name": "A#3",
          "midi": 58,
          "time": 374.625,
          "velocity": 0.47244094488188976,
          "duration": 0.1875
        },
        {
          "name": "D3",
          "midi": 50,
          "time": 374.8125,
          "velocity": 0.47244094488188976,
          "duration": 0.1875
        },
        {
          "name": "A#3",
          "midi": 58,
          "time": 374.8125,
          "velocity": 0.47244094488188976,
          "duration": 0.1875
        },
        {
          "name": "D3",
          "midi": 50,
          "time": 375,
          "velocity": 0.47244094488188976,
          "duration": 0.75
        },
        {
          "name": "A#3",
          "midi": 58,
          "time": 375,
          "velocity": 0.47244094488188976,
          "duration": 0.375
        },
        {
          "name": "D3",
          "midi": 50,
          "time": 375.75,
          "velocity": 0.47244094488188976,
          "duration": 0.1875
        },
        {
          "name": "A#3",
          "midi": 58,
          "time": 375.75,
          "velocity": 0.47244094488188976,
          "duration": 0.1875
        },
        {
          "name": "D3",
          "midi": 50,
          "time": 375.9375,
          "velocity": 0.47244094488188976,
          "duration": 0.1875
        },
        {
          "name": "A#3",
          "midi": 58,
          "time": 375.9375,
          "velocity": 0.47244094488188976,
          "duration": 0.1875
        },
        {
          "name": "D3",
          "midi": 50,
          "time": 376.125,
          "velocity": 0.47244094488188976,
          "duration": 0.75
        },
        {
          "name": "A#3",
          "midi": 58,
          "time": 376.125,
          "velocity": 0.47244094488188976,
          "duration": 0.375
        },
        {
          "name": "D2",
          "midi": 38,
          "time": 376.5,
          "velocity": 0.47244094488188976,
          "duration": 1.125
        },
        {
          "name": "D3",
          "midi": 50,
          "time": 376.875,
          "velocity": 0.47244094488188976,
          "duration": 0.1875
        },
        {
          "name": "B3",
          "midi": 59,
          "time": 376.875,
          "velocity": 0.47244094488188976,
          "duration": 0.1875
        },
        {
          "name": "D3",
          "midi": 50,
          "time": 377.0625,
          "velocity": 0.47244094488188976,
          "duration": 0.1875
        },
        {
          "name": "B3",
          "midi": 59,
          "time": 377.0625,
          "velocity": 0.47244094488188976,
          "duration": 0.1875
        },
        {
          "name": "D3",
          "midi": 50,
          "time": 377.25,
          "velocity": 0.47244094488188976,
          "duration": 0.75
        },
        {
          "name": "B3",
          "midi": 59,
          "time": 377.25,
          "velocity": 0.47244094488188976,
          "duration": 0.375
        },
        {
          "name": "D3",
          "midi": 50,
          "time": 378,
          "velocity": 0.47244094488188976,
          "duration": 0.1875
        },
        {
          "name": "B3",
          "midi": 59,
          "time": 378,
          "velocity": 0.47244094488188976,
          "duration": 0.1875
        },
        {
          "name": "D3",
          "midi": 50,
          "time": 378.1875,
          "velocity": 0.47244094488188976,
          "duration": 0.1875
        },
        {
          "name": "B3",
          "midi": 59,
          "time": 378.1875,
          "velocity": 0.47244094488188976,
          "duration": 0.1875
        },
        {
          "name": "D3",
          "midi": 50,
          "time": 378.375,
          "velocity": 0.47244094488188976,
          "duration": 0.75
        },
        {
          "name": "B3",
          "midi": 59,
          "time": 378.375,
          "velocity": 0.47244094488188976,
          "duration": 0.375
        },
        {
          "name": "D2",
          "midi": 38,
          "time": 378.75,
          "velocity": 0.47244094488188976,
          "duration": 1.125
        },
        {
          "name": "D3",
          "midi": 50,
          "time": 379.125,
          "velocity": 0.47244094488188976,
          "duration": 0.1875
        },
        {
          "name": "C4",
          "midi": 60,
          "time": 379.125,
          "velocity": 0.47244094488188976,
          "duration": 0.1875
        },
        {
          "name": "D3",
          "midi": 50,
          "time": 379.3125,
          "velocity": 0.47244094488188976,
          "duration": 0.1875
        },
        {
          "name": "C4",
          "midi": 60,
          "time": 379.3125,
          "velocity": 0.47244094488188976,
          "duration": 0.1875
        },
        {
          "name": "D3",
          "midi": 50,
          "time": 379.5,
          "velocity": 0.47244094488188976,
          "duration": 0.75
        },
        {
          "name": "C4",
          "midi": 60,
          "time": 379.5,
          "velocity": 0.47244094488188976,
          "duration": 0.375
        },
        {
          "name": "D3",
          "midi": 50,
          "time": 380.25,
          "velocity": 0.47244094488188976,
          "duration": 0.1875
        },
        {
          "name": "C4",
          "midi": 60,
          "time": 380.25,
          "velocity": 0.47244094488188976,
          "duration": 0.1875
        },
        {
          "name": "D3",
          "midi": 50,
          "time": 380.4375,
          "velocity": 0.47244094488188976,
          "duration": 0.1875
        },
        {
          "name": "C4",
          "midi": 60,
          "time": 380.4375,
          "velocity": 0.47244094488188976,
          "duration": 0.1875
        },
        {
          "name": "D3",
          "midi": 50,
          "time": 380.625,
          "velocity": 0.47244094488188976,
          "duration": 0.75
        },
        {
          "name": "C4",
          "midi": 60,
          "time": 380.625,
          "velocity": 0.47244094488188976,
          "duration": 0.375
        },
        {
          "name": "D2",
          "midi": 38,
          "time": 381,
          "velocity": 0.47244094488188976,
          "duration": 1.125
        },
        {
          "name": "D3",
          "midi": 50,
          "time": 381.375,
          "velocity": 0.47244094488188976,
          "duration": 0.1875
        },
        {
          "name": "D4",
          "midi": 62,
          "time": 381.375,
          "velocity": 0.47244094488188976,
          "duration": 0.1875
        },
        {
          "name": "D3",
          "midi": 50,
          "time": 381.5625,
          "velocity": 0.47244094488188976,
          "duration": 0.1875
        },
        {
          "name": "D4",
          "midi": 62,
          "time": 381.5625,
          "velocity": 0.47244094488188976,
          "duration": 0.1875
        },
        {
          "name": "D3",
          "midi": 50,
          "time": 381.75,
          "velocity": 0.47244094488188976,
          "duration": 0.75
        },
        {
          "name": "D4",
          "midi": 62,
          "time": 381.75,
          "velocity": 0.47244094488188976,
          "duration": 0.375
        },
        {
          "name": "D3",
          "midi": 50,
          "time": 382.5,
          "velocity": 0.47244094488188976,
          "duration": 0.1875
        },
        {
          "name": "A3",
          "midi": 57,
          "time": 382.5,
          "velocity": 0.47244094488188976,
          "duration": 0.375
        },
        {
          "name": "D3",
          "midi": 50,
          "time": 382.6875,
          "velocity": 0.47244094488188976,
          "duration": 0.1875
        },
        {
          "name": "A3",
          "midi": 57,
          "time": 382.6875,
          "velocity": 0.47244094488188976,
          "duration": 0.5625
        },
        {
          "name": "D3",
          "midi": 50,
          "time": 382.875,
          "velocity": 0.47244094488188976,
          "duration": 0.75
        },
        {
          "name": "A3",
          "midi": 57,
          "time": 382.875,
          "velocity": 0.47244094488188976,
          "duration": 8.0625
        },
        {
          "name": "D2",
          "midi": 38,
          "time": 383.25,
          "velocity": 0.47244094488188976,
          "duration": 1.125
        },
        {
          "name": "D3",
          "midi": 50,
          "time": 383.625,
          "velocity": 0.47244094488188976,
          "duration": 0.1875
        },
        {
          "name": "A#3",
          "midi": 58,
          "time": 383.625,
          "velocity": 0.47244094488188976,
          "duration": 0.1875
        },
        {
          "name": "D3",
          "midi": 50,
          "time": 383.8125,
          "velocity": 0.47244094488188976,
          "duration": 0.1875
        },
        {
          "name": "A#3",
          "midi": 58,
          "time": 383.8125,
          "velocity": 0.47244094488188976,
          "duration": 0.1875
        },
        {
          "name": "D3",
          "midi": 50,
          "time": 384,
          "velocity": 0.47244094488188976,
          "duration": 12.375
        },
        {
          "name": "A#3",
          "midi": 58,
          "time": 384,
          "velocity": 0.47244094488188976,
          "duration": 0.375
        },
        {
          "name": "D4",
          "midi": 62,
          "time": 390.375,
          "velocity": 1,
          "duration": 0.5625
        },
        {
          "name": "G4",
          "midi": 67,
          "time": 390.375,
          "velocity": 1,
          "duration": 0.5625
        },
        {
          "name": "A3",
          "midi": 57,
          "time": 390.375,
          "velocity": 1,
          "duration": 1.125
        },
        {
          "name": "D5",
          "midi": 74,
          "time": 390.375,
          "velocity": 1,
          "duration": 0.5625
        },
        {
          "name": "D4",
          "midi": 62,
          "time": 390.9375,
          "velocity": 1,
          "duration": 0.5625
        },
        {
          "name": "F#4",
          "midi": 66,
          "time": 390.9375,
          "velocity": 1,
          "duration": 0.5625
        },
        {
          "name": "A3",
          "midi": 57,
          "time": 390.9375,
          "velocity": 1,
          "duration": 1.125
        },
        {
          "name": "D5",
          "midi": 74,
          "time": 390.9375,
          "velocity": 1,
          "duration": 0.5625
        },
        {
          "name": "C4",
          "midi": 60,
          "time": 391.5,
          "velocity": 1,
          "duration": 0.5625
        },
        {
          "name": "F4",
          "midi": 65,
          "time": 391.5,
          "velocity": 1,
          "duration": 0.5625
        },
        {
          "name": "A3",
          "midi": 57,
          "time": 391.5,
          "velocity": 1,
          "duration": 1.125
        },
        {
          "name": "C5",
          "midi": 72,
          "time": 391.5,
          "velocity": 1,
          "duration": 0.5625
        },
        {
          "name": "C4",
          "midi": 60,
          "time": 392.0625,
          "velocity": 1,
          "duration": 0.5625
        },
        {
          "name": "E4",
          "midi": 64,
          "time": 392.0625,
          "velocity": 1,
          "duration": 0.5625
        },
        {
          "name": "A3",
          "midi": 57,
          "time": 392.0625,
          "velocity": 1,
          "duration": 0.5625
        },
        {
          "name": "C5",
          "midi": 72,
          "time": 392.0625,
          "velocity": 1,
          "duration": 0.5625
        },
        {
          "name": "A3",
          "midi": 57,
          "time": 392.625,
          "velocity": 1,
          "duration": 0.375
        },
        {
          "name": "D4",
          "midi": 62,
          "time": 392.625,
          "velocity": 1,
          "duration": 0.375
        },
        {
          "name": "A4",
          "midi": 69,
          "time": 392.625,
          "velocity": 1,
          "duration": 0.375
        },
        {
          "name": "A3",
          "midi": 57,
          "time": 393,
          "velocity": 1,
          "duration": 0.9375
        },
        {
          "name": "C#4",
          "midi": 61,
          "time": 393,
          "velocity": 1,
          "duration": 0.375
        },
        {
          "name": "A4",
          "midi": 69,
          "time": 393,
          "velocity": 1,
          "duration": 0.375
        },
        {
          "name": "G3",
          "midi": 55,
          "time": 393.375,
          "velocity": 1,
          "duration": 0.5625
        },
        {
          "name": "C4",
          "midi": 60,
          "time": 393.375,
          "velocity": 1,
          "duration": 0.5625
        },
        {
          "name": "A3",
          "midi": 57,
          "time": 393.375,
          "velocity": 1,
          "duration": 1.125
        },
        {
          "name": "G4",
          "midi": 67,
          "time": 393.375,
          "velocity": 1,
          "duration": 0.5625
        },
        {
          "name": "G3",
          "midi": 55,
          "time": 393.9375,
          "velocity": 1,
          "duration": 0.5625
        },
        {
          "name": "B3",
          "midi": 59,
          "time": 393.9375,
          "velocity": 1,
          "duration": 0.5625
        },
        {
          "name": "A3",
          "midi": 57,
          "time": 393.9375,
          "velocity": 1,
          "duration": 1.125
        },
        {
          "name": "G4",
          "midi": 67,
          "time": 393.9375,
          "velocity": 1,
          "duration": 0.5625
        },
        {
          "name": "F3",
          "midi": 53,
          "time": 394.5,
          "velocity": 1,
          "duration": 0.5625
        },
        {
          "name": "A#3",
          "midi": 58,
          "time": 394.5,
          "velocity": 1,
          "duration": 0.5625
        },
        {
          "name": "A3",
          "midi": 57,
          "time": 394.5,
          "velocity": 1,
          "duration": 0.5625
        },
        {
          "name": "F4",
          "midi": 65,
          "time": 394.5,
          "velocity": 1,
          "duration": 0.5625
        },
        {
          "name": "F3",
          "midi": 53,
          "time": 395.0625,
          "velocity": 1,
          "duration": 0.5625
        },
        {
          "name": "A3",
          "midi": 57,
          "time": 395.0625,
          "velocity": 1,
          "duration": 1.875
        },
        {
          "name": "F4",
          "midi": 65,
          "time": 395.0625,
          "velocity": 1,
          "duration": 0.5625
        },
        {
          "name": "F3",
          "midi": 53,
          "time": 395.625,
          "velocity": 1,
          "duration": 0.1875
        },
        {
          "name": "E3",
          "midi": 52,
          "time": 395.8125,
          "velocity": 1,
          "duration": 0.1875
        },
        {
          "name": "D3",
          "midi": 50,
          "time": 396,
          "velocity": 1,
          "duration": 6.375
        },
        {
          "name": "D4",
          "midi": 62,
          "time": 396.375,
          "velocity": 1,
          "duration": 0.5625
        },
        {
          "name": "G4",
          "midi": 67,
          "time": 396.375,
          "velocity": 1,
          "duration": 0.5625
        },
        {
          "name": "A3",
          "midi": 57,
          "time": 396.375,
          "velocity": 1,
          "duration": 1.125
        },
        {
          "name": "D5",
          "midi": 74,
          "time": 396.375,
          "velocity": 1,
          "duration": 0.5625
        },
        {
          "name": "D4",
          "midi": 62,
          "time": 396.9375,
          "velocity": 1,
          "duration": 0.5625
        },
        {
          "name": "F#4",
          "midi": 66,
          "time": 396.9375,
          "velocity": 1,
          "duration": 0.5625
        },
        {
          "name": "A3",
          "midi": 57,
          "time": 396.9375,
          "velocity": 1,
          "duration": 1.125
        },
        {
          "name": "D5",
          "midi": 74,
          "time": 396.9375,
          "velocity": 1,
          "duration": 0.5625
        },
        {
          "name": "C4",
          "midi": 60,
          "time": 397.5,
          "velocity": 1,
          "duration": 0.5625
        },
        {
          "name": "F4",
          "midi": 65,
          "time": 397.5,
          "velocity": 1,
          "duration": 0.5625
        },
        {
          "name": "A3",
          "midi": 57,
          "time": 397.5,
          "velocity": 1,
          "duration": 1.125
        },
        {
          "name": "C5",
          "midi": 72,
          "time": 397.5,
          "velocity": 1,
          "duration": 0.5625
        },
        {
          "name": "C4",
          "midi": 60,
          "time": 398.0625,
          "velocity": 1,
          "duration": 0.5625
        },
        {
          "name": "E4",
          "midi": 64,
          "time": 398.0625,
          "velocity": 1,
          "duration": 0.5625
        },
        {
          "name": "A3",
          "midi": 57,
          "time": 398.0625,
          "velocity": 1,
          "duration": 0.5625
        },
        {
          "name": "C5",
          "midi": 72,
          "time": 398.0625,
          "velocity": 1,
          "duration": 0.5625
        },
        {
          "name": "A3",
          "midi": 57,
          "time": 398.625,
          "velocity": 1,
          "duration": 0.375
        },
        {
          "name": "D4",
          "midi": 62,
          "time": 398.625,
          "velocity": 1,
          "duration": 0.375
        },
        {
          "name": "A4",
          "midi": 69,
          "time": 398.625,
          "velocity": 1,
          "duration": 0.375
        },
        {
          "name": "A3",
          "midi": 57,
          "time": 399,
          "velocity": 1,
          "duration": 0.9375
        },
        {
          "name": "C#4",
          "midi": 61,
          "time": 399,
          "velocity": 1,
          "duration": 0.375
        },
        {
          "name": "A4",
          "midi": 69,
          "time": 399,
          "velocity": 1,
          "duration": 0.375
        },
        {
          "name": "G3",
          "midi": 55,
          "time": 399.375,
          "velocity": 1,
          "duration": 0.5625
        },
        {
          "name": "C4",
          "midi": 60,
          "time": 399.375,
          "velocity": 1,
          "duration": 0.5625
        },
        {
          "name": "A3",
          "midi": 57,
          "time": 399.375,
          "velocity": 1,
          "duration": 1.125
        },
        {
          "name": "G4",
          "midi": 67,
          "time": 399.375,
          "velocity": 1,
          "duration": 0.5625
        },
        {
          "name": "G3",
          "midi": 55,
          "time": 399.9375,
          "velocity": 1,
          "duration": 0.5625
        },
        {
          "name": "B3",
          "midi": 59,
          "time": 399.9375,
          "velocity": 1,
          "duration": 0.5625
        },
        {
          "name": "A3",
          "midi": 57,
          "time": 399.9375,
          "velocity": 1,
          "duration": 1.125
        },
        {
          "name": "G4",
          "midi": 67,
          "time": 399.9375,
          "velocity": 1,
          "duration": 0.5625
        },
        {
          "name": "F3",
          "midi": 53,
          "time": 400.5,
          "velocity": 1,
          "duration": 0.5625
        },
        {
          "name": "A#3",
          "midi": 58,
          "time": 400.5,
          "velocity": 1,
          "duration": 0.5625
        },
        {
          "name": "A3",
          "midi": 57,
          "time": 400.5,
          "velocity": 1,
          "duration": 0.5625
        },
        {
          "name": "F4",
          "midi": 65,
          "time": 400.5,
          "velocity": 1,
          "duration": 0.5625
        },
        {
          "name": "F3",
          "midi": 53,
          "time": 401.0625,
          "velocity": 1,
          "duration": 0.5625
        },
        {
          "name": "A3",
          "midi": 57,
          "time": 401.0625,
          "velocity": 1,
          "duration": 0
        },
        {
          "name": "F4",
          "midi": 65,
          "time": 401.0625,
          "velocity": 1,
          "duration": 0.5625
        },
        {
          "name": "F3",
          "midi": 53,
          "time": 401.625,
          "velocity": 1,
          "duration": 0.1875
        },
        {
          "name": "E3",
          "midi": 52,
          "time": 401.8125,
          "velocity": 1,
          "duration": 0.1875
        },
        {
          "name": "D3",
          "midi": 50,
          "time": 402,
          "velocity": 1,
          "duration": 0
        }
      ],
      "controlChanges": {},
      "id": 5,
      "name": "Ovrdrive Guit.      ",
      "instrumentNumber": 29,
      "instrument": "overdriven guitar",
      "instrumentFamily": "guitar",
      "channelNumber": 4,
      "isPercussion": false
    },
    {
      "startTime": 79.6875,
      "duration": 366.375,
      "length": 80,
      "notes": [
        {
          "name": "A4",
          "midi": 69,
          "time": 79.6875,
          "velocity": 1,
          "duration": 0.1875
        },
        {
          "name": "G#4",
          "midi": 68,
          "time": 79.875,
          "velocity": 1,
          "duration": 0.1875
        },
        {
          "name": "A4",
          "midi": 69,
          "time": 80.0625,
          "velocity": 1,
          "duration": 0.1875
        },
        {
          "name": "B4",
          "midi": 71,
          "time": 80.25,
          "velocity": 1,
          "duration": 0.1875
        },
        {
          "name": "A4",
          "midi": 69,
          "time": 80.4375,
          "velocity": 1,
          "duration": 0.1875
        },
        {
          "name": "G#4",
          "midi": 68,
          "time": 80.625,
          "velocity": 1,
          "duration": 0.1875
        },
        {
          "name": "A4",
          "midi": 69,
          "time": 80.8125,
          "velocity": 1,
          "duration": 0.1875
        },
        {
          "name": "F#4",
          "midi": 66,
          "time": 81,
          "velocity": 1,
          "duration": 3
        },
        {
          "name": "A4",
          "midi": 69,
          "time": 88.6875,
          "velocity": 1,
          "duration": 0.1875
        },
        {
          "name": "G#4",
          "midi": 68,
          "time": 88.875,
          "velocity": 1,
          "duration": 0.1875
        },
        {
          "name": "A4",
          "midi": 69,
          "time": 89.0625,
          "velocity": 1,
          "duration": 0.1875
        },
        {
          "name": "B4",
          "midi": 71,
          "time": 89.25,
          "velocity": 1,
          "duration": 0.1875
        },
        {
          "name": "A4",
          "midi": 69,
          "time": 89.4375,
          "velocity": 1,
          "duration": 0.1875
        },
        {
          "name": "G#4",
          "midi": 68,
          "time": 89.625,
          "velocity": 1,
          "duration": 0.1875
        },
        {
          "name": "A4",
          "midi": 69,
          "time": 89.8125,
          "velocity": 1,
          "duration": 0.1875
        },
        {
          "name": "F#4",
          "midi": 66,
          "time": 90,
          "velocity": 1,
          "duration": 3
        },
        {
          "name": "A4",
          "midi": 69,
          "time": 97.6875,
          "velocity": 1,
          "duration": 0.1875
        },
        {
          "name": "G#4",
          "midi": 68,
          "time": 97.875,
          "velocity": 1,
          "duration": 0.1875
        },
        {
          "name": "A4",
          "midi": 69,
          "time": 98.0625,
          "velocity": 1,
          "duration": 0.1875
        },
        {
          "name": "B4",
          "midi": 71,
          "time": 98.25,
          "velocity": 1,
          "duration": 0.1875
        },
        {
          "name": "A4",
          "midi": 69,
          "time": 98.4375,
          "velocity": 1,
          "duration": 0.1875
        },
        {
          "name": "G#4",
          "midi": 68,
          "time": 98.625,
          "velocity": 1,
          "duration": 0.1875
        },
        {
          "name": "A4",
          "midi": 69,
          "time": 98.8125,
          "velocity": 1,
          "duration": 0.1875
        },
        {
          "name": "F#4",
          "midi": 66,
          "time": 99,
          "velocity": 1,
          "duration": 3
        },
        {
          "name": "A4",
          "midi": 69,
          "time": 272.0625,
          "velocity": 1,
          "duration": 0.1875
        },
        {
          "name": "G#4",
          "midi": 68,
          "time": 272.25,
          "velocity": 1,
          "duration": 0.1875
        },
        {
          "name": "A4",
          "midi": 69,
          "time": 272.4375,
          "velocity": 1,
          "duration": 0.1875
        },
        {
          "name": "B4",
          "midi": 71,
          "time": 272.625,
          "velocity": 1,
          "duration": 0.1875
        },
        {
          "name": "A4",
          "midi": 69,
          "time": 272.8125,
          "velocity": 1,
          "duration": 0.1875
        },
        {
          "name": "G#4",
          "midi": 68,
          "time": 273,
          "velocity": 1,
          "duration": 0.1875
        },
        {
          "name": "A4",
          "midi": 69,
          "time": 273.1875,
          "velocity": 1,
          "duration": 0.1875
        },
        {
          "name": "F#4",
          "midi": 66,
          "time": 273.375,
          "velocity": 1,
          "duration": 3
        },
        {
          "name": "A4",
          "midi": 69,
          "time": 290.0625,
          "velocity": 1,
          "duration": 0.1875
        },
        {
          "name": "G#4",
          "midi": 68,
          "time": 290.25,
          "velocity": 1,
          "duration": 0.1875
        },
        {
          "name": "A4",
          "midi": 69,
          "time": 290.4375,
          "velocity": 1,
          "duration": 0.1875
        },
        {
          "name": "B4",
          "midi": 71,
          "time": 290.625,
          "velocity": 1,
          "duration": 0.1875
        },
        {
          "name": "A4",
          "midi": 69,
          "time": 290.8125,
          "velocity": 1,
          "duration": 0.1875
        },
        {
          "name": "G#4",
          "midi": 68,
          "time": 291,
          "velocity": 1,
          "duration": 0.1875
        },
        {
          "name": "A4",
          "midi": 69,
          "time": 291.1875,
          "velocity": 1,
          "duration": 0.1875
        },
        {
          "name": "F#4",
          "midi": 66,
          "time": 291.375,
          "velocity": 1,
          "duration": 3
        },
        {
          "name": "A4",
          "midi": 69,
          "time": 299.0625,
          "velocity": 1,
          "duration": 0.1875
        },
        {
          "name": "G#4",
          "midi": 68,
          "time": 299.25,
          "velocity": 1,
          "duration": 0.1875
        },
        {
          "name": "A4",
          "midi": 69,
          "time": 299.4375,
          "velocity": 1,
          "duration": 0.1875
        },
        {
          "name": "B4",
          "midi": 71,
          "time": 299.625,
          "velocity": 1,
          "duration": 0.1875
        },
        {
          "name": "A4",
          "midi": 69,
          "time": 299.8125,
          "velocity": 1,
          "duration": 0.1875
        },
        {
          "name": "G#4",
          "midi": 68,
          "time": 300,
          "velocity": 1,
          "duration": 0.1875
        },
        {
          "name": "A4",
          "midi": 69,
          "time": 300.1875,
          "velocity": 1,
          "duration": 0.1875
        },
        {
          "name": "F#4",
          "midi": 66,
          "time": 300.375,
          "velocity": 1,
          "duration": 3
        },
        {
          "name": "A4",
          "midi": 69,
          "time": 308.0625,
          "velocity": 1,
          "duration": 0.1875
        },
        {
          "name": "G#4",
          "midi": 68,
          "time": 308.25,
          "velocity": 1,
          "duration": 0.1875
        },
        {
          "name": "A4",
          "midi": 69,
          "time": 308.4375,
          "velocity": 1,
          "duration": 0.1875
        },
        {
          "name": "B4",
          "midi": 71,
          "time": 308.625,
          "velocity": 1,
          "duration": 0.1875
        },
        {
          "name": "A4",
          "midi": 69,
          "time": 308.8125,
          "velocity": 1,
          "duration": 0.1875
        },
        {
          "name": "G#4",
          "midi": 68,
          "time": 309,
          "velocity": 1,
          "duration": 0.1875
        },
        {
          "name": "A4",
          "midi": 69,
          "time": 309.1875,
          "velocity": 1,
          "duration": 0.1875
        },
        {
          "name": "F#4",
          "midi": 66,
          "time": 309.375,
          "velocity": 1,
          "duration": 3
        },
        {
          "name": "A4",
          "midi": 69,
          "time": 344.0625,
          "velocity": 1,
          "duration": 0.1875
        },
        {
          "name": "G#4",
          "midi": 68,
          "time": 344.25,
          "velocity": 1,
          "duration": 0.1875
        },
        {
          "name": "A4",
          "midi": 69,
          "time": 344.4375,
          "velocity": 1,
          "duration": 0.1875
        },
        {
          "name": "B4",
          "midi": 71,
          "time": 344.625,
          "velocity": 1,
          "duration": 0.1875
        },
        {
          "name": "A4",
          "midi": 69,
          "time": 344.8125,
          "velocity": 1,
          "duration": 0.1875
        },
        {
          "name": "G#4",
          "midi": 68,
          "time": 345,
          "velocity": 1,
          "duration": 0.1875
        },
        {
          "name": "A4",
          "midi": 69,
          "time": 345.1875,
          "velocity": 1,
          "duration": 0.1875
        },
        {
          "name": "F#4",
          "midi": 66,
          "time": 345.375,
          "velocity": 1,
          "duration": 3
        },
        {
          "name": "A4",
          "midi": 69,
          "time": 353.0625,
          "velocity": 1,
          "duration": 0.1875
        },
        {
          "name": "G#4",
          "midi": 68,
          "time": 353.25,
          "velocity": 1,
          "duration": 0.1875
        },
        {
          "name": "A4",
          "midi": 69,
          "time": 353.4375,
          "velocity": 1,
          "duration": 0.1875
        },
        {
          "name": "B4",
          "midi": 71,
          "time": 353.625,
          "velocity": 1,
          "duration": 0.1875
        },
        {
          "name": "A4",
          "midi": 69,
          "time": 353.8125,
          "velocity": 1,
          "duration": 0.1875
        },
        {
          "name": "G#4",
          "midi": 68,
          "time": 354,
          "velocity": 1,
          "duration": 0.1875
        },
        {
          "name": "A4",
          "midi": 69,
          "time": 354.1875,
          "velocity": 1,
          "duration": 0.1875
        },
        {
          "name": "F#4",
          "midi": 66,
          "time": 354.375,
          "velocity": 1,
          "duration": 3
        },
        {
          "name": "A4",
          "midi": 69,
          "time": 362.0625,
          "velocity": 1,
          "duration": 0.1875
        },
        {
          "name": "G#4",
          "midi": 68,
          "time": 362.25,
          "velocity": 1,
          "duration": 0.1875
        },
        {
          "name": "A4",
          "midi": 69,
          "time": 362.4375,
          "velocity": 1,
          "duration": 0.1875
        },
        {
          "name": "B4",
          "midi": 71,
          "time": 362.625,
          "velocity": 1,
          "duration": 0.1875
        },
        {
          "name": "A4",
          "midi": 69,
          "time": 362.8125,
          "velocity": 1,
          "duration": 0.1875
        },
        {
          "name": "G#4",
          "midi": 68,
          "time": 363,
          "velocity": 1,
          "duration": 0.1875
        },
        {
          "name": "A4",
          "midi": 69,
          "time": 363.1875,
          "velocity": 1,
          "duration": 0.1875
        },
        {
          "name": "F#4",
          "midi": 66,
          "time": 363.375,
          "velocity": 1,
          "duration": 3
        }
      ],
      "controlChanges": {},
      "id": 6,
      "name": "Violin              ",
      "instrumentNumber": 40,
      "instrument": "violin",
      "instrumentFamily": "strings",
      "channelNumber": 5,
      "isPercussion": false
    },
    {
      "startTime": 18.375,
      "duration": 425.6171875,
      "length": 352,
      "notes": [
        {
          "name": "F#5",
          "midi": 78,
          "time": 18.375,
          "velocity": 0.5511811023622047,
          "duration": 0.3671875
        },
        {
          "name": "F#5",
          "midi": 78,
          "time": 18.75,
          "velocity": 0.5511811023622047,
          "duration": 0.3671875
        },
        {
          "name": "F#5",
          "midi": 78,
          "time": 19.125,
          "velocity": 0.5196850393700787,
          "duration": 0.1796875
        },
        {
          "name": "A5",
          "midi": 81,
          "time": 19.3125,
          "velocity": 0.7716535433070866,
          "duration": 0.5546875
        },
        {
          "name": "F#5",
          "midi": 78,
          "time": 19.875,
          "velocity": 0.5669291338582677,
          "duration": 0.3671875
        },
        {
          "name": "E5",
          "midi": 76,
          "time": 20.25,
          "velocity": 0.5984251968503937,
          "duration": 0.3671875
        },
        {
          "name": "F#5",
          "midi": 78,
          "time": 20.625,
          "velocity": 0.7716535433070866,
          "duration": 0.1796875
        },
        {
          "name": "E5",
          "midi": 76,
          "time": 20.8125,
          "velocity": 0.6141732283464567,
          "duration": 0.3671875
        },
        {
          "name": "D5",
          "midi": 74,
          "time": 21.1875,
          "velocity": 0.7244094488188977,
          "duration": 0.1796875
        },
        {
          "name": "E5",
          "midi": 76,
          "time": 21.375,
          "velocity": 0.6141732283464567,
          "duration": 0.3671875
        },
        {
          "name": "B4",
          "midi": 71,
          "time": 22.5,
          "velocity": 0.8188976377952756,
          "duration": 0.3671875
        },
        {
          "name": "B4",
          "midi": 71,
          "time": 22.875,
          "velocity": 0.7716535433070866,
          "duration": 0.7421875
        },
        {
          "name": "D5",
          "midi": 74,
          "time": 23.625,
          "velocity": 0.905511811023622,
          "duration": 0.3671875
        },
        {
          "name": "D5",
          "midi": 74,
          "time": 24,
          "velocity": 0.8582677165354331,
          "duration": 0.3671875
        },
        {
          "name": "B4",
          "midi": 71,
          "time": 24.375,
          "velocity": 0.8188976377952756,
          "duration": 0.3671875
        },
        {
          "name": "E5",
          "midi": 76,
          "time": 24.9375,
          "velocity": 0.5826771653543307,
          "duration": 0.1796875
        },
        {
          "name": "D5",
          "midi": 74,
          "time": 25.125,
          "velocity": 0.8188976377952756,
          "duration": 0.3671875
        },
        {
          "name": "F#5",
          "midi": 78,
          "time": 27.375,
          "velocity": 0.5984251968503937,
          "duration": 0.3671875
        },
        {
          "name": "F#5",
          "midi": 78,
          "time": 27.75,
          "velocity": 0.7244094488188977,
          "duration": 0.1796875
        },
        {
          "name": "F#5",
          "midi": 78,
          "time": 27.9375,
          "velocity": 0.6299212598425197,
          "duration": 0.3671875
        },
        {
          "name": "A5",
          "midi": 81,
          "time": 28.3125,
          "velocity": 0.7716535433070866,
          "duration": 0.5546875
        },
        {
          "name": "F#5",
          "midi": 78,
          "time": 28.875,
          "velocity": 0.7716535433070866,
          "duration": 0.3671875
        },
        {
          "name": "E5",
          "midi": 76,
          "time": 29.25,
          "velocity": 0.6141732283464567,
          "duration": 0.1796875
        },
        {
          "name": "F#5",
          "midi": 78,
          "time": 29.4375,
          "velocity": 0.7716535433070866,
          "duration": 0.5546875
        },
        {
          "name": "E5",
          "midi": 76,
          "time": 30,
          "velocity": 0.6299212598425197,
          "duration": 0.1796875
        },
        {
          "name": "D5",
          "midi": 74,
          "time": 30.1875,
          "velocity": 0.7716535433070866,
          "duration": 0.3671875
        },
        {
          "name": "E5",
          "midi": 76,
          "time": 30.5625,
          "velocity": 0.6141732283464567,
          "duration": 0.5546875
        },
        {
          "name": "A4",
          "midi": 69,
          "time": 31.875,
          "velocity": 0.7716535433070866,
          "duration": 0.3671875
        },
        {
          "name": "B4",
          "midi": 71,
          "time": 32.25,
          "velocity": 0.7716535433070866,
          "duration": 0.3671875
        },
        {
          "name": "D5",
          "midi": 74,
          "time": 32.625,
          "velocity": 0.7716535433070866,
          "duration": 0.3671875
        },
        {
          "name": "E5",
          "midi": 76,
          "time": 33,
          "velocity": 0.5826771653543307,
          "duration": 0.3671875
        },
        {
          "name": "B4",
          "midi": 71,
          "time": 33.375,
          "velocity": 0.8188976377952756,
          "duration": 0.3671875
        },
        {
          "name": "E5",
          "midi": 76,
          "time": 33.75,
          "velocity": 0.5984251968503937,
          "duration": 0.1796875
        },
        {
          "name": "D5",
          "midi": 74,
          "time": 33.9375,
          "velocity": 0.8582677165354331,
          "duration": 0.5546875
        },
        {
          "name": "F#5",
          "midi": 78,
          "time": 36.75,
          "velocity": 0.5511811023622047,
          "duration": 0.1796875
        },
        {
          "name": "F#5",
          "midi": 78,
          "time": 36.9375,
          "velocity": 0.5669291338582677,
          "duration": 0.3671875
        },
        {
          "name": "A5",
          "midi": 81,
          "time": 37.3125,
          "velocity": 0.7244094488188977,
          "duration": 0.5546875
        },
        {
          "name": "F#5",
          "midi": 78,
          "time": 37.875,
          "velocity": 0.5826771653543307,
          "duration": 0.3671875
        },
        {
          "name": "E5",
          "midi": 76,
          "time": 38.5,
          "velocity": 0.5984251968503937,
          "duration": 0.2421875
        },
        {
          "name": "F#5",
          "midi": 78,
          "time": 38.75,
          "velocity": 0.5984251968503937,
          "duration": 0.2421875
        },
        {
          "name": "E5",
          "midi": 76,
          "time": 39,
          "velocity": 0.6141732283464567,
          "duration": 0.2421875
        },
        {
          "name": "D5",
          "midi": 74,
          "time": 39.25,
          "velocity": 0.8188976377952756,
          "duration": 0.2421875
        },
        {
          "name": "E5",
          "midi": 76,
          "time": 39.5,
          "velocity": 0.8188976377952756,
          "duration": 0.9921875
        },
        {
          "name": "B4",
          "midi": 71,
          "time": 40.5,
          "velocity": 0.952755905511811,
          "duration": 0.3671875
        },
        {
          "name": "B4",
          "midi": 71,
          "time": 40.875,
          "velocity": 0.7244094488188977,
          "duration": 0.3671875
        },
        {
          "name": "D5",
          "midi": 74,
          "time": 41.25,
          "velocity": 0.7244094488188977,
          "duration": 0.3671875
        },
        {
          "name": "D5",
          "midi": 74,
          "time": 41.625,
          "velocity": 0.7244094488188977,
          "duration": 0.3671875
        },
        {
          "name": "D5",
          "midi": 74,
          "time": 42,
          "velocity": 0.7716535433070866,
          "duration": 0.1796875
        },
        {
          "name": "B4",
          "midi": 71,
          "time": 42.1875,
          "velocity": 0.8188976377952756,
          "duration": 0.5546875
        },
        {
          "name": "E5",
          "midi": 76,
          "time": 42.75,
          "velocity": 0.6141732283464567,
          "duration": 0.1796875
        },
        {
          "name": "D5",
          "midi": 74,
          "time": 42.9375,
          "velocity": 0.8188976377952756,
          "duration": 0.5546875
        },
        {
          "name": "F#5",
          "midi": 78,
          "time": 45.75,
          "velocity": 0.7716535433070866,
          "duration": 0.1796875
        },
        {
          "name": "F#5",
          "midi": 78,
          "time": 45.9375,
          "velocity": 0.5354330708661418,
          "duration": 0.3671875
        },
        {
          "name": "A5",
          "midi": 81,
          "time": 46.3125,
          "velocity": 0.7716535433070866,
          "duration": 0.7421875
        },
        {
          "name": "F#5",
          "midi": 78,
          "time": 47.0625,
          "velocity": 0.8582677165354331,
          "duration": 0.1796875
        },
        {
          "name": "E5",
          "midi": 76,
          "time": 47.25,
          "velocity": 0.6771653543307087,
          "duration": 0.3671875
        },
        {
          "name": "F#5",
          "midi": 78,
          "time": 47.625,
          "velocity": 0.5826771653543307,
          "duration": 0.7421875
        },
        {
          "name": "E5",
          "midi": 76,
          "time": 48.375,
          "velocity": 0.6771653543307087,
          "duration": 0.1796875
        },
        {
          "name": "D5",
          "midi": 74,
          "time": 48.5625,
          "velocity": 0.8582677165354331,
          "duration": 0.3671875
        },
        {
          "name": "D5",
          "midi": 74,
          "time": 48.9375,
          "velocity": 0.952755905511811,
          "duration": 0.5546875
        },
        {
          "name": "B4",
          "midi": 71,
          "time": 50.25,
          "velocity": 0.905511811023622,
          "duration": 0.5546875
        },
        {
          "name": "D5",
          "midi": 74,
          "time": 50.8125,
          "velocity": 0.905511811023622,
          "duration": 0.3671875
        },
        {
          "name": "D5",
          "midi": 74,
          "time": 51.1875,
          "velocity": 0.952755905511811,
          "duration": 0.3671875
        },
        {
          "name": "B4",
          "midi": 71,
          "time": 51.5625,
          "velocity": 0.952755905511811,
          "duration": 0.3671875
        },
        {
          "name": "E5",
          "midi": 76,
          "time": 51.9375,
          "velocity": 0.8582677165354331,
          "duration": 3.5546875
        },
        {
          "name": "F#5",
          "midi": 78,
          "time": 72.75,
          "velocity": 0.6771653543307087,
          "duration": 0.1796875
        },
        {
          "name": "F#5",
          "midi": 78,
          "time": 72.9375,
          "velocity": 0.7716535433070866,
          "duration": 0.3671875
        },
        {
          "name": "A5",
          "midi": 81,
          "time": 73.3125,
          "velocity": 0.7716535433070866,
          "duration": 0.5546875
        },
        {
          "name": "F#5",
          "midi": 78,
          "time": 73.875,
          "velocity": 0.7244094488188977,
          "duration": 0.3671875
        },
        {
          "name": "E5",
          "midi": 76,
          "time": 74.25,
          "velocity": 0.5984251968503937,
          "duration": 0.5546875
        },
        {
          "name": "F#5",
          "midi": 78,
          "time": 74.8125,
          "velocity": 0.7716535433070866,
          "duration": 0.1796875
        },
        {
          "name": "E5",
          "midi": 76,
          "time": 75,
          "velocity": 0.6141732283464567,
          "duration": 0.1796875
        },
        {
          "name": "D5",
          "midi": 74,
          "time": 75.1875,
          "velocity": 0.905511811023622,
          "duration": 0.3671875
        },
        {
          "name": "E5",
          "midi": 76,
          "time": 75.5625,
          "velocity": 0.6299212598425197,
          "duration": 0.9296875
        },
        {
          "name": "B4",
          "midi": 71,
          "time": 76.875,
          "velocity": 0.7716535433070866,
          "duration": 0.9296875
        },
        {
          "name": "D5",
          "midi": 74,
          "time": 77.8125,
          "velocity": 1,
          "duration": 0.1796875
        },
        {
          "name": "D5",
          "midi": 74,
          "time": 78,
          "velocity": 0.952755905511811,
          "duration": 0.3671875
        },
        {
          "name": "B4",
          "midi": 71,
          "time": 78.375,
          "velocity": 0.952755905511811,
          "duration": 0.3671875
        },
        {
          "name": "E5",
          "midi": 76,
          "time": 78.75,
          "velocity": 0.7716535433070866,
          "duration": 0.3671875
        },
        {
          "name": "D5",
          "midi": 74,
          "time": 79.125,
          "velocity": 0.952755905511811,
          "duration": 0.3671875
        },
        {
          "name": "F#5",
          "midi": 78,
          "time": 81.5625,
          "velocity": 0.5826771653543307,
          "duration": 0.1796875
        },
        {
          "name": "F#5",
          "midi": 78,
          "time": 81.75,
          "velocity": 0.5511811023622047,
          "duration": 0.1796875
        },
        {
          "name": "F#5",
          "midi": 78,
          "time": 81.9375,
          "velocity": 0.5826771653543307,
          "duration": 0.3671875
        },
        {
          "name": "A5",
          "midi": 81,
          "time": 82.3125,
          "velocity": 0.7716535433070866,
          "duration": 0.5546875
        },
        {
          "name": "F#5",
          "midi": 78,
          "time": 82.875,
          "velocity": 0.6299212598425197,
          "duration": 0.3671875
        },
        {
          "name": "E5",
          "midi": 76,
          "time": 83.25,
          "velocity": 0.6141732283464567,
          "duration": 0.3671875
        },
        {
          "name": "F#5",
          "midi": 78,
          "time": 83.625,
          "velocity": 0.5669291338582677,
          "duration": 0.1796875
        },
        {
          "name": "D5",
          "midi": 74,
          "time": 83.8125,
          "velocity": 0.7716535433070866,
          "duration": 0.3671875
        },
        {
          "name": "D5",
          "midi": 74,
          "time": 84.1875,
          "velocity": 0.7244094488188977,
          "duration": 0.1796875
        },
        {
          "name": "E5",
          "midi": 76,
          "time": 84.375,
          "velocity": 0.6299212598425197,
          "duration": 0.3671875
        },
        {
          "name": "B4",
          "midi": 71,
          "time": 85.5,
          "velocity": 0.6771653543307087,
          "duration": 0.3671875
        },
        {
          "name": "B4",
          "midi": 71,
          "time": 85.875,
          "velocity": 0.7716535433070866,
          "duration": 0.3671875
        },
        {
          "name": "D5",
          "midi": 74,
          "time": 86.25,
          "velocity": 0.7244094488188977,
          "duration": 0.3671875
        },
        {
          "name": "D5",
          "midi": 74,
          "time": 86.625,
          "velocity": 0.7716535433070866,
          "duration": 0.3671875
        },
        {
          "name": "B4",
          "midi": 71,
          "time": 87,
          "velocity": 0.7716535433070866,
          "duration": 0.7421875
        },
        {
          "name": "E5",
          "midi": 76,
          "time": 87.75,
          "velocity": 0.5511811023622047,
          "duration": 0.1796875
        },
        {
          "name": "D5",
          "midi": 74,
          "time": 87.9375,
          "velocity": 0.952755905511811,
          "duration": 0.5546875
        },
        {
          "name": "F#4",
          "midi": 66,
          "time": 90.375,
          "velocity": 0.905511811023622,
          "duration": 0.3671875
        },
        {
          "name": "F#5",
          "midi": 78,
          "time": 90.75,
          "velocity": 0.952755905511811,
          "duration": 0.3671875
        },
        {
          "name": "E5",
          "midi": 76,
          "time": 91.125,
          "velocity": 0.7716535433070866,
          "duration": 1.4921875
        },
        {
          "name": "D5",
          "midi": 74,
          "time": 92.625,
          "velocity": 1,
          "duration": 1.1171875
        },
        {
          "name": "F#4",
          "midi": 66,
          "time": 99.375,
          "velocity": 0.8582677165354331,
          "duration": 0.3671875
        },
        {
          "name": "F#5",
          "midi": 78,
          "time": 99.75,
          "velocity": 0.952755905511811,
          "duration": 0.3671875
        },
        {
          "name": "E5",
          "midi": 76,
          "time": 100.125,
          "velocity": 0.6141732283464567,
          "duration": 1.3046875
        },
        {
          "name": "F#5",
          "midi": 78,
          "time": 101.4375,
          "velocity": 0.8188976377952756,
          "duration": 0.5546875
        },
        {
          "name": "D5",
          "midi": 74,
          "time": 102,
          "velocity": 0.8582677165354331,
          "duration": 1.4921875
        },
        {
          "name": "D5",
          "midi": 74,
          "time": 121.125,
          "velocity": 0.952755905511811,
          "duration": 0.3671875
        },
        {
          "name": "D5",
          "midi": 74,
          "time": 121.5,
          "velocity": 0.952755905511811,
          "duration": 1.4921875
        },
        {
          "name": "D5",
          "midi": 74,
          "time": 123,
          "velocity": 0.952755905511811,
          "duration": 2.9921875
        },
        {
          "name": "C6",
          "midi": 84,
          "time": 136.125,
          "velocity": 0.7716535433070866,
          "duration": 1.4921875
        },
        {
          "name": "B5",
          "midi": 83,
          "time": 137.625,
          "velocity": 0.6771653543307087,
          "duration": 1.4921875
        },
        {
          "name": "A5",
          "midi": 81,
          "time": 139.125,
          "velocity": 0.6771653543307087,
          "duration": 0.7421875
        },
        {
          "name": "C#5",
          "midi": 73,
          "time": 142.5,
          "velocity": 0.7244094488188977,
          "duration": 0.1796875
        },
        {
          "name": "C#5",
          "midi": 73,
          "time": 142.6875,
          "velocity": 0.7244094488188977,
          "duration": 0.5546875
        },
        {
          "name": "D5",
          "midi": 74,
          "time": 143.625,
          "velocity": 0.5984251968503937,
          "duration": 0.3671875
        },
        {
          "name": "E5",
          "midi": 76,
          "time": 144,
          "velocity": 0.5984251968503937,
          "duration": 0.3671875
        },
        {
          "name": "C#5",
          "midi": 73,
          "time": 144.75,
          "velocity": 0.6299212598425197,
          "duration": 0.1796875
        },
        {
          "name": "B4",
          "midi": 71,
          "time": 144.9375,
          "velocity": 0.6141732283464567,
          "duration": 0.1796875
        },
        {
          "name": "A4",
          "midi": 69,
          "time": 145.125,
          "velocity": 0.6771653543307087,
          "duration": 0.7421875
        },
        {
          "name": "C6",
          "midi": 84,
          "time": 151.125,
          "velocity": 0.5984251968503937,
          "duration": 0.5546875
        },
        {
          "name": "B5",
          "midi": 83,
          "time": 151.6875,
          "velocity": 0.6771653543307087,
          "duration": 0.3671875
        },
        {
          "name": "A5",
          "midi": 81,
          "time": 152.0625,
          "velocity": 0.6771653543307087,
          "duration": 0.5546875
        },
        {
          "name": "C5",
          "midi": 72,
          "time": 155.25,
          "velocity": 0.6299212598425197,
          "duration": 0.1796875
        },
        {
          "name": "B4",
          "midi": 71,
          "time": 155.4375,
          "velocity": 0.6771653543307087,
          "duration": 0.1796875
        },
        {
          "name": "C5",
          "midi": 72,
          "time": 155.625,
          "velocity": 0.8188976377952756,
          "duration": 0.7421875
        },
        {
          "name": "C5",
          "midi": 72,
          "time": 156.75,
          "velocity": 0.7244094488188977,
          "duration": 0.3671875
        },
        {
          "name": "C5",
          "midi": 72,
          "time": 157.125,
          "velocity": 0.6771653543307087,
          "duration": 0.3671875
        },
        {
          "name": "E5",
          "midi": 76,
          "time": 157.5,
          "velocity": 0.4881889763779528,
          "duration": 0.3671875
        },
        {
          "name": "C5",
          "midi": 72,
          "time": 157.875,
          "velocity": 0.7244094488188977,
          "duration": 0.3671875
        },
        {
          "name": "B4",
          "midi": 71,
          "time": 158.25,
          "velocity": 0.7716535433070866,
          "duration": 0.7421875
        },
        {
          "name": "A4",
          "midi": 69,
          "time": 159,
          "velocity": 0.8188976377952756,
          "duration": 1.1171875
        },
        {
          "name": "G5",
          "midi": 79,
          "time": 166.125,
          "velocity": 0.7244094488188977,
          "duration": 0.7421875
        },
        {
          "name": "C6",
          "midi": 84,
          "time": 169.5,
          "velocity": 0.5984251968503937,
          "duration": 0.3671875
        },
        {
          "name": "C6",
          "midi": 84,
          "time": 169.875,
          "velocity": 0.5984251968503937,
          "duration": 0.3671875
        },
        {
          "name": "B5",
          "midi": 83,
          "time": 170.25,
          "velocity": 0.7244094488188977,
          "duration": 1.4921875
        },
        {
          "name": "C6",
          "midi": 84,
          "time": 171.75,
          "velocity": 0.5984251968503937,
          "duration": 0.1796875
        },
        {
          "name": "A5",
          "midi": 81,
          "time": 171.9375,
          "velocity": 0.6771653543307087,
          "duration": 0.1796875
        },
        {
          "name": "A5",
          "midi": 81,
          "time": 172.125,
          "velocity": 0.6141732283464567,
          "duration": 0.7421875
        },
        {
          "name": "A5",
          "midi": 81,
          "time": 172.875,
          "velocity": 0.6771653543307087,
          "duration": 0.7421875
        },
        {
          "name": "C#5",
          "midi": 73,
          "time": 174.375,
          "velocity": 0.7244094488188977,
          "duration": 0.3671875
        },
        {
          "name": "E5",
          "midi": 76,
          "time": 174.75,
          "velocity": 0.6299212598425197,
          "duration": 0.3671875
        },
        {
          "name": "C5",
          "midi": 72,
          "time": 175.125,
          "velocity": 0.7716535433070866,
          "duration": 0.1796875
        },
        {
          "name": "B4",
          "midi": 71,
          "time": 175.3125,
          "velocity": 0.7716535433070866,
          "duration": 0.1796875
        },
        {
          "name": "A4",
          "midi": 69,
          "time": 175.5,
          "velocity": 0.8582677165354331,
          "duration": 1.1171875
        },
        {
          "name": "B5",
          "midi": 83,
          "time": 181.5,
          "velocity": 0.6141732283464567,
          "duration": 0.5546875
        },
        {
          "name": "A5",
          "midi": 81,
          "time": 182.0625,
          "velocity": 0.6771653543307087,
          "duration": 0.1796875
        },
        {
          "name": "A5",
          "midi": 81,
          "time": 182.25,
          "velocity": 0.7716535433070866,
          "duration": 0.3671875
        },
        {
          "name": "B4",
          "midi": 71,
          "time": 186,
          "velocity": 0.6141732283464567,
          "duration": 0.3671875
        },
        {
          "name": "C#5",
          "midi": 73,
          "time": 186.375,
          "velocity": 0.7716535433070866,
          "duration": 0.3671875
        },
        {
          "name": "E5",
          "midi": 76,
          "time": 186.75,
          "velocity": 0.5826771653543307,
          "duration": 0.3671875
        },
        {
          "name": "C5",
          "midi": 72,
          "time": 187.125,
          "velocity": 0.6299212598425197,
          "duration": 0.1796875
        },
        {
          "name": "B4",
          "midi": 71,
          "time": 187.3125,
          "velocity": 0.7716535433070866,
          "duration": 0.1796875
        },
        {
          "name": "A4",
          "midi": 69,
          "time": 187.5,
          "velocity": 0.7716535433070866,
          "duration": 1.4921875
        },
        {
          "name": "C#5",
          "midi": 73,
          "time": 189,
          "velocity": 0.8582677165354331,
          "duration": 0.3671875
        },
        {
          "name": "E5",
          "midi": 76,
          "time": 189.375,
          "velocity": 0.5826771653543307,
          "duration": 0.3671875
        },
        {
          "name": "C5",
          "midi": 72,
          "time": 189.75,
          "velocity": 0.7716535433070866,
          "duration": 0.1796875
        },
        {
          "name": "B4",
          "midi": 71,
          "time": 189.9375,
          "velocity": 0.7244094488188977,
          "duration": 0.1796875
        },
        {
          "name": "A4",
          "midi": 69,
          "time": 190.125,
          "velocity": 0.905511811023622,
          "duration": 0.7421875
        },
        {
          "name": "A5",
          "midi": 81,
          "time": 204,
          "velocity": 0.7244094488188977,
          "duration": 0.3671875
        },
        {
          "name": "A#4",
          "midi": 70,
          "time": 205.875,
          "velocity": 0.6299212598425197,
          "duration": 0.4921875
        },
        {
          "name": "A4",
          "midi": 69,
          "time": 206.375,
          "velocity": 0.6771653543307087,
          "duration": 0.4921875
        },
        {
          "name": "G4",
          "midi": 67,
          "time": 206.875,
          "velocity": 0.8582677165354331,
          "duration": 0.4921875
        },
        {
          "name": "A4",
          "midi": 69,
          "time": 209.625,
          "velocity": 0.8188976377952756,
          "duration": 0.5546875
        },
        {
          "name": "A#4",
          "midi": 70,
          "time": 210.1875,
          "velocity": 0.8188976377952756,
          "duration": 0.3671875
        },
        {
          "name": "A4",
          "midi": 69,
          "time": 210.5625,
          "velocity": 0.8582677165354331,
          "duration": 1.3046875
        },
        {
          "name": "A#4",
          "midi": 70,
          "time": 218.25,
          "velocity": 0.7716535433070866,
          "duration": 0.7421875
        },
        {
          "name": "A4",
          "midi": 69,
          "time": 219,
          "velocity": 0.905511811023622,
          "duration": 0.3671875
        },
        {
          "name": "G4",
          "midi": 67,
          "time": 219.375,
          "velocity": 0.8188976377952756,
          "duration": 0.7421875
        },
        {
          "name": "A4",
          "midi": 69,
          "time": 221.875,
          "velocity": 0.8582677165354331,
          "duration": 0.2421875
        },
        {
          "name": "A#4",
          "midi": 70,
          "time": 222.125,
          "velocity": 0.8188976377952756,
          "duration": 0.2421875
        },
        {
          "name": "A#4",
          "midi": 70,
          "time": 222.375,
          "velocity": 0.7716535433070866,
          "duration": 0.3671875
        },
        {
          "name": "G4",
          "midi": 67,
          "time": 222.75,
          "velocity": 0.8582677165354331,
          "duration": 1.1171875
        },
        {
          "name": "A#4",
          "midi": 70,
          "time": 229.875,
          "velocity": 0.7716535433070866,
          "duration": 0.3671875
        },
        {
          "name": "G4",
          "midi": 67,
          "time": 230.25,
          "velocity": 0.8582677165354331,
          "duration": 0.7421875
        },
        {
          "name": "G4",
          "midi": 67,
          "time": 231,
          "velocity": 0.8582677165354331,
          "duration": 1.1171875
        },
        {
          "name": "A4",
          "midi": 69,
          "time": 233.875,
          "velocity": 0.8188976377952756,
          "duration": 0.2421875
        },
        {
          "name": "A#4",
          "midi": 70,
          "time": 234.125,
          "velocity": 0.7716535433070866,
          "duration": 0.2421875
        },
        {
          "name": "B4",
          "midi": 71,
          "time": 234.375,
          "velocity": 0.7716535433070866,
          "duration": 0.3671875
        },
        {
          "name": "A4",
          "midi": 69,
          "time": 234.75,
          "velocity": 0.952755905511811,
          "duration": 1.1171875
        },
        {
          "name": "A#4",
          "midi": 70,
          "time": 242.375,
          "velocity": 0.952755905511811,
          "duration": 0.4921875
        },
        {
          "name": "A4",
          "midi": 69,
          "time": 242.875,
          "velocity": 0.8582677165354331,
          "duration": 0.4921875
        },
        {
          "name": "G4",
          "midi": 67,
          "time": 243.75,
          "velocity": 0.7716535433070866,
          "duration": 1.1171875
        },
        {
          "name": "D4",
          "midi": 62,
          "time": 245.625,
          "velocity": 0.6299212598425197,
          "duration": 0.3671875
        },
        {
          "name": "A#4",
          "midi": 70,
          "time": 246,
          "velocity": 0.905511811023622,
          "duration": 0.7421875
        },
        {
          "name": "A4",
          "midi": 69,
          "time": 246.75,
          "velocity": 1,
          "duration": 0.1796875
        },
        {
          "name": "A#4",
          "midi": 70,
          "time": 246.9375,
          "velocity": 0.905511811023622,
          "duration": 0.1796875
        },
        {
          "name": "A4",
          "midi": 69,
          "time": 247.125,
          "velocity": 0.8582677165354331,
          "duration": 1.4921875
        },
        {
          "name": "A#5",
          "midi": 82,
          "time": 252.75,
          "velocity": 0.7716535433070866,
          "duration": 0.1796875
        },
        {
          "name": "A5",
          "midi": 81,
          "time": 252.9375,
          "velocity": 0.6141732283464567,
          "duration": 0.1796875
        },
        {
          "name": "A#5",
          "midi": 82,
          "time": 253.125,
          "velocity": 0.5354330708661418,
          "duration": 0.1796875
        },
        {
          "name": "A5",
          "midi": 81,
          "time": 253.3125,
          "velocity": 0.7244094488188977,
          "duration": 0.1796875
        },
        {
          "name": "G5",
          "midi": 79,
          "time": 253.5,
          "velocity": 0.7244094488188977,
          "duration": 0.3671875
        },
        {
          "name": "A#5",
          "midi": 82,
          "time": 255.75,
          "velocity": 0.5354330708661418,
          "duration": 0.1796875
        },
        {
          "name": "A5",
          "midi": 81,
          "time": 255.9375,
          "velocity": 0.7716535433070866,
          "duration": 0.1796875
        },
        {
          "name": "A#5",
          "midi": 82,
          "time": 256.125,
          "velocity": 0.5354330708661418,
          "duration": 0.1796875
        },
        {
          "name": "A5",
          "midi": 81,
          "time": 256.3125,
          "velocity": 0.7244094488188977,
          "duration": 0.1796875
        },
        {
          "name": "G5",
          "midi": 79,
          "time": 256.5,
          "velocity": 0.7244094488188977,
          "duration": 0.3671875
        },
        {
          "name": "G5",
          "midi": 79,
          "time": 257.25,
          "velocity": 0.6771653543307087,
          "duration": 0.3671875
        },
        {
          "name": "G5",
          "midi": 79,
          "time": 257.625,
          "velocity": 0.7716535433070866,
          "duration": 0.3671875
        },
        {
          "name": "G5",
          "midi": 79,
          "time": 258,
          "velocity": 0.7716535433070866,
          "duration": 0.3671875
        },
        {
          "name": "A5",
          "midi": 81,
          "time": 258.375,
          "velocity": 0.8582677165354331,
          "duration": 5.9921875
        },
        {
          "name": "A5",
          "midi": 81,
          "time": 264.375,
          "velocity": 0.8582677165354331,
          "duration": 2.2421875
        },
        {
          "name": "A5",
          "midi": 81,
          "time": 266.625,
          "velocity": 0.7716535433070866,
          "duration": 0.3671875
        },
        {
          "name": "G5",
          "midi": 79,
          "time": 267,
          "velocity": 0.6141732283464567,
          "duration": 0.1796875
        },
        {
          "name": "A5",
          "midi": 81,
          "time": 267.1875,
          "velocity": 0.6771653543307087,
          "duration": 0.1796875
        },
        {
          "name": "G5",
          "midi": 79,
          "time": 267.375,
          "velocity": 0.7716535433070866,
          "duration": 1.4921875
        },
        {
          "name": "G5",
          "midi": 79,
          "time": 268.875,
          "velocity": 0.8582677165354331,
          "duration": 0.3671875
        },
        {
          "name": "F5",
          "midi": 77,
          "time": 269.25,
          "velocity": 0.8188976377952756,
          "duration": 0.1796875
        },
        {
          "name": "G5",
          "midi": 79,
          "time": 269.4375,
          "velocity": 0.7716535433070866,
          "duration": 0.1796875
        },
        {
          "name": "F5",
          "midi": 77,
          "time": 269.625,
          "velocity": 0.8582677165354331,
          "duration": 0.7421875
        },
        {
          "name": "F5",
          "midi": 77,
          "time": 270.375,
          "velocity": 0.905511811023622,
          "duration": 1.4921875
        },
        {
          "name": "F#5",
          "midi": 78,
          "time": 282.75,
          "velocity": 0.5511811023622047,
          "duration": 0.3671875
        },
        {
          "name": "F#5",
          "midi": 78,
          "time": 283.125,
          "velocity": 0.5511811023622047,
          "duration": 0.3671875
        },
        {
          "name": "F#5",
          "midi": 78,
          "time": 283.5,
          "velocity": 0.5196850393700787,
          "duration": 0.1796875
        },
        {
          "name": "A5",
          "midi": 81,
          "time": 283.6875,
          "velocity": 0.7716535433070866,
          "duration": 0.5546875
        },
        {
          "name": "F#5",
          "midi": 78,
          "time": 284.25,
          "velocity": 0.5669291338582677,
          "duration": 0.3671875
        },
        {
          "name": "E5",
          "midi": 76,
          "time": 284.625,
          "velocity": 0.5984251968503937,
          "duration": 0.3671875
        },
        {
          "name": "F#5",
          "midi": 78,
          "time": 285,
          "velocity": 0.7716535433070866,
          "duration": 0.1796875
        },
        {
          "name": "E5",
          "midi": 76,
          "time": 285.1875,
          "velocity": 0.6141732283464567,
          "duration": 0.3671875
        },
        {
          "name": "D5",
          "midi": 74,
          "time": 285.5625,
          "velocity": 0.7244094488188977,
          "duration": 0.1796875
        },
        {
          "name": "E5",
          "midi": 76,
          "time": 285.75,
          "velocity": 0.6141732283464567,
          "duration": 0.3671875
        },
        {
          "name": "B4",
          "midi": 71,
          "time": 286.875,
          "velocity": 0.8188976377952756,
          "duration": 0.3671875
        },
        {
          "name": "B4",
          "midi": 71,
          "time": 287.25,
          "velocity": 0.7716535433070866,
          "duration": 0.7421875
        },
        {
          "name": "D5",
          "midi": 74,
          "time": 288,
          "velocity": 0.905511811023622,
          "duration": 0.3671875
        },
        {
          "name": "D5",
          "midi": 74,
          "time": 288.375,
          "velocity": 0.8582677165354331,
          "duration": 0.3671875
        },
        {
          "name": "B4",
          "midi": 71,
          "time": 288.75,
          "velocity": 0.8188976377952756,
          "duration": 0.3671875
        },
        {
          "name": "E5",
          "midi": 76,
          "time": 289.3125,
          "velocity": 0.5826771653543307,
          "duration": 0.1796875
        },
        {
          "name": "D5",
          "midi": 74,
          "time": 289.5,
          "velocity": 0.8188976377952756,
          "duration": 0.3671875
        },
        {
          "name": "F#5",
          "midi": 78,
          "time": 291.75,
          "velocity": 0.5984251968503937,
          "duration": 0.3671875
        },
        {
          "name": "F#5",
          "midi": 78,
          "time": 292.125,
          "velocity": 0.7244094488188977,
          "duration": 0.1796875
        },
        {
          "name": "F#5",
          "midi": 78,
          "time": 292.3125,
          "velocity": 0.6299212598425197,
          "duration": 0.3671875
        },
        {
          "name": "A5",
          "midi": 81,
          "time": 292.6875,
          "velocity": 0.7716535433070866,
          "duration": 0.5546875
        },
        {
          "name": "F#5",
          "midi": 78,
          "time": 293.25,
          "velocity": 0.7716535433070866,
          "duration": 0.3671875
        },
        {
          "name": "E5",
          "midi": 76,
          "time": 293.625,
          "velocity": 0.6141732283464567,
          "duration": 0.1796875
        },
        {
          "name": "F#5",
          "midi": 78,
          "time": 293.8125,
          "velocity": 0.7716535433070866,
          "duration": 0.5546875
        },
        {
          "name": "E5",
          "midi": 76,
          "time": 294.375,
          "velocity": 0.6299212598425197,
          "duration": 0.1796875
        },
        {
          "name": "D5",
          "midi": 74,
          "time": 294.5625,
          "velocity": 0.7716535433070866,
          "duration": 0.3671875
        },
        {
          "name": "E5",
          "midi": 76,
          "time": 294.9375,
          "velocity": 0.6141732283464567,
          "duration": 0.5546875
        },
        {
          "name": "A4",
          "midi": 69,
          "time": 296.25,
          "velocity": 0.7716535433070866,
          "duration": 0.3671875
        },
        {
          "name": "B4",
          "midi": 71,
          "time": 296.625,
          "velocity": 0.7716535433070866,
          "duration": 0.3671875
        },
        {
          "name": "D5",
          "midi": 74,
          "time": 297,
          "velocity": 0.7716535433070866,
          "duration": 0.3671875
        },
        {
          "name": "E5",
          "midi": 76,
          "time": 297.375,
          "velocity": 0.5826771653543307,
          "duration": 0.3671875
        },
        {
          "name": "B4",
          "midi": 71,
          "time": 297.75,
          "velocity": 0.8188976377952756,
          "duration": 0.3671875
        },
        {
          "name": "E5",
          "midi": 76,
          "time": 298.125,
          "velocity": 0.5984251968503937,
          "duration": 0.1796875
        },
        {
          "name": "D5",
          "midi": 74,
          "time": 298.3125,
          "velocity": 0.8582677165354331,
          "duration": 0.5546875
        },
        {
          "name": "F#5",
          "midi": 78,
          "time": 301.125,
          "velocity": 0.5511811023622047,
          "duration": 0.1796875
        },
        {
          "name": "F#5",
          "midi": 78,
          "time": 301.3125,
          "velocity": 0.5669291338582677,
          "duration": 0.3671875
        },
        {
          "name": "A5",
          "midi": 81,
          "time": 301.6875,
          "velocity": 0.7244094488188977,
          "duration": 0.5546875
        },
        {
          "name": "F#5",
          "midi": 78,
          "time": 302.25,
          "velocity": 0.5826771653543307,
          "duration": 0.3671875
        },
        {
          "name": "E5",
          "midi": 76,
          "time": 302.875,
          "velocity": 0.5984251968503937,
          "duration": 0.2421875
        },
        {
          "name": "F#5",
          "midi": 78,
          "time": 303.125,
          "velocity": 0.5984251968503937,
          "duration": 0.2421875
        },
        {
          "name": "E5",
          "midi": 76,
          "time": 303.375,
          "velocity": 0.6141732283464567,
          "duration": 0.2421875
        },
        {
          "name": "D5",
          "midi": 74,
          "time": 303.625,
          "velocity": 0.8188976377952756,
          "duration": 0.2421875
        },
        {
          "name": "E5",
          "midi": 76,
          "time": 303.875,
          "velocity": 0.8188976377952756,
          "duration": 0.9921875
        },
        {
          "name": "B4",
          "midi": 71,
          "time": 304.875,
          "velocity": 0.952755905511811,
          "duration": 0.3671875
        },
        {
          "name": "B4",
          "midi": 71,
          "time": 305.25,
          "velocity": 0.7244094488188977,
          "duration": 0.3671875
        },
        {
          "name": "D5",
          "midi": 74,
          "time": 305.625,
          "velocity": 0.7244094488188977,
          "duration": 0.3671875
        },
        {
          "name": "D5",
          "midi": 74,
          "time": 306,
          "velocity": 0.7244094488188977,
          "duration": 0.3671875
        },
        {
          "name": "D5",
          "midi": 74,
          "time": 306.375,
          "velocity": 0.7716535433070866,
          "duration": 0.1796875
        },
        {
          "name": "B4",
          "midi": 71,
          "time": 306.5625,
          "velocity": 0.8188976377952756,
          "duration": 0.5546875
        },
        {
          "name": "E5",
          "midi": 76,
          "time": 307.125,
          "velocity": 0.6141732283464567,
          "duration": 0.1796875
        },
        {
          "name": "D5",
          "midi": 74,
          "time": 307.3125,
          "velocity": 0.8188976377952756,
          "duration": 0.5546875
        },
        {
          "name": "F#5",
          "midi": 78,
          "time": 310.125,
          "velocity": 0.7716535433070866,
          "duration": 0.1796875
        },
        {
          "name": "F#5",
          "midi": 78,
          "time": 310.3125,
          "velocity": 0.5354330708661418,
          "duration": 0.3671875
        },
        {
          "name": "A5",
          "midi": 81,
          "time": 310.6875,
          "velocity": 0.7716535433070866,
          "duration": 0.7421875
        },
        {
          "name": "F#5",
          "midi": 78,
          "time": 311.4375,
          "velocity": 0.8582677165354331,
          "duration": 0.1796875
        },
        {
          "name": "E5",
          "midi": 76,
          "time": 311.625,
          "velocity": 0.6771653543307087,
          "duration": 0.3671875
        },
        {
          "name": "F#5",
          "midi": 78,
          "time": 312,
          "velocity": 0.5826771653543307,
          "duration": 0.7421875
        },
        {
          "name": "E5",
          "midi": 76,
          "time": 312.75,
          "velocity": 0.6771653543307087,
          "duration": 0.1796875
        },
        {
          "name": "D5",
          "midi": 74,
          "time": 312.9375,
          "velocity": 0.8582677165354331,
          "duration": 0.3671875
        },
        {
          "name": "D5",
          "midi": 74,
          "time": 313.3125,
          "velocity": 0.952755905511811,
          "duration": 0.5546875
        },
        {
          "name": "B4",
          "midi": 71,
          "time": 314.625,
          "velocity": 0.905511811023622,
          "duration": 0.5546875
        },
        {
          "name": "D5",
          "midi": 74,
          "time": 315.1875,
          "velocity": 0.905511811023622,
          "duration": 0.3671875
        },
        {
          "name": "D5",
          "midi": 74,
          "time": 315.5625,
          "velocity": 0.952755905511811,
          "duration": 0.3671875
        },
        {
          "name": "B4",
          "midi": 71,
          "time": 315.9375,
          "velocity": 0.952755905511811,
          "duration": 0.3671875
        },
        {
          "name": "E5",
          "midi": 76,
          "time": 316.3125,
          "velocity": 0.8582677165354331,
          "duration": 3.5546875
        },
        {
          "name": "F#5",
          "midi": 78,
          "time": 337.125,
          "velocity": 0.6771653543307087,
          "duration": 0.1796875
        },
        {
          "name": "F#5",
          "midi": 78,
          "time": 337.3125,
          "velocity": 0.7716535433070866,
          "duration": 0.3671875
        },
        {
          "name": "A5",
          "midi": 81,
          "time": 337.6875,
          "velocity": 0.7716535433070866,
          "duration": 0.5546875
        },
        {
          "name": "F#5",
          "midi": 78,
          "time": 338.25,
          "velocity": 0.7244094488188977,
          "duration": 0.3671875
        },
        {
          "name": "E5",
          "midi": 76,
          "time": 338.625,
          "velocity": 0.5984251968503937,
          "duration": 0.5546875
        },
        {
          "name": "F#5",
          "midi": 78,
          "time": 339.1875,
          "velocity": 0.7716535433070866,
          "duration": 0.1796875
        },
        {
          "name": "E5",
          "midi": 76,
          "time": 339.375,
          "velocity": 0.6141732283464567,
          "duration": 0.1796875
        },
        {
          "name": "D5",
          "midi": 74,
          "time": 339.5625,
          "velocity": 0.905511811023622,
          "duration": 0.3671875
        },
        {
          "name": "E5",
          "midi": 76,
          "time": 339.9375,
          "velocity": 0.6299212598425197,
          "duration": 0.9296875
        },
        {
          "name": "B4",
          "midi": 71,
          "time": 341.25,
          "velocity": 0.7716535433070866,
          "duration": 0.9296875
        },
        {
          "name": "D5",
          "midi": 74,
          "time": 342.1875,
          "velocity": 1,
          "duration": 0.1796875
        },
        {
          "name": "D5",
          "midi": 74,
          "time": 342.375,
          "velocity": 0.952755905511811,
          "duration": 0.3671875
        },
        {
          "name": "B4",
          "midi": 71,
          "time": 342.75,
          "velocity": 0.952755905511811,
          "duration": 0.3671875
        },
        {
          "name": "E5",
          "midi": 76,
          "time": 343.125,
          "velocity": 0.7716535433070866,
          "duration": 0.3671875
        },
        {
          "name": "D5",
          "midi": 74,
          "time": 343.5,
          "velocity": 0.952755905511811,
          "duration": 0.3671875
        },
        {
          "name": "F#5",
          "midi": 78,
          "time": 345.9375,
          "velocity": 0.5826771653543307,
          "duration": 0.1796875
        },
        {
          "name": "F#5",
          "midi": 78,
          "time": 346.125,
          "velocity": 0.5511811023622047,
          "duration": 0.1796875
        },
        {
          "name": "F#5",
          "midi": 78,
          "time": 346.3125,
          "velocity": 0.5826771653543307,
          "duration": 0.3671875
        },
        {
          "name": "A5",
          "midi": 81,
          "time": 346.6875,
          "velocity": 0.7716535433070866,
          "duration": 0.5546875
        },
        {
          "name": "F#5",
          "midi": 78,
          "time": 347.25,
          "velocity": 0.6299212598425197,
          "duration": 0.3671875
        },
        {
          "name": "E5",
          "midi": 76,
          "time": 347.625,
          "velocity": 0.6141732283464567,
          "duration": 0.3671875
        },
        {
          "name": "F#5",
          "midi": 78,
          "time": 348,
          "velocity": 0.5669291338582677,
          "duration": 0.1796875
        },
        {
          "name": "D5",
          "midi": 74,
          "time": 348.1875,
          "velocity": 0.7716535433070866,
          "duration": 0.3671875
        },
        {
          "name": "D5",
          "midi": 74,
          "time": 348.5625,
          "velocity": 0.7244094488188977,
          "duration": 0.1796875
        },
        {
          "name": "E5",
          "midi": 76,
          "time": 348.75,
          "velocity": 0.6299212598425197,
          "duration": 0.3671875
        },
        {
          "name": "B4",
          "midi": 71,
          "time": 349.875,
          "velocity": 0.6771653543307087,
          "duration": 0.3671875
        },
        {
          "name": "B4",
          "midi": 71,
          "time": 350.25,
          "velocity": 0.7716535433070866,
          "duration": 0.3671875
        },
        {
          "name": "D5",
          "midi": 74,
          "time": 350.625,
          "velocity": 0.7244094488188977,
          "duration": 0.3671875
        },
        {
          "name": "D5",
          "midi": 74,
          "time": 351,
          "velocity": 0.7716535433070866,
          "duration": 0.3671875
        },
        {
          "name": "B4",
          "midi": 71,
          "time": 351.375,
          "velocity": 0.7716535433070866,
          "duration": 0.7421875
        },
        {
          "name": "E5",
          "midi": 76,
          "time": 352.125,
          "velocity": 0.5511811023622047,
          "duration": 0.1796875
        },
        {
          "name": "D5",
          "midi": 74,
          "time": 352.3125,
          "velocity": 0.952755905511811,
          "duration": 0.5546875
        },
        {
          "name": "F#4",
          "midi": 66,
          "time": 354.75,
          "velocity": 0.905511811023622,
          "duration": 0.3671875
        },
        {
          "name": "F#5",
          "midi": 78,
          "time": 355.125,
          "velocity": 0.952755905511811,
          "duration": 0.3671875
        },
        {
          "name": "E5",
          "midi": 76,
          "time": 355.5,
          "velocity": 0.7716535433070866,
          "duration": 1.4921875
        },
        {
          "name": "D5",
          "midi": 74,
          "time": 357,
          "velocity": 1,
          "duration": 1.1171875
        },
        {
          "name": "F#4",
          "midi": 66,
          "time": 363.75,
          "velocity": 0.8582677165354331,
          "duration": 0.3671875
        },
        {
          "name": "F#5",
          "midi": 78,
          "time": 364.125,
          "velocity": 0.952755905511811,
          "duration": 0.3671875
        },
        {
          "name": "E5",
          "midi": 76,
          "time": 364.5,
          "velocity": 0.6141732283464567,
          "duration": 1.3046875
        },
        {
          "name": "F#5",
          "midi": 78,
          "time": 365.8125,
          "velocity": 0.8188976377952756,
          "duration": 0.5546875
        },
        {
          "name": "D5",
          "midi": 74,
          "time": 366.375,
          "velocity": 0.8582677165354331,
          "duration": 1.4921875
        },
        {
          "name": "D5",
          "midi": 74,
          "time": 385.5,
          "velocity": 0.952755905511811,
          "duration": 0.3671875
        },
        {
          "name": "D5",
          "midi": 74,
          "time": 385.875,
          "velocity": 0.952755905511811,
          "duration": 1.4921875
        },
        {
          "name": "D5",
          "midi": 74,
          "time": 387.375,
          "velocity": 0.952755905511811,
          "duration": 2.9921875
        },
        {
          "name": "D5",
          "midi": 74,
          "time": 390.375,
          "velocity": 0.5826771653543307,
          "duration": 2.9921875
        },
        {
          "name": "D5",
          "midi": 74,
          "time": 393.375,
          "velocity": 0.6771653543307087,
          "duration": 2.9921875
        },
        {
          "name": "A#5",
          "midi": 82,
          "time": 403.875,
          "velocity": 0.8188976377952756,
          "duration": 0.3671875
        },
        {
          "name": "A#5",
          "midi": 82,
          "time": 405,
          "velocity": 0.8582677165354331,
          "duration": 0.1796875
        },
        {
          "name": "A5",
          "midi": 81,
          "time": 405.1875,
          "velocity": 0.8582677165354331,
          "duration": 0.1796875
        },
        {
          "name": "A#5",
          "midi": 82,
          "time": 405.375,
          "velocity": 0.8188976377952756,
          "duration": 0.1796875
        },
        {
          "name": "A5",
          "midi": 81,
          "time": 405.5625,
          "velocity": 0.8188976377952756,
          "duration": 0.1796875
        },
        {
          "name": "A#5",
          "midi": 82,
          "time": 407.25,
          "velocity": 0.7716535433070866,
          "duration": 0.1796875
        },
        {
          "name": "A5",
          "midi": 81,
          "time": 407.4375,
          "velocity": 0.905511811023622,
          "duration": 0.1796875
        },
        {
          "name": "A#5",
          "midi": 82,
          "time": 407.625,
          "velocity": 0.6771653543307087,
          "duration": 0.1796875
        },
        {
          "name": "A5",
          "midi": 81,
          "time": 407.8125,
          "velocity": 0.7716535433070866,
          "duration": 0.1796875
        },
        {
          "name": "G5",
          "midi": 79,
          "time": 408,
          "velocity": 0.6771653543307087,
          "duration": 0.1796875
        },
        {
          "name": "A5",
          "midi": 81,
          "time": 408.1875,
          "velocity": 0.8188976377952756,
          "duration": 0.5546875
        },
        {
          "name": "A5",
          "midi": 81,
          "time": 408.75,
          "velocity": 0.7716535433070866,
          "duration": 0.3671875
        },
        {
          "name": "A#5",
          "midi": 82,
          "time": 415.5,
          "velocity": 0.6299212598425197,
          "duration": 0.1796875
        },
        {
          "name": "A5",
          "midi": 81,
          "time": 415.6875,
          "velocity": 0.8188976377952756,
          "duration": 0.1796875
        },
        {
          "name": "A#5",
          "midi": 82,
          "time": 415.875,
          "velocity": 0.7716535433070866,
          "duration": 0.1796875
        },
        {
          "name": "A5",
          "midi": 81,
          "time": 416.0625,
          "velocity": 0.7716535433070866,
          "duration": 0.1796875
        },
        {
          "name": "G5",
          "midi": 79,
          "time": 416.25,
          "velocity": 0.8582677165354331,
          "duration": 0.3671875
        },
        {
          "name": "A#5",
          "midi": 82,
          "time": 418.5,
          "velocity": 0.6141732283464567,
          "duration": 0.1796875
        },
        {
          "name": "A5",
          "midi": 81,
          "time": 418.6875,
          "velocity": 0.7716535433070866,
          "duration": 0.1796875
        },
        {
          "name": "A#5",
          "midi": 82,
          "time": 418.875,
          "velocity": 0.6771653543307087,
          "duration": 0.1796875
        },
        {
          "name": "A5",
          "midi": 81,
          "time": 419.0625,
          "velocity": 0.8188976377952756,
          "duration": 0.1796875
        },
        {
          "name": "G5",
          "midi": 79,
          "time": 419.25,
          "velocity": 0.6771653543307087,
          "duration": 0.3671875
        },
        {
          "name": "G5",
          "midi": 79,
          "time": 420,
          "velocity": 0.7716535433070866,
          "duration": 0.3671875
        },
        {
          "name": "G5",
          "midi": 79,
          "time": 420.375,
          "velocity": 0.8188976377952756,
          "duration": 0.3671875
        },
        {
          "name": "A5",
          "midi": 81,
          "time": 420.75,
          "velocity": 0.905511811023622,
          "duration": 1.1171875
        },
        {
          "name": "A5",
          "midi": 81,
          "time": 421.875,
          "velocity": 0.905511811023622,
          "duration": 1.4921875
        },
        {
          "name": "G5",
          "midi": 79,
          "time": 423.375,
          "velocity": 0.8582677165354331,
          "duration": 1.1171875
        },
        {
          "name": "A#5",
          "midi": 82,
          "time": 424.5,
          "velocity": 0.7716535433070866,
          "duration": 0.3671875
        },
        {
          "name": "A#5",
          "midi": 82,
          "time": 424.875,
          "velocity": 0.5669291338582677,
          "duration": 0.3671875
        },
        {
          "name": "G5",
          "midi": 79,
          "time": 425.25,
          "velocity": 0.8188976377952756,
          "duration": 0.3671875
        }
      ],
      "controlChanges": {},
      "id": 7,
      "name": "Vocals              ",
      "instrumentNumber": 58,
      "instrument": "tuba",
      "instrumentFamily": "brass",
      "channelNumber": 6,
      "isPercussion": false
    },
    {
      "startTime": 0,
      "duration": 486.3671875,
      "length": 2363,
      "notes": [
        {
          "name": "C2",
          "midi": 36,
          "time": 0,
          "velocity": 0.9606299212598425,
          "duration": 0.1796875
        },
        {
          "name": "C#3",
          "midi": 49,
          "time": 0,
          "velocity": 0.9133858267716536,
          "duration": 0.3671875
        },
        {
          "name": "C2",
          "midi": 36,
          "time": 0.1875,
          "velocity": 1,
          "duration": 0.5546875
        },
        {
          "name": "F#2",
          "midi": 42,
          "time": 0.375,
          "velocity": 0.8188976377952756,
          "duration": 0.3671875
        },
        {
          "name": "D2",
          "midi": 38,
          "time": 0.75,
          "velocity": 1,
          "duration": 0.7421875
        },
        {
          "name": "F#2",
          "midi": 42,
          "time": 0.75,
          "velocity": 0.8503937007874016,
          "duration": 0.3671875
        },
        {
          "name": "F#2",
          "midi": 42,
          "time": 1.125,
          "velocity": 0.8661417322834646,
          "duration": 0.3671875
        },
        {
          "name": "C2",
          "midi": 36,
          "time": 1.5,
          "velocity": 0.8661417322834646,
          "duration": 0.1796875
        },
        {
          "name": "F#2",
          "midi": 42,
          "time": 1.5,
          "velocity": 0.9133858267716536,
          "duration": 0.3671875
        },
        {
          "name": "C2",
          "midi": 36,
          "time": 1.6875,
          "velocity": 0.8346456692913385,
          "duration": 0.5546875
        },
        {
          "name": "F#2",
          "midi": 42,
          "time": 1.875,
          "velocity": 0.7874015748031497,
          "duration": 0.3671875
        },
        {
          "name": "D2",
          "midi": 38,
          "time": 2.25,
          "velocity": 1,
          "duration": 0.7421875
        },
        {
          "name": "F#2",
          "midi": 42,
          "time": 2.25,
          "velocity": 0.8503937007874016,
          "duration": 0.3671875
        },
        {
          "name": "F#2",
          "midi": 42,
          "time": 2.625,
          "velocity": 0.9133858267716536,
          "duration": 0.3671875
        },
        {
          "name": "C2",
          "midi": 36,
          "time": 3,
          "velocity": 0.8661417322834646,
          "duration": 0.1796875
        },
        {
          "name": "F#2",
          "midi": 42,
          "time": 3,
          "velocity": 0.9133858267716536,
          "duration": 0.3671875
        },
        {
          "name": "C2",
          "midi": 36,
          "time": 3.1875,
          "velocity": 0.8346456692913385,
          "duration": 0.5546875
        },
        {
          "name": "F#2",
          "midi": 42,
          "time": 3.375,
          "velocity": 0.7874015748031497,
          "duration": 0.3671875
        },
        {
          "name": "D2",
          "midi": 38,
          "time": 3.75,
          "velocity": 1,
          "duration": 0.7421875
        },
        {
          "name": "F#2",
          "midi": 42,
          "time": 3.75,
          "velocity": 0.8503937007874016,
          "duration": 0.3671875
        },
        {
          "name": "F#2",
          "midi": 42,
          "time": 4.125,
          "velocity": 0.9133858267716536,
          "duration": 0.3671875
        },
        {
          "name": "C2",
          "midi": 36,
          "time": 4.5,
          "velocity": 0.8661417322834646,
          "duration": 0.1796875
        },
        {
          "name": "F#2",
          "midi": 42,
          "time": 4.5,
          "velocity": 0.9133858267716536,
          "duration": 0.3671875
        },
        {
          "name": "C2",
          "midi": 36,
          "time": 4.6875,
          "velocity": 0.8346456692913385,
          "duration": 0.5546875
        },
        {
          "name": "F#2",
          "midi": 42,
          "time": 4.875,
          "velocity": 0.7874015748031497,
          "duration": 0.3671875
        },
        {
          "name": "D2",
          "midi": 38,
          "time": 5.25,
          "velocity": 1,
          "duration": 0.7421875
        },
        {
          "name": "F#2",
          "midi": 42,
          "time": 5.25,
          "velocity": 0.8503937007874016,
          "duration": 0.3671875
        },
        {
          "name": "F#2",
          "midi": 42,
          "time": 5.625,
          "velocity": 0.9133858267716536,
          "duration": 0.3671875
        },
        {
          "name": "C2",
          "midi": 36,
          "time": 6,
          "velocity": 0.8661417322834646,
          "duration": 0.1796875
        },
        {
          "name": "F#2",
          "midi": 42,
          "time": 6,
          "velocity": 0.9133858267716536,
          "duration": 0.3671875
        },
        {
          "name": "C2",
          "midi": 36,
          "time": 6.1875,
          "velocity": 0.8346456692913385,
          "duration": 0.5546875
        },
        {
          "name": "F#2",
          "midi": 42,
          "time": 6.375,
          "velocity": 0.7874015748031497,
          "duration": 0.3671875
        },
        {
          "name": "D2",
          "midi": 38,
          "time": 6.75,
          "velocity": 1,
          "duration": 0.7421875
        },
        {
          "name": "F#2",
          "midi": 42,
          "time": 6.75,
          "velocity": 0.8503937007874016,
          "duration": 0.3671875
        },
        {
          "name": "F#2",
          "midi": 42,
          "time": 7.125,
          "velocity": 0.9133858267716536,
          "duration": 0.3671875
        },
        {
          "name": "C2",
          "midi": 36,
          "time": 7.5,
          "velocity": 0.8661417322834646,
          "duration": 0.1796875
        },
        {
          "name": "F#2",
          "midi": 42,
          "time": 7.5,
          "velocity": 0.9133858267716536,
          "duration": 0.3671875
        },
        {
          "name": "C2",
          "midi": 36,
          "time": 7.6875,
          "velocity": 0.8346456692913385,
          "duration": 0.5546875
        },
        {
          "name": "F#2",
          "midi": 42,
          "time": 7.875,
          "velocity": 0.7874015748031497,
          "duration": 0.3671875
        },
        {
          "name": "D2",
          "midi": 38,
          "time": 8.25,
          "velocity": 1,
          "duration": 0.7421875
        },
        {
          "name": "F#2",
          "midi": 42,
          "time": 8.25,
          "velocity": 0.8503937007874016,
          "duration": 0.3671875
        },
        {
          "name": "F#2",
          "midi": 42,
          "time": 8.625,
          "velocity": 0.9133858267716536,
          "duration": 0.3671875
        },
        {
          "name": "C2",
          "midi": 36,
          "time": 9,
          "velocity": 0.8661417322834646,
          "duration": 0.1796875
        },
        {
          "name": "F#2",
          "midi": 42,
          "time": 9,
          "velocity": 0.9133858267716536,
          "duration": 0.3671875
        },
        {
          "name": "C2",
          "midi": 36,
          "time": 9.1875,
          "velocity": 0.8346456692913385,
          "duration": 0.5546875
        },
        {
          "name": "F#2",
          "midi": 42,
          "time": 9.375,
          "velocity": 0.7874015748031497,
          "duration": 0.3671875
        },
        {
          "name": "D2",
          "midi": 38,
          "time": 9.75,
          "velocity": 1,
          "duration": 0.7421875
        },
        {
          "name": "F#2",
          "midi": 42,
          "time": 9.75,
          "velocity": 0.8503937007874016,
          "duration": 0.3671875
        },
        {
          "name": "F#2",
          "midi": 42,
          "time": 10.125,
          "velocity": 0.9133858267716536,
          "duration": 0.3671875
        },
        {
          "name": "C2",
          "midi": 36,
          "time": 10.5,
          "velocity": 0.8661417322834646,
          "duration": 0.1796875
        },
        {
          "name": "F#2",
          "midi": 42,
          "time": 10.5,
          "velocity": 0.9133858267716536,
          "duration": 0.3671875
        },
        {
          "name": "C2",
          "midi": 36,
          "time": 10.6875,
          "velocity": 0.8346456692913385,
          "duration": 0.5546875
        },
        {
          "name": "F#2",
          "midi": 42,
          "time": 10.875,
          "velocity": 0.7874015748031497,
          "duration": 0.3671875
        },
        {
          "name": "D2",
          "midi": 38,
          "time": 11.25,
          "velocity": 1,
          "duration": 0.7421875
        },
        {
          "name": "F#2",
          "midi": 42,
          "time": 11.25,
          "velocity": 0.8503937007874016,
          "duration": 0.3671875
        },
        {
          "name": "F#2",
          "midi": 42,
          "time": 11.625,
          "velocity": 0.9133858267716536,
          "duration": 0.3671875
        },
        {
          "name": "C2",
          "midi": 36,
          "time": 12,
          "velocity": 0.8661417322834646,
          "duration": 0.1796875
        },
        {
          "name": "F#2",
          "midi": 42,
          "time": 12,
          "velocity": 0.9133858267716536,
          "duration": 0.3671875
        },
        {
          "name": "C2",
          "midi": 36,
          "time": 12.1875,
          "velocity": 0.8346456692913385,
          "duration": 0.5546875
        },
        {
          "name": "F#2",
          "midi": 42,
          "time": 12.375,
          "velocity": 0.7874015748031497,
          "duration": 0.3671875
        },
        {
          "name": "D2",
          "midi": 38,
          "time": 12.75,
          "velocity": 1,
          "duration": 0.7421875
        },
        {
          "name": "F#2",
          "midi": 42,
          "time": 12.75,
          "velocity": 0.8503937007874016,
          "duration": 0.3671875
        },
        {
          "name": "F#2",
          "midi": 42,
          "time": 13.125,
          "velocity": 0.9133858267716536,
          "duration": 0.3671875
        },
        {
          "name": "C2",
          "midi": 36,
          "time": 13.5,
          "velocity": 0.8661417322834646,
          "duration": 0.1796875
        },
        {
          "name": "F#2",
          "midi": 42,
          "time": 13.5,
          "velocity": 0.9133858267716536,
          "duration": 0.3671875
        },
        {
          "name": "C2",
          "midi": 36,
          "time": 13.6875,
          "velocity": 0.8346456692913385,
          "duration": 0.5546875
        },
        {
          "name": "F#2",
          "midi": 42,
          "time": 13.875,
          "velocity": 0.7874015748031497,
          "duration": 0.3671875
        },
        {
          "name": "D2",
          "midi": 38,
          "time": 14.25,
          "velocity": 1,
          "duration": 0.7421875
        },
        {
          "name": "F#2",
          "midi": 42,
          "time": 14.25,
          "velocity": 0.8503937007874016,
          "duration": 0.3671875
        },
        {
          "name": "F#2",
          "midi": 42,
          "time": 14.625,
          "velocity": 0.9133858267716536,
          "duration": 0.3671875
        },
        {
          "name": "C2",
          "midi": 36,
          "time": 15,
          "velocity": 0.8661417322834646,
          "duration": 0.1796875
        },
        {
          "name": "F#2",
          "midi": 42,
          "time": 15,
          "velocity": 0.9133858267716536,
          "duration": 0.3671875
        },
        {
          "name": "C2",
          "midi": 36,
          "time": 15.1875,
          "velocity": 0.8346456692913385,
          "duration": 0.5546875
        },
        {
          "name": "F#2",
          "midi": 42,
          "time": 15.375,
          "velocity": 0.7874015748031497,
          "duration": 0.3671875
        },
        {
          "name": "D2",
          "midi": 38,
          "time": 15.75,
          "velocity": 1,
          "duration": 0.7421875
        },
        {
          "name": "F#2",
          "midi": 42,
          "time": 15.75,
          "velocity": 0.8503937007874016,
          "duration": 0.3671875
        },
        {
          "name": "F#2",
          "midi": 42,
          "time": 16.125,
          "velocity": 0.9133858267716536,
          "duration": 0.3671875
        },
        {
          "name": "C2",
          "midi": 36,
          "time": 16.5,
          "velocity": 0.8661417322834646,
          "duration": 0.1796875
        },
        {
          "name": "F#2",
          "midi": 42,
          "time": 16.5,
          "velocity": 0.9133858267716536,
          "duration": 0.3671875
        },
        {
          "name": "C2",
          "midi": 36,
          "time": 16.6875,
          "velocity": 0.8346456692913385,
          "duration": 0.5546875
        },
        {
          "name": "F#2",
          "midi": 42,
          "time": 16.875,
          "velocity": 0.7874015748031497,
          "duration": 0.3671875
        },
        {
          "name": "D2",
          "midi": 38,
          "time": 17.25,
          "velocity": 1,
          "duration": 0.7421875
        },
        {
          "name": "F#2",
          "midi": 42,
          "time": 17.25,
          "velocity": 0.8503937007874016,
          "duration": 0.3671875
        },
        {
          "name": "F#2",
          "midi": 42,
          "time": 17.625,
          "velocity": 0.9133858267716536,
          "duration": 0.3671875
        },
        {
          "name": "C2",
          "midi": 36,
          "time": 18,
          "velocity": 0.8661417322834646,
          "duration": 0.1796875
        },
        {
          "name": "F#2",
          "midi": 42,
          "time": 18,
          "velocity": 0.9133858267716536,
          "duration": 0.3671875
        },
        {
          "name": "C2",
          "midi": 36,
          "time": 18.1875,
          "velocity": 0.8346456692913385,
          "duration": 0.5546875
        },
        {
          "name": "F#2",
          "midi": 42,
          "time": 18.375,
          "velocity": 0.7874015748031497,
          "duration": 0.3671875
        },
        {
          "name": "D2",
          "midi": 38,
          "time": 18.75,
          "velocity": 1,
          "duration": 0.7421875
        },
        {
          "name": "F#2",
          "midi": 42,
          "time": 18.75,
          "velocity": 0.8503937007874016,
          "duration": 0.3671875
        },
        {
          "name": "F#2",
          "midi": 42,
          "time": 19.125,
          "velocity": 0.9133858267716536,
          "duration": 0.3671875
        },
        {
          "name": "C2",
          "midi": 36,
          "time": 19.5,
          "velocity": 0.8661417322834646,
          "duration": 0.1796875
        },
        {
          "name": "F#2",
          "midi": 42,
          "time": 19.5,
          "velocity": 0.9133858267716536,
          "duration": 0.3671875
        },
        {
          "name": "C2",
          "midi": 36,
          "time": 19.6875,
          "velocity": 0.8346456692913385,
          "duration": 0.5546875
        },
        {
          "name": "F#2",
          "midi": 42,
          "time": 19.875,
          "velocity": 0.7874015748031497,
          "duration": 0.3671875
        },
        {
          "name": "D2",
          "midi": 38,
          "time": 20.25,
          "velocity": 1,
          "duration": 0.7421875
        },
        {
          "name": "F#2",
          "midi": 42,
          "time": 20.25,
          "velocity": 0.8503937007874016,
          "duration": 0.3671875
        },
        {
          "name": "F#2",
          "midi": 42,
          "time": 20.625,
          "velocity": 0.9133858267716536,
          "duration": 0.3671875
        },
        {
          "name": "C2",
          "midi": 36,
          "time": 21,
          "velocity": 0.8661417322834646,
          "duration": 0.1796875
        },
        {
          "name": "F#2",
          "midi": 42,
          "time": 21,
          "velocity": 0.9133858267716536,
          "duration": 0.3671875
        },
        {
          "name": "C2",
          "midi": 36,
          "time": 21.1875,
          "velocity": 0.8346456692913385,
          "duration": 0.5546875
        },
        {
          "name": "F#2",
          "midi": 42,
          "time": 21.375,
          "velocity": 0.7874015748031497,
          "duration": 0.3671875
        },
        {
          "name": "D2",
          "midi": 38,
          "time": 21.75,
          "velocity": 1,
          "duration": 0.7421875
        },
        {
          "name": "F#2",
          "midi": 42,
          "time": 21.75,
          "velocity": 0.8503937007874016,
          "duration": 0.3671875
        },
        {
          "name": "F#2",
          "midi": 42,
          "time": 22.125,
          "velocity": 0.9133858267716536,
          "duration": 0.3671875
        },
        {
          "name": "C2",
          "midi": 36,
          "time": 22.5,
          "velocity": 0.8661417322834646,
          "duration": 0.1796875
        },
        {
          "name": "F#2",
          "midi": 42,
          "time": 22.5,
          "velocity": 0.9133858267716536,
          "duration": 0.3671875
        },
        {
          "name": "C2",
          "midi": 36,
          "time": 22.6875,
          "velocity": 0.8346456692913385,
          "duration": 0.5546875
        },
        {
          "name": "F#2",
          "midi": 42,
          "time": 22.875,
          "velocity": 0.7874015748031497,
          "duration": 0.3671875
        },
        {
          "name": "D2",
          "midi": 38,
          "time": 23.25,
          "velocity": 1,
          "duration": 0.7421875
        },
        {
          "name": "F#2",
          "midi": 42,
          "time": 23.25,
          "velocity": 0.8503937007874016,
          "duration": 0.3671875
        },
        {
          "name": "F#2",
          "midi": 42,
          "time": 23.625,
          "velocity": 0.9133858267716536,
          "duration": 0.3671875
        },
        {
          "name": "C2",
          "midi": 36,
          "time": 24,
          "velocity": 0.8661417322834646,
          "duration": 0.1796875
        },
        {
          "name": "F#2",
          "midi": 42,
          "time": 24,
          "velocity": 0.9133858267716536,
          "duration": 0.3671875
        },
        {
          "name": "C2",
          "midi": 36,
          "time": 24.1875,
          "velocity": 0.8346456692913385,
          "duration": 0.5546875
        },
        {
          "name": "F#2",
          "midi": 42,
          "time": 24.375,
          "velocity": 0.7874015748031497,
          "duration": 0.3671875
        },
        {
          "name": "D2",
          "midi": 38,
          "time": 24.75,
          "velocity": 1,
          "duration": 0.7421875
        },
        {
          "name": "F#2",
          "midi": 42,
          "time": 24.75,
          "velocity": 0.8503937007874016,
          "duration": 0.3671875
        },
        {
          "name": "F#2",
          "midi": 42,
          "time": 25.125,
          "velocity": 0.9133858267716536,
          "duration": 0.3671875
        },
        {
          "name": "C2",
          "midi": 36,
          "time": 25.5,
          "velocity": 0.8661417322834646,
          "duration": 0.1796875
        },
        {
          "name": "F#2",
          "midi": 42,
          "time": 25.5,
          "velocity": 0.9133858267716536,
          "duration": 0.3671875
        },
        {
          "name": "C2",
          "midi": 36,
          "time": 25.6875,
          "velocity": 0.8346456692913385,
          "duration": 0.5546875
        },
        {
          "name": "F#2",
          "midi": 42,
          "time": 25.875,
          "velocity": 0.7874015748031497,
          "duration": 0.3671875
        },
        {
          "name": "D2",
          "midi": 38,
          "time": 26.25,
          "velocity": 1,
          "duration": 0.7421875
        },
        {
          "name": "F#2",
          "midi": 42,
          "time": 26.25,
          "velocity": 0.8503937007874016,
          "duration": 0.3671875
        },
        {
          "name": "F#2",
          "midi": 42,
          "time": 26.625,
          "velocity": 0.9133858267716536,
          "duration": 0.3671875
        },
        {
          "name": "C2",
          "midi": 36,
          "time": 27,
          "velocity": 0.8661417322834646,
          "duration": 0.1796875
        },
        {
          "name": "F#2",
          "midi": 42,
          "time": 27,
          "velocity": 0.9133858267716536,
          "duration": 0.3671875
        },
        {
          "name": "C2",
          "midi": 36,
          "time": 27.1875,
          "velocity": 0.8346456692913385,
          "duration": 0.5546875
        },
        {
          "name": "F#2",
          "midi": 42,
          "time": 27.375,
          "velocity": 0.7874015748031497,
          "duration": 0.3671875
        },
        {
          "name": "D2",
          "midi": 38,
          "time": 27.75,
          "velocity": 1,
          "duration": 0.7421875
        },
        {
          "name": "F#2",
          "midi": 42,
          "time": 27.75,
          "velocity": 0.8503937007874016,
          "duration": 0.3671875
        },
        {
          "name": "F#2",
          "midi": 42,
          "time": 28.125,
          "velocity": 0.9133858267716536,
          "duration": 0.3671875
        },
        {
          "name": "C2",
          "midi": 36,
          "time": 28.5,
          "velocity": 0.8661417322834646,
          "duration": 0.1796875
        },
        {
          "name": "F#2",
          "midi": 42,
          "time": 28.5,
          "velocity": 0.9133858267716536,
          "duration": 0.3671875
        },
        {
          "name": "C2",
          "midi": 36,
          "time": 28.6875,
          "velocity": 0.8346456692913385,
          "duration": 0.5546875
        },
        {
          "name": "F#2",
          "midi": 42,
          "time": 28.875,
          "velocity": 0.7874015748031497,
          "duration": 0.3671875
        },
        {
          "name": "D2",
          "midi": 38,
          "time": 29.25,
          "velocity": 1,
          "duration": 0.7421875
        },
        {
          "name": "F#2",
          "midi": 42,
          "time": 29.25,
          "velocity": 0.8503937007874016,
          "duration": 0.3671875
        },
        {
          "name": "F#2",
          "midi": 42,
          "time": 29.625,
          "velocity": 0.9133858267716536,
          "duration": 0.3671875
        },
        {
          "name": "C2",
          "midi": 36,
          "time": 30,
          "velocity": 0.8661417322834646,
          "duration": 0.1796875
        },
        {
          "name": "F#2",
          "midi": 42,
          "time": 30,
          "velocity": 0.9133858267716536,
          "duration": 0.3671875
        },
        {
          "name": "C2",
          "midi": 36,
          "time": 30.1875,
          "velocity": 0.8346456692913385,
          "duration": 0.5546875
        },
        {
          "name": "F#2",
          "midi": 42,
          "time": 30.375,
          "velocity": 0.7874015748031497,
          "duration": 0.3671875
        },
        {
          "name": "D2",
          "midi": 38,
          "time": 30.75,
          "velocity": 1,
          "duration": 0.7421875
        },
        {
          "name": "F#2",
          "midi": 42,
          "time": 30.75,
          "velocity": 0.8503937007874016,
          "duration": 0.3671875
        },
        {
          "name": "F#2",
          "midi": 42,
          "time": 31.125,
          "velocity": 0.9133858267716536,
          "duration": 0.3671875
        },
        {
          "name": "C2",
          "midi": 36,
          "time": 31.5,
          "velocity": 0.8661417322834646,
          "duration": 0.1796875
        },
        {
          "name": "F#2",
          "midi": 42,
          "time": 31.5,
          "velocity": 0.9133858267716536,
          "duration": 0.3671875
        },
        {
          "name": "C2",
          "midi": 36,
          "time": 31.6875,
          "velocity": 0.8346456692913385,
          "duration": 0.5546875
        },
        {
          "name": "F#2",
          "midi": 42,
          "time": 31.875,
          "velocity": 0.7874015748031497,
          "duration": 0.3671875
        },
        {
          "name": "D2",
          "midi": 38,
          "time": 32.25,
          "velocity": 1,
          "duration": 0.7421875
        },
        {
          "name": "F#2",
          "midi": 42,
          "time": 32.25,
          "velocity": 0.8503937007874016,
          "duration": 0.3671875
        },
        {
          "name": "F#2",
          "midi": 42,
          "time": 32.625,
          "velocity": 0.9133858267716536,
          "duration": 0.3671875
        },
        {
          "name": "C2",
          "midi": 36,
          "time": 33,
          "velocity": 0.8661417322834646,
          "duration": 0.1796875
        },
        {
          "name": "F#2",
          "midi": 42,
          "time": 33,
          "velocity": 0.9133858267716536,
          "duration": 0.3671875
        },
        {
          "name": "C2",
          "midi": 36,
          "time": 33.1875,
          "velocity": 0.8346456692913385,
          "duration": 0.5546875
        },
        {
          "name": "F#2",
          "midi": 42,
          "time": 33.375,
          "velocity": 0.7874015748031497,
          "duration": 0.3671875
        },
        {
          "name": "D2",
          "midi": 38,
          "time": 33.75,
          "velocity": 1,
          "duration": 0.7421875
        },
        {
          "name": "F#2",
          "midi": 42,
          "time": 33.75,
          "velocity": 0.8503937007874016,
          "duration": 0.3671875
        },
        {
          "name": "F#2",
          "midi": 42,
          "time": 34.125,
          "velocity": 0.9133858267716536,
          "duration": 0.3671875
        },
        {
          "name": "C2",
          "midi": 36,
          "time": 34.5,
          "velocity": 0.8661417322834646,
          "duration": 0.1796875
        },
        {
          "name": "F#2",
          "midi": 42,
          "time": 34.5,
          "velocity": 0.9133858267716536,
          "duration": 0.3671875
        },
        {
          "name": "C2",
          "midi": 36,
          "time": 34.6875,
          "velocity": 0.8346456692913385,
          "duration": 0.5546875
        },
        {
          "name": "F#2",
          "midi": 42,
          "time": 34.875,
          "velocity": 0.7874015748031497,
          "duration": 0.3671875
        },
        {
          "name": "D2",
          "midi": 38,
          "time": 35.25,
          "velocity": 1,
          "duration": 0.7421875
        },
        {
          "name": "F#2",
          "midi": 42,
          "time": 35.25,
          "velocity": 0.8503937007874016,
          "duration": 0.3671875
        },
        {
          "name": "F#2",
          "midi": 42,
          "time": 35.625,
          "velocity": 0.9133858267716536,
          "duration": 0.3671875
        },
        {
          "name": "C2",
          "midi": 36,
          "time": 36,
          "velocity": 0.8661417322834646,
          "duration": 0.1796875
        },
        {
          "name": "C#3",
          "midi": 49,
          "time": 36,
          "velocity": 0.9133858267716536,
          "duration": 0.3671875
        },
        {
          "name": "C2",
          "midi": 36,
          "time": 36.1875,
          "velocity": 0.8346456692913385,
          "duration": 0.5546875
        },
        {
          "name": "F#2",
          "midi": 42,
          "time": 36.375,
          "velocity": 0.7874015748031497,
          "duration": 0.3671875
        },
        {
          "name": "D2",
          "midi": 38,
          "time": 36.75,
          "velocity": 1,
          "duration": 0.7421875
        },
        {
          "name": "F#2",
          "midi": 42,
          "time": 36.75,
          "velocity": 0.8503937007874016,
          "duration": 0.3671875
        },
        {
          "name": "F#2",
          "midi": 42,
          "time": 37.125,
          "velocity": 0.9133858267716536,
          "duration": 0.3671875
        },
        {
          "name": "C2",
          "midi": 36,
          "time": 37.5,
          "velocity": 0.8661417322834646,
          "duration": 0.1796875
        },
        {
          "name": "F#2",
          "midi": 42,
          "time": 37.5,
          "velocity": 0.9133858267716536,
          "duration": 0.3671875
        },
        {
          "name": "C2",
          "midi": 36,
          "time": 37.6875,
          "velocity": 0.8346456692913385,
          "duration": 0.5546875
        },
        {
          "name": "F#2",
          "midi": 42,
          "time": 37.875,
          "velocity": 0.7874015748031497,
          "duration": 0.3671875
        },
        {
          "name": "D2",
          "midi": 38,
          "time": 38.25,
          "velocity": 1,
          "duration": 0.7421875
        },
        {
          "name": "F#2",
          "midi": 42,
          "time": 38.25,
          "velocity": 0.8503937007874016,
          "duration": 0.3671875
        },
        {
          "name": "F#2",
          "midi": 42,
          "time": 38.625,
          "velocity": 0.9133858267716536,
          "duration": 0.3671875
        },
        {
          "name": "C2",
          "midi": 36,
          "time": 39,
          "velocity": 0.8661417322834646,
          "duration": 0.1796875
        },
        {
          "name": "F#2",
          "midi": 42,
          "time": 39,
          "velocity": 0.9133858267716536,
          "duration": 0.3671875
        },
        {
          "name": "C2",
          "midi": 36,
          "time": 39.1875,
          "velocity": 0.8346456692913385,
          "duration": 0.5546875
        },
        {
          "name": "F#2",
          "midi": 42,
          "time": 39.375,
          "velocity": 0.7874015748031497,
          "duration": 0.3671875
        },
        {
          "name": "D2",
          "midi": 38,
          "time": 39.75,
          "velocity": 1,
          "duration": 0.7421875
        },
        {
          "name": "F#2",
          "midi": 42,
          "time": 39.75,
          "velocity": 0.8503937007874016,
          "duration": 0.3671875
        },
        {
          "name": "F#2",
          "midi": 42,
          "time": 40.125,
          "velocity": 0.9133858267716536,
          "duration": 0.3671875
        },
        {
          "name": "C2",
          "midi": 36,
          "time": 40.5,
          "velocity": 0.8661417322834646,
          "duration": 0.1796875
        },
        {
          "name": "F#2",
          "midi": 42,
          "time": 40.5,
          "velocity": 0.9133858267716536,
          "duration": 0.3671875
        },
        {
          "name": "C2",
          "midi": 36,
          "time": 40.6875,
          "velocity": 0.8346456692913385,
          "duration": 0.5546875
        },
        {
          "name": "F#2",
          "midi": 42,
          "time": 40.875,
          "velocity": 0.7874015748031497,
          "duration": 0.3671875
        },
        {
          "name": "D2",
          "midi": 38,
          "time": 41.25,
          "velocity": 1,
          "duration": 0.7421875
        },
        {
          "name": "F#2",
          "midi": 42,
          "time": 41.25,
          "velocity": 0.8503937007874016,
          "duration": 0.3671875
        },
        {
          "name": "F#2",
          "midi": 42,
          "time": 41.625,
          "velocity": 0.9133858267716536,
          "duration": 0.3671875
        },
        {
          "name": "C2",
          "midi": 36,
          "time": 42,
          "velocity": 0.8661417322834646,
          "duration": 0.1796875
        },
        {
          "name": "F#2",
          "midi": 42,
          "time": 42,
          "velocity": 0.9133858267716536,
          "duration": 0.3671875
        },
        {
          "name": "C2",
          "midi": 36,
          "time": 42.1875,
          "velocity": 0.8346456692913385,
          "duration": 0.5546875
        },
        {
          "name": "F#2",
          "midi": 42,
          "time": 42.375,
          "velocity": 0.7874015748031497,
          "duration": 0.3671875
        },
        {
          "name": "D2",
          "midi": 38,
          "time": 42.75,
          "velocity": 1,
          "duration": 0.7421875
        },
        {
          "name": "F#2",
          "midi": 42,
          "time": 42.75,
          "velocity": 0.8503937007874016,
          "duration": 0.3671875
        },
        {
          "name": "F#2",
          "midi": 42,
          "time": 43.125,
          "velocity": 0.9133858267716536,
          "duration": 0.3671875
        },
        {
          "name": "C2",
          "midi": 36,
          "time": 43.5,
          "velocity": 0.8661417322834646,
          "duration": 0.1796875
        },
        {
          "name": "F#2",
          "midi": 42,
          "time": 43.5,
          "velocity": 0.9133858267716536,
          "duration": 0.3671875
        },
        {
          "name": "C2",
          "midi": 36,
          "time": 43.6875,
          "velocity": 0.8346456692913385,
          "duration": 0.5546875
        },
        {
          "name": "F#2",
          "midi": 42,
          "time": 43.875,
          "velocity": 0.7874015748031497,
          "duration": 0.3671875
        },
        {
          "name": "D2",
          "midi": 38,
          "time": 44.25,
          "velocity": 1,
          "duration": 0.7421875
        },
        {
          "name": "F#2",
          "midi": 42,
          "time": 44.25,
          "velocity": 0.8503937007874016,
          "duration": 0.3671875
        },
        {
          "name": "F#2",
          "midi": 42,
          "time": 44.625,
          "velocity": 0.9133858267716536,
          "duration": 0.3671875
        },
        {
          "name": "C2",
          "midi": 36,
          "time": 45,
          "velocity": 0.8661417322834646,
          "duration": 0.1796875
        },
        {
          "name": "F#2",
          "midi": 42,
          "time": 45,
          "velocity": 0.9133858267716536,
          "duration": 0.3671875
        },
        {
          "name": "C2",
          "midi": 36,
          "time": 45.1875,
          "velocity": 0.8346456692913385,
          "duration": 0.5546875
        },
        {
          "name": "F#2",
          "midi": 42,
          "time": 45.375,
          "velocity": 0.7874015748031497,
          "duration": 0.3671875
        },
        {
          "name": "D2",
          "midi": 38,
          "time": 45.75,
          "velocity": 1,
          "duration": 0.7421875
        },
        {
          "name": "F#2",
          "midi": 42,
          "time": 45.75,
          "velocity": 0.8503937007874016,
          "duration": 0.3671875
        },
        {
          "name": "F#2",
          "midi": 42,
          "time": 46.125,
          "velocity": 0.9133858267716536,
          "duration": 0.3671875
        },
        {
          "name": "C2",
          "midi": 36,
          "time": 46.5,
          "velocity": 0.8661417322834646,
          "duration": 0.1796875
        },
        {
          "name": "F#2",
          "midi": 42,
          "time": 46.5,
          "velocity": 0.9133858267716536,
          "duration": 0.3671875
        },
        {
          "name": "C2",
          "midi": 36,
          "time": 46.6875,
          "velocity": 0.8346456692913385,
          "duration": 0.5546875
        },
        {
          "name": "F#2",
          "midi": 42,
          "time": 46.875,
          "velocity": 0.7874015748031497,
          "duration": 0.3671875
        },
        {
          "name": "D2",
          "midi": 38,
          "time": 47.25,
          "velocity": 1,
          "duration": 0.7421875
        },
        {
          "name": "F#2",
          "midi": 42,
          "time": 47.25,
          "velocity": 0.8503937007874016,
          "duration": 0.3671875
        },
        {
          "name": "F#2",
          "midi": 42,
          "time": 47.625,
          "velocity": 0.9133858267716536,
          "duration": 0.3671875
        },
        {
          "name": "C2",
          "midi": 36,
          "time": 48,
          "velocity": 0.8661417322834646,
          "duration": 0.1796875
        },
        {
          "name": "F#2",
          "midi": 42,
          "time": 48,
          "velocity": 0.9133858267716536,
          "duration": 0.3671875
        },
        {
          "name": "C2",
          "midi": 36,
          "time": 48.1875,
          "velocity": 0.8346456692913385,
          "duration": 0.5546875
        },
        {
          "name": "F#2",
          "midi": 42,
          "time": 48.375,
          "velocity": 0.7874015748031497,
          "duration": 0.3671875
        },
        {
          "name": "D2",
          "midi": 38,
          "time": 48.75,
          "velocity": 1,
          "duration": 0.7421875
        },
        {
          "name": "F#2",
          "midi": 42,
          "time": 48.75,
          "velocity": 0.8503937007874016,
          "duration": 0.3671875
        },
        {
          "name": "F#2",
          "midi": 42,
          "time": 49.125,
          "velocity": 0.9133858267716536,
          "duration": 0.3671875
        },
        {
          "name": "C2",
          "midi": 36,
          "time": 49.5,
          "velocity": 0.8661417322834646,
          "duration": 0.1796875
        },
        {
          "name": "F#2",
          "midi": 42,
          "time": 49.5,
          "velocity": 0.9133858267716536,
          "duration": 0.3671875
        },
        {
          "name": "C2",
          "midi": 36,
          "time": 49.6875,
          "velocity": 0.8346456692913385,
          "duration": 0.5546875
        },
        {
          "name": "F#2",
          "midi": 42,
          "time": 49.875,
          "velocity": 0.7874015748031497,
          "duration": 0.3671875
        },
        {
          "name": "D2",
          "midi": 38,
          "time": 50.25,
          "velocity": 1,
          "duration": 0.7421875
        },
        {
          "name": "F#2",
          "midi": 42,
          "time": 50.25,
          "velocity": 0.8503937007874016,
          "duration": 0.3671875
        },
        {
          "name": "F#2",
          "midi": 42,
          "time": 50.625,
          "velocity": 0.9133858267716536,
          "duration": 0.3671875
        },
        {
          "name": "C2",
          "midi": 36,
          "time": 51,
          "velocity": 0.8661417322834646,
          "duration": 0.1796875
        },
        {
          "name": "F#2",
          "midi": 42,
          "time": 51,
          "velocity": 0.9133858267716536,
          "duration": 0.3671875
        },
        {
          "name": "C2",
          "midi": 36,
          "time": 51.1875,
          "velocity": 0.8346456692913385,
          "duration": 0.5546875
        },
        {
          "name": "F#2",
          "midi": 42,
          "time": 51.375,
          "velocity": 0.7874015748031497,
          "duration": 0.3671875
        },
        {
          "name": "D2",
          "midi": 38,
          "time": 51.75,
          "velocity": 1,
          "duration": 0.7421875
        },
        {
          "name": "F#2",
          "midi": 42,
          "time": 51.75,
          "velocity": 0.8503937007874016,
          "duration": 0.3671875
        },
        {
          "name": "F#2",
          "midi": 42,
          "time": 52.125,
          "velocity": 0.9133858267716536,
          "duration": 0.3671875
        },
        {
          "name": "C2",
          "midi": 36,
          "time": 52.5,
          "velocity": 0.8661417322834646,
          "duration": 0.1796875
        },
        {
          "name": "F#2",
          "midi": 42,
          "time": 52.5,
          "velocity": 0.9133858267716536,
          "duration": 0.3671875
        },
        {
          "name": "C2",
          "midi": 36,
          "time": 52.6875,
          "velocity": 0.8346456692913385,
          "duration": 0.5546875
        },
        {
          "name": "F#2",
          "midi": 42,
          "time": 52.875,
          "velocity": 0.7874015748031497,
          "duration": 0.3671875
        },
        {
          "name": "D2",
          "midi": 38,
          "time": 53.25,
          "velocity": 1,
          "duration": 0.7421875
        },
        {
          "name": "F#2",
          "midi": 42,
          "time": 53.25,
          "velocity": 0.8503937007874016,
          "duration": 0.3671875
        },
        {
          "name": "F#2",
          "midi": 42,
          "time": 53.625,
          "velocity": 0.9133858267716536,
          "duration": 0.3671875
        },
        {
          "name": "C2",
          "midi": 36,
          "time": 54,
          "velocity": 0.8661417322834646,
          "duration": 0.1796875
        },
        {
          "name": "F#2",
          "midi": 42,
          "time": 54,
          "velocity": 0.9133858267716536,
          "duration": 0.3671875
        },
        {
          "name": "C2",
          "midi": 36,
          "time": 54.1875,
          "velocity": 0.8346456692913385,
          "duration": 0.5546875
        },
        {
          "name": "F#2",
          "midi": 42,
          "time": 54.375,
          "velocity": 0.7874015748031497,
          "duration": 0.3671875
        },
        {
          "name": "D2",
          "midi": 38,
          "time": 54.75,
          "velocity": 1,
          "duration": 0.7421875
        },
        {
          "name": "F#2",
          "midi": 42,
          "time": 54.75,
          "velocity": 0.8503937007874016,
          "duration": 0.3671875
        },
        {
          "name": "F#2",
          "midi": 42,
          "time": 55.125,
          "velocity": 0.9133858267716536,
          "duration": 0.3671875
        },
        {
          "name": "C2",
          "midi": 36,
          "time": 55.5,
          "velocity": 0.8661417322834646,
          "duration": 0.1796875
        },
        {
          "name": "F#2",
          "midi": 42,
          "time": 55.5,
          "velocity": 0.9133858267716536,
          "duration": 0.3671875
        },
        {
          "name": "C2",
          "midi": 36,
          "time": 55.6875,
          "velocity": 0.8346456692913385,
          "duration": 0.5546875
        },
        {
          "name": "F#2",
          "midi": 42,
          "time": 55.875,
          "velocity": 0.7874015748031497,
          "duration": 0.3671875
        },
        {
          "name": "D2",
          "midi": 38,
          "time": 56.25,
          "velocity": 1,
          "duration": 0.7421875
        },
        {
          "name": "F#2",
          "midi": 42,
          "time": 56.25,
          "velocity": 0.8503937007874016,
          "duration": 0.3671875
        },
        {
          "name": "F#2",
          "midi": 42,
          "time": 56.625,
          "velocity": 0.9133858267716536,
          "duration": 0.3671875
        },
        {
          "name": "C2",
          "midi": 36,
          "time": 57,
          "velocity": 0.8661417322834646,
          "duration": 0.1796875
        },
        {
          "name": "F#2",
          "midi": 42,
          "time": 57,
          "velocity": 0.9133858267716536,
          "duration": 0.3671875
        },
        {
          "name": "C2",
          "midi": 36,
          "time": 57.1875,
          "velocity": 0.8346456692913385,
          "duration": 0.5546875
        },
        {
          "name": "F#2",
          "midi": 42,
          "time": 57.375,
          "velocity": 0.7874015748031497,
          "duration": 0.3671875
        },
        {
          "name": "D2",
          "midi": 38,
          "time": 57.75,
          "velocity": 1,
          "duration": 0.7421875
        },
        {
          "name": "F#2",
          "midi": 42,
          "time": 57.75,
          "velocity": 0.8503937007874016,
          "duration": 0.3671875
        },
        {
          "name": "F#2",
          "midi": 42,
          "time": 58.125,
          "velocity": 0.9133858267716536,
          "duration": 0.3671875
        },
        {
          "name": "C2",
          "midi": 36,
          "time": 58.5,
          "velocity": 0.8661417322834646,
          "duration": 0.1796875
        },
        {
          "name": "F#2",
          "midi": 42,
          "time": 58.5,
          "velocity": 0.9133858267716536,
          "duration": 0.3671875
        },
        {
          "name": "C2",
          "midi": 36,
          "time": 58.6875,
          "velocity": 0.8346456692913385,
          "duration": 0.5546875
        },
        {
          "name": "F#2",
          "midi": 42,
          "time": 58.875,
          "velocity": 0.7874015748031497,
          "duration": 0.3671875
        },
        {
          "name": "D2",
          "midi": 38,
          "time": 59.25,
          "velocity": 1,
          "duration": 0.7421875
        },
        {
          "name": "F#2",
          "midi": 42,
          "time": 59.25,
          "velocity": 0.8503937007874016,
          "duration": 0.3671875
        },
        {
          "name": "F#2",
          "midi": 42,
          "time": 59.625,
          "velocity": 0.9133858267716536,
          "duration": 0.3671875
        },
        {
          "name": "C2",
          "midi": 36,
          "time": 60,
          "velocity": 0.8661417322834646,
          "duration": 0.1796875
        },
        {
          "name": "F#2",
          "midi": 42,
          "time": 60,
          "velocity": 0.9133858267716536,
          "duration": 0.3671875
        },
        {
          "name": "C2",
          "midi": 36,
          "time": 60.1875,
          "velocity": 0.8346456692913385,
          "duration": 0.5546875
        },
        {
          "name": "F#2",
          "midi": 42,
          "time": 60.375,
          "velocity": 0.7874015748031497,
          "duration": 0.3671875
        },
        {
          "name": "D2",
          "midi": 38,
          "time": 60.75,
          "velocity": 1,
          "duration": 0.7421875
        },
        {
          "name": "F#2",
          "midi": 42,
          "time": 60.75,
          "velocity": 0.8503937007874016,
          "duration": 0.3671875
        },
        {
          "name": "F#2",
          "midi": 42,
          "time": 61.125,
          "velocity": 0.9133858267716536,
          "duration": 0.3671875
        },
        {
          "name": "C2",
          "midi": 36,
          "time": 61.5,
          "velocity": 0.8661417322834646,
          "duration": 0.1796875
        },
        {
          "name": "F#2",
          "midi": 42,
          "time": 61.5,
          "velocity": 0.9133858267716536,
          "duration": 0.3671875
        },
        {
          "name": "C2",
          "midi": 36,
          "time": 61.6875,
          "velocity": 0.8346456692913385,
          "duration": 0.5546875
        },
        {
          "name": "F#2",
          "midi": 42,
          "time": 61.875,
          "velocity": 0.7874015748031497,
          "duration": 0.3671875
        },
        {
          "name": "D2",
          "midi": 38,
          "time": 62.25,
          "velocity": 1,
          "duration": 0.7421875
        },
        {
          "name": "F#2",
          "midi": 42,
          "time": 62.25,
          "velocity": 0.8503937007874016,
          "duration": 0.3671875
        },
        {
          "name": "F#2",
          "midi": 42,
          "time": 62.625,
          "velocity": 0.9133858267716536,
          "duration": 0.3671875
        },
        {
          "name": "C2",
          "midi": 36,
          "time": 63,
          "velocity": 0.8661417322834646,
          "duration": 0.1796875
        },
        {
          "name": "C#3",
          "midi": 49,
          "time": 63,
          "velocity": 0.9133858267716536,
          "duration": 0.3671875
        },
        {
          "name": "C2",
          "midi": 36,
          "time": 63.1875,
          "velocity": 0.8346456692913385,
          "duration": 0.5546875
        },
        {
          "name": "F#2",
          "midi": 42,
          "time": 63.375,
          "velocity": 0.7874015748031497,
          "duration": 0.3671875
        },
        {
          "name": "D2",
          "midi": 38,
          "time": 63.75,
          "velocity": 1,
          "duration": 0.7421875
        },
        {
          "name": "F#2",
          "midi": 42,
          "time": 63.75,
          "velocity": 0.8503937007874016,
          "duration": 0.3671875
        },
        {
          "name": "F#2",
          "midi": 42,
          "time": 64.125,
          "velocity": 0.9133858267716536,
          "duration": 0.3671875
        },
        {
          "name": "C2",
          "midi": 36,
          "time": 64.5,
          "velocity": 0.8661417322834646,
          "duration": 0.1796875
        },
        {
          "name": "F#2",
          "midi": 42,
          "time": 64.5,
          "velocity": 0.9133858267716536,
          "duration": 0.3671875
        },
        {
          "name": "C2",
          "midi": 36,
          "time": 64.6875,
          "velocity": 0.8346456692913385,
          "duration": 0.5546875
        },
        {
          "name": "F#2",
          "midi": 42,
          "time": 64.875,
          "velocity": 0.7874015748031497,
          "duration": 0.3671875
        },
        {
          "name": "D2",
          "midi": 38,
          "time": 65.25,
          "velocity": 1,
          "duration": 0.7421875
        },
        {
          "name": "F#2",
          "midi": 42,
          "time": 65.25,
          "velocity": 0.8503937007874016,
          "duration": 0.3671875
        },
        {
          "name": "F#2",
          "midi": 42,
          "time": 65.625,
          "velocity": 0.9133858267716536,
          "duration": 0.3671875
        },
        {
          "name": "C2",
          "midi": 36,
          "time": 66,
          "velocity": 0.8661417322834646,
          "duration": 0.1796875
        },
        {
          "name": "F#2",
          "midi": 42,
          "time": 66,
          "velocity": 0.9133858267716536,
          "duration": 0.3671875
        },
        {
          "name": "C2",
          "midi": 36,
          "time": 66.1875,
          "velocity": 0.8346456692913385,
          "duration": 0.5546875
        },
        {
          "name": "F#2",
          "midi": 42,
          "time": 66.375,
          "velocity": 0.7874015748031497,
          "duration": 0.3671875
        },
        {
          "name": "D2",
          "midi": 38,
          "time": 66.75,
          "velocity": 1,
          "duration": 0.7421875
        },
        {
          "name": "F#2",
          "midi": 42,
          "time": 66.75,
          "velocity": 0.8503937007874016,
          "duration": 0.3671875
        },
        {
          "name": "F#2",
          "midi": 42,
          "time": 67.125,
          "velocity": 0.9133858267716536,
          "duration": 0.3671875
        },
        {
          "name": "C2",
          "midi": 36,
          "time": 67.5,
          "velocity": 0.8661417322834646,
          "duration": 0.1796875
        },
        {
          "name": "F#2",
          "midi": 42,
          "time": 67.5,
          "velocity": 0.9133858267716536,
          "duration": 0.3671875
        },
        {
          "name": "C2",
          "midi": 36,
          "time": 67.6875,
          "velocity": 0.8346456692913385,
          "duration": 0.5546875
        },
        {
          "name": "F#2",
          "midi": 42,
          "time": 67.875,
          "velocity": 0.7874015748031497,
          "duration": 0.3671875
        },
        {
          "name": "D2",
          "midi": 38,
          "time": 68.25,
          "velocity": 1,
          "duration": 0.7421875
        },
        {
          "name": "F#2",
          "midi": 42,
          "time": 68.25,
          "velocity": 0.8503937007874016,
          "duration": 0.3671875
        },
        {
          "name": "F#2",
          "midi": 42,
          "time": 68.625,
          "velocity": 0.9133858267716536,
          "duration": 0.3671875
        },
        {
          "name": "C2",
          "midi": 36,
          "time": 69,
          "velocity": 0.8661417322834646,
          "duration": 0.1796875
        },
        {
          "name": "F#2",
          "midi": 42,
          "time": 69,
          "velocity": 0.9133858267716536,
          "duration": 0.3671875
        },
        {
          "name": "C2",
          "midi": 36,
          "time": 69.1875,
          "velocity": 0.8346456692913385,
          "duration": 0.5546875
        },
        {
          "name": "F#2",
          "midi": 42,
          "time": 69.375,
          "velocity": 0.7874015748031497,
          "duration": 0.3671875
        },
        {
          "name": "D2",
          "midi": 38,
          "time": 69.75,
          "velocity": 1,
          "duration": 0.7421875
        },
        {
          "name": "F#2",
          "midi": 42,
          "time": 69.75,
          "velocity": 0.8503937007874016,
          "duration": 0.3671875
        },
        {
          "name": "F#2",
          "midi": 42,
          "time": 70.125,
          "velocity": 0.9133858267716536,
          "duration": 0.3671875
        },
        {
          "name": "C2",
          "midi": 36,
          "time": 70.5,
          "velocity": 0.8661417322834646,
          "duration": 0.1796875
        },
        {
          "name": "F#2",
          "midi": 42,
          "time": 70.5,
          "velocity": 0.9133858267716536,
          "duration": 0.3671875
        },
        {
          "name": "C2",
          "midi": 36,
          "time": 70.6875,
          "velocity": 0.8346456692913385,
          "duration": 0.5546875
        },
        {
          "name": "F#2",
          "midi": 42,
          "time": 70.875,
          "velocity": 0.7874015748031497,
          "duration": 0.3671875
        },
        {
          "name": "D2",
          "midi": 38,
          "time": 71.25,
          "velocity": 1,
          "duration": 0.3671875
        },
        {
          "name": "F#2",
          "midi": 42,
          "time": 71.25,
          "velocity": 0.8503937007874016,
          "duration": 0.3671875
        },
        {
          "name": "D2",
          "midi": 38,
          "time": 71.625,
          "velocity": 0.9133858267716536,
          "duration": 0.1796875
        },
        {
          "name": "F#2",
          "midi": 42,
          "time": 71.625,
          "velocity": 0.9133858267716536,
          "duration": 0.3671875
        },
        {
          "name": "D2",
          "midi": 38,
          "time": 71.8125,
          "velocity": 0.9133858267716536,
          "duration": 0.1796875
        },
        {
          "name": "C2",
          "midi": 36,
          "time": 72,
          "velocity": 0.8661417322834646,
          "duration": 0.1796875
        },
        {
          "name": "C#3",
          "midi": 49,
          "time": 72,
          "velocity": 0.9133858267716536,
          "duration": 0.3671875
        },
        {
          "name": "C2",
          "midi": 36,
          "time": 72.1875,
          "velocity": 0.8346456692913385,
          "duration": 0.5546875
        },
        {
          "name": "F#2",
          "midi": 42,
          "time": 72.375,
          "velocity": 0.7874015748031497,
          "duration": 0.3671875
        },
        {
          "name": "D2",
          "midi": 38,
          "time": 72.75,
          "velocity": 1,
          "duration": 0.7421875
        },
        {
          "name": "F#2",
          "midi": 42,
          "time": 72.75,
          "velocity": 0.8503937007874016,
          "duration": 0.3671875
        },
        {
          "name": "F#2",
          "midi": 42,
          "time": 73.125,
          "velocity": 0.9133858267716536,
          "duration": 0.3671875
        },
        {
          "name": "C2",
          "midi": 36,
          "time": 73.5,
          "velocity": 0.8661417322834646,
          "duration": 0.1796875
        },
        {
          "name": "F#2",
          "midi": 42,
          "time": 73.5,
          "velocity": 0.9133858267716536,
          "duration": 0.3671875
        },
        {
          "name": "C2",
          "midi": 36,
          "time": 73.6875,
          "velocity": 0.8346456692913385,
          "duration": 0.5546875
        },
        {
          "name": "F#2",
          "midi": 42,
          "time": 73.875,
          "velocity": 0.7874015748031497,
          "duration": 0.3671875
        },
        {
          "name": "D2",
          "midi": 38,
          "time": 74.25,
          "velocity": 1,
          "duration": 0.7421875
        },
        {
          "name": "F#2",
          "midi": 42,
          "time": 74.25,
          "velocity": 0.8503937007874016,
          "duration": 0.3671875
        },
        {
          "name": "F#2",
          "midi": 42,
          "time": 74.625,
          "velocity": 0.9133858267716536,
          "duration": 0.3671875
        },
        {
          "name": "C2",
          "midi": 36,
          "time": 75,
          "velocity": 0.8661417322834646,
          "duration": 0.1796875
        },
        {
          "name": "F#2",
          "midi": 42,
          "time": 75,
          "velocity": 0.9133858267716536,
          "duration": 0.3671875
        },
        {
          "name": "C2",
          "midi": 36,
          "time": 75.1875,
          "velocity": 0.8346456692913385,
          "duration": 0.5546875
        },
        {
          "name": "F#2",
          "midi": 42,
          "time": 75.375,
          "velocity": 0.7874015748031497,
          "duration": 0.3671875
        },
        {
          "name": "D2",
          "midi": 38,
          "time": 75.75,
          "velocity": 1,
          "duration": 0.7421875
        },
        {
          "name": "F#2",
          "midi": 42,
          "time": 75.75,
          "velocity": 0.8503937007874016,
          "duration": 0.3671875
        },
        {
          "name": "F#2",
          "midi": 42,
          "time": 76.125,
          "velocity": 0.9133858267716536,
          "duration": 0.3671875
        },
        {
          "name": "C2",
          "midi": 36,
          "time": 76.5,
          "velocity": 0.8661417322834646,
          "duration": 0.1796875
        },
        {
          "name": "F#2",
          "midi": 42,
          "time": 76.5,
          "velocity": 0.9133858267716536,
          "duration": 0.3671875
        },
        {
          "name": "C2",
          "midi": 36,
          "time": 76.6875,
          "velocity": 0.8346456692913385,
          "duration": 0.5546875
        },
        {
          "name": "F#2",
          "midi": 42,
          "time": 76.875,
          "velocity": 0.7874015748031497,
          "duration": 0.3671875
        },
        {
          "name": "D2",
          "midi": 38,
          "time": 77.25,
          "velocity": 1,
          "duration": 0.7421875
        },
        {
          "name": "F#2",
          "midi": 42,
          "time": 77.25,
          "velocity": 0.8503937007874016,
          "duration": 0.3671875
        },
        {
          "name": "F#2",
          "midi": 42,
          "time": 77.625,
          "velocity": 0.9133858267716536,
          "duration": 0.3671875
        },
        {
          "name": "C2",
          "midi": 36,
          "time": 78,
          "velocity": 0.8661417322834646,
          "duration": 0.1796875
        },
        {
          "name": "F#2",
          "midi": 42,
          "time": 78,
          "velocity": 0.9133858267716536,
          "duration": 0.3671875
        },
        {
          "name": "C2",
          "midi": 36,
          "time": 78.1875,
          "velocity": 0.8346456692913385,
          "duration": 0.5546875
        },
        {
          "name": "F#2",
          "midi": 42,
          "time": 78.375,
          "velocity": 0.7874015748031497,
          "duration": 0.3671875
        },
        {
          "name": "D2",
          "midi": 38,
          "time": 78.75,
          "velocity": 1,
          "duration": 0.7421875
        },
        {
          "name": "F#2",
          "midi": 42,
          "time": 78.75,
          "velocity": 0.8503937007874016,
          "duration": 0.3671875
        },
        {
          "name": "F#2",
          "midi": 42,
          "time": 79.125,
          "velocity": 0.9133858267716536,
          "duration": 0.3671875
        },
        {
          "name": "C2",
          "midi": 36,
          "time": 79.5,
          "velocity": 0.8661417322834646,
          "duration": 0.1796875
        },
        {
          "name": "F#2",
          "midi": 42,
          "time": 79.5,
          "velocity": 0.9133858267716536,
          "duration": 0.3671875
        },
        {
          "name": "C2",
          "midi": 36,
          "time": 79.6875,
          "velocity": 0.8346456692913385,
          "duration": 0.5546875
        },
        {
          "name": "F#2",
          "midi": 42,
          "time": 79.875,
          "velocity": 0.7874015748031497,
          "duration": 0.3671875
        },
        {
          "name": "D2",
          "midi": 38,
          "time": 80.25,
          "velocity": 1,
          "duration": 0.7421875
        },
        {
          "name": "F#2",
          "midi": 42,
          "time": 80.25,
          "velocity": 0.8503937007874016,
          "duration": 0.3671875
        },
        {
          "name": "F#2",
          "midi": 42,
          "time": 80.625,
          "velocity": 0.9133858267716536,
          "duration": 0.3671875
        },
        {
          "name": "C2",
          "midi": 36,
          "time": 81,
          "velocity": 0.8661417322834646,
          "duration": 0.1796875
        },
        {
          "name": "F#2",
          "midi": 42,
          "time": 81,
          "velocity": 0.9133858267716536,
          "duration": 0.3671875
        },
        {
          "name": "C2",
          "midi": 36,
          "time": 81.1875,
          "velocity": 0.8346456692913385,
          "duration": 0.5546875
        },
        {
          "name": "F#2",
          "midi": 42,
          "time": 81.375,
          "velocity": 0.7874015748031497,
          "duration": 0.3671875
        },
        {
          "name": "D2",
          "midi": 38,
          "time": 81.75,
          "velocity": 1,
          "duration": 0.7421875
        },
        {
          "name": "F#2",
          "midi": 42,
          "time": 81.75,
          "velocity": 0.8503937007874016,
          "duration": 0.3671875
        },
        {
          "name": "F#2",
          "midi": 42,
          "time": 82.125,
          "velocity": 0.9133858267716536,
          "duration": 0.3671875
        },
        {
          "name": "C2",
          "midi": 36,
          "time": 82.5,
          "velocity": 0.8661417322834646,
          "duration": 0.1796875
        },
        {
          "name": "F#2",
          "midi": 42,
          "time": 82.5,
          "velocity": 0.9133858267716536,
          "duration": 0.3671875
        },
        {
          "name": "C2",
          "midi": 36,
          "time": 82.6875,
          "velocity": 0.8346456692913385,
          "duration": 0.5546875
        },
        {
          "name": "F#2",
          "midi": 42,
          "time": 82.875,
          "velocity": 0.7874015748031497,
          "duration": 0.3671875
        },
        {
          "name": "D2",
          "midi": 38,
          "time": 83.25,
          "velocity": 1,
          "duration": 0.7421875
        },
        {
          "name": "F#2",
          "midi": 42,
          "time": 83.25,
          "velocity": 0.8503937007874016,
          "duration": 0.3671875
        },
        {
          "name": "F#2",
          "midi": 42,
          "time": 83.625,
          "velocity": 0.9133858267716536,
          "duration": 0.3671875
        },
        {
          "name": "C2",
          "midi": 36,
          "time": 84,
          "velocity": 0.8661417322834646,
          "duration": 0.1796875
        },
        {
          "name": "F#2",
          "midi": 42,
          "time": 84,
          "velocity": 0.9133858267716536,
          "duration": 0.3671875
        },
        {
          "name": "C2",
          "midi": 36,
          "time": 84.1875,
          "velocity": 0.8346456692913385,
          "duration": 0.5546875
        },
        {
          "name": "F#2",
          "midi": 42,
          "time": 84.375,
          "velocity": 0.7874015748031497,
          "duration": 0.3671875
        },
        {
          "name": "D2",
          "midi": 38,
          "time": 84.75,
          "velocity": 1,
          "duration": 0.7421875
        },
        {
          "name": "F#2",
          "midi": 42,
          "time": 84.75,
          "velocity": 0.8503937007874016,
          "duration": 0.3671875
        },
        {
          "name": "F#2",
          "midi": 42,
          "time": 85.125,
          "velocity": 0.9133858267716536,
          "duration": 0.3671875
        },
        {
          "name": "C2",
          "midi": 36,
          "time": 85.5,
          "velocity": 0.8661417322834646,
          "duration": 0.1796875
        },
        {
          "name": "F#2",
          "midi": 42,
          "time": 85.5,
          "velocity": 0.9133858267716536,
          "duration": 0.3671875
        },
        {
          "name": "C2",
          "midi": 36,
          "time": 85.6875,
          "velocity": 0.8346456692913385,
          "duration": 0.5546875
        },
        {
          "name": "F#2",
          "midi": 42,
          "time": 85.875,
          "velocity": 0.7874015748031497,
          "duration": 0.3671875
        },
        {
          "name": "D2",
          "midi": 38,
          "time": 86.25,
          "velocity": 1,
          "duration": 0.7421875
        },
        {
          "name": "F#2",
          "midi": 42,
          "time": 86.25,
          "velocity": 0.8503937007874016,
          "duration": 0.3671875
        },
        {
          "name": "F#2",
          "midi": 42,
          "time": 86.625,
          "velocity": 0.9133858267716536,
          "duration": 0.3671875
        },
        {
          "name": "C2",
          "midi": 36,
          "time": 87,
          "velocity": 0.8661417322834646,
          "duration": 0.1796875
        },
        {
          "name": "F#2",
          "midi": 42,
          "time": 87,
          "velocity": 0.9133858267716536,
          "duration": 0.3671875
        },
        {
          "name": "C2",
          "midi": 36,
          "time": 87.1875,
          "velocity": 0.8346456692913385,
          "duration": 0.5546875
        },
        {
          "name": "F#2",
          "midi": 42,
          "time": 87.375,
          "velocity": 0.7874015748031497,
          "duration": 0.3671875
        },
        {
          "name": "D2",
          "midi": 38,
          "time": 87.75,
          "velocity": 1,
          "duration": 0.7421875
        },
        {
          "name": "F#2",
          "midi": 42,
          "time": 87.75,
          "velocity": 0.8503937007874016,
          "duration": 0.3671875
        },
        {
          "name": "F#2",
          "midi": 42,
          "time": 88.125,
          "velocity": 0.9133858267716536,
          "duration": 0.3671875
        },
        {
          "name": "C2",
          "midi": 36,
          "time": 88.5,
          "velocity": 0.8661417322834646,
          "duration": 0.1796875
        },
        {
          "name": "F#2",
          "midi": 42,
          "time": 88.5,
          "velocity": 0.9133858267716536,
          "duration": 0.3671875
        },
        {
          "name": "C2",
          "midi": 36,
          "time": 88.6875,
          "velocity": 0.8346456692913385,
          "duration": 0.5546875
        },
        {
          "name": "F#2",
          "midi": 42,
          "time": 88.875,
          "velocity": 0.7874015748031497,
          "duration": 0.3671875
        },
        {
          "name": "D2",
          "midi": 38,
          "time": 89.25,
          "velocity": 1,
          "duration": 0.7421875
        },
        {
          "name": "F#2",
          "midi": 42,
          "time": 89.25,
          "velocity": 0.8503937007874016,
          "duration": 0.3671875
        },
        {
          "name": "F#2",
          "midi": 42,
          "time": 89.625,
          "velocity": 0.9133858267716536,
          "duration": 0.3671875
        },
        {
          "name": "C2",
          "midi": 36,
          "time": 90,
          "velocity": 0.8661417322834646,
          "duration": 0.1796875
        },
        {
          "name": "F#2",
          "midi": 42,
          "time": 90,
          "velocity": 0.9133858267716536,
          "duration": 0.3671875
        },
        {
          "name": "C2",
          "midi": 36,
          "time": 90.1875,
          "velocity": 0.8346456692913385,
          "duration": 0.5546875
        },
        {
          "name": "F#2",
          "midi": 42,
          "time": 90.375,
          "velocity": 0.7874015748031497,
          "duration": 0.3671875
        },
        {
          "name": "D2",
          "midi": 38,
          "time": 90.75,
          "velocity": 1,
          "duration": 0.7421875
        },
        {
          "name": "F#2",
          "midi": 42,
          "time": 90.75,
          "velocity": 0.8503937007874016,
          "duration": 0.3671875
        },
        {
          "name": "F#2",
          "midi": 42,
          "time": 91.125,
          "velocity": 0.9133858267716536,
          "duration": 0.3671875
        },
        {
          "name": "C2",
          "midi": 36,
          "time": 91.5,
          "velocity": 0.8661417322834646,
          "duration": 0.1796875
        },
        {
          "name": "F#2",
          "midi": 42,
          "time": 91.5,
          "velocity": 0.9133858267716536,
          "duration": 0.3671875
        },
        {
          "name": "C2",
          "midi": 36,
          "time": 91.6875,
          "velocity": 0.8346456692913385,
          "duration": 0.5546875
        },
        {
          "name": "F#2",
          "midi": 42,
          "time": 91.875,
          "velocity": 0.7874015748031497,
          "duration": 0.3671875
        },
        {
          "name": "D2",
          "midi": 38,
          "time": 92.25,
          "velocity": 1,
          "duration": 0.7421875
        },
        {
          "name": "F#2",
          "midi": 42,
          "time": 92.25,
          "velocity": 0.8503937007874016,
          "duration": 0.3671875
        },
        {
          "name": "F#2",
          "midi": 42,
          "time": 92.625,
          "velocity": 0.9133858267716536,
          "duration": 0.3671875
        },
        {
          "name": "C2",
          "midi": 36,
          "time": 93,
          "velocity": 0.8661417322834646,
          "duration": 0.1796875
        },
        {
          "name": "F#2",
          "midi": 42,
          "time": 93,
          "velocity": 0.9133858267716536,
          "duration": 0.3671875
        },
        {
          "name": "C2",
          "midi": 36,
          "time": 93.1875,
          "velocity": 0.8346456692913385,
          "duration": 0.5546875
        },
        {
          "name": "F#2",
          "midi": 42,
          "time": 93.375,
          "velocity": 0.7874015748031497,
          "duration": 0.3671875
        },
        {
          "name": "D2",
          "midi": 38,
          "time": 93.75,
          "velocity": 1,
          "duration": 0.7421875
        },
        {
          "name": "F#2",
          "midi": 42,
          "time": 93.75,
          "velocity": 0.8503937007874016,
          "duration": 0.3671875
        },
        {
          "name": "F#2",
          "midi": 42,
          "time": 94.125,
          "velocity": 0.9133858267716536,
          "duration": 0.3671875
        },
        {
          "name": "C2",
          "midi": 36,
          "time": 94.5,
          "velocity": 0.8661417322834646,
          "duration": 0.1796875
        },
        {
          "name": "F#2",
          "midi": 42,
          "time": 94.5,
          "velocity": 0.9133858267716536,
          "duration": 0.3671875
        },
        {
          "name": "C2",
          "midi": 36,
          "time": 94.6875,
          "velocity": 0.8346456692913385,
          "duration": 0.5546875
        },
        {
          "name": "F#2",
          "midi": 42,
          "time": 94.875,
          "velocity": 0.7874015748031497,
          "duration": 0.3671875
        },
        {
          "name": "D2",
          "midi": 38,
          "time": 95.25,
          "velocity": 1,
          "duration": 0.7421875
        },
        {
          "name": "F#2",
          "midi": 42,
          "time": 95.25,
          "velocity": 0.8503937007874016,
          "duration": 0.3671875
        },
        {
          "name": "F#2",
          "midi": 42,
          "time": 95.625,
          "velocity": 0.9133858267716536,
          "duration": 0.3671875
        },
        {
          "name": "C2",
          "midi": 36,
          "time": 96,
          "velocity": 0.8661417322834646,
          "duration": 0.1796875
        },
        {
          "name": "F#2",
          "midi": 42,
          "time": 96,
          "velocity": 0.9133858267716536,
          "duration": 0.3671875
        },
        {
          "name": "C2",
          "midi": 36,
          "time": 96.1875,
          "velocity": 0.8346456692913385,
          "duration": 0.5546875
        },
        {
          "name": "F#2",
          "midi": 42,
          "time": 96.375,
          "velocity": 0.7874015748031497,
          "duration": 0.3671875
        },
        {
          "name": "D2",
          "midi": 38,
          "time": 96.75,
          "velocity": 1,
          "duration": 0.7421875
        },
        {
          "name": "F#2",
          "midi": 42,
          "time": 96.75,
          "velocity": 0.8503937007874016,
          "duration": 0.3671875
        },
        {
          "name": "F#2",
          "midi": 42,
          "time": 97.125,
          "velocity": 0.9133858267716536,
          "duration": 0.3671875
        },
        {
          "name": "C2",
          "midi": 36,
          "time": 97.5,
          "velocity": 0.8661417322834646,
          "duration": 0.1796875
        },
        {
          "name": "F#2",
          "midi": 42,
          "time": 97.5,
          "velocity": 0.9133858267716536,
          "duration": 0.3671875
        },
        {
          "name": "C2",
          "midi": 36,
          "time": 97.6875,
          "velocity": 0.8346456692913385,
          "duration": 0.5546875
        },
        {
          "name": "F#2",
          "midi": 42,
          "time": 97.875,
          "velocity": 0.7874015748031497,
          "duration": 0.3671875
        },
        {
          "name": "D2",
          "midi": 38,
          "time": 98.25,
          "velocity": 1,
          "duration": 0.3671875
        },
        {
          "name": "F#2",
          "midi": 42,
          "time": 98.25,
          "velocity": 0.8503937007874016,
          "duration": 0.3671875
        },
        {
          "name": "D2",
          "midi": 38,
          "time": 98.625,
          "velocity": 0.9133858267716536,
          "duration": 0.1796875
        },
        {
          "name": "F#2",
          "midi": 42,
          "time": 98.625,
          "velocity": 0.9133858267716536,
          "duration": 0.3671875
        },
        {
          "name": "D2",
          "midi": 38,
          "time": 98.8125,
          "velocity": 0.9133858267716536,
          "duration": 0.1796875
        },
        {
          "name": "C2",
          "midi": 36,
          "time": 99,
          "velocity": 0.8661417322834646,
          "duration": 0.1796875
        },
        {
          "name": "C#3",
          "midi": 49,
          "time": 99,
          "velocity": 0.9133858267716536,
          "duration": 0.3671875
        },
        {
          "name": "C2",
          "midi": 36,
          "time": 99.1875,
          "velocity": 0.8346456692913385,
          "duration": 0.5546875
        },
        {
          "name": "F#2",
          "midi": 42,
          "time": 99.375,
          "velocity": 0.7874015748031497,
          "duration": 0.3671875
        },
        {
          "name": "D2",
          "midi": 38,
          "time": 99.75,
          "velocity": 1,
          "duration": 0.7421875
        },
        {
          "name": "F#2",
          "midi": 42,
          "time": 99.75,
          "velocity": 0.8503937007874016,
          "duration": 0.3671875
        },
        {
          "name": "F#2",
          "midi": 42,
          "time": 100.125,
          "velocity": 0.9133858267716536,
          "duration": 0.3671875
        },
        {
          "name": "C2",
          "midi": 36,
          "time": 100.5,
          "velocity": 0.8661417322834646,
          "duration": 0.1796875
        },
        {
          "name": "F#2",
          "midi": 42,
          "time": 100.5,
          "velocity": 0.9133858267716536,
          "duration": 0.3671875
        },
        {
          "name": "C2",
          "midi": 36,
          "time": 100.6875,
          "velocity": 0.8346456692913385,
          "duration": 0.5546875
        },
        {
          "name": "F#2",
          "midi": 42,
          "time": 100.875,
          "velocity": 0.7874015748031497,
          "duration": 0.3671875
        },
        {
          "name": "D2",
          "midi": 38,
          "time": 101.25,
          "velocity": 1,
          "duration": 0.7421875
        },
        {
          "name": "F#2",
          "midi": 42,
          "time": 101.25,
          "velocity": 0.8503937007874016,
          "duration": 0.3671875
        },
        {
          "name": "F#2",
          "midi": 42,
          "time": 101.625,
          "velocity": 0.9133858267716536,
          "duration": 0.3671875
        },
        {
          "name": "C2",
          "midi": 36,
          "time": 102,
          "velocity": 0.8661417322834646,
          "duration": 0.1796875
        },
        {
          "name": "F#2",
          "midi": 42,
          "time": 102,
          "velocity": 0.9133858267716536,
          "duration": 0.3671875
        },
        {
          "name": "C2",
          "midi": 36,
          "time": 102.1875,
          "velocity": 0.8346456692913385,
          "duration": 0.5546875
        },
        {
          "name": "F#2",
          "midi": 42,
          "time": 102.375,
          "velocity": 0.7874015748031497,
          "duration": 0.3671875
        },
        {
          "name": "D2",
          "midi": 38,
          "time": 102.75,
          "velocity": 1,
          "duration": 0.7421875
        },
        {
          "name": "F#2",
          "midi": 42,
          "time": 102.75,
          "velocity": 0.8503937007874016,
          "duration": 0.3671875
        },
        {
          "name": "F#2",
          "midi": 42,
          "time": 103.125,
          "velocity": 0.9133858267716536,
          "duration": 0.3671875
        },
        {
          "name": "C2",
          "midi": 36,
          "time": 103.5,
          "velocity": 0.8661417322834646,
          "duration": 0.1796875
        },
        {
          "name": "F#2",
          "midi": 42,
          "time": 103.5,
          "velocity": 0.9133858267716536,
          "duration": 0.3671875
        },
        {
          "name": "C2",
          "midi": 36,
          "time": 103.6875,
          "velocity": 0.8346456692913385,
          "duration": 0.5546875
        },
        {
          "name": "F#2",
          "midi": 42,
          "time": 103.875,
          "velocity": 0.7874015748031497,
          "duration": 0.3671875
        },
        {
          "name": "D2",
          "midi": 38,
          "time": 104.25,
          "velocity": 1,
          "duration": 0.7421875
        },
        {
          "name": "F#2",
          "midi": 42,
          "time": 104.25,
          "velocity": 0.8503937007874016,
          "duration": 0.3671875
        },
        {
          "name": "F#2",
          "midi": 42,
          "time": 104.625,
          "velocity": 0.9133858267716536,
          "duration": 0.3671875
        },
        {
          "name": "C2",
          "midi": 36,
          "time": 105,
          "velocity": 0.8661417322834646,
          "duration": 0.1796875
        },
        {
          "name": "F#2",
          "midi": 42,
          "time": 105,
          "velocity": 0.9133858267716536,
          "duration": 0.3671875
        },
        {
          "name": "C2",
          "midi": 36,
          "time": 105.1875,
          "velocity": 0.8346456692913385,
          "duration": 0.5546875
        },
        {
          "name": "F#2",
          "midi": 42,
          "time": 105.375,
          "velocity": 0.7874015748031497,
          "duration": 0.3671875
        },
        {
          "name": "D2",
          "midi": 38,
          "time": 105.75,
          "velocity": 1,
          "duration": 0.7421875
        },
        {
          "name": "F#2",
          "midi": 42,
          "time": 105.75,
          "velocity": 0.8503937007874016,
          "duration": 0.3671875
        },
        {
          "name": "F#2",
          "midi": 42,
          "time": 106.125,
          "velocity": 0.9133858267716536,
          "duration": 0.3671875
        },
        {
          "name": "C2",
          "midi": 36,
          "time": 106.5,
          "velocity": 0.8661417322834646,
          "duration": 0.1796875
        },
        {
          "name": "F#2",
          "midi": 42,
          "time": 106.5,
          "velocity": 0.9133858267716536,
          "duration": 0.3671875
        },
        {
          "name": "C2",
          "midi": 36,
          "time": 106.6875,
          "velocity": 0.8346456692913385,
          "duration": 0.5546875
        },
        {
          "name": "F#2",
          "midi": 42,
          "time": 106.875,
          "velocity": 0.7874015748031497,
          "duration": 0.3671875
        },
        {
          "name": "D2",
          "midi": 38,
          "time": 107.25,
          "velocity": 1,
          "duration": 0.7421875
        },
        {
          "name": "F#2",
          "midi": 42,
          "time": 107.25,
          "velocity": 0.8503937007874016,
          "duration": 0.3671875
        },
        {
          "name": "F#2",
          "midi": 42,
          "time": 107.625,
          "velocity": 0.9133858267716536,
          "duration": 0.3671875
        },
        {
          "name": "C2",
          "midi": 36,
          "time": 108,
          "velocity": 0.8661417322834646,
          "duration": 0.1796875
        },
        {
          "name": "F#2",
          "midi": 42,
          "time": 108,
          "velocity": 0.9133858267716536,
          "duration": 0.3671875
        },
        {
          "name": "C2",
          "midi": 36,
          "time": 108.1875,
          "velocity": 0.8346456692913385,
          "duration": 0.5546875
        },
        {
          "name": "F#2",
          "midi": 42,
          "time": 108.375,
          "velocity": 0.7874015748031497,
          "duration": 0.3671875
        },
        {
          "name": "D2",
          "midi": 38,
          "time": 108.75,
          "velocity": 1,
          "duration": 0.7421875
        },
        {
          "name": "F#2",
          "midi": 42,
          "time": 108.75,
          "velocity": 0.8503937007874016,
          "duration": 0.3671875
        },
        {
          "name": "F#2",
          "midi": 42,
          "time": 109.125,
          "velocity": 0.9133858267716536,
          "duration": 0.3671875
        },
        {
          "name": "C2",
          "midi": 36,
          "time": 109.5,
          "velocity": 0.8661417322834646,
          "duration": 0.1796875
        },
        {
          "name": "F#2",
          "midi": 42,
          "time": 109.5,
          "velocity": 0.9133858267716536,
          "duration": 0.3671875
        },
        {
          "name": "C2",
          "midi": 36,
          "time": 109.6875,
          "velocity": 0.8346456692913385,
          "duration": 0.5546875
        },
        {
          "name": "F#2",
          "midi": 42,
          "time": 109.875,
          "velocity": 0.7874015748031497,
          "duration": 0.3671875
        },
        {
          "name": "D2",
          "midi": 38,
          "time": 110.25,
          "velocity": 1,
          "duration": 0.7421875
        },
        {
          "name": "F#2",
          "midi": 42,
          "time": 110.25,
          "velocity": 0.8503937007874016,
          "duration": 0.3671875
        },
        {
          "name": "F#2",
          "midi": 42,
          "time": 110.625,
          "velocity": 0.9133858267716536,
          "duration": 0.3671875
        },
        {
          "name": "C2",
          "midi": 36,
          "time": 111,
          "velocity": 0.8661417322834646,
          "duration": 0.1796875
        },
        {
          "name": "F#2",
          "midi": 42,
          "time": 111,
          "velocity": 0.9133858267716536,
          "duration": 0.3671875
        },
        {
          "name": "C2",
          "midi": 36,
          "time": 111.1875,
          "velocity": 0.8346456692913385,
          "duration": 0.5546875
        },
        {
          "name": "F#2",
          "midi": 42,
          "time": 111.375,
          "velocity": 0.7874015748031497,
          "duration": 0.3671875
        },
        {
          "name": "D2",
          "midi": 38,
          "time": 111.75,
          "velocity": 1,
          "duration": 0.7421875
        },
        {
          "name": "F#2",
          "midi": 42,
          "time": 111.75,
          "velocity": 0.8503937007874016,
          "duration": 0.3671875
        },
        {
          "name": "F#2",
          "midi": 42,
          "time": 112.125,
          "velocity": 0.9133858267716536,
          "duration": 0.3671875
        },
        {
          "name": "C2",
          "midi": 36,
          "time": 112.5,
          "velocity": 0.8661417322834646,
          "duration": 0.1796875
        },
        {
          "name": "F#2",
          "midi": 42,
          "time": 112.5,
          "velocity": 0.9133858267716536,
          "duration": 0.3671875
        },
        {
          "name": "C2",
          "midi": 36,
          "time": 112.6875,
          "velocity": 0.8346456692913385,
          "duration": 0.5546875
        },
        {
          "name": "F#2",
          "midi": 42,
          "time": 112.875,
          "velocity": 0.7874015748031497,
          "duration": 0.3671875
        },
        {
          "name": "D2",
          "midi": 38,
          "time": 113.25,
          "velocity": 1,
          "duration": 0.7421875
        },
        {
          "name": "F#2",
          "midi": 42,
          "time": 113.25,
          "velocity": 0.8503937007874016,
          "duration": 0.3671875
        },
        {
          "name": "F#2",
          "midi": 42,
          "time": 113.625,
          "velocity": 0.9133858267716536,
          "duration": 0.3671875
        },
        {
          "name": "C2",
          "midi": 36,
          "time": 114,
          "velocity": 0.8661417322834646,
          "duration": 0.1796875
        },
        {
          "name": "F#2",
          "midi": 42,
          "time": 114,
          "velocity": 0.9133858267716536,
          "duration": 0.3671875
        },
        {
          "name": "C2",
          "midi": 36,
          "time": 114.1875,
          "velocity": 0.8346456692913385,
          "duration": 0.5546875
        },
        {
          "name": "F#2",
          "midi": 42,
          "time": 114.375,
          "velocity": 0.7874015748031497,
          "duration": 0.3671875
        },
        {
          "name": "D2",
          "midi": 38,
          "time": 114.75,
          "velocity": 1,
          "duration": 0.7421875
        },
        {
          "name": "F#2",
          "midi": 42,
          "time": 114.75,
          "velocity": 0.8503937007874016,
          "duration": 0.3671875
        },
        {
          "name": "F#2",
          "midi": 42,
          "time": 115.125,
          "velocity": 0.9133858267716536,
          "duration": 0.3671875
        },
        {
          "name": "C2",
          "midi": 36,
          "time": 115.5,
          "velocity": 0.8661417322834646,
          "duration": 0.1796875
        },
        {
          "name": "F#2",
          "midi": 42,
          "time": 115.5,
          "velocity": 0.9133858267716536,
          "duration": 0.3671875
        },
        {
          "name": "C2",
          "midi": 36,
          "time": 115.6875,
          "velocity": 0.8346456692913385,
          "duration": 0.5546875
        },
        {
          "name": "F#2",
          "midi": 42,
          "time": 115.875,
          "velocity": 0.7874015748031497,
          "duration": 0.3671875
        },
        {
          "name": "D2",
          "midi": 38,
          "time": 116.25,
          "velocity": 1,
          "duration": 0.7421875
        },
        {
          "name": "F#2",
          "midi": 42,
          "time": 116.25,
          "velocity": 0.8503937007874016,
          "duration": 0.3671875
        },
        {
          "name": "F#2",
          "midi": 42,
          "time": 116.625,
          "velocity": 0.9133858267716536,
          "duration": 0.3671875
        },
        {
          "name": "C2",
          "midi": 36,
          "time": 117,
          "velocity": 0.8661417322834646,
          "duration": 0.1796875
        },
        {
          "name": "C#3",
          "midi": 49,
          "time": 117,
          "velocity": 0.9133858267716536,
          "duration": 0.3671875
        },
        {
          "name": "C2",
          "midi": 36,
          "time": 117.1875,
          "velocity": 0.8346456692913385,
          "duration": 0.5546875
        },
        {
          "name": "F#2",
          "midi": 42,
          "time": 117.375,
          "velocity": 0.7874015748031497,
          "duration": 0.3671875
        },
        {
          "name": "D2",
          "midi": 38,
          "time": 117.75,
          "velocity": 1,
          "duration": 0.7421875
        },
        {
          "name": "F#2",
          "midi": 42,
          "time": 117.75,
          "velocity": 0.8503937007874016,
          "duration": 0.3671875
        },
        {
          "name": "F#2",
          "midi": 42,
          "time": 118.125,
          "velocity": 0.9133858267716536,
          "duration": 0.3671875
        },
        {
          "name": "C2",
          "midi": 36,
          "time": 118.5,
          "velocity": 0.8661417322834646,
          "duration": 0.1796875
        },
        {
          "name": "F#2",
          "midi": 42,
          "time": 118.5,
          "velocity": 0.9133858267716536,
          "duration": 0.3671875
        },
        {
          "name": "C2",
          "midi": 36,
          "time": 118.6875,
          "velocity": 0.8346456692913385,
          "duration": 0.5546875
        },
        {
          "name": "F#2",
          "midi": 42,
          "time": 118.875,
          "velocity": 0.7874015748031497,
          "duration": 0.3671875
        },
        {
          "name": "D2",
          "midi": 38,
          "time": 119.25,
          "velocity": 1,
          "duration": 0.7421875
        },
        {
          "name": "F#2",
          "midi": 42,
          "time": 119.25,
          "velocity": 0.8503937007874016,
          "duration": 0.3671875
        },
        {
          "name": "F#2",
          "midi": 42,
          "time": 119.625,
          "velocity": 0.9133858267716536,
          "duration": 0.3671875
        },
        {
          "name": "C2",
          "midi": 36,
          "time": 120,
          "velocity": 0.8661417322834646,
          "duration": 0.1796875
        },
        {
          "name": "F#2",
          "midi": 42,
          "time": 120,
          "velocity": 0.9133858267716536,
          "duration": 0.3671875
        },
        {
          "name": "C2",
          "midi": 36,
          "time": 120.1875,
          "velocity": 0.8346456692913385,
          "duration": 0.5546875
        },
        {
          "name": "F#2",
          "midi": 42,
          "time": 120.375,
          "velocity": 0.7874015748031497,
          "duration": 0.3671875
        },
        {
          "name": "D2",
          "midi": 38,
          "time": 120.75,
          "velocity": 1,
          "duration": 0.7421875
        },
        {
          "name": "F#2",
          "midi": 42,
          "time": 120.75,
          "velocity": 0.8503937007874016,
          "duration": 0.3671875
        },
        {
          "name": "F#2",
          "midi": 42,
          "time": 121.125,
          "velocity": 0.9133858267716536,
          "duration": 0.3671875
        },
        {
          "name": "C2",
          "midi": 36,
          "time": 121.5,
          "velocity": 0.8661417322834646,
          "duration": 0.1796875
        },
        {
          "name": "F#2",
          "midi": 42,
          "time": 121.5,
          "velocity": 0.9133858267716536,
          "duration": 0.3671875
        },
        {
          "name": "C2",
          "midi": 36,
          "time": 121.6875,
          "velocity": 0.8346456692913385,
          "duration": 0.5546875
        },
        {
          "name": "F#2",
          "midi": 42,
          "time": 121.875,
          "velocity": 0.7874015748031497,
          "duration": 0.3671875
        },
        {
          "name": "D2",
          "midi": 38,
          "time": 122.25,
          "velocity": 1,
          "duration": 0.7421875
        },
        {
          "name": "F#2",
          "midi": 42,
          "time": 122.25,
          "velocity": 0.8503937007874016,
          "duration": 0.3671875
        },
        {
          "name": "F#2",
          "midi": 42,
          "time": 122.625,
          "velocity": 0.9133858267716536,
          "duration": 0.3671875
        },
        {
          "name": "C2",
          "midi": 36,
          "time": 123,
          "velocity": 0.8661417322834646,
          "duration": 0.1796875
        },
        {
          "name": "F#2",
          "midi": 42,
          "time": 123,
          "velocity": 0.9133858267716536,
          "duration": 0.3671875
        },
        {
          "name": "C2",
          "midi": 36,
          "time": 123.1875,
          "velocity": 0.8346456692913385,
          "duration": 0.5546875
        },
        {
          "name": "F#2",
          "midi": 42,
          "time": 123.375,
          "velocity": 0.7874015748031497,
          "duration": 0.3671875
        },
        {
          "name": "D2",
          "midi": 38,
          "time": 123.75,
          "velocity": 1,
          "duration": 0.7421875
        },
        {
          "name": "F#2",
          "midi": 42,
          "time": 123.75,
          "velocity": 0.8503937007874016,
          "duration": 0.3671875
        },
        {
          "name": "F#2",
          "midi": 42,
          "time": 124.125,
          "velocity": 0.9133858267716536,
          "duration": 0.3671875
        },
        {
          "name": "C2",
          "midi": 36,
          "time": 124.5,
          "velocity": 0.8661417322834646,
          "duration": 0.1796875
        },
        {
          "name": "F#2",
          "midi": 42,
          "time": 124.5,
          "velocity": 0.9133858267716536,
          "duration": 0.3671875
        },
        {
          "name": "C2",
          "midi": 36,
          "time": 124.6875,
          "velocity": 0.8346456692913385,
          "duration": 0.5546875
        },
        {
          "name": "F#2",
          "midi": 42,
          "time": 124.875,
          "velocity": 0.7874015748031497,
          "duration": 0.3671875
        },
        {
          "name": "D2",
          "midi": 38,
          "time": 125.25,
          "velocity": 1,
          "duration": 0.7421875
        },
        {
          "name": "F#2",
          "midi": 42,
          "time": 125.25,
          "velocity": 0.8503937007874016,
          "duration": 0.3671875
        },
        {
          "name": "F#2",
          "midi": 42,
          "time": 125.625,
          "velocity": 0.9133858267716536,
          "duration": 0.3671875
        },
        {
          "name": "C2",
          "midi": 36,
          "time": 126,
          "velocity": 1,
          "duration": 0.7421875
        },
        {
          "name": "C#3",
          "midi": 49,
          "time": 126,
          "velocity": 0.9133858267716536,
          "duration": 0.3671875
        },
        {
          "name": "F#2",
          "midi": 42,
          "time": 126.375,
          "velocity": 0.9606299212598425,
          "duration": 0.3671875
        },
        {
          "name": "D2",
          "midi": 38,
          "time": 126.75,
          "velocity": 0.9606299212598425,
          "duration": 0.7421875
        },
        {
          "name": "F#2",
          "midi": 42,
          "time": 126.75,
          "velocity": 0.8661417322834646,
          "duration": 0.3671875
        },
        {
          "name": "F#2",
          "midi": 42,
          "time": 127.125,
          "velocity": 0.8503937007874016,
          "duration": 0.3671875
        },
        {
          "name": "C2",
          "midi": 36,
          "time": 127.5,
          "velocity": 1,
          "duration": 0.1796875
        },
        {
          "name": "F#2",
          "midi": 42,
          "time": 127.5,
          "velocity": 0.9133858267716536,
          "duration": 0.3671875
        },
        {
          "name": "C2",
          "midi": 36,
          "time": 127.6875,
          "velocity": 0.8503937007874016,
          "duration": 0.5546875
        },
        {
          "name": "F#2",
          "midi": 42,
          "time": 127.875,
          "velocity": 0.9133858267716536,
          "duration": 0.3671875
        },
        {
          "name": "D2",
          "midi": 38,
          "time": 128.25,
          "velocity": 1,
          "duration": 0.7421875
        },
        {
          "name": "F#2",
          "midi": 42,
          "time": 128.25,
          "velocity": 1,
          "duration": 0.3671875
        },
        {
          "name": "F#2",
          "midi": 42,
          "time": 128.625,
          "velocity": 1,
          "duration": 0.3671875
        },
        {
          "name": "C2",
          "midi": 36,
          "time": 129,
          "velocity": 0.9606299212598425,
          "duration": 0.7421875
        },
        {
          "name": "F#2",
          "midi": 42,
          "time": 129,
          "velocity": 0.9133858267716536,
          "duration": 0.3671875
        },
        {
          "name": "F#2",
          "midi": 42,
          "time": 129.375,
          "velocity": 0.9606299212598425,
          "duration": 0.3671875
        },
        {
          "name": "D2",
          "midi": 38,
          "time": 129.75,
          "velocity": 1,
          "duration": 0.7421875
        },
        {
          "name": "F#2",
          "midi": 42,
          "time": 129.75,
          "velocity": 1,
          "duration": 0.3671875
        },
        {
          "name": "F#2",
          "midi": 42,
          "time": 130.125,
          "velocity": 1,
          "duration": 0.3671875
        },
        {
          "name": "C2",
          "midi": 36,
          "time": 130.5,
          "velocity": 1,
          "duration": 0.7421875
        },
        {
          "name": "F#2",
          "midi": 42,
          "time": 130.5,
          "velocity": 1,
          "duration": 0.3671875
        },
        {
          "name": "F#2",
          "midi": 42,
          "time": 130.875,
          "velocity": 1,
          "duration": 0.3671875
        },
        {
          "name": "D2",
          "midi": 38,
          "time": 131.25,
          "velocity": 1,
          "duration": 0.1796875
        },
        {
          "name": "D2",
          "midi": 38,
          "time": 131.4375,
          "velocity": 1,
          "duration": 0.1796875
        },
        {
          "name": "D2",
          "midi": 38,
          "time": 131.625,
          "velocity": 1,
          "duration": 0.1796875
        },
        {
          "name": "D2",
          "midi": 38,
          "time": 131.8125,
          "velocity": 1,
          "duration": 0.1796875
        },
        {
          "name": "D2",
          "midi": 38,
          "time": 132,
          "velocity": 1,
          "duration": 0.1796875
        },
        {
          "name": "D2",
          "midi": 38,
          "time": 132.1875,
          "velocity": 1,
          "duration": 0.1796875
        },
        {
          "name": "C2",
          "midi": 36,
          "time": 132.375,
          "velocity": 1,
          "duration": 0.7421875
        },
        {
          "name": "F#2",
          "midi": 42,
          "time": 132.375,
          "velocity": 0.9133858267716536,
          "duration": 0.3671875
        },
        {
          "name": "F#2",
          "midi": 42,
          "time": 132.75,
          "velocity": 0.9606299212598425,
          "duration": 0.3671875
        },
        {
          "name": "D2",
          "midi": 38,
          "time": 133.125,
          "velocity": 1,
          "duration": 0.3671875
        },
        {
          "name": "F#2",
          "midi": 42,
          "time": 133.125,
          "velocity": 0.9133858267716536,
          "duration": 0.3671875
        },
        {
          "name": "C2",
          "midi": 36,
          "time": 133.5,
          "velocity": 0.8346456692913385,
          "duration": 0.3671875
        },
        {
          "name": "F#2",
          "midi": 42,
          "time": 133.5,
          "velocity": 0.9606299212598425,
          "duration": 0.3671875
        },
        {
          "name": "F#2",
          "midi": 42,
          "time": 133.875,
          "velocity": 0.9133858267716536,
          "duration": 0.3671875
        },
        {
          "name": "C2",
          "midi": 36,
          "time": 134.25,
          "velocity": 0.6614173228346457,
          "duration": 0.3671875
        },
        {
          "name": "F#2",
          "midi": 42,
          "time": 134.25,
          "velocity": 0.8188976377952756,
          "duration": 0.3671875
        },
        {
          "name": "D2",
          "midi": 38,
          "time": 134.625,
          "velocity": 1,
          "duration": 0.3671875
        },
        {
          "name": "F#2",
          "midi": 42,
          "time": 134.625,
          "velocity": 0.8661417322834646,
          "duration": 0.3671875
        },
        {
          "name": "C2",
          "midi": 36,
          "time": 135,
          "velocity": 0.8031496062992126,
          "duration": 0.3671875
        },
        {
          "name": "F#2",
          "midi": 42,
          "time": 135,
          "velocity": 0.9606299212598425,
          "duration": 0.3671875
        },
        {
          "name": "F#2",
          "midi": 42,
          "time": 135.375,
          "velocity": 1,
          "duration": 0.3671875
        },
        {
          "name": "C2",
          "midi": 36,
          "time": 135.75,
          "velocity": 1,
          "duration": 0.3671875
        },
        {
          "name": "F#2",
          "midi": 42,
          "time": 135.75,
          "velocity": 0.9133858267716536,
          "duration": 0.3671875
        },
        {
          "name": "D2",
          "midi": 38,
          "time": 136.125,
          "velocity": 0.9606299212598425,
          "duration": 0.7421875
        },
        {
          "name": "F#2",
          "midi": 42,
          "time": 136.125,
          "velocity": 0.9606299212598425,
          "duration": 0.3671875
        },
        {
          "name": "F#2",
          "midi": 42,
          "time": 136.5,
          "velocity": 1,
          "duration": 0.3671875
        },
        {
          "name": "F#2",
          "midi": 42,
          "time": 136.875,
          "velocity": 1,
          "duration": 0.3671875
        },
        {
          "name": "C2",
          "midi": 36,
          "time": 137.0625,
          "velocity": 0.9133858267716536,
          "duration": 0.1796875
        },
        {
          "name": "C2",
          "midi": 36,
          "time": 137.25,
          "velocity": 0.8661417322834646,
          "duration": 0.3671875
        },
        {
          "name": "F#2",
          "midi": 42,
          "time": 137.25,
          "velocity": 1,
          "duration": 0.3671875
        },
        {
          "name": "D2",
          "midi": 38,
          "time": 137.625,
          "velocity": 0.9606299212598425,
          "duration": 0.1796875
        },
        {
          "name": "F#2",
          "midi": 42,
          "time": 137.625,
          "velocity": 1,
          "duration": 0.3671875
        },
        {
          "name": "C2",
          "midi": 36,
          "time": 137.8125,
          "velocity": 0.9133858267716536,
          "duration": 0.1796875
        },
        {
          "name": "C2",
          "midi": 36,
          "time": 138,
          "velocity": 1,
          "duration": 0.3671875
        },
        {
          "name": "F#2",
          "midi": 42,
          "time": 138,
          "velocity": 1,
          "duration": 0.3671875
        },
        {
          "name": "C2",
          "midi": 36,
          "time": 138.375,
          "velocity": 1,
          "duration": 0.7421875
        },
        {
          "name": "F#2",
          "midi": 42,
          "time": 138.375,
          "velocity": 1,
          "duration": 0.3671875
        },
        {
          "name": "F#2",
          "midi": 42,
          "time": 138.75,
          "velocity": 1,
          "duration": 0.3671875
        },
        {
          "name": "D2",
          "midi": 38,
          "time": 139.125,
          "velocity": 1,
          "duration": 0.3671875
        },
        {
          "name": "F#2",
          "midi": 42,
          "time": 139.125,
          "velocity": 1,
          "duration": 0.3671875
        },
        {
          "name": "C2",
          "midi": 36,
          "time": 139.5,
          "velocity": 0.9606299212598425,
          "duration": 0.3671875
        },
        {
          "name": "F#2",
          "midi": 42,
          "time": 139.5,
          "velocity": 1,
          "duration": 0.3671875
        },
        {
          "name": "F#2",
          "midi": 42,
          "time": 139.875,
          "velocity": 1,
          "duration": 0.3671875
        },
        {
          "name": "C2",
          "midi": 36,
          "time": 140.25,
          "velocity": 1,
          "duration": 0.3671875
        },
        {
          "name": "F#2",
          "midi": 42,
          "time": 140.25,
          "velocity": 1,
          "duration": 0.3671875
        },
        {
          "name": "D2",
          "midi": 38,
          "time": 140.625,
          "velocity": 1,
          "duration": 0.3671875
        },
        {
          "name": "F#2",
          "midi": 42,
          "time": 140.625,
          "velocity": 1,
          "duration": 0.3671875
        },
        {
          "name": "C2",
          "midi": 36,
          "time": 141,
          "velocity": 1,
          "duration": 0.3671875
        },
        {
          "name": "F#2",
          "midi": 42,
          "time": 141,
          "velocity": 1,
          "duration": 0.3671875
        },
        {
          "name": "F#2",
          "midi": 42,
          "time": 141.375,
          "velocity": 1,
          "duration": 0.3671875
        },
        {
          "name": "C2",
          "midi": 36,
          "time": 141.75,
          "velocity": 0.9606299212598425,
          "duration": 0.3671875
        },
        {
          "name": "F#2",
          "midi": 42,
          "time": 141.75,
          "velocity": 1,
          "duration": 0.3671875
        },
        {
          "name": "D2",
          "midi": 38,
          "time": 142.125,
          "velocity": 0.9133858267716536,
          "duration": 0.7421875
        },
        {
          "name": "F#2",
          "midi": 42,
          "time": 142.125,
          "velocity": 1,
          "duration": 0.3671875
        },
        {
          "name": "F#2",
          "midi": 42,
          "time": 142.5,
          "velocity": 1,
          "duration": 0.3671875
        },
        {
          "name": "F#2",
          "midi": 42,
          "time": 142.875,
          "velocity": 1,
          "duration": 0.3671875
        },
        {
          "name": "D2",
          "midi": 38,
          "time": 143.0625,
          "velocity": 0.9133858267716536,
          "duration": 0.1796875
        },
        {
          "name": "C2",
          "midi": 36,
          "time": 143.25,
          "velocity": 0.9133858267716536,
          "duration": 0.3671875
        },
        {
          "name": "F#2",
          "midi": 42,
          "time": 143.25,
          "velocity": 1,
          "duration": 0.3671875
        },
        {
          "name": "D2",
          "midi": 38,
          "time": 143.625,
          "velocity": 1,
          "duration": 0.5546875
        },
        {
          "name": "F#2",
          "midi": 42,
          "time": 143.625,
          "velocity": 1,
          "duration": 0.3671875
        },
        {
          "name": "F#2",
          "midi": 42,
          "time": 144,
          "velocity": 1,
          "duration": 0.3671875
        },
        {
          "name": "C2",
          "midi": 36,
          "time": 144.1875,
          "velocity": 1,
          "duration": 0.1796875
        },
        {
          "name": "C2",
          "midi": 36,
          "time": 144.375,
          "velocity": 1,
          "duration": 0.7421875
        },
        {
          "name": "F#2",
          "midi": 42,
          "time": 144.375,
          "velocity": 0.9133858267716536,
          "duration": 0.3671875
        },
        {
          "name": "F#2",
          "midi": 42,
          "time": 144.75,
          "velocity": 0.9606299212598425,
          "duration": 0.3671875
        },
        {
          "name": "D2",
          "midi": 38,
          "time": 145.125,
          "velocity": 1,
          "duration": 0.3671875
        },
        {
          "name": "F#2",
          "midi": 42,
          "time": 145.125,
          "velocity": 0.9133858267716536,
          "duration": 0.3671875
        },
        {
          "name": "C2",
          "midi": 36,
          "time": 145.5,
          "velocity": 0.8346456692913385,
          "duration": 0.3671875
        },
        {
          "name": "F#2",
          "midi": 42,
          "time": 145.5,
          "velocity": 0.9606299212598425,
          "duration": 0.3671875
        },
        {
          "name": "F#2",
          "midi": 42,
          "time": 145.875,
          "velocity": 0.9133858267716536,
          "duration": 0.3671875
        },
        {
          "name": "C2",
          "midi": 36,
          "time": 146.25,
          "velocity": 0.6614173228346457,
          "duration": 0.3671875
        },
        {
          "name": "F#2",
          "midi": 42,
          "time": 146.25,
          "velocity": 0.8188976377952756,
          "duration": 0.3671875
        },
        {
          "name": "D2",
          "midi": 38,
          "time": 146.625,
          "velocity": 1,
          "duration": 0.3671875
        },
        {
          "name": "F#2",
          "midi": 42,
          "time": 146.625,
          "velocity": 0.8661417322834646,
          "duration": 0.3671875
        },
        {
          "name": "C2",
          "midi": 36,
          "time": 147,
          "velocity": 0.8031496062992126,
          "duration": 0.3671875
        },
        {
          "name": "F#2",
          "midi": 42,
          "time": 147,
          "velocity": 0.9606299212598425,
          "duration": 0.3671875
        },
        {
          "name": "F#2",
          "midi": 42,
          "time": 147.375,
          "velocity": 1,
          "duration": 0.3671875
        },
        {
          "name": "C2",
          "midi": 36,
          "time": 147.75,
          "velocity": 1,
          "duration": 0.3671875
        },
        {
          "name": "F#2",
          "midi": 42,
          "time": 147.75,
          "velocity": 0.9133858267716536,
          "duration": 0.3671875
        },
        {
          "name": "D2",
          "midi": 38,
          "time": 148.125,
          "velocity": 0.9606299212598425,
          "duration": 0.7421875
        },
        {
          "name": "F#2",
          "midi": 42,
          "time": 148.125,
          "velocity": 0.9606299212598425,
          "duration": 0.3671875
        },
        {
          "name": "F#2",
          "midi": 42,
          "time": 148.5,
          "velocity": 1,
          "duration": 0.3671875
        },
        {
          "name": "F#2",
          "midi": 42,
          "time": 148.875,
          "velocity": 1,
          "duration": 0.3671875
        },
        {
          "name": "C2",
          "midi": 36,
          "time": 149.0625,
          "velocity": 0.9133858267716536,
          "duration": 0.1796875
        },
        {
          "name": "C2",
          "midi": 36,
          "time": 149.25,
          "velocity": 0.8661417322834646,
          "duration": 0.3671875
        },
        {
          "name": "F#2",
          "midi": 42,
          "time": 149.25,
          "velocity": 1,
          "duration": 0.3671875
        },
        {
          "name": "D2",
          "midi": 38,
          "time": 149.625,
          "velocity": 0.9606299212598425,
          "duration": 0.1796875
        },
        {
          "name": "F#2",
          "midi": 42,
          "time": 149.625,
          "velocity": 1,
          "duration": 0.3671875
        },
        {
          "name": "C2",
          "midi": 36,
          "time": 149.8125,
          "velocity": 0.9133858267716536,
          "duration": 0.1796875
        },
        {
          "name": "C2",
          "midi": 36,
          "time": 150,
          "velocity": 1,
          "duration": 0.3671875
        },
        {
          "name": "F#2",
          "midi": 42,
          "time": 150,
          "velocity": 1,
          "duration": 0.3671875
        },
        {
          "name": "C2",
          "midi": 36,
          "time": 150.375,
          "velocity": 1,
          "duration": 0.7421875
        },
        {
          "name": "C#3",
          "midi": 49,
          "time": 150.375,
          "velocity": 1,
          "duration": 0.3671875
        },
        {
          "name": "F#2",
          "midi": 42,
          "time": 150.75,
          "velocity": 1,
          "duration": 0.3671875
        },
        {
          "name": "D2",
          "midi": 38,
          "time": 151.125,
          "velocity": 1,
          "duration": 0.3671875
        },
        {
          "name": "F#2",
          "midi": 42,
          "time": 151.125,
          "velocity": 1,
          "duration": 0.3671875
        },
        {
          "name": "C2",
          "midi": 36,
          "time": 151.5,
          "velocity": 0.9606299212598425,
          "duration": 0.3671875
        },
        {
          "name": "F#2",
          "midi": 42,
          "time": 151.5,
          "velocity": 1,
          "duration": 0.3671875
        },
        {
          "name": "F#2",
          "midi": 42,
          "time": 151.875,
          "velocity": 1,
          "duration": 0.3671875
        },
        {
          "name": "C2",
          "midi": 36,
          "time": 152.25,
          "velocity": 1,
          "duration": 0.3671875
        },
        {
          "name": "F#2",
          "midi": 42,
          "time": 152.25,
          "velocity": 1,
          "duration": 0.3671875
        },
        {
          "name": "D2",
          "midi": 38,
          "time": 152.625,
          "velocity": 1,
          "duration": 0.3671875
        },
        {
          "name": "F#2",
          "midi": 42,
          "time": 152.625,
          "velocity": 1,
          "duration": 0.3671875
        },
        {
          "name": "C2",
          "midi": 36,
          "time": 153,
          "velocity": 1,
          "duration": 0.3671875
        },
        {
          "name": "F#2",
          "midi": 42,
          "time": 153,
          "velocity": 1,
          "duration": 0.3671875
        },
        {
          "name": "F#2",
          "midi": 42,
          "time": 153.375,
          "velocity": 1,
          "duration": 0.3671875
        },
        {
          "name": "C2",
          "midi": 36,
          "time": 153.75,
          "velocity": 0.9606299212598425,
          "duration": 0.3671875
        },
        {
          "name": "F#2",
          "midi": 42,
          "time": 153.75,
          "velocity": 1,
          "duration": 0.3671875
        },
        {
          "name": "D2",
          "midi": 38,
          "time": 154.125,
          "velocity": 0.9133858267716536,
          "duration": 0.7421875
        },
        {
          "name": "F#2",
          "midi": 42,
          "time": 154.125,
          "velocity": 1,
          "duration": 0.3671875
        },
        {
          "name": "F#2",
          "midi": 42,
          "time": 154.5,
          "velocity": 1,
          "duration": 0.3671875
        },
        {
          "name": "F#2",
          "midi": 42,
          "time": 154.875,
          "velocity": 1,
          "duration": 0.3671875
        },
        {
          "name": "D2",
          "midi": 38,
          "time": 155.0625,
          "velocity": 0.9133858267716536,
          "duration": 0.1796875
        },
        {
          "name": "C2",
          "midi": 36,
          "time": 155.25,
          "velocity": 0.9133858267716536,
          "duration": 0.3671875
        },
        {
          "name": "F#2",
          "midi": 42,
          "time": 155.25,
          "velocity": 1,
          "duration": 0.3671875
        },
        {
          "name": "D2",
          "midi": 38,
          "time": 155.625,
          "velocity": 1,
          "duration": 0.5546875
        },
        {
          "name": "F#2",
          "midi": 42,
          "time": 155.625,
          "velocity": 1,
          "duration": 0.3671875
        },
        {
          "name": "F#2",
          "midi": 42,
          "time": 156,
          "velocity": 1,
          "duration": 0.3671875
        },
        {
          "name": "C2",
          "midi": 36,
          "time": 156.1875,
          "velocity": 1,
          "duration": 0.1796875
        },
        {
          "name": "C2",
          "midi": 36,
          "time": 156.375,
          "velocity": 1,
          "duration": 0.7421875
        },
        {
          "name": "C#3",
          "midi": 49,
          "time": 156.375,
          "velocity": 0.9133858267716536,
          "duration": 0.3671875
        },
        {
          "name": "F#2",
          "midi": 42,
          "time": 156.75,
          "velocity": 0.9606299212598425,
          "duration": 0.3671875
        },
        {
          "name": "D2",
          "midi": 38,
          "time": 157.125,
          "velocity": 1,
          "duration": 0.3671875
        },
        {
          "name": "F#2",
          "midi": 42,
          "time": 157.125,
          "velocity": 0.9133858267716536,
          "duration": 0.3671875
        },
        {
          "name": "C2",
          "midi": 36,
          "time": 157.5,
          "velocity": 0.8346456692913385,
          "duration": 0.3671875
        },
        {
          "name": "F#2",
          "midi": 42,
          "time": 157.5,
          "velocity": 0.9606299212598425,
          "duration": 0.3671875
        },
        {
          "name": "F#2",
          "midi": 42,
          "time": 157.875,
          "velocity": 0.9133858267716536,
          "duration": 0.3671875
        },
        {
          "name": "C2",
          "midi": 36,
          "time": 158.25,
          "velocity": 0.6614173228346457,
          "duration": 0.3671875
        },
        {
          "name": "F#2",
          "midi": 42,
          "time": 158.25,
          "velocity": 0.8188976377952756,
          "duration": 0.3671875
        },
        {
          "name": "D2",
          "midi": 38,
          "time": 158.625,
          "velocity": 1,
          "duration": 0.3671875
        },
        {
          "name": "F#2",
          "midi": 42,
          "time": 158.625,
          "velocity": 0.8661417322834646,
          "duration": 0.3671875
        },
        {
          "name": "C2",
          "midi": 36,
          "time": 159,
          "velocity": 0.8031496062992126,
          "duration": 0.3671875
        },
        {
          "name": "F#2",
          "midi": 42,
          "time": 159,
          "velocity": 0.9606299212598425,
          "duration": 0.3671875
        },
        {
          "name": "F#2",
          "midi": 42,
          "time": 159.375,
          "velocity": 1,
          "duration": 0.3671875
        },
        {
          "name": "C2",
          "midi": 36,
          "time": 159.75,
          "velocity": 1,
          "duration": 0.3671875
        },
        {
          "name": "F#2",
          "midi": 42,
          "time": 159.75,
          "velocity": 0.9133858267716536,
          "duration": 0.3671875
        },
        {
          "name": "D2",
          "midi": 38,
          "time": 160.125,
          "velocity": 0.9606299212598425,
          "duration": 0.7421875
        },
        {
          "name": "F#2",
          "midi": 42,
          "time": 160.125,
          "velocity": 0.9606299212598425,
          "duration": 0.3671875
        },
        {
          "name": "F#2",
          "midi": 42,
          "time": 160.5,
          "velocity": 1,
          "duration": 0.3671875
        },
        {
          "name": "F#2",
          "midi": 42,
          "time": 160.875,
          "velocity": 1,
          "duration": 0.3671875
        },
        {
          "name": "C2",
          "midi": 36,
          "time": 161.0625,
          "velocity": 0.9133858267716536,
          "duration": 0.1796875
        },
        {
          "name": "C2",
          "midi": 36,
          "time": 161.25,
          "velocity": 0.8661417322834646,
          "duration": 0.3671875
        },
        {
          "name": "F#2",
          "midi": 42,
          "time": 161.25,
          "velocity": 1,
          "duration": 0.3671875
        },
        {
          "name": "D2",
          "midi": 38,
          "time": 161.625,
          "velocity": 0.9606299212598425,
          "duration": 0.1796875
        },
        {
          "name": "F#2",
          "midi": 42,
          "time": 161.625,
          "velocity": 1,
          "duration": 0.3671875
        },
        {
          "name": "C2",
          "midi": 36,
          "time": 161.8125,
          "velocity": 0.9133858267716536,
          "duration": 0.1796875
        },
        {
          "name": "C2",
          "midi": 36,
          "time": 162,
          "velocity": 1,
          "duration": 0.3671875
        },
        {
          "name": "F#2",
          "midi": 42,
          "time": 162,
          "velocity": 1,
          "duration": 0.3671875
        },
        {
          "name": "C2",
          "midi": 36,
          "time": 162.375,
          "velocity": 1,
          "duration": 0.7421875
        },
        {
          "name": "C#3",
          "midi": 49,
          "time": 162.375,
          "velocity": 1,
          "duration": 0.3671875
        },
        {
          "name": "F#2",
          "midi": 42,
          "time": 162.75,
          "velocity": 1,
          "duration": 0.3671875
        },
        {
          "name": "D2",
          "midi": 38,
          "time": 163.125,
          "velocity": 1,
          "duration": 0.3671875
        },
        {
          "name": "F#2",
          "midi": 42,
          "time": 163.125,
          "velocity": 1,
          "duration": 0.3671875
        },
        {
          "name": "C2",
          "midi": 36,
          "time": 163.5,
          "velocity": 0.9606299212598425,
          "duration": 0.3671875
        },
        {
          "name": "F#2",
          "midi": 42,
          "time": 163.5,
          "velocity": 1,
          "duration": 0.3671875
        },
        {
          "name": "F#2",
          "midi": 42,
          "time": 163.875,
          "velocity": 1,
          "duration": 0.3671875
        },
        {
          "name": "C2",
          "midi": 36,
          "time": 164.25,
          "velocity": 1,
          "duration": 0.3671875
        },
        {
          "name": "F#2",
          "midi": 42,
          "time": 164.25,
          "velocity": 1,
          "duration": 0.3671875
        },
        {
          "name": "D2",
          "midi": 38,
          "time": 164.625,
          "velocity": 1,
          "duration": 0.3671875
        },
        {
          "name": "F#2",
          "midi": 42,
          "time": 164.625,
          "velocity": 1,
          "duration": 0.3671875
        },
        {
          "name": "C2",
          "midi": 36,
          "time": 165,
          "velocity": 1,
          "duration": 0.3671875
        },
        {
          "name": "F#2",
          "midi": 42,
          "time": 165,
          "velocity": 1,
          "duration": 0.3671875
        },
        {
          "name": "F#2",
          "midi": 42,
          "time": 165.375,
          "velocity": 1,
          "duration": 0.3671875
        },
        {
          "name": "C2",
          "midi": 36,
          "time": 165.75,
          "velocity": 0.9606299212598425,
          "duration": 0.3671875
        },
        {
          "name": "F#2",
          "midi": 42,
          "time": 165.75,
          "velocity": 1,
          "duration": 0.3671875
        },
        {
          "name": "D2",
          "midi": 38,
          "time": 166.125,
          "velocity": 0.9133858267716536,
          "duration": 0.7421875
        },
        {
          "name": "F#2",
          "midi": 42,
          "time": 166.125,
          "velocity": 1,
          "duration": 0.3671875
        },
        {
          "name": "F#2",
          "midi": 42,
          "time": 166.5,
          "velocity": 1,
          "duration": 0.3671875
        },
        {
          "name": "F#2",
          "midi": 42,
          "time": 166.875,
          "velocity": 1,
          "duration": 0.3671875
        },
        {
          "name": "D2",
          "midi": 38,
          "time": 167.0625,
          "velocity": 0.9133858267716536,
          "duration": 0.1796875
        },
        {
          "name": "C2",
          "midi": 36,
          "time": 167.25,
          "velocity": 0.9133858267716536,
          "duration": 0.3671875
        },
        {
          "name": "F#2",
          "midi": 42,
          "time": 167.25,
          "velocity": 1,
          "duration": 0.3671875
        },
        {
          "name": "D2",
          "midi": 38,
          "time": 167.625,
          "velocity": 1,
          "duration": 0.5546875
        },
        {
          "name": "F#2",
          "midi": 42,
          "time": 167.625,
          "velocity": 1,
          "duration": 0.3671875
        },
        {
          "name": "F#2",
          "midi": 42,
          "time": 168,
          "velocity": 1,
          "duration": 0.3671875
        },
        {
          "name": "C2",
          "midi": 36,
          "time": 168.1875,
          "velocity": 1,
          "duration": 0.1796875
        },
        {
          "name": "C2",
          "midi": 36,
          "time": 168.375,
          "velocity": 1,
          "duration": 0.7421875
        },
        {
          "name": "C#3",
          "midi": 49,
          "time": 168.375,
          "velocity": 0.9133858267716536,
          "duration": 0.3671875
        },
        {
          "name": "F#2",
          "midi": 42,
          "time": 168.75,
          "velocity": 0.9606299212598425,
          "duration": 0.3671875
        },
        {
          "name": "D2",
          "midi": 38,
          "time": 169.125,
          "velocity": 1,
          "duration": 0.3671875
        },
        {
          "name": "F#2",
          "midi": 42,
          "time": 169.125,
          "velocity": 0.9133858267716536,
          "duration": 0.3671875
        },
        {
          "name": "C2",
          "midi": 36,
          "time": 169.5,
          "velocity": 0.8346456692913385,
          "duration": 0.3671875
        },
        {
          "name": "F#2",
          "midi": 42,
          "time": 169.5,
          "velocity": 0.9606299212598425,
          "duration": 0.3671875
        },
        {
          "name": "F#2",
          "midi": 42,
          "time": 169.875,
          "velocity": 0.9133858267716536,
          "duration": 0.3671875
        },
        {
          "name": "C2",
          "midi": 36,
          "time": 170.25,
          "velocity": 0.6614173228346457,
          "duration": 0.3671875
        },
        {
          "name": "F#2",
          "midi": 42,
          "time": 170.25,
          "velocity": 0.8188976377952756,
          "duration": 0.3671875
        },
        {
          "name": "D2",
          "midi": 38,
          "time": 170.625,
          "velocity": 1,
          "duration": 0.3671875
        },
        {
          "name": "F#2",
          "midi": 42,
          "time": 170.625,
          "velocity": 0.8661417322834646,
          "duration": 0.3671875
        },
        {
          "name": "C2",
          "midi": 36,
          "time": 171,
          "velocity": 0.8031496062992126,
          "duration": 0.3671875
        },
        {
          "name": "F#2",
          "midi": 42,
          "time": 171,
          "velocity": 0.9606299212598425,
          "duration": 0.3671875
        },
        {
          "name": "F#2",
          "midi": 42,
          "time": 171.375,
          "velocity": 1,
          "duration": 0.3671875
        },
        {
          "name": "C2",
          "midi": 36,
          "time": 171.75,
          "velocity": 1,
          "duration": 0.3671875
        },
        {
          "name": "F#2",
          "midi": 42,
          "time": 171.75,
          "velocity": 0.9133858267716536,
          "duration": 0.3671875
        },
        {
          "name": "D2",
          "midi": 38,
          "time": 172.125,
          "velocity": 0.9606299212598425,
          "duration": 0.7421875
        },
        {
          "name": "F#2",
          "midi": 42,
          "time": 172.125,
          "velocity": 0.9606299212598425,
          "duration": 0.3671875
        },
        {
          "name": "F#2",
          "midi": 42,
          "time": 172.5,
          "velocity": 1,
          "duration": 0.3671875
        },
        {
          "name": "F#2",
          "midi": 42,
          "time": 172.875,
          "velocity": 1,
          "duration": 0.3671875
        },
        {
          "name": "C2",
          "midi": 36,
          "time": 173.0625,
          "velocity": 0.9133858267716536,
          "duration": 0.1796875
        },
        {
          "name": "C2",
          "midi": 36,
          "time": 173.25,
          "velocity": 0.8661417322834646,
          "duration": 0.3671875
        },
        {
          "name": "F#2",
          "midi": 42,
          "time": 173.25,
          "velocity": 1,
          "duration": 0.3671875
        },
        {
          "name": "F#2",
          "midi": 42,
          "time": 173.625,
          "velocity": 1,
          "duration": 0.3671875
        },
        {
          "name": "C2",
          "midi": 36,
          "time": 173.75,
          "velocity": 0.9606299212598425,
          "duration": 0.125
        },
        {
          "name": "C2",
          "midi": 36,
          "time": 173.875,
          "velocity": 0.9133858267716536,
          "duration": 0.125
        },
        {
          "name": "C2",
          "midi": 36,
          "time": 174,
          "velocity": 1,
          "duration": 0.3671875
        },
        {
          "name": "D2",
          "midi": 38,
          "time": 174,
          "velocity": 1,
          "duration": 0.3671875
        },
        {
          "name": "F#2",
          "midi": 42,
          "time": 174,
          "velocity": 1,
          "duration": 0.3671875
        },
        {
          "name": "C2",
          "midi": 36,
          "time": 174.375,
          "velocity": 1,
          "duration": 0.7421875
        },
        {
          "name": "C#3",
          "midi": 49,
          "time": 174.375,
          "velocity": 1,
          "duration": 0.3671875
        },
        {
          "name": "F#2",
          "midi": 42,
          "time": 174.75,
          "velocity": 1,
          "duration": 0.3671875
        },
        {
          "name": "D2",
          "midi": 38,
          "time": 175.125,
          "velocity": 1,
          "duration": 0.3671875
        },
        {
          "name": "F#2",
          "midi": 42,
          "time": 175.125,
          "velocity": 1,
          "duration": 0.3671875
        },
        {
          "name": "C2",
          "midi": 36,
          "time": 175.5,
          "velocity": 0.9606299212598425,
          "duration": 0.3671875
        },
        {
          "name": "F#2",
          "midi": 42,
          "time": 175.5,
          "velocity": 1,
          "duration": 0.3671875
        },
        {
          "name": "F#2",
          "midi": 42,
          "time": 175.875,
          "velocity": 1,
          "duration": 0.3671875
        },
        {
          "name": "C2",
          "midi": 36,
          "time": 176.25,
          "velocity": 1,
          "duration": 0.3671875
        },
        {
          "name": "F#2",
          "midi": 42,
          "time": 176.25,
          "velocity": 1,
          "duration": 0.3671875
        },
        {
          "name": "D2",
          "midi": 38,
          "time": 176.625,
          "velocity": 1,
          "duration": 0.3671875
        },
        {
          "name": "F#2",
          "midi": 42,
          "time": 176.625,
          "velocity": 1,
          "duration": 0.3671875
        },
        {
          "name": "C2",
          "midi": 36,
          "time": 177,
          "velocity": 1,
          "duration": 0.3671875
        },
        {
          "name": "F#2",
          "midi": 42,
          "time": 177,
          "velocity": 1,
          "duration": 0.3671875
        },
        {
          "name": "F#2",
          "midi": 42,
          "time": 177.375,
          "velocity": 1,
          "duration": 0.3671875
        },
        {
          "name": "C2",
          "midi": 36,
          "time": 177.75,
          "velocity": 0.9606299212598425,
          "duration": 0.3671875
        },
        {
          "name": "F#2",
          "midi": 42,
          "time": 177.75,
          "velocity": 1,
          "duration": 0.3671875
        },
        {
          "name": "D2",
          "midi": 38,
          "time": 178.125,
          "velocity": 0.9133858267716536,
          "duration": 0.7421875
        },
        {
          "name": "F#2",
          "midi": 42,
          "time": 178.125,
          "velocity": 1,
          "duration": 0.3671875
        },
        {
          "name": "F#2",
          "midi": 42,
          "time": 178.5,
          "velocity": 1,
          "duration": 0.3671875
        },
        {
          "name": "F#2",
          "midi": 42,
          "time": 178.875,
          "velocity": 1,
          "duration": 0.3671875
        },
        {
          "name": "D2",
          "midi": 38,
          "time": 179.0625,
          "velocity": 0.9133858267716536,
          "duration": 0.1796875
        },
        {
          "name": "C2",
          "midi": 36,
          "time": 179.25,
          "velocity": 0.9133858267716536,
          "duration": 0.3671875
        },
        {
          "name": "F#2",
          "midi": 42,
          "time": 179.25,
          "velocity": 1,
          "duration": 0.3671875
        },
        {
          "name": "D2",
          "midi": 38,
          "time": 179.625,
          "velocity": 1,
          "duration": 0.5546875
        },
        {
          "name": "F#2",
          "midi": 42,
          "time": 179.625,
          "velocity": 1,
          "duration": 0.3671875
        },
        {
          "name": "F#2",
          "midi": 42,
          "time": 180,
          "velocity": 1,
          "duration": 0.3671875
        },
        {
          "name": "C2",
          "midi": 36,
          "time": 180.1875,
          "velocity": 1,
          "duration": 0.1796875
        },
        {
          "name": "C2",
          "midi": 36,
          "time": 180.375,
          "velocity": 0.9133858267716536,
          "duration": 0.7421875
        },
        {
          "name": "F#2",
          "midi": 42,
          "time": 180.375,
          "velocity": 0.8346456692913385,
          "duration": 0.3671875
        },
        {
          "name": "F#2",
          "midi": 42,
          "time": 180.75,
          "velocity": 0.7716535433070866,
          "duration": 0.3671875
        },
        {
          "name": "D2",
          "midi": 38,
          "time": 181.125,
          "velocity": 1,
          "duration": 0.3671875
        },
        {
          "name": "F#2",
          "midi": 42,
          "time": 181.125,
          "velocity": 0.7874015748031497,
          "duration": 0.3671875
        },
        {
          "name": "C2",
          "midi": 36,
          "time": 181.5,
          "velocity": 0.9606299212598425,
          "duration": 0.3671875
        },
        {
          "name": "F#2",
          "midi": 42,
          "time": 181.5,
          "velocity": 0.7874015748031497,
          "duration": 0.3671875
        },
        {
          "name": "F#2",
          "midi": 42,
          "time": 181.875,
          "velocity": 0.8188976377952756,
          "duration": 0.3671875
        },
        {
          "name": "C2",
          "midi": 36,
          "time": 182.25,
          "velocity": 0.8503937007874016,
          "duration": 0.3671875
        },
        {
          "name": "F#2",
          "midi": 42,
          "time": 182.25,
          "velocity": 0.8031496062992126,
          "duration": 0.3671875
        },
        {
          "name": "D2",
          "midi": 38,
          "time": 182.625,
          "velocity": 0.8503937007874016,
          "duration": 0.3671875
        },
        {
          "name": "F#2",
          "midi": 42,
          "time": 182.625,
          "velocity": 0.8661417322834646,
          "duration": 0.3671875
        },
        {
          "name": "C2",
          "midi": 36,
          "time": 183,
          "velocity": 0.8661417322834646,
          "duration": 0.3671875
        },
        {
          "name": "F#2",
          "midi": 42,
          "time": 183,
          "velocity": 0.9606299212598425,
          "duration": 0.3671875
        },
        {
          "name": "F#2",
          "midi": 42,
          "time": 183.375,
          "velocity": 0.7401574803149606,
          "duration": 0.3671875
        },
        {
          "name": "E3",
          "midi": 52,
          "time": 183.375,
          "velocity": 0.8188976377952756,
          "duration": 0.3671875
        },
        {
          "name": "C2",
          "midi": 36,
          "time": 183.75,
          "velocity": 0.8346456692913385,
          "duration": 0.3671875
        },
        {
          "name": "F#2",
          "midi": 42,
          "time": 183.75,
          "velocity": 0.7559055118110236,
          "duration": 0.3671875
        },
        {
          "name": "D2",
          "midi": 38,
          "time": 184.125,
          "velocity": 1,
          "duration": 0.7421875
        },
        {
          "name": "F#2",
          "midi": 42,
          "time": 184.125,
          "velocity": 0.7874015748031497,
          "duration": 0.3671875
        },
        {
          "name": "F#2",
          "midi": 42,
          "time": 184.5,
          "velocity": 0.7874015748031497,
          "duration": 0.3671875
        },
        {
          "name": "F#2",
          "midi": 42,
          "time": 184.875,
          "velocity": 0.7244094488188977,
          "duration": 0.3671875
        },
        {
          "name": "C2",
          "midi": 36,
          "time": 185.0625,
          "velocity": 0.8346456692913385,
          "duration": 0.1796875
        },
        {
          "name": "C2",
          "midi": 36,
          "time": 185.25,
          "velocity": 0.9133858267716536,
          "duration": 0.3671875
        },
        {
          "name": "F#2",
          "midi": 42,
          "time": 185.25,
          "velocity": 0.7559055118110236,
          "duration": 0.3671875
        },
        {
          "name": "F#2",
          "midi": 42,
          "time": 185.625,
          "velocity": 0.8346456692913385,
          "duration": 0.3671875
        },
        {
          "name": "C2",
          "midi": 36,
          "time": 185.8125,
          "velocity": 0.8031496062992126,
          "duration": 0.1796875
        },
        {
          "name": "C2",
          "midi": 36,
          "time": 186,
          "velocity": 0.8503937007874016,
          "duration": 0.3671875
        },
        {
          "name": "F#2",
          "midi": 42,
          "time": 186,
          "velocity": 0.9133858267716536,
          "duration": 0.3671875
        },
        {
          "name": "C2",
          "midi": 36,
          "time": 186.375,
          "velocity": 0.7086614173228346,
          "duration": 0.7421875
        },
        {
          "name": "C#3",
          "midi": 49,
          "time": 186.375,
          "velocity": 1,
          "duration": 0.3671875
        },
        {
          "name": "F#2",
          "midi": 42,
          "time": 186.75,
          "velocity": 0.9133858267716536,
          "duration": 0.3671875
        },
        {
          "name": "D2",
          "midi": 38,
          "time": 187.125,
          "velocity": 1,
          "duration": 0.3671875
        },
        {
          "name": "F#2",
          "midi": 42,
          "time": 187.125,
          "velocity": 0.8503937007874016,
          "duration": 0.3671875
        },
        {
          "name": "C2",
          "midi": 36,
          "time": 187.5,
          "velocity": 0.9606299212598425,
          "duration": 0.3671875
        },
        {
          "name": "F#2",
          "midi": 42,
          "time": 187.5,
          "velocity": 0.9133858267716536,
          "duration": 0.3671875
        },
        {
          "name": "F#2",
          "midi": 42,
          "time": 187.875,
          "velocity": 0.8661417322834646,
          "duration": 0.3671875
        },
        {
          "name": "C2",
          "midi": 36,
          "time": 188.25,
          "velocity": 0.8661417322834646,
          "duration": 0.3671875
        },
        {
          "name": "F#2",
          "midi": 42,
          "time": 188.25,
          "velocity": 0.9133858267716536,
          "duration": 0.3671875
        },
        {
          "name": "D2",
          "midi": 38,
          "time": 188.625,
          "velocity": 0.9133858267716536,
          "duration": 0.3671875
        },
        {
          "name": "F#2",
          "midi": 42,
          "time": 188.625,
          "velocity": 1,
          "duration": 0.3671875
        },
        {
          "name": "C2",
          "midi": 36,
          "time": 189,
          "velocity": 0.48031496062992124,
          "duration": 0.3671875
        },
        {
          "name": "F#2",
          "midi": 42,
          "time": 189,
          "velocity": 1,
          "duration": 0.3671875
        },
        {
          "name": "F#2",
          "midi": 42,
          "time": 189.375,
          "velocity": 0.8503937007874016,
          "duration": 0.3671875
        },
        {
          "name": "C2",
          "midi": 36,
          "time": 189.75,
          "velocity": 0.8503937007874016,
          "duration": 0.3671875
        },
        {
          "name": "F#2",
          "midi": 42,
          "time": 189.75,
          "velocity": 0.9133858267716536,
          "duration": 0.3671875
        },
        {
          "name": "D2",
          "midi": 38,
          "time": 190.125,
          "velocity": 0.9133858267716536,
          "duration": 0.7421875
        },
        {
          "name": "F#2",
          "midi": 42,
          "time": 190.125,
          "velocity": 0.9133858267716536,
          "duration": 0.3671875
        },
        {
          "name": "F#2",
          "midi": 42,
          "time": 190.5,
          "velocity": 1,
          "duration": 0.3671875
        },
        {
          "name": "F#2",
          "midi": 42,
          "time": 190.875,
          "velocity": 1,
          "duration": 0.7421875
        },
        {
          "name": "D2",
          "midi": 38,
          "time": 191.0625,
          "velocity": 1,
          "duration": 0.1796875
        },
        {
          "name": "D2",
          "midi": 38,
          "time": 191.25,
          "velocity": 0.9133858267716536,
          "duration": 0.3671875
        },
        {
          "name": "D2",
          "midi": 38,
          "time": 191.625,
          "velocity": 1,
          "duration": 0.3671875
        },
        {
          "name": "D2",
          "midi": 38,
          "time": 192,
          "velocity": 0.9606299212598425,
          "duration": 0.1796875
        },
        {
          "name": "D2",
          "midi": 38,
          "time": 192.1875,
          "velocity": 1,
          "duration": 0.1796875
        },
        {
          "name": "C2",
          "midi": 36,
          "time": 192.375,
          "velocity": 0.9133858267716536,
          "duration": 0.7421875
        },
        {
          "name": "C#3",
          "midi": 49,
          "time": 192.375,
          "velocity": 1,
          "duration": 0.7421875
        },
        {
          "name": "D2",
          "midi": 38,
          "time": 193.125,
          "velocity": 0.8661417322834646,
          "duration": 0.7421875
        },
        {
          "name": "F#2",
          "midi": 42,
          "time": 193.125,
          "velocity": 0.7716535433070866,
          "duration": 0.3671875
        },
        {
          "name": "F#2",
          "midi": 42,
          "time": 193.5,
          "velocity": 0.8661417322834646,
          "duration": 0.3671875
        },
        {
          "name": "C2",
          "midi": 36,
          "time": 193.875,
          "velocity": 0.8661417322834646,
          "duration": 0.7421875
        },
        {
          "name": "F#2",
          "midi": 42,
          "time": 193.875,
          "velocity": 0.8661417322834646,
          "duration": 0.3671875
        },
        {
          "name": "F#2",
          "midi": 42,
          "time": 194.25,
          "velocity": 0.9133858267716536,
          "duration": 0.3671875
        },
        {
          "name": "D2",
          "midi": 38,
          "time": 194.625,
          "velocity": 0.8503937007874016,
          "duration": 0.7421875
        },
        {
          "name": "F#2",
          "midi": 42,
          "time": 194.625,
          "velocity": 0.8503937007874016,
          "duration": 0.3671875
        },
        {
          "name": "F#2",
          "midi": 42,
          "time": 195,
          "velocity": 0.9606299212598425,
          "duration": 0.3671875
        },
        {
          "name": "C2",
          "midi": 36,
          "time": 195.375,
          "velocity": 0.9133858267716536,
          "duration": 0.7421875
        },
        {
          "name": "F#2",
          "midi": 42,
          "time": 195.375,
          "velocity": 0.8031496062992126,
          "duration": 0.3671875
        },
        {
          "name": "F#2",
          "midi": 42,
          "time": 195.75,
          "velocity": 1,
          "duration": 0.3671875
        },
        {
          "name": "D2",
          "midi": 38,
          "time": 196.125,
          "velocity": 0.9606299212598425,
          "duration": 0.7421875
        },
        {
          "name": "F#2",
          "midi": 42,
          "time": 196.125,
          "velocity": 0.9606299212598425,
          "duration": 0.3671875
        },
        {
          "name": "F#2",
          "midi": 42,
          "time": 196.5,
          "velocity": 0.9606299212598425,
          "duration": 0.3671875
        },
        {
          "name": "C2",
          "midi": 36,
          "time": 196.875,
          "velocity": 0.8503937007874016,
          "duration": 0.7421875
        },
        {
          "name": "F#2",
          "midi": 42,
          "time": 196.875,
          "velocity": 0.9133858267716536,
          "duration": 0.3671875
        },
        {
          "name": "F#2",
          "midi": 42,
          "time": 197.25,
          "velocity": 0.8503937007874016,
          "duration": 0.3671875
        },
        {
          "name": "D2",
          "midi": 38,
          "time": 197.625,
          "velocity": 0.7716535433070866,
          "duration": 0.7421875
        },
        {
          "name": "F#2",
          "midi": 42,
          "time": 197.625,
          "velocity": 0.9133858267716536,
          "duration": 0.3671875
        },
        {
          "name": "F#2",
          "midi": 42,
          "time": 198,
          "velocity": 0.9133858267716536,
          "duration": 0.3671875
        },
        {
          "name": "C2",
          "midi": 36,
          "time": 198.375,
          "velocity": 0.7874015748031497,
          "duration": 0.7421875
        },
        {
          "name": "F#2",
          "midi": 42,
          "time": 198.375,
          "velocity": 0.9606299212598425,
          "duration": 0.3671875
        },
        {
          "name": "F#2",
          "midi": 42,
          "time": 198.75,
          "velocity": 0.8188976377952756,
          "duration": 0.3671875
        },
        {
          "name": "D2",
          "midi": 38,
          "time": 199.125,
          "velocity": 0.8346456692913385,
          "duration": 0.7421875
        },
        {
          "name": "F#2",
          "midi": 42,
          "time": 199.125,
          "velocity": 0.8661417322834646,
          "duration": 0.3671875
        },
        {
          "name": "F#2",
          "midi": 42,
          "time": 199.5,
          "velocity": 0.9606299212598425,
          "duration": 0.3671875
        },
        {
          "name": "C2",
          "midi": 36,
          "time": 199.875,
          "velocity": 0.8346456692913385,
          "duration": 0.7421875
        },
        {
          "name": "F#2",
          "midi": 42,
          "time": 199.875,
          "velocity": 1,
          "duration": 0.3671875
        },
        {
          "name": "F#2",
          "midi": 42,
          "time": 200.25,
          "velocity": 0.9133858267716536,
          "duration": 0.3671875
        },
        {
          "name": "D2",
          "midi": 38,
          "time": 200.625,
          "velocity": 0.8661417322834646,
          "duration": 0.7421875
        },
        {
          "name": "F#2",
          "midi": 42,
          "time": 200.625,
          "velocity": 1,
          "duration": 0.3671875
        },
        {
          "name": "F#2",
          "midi": 42,
          "time": 201,
          "velocity": 1,
          "duration": 0.3671875
        },
        {
          "name": "C2",
          "midi": 36,
          "time": 201.375,
          "velocity": 0.9133858267716536,
          "duration": 0.7421875
        },
        {
          "name": "F#2",
          "midi": 42,
          "time": 201.375,
          "velocity": 0.7559055118110236,
          "duration": 0.3671875
        },
        {
          "name": "F#2",
          "midi": 42,
          "time": 201.75,
          "velocity": 0.8661417322834646,
          "duration": 0.3671875
        },
        {
          "name": "D2",
          "midi": 38,
          "time": 202.125,
          "velocity": 0.9606299212598425,
          "duration": 0.7421875
        },
        {
          "name": "F#2",
          "midi": 42,
          "time": 202.125,
          "velocity": 0.9606299212598425,
          "duration": 0.3671875
        },
        {
          "name": "F#2",
          "midi": 42,
          "time": 202.5,
          "velocity": 0.9133858267716536,
          "duration": 0.3671875
        },
        {
          "name": "C2",
          "midi": 36,
          "time": 202.875,
          "velocity": 1,
          "duration": 0.3671875
        },
        {
          "name": "F#2",
          "midi": 42,
          "time": 202.875,
          "velocity": 1,
          "duration": 0.3671875
        },
        {
          "name": "C2",
          "midi": 36,
          "time": 203.25,
          "velocity": 0.9133858267716536,
          "duration": 0.3671875
        },
        {
          "name": "C#3",
          "midi": 49,
          "time": 203.25,
          "velocity": 1,
          "duration": 0.3671875
        },
        {
          "name": "D2",
          "midi": 38,
          "time": 203.625,
          "velocity": 0.9133858267716536,
          "duration": 0.3671875
        },
        {
          "name": "C#3",
          "midi": 49,
          "time": 203.625,
          "velocity": 1,
          "duration": 0.3671875
        },
        {
          "name": "D2",
          "midi": 38,
          "time": 204,
          "velocity": 1,
          "duration": 0.3671875
        },
        {
          "name": "C#3",
          "midi": 49,
          "time": 204,
          "velocity": 1,
          "duration": 0.3671875
        },
        {
          "name": "C2",
          "midi": 36,
          "time": 204.375,
          "velocity": 1,
          "duration": 0.7421875
        },
        {
          "name": "C#3",
          "midi": 49,
          "time": 204.375,
          "velocity": 0.9133858267716536,
          "duration": 0.3671875
        },
        {
          "name": "F#2",
          "midi": 42,
          "time": 204.75,
          "velocity": 1,
          "duration": 0.3671875
        },
        {
          "name": "D2",
          "midi": 38,
          "time": 205.125,
          "velocity": 1,
          "duration": 0.7421875
        },
        {
          "name": "F#2",
          "midi": 42,
          "time": 205.125,
          "velocity": 0.9133858267716536,
          "duration": 0.3671875
        },
        {
          "name": "F#2",
          "midi": 42,
          "time": 205.5,
          "velocity": 0.8503937007874016,
          "duration": 0.3671875
        },
        {
          "name": "C2",
          "midi": 36,
          "time": 205.875,
          "velocity": 1,
          "duration": 0.3671875
        },
        {
          "name": "F#2",
          "midi": 42,
          "time": 205.875,
          "velocity": 0.9133858267716536,
          "duration": 0.3671875
        },
        {
          "name": "C2",
          "midi": 36,
          "time": 206.25,
          "velocity": 1,
          "duration": 0.3671875
        },
        {
          "name": "F#2",
          "midi": 42,
          "time": 206.25,
          "velocity": 0.9133858267716536,
          "duration": 0.3671875
        },
        {
          "name": "D2",
          "midi": 38,
          "time": 206.625,
          "velocity": 1,
          "duration": 0.7421875
        },
        {
          "name": "F#2",
          "midi": 42,
          "time": 206.625,
          "velocity": 0.9133858267716536,
          "duration": 0.3671875
        },
        {
          "name": "F#2",
          "midi": 42,
          "time": 207,
          "velocity": 1,
          "duration": 0.3671875
        },
        {
          "name": "C2",
          "midi": 36,
          "time": 207.375,
          "velocity": 1,
          "duration": 0.7421875
        },
        {
          "name": "F#2",
          "midi": 42,
          "time": 207.375,
          "velocity": 1,
          "duration": 0.3671875
        },
        {
          "name": "F#2",
          "midi": 42,
          "time": 207.75,
          "velocity": 0.9133858267716536,
          "duration": 0.3671875
        },
        {
          "name": "D2",
          "midi": 38,
          "time": 208.125,
          "velocity": 1,
          "duration": 0.7421875
        },
        {
          "name": "F#2",
          "midi": 42,
          "time": 208.125,
          "velocity": 0.8503937007874016,
          "duration": 0.3671875
        },
        {
          "name": "F#2",
          "midi": 42,
          "time": 208.5,
          "velocity": 0.8503937007874016,
          "duration": 0.3671875
        },
        {
          "name": "C2",
          "midi": 36,
          "time": 208.875,
          "velocity": 1,
          "duration": 0.3671875
        },
        {
          "name": "F#2",
          "midi": 42,
          "time": 208.875,
          "velocity": 0.8503937007874016,
          "duration": 0.3671875
        },
        {
          "name": "C2",
          "midi": 36,
          "time": 209.25,
          "velocity": 1,
          "duration": 0.3671875
        },
        {
          "name": "F#2",
          "midi": 42,
          "time": 209.25,
          "velocity": 0.9133858267716536,
          "duration": 0.3671875
        },
        {
          "name": "D2",
          "midi": 38,
          "time": 209.625,
          "velocity": 1,
          "duration": 0.3671875
        },
        {
          "name": "F#2",
          "midi": 42,
          "time": 209.625,
          "velocity": 0.8503937007874016,
          "duration": 0.3671875
        },
        {
          "name": "C2",
          "midi": 36,
          "time": 210,
          "velocity": 1,
          "duration": 0.3671875
        },
        {
          "name": "F#2",
          "midi": 42,
          "time": 210,
          "velocity": 0.9606299212598425,
          "duration": 0.3671875
        },
        {
          "name": "C2",
          "midi": 36,
          "time": 210.375,
          "velocity": 1,
          "duration": 0.7421875
        },
        {
          "name": "C#3",
          "midi": 49,
          "time": 210.375,
          "velocity": 1,
          "duration": 0.3671875
        },
        {
          "name": "F#2",
          "midi": 42,
          "time": 210.75,
          "velocity": 0.9606299212598425,
          "duration": 0.3671875
        },
        {
          "name": "D2",
          "midi": 38,
          "time": 211.125,
          "velocity": 1,
          "duration": 0.7421875
        },
        {
          "name": "F#2",
          "midi": 42,
          "time": 211.125,
          "velocity": 0.8346456692913385,
          "duration": 0.3671875
        },
        {
          "name": "F#2",
          "midi": 42,
          "time": 211.5,
          "velocity": 1,
          "duration": 0.3671875
        },
        {
          "name": "C2",
          "midi": 36,
          "time": 211.875,
          "velocity": 1,
          "duration": 0.3671875
        },
        {
          "name": "F#2",
          "midi": 42,
          "time": 211.875,
          "velocity": 1,
          "duration": 0.3671875
        },
        {
          "name": "C2",
          "midi": 36,
          "time": 212.25,
          "velocity": 0.9606299212598425,
          "duration": 0.3671875
        },
        {
          "name": "F#2",
          "midi": 42,
          "time": 212.25,
          "velocity": 0.8661417322834646,
          "duration": 0.3671875
        },
        {
          "name": "D2",
          "midi": 38,
          "time": 212.625,
          "velocity": 1,
          "duration": 0.3671875
        },
        {
          "name": "F#2",
          "midi": 42,
          "time": 212.625,
          "velocity": 1,
          "duration": 0.3671875
        },
        {
          "name": "C2",
          "midi": 36,
          "time": 213,
          "velocity": 1,
          "duration": 0.7421875
        },
        {
          "name": "C#3",
          "midi": 49,
          "time": 213,
          "velocity": 0.9606299212598425,
          "duration": 0.3671875
        },
        {
          "name": "F#2",
          "midi": 42,
          "time": 213.375,
          "velocity": 1,
          "duration": 0.3671875
        },
        {
          "name": "C2",
          "midi": 36,
          "time": 213.75,
          "velocity": 1,
          "duration": 0.3671875
        },
        {
          "name": "F#2",
          "midi": 42,
          "time": 213.75,
          "velocity": 1,
          "duration": 0.3671875
        },
        {
          "name": "D2",
          "midi": 38,
          "time": 214.125,
          "velocity": 1,
          "duration": 0.7421875
        },
        {
          "name": "F#2",
          "midi": 42,
          "time": 214.125,
          "velocity": 1,
          "duration": 0.3671875
        },
        {
          "name": "F#2",
          "midi": 42,
          "time": 214.5,
          "velocity": 1,
          "duration": 0.3671875
        },
        {
          "name": "C2",
          "midi": 36,
          "time": 214.875,
          "velocity": 1,
          "duration": 0.3671875
        },
        {
          "name": "G3",
          "midi": 55,
          "time": 214.875,
          "velocity": 1,
          "duration": 0.3671875
        },
        {
          "name": "C2",
          "midi": 36,
          "time": 215.25,
          "velocity": 1,
          "duration": 0.3671875
        },
        {
          "name": "G3",
          "midi": 55,
          "time": 215.25,
          "velocity": 1,
          "duration": 0.3671875
        },
        {
          "name": "D2",
          "midi": 38,
          "time": 215.625,
          "velocity": 1,
          "duration": 0.3671875
        },
        {
          "name": "G3",
          "midi": 55,
          "time": 215.625,
          "velocity": 1,
          "duration": 0.3671875
        },
        {
          "name": "D2",
          "midi": 38,
          "time": 216,
          "velocity": 1,
          "duration": 0.1796875
        },
        {
          "name": "G3",
          "midi": 55,
          "time": 216,
          "velocity": 1,
          "duration": 0.3671875
        },
        {
          "name": "D2",
          "midi": 38,
          "time": 216.1875,
          "velocity": 1,
          "duration": 0.1796875
        },
        {
          "name": "C2",
          "midi": 36,
          "time": 216.375,
          "velocity": 1,
          "duration": 0.7421875
        },
        {
          "name": "C#3",
          "midi": 49,
          "time": 216.375,
          "velocity": 1,
          "duration": 0.7421875
        },
        {
          "name": "D2",
          "midi": 38,
          "time": 217.125,
          "velocity": 1,
          "duration": 0.7421875
        },
        {
          "name": "G3",
          "midi": 55,
          "time": 217.125,
          "velocity": 1,
          "duration": 0.3671875
        },
        {
          "name": "F#2",
          "midi": 42,
          "time": 217.5,
          "velocity": 0.8503937007874016,
          "duration": 0.3671875
        },
        {
          "name": "C2",
          "midi": 36,
          "time": 217.875,
          "velocity": 0.9133858267716536,
          "duration": 0.3671875
        },
        {
          "name": "F#2",
          "midi": 42,
          "time": 217.875,
          "velocity": 0.8503937007874016,
          "duration": 0.3671875
        },
        {
          "name": "C2",
          "midi": 36,
          "time": 218.25,
          "velocity": 1,
          "duration": 0.3671875
        },
        {
          "name": "F#2",
          "midi": 42,
          "time": 218.25,
          "velocity": 0.9133858267716536,
          "duration": 0.3671875
        },
        {
          "name": "D2",
          "midi": 38,
          "time": 218.625,
          "velocity": 1,
          "duration": 0.3671875
        },
        {
          "name": "F#2",
          "midi": 42,
          "time": 218.625,
          "velocity": 0.9133858267716536,
          "duration": 0.3671875
        },
        {
          "name": "C2",
          "midi": 36,
          "time": 219,
          "velocity": 1,
          "duration": 0.7421875
        },
        {
          "name": "F#2",
          "midi": 42,
          "time": 219,
          "velocity": 0.9133858267716536,
          "duration": 0.3671875
        },
        {
          "name": "F#2",
          "midi": 42,
          "time": 219.375,
          "velocity": 1,
          "duration": 0.3671875
        },
        {
          "name": "C2",
          "midi": 36,
          "time": 219.75,
          "velocity": 1,
          "duration": 0.3671875
        },
        {
          "name": "F#2",
          "midi": 42,
          "time": 219.75,
          "velocity": 1,
          "duration": 0.3671875
        },
        {
          "name": "D2",
          "midi": 38,
          "time": 220.125,
          "velocity": 1,
          "duration": 0.7421875
        },
        {
          "name": "F#2",
          "midi": 42,
          "time": 220.125,
          "velocity": 0.8503937007874016,
          "duration": 0.3671875
        },
        {
          "name": "F#2",
          "midi": 42,
          "time": 220.5,
          "velocity": 0.9133858267716536,
          "duration": 0.3671875
        },
        {
          "name": "C2",
          "midi": 36,
          "time": 220.875,
          "velocity": 1,
          "duration": 0.3671875
        },
        {
          "name": "F#2",
          "midi": 42,
          "time": 220.875,
          "velocity": 1,
          "duration": 0.3671875
        },
        {
          "name": "C2",
          "midi": 36,
          "time": 221.25,
          "velocity": 1,
          "duration": 0.3671875
        },
        {
          "name": "F#2",
          "midi": 42,
          "time": 221.25,
          "velocity": 1,
          "duration": 0.3671875
        },
        {
          "name": "D2",
          "midi": 38,
          "time": 221.625,
          "velocity": 1,
          "duration": 0.7421875
        },
        {
          "name": "G3",
          "midi": 55,
          "time": 221.625,
          "velocity": 1,
          "duration": 0.3671875
        },
        {
          "name": "G3",
          "midi": 55,
          "time": 222,
          "velocity": 1,
          "duration": 0.3671875
        },
        {
          "name": "C2",
          "midi": 36,
          "time": 222.375,
          "velocity": 1,
          "duration": 0.7421875
        },
        {
          "name": "C#3",
          "midi": 49,
          "time": 222.375,
          "velocity": 0.9133858267716536,
          "duration": 0.3671875
        },
        {
          "name": "F#2",
          "midi": 42,
          "time": 222.75,
          "velocity": 0.9606299212598425,
          "duration": 0.3671875
        },
        {
          "name": "D2",
          "midi": 38,
          "time": 223.125,
          "velocity": 1,
          "duration": 0.7421875
        },
        {
          "name": "F#2",
          "midi": 42,
          "time": 223.125,
          "velocity": 0.8503937007874016,
          "duration": 0.3671875
        },
        {
          "name": "F#2",
          "midi": 42,
          "time": 223.5,
          "velocity": 0.9133858267716536,
          "duration": 0.3671875
        },
        {
          "name": "C2",
          "midi": 36,
          "time": 223.875,
          "velocity": 1,
          "duration": 0.3671875
        },
        {
          "name": "F#2",
          "midi": 42,
          "time": 223.875,
          "velocity": 0.9133858267716536,
          "duration": 0.3671875
        },
        {
          "name": "C2",
          "midi": 36,
          "time": 224.25,
          "velocity": 1,
          "duration": 0.3671875
        },
        {
          "name": "F#2",
          "midi": 42,
          "time": 224.25,
          "velocity": 1,
          "duration": 0.3671875
        },
        {
          "name": "D2",
          "midi": 38,
          "time": 224.625,
          "velocity": 1,
          "duration": 0.3671875
        },
        {
          "name": "F#2",
          "midi": 42,
          "time": 224.625,
          "velocity": 0.9133858267716536,
          "duration": 0.3671875
        },
        {
          "name": "C2",
          "midi": 36,
          "time": 225,
          "velocity": 1,
          "duration": 0.7421875
        },
        {
          "name": "F#2",
          "midi": 42,
          "time": 225,
          "velocity": 1,
          "duration": 0.3671875
        },
        {
          "name": "F#2",
          "midi": 42,
          "time": 225.375,
          "velocity": 0.8661417322834646,
          "duration": 0.3671875
        },
        {
          "name": "C2",
          "midi": 36,
          "time": 225.75,
          "velocity": 1,
          "duration": 0.3671875
        },
        {
          "name": "F#2",
          "midi": 42,
          "time": 225.75,
          "velocity": 1,
          "duration": 0.3671875
        },
        {
          "name": "D2",
          "midi": 38,
          "time": 226.125,
          "velocity": 1,
          "duration": 0.3671875
        },
        {
          "name": "G3",
          "midi": 55,
          "time": 226.125,
          "velocity": 1,
          "duration": 0.3671875
        },
        {
          "name": "D2",
          "midi": 38,
          "time": 226.5,
          "velocity": 1,
          "duration": 0.3671875
        },
        {
          "name": "G3",
          "midi": 55,
          "time": 226.5,
          "velocity": 1,
          "duration": 0.3671875
        },
        {
          "name": "C2",
          "midi": 36,
          "time": 226.875,
          "velocity": 1,
          "duration": 0.2421875
        },
        {
          "name": "G3",
          "midi": 55,
          "time": 226.875,
          "velocity": 1,
          "duration": 0.7421875
        },
        {
          "name": "D2",
          "midi": 38,
          "time": 227.125,
          "velocity": 1,
          "duration": 0.1171875
        },
        {
          "name": "D2",
          "midi": 38,
          "time": 227.25,
          "velocity": 1,
          "duration": 0.1171875
        },
        {
          "name": "D2",
          "midi": 38,
          "time": 227.375,
          "velocity": 1,
          "duration": 0.1171875
        },
        {
          "name": "D2",
          "midi": 38,
          "time": 227.5,
          "velocity": 1,
          "duration": 0.1171875
        },
        {
          "name": "D3",
          "midi": 50,
          "time": 227.625,
          "velocity": 1,
          "duration": 0.1171875
        },
        {
          "name": "F#2",
          "midi": 42,
          "time": 227.625,
          "velocity": 0.9606299212598425,
          "duration": 0.7421875
        },
        {
          "name": "D3",
          "midi": 50,
          "time": 227.75,
          "velocity": 1,
          "duration": 0.1171875
        },
        {
          "name": "D3",
          "midi": 50,
          "time": 227.875,
          "velocity": 1,
          "duration": 0.1171875
        },
        {
          "name": "B2",
          "midi": 47,
          "time": 228,
          "velocity": 1,
          "duration": 0.1171875
        },
        {
          "name": "B2",
          "midi": 47,
          "time": 228.125,
          "velocity": 1,
          "duration": 0.1171875
        },
        {
          "name": "B2",
          "midi": 47,
          "time": 228.25,
          "velocity": 1,
          "duration": 0.1171875
        },
        {
          "name": "C2",
          "midi": 36,
          "time": 228.375,
          "velocity": 0.8503937007874016,
          "duration": 0.7421875
        },
        {
          "name": "C#3",
          "midi": 49,
          "time": 228.375,
          "velocity": 0.9606299212598425,
          "duration": 0.7421875
        },
        {
          "name": "D2",
          "midi": 38,
          "time": 229.125,
          "velocity": 1,
          "duration": 0.7421875
        },
        {
          "name": "F#2",
          "midi": 42,
          "time": 229.125,
          "velocity": 1,
          "duration": 0.3671875
        },
        {
          "name": "F#2",
          "midi": 42,
          "time": 229.5,
          "velocity": 0.9133858267716536,
          "duration": 0.3671875
        },
        {
          "name": "C2",
          "midi": 36,
          "time": 229.875,
          "velocity": 0.9133858267716536,
          "duration": 0.3671875
        },
        {
          "name": "F#2",
          "midi": 42,
          "time": 229.875,
          "velocity": 0.8661417322834646,
          "duration": 0.3671875
        },
        {
          "name": "C2",
          "midi": 36,
          "time": 230.25,
          "velocity": 0.9133858267716536,
          "duration": 0.3671875
        },
        {
          "name": "F#2",
          "midi": 42,
          "time": 230.25,
          "velocity": 0.8661417322834646,
          "duration": 0.3671875
        },
        {
          "name": "D2",
          "midi": 38,
          "time": 230.625,
          "velocity": 1,
          "duration": 0.3671875
        },
        {
          "name": "F#2",
          "midi": 42,
          "time": 230.625,
          "velocity": 0.8661417322834646,
          "duration": 0.3671875
        },
        {
          "name": "C2",
          "midi": 36,
          "time": 231,
          "velocity": 0.7874015748031497,
          "duration": 0.7421875
        },
        {
          "name": "F#2",
          "midi": 42,
          "time": 231,
          "velocity": 0.8503937007874016,
          "duration": 0.3671875
        },
        {
          "name": "F#2",
          "midi": 42,
          "time": 231.375,
          "velocity": 0.8503937007874016,
          "duration": 0.3671875
        },
        {
          "name": "C2",
          "midi": 36,
          "time": 231.75,
          "velocity": 0.7401574803149606,
          "duration": 0.3671875
        },
        {
          "name": "F#2",
          "midi": 42,
          "time": 231.75,
          "velocity": 1,
          "duration": 0.3671875
        },
        {
          "name": "D2",
          "midi": 38,
          "time": 232.125,
          "velocity": 1,
          "duration": 0.7421875
        },
        {
          "name": "F#2",
          "midi": 42,
          "time": 232.125,
          "velocity": 0.8661417322834646,
          "duration": 0.3671875
        },
        {
          "name": "F#2",
          "midi": 42,
          "time": 232.5,
          "velocity": 0.9133858267716536,
          "duration": 0.3671875
        },
        {
          "name": "C2",
          "midi": 36,
          "time": 232.875,
          "velocity": 0.9606299212598425,
          "duration": 0.3671875
        },
        {
          "name": "F#2",
          "midi": 42,
          "time": 232.875,
          "velocity": 0.8661417322834646,
          "duration": 0.3671875
        },
        {
          "name": "C2",
          "midi": 36,
          "time": 233.25,
          "velocity": 0.8346456692913385,
          "duration": 0.3671875
        },
        {
          "name": "F#2",
          "midi": 42,
          "time": 233.25,
          "velocity": 0.8661417322834646,
          "duration": 0.3671875
        },
        {
          "name": "D2",
          "midi": 38,
          "time": 233.625,
          "velocity": 1,
          "duration": 0.3671875
        },
        {
          "name": "F#2",
          "midi": 42,
          "time": 233.625,
          "velocity": 0.8503937007874016,
          "duration": 0.3671875
        },
        {
          "name": "D2",
          "midi": 38,
          "time": 234,
          "velocity": 1,
          "duration": 0.3671875
        },
        {
          "name": "F#2",
          "midi": 42,
          "time": 234,
          "velocity": 0.9133858267716536,
          "duration": 0.3671875
        },
        {
          "name": "C2",
          "midi": 36,
          "time": 234.375,
          "velocity": 0.9133858267716536,
          "duration": 0.7421875
        },
        {
          "name": "C#3",
          "midi": 49,
          "time": 234.375,
          "velocity": 0.9133858267716536,
          "duration": 0.7421875
        },
        {
          "name": "D2",
          "midi": 38,
          "time": 235.125,
          "velocity": 1,
          "duration": 0.7421875
        },
        {
          "name": "F#2",
          "midi": 42,
          "time": 235.125,
          "velocity": 0.9133858267716536,
          "duration": 0.3671875
        },
        {
          "name": "F#2",
          "midi": 42,
          "time": 235.5,
          "velocity": 0.8661417322834646,
          "duration": 0.3671875
        },
        {
          "name": "C2",
          "midi": 36,
          "time": 235.875,
          "velocity": 0.8031496062992126,
          "duration": 0.3671875
        },
        {
          "name": "F#2",
          "midi": 42,
          "time": 235.875,
          "velocity": 0.8661417322834646,
          "duration": 0.3671875
        },
        {
          "name": "C2",
          "midi": 36,
          "time": 236.25,
          "velocity": 1,
          "duration": 0.3671875
        },
        {
          "name": "F#2",
          "midi": 42,
          "time": 236.25,
          "velocity": 0.9133858267716536,
          "duration": 0.3671875
        },
        {
          "name": "D2",
          "midi": 38,
          "time": 236.625,
          "velocity": 1,
          "duration": 0.7421875
        },
        {
          "name": "F#2",
          "midi": 42,
          "time": 236.625,
          "velocity": 0.9606299212598425,
          "duration": 0.3671875
        },
        {
          "name": "F#2",
          "midi": 42,
          "time": 237,
          "velocity": 1,
          "duration": 0.3671875
        },
        {
          "name": "F#2",
          "midi": 42,
          "time": 237.375,
          "velocity": 0.9606299212598425,
          "duration": 0.3671875
        },
        {
          "name": "C2",
          "midi": 36,
          "time": 237.75,
          "velocity": 1,
          "duration": 0.3671875
        },
        {
          "name": "F#2",
          "midi": 42,
          "time": 237.75,
          "velocity": 0.8661417322834646,
          "duration": 0.3671875
        },
        {
          "name": "D2",
          "midi": 38,
          "time": 238.125,
          "velocity": 1,
          "duration": 0.3671875
        },
        {
          "name": "F#2",
          "midi": 42,
          "time": 238.125,
          "velocity": 0.8503937007874016,
          "duration": 0.3671875
        },
        {
          "name": "D2",
          "midi": 38,
          "time": 238.5,
          "velocity": 1,
          "duration": 0.3671875
        },
        {
          "name": "F#2",
          "midi": 42,
          "time": 238.5,
          "velocity": 0.9606299212598425,
          "duration": 0.3671875
        },
        {
          "name": "C2",
          "midi": 36,
          "time": 238.875,
          "velocity": 1,
          "duration": 0.3671875
        },
        {
          "name": "F#2",
          "midi": 42,
          "time": 238.875,
          "velocity": 0.9606299212598425,
          "duration": 0.3671875
        },
        {
          "name": "C2",
          "midi": 36,
          "time": 239.25,
          "velocity": 1,
          "duration": 0.3671875
        },
        {
          "name": "F#2",
          "midi": 42,
          "time": 239.25,
          "velocity": 0.9606299212598425,
          "duration": 0.3671875
        },
        {
          "name": "D2",
          "midi": 38,
          "time": 239.625,
          "velocity": 1,
          "duration": 0.3671875
        },
        {
          "name": "F#2",
          "midi": 42,
          "time": 239.625,
          "velocity": 1,
          "duration": 0.7421875
        },
        {
          "name": "D2",
          "midi": 38,
          "time": 240,
          "velocity": 1,
          "duration": 0.1796875
        },
        {
          "name": "D2",
          "midi": 38,
          "time": 240.1875,
          "velocity": 1,
          "duration": 0.1796875
        },
        {
          "name": "C2",
          "midi": 36,
          "time": 240.375,
          "velocity": 1,
          "duration": 0.7421875
        },
        {
          "name": "C#3",
          "midi": 49,
          "time": 240.375,
          "velocity": 0.9133858267716536,
          "duration": 0.3671875
        },
        {
          "name": "F#2",
          "midi": 42,
          "time": 240.75,
          "velocity": 0.9606299212598425,
          "duration": 0.3671875
        },
        {
          "name": "D2",
          "midi": 38,
          "time": 241.125,
          "velocity": 1,
          "duration": 0.7421875
        },
        {
          "name": "F#2",
          "midi": 42,
          "time": 241.125,
          "velocity": 0.8503937007874016,
          "duration": 0.3671875
        },
        {
          "name": "F#2",
          "midi": 42,
          "time": 241.5,
          "velocity": 1,
          "duration": 0.3671875
        },
        {
          "name": "C2",
          "midi": 36,
          "time": 241.875,
          "velocity": 1,
          "duration": 0.3671875
        },
        {
          "name": "F#2",
          "midi": 42,
          "time": 241.875,
          "velocity": 1,
          "duration": 0.3671875
        },
        {
          "name": "C2",
          "midi": 36,
          "time": 242.25,
          "velocity": 1,
          "duration": 0.3671875
        },
        {
          "name": "F#2",
          "midi": 42,
          "time": 242.25,
          "velocity": 0.9133858267716536,
          "duration": 0.3671875
        },
        {
          "name": "D2",
          "midi": 38,
          "time": 242.625,
          "velocity": 1,
          "duration": 0.3671875
        },
        {
          "name": "F#2",
          "midi": 42,
          "time": 242.625,
          "velocity": 0.9133858267716536,
          "duration": 0.3671875
        },
        {
          "name": "C2",
          "midi": 36,
          "time": 243,
          "velocity": 1,
          "duration": 0.7421875
        },
        {
          "name": "F#2",
          "midi": 42,
          "time": 243,
          "velocity": 0.9606299212598425,
          "duration": 0.3671875
        },
        {
          "name": "F#2",
          "midi": 42,
          "time": 243.375,
          "velocity": 1,
          "duration": 0.3671875
        },
        {
          "name": "C2",
          "midi": 36,
          "time": 243.75,
          "velocity": 1,
          "duration": 0.3671875
        },
        {
          "name": "F#2",
          "midi": 42,
          "time": 243.75,
          "velocity": 0.8661417322834646,
          "duration": 0.3671875
        },
        {
          "name": "D2",
          "midi": 38,
          "time": 244.125,
          "velocity": 1,
          "duration": 0.7421875
        },
        {
          "name": "F#2",
          "midi": 42,
          "time": 244.125,
          "velocity": 0.9606299212598425,
          "duration": 0.3671875
        },
        {
          "name": "F#2",
          "midi": 42,
          "time": 244.5,
          "velocity": 0.9133858267716536,
          "duration": 0.3671875
        },
        {
          "name": "C2",
          "midi": 36,
          "time": 244.875,
          "velocity": 1,
          "duration": 0.3671875
        },
        {
          "name": "F#2",
          "midi": 42,
          "time": 244.875,
          "velocity": 1,
          "duration": 0.3671875
        },
        {
          "name": "C2",
          "midi": 36,
          "time": 245.25,
          "velocity": 0.9133858267716536,
          "duration": 0.3671875
        },
        {
          "name": "F#2",
          "midi": 42,
          "time": 245.25,
          "velocity": 0.9133858267716536,
          "duration": 0.3671875
        },
        {
          "name": "D2",
          "midi": 38,
          "time": 245.625,
          "velocity": 1,
          "duration": 0.3671875
        },
        {
          "name": "F#2",
          "midi": 42,
          "time": 245.625,
          "velocity": 0.9606299212598425,
          "duration": 0.3671875
        },
        {
          "name": "D2",
          "midi": 38,
          "time": 246,
          "velocity": 1,
          "duration": 0.3671875
        },
        {
          "name": "F#2",
          "midi": 42,
          "time": 246,
          "velocity": 1,
          "duration": 0.3671875
        },
        {
          "name": "C2",
          "midi": 36,
          "time": 246.375,
          "velocity": 1,
          "duration": 0.7421875
        },
        {
          "name": "C#3",
          "midi": 49,
          "time": 246.375,
          "velocity": 0.8503937007874016,
          "duration": 0.3671875
        },
        {
          "name": "F#2",
          "midi": 42,
          "time": 246.75,
          "velocity": 0.9606299212598425,
          "duration": 0.3671875
        },
        {
          "name": "D2",
          "midi": 38,
          "time": 247.125,
          "velocity": 1,
          "duration": 0.7421875
        },
        {
          "name": "F#2",
          "midi": 42,
          "time": 247.125,
          "velocity": 0.9133858267716536,
          "duration": 0.3671875
        },
        {
          "name": "F#2",
          "midi": 42,
          "time": 247.5,
          "velocity": 1,
          "duration": 0.3671875
        },
        {
          "name": "C2",
          "midi": 36,
          "time": 247.875,
          "velocity": 1,
          "duration": 0.3671875
        },
        {
          "name": "F#2",
          "midi": 42,
          "time": 247.875,
          "velocity": 0.9133858267716536,
          "duration": 0.3671875
        },
        {
          "name": "C2",
          "midi": 36,
          "time": 248.25,
          "velocity": 1,
          "duration": 0.3671875
        },
        {
          "name": "F#2",
          "midi": 42,
          "time": 248.25,
          "velocity": 0.9133858267716536,
          "duration": 0.3671875
        },
        {
          "name": "D2",
          "midi": 38,
          "time": 248.625,
          "velocity": 1,
          "duration": 0.3671875
        },
        {
          "name": "F#2",
          "midi": 42,
          "time": 248.625,
          "velocity": 0.9133858267716536,
          "duration": 0.3671875
        },
        {
          "name": "D2",
          "midi": 38,
          "time": 249,
          "velocity": 1,
          "duration": 0.3671875
        },
        {
          "name": "F#2",
          "midi": 42,
          "time": 249,
          "velocity": 0.9133858267716536,
          "duration": 0.3671875
        },
        {
          "name": "F#2",
          "midi": 42,
          "time": 249.375,
          "velocity": 0.8503937007874016,
          "duration": 0.3671875
        },
        {
          "name": "C2",
          "midi": 36,
          "time": 249.75,
          "velocity": 1,
          "duration": 0.3671875
        },
        {
          "name": "F#2",
          "midi": 42,
          "time": 249.75,
          "velocity": 0.9606299212598425,
          "duration": 0.3671875
        },
        {
          "name": "D2",
          "midi": 38,
          "time": 250.125,
          "velocity": 1,
          "duration": 0.3671875
        },
        {
          "name": "F#2",
          "midi": 42,
          "time": 250.125,
          "velocity": 1,
          "duration": 0.3671875
        },
        {
          "name": "D2",
          "midi": 38,
          "time": 250.5,
          "velocity": 1,
          "duration": 0.3671875
        },
        {
          "name": "F#2",
          "midi": 42,
          "time": 250.5,
          "velocity": 1,
          "duration": 0.3671875
        },
        {
          "name": "C2",
          "midi": 36,
          "time": 250.875,
          "velocity": 1,
          "duration": 0.2421875
        },
        {
          "name": "F#2",
          "midi": 42,
          "time": 250.875,
          "velocity": 1,
          "duration": 0.7421875
        },
        {
          "name": "D2",
          "midi": 38,
          "time": 251.125,
          "velocity": 0.9606299212598425,
          "duration": 0.1171875
        },
        {
          "name": "D2",
          "midi": 38,
          "time": 251.25,
          "velocity": 1,
          "duration": 0.1171875
        },
        {
          "name": "D2",
          "midi": 38,
          "time": 251.375,
          "velocity": 1,
          "duration": 0.1171875
        },
        {
          "name": "D2",
          "midi": 38,
          "time": 251.5,
          "velocity": 1,
          "duration": 0.1171875
        },
        {
          "name": "D2",
          "midi": 38,
          "time": 251.625,
          "velocity": 1,
          "duration": 0.1171875
        },
        {
          "name": "F#2",
          "midi": 42,
          "time": 251.625,
          "velocity": 1,
          "duration": 0.7421875
        },
        {
          "name": "D2",
          "midi": 38,
          "time": 251.75,
          "velocity": 1,
          "duration": 0.1171875
        },
        {
          "name": "D2",
          "midi": 38,
          "time": 251.875,
          "velocity": 1,
          "duration": 0.1171875
        },
        {
          "name": "D2",
          "midi": 38,
          "time": 252,
          "velocity": 1,
          "duration": 0.1171875
        },
        {
          "name": "D2",
          "midi": 38,
          "time": 252.125,
          "velocity": 1,
          "duration": 0.1171875
        },
        {
          "name": "D2",
          "midi": 38,
          "time": 252.25,
          "velocity": 1,
          "duration": 0.1171875
        },
        {
          "name": "C2",
          "midi": 36,
          "time": 252.375,
          "velocity": 1,
          "duration": 0.7421875
        },
        {
          "name": "C#3",
          "midi": 49,
          "time": 252.375,
          "velocity": 0.9133858267716536,
          "duration": 0.7421875
        },
        {
          "name": "D2",
          "midi": 38,
          "time": 253.125,
          "velocity": 1,
          "duration": 0.7421875
        },
        {
          "name": "F#2",
          "midi": 42,
          "time": 253.125,
          "velocity": 0.9133858267716536,
          "duration": 0.3671875
        },
        {
          "name": "F#2",
          "midi": 42,
          "time": 253.5,
          "velocity": 0.8661417322834646,
          "duration": 0.3671875
        },
        {
          "name": "C2",
          "midi": 36,
          "time": 253.875,
          "velocity": 0.9133858267716536,
          "duration": 0.3671875
        },
        {
          "name": "F#2",
          "midi": 42,
          "time": 253.875,
          "velocity": 1,
          "duration": 0.3671875
        },
        {
          "name": "C2",
          "midi": 36,
          "time": 254.25,
          "velocity": 1,
          "duration": 0.3671875
        },
        {
          "name": "F#2",
          "midi": 42,
          "time": 254.25,
          "velocity": 0.9133858267716536,
          "duration": 0.3671875
        },
        {
          "name": "D2",
          "midi": 38,
          "time": 254.625,
          "velocity": 1,
          "duration": 0.3671875
        },
        {
          "name": "F#2",
          "midi": 42,
          "time": 254.625,
          "velocity": 1,
          "duration": 0.3671875
        },
        {
          "name": "C2",
          "midi": 36,
          "time": 255,
          "velocity": 0.5275590551181102,
          "duration": 0.7421875
        },
        {
          "name": "F#2",
          "midi": 42,
          "time": 255,
          "velocity": 0.9606299212598425,
          "duration": 0.3671875
        },
        {
          "name": "F#2",
          "midi": 42,
          "time": 255.375,
          "velocity": 0.9133858267716536,
          "duration": 0.3671875
        },
        {
          "name": "C2",
          "midi": 36,
          "time": 255.75,
          "velocity": 1,
          "duration": 0.3671875
        },
        {
          "name": "F#2",
          "midi": 42,
          "time": 255.75,
          "velocity": 0.9606299212598425,
          "duration": 0.3671875
        },
        {
          "name": "D2",
          "midi": 38,
          "time": 256.125,
          "velocity": 1,
          "duration": 0.7421875
        },
        {
          "name": "F#2",
          "midi": 42,
          "time": 256.125,
          "velocity": 1,
          "duration": 0.3671875
        },
        {
          "name": "F#2",
          "midi": 42,
          "time": 256.5,
          "velocity": 1,
          "duration": 0.3671875
        },
        {
          "name": "C2",
          "midi": 36,
          "time": 256.875,
          "velocity": 0.6771653543307087,
          "duration": 0.3671875
        },
        {
          "name": "F#2",
          "midi": 42,
          "time": 256.875,
          "velocity": 1,
          "duration": 0.3671875
        },
        {
          "name": "C2",
          "midi": 36,
          "time": 257.25,
          "velocity": 1,
          "duration": 0.3671875
        },
        {
          "name": "F#2",
          "midi": 42,
          "time": 257.25,
          "velocity": 0.8661417322834646,
          "duration": 0.3671875
        },
        {
          "name": "D2",
          "midi": 38,
          "time": 257.625,
          "velocity": 1,
          "duration": 0.7421875
        },
        {
          "name": "F#2",
          "midi": 42,
          "time": 257.625,
          "velocity": 0.9133858267716536,
          "duration": 0.3671875
        },
        {
          "name": "F#2",
          "midi": 42,
          "time": 258,
          "velocity": 0.9606299212598425,
          "duration": 0.3671875
        },
        {
          "name": "C2",
          "midi": 36,
          "time": 258.375,
          "velocity": 1,
          "duration": 0.7421875
        },
        {
          "name": "C#3",
          "midi": 49,
          "time": 258.375,
          "velocity": 1,
          "duration": 0.3671875
        },
        {
          "name": "F#2",
          "midi": 42,
          "time": 258.75,
          "velocity": 0.8346456692913385,
          "duration": 0.3671875
        },
        {
          "name": "D2",
          "midi": 38,
          "time": 259.125,
          "velocity": 1,
          "duration": 0.7421875
        },
        {
          "name": "F#2",
          "midi": 42,
          "time": 259.125,
          "velocity": 0.8346456692913385,
          "duration": 0.3671875
        },
        {
          "name": "F#2",
          "midi": 42,
          "time": 259.5,
          "velocity": 0.9606299212598425,
          "duration": 0.3671875
        },
        {
          "name": "C2",
          "midi": 36,
          "time": 259.875,
          "velocity": 1,
          "duration": 0.3671875
        },
        {
          "name": "F#2",
          "midi": 42,
          "time": 259.875,
          "velocity": 0.9133858267716536,
          "duration": 0.3671875
        },
        {
          "name": "C2",
          "midi": 36,
          "time": 260.25,
          "velocity": 1,
          "duration": 0.3671875
        },
        {
          "name": "F#2",
          "midi": 42,
          "time": 260.25,
          "velocity": 0.9133858267716536,
          "duration": 0.3671875
        },
        {
          "name": "D2",
          "midi": 38,
          "time": 260.625,
          "velocity": 1,
          "duration": 0.3671875
        },
        {
          "name": "F#2",
          "midi": 42,
          "time": 260.625,
          "velocity": 0.9133858267716536,
          "duration": 0.3671875
        },
        {
          "name": "D2",
          "midi": 38,
          "time": 261,
          "velocity": 1,
          "duration": 0.3671875
        },
        {
          "name": "F#2",
          "midi": 42,
          "time": 261,
          "velocity": 1,
          "duration": 0.3671875
        },
        {
          "name": "C2",
          "midi": 36,
          "time": 261.375,
          "velocity": 1,
          "duration": 0.3671875
        },
        {
          "name": "F#2",
          "midi": 42,
          "time": 261.375,
          "velocity": 1,
          "duration": 0.7421875
        },
        {
          "name": "D2",
          "midi": 38,
          "time": 261.75,
          "velocity": 1,
          "duration": 0.1796875
        },
        {
          "name": "D2",
          "midi": 38,
          "time": 261.9375,
          "velocity": 1,
          "duration": 0.3671875
        },
        {
          "name": "F#2",
          "midi": 42,
          "time": 262.125,
          "velocity": 1,
          "duration": 0.7421875
        },
        {
          "name": "D2",
          "midi": 38,
          "time": 262.3125,
          "velocity": 1,
          "duration": 0.1796875
        },
        {
          "name": "D2",
          "midi": 38,
          "time": 262.5,
          "velocity": 1,
          "duration": 0.3671875
        },
        {
          "name": "D2",
          "midi": 38,
          "time": 262.875,
          "velocity": 1,
          "duration": 0.5546875
        },
        {
          "name": "F#2",
          "midi": 42,
          "time": 262.875,
          "velocity": 1,
          "duration": 0.7421875
        },
        {
          "name": "D2",
          "midi": 38,
          "time": 263.4375,
          "velocity": 1,
          "duration": 0.1796875
        },
        {
          "name": "D2",
          "midi": 38,
          "time": 263.625,
          "velocity": 1,
          "duration": 0.7421875
        },
        {
          "name": "F#2",
          "midi": 42,
          "time": 263.625,
          "velocity": 1,
          "duration": 0.7421875
        },
        {
          "name": "C2",
          "midi": 36,
          "time": 264.375,
          "velocity": 0.9606299212598425,
          "duration": 0.1796875
        },
        {
          "name": "C#3",
          "midi": 49,
          "time": 264.375,
          "velocity": 0.9133858267716536,
          "duration": 0.3671875
        },
        {
          "name": "C2",
          "midi": 36,
          "time": 264.5625,
          "velocity": 1,
          "duration": 0.5546875
        },
        {
          "name": "F#2",
          "midi": 42,
          "time": 264.75,
          "velocity": 0.8188976377952756,
          "duration": 0.3671875
        },
        {
          "name": "D2",
          "midi": 38,
          "time": 265.125,
          "velocity": 1,
          "duration": 0.7421875
        },
        {
          "name": "F#2",
          "midi": 42,
          "time": 265.125,
          "velocity": 0.8503937007874016,
          "duration": 0.3671875
        },
        {
          "name": "F#2",
          "midi": 42,
          "time": 265.5,
          "velocity": 0.8661417322834646,
          "duration": 0.3671875
        },
        {
          "name": "C2",
          "midi": 36,
          "time": 265.875,
          "velocity": 0.8661417322834646,
          "duration": 0.1796875
        },
        {
          "name": "F#2",
          "midi": 42,
          "time": 265.875,
          "velocity": 0.9133858267716536,
          "duration": 0.3671875
        },
        {
          "name": "C2",
          "midi": 36,
          "time": 266.0625,
          "velocity": 0.8346456692913385,
          "duration": 0.5546875
        },
        {
          "name": "F#2",
          "midi": 42,
          "time": 266.25,
          "velocity": 0.7874015748031497,
          "duration": 0.3671875
        },
        {
          "name": "D2",
          "midi": 38,
          "time": 266.625,
          "velocity": 1,
          "duration": 0.7421875
        },
        {
          "name": "F#2",
          "midi": 42,
          "time": 266.625,
          "velocity": 0.8503937007874016,
          "duration": 0.3671875
        },
        {
          "name": "F#2",
          "midi": 42,
          "time": 267,
          "velocity": 0.9133858267716536,
          "duration": 0.3671875
        },
        {
          "name": "C2",
          "midi": 36,
          "time": 267.375,
          "velocity": 0.8661417322834646,
          "duration": 0.1796875
        },
        {
          "name": "F#2",
          "midi": 42,
          "time": 267.375,
          "velocity": 0.9133858267716536,
          "duration": 0.3671875
        },
        {
          "name": "C2",
          "midi": 36,
          "time": 267.5625,
          "velocity": 0.8346456692913385,
          "duration": 0.5546875
        },
        {
          "name": "F#2",
          "midi": 42,
          "time": 267.75,
          "velocity": 0.7874015748031497,
          "duration": 0.3671875
        },
        {
          "name": "D2",
          "midi": 38,
          "time": 268.125,
          "velocity": 1,
          "duration": 0.7421875
        },
        {
          "name": "F#2",
          "midi": 42,
          "time": 268.125,
          "velocity": 0.8503937007874016,
          "duration": 0.3671875
        },
        {
          "name": "F#2",
          "midi": 42,
          "time": 268.5,
          "velocity": 0.9133858267716536,
          "duration": 0.3671875
        },
        {
          "name": "C2",
          "midi": 36,
          "time": 268.875,
          "velocity": 0.8661417322834646,
          "duration": 0.1796875
        },
        {
          "name": "F#2",
          "midi": 42,
          "time": 268.875,
          "velocity": 0.9133858267716536,
          "duration": 0.3671875
        },
        {
          "name": "C2",
          "midi": 36,
          "time": 269.0625,
          "velocity": 0.8346456692913385,
          "duration": 0.5546875
        },
        {
          "name": "F#2",
          "midi": 42,
          "time": 269.25,
          "velocity": 0.7874015748031497,
          "duration": 0.3671875
        },
        {
          "name": "D2",
          "midi": 38,
          "time": 269.625,
          "velocity": 1,
          "duration": 0.7421875
        },
        {
          "name": "F#2",
          "midi": 42,
          "time": 269.625,
          "velocity": 0.8503937007874016,
          "duration": 0.3671875
        },
        {
          "name": "F#2",
          "midi": 42,
          "time": 270,
          "velocity": 0.9133858267716536,
          "duration": 0.3671875
        },
        {
          "name": "C2",
          "midi": 36,
          "time": 270.375,
          "velocity": 0.8661417322834646,
          "duration": 0.1796875
        },
        {
          "name": "F#2",
          "midi": 42,
          "time": 270.375,
          "velocity": 0.9133858267716536,
          "duration": 0.3671875
        },
        {
          "name": "C2",
          "midi": 36,
          "time": 270.5625,
          "velocity": 0.8346456692913385,
          "duration": 0.5546875
        },
        {
          "name": "F#2",
          "midi": 42,
          "time": 270.75,
          "velocity": 0.7874015748031497,
          "duration": 0.3671875
        },
        {
          "name": "D2",
          "midi": 38,
          "time": 271.125,
          "velocity": 1,
          "duration": 0.7421875
        },
        {
          "name": "F#2",
          "midi": 42,
          "time": 271.125,
          "velocity": 0.8503937007874016,
          "duration": 0.3671875
        },
        {
          "name": "F#2",
          "midi": 42,
          "time": 271.5,
          "velocity": 0.9133858267716536,
          "duration": 0.3671875
        },
        {
          "name": "C2",
          "midi": 36,
          "time": 271.875,
          "velocity": 0.8661417322834646,
          "duration": 0.1796875
        },
        {
          "name": "F#2",
          "midi": 42,
          "time": 271.875,
          "velocity": 0.9133858267716536,
          "duration": 0.3671875
        },
        {
          "name": "C2",
          "midi": 36,
          "time": 272.0625,
          "velocity": 0.8346456692913385,
          "duration": 0.5546875
        },
        {
          "name": "F#2",
          "midi": 42,
          "time": 272.25,
          "velocity": 0.7874015748031497,
          "duration": 0.3671875
        },
        {
          "name": "D2",
          "midi": 38,
          "time": 272.625,
          "velocity": 1,
          "duration": 0.7421875
        },
        {
          "name": "F#2",
          "midi": 42,
          "time": 272.625,
          "velocity": 0.8503937007874016,
          "duration": 0.3671875
        },
        {
          "name": "F#2",
          "midi": 42,
          "time": 273,
          "velocity": 0.9133858267716536,
          "duration": 0.3671875
        },
        {
          "name": "C2",
          "midi": 36,
          "time": 273.375,
          "velocity": 0.8661417322834646,
          "duration": 0.1796875
        },
        {
          "name": "F#2",
          "midi": 42,
          "time": 273.375,
          "velocity": 0.9133858267716536,
          "duration": 0.3671875
        },
        {
          "name": "C2",
          "midi": 36,
          "time": 273.5625,
          "velocity": 0.8346456692913385,
          "duration": 0.5546875
        },
        {
          "name": "F#2",
          "midi": 42,
          "time": 273.75,
          "velocity": 0.7874015748031497,
          "duration": 0.3671875
        },
        {
          "name": "D2",
          "midi": 38,
          "time": 274.125,
          "velocity": 1,
          "duration": 0.7421875
        },
        {
          "name": "F#2",
          "midi": 42,
          "time": 274.125,
          "velocity": 0.8503937007874016,
          "duration": 0.3671875
        },
        {
          "name": "F#2",
          "midi": 42,
          "time": 274.5,
          "velocity": 0.9133858267716536,
          "duration": 0.3671875
        },
        {
          "name": "C2",
          "midi": 36,
          "time": 274.875,
          "velocity": 0.8661417322834646,
          "duration": 0.1796875
        },
        {
          "name": "F#2",
          "midi": 42,
          "time": 274.875,
          "velocity": 0.9133858267716536,
          "duration": 0.3671875
        },
        {
          "name": "C2",
          "midi": 36,
          "time": 275.0625,
          "velocity": 0.8346456692913385,
          "duration": 0.5546875
        },
        {
          "name": "F#2",
          "midi": 42,
          "time": 275.25,
          "velocity": 0.7874015748031497,
          "duration": 0.3671875
        },
        {
          "name": "D2",
          "midi": 38,
          "time": 275.625,
          "velocity": 1,
          "duration": 0.7421875
        },
        {
          "name": "F#2",
          "midi": 42,
          "time": 275.625,
          "velocity": 0.8503937007874016,
          "duration": 0.3671875
        },
        {
          "name": "F#2",
          "midi": 42,
          "time": 276,
          "velocity": 0.9133858267716536,
          "duration": 0.3671875
        },
        {
          "name": "C2",
          "midi": 36,
          "time": 276.375,
          "velocity": 0.8661417322834646,
          "duration": 0.1796875
        },
        {
          "name": "F#2",
          "midi": 42,
          "time": 276.375,
          "velocity": 0.9133858267716536,
          "duration": 0.3671875
        },
        {
          "name": "C2",
          "midi": 36,
          "time": 276.5625,
          "velocity": 0.8346456692913385,
          "duration": 0.5546875
        },
        {
          "name": "F#2",
          "midi": 42,
          "time": 276.75,
          "velocity": 0.7874015748031497,
          "duration": 0.3671875
        },
        {
          "name": "D2",
          "midi": 38,
          "time": 277.125,
          "velocity": 1,
          "duration": 0.7421875
        },
        {
          "name": "F#2",
          "midi": 42,
          "time": 277.125,
          "velocity": 0.8503937007874016,
          "duration": 0.3671875
        },
        {
          "name": "F#2",
          "midi": 42,
          "time": 277.5,
          "velocity": 0.9133858267716536,
          "duration": 0.3671875
        },
        {
          "name": "C2",
          "midi": 36,
          "time": 277.875,
          "velocity": 0.8661417322834646,
          "duration": 0.1796875
        },
        {
          "name": "F#2",
          "midi": 42,
          "time": 277.875,
          "velocity": 0.9133858267716536,
          "duration": 0.3671875
        },
        {
          "name": "C2",
          "midi": 36,
          "time": 278.0625,
          "velocity": 0.8346456692913385,
          "duration": 0.5546875
        },
        {
          "name": "F#2",
          "midi": 42,
          "time": 278.25,
          "velocity": 0.7874015748031497,
          "duration": 0.3671875
        },
        {
          "name": "D2",
          "midi": 38,
          "time": 278.625,
          "velocity": 1,
          "duration": 0.7421875
        },
        {
          "name": "F#2",
          "midi": 42,
          "time": 278.625,
          "velocity": 0.8503937007874016,
          "duration": 0.3671875
        },
        {
          "name": "F#2",
          "midi": 42,
          "time": 279,
          "velocity": 0.9133858267716536,
          "duration": 0.3671875
        },
        {
          "name": "C2",
          "midi": 36,
          "time": 279.375,
          "velocity": 0.8661417322834646,
          "duration": 0.1796875
        },
        {
          "name": "F#2",
          "midi": 42,
          "time": 279.375,
          "velocity": 0.9133858267716536,
          "duration": 0.3671875
        },
        {
          "name": "C2",
          "midi": 36,
          "time": 279.5625,
          "velocity": 0.8346456692913385,
          "duration": 0.5546875
        },
        {
          "name": "F#2",
          "midi": 42,
          "time": 279.75,
          "velocity": 0.7874015748031497,
          "duration": 0.3671875
        },
        {
          "name": "D2",
          "midi": 38,
          "time": 280.125,
          "velocity": 1,
          "duration": 0.7421875
        },
        {
          "name": "F#2",
          "midi": 42,
          "time": 280.125,
          "velocity": 0.8503937007874016,
          "duration": 0.3671875
        },
        {
          "name": "F#2",
          "midi": 42,
          "time": 280.5,
          "velocity": 0.9133858267716536,
          "duration": 0.3671875
        },
        {
          "name": "C2",
          "midi": 36,
          "time": 280.875,
          "velocity": 0.8661417322834646,
          "duration": 0.1796875
        },
        {
          "name": "F#2",
          "midi": 42,
          "time": 280.875,
          "velocity": 0.9133858267716536,
          "duration": 0.3671875
        },
        {
          "name": "C2",
          "midi": 36,
          "time": 281.0625,
          "velocity": 0.8346456692913385,
          "duration": 0.5546875
        },
        {
          "name": "F#2",
          "midi": 42,
          "time": 281.25,
          "velocity": 0.7874015748031497,
          "duration": 0.3671875
        },
        {
          "name": "D2",
          "midi": 38,
          "time": 281.625,
          "velocity": 1,
          "duration": 0.7421875
        },
        {
          "name": "F#2",
          "midi": 42,
          "time": 281.625,
          "velocity": 0.8503937007874016,
          "duration": 0.3671875
        },
        {
          "name": "F#2",
          "midi": 42,
          "time": 282,
          "velocity": 0.9133858267716536,
          "duration": 0.3671875
        },
        {
          "name": "C2",
          "midi": 36,
          "time": 282.375,
          "velocity": 0.8661417322834646,
          "duration": 0.1796875
        },
        {
          "name": "F#2",
          "midi": 42,
          "time": 282.375,
          "velocity": 0.9133858267716536,
          "duration": 0.3671875
        },
        {
          "name": "C2",
          "midi": 36,
          "time": 282.5625,
          "velocity": 0.8346456692913385,
          "duration": 0.5546875
        },
        {
          "name": "F#2",
          "midi": 42,
          "time": 282.75,
          "velocity": 0.7874015748031497,
          "duration": 0.3671875
        },
        {
          "name": "D2",
          "midi": 38,
          "time": 283.125,
          "velocity": 1,
          "duration": 0.7421875
        },
        {
          "name": "F#2",
          "midi": 42,
          "time": 283.125,
          "velocity": 0.8503937007874016,
          "duration": 0.3671875
        },
        {
          "name": "F#2",
          "midi": 42,
          "time": 283.5,
          "velocity": 0.9133858267716536,
          "duration": 0.3671875
        },
        {
          "name": "C2",
          "midi": 36,
          "time": 283.875,
          "velocity": 0.8661417322834646,
          "duration": 0.1796875
        },
        {
          "name": "F#2",
          "midi": 42,
          "time": 283.875,
          "velocity": 0.9133858267716536,
          "duration": 0.3671875
        },
        {
          "name": "C2",
          "midi": 36,
          "time": 284.0625,
          "velocity": 0.8346456692913385,
          "duration": 0.5546875
        },
        {
          "name": "F#2",
          "midi": 42,
          "time": 284.25,
          "velocity": 0.7874015748031497,
          "duration": 0.3671875
        },
        {
          "name": "D2",
          "midi": 38,
          "time": 284.625,
          "velocity": 1,
          "duration": 0.7421875
        },
        {
          "name": "F#2",
          "midi": 42,
          "time": 284.625,
          "velocity": 0.8503937007874016,
          "duration": 0.3671875
        },
        {
          "name": "F#2",
          "midi": 42,
          "time": 285,
          "velocity": 0.9133858267716536,
          "duration": 0.3671875
        },
        {
          "name": "C2",
          "midi": 36,
          "time": 285.375,
          "velocity": 0.8661417322834646,
          "duration": 0.1796875
        },
        {
          "name": "F#2",
          "midi": 42,
          "time": 285.375,
          "velocity": 0.9133858267716536,
          "duration": 0.3671875
        },
        {
          "name": "C2",
          "midi": 36,
          "time": 285.5625,
          "velocity": 0.8346456692913385,
          "duration": 0.5546875
        },
        {
          "name": "F#2",
          "midi": 42,
          "time": 285.75,
          "velocity": 0.7874015748031497,
          "duration": 0.3671875
        },
        {
          "name": "D2",
          "midi": 38,
          "time": 286.125,
          "velocity": 1,
          "duration": 0.7421875
        },
        {
          "name": "F#2",
          "midi": 42,
          "time": 286.125,
          "velocity": 0.8503937007874016,
          "duration": 0.3671875
        },
        {
          "name": "F#2",
          "midi": 42,
          "time": 286.5,
          "velocity": 0.9133858267716536,
          "duration": 0.3671875
        },
        {
          "name": "C2",
          "midi": 36,
          "time": 286.875,
          "velocity": 0.8661417322834646,
          "duration": 0.1796875
        },
        {
          "name": "F#2",
          "midi": 42,
          "time": 286.875,
          "velocity": 0.9133858267716536,
          "duration": 0.3671875
        },
        {
          "name": "C2",
          "midi": 36,
          "time": 287.0625,
          "velocity": 0.8346456692913385,
          "duration": 0.5546875
        },
        {
          "name": "F#2",
          "midi": 42,
          "time": 287.25,
          "velocity": 0.7874015748031497,
          "duration": 0.3671875
        },
        {
          "name": "D2",
          "midi": 38,
          "time": 287.625,
          "velocity": 1,
          "duration": 0.7421875
        },
        {
          "name": "F#2",
          "midi": 42,
          "time": 287.625,
          "velocity": 0.8503937007874016,
          "duration": 0.3671875
        },
        {
          "name": "F#2",
          "midi": 42,
          "time": 288,
          "velocity": 0.9133858267716536,
          "duration": 0.3671875
        },
        {
          "name": "C2",
          "midi": 36,
          "time": 288.375,
          "velocity": 0.8661417322834646,
          "duration": 0.1796875
        },
        {
          "name": "F#2",
          "midi": 42,
          "time": 288.375,
          "velocity": 0.9133858267716536,
          "duration": 0.3671875
        },
        {
          "name": "C2",
          "midi": 36,
          "time": 288.5625,
          "velocity": 0.8346456692913385,
          "duration": 0.5546875
        },
        {
          "name": "F#2",
          "midi": 42,
          "time": 288.75,
          "velocity": 0.7874015748031497,
          "duration": 0.3671875
        },
        {
          "name": "D2",
          "midi": 38,
          "time": 289.125,
          "velocity": 1,
          "duration": 0.7421875
        },
        {
          "name": "F#2",
          "midi": 42,
          "time": 289.125,
          "velocity": 0.8503937007874016,
          "duration": 0.3671875
        },
        {
          "name": "F#2",
          "midi": 42,
          "time": 289.5,
          "velocity": 0.9133858267716536,
          "duration": 0.3671875
        },
        {
          "name": "C2",
          "midi": 36,
          "time": 289.875,
          "velocity": 0.8661417322834646,
          "duration": 0.1796875
        },
        {
          "name": "F#2",
          "midi": 42,
          "time": 289.875,
          "velocity": 0.9133858267716536,
          "duration": 0.3671875
        },
        {
          "name": "C2",
          "midi": 36,
          "time": 290.0625,
          "velocity": 0.8346456692913385,
          "duration": 0.5546875
        },
        {
          "name": "F#2",
          "midi": 42,
          "time": 290.25,
          "velocity": 0.7874015748031497,
          "duration": 0.3671875
        },
        {
          "name": "D2",
          "midi": 38,
          "time": 290.625,
          "velocity": 1,
          "duration": 0.7421875
        },
        {
          "name": "F#2",
          "midi": 42,
          "time": 290.625,
          "velocity": 0.8503937007874016,
          "duration": 0.3671875
        },
        {
          "name": "F#2",
          "midi": 42,
          "time": 291,
          "velocity": 0.9133858267716536,
          "duration": 0.3671875
        },
        {
          "name": "C2",
          "midi": 36,
          "time": 291.375,
          "velocity": 0.8661417322834646,
          "duration": 0.1796875
        },
        {
          "name": "F#2",
          "midi": 42,
          "time": 291.375,
          "velocity": 0.9133858267716536,
          "duration": 0.3671875
        },
        {
          "name": "C2",
          "midi": 36,
          "time": 291.5625,
          "velocity": 0.8346456692913385,
          "duration": 0.5546875
        },
        {
          "name": "F#2",
          "midi": 42,
          "time": 291.75,
          "velocity": 0.7874015748031497,
          "duration": 0.3671875
        },
        {
          "name": "D2",
          "midi": 38,
          "time": 292.125,
          "velocity": 1,
          "duration": 0.7421875
        },
        {
          "name": "F#2",
          "midi": 42,
          "time": 292.125,
          "velocity": 0.8503937007874016,
          "duration": 0.3671875
        },
        {
          "name": "F#2",
          "midi": 42,
          "time": 292.5,
          "velocity": 0.9133858267716536,
          "duration": 0.3671875
        },
        {
          "name": "C2",
          "midi": 36,
          "time": 292.875,
          "velocity": 0.8661417322834646,
          "duration": 0.1796875
        },
        {
          "name": "F#2",
          "midi": 42,
          "time": 292.875,
          "velocity": 0.9133858267716536,
          "duration": 0.3671875
        },
        {
          "name": "C2",
          "midi": 36,
          "time": 293.0625,
          "velocity": 0.8346456692913385,
          "duration": 0.5546875
        },
        {
          "name": "F#2",
          "midi": 42,
          "time": 293.25,
          "velocity": 0.7874015748031497,
          "duration": 0.3671875
        },
        {
          "name": "D2",
          "midi": 38,
          "time": 293.625,
          "velocity": 1,
          "duration": 0.7421875
        },
        {
          "name": "F#2",
          "midi": 42,
          "time": 293.625,
          "velocity": 0.8503937007874016,
          "duration": 0.3671875
        },
        {
          "name": "F#2",
          "midi": 42,
          "time": 294,
          "velocity": 0.9133858267716536,
          "duration": 0.3671875
        },
        {
          "name": "C2",
          "midi": 36,
          "time": 294.375,
          "velocity": 0.8661417322834646,
          "duration": 0.1796875
        },
        {
          "name": "F#2",
          "midi": 42,
          "time": 294.375,
          "velocity": 0.9133858267716536,
          "duration": 0.3671875
        },
        {
          "name": "C2",
          "midi": 36,
          "time": 294.5625,
          "velocity": 0.8346456692913385,
          "duration": 0.5546875
        },
        {
          "name": "F#2",
          "midi": 42,
          "time": 294.75,
          "velocity": 0.7874015748031497,
          "duration": 0.3671875
        },
        {
          "name": "D2",
          "midi": 38,
          "time": 295.125,
          "velocity": 1,
          "duration": 0.7421875
        },
        {
          "name": "F#2",
          "midi": 42,
          "time": 295.125,
          "velocity": 0.8503937007874016,
          "duration": 0.3671875
        },
        {
          "name": "F#2",
          "midi": 42,
          "time": 295.5,
          "velocity": 0.9133858267716536,
          "duration": 0.3671875
        },
        {
          "name": "C2",
          "midi": 36,
          "time": 295.875,
          "velocity": 0.8661417322834646,
          "duration": 0.1796875
        },
        {
          "name": "F#2",
          "midi": 42,
          "time": 295.875,
          "velocity": 0.9133858267716536,
          "duration": 0.3671875
        },
        {
          "name": "C2",
          "midi": 36,
          "time": 296.0625,
          "velocity": 0.8346456692913385,
          "duration": 0.5546875
        },
        {
          "name": "F#2",
          "midi": 42,
          "time": 296.25,
          "velocity": 0.7874015748031497,
          "duration": 0.3671875
        },
        {
          "name": "D2",
          "midi": 38,
          "time": 296.625,
          "velocity": 1,
          "duration": 0.7421875
        },
        {
          "name": "F#2",
          "midi": 42,
          "time": 296.625,
          "velocity": 0.8503937007874016,
          "duration": 0.3671875
        },
        {
          "name": "F#2",
          "midi": 42,
          "time": 297,
          "velocity": 0.9133858267716536,
          "duration": 0.3671875
        },
        {
          "name": "C2",
          "midi": 36,
          "time": 297.375,
          "velocity": 0.8661417322834646,
          "duration": 0.1796875
        },
        {
          "name": "F#2",
          "midi": 42,
          "time": 297.375,
          "velocity": 0.9133858267716536,
          "duration": 0.3671875
        },
        {
          "name": "C2",
          "midi": 36,
          "time": 297.5625,
          "velocity": 0.8346456692913385,
          "duration": 0.5546875
        },
        {
          "name": "F#2",
          "midi": 42,
          "time": 297.75,
          "velocity": 0.7874015748031497,
          "duration": 0.3671875
        },
        {
          "name": "D2",
          "midi": 38,
          "time": 298.125,
          "velocity": 1,
          "duration": 0.7421875
        },
        {
          "name": "F#2",
          "midi": 42,
          "time": 298.125,
          "velocity": 0.8503937007874016,
          "duration": 0.3671875
        },
        {
          "name": "F#2",
          "midi": 42,
          "time": 298.5,
          "velocity": 0.9133858267716536,
          "duration": 0.3671875
        },
        {
          "name": "C2",
          "midi": 36,
          "time": 298.875,
          "velocity": 0.8661417322834646,
          "duration": 0.1796875
        },
        {
          "name": "F#2",
          "midi": 42,
          "time": 298.875,
          "velocity": 0.9133858267716536,
          "duration": 0.3671875
        },
        {
          "name": "C2",
          "midi": 36,
          "time": 299.0625,
          "velocity": 0.8346456692913385,
          "duration": 0.5546875
        },
        {
          "name": "F#2",
          "midi": 42,
          "time": 299.25,
          "velocity": 0.7874015748031497,
          "duration": 0.3671875
        },
        {
          "name": "D2",
          "midi": 38,
          "time": 299.625,
          "velocity": 1,
          "duration": 0.7421875
        },
        {
          "name": "F#2",
          "midi": 42,
          "time": 299.625,
          "velocity": 0.8503937007874016,
          "duration": 0.3671875
        },
        {
          "name": "F#2",
          "midi": 42,
          "time": 300,
          "velocity": 0.9133858267716536,
          "duration": 0.3671875
        },
        {
          "name": "C2",
          "midi": 36,
          "time": 300.375,
          "velocity": 0.8661417322834646,
          "duration": 0.1796875
        },
        {
          "name": "C#3",
          "midi": 49,
          "time": 300.375,
          "velocity": 0.9133858267716536,
          "duration": 0.3671875
        },
        {
          "name": "C2",
          "midi": 36,
          "time": 300.5625,
          "velocity": 0.8346456692913385,
          "duration": 0.5546875
        },
        {
          "name": "F#2",
          "midi": 42,
          "time": 300.75,
          "velocity": 0.7874015748031497,
          "duration": 0.3671875
        },
        {
          "name": "D2",
          "midi": 38,
          "time": 301.125,
          "velocity": 1,
          "duration": 0.7421875
        },
        {
          "name": "F#2",
          "midi": 42,
          "time": 301.125,
          "velocity": 0.8503937007874016,
          "duration": 0.3671875
        },
        {
          "name": "F#2",
          "midi": 42,
          "time": 301.5,
          "velocity": 0.9133858267716536,
          "duration": 0.3671875
        },
        {
          "name": "C2",
          "midi": 36,
          "time": 301.875,
          "velocity": 0.8661417322834646,
          "duration": 0.1796875
        },
        {
          "name": "F#2",
          "midi": 42,
          "time": 301.875,
          "velocity": 0.9133858267716536,
          "duration": 0.3671875
        },
        {
          "name": "C2",
          "midi": 36,
          "time": 302.0625,
          "velocity": 0.8346456692913385,
          "duration": 0.5546875
        },
        {
          "name": "F#2",
          "midi": 42,
          "time": 302.25,
          "velocity": 0.7874015748031497,
          "duration": 0.3671875
        },
        {
          "name": "D2",
          "midi": 38,
          "time": 302.625,
          "velocity": 1,
          "duration": 0.7421875
        },
        {
          "name": "F#2",
          "midi": 42,
          "time": 302.625,
          "velocity": 0.8503937007874016,
          "duration": 0.3671875
        },
        {
          "name": "F#2",
          "midi": 42,
          "time": 303,
          "velocity": 0.9133858267716536,
          "duration": 0.3671875
        },
        {
          "name": "C2",
          "midi": 36,
          "time": 303.375,
          "velocity": 0.8661417322834646,
          "duration": 0.1796875
        },
        {
          "name": "F#2",
          "midi": 42,
          "time": 303.375,
          "velocity": 0.9133858267716536,
          "duration": 0.3671875
        },
        {
          "name": "C2",
          "midi": 36,
          "time": 303.5625,
          "velocity": 0.8346456692913385,
          "duration": 0.5546875
        },
        {
          "name": "F#2",
          "midi": 42,
          "time": 303.75,
          "velocity": 0.7874015748031497,
          "duration": 0.3671875
        },
        {
          "name": "D2",
          "midi": 38,
          "time": 304.125,
          "velocity": 1,
          "duration": 0.7421875
        },
        {
          "name": "F#2",
          "midi": 42,
          "time": 304.125,
          "velocity": 0.8503937007874016,
          "duration": 0.3671875
        },
        {
          "name": "F#2",
          "midi": 42,
          "time": 304.5,
          "velocity": 0.9133858267716536,
          "duration": 0.3671875
        },
        {
          "name": "C2",
          "midi": 36,
          "time": 304.875,
          "velocity": 0.8661417322834646,
          "duration": 0.1796875
        },
        {
          "name": "F#2",
          "midi": 42,
          "time": 304.875,
          "velocity": 0.9133858267716536,
          "duration": 0.3671875
        },
        {
          "name": "C2",
          "midi": 36,
          "time": 305.0625,
          "velocity": 0.8346456692913385,
          "duration": 0.5546875
        },
        {
          "name": "F#2",
          "midi": 42,
          "time": 305.25,
          "velocity": 0.7874015748031497,
          "duration": 0.3671875
        },
        {
          "name": "D2",
          "midi": 38,
          "time": 305.625,
          "velocity": 1,
          "duration": 0.7421875
        },
        {
          "name": "F#2",
          "midi": 42,
          "time": 305.625,
          "velocity": 0.8503937007874016,
          "duration": 0.3671875
        },
        {
          "name": "F#2",
          "midi": 42,
          "time": 306,
          "velocity": 0.9133858267716536,
          "duration": 0.3671875
        },
        {
          "name": "C2",
          "midi": 36,
          "time": 306.375,
          "velocity": 0.8661417322834646,
          "duration": 0.1796875
        },
        {
          "name": "F#2",
          "midi": 42,
          "time": 306.375,
          "velocity": 0.9133858267716536,
          "duration": 0.3671875
        },
        {
          "name": "C2",
          "midi": 36,
          "time": 306.5625,
          "velocity": 0.8346456692913385,
          "duration": 0.5546875
        },
        {
          "name": "F#2",
          "midi": 42,
          "time": 306.75,
          "velocity": 0.7874015748031497,
          "duration": 0.3671875
        },
        {
          "name": "D2",
          "midi": 38,
          "time": 307.125,
          "velocity": 1,
          "duration": 0.7421875
        },
        {
          "name": "F#2",
          "midi": 42,
          "time": 307.125,
          "velocity": 0.8503937007874016,
          "duration": 0.3671875
        },
        {
          "name": "F#2",
          "midi": 42,
          "time": 307.5,
          "velocity": 0.9133858267716536,
          "duration": 0.3671875
        },
        {
          "name": "C2",
          "midi": 36,
          "time": 307.875,
          "velocity": 0.8661417322834646,
          "duration": 0.1796875
        },
        {
          "name": "F#2",
          "midi": 42,
          "time": 307.875,
          "velocity": 0.9133858267716536,
          "duration": 0.3671875
        },
        {
          "name": "C2",
          "midi": 36,
          "time": 308.0625,
          "velocity": 0.8346456692913385,
          "duration": 0.5546875
        },
        {
          "name": "F#2",
          "midi": 42,
          "time": 308.25,
          "velocity": 0.7874015748031497,
          "duration": 0.3671875
        },
        {
          "name": "D2",
          "midi": 38,
          "time": 308.625,
          "velocity": 1,
          "duration": 0.7421875
        },
        {
          "name": "F#2",
          "midi": 42,
          "time": 308.625,
          "velocity": 0.8503937007874016,
          "duration": 0.3671875
        },
        {
          "name": "F#2",
          "midi": 42,
          "time": 309,
          "velocity": 0.9133858267716536,
          "duration": 0.3671875
        },
        {
          "name": "C2",
          "midi": 36,
          "time": 309.375,
          "velocity": 0.8661417322834646,
          "duration": 0.1796875
        },
        {
          "name": "F#2",
          "midi": 42,
          "time": 309.375,
          "velocity": 0.9133858267716536,
          "duration": 0.3671875
        },
        {
          "name": "C2",
          "midi": 36,
          "time": 309.5625,
          "velocity": 0.8346456692913385,
          "duration": 0.5546875
        },
        {
          "name": "F#2",
          "midi": 42,
          "time": 309.75,
          "velocity": 0.7874015748031497,
          "duration": 0.3671875
        },
        {
          "name": "D2",
          "midi": 38,
          "time": 310.125,
          "velocity": 1,
          "duration": 0.7421875
        },
        {
          "name": "F#2",
          "midi": 42,
          "time": 310.125,
          "velocity": 0.8503937007874016,
          "duration": 0.3671875
        },
        {
          "name": "F#2",
          "midi": 42,
          "time": 310.5,
          "velocity": 0.9133858267716536,
          "duration": 0.3671875
        },
        {
          "name": "C2",
          "midi": 36,
          "time": 310.875,
          "velocity": 0.8661417322834646,
          "duration": 0.1796875
        },
        {
          "name": "F#2",
          "midi": 42,
          "time": 310.875,
          "velocity": 0.9133858267716536,
          "duration": 0.3671875
        },
        {
          "name": "C2",
          "midi": 36,
          "time": 311.0625,
          "velocity": 0.8346456692913385,
          "duration": 0.5546875
        },
        {
          "name": "F#2",
          "midi": 42,
          "time": 311.25,
          "velocity": 0.7874015748031497,
          "duration": 0.3671875
        },
        {
          "name": "D2",
          "midi": 38,
          "time": 311.625,
          "velocity": 1,
          "duration": 0.7421875
        },
        {
          "name": "F#2",
          "midi": 42,
          "time": 311.625,
          "velocity": 0.8503937007874016,
          "duration": 0.3671875
        },
        {
          "name": "F#2",
          "midi": 42,
          "time": 312,
          "velocity": 0.9133858267716536,
          "duration": 0.3671875
        },
        {
          "name": "C2",
          "midi": 36,
          "time": 312.375,
          "velocity": 0.8661417322834646,
          "duration": 0.1796875
        },
        {
          "name": "F#2",
          "midi": 42,
          "time": 312.375,
          "velocity": 0.9133858267716536,
          "duration": 0.3671875
        },
        {
          "name": "C2",
          "midi": 36,
          "time": 312.5625,
          "velocity": 0.8346456692913385,
          "duration": 0.5546875
        },
        {
          "name": "F#2",
          "midi": 42,
          "time": 312.75,
          "velocity": 0.7874015748031497,
          "duration": 0.3671875
        },
        {
          "name": "D2",
          "midi": 38,
          "time": 313.125,
          "velocity": 1,
          "duration": 0.7421875
        },
        {
          "name": "F#2",
          "midi": 42,
          "time": 313.125,
          "velocity": 0.8503937007874016,
          "duration": 0.3671875
        },
        {
          "name": "F#2",
          "midi": 42,
          "time": 313.5,
          "velocity": 0.9133858267716536,
          "duration": 0.3671875
        },
        {
          "name": "C2",
          "midi": 36,
          "time": 313.875,
          "velocity": 0.8661417322834646,
          "duration": 0.1796875
        },
        {
          "name": "F#2",
          "midi": 42,
          "time": 313.875,
          "velocity": 0.9133858267716536,
          "duration": 0.3671875
        },
        {
          "name": "C2",
          "midi": 36,
          "time": 314.0625,
          "velocity": 0.8346456692913385,
          "duration": 0.5546875
        },
        {
          "name": "F#2",
          "midi": 42,
          "time": 314.25,
          "velocity": 0.7874015748031497,
          "duration": 0.3671875
        },
        {
          "name": "D2",
          "midi": 38,
          "time": 314.625,
          "velocity": 1,
          "duration": 0.7421875
        },
        {
          "name": "F#2",
          "midi": 42,
          "time": 314.625,
          "velocity": 0.8503937007874016,
          "duration": 0.3671875
        },
        {
          "name": "F#2",
          "midi": 42,
          "time": 315,
          "velocity": 0.9133858267716536,
          "duration": 0.3671875
        },
        {
          "name": "C2",
          "midi": 36,
          "time": 315.375,
          "velocity": 0.8661417322834646,
          "duration": 0.1796875
        },
        {
          "name": "F#2",
          "midi": 42,
          "time": 315.375,
          "velocity": 0.9133858267716536,
          "duration": 0.3671875
        },
        {
          "name": "C2",
          "midi": 36,
          "time": 315.5625,
          "velocity": 0.8346456692913385,
          "duration": 0.5546875
        },
        {
          "name": "F#2",
          "midi": 42,
          "time": 315.75,
          "velocity": 0.7874015748031497,
          "duration": 0.3671875
        },
        {
          "name": "D2",
          "midi": 38,
          "time": 316.125,
          "velocity": 1,
          "duration": 0.7421875
        },
        {
          "name": "F#2",
          "midi": 42,
          "time": 316.125,
          "velocity": 0.8503937007874016,
          "duration": 0.3671875
        },
        {
          "name": "F#2",
          "midi": 42,
          "time": 316.5,
          "velocity": 0.9133858267716536,
          "duration": 0.3671875
        },
        {
          "name": "C2",
          "midi": 36,
          "time": 316.875,
          "velocity": 0.8661417322834646,
          "duration": 0.1796875
        },
        {
          "name": "F#2",
          "midi": 42,
          "time": 316.875,
          "velocity": 0.9133858267716536,
          "duration": 0.3671875
        },
        {
          "name": "C2",
          "midi": 36,
          "time": 317.0625,
          "velocity": 0.8346456692913385,
          "duration": 0.5546875
        },
        {
          "name": "F#2",
          "midi": 42,
          "time": 317.25,
          "velocity": 0.7874015748031497,
          "duration": 0.3671875
        },
        {
          "name": "D2",
          "midi": 38,
          "time": 317.625,
          "velocity": 1,
          "duration": 0.7421875
        },
        {
          "name": "F#2",
          "midi": 42,
          "time": 317.625,
          "velocity": 0.8503937007874016,
          "duration": 0.3671875
        },
        {
          "name": "F#2",
          "midi": 42,
          "time": 318,
          "velocity": 0.9133858267716536,
          "duration": 0.3671875
        },
        {
          "name": "C2",
          "midi": 36,
          "time": 318.375,
          "velocity": 0.8661417322834646,
          "duration": 0.1796875
        },
        {
          "name": "F#2",
          "midi": 42,
          "time": 318.375,
          "velocity": 0.9133858267716536,
          "duration": 0.3671875
        },
        {
          "name": "C2",
          "midi": 36,
          "time": 318.5625,
          "velocity": 0.8346456692913385,
          "duration": 0.5546875
        },
        {
          "name": "F#2",
          "midi": 42,
          "time": 318.75,
          "velocity": 0.7874015748031497,
          "duration": 0.3671875
        },
        {
          "name": "D2",
          "midi": 38,
          "time": 319.125,
          "velocity": 1,
          "duration": 0.7421875
        },
        {
          "name": "F#2",
          "midi": 42,
          "time": 319.125,
          "velocity": 0.8503937007874016,
          "duration": 0.3671875
        },
        {
          "name": "F#2",
          "midi": 42,
          "time": 319.5,
          "velocity": 0.9133858267716536,
          "duration": 0.3671875
        },
        {
          "name": "C2",
          "midi": 36,
          "time": 319.875,
          "velocity": 0.8661417322834646,
          "duration": 0.1796875
        },
        {
          "name": "F#2",
          "midi": 42,
          "time": 319.875,
          "velocity": 0.9133858267716536,
          "duration": 0.3671875
        },
        {
          "name": "C2",
          "midi": 36,
          "time": 320.0625,
          "velocity": 0.8346456692913385,
          "duration": 0.5546875
        },
        {
          "name": "F#2",
          "midi": 42,
          "time": 320.25,
          "velocity": 0.7874015748031497,
          "duration": 0.3671875
        },
        {
          "name": "D2",
          "midi": 38,
          "time": 320.625,
          "velocity": 1,
          "duration": 0.7421875
        },
        {
          "name": "F#2",
          "midi": 42,
          "time": 320.625,
          "velocity": 0.8503937007874016,
          "duration": 0.3671875
        },
        {
          "name": "F#2",
          "midi": 42,
          "time": 321,
          "velocity": 0.9133858267716536,
          "duration": 0.3671875
        },
        {
          "name": "C2",
          "midi": 36,
          "time": 321.375,
          "velocity": 0.8661417322834646,
          "duration": 0.1796875
        },
        {
          "name": "F#2",
          "midi": 42,
          "time": 321.375,
          "velocity": 0.9133858267716536,
          "duration": 0.3671875
        },
        {
          "name": "C2",
          "midi": 36,
          "time": 321.5625,
          "velocity": 0.8346456692913385,
          "duration": 0.5546875
        },
        {
          "name": "F#2",
          "midi": 42,
          "time": 321.75,
          "velocity": 0.7874015748031497,
          "duration": 0.3671875
        },
        {
          "name": "D2",
          "midi": 38,
          "time": 322.125,
          "velocity": 1,
          "duration": 0.7421875
        },
        {
          "name": "F#2",
          "midi": 42,
          "time": 322.125,
          "velocity": 0.8503937007874016,
          "duration": 0.3671875
        },
        {
          "name": "F#2",
          "midi": 42,
          "time": 322.5,
          "velocity": 0.9133858267716536,
          "duration": 0.3671875
        },
        {
          "name": "C2",
          "midi": 36,
          "time": 322.875,
          "velocity": 0.8661417322834646,
          "duration": 0.1796875
        },
        {
          "name": "F#2",
          "midi": 42,
          "time": 322.875,
          "velocity": 0.9133858267716536,
          "duration": 0.3671875
        },
        {
          "name": "C2",
          "midi": 36,
          "time": 323.0625,
          "velocity": 0.8346456692913385,
          "duration": 0.5546875
        },
        {
          "name": "F#2",
          "midi": 42,
          "time": 323.25,
          "velocity": 0.7874015748031497,
          "duration": 0.3671875
        },
        {
          "name": "D2",
          "midi": 38,
          "time": 323.625,
          "velocity": 1,
          "duration": 0.7421875
        },
        {
          "name": "F#2",
          "midi": 42,
          "time": 323.625,
          "velocity": 0.8503937007874016,
          "duration": 0.3671875
        },
        {
          "name": "F#2",
          "midi": 42,
          "time": 324,
          "velocity": 0.9133858267716536,
          "duration": 0.3671875
        },
        {
          "name": "C2",
          "midi": 36,
          "time": 324.375,
          "velocity": 0.8661417322834646,
          "duration": 0.1796875
        },
        {
          "name": "F#2",
          "midi": 42,
          "time": 324.375,
          "velocity": 0.9133858267716536,
          "duration": 0.3671875
        },
        {
          "name": "C2",
          "midi": 36,
          "time": 324.5625,
          "velocity": 0.8346456692913385,
          "duration": 0.5546875
        },
        {
          "name": "F#2",
          "midi": 42,
          "time": 324.75,
          "velocity": 0.7874015748031497,
          "duration": 0.3671875
        },
        {
          "name": "D2",
          "midi": 38,
          "time": 325.125,
          "velocity": 1,
          "duration": 0.7421875
        },
        {
          "name": "F#2",
          "midi": 42,
          "time": 325.125,
          "velocity": 0.8503937007874016,
          "duration": 0.3671875
        },
        {
          "name": "F#2",
          "midi": 42,
          "time": 325.5,
          "velocity": 0.9133858267716536,
          "duration": 0.3671875
        },
        {
          "name": "C2",
          "midi": 36,
          "time": 325.875,
          "velocity": 0.8661417322834646,
          "duration": 0.1796875
        },
        {
          "name": "F#2",
          "midi": 42,
          "time": 325.875,
          "velocity": 0.9133858267716536,
          "duration": 0.3671875
        },
        {
          "name": "C2",
          "midi": 36,
          "time": 326.0625,
          "velocity": 0.8346456692913385,
          "duration": 0.5546875
        },
        {
          "name": "F#2",
          "midi": 42,
          "time": 326.25,
          "velocity": 0.7874015748031497,
          "duration": 0.3671875
        },
        {
          "name": "D2",
          "midi": 38,
          "time": 326.625,
          "velocity": 1,
          "duration": 0.7421875
        },
        {
          "name": "F#2",
          "midi": 42,
          "time": 326.625,
          "velocity": 0.8503937007874016,
          "duration": 0.3671875
        },
        {
          "name": "F#2",
          "midi": 42,
          "time": 327,
          "velocity": 0.9133858267716536,
          "duration": 0.3671875
        },
        {
          "name": "C2",
          "midi": 36,
          "time": 327.375,
          "velocity": 0.8661417322834646,
          "duration": 0.1796875
        },
        {
          "name": "C#3",
          "midi": 49,
          "time": 327.375,
          "velocity": 0.9133858267716536,
          "duration": 0.3671875
        },
        {
          "name": "C2",
          "midi": 36,
          "time": 327.5625,
          "velocity": 0.8346456692913385,
          "duration": 0.5546875
        },
        {
          "name": "F#2",
          "midi": 42,
          "time": 327.75,
          "velocity": 0.7874015748031497,
          "duration": 0.3671875
        },
        {
          "name": "D2",
          "midi": 38,
          "time": 328.125,
          "velocity": 1,
          "duration": 0.7421875
        },
        {
          "name": "F#2",
          "midi": 42,
          "time": 328.125,
          "velocity": 0.8503937007874016,
          "duration": 0.3671875
        },
        {
          "name": "F#2",
          "midi": 42,
          "time": 328.5,
          "velocity": 0.9133858267716536,
          "duration": 0.3671875
        },
        {
          "name": "C2",
          "midi": 36,
          "time": 328.875,
          "velocity": 0.8661417322834646,
          "duration": 0.1796875
        },
        {
          "name": "F#2",
          "midi": 42,
          "time": 328.875,
          "velocity": 0.9133858267716536,
          "duration": 0.3671875
        },
        {
          "name": "C2",
          "midi": 36,
          "time": 329.0625,
          "velocity": 0.8346456692913385,
          "duration": 0.5546875
        },
        {
          "name": "F#2",
          "midi": 42,
          "time": 329.25,
          "velocity": 0.7874015748031497,
          "duration": 0.3671875
        },
        {
          "name": "D2",
          "midi": 38,
          "time": 329.625,
          "velocity": 1,
          "duration": 0.7421875
        },
        {
          "name": "F#2",
          "midi": 42,
          "time": 329.625,
          "velocity": 0.8503937007874016,
          "duration": 0.3671875
        },
        {
          "name": "F#2",
          "midi": 42,
          "time": 330,
          "velocity": 0.9133858267716536,
          "duration": 0.3671875
        },
        {
          "name": "C2",
          "midi": 36,
          "time": 330.375,
          "velocity": 0.8661417322834646,
          "duration": 0.1796875
        },
        {
          "name": "F#2",
          "midi": 42,
          "time": 330.375,
          "velocity": 0.9133858267716536,
          "duration": 0.3671875
        },
        {
          "name": "C2",
          "midi": 36,
          "time": 330.5625,
          "velocity": 0.8346456692913385,
          "duration": 0.5546875
        },
        {
          "name": "F#2",
          "midi": 42,
          "time": 330.75,
          "velocity": 0.7874015748031497,
          "duration": 0.3671875
        },
        {
          "name": "D2",
          "midi": 38,
          "time": 331.125,
          "velocity": 1,
          "duration": 0.7421875
        },
        {
          "name": "F#2",
          "midi": 42,
          "time": 331.125,
          "velocity": 0.8503937007874016,
          "duration": 0.3671875
        },
        {
          "name": "F#2",
          "midi": 42,
          "time": 331.5,
          "velocity": 0.9133858267716536,
          "duration": 0.3671875
        },
        {
          "name": "C2",
          "midi": 36,
          "time": 331.875,
          "velocity": 0.8661417322834646,
          "duration": 0.1796875
        },
        {
          "name": "F#2",
          "midi": 42,
          "time": 331.875,
          "velocity": 0.9133858267716536,
          "duration": 0.3671875
        },
        {
          "name": "C2",
          "midi": 36,
          "time": 332.0625,
          "velocity": 0.8346456692913385,
          "duration": 0.5546875
        },
        {
          "name": "F#2",
          "midi": 42,
          "time": 332.25,
          "velocity": 0.7874015748031497,
          "duration": 0.3671875
        },
        {
          "name": "D2",
          "midi": 38,
          "time": 332.625,
          "velocity": 1,
          "duration": 0.7421875
        },
        {
          "name": "F#2",
          "midi": 42,
          "time": 332.625,
          "velocity": 0.8503937007874016,
          "duration": 0.3671875
        },
        {
          "name": "F#2",
          "midi": 42,
          "time": 333,
          "velocity": 0.9133858267716536,
          "duration": 0.3671875
        },
        {
          "name": "C2",
          "midi": 36,
          "time": 333.375,
          "velocity": 0.8661417322834646,
          "duration": 0.1796875
        },
        {
          "name": "F#2",
          "midi": 42,
          "time": 333.375,
          "velocity": 0.9133858267716536,
          "duration": 0.3671875
        },
        {
          "name": "C2",
          "midi": 36,
          "time": 333.5625,
          "velocity": 0.8346456692913385,
          "duration": 0.5546875
        },
        {
          "name": "F#2",
          "midi": 42,
          "time": 333.75,
          "velocity": 0.7874015748031497,
          "duration": 0.3671875
        },
        {
          "name": "D2",
          "midi": 38,
          "time": 334.125,
          "velocity": 1,
          "duration": 0.7421875
        },
        {
          "name": "F#2",
          "midi": 42,
          "time": 334.125,
          "velocity": 0.8503937007874016,
          "duration": 0.3671875
        },
        {
          "name": "F#2",
          "midi": 42,
          "time": 334.5,
          "velocity": 0.9133858267716536,
          "duration": 0.3671875
        },
        {
          "name": "C2",
          "midi": 36,
          "time": 334.875,
          "velocity": 0.8661417322834646,
          "duration": 0.1796875
        },
        {
          "name": "F#2",
          "midi": 42,
          "time": 334.875,
          "velocity": 0.9133858267716536,
          "duration": 0.3671875
        },
        {
          "name": "C2",
          "midi": 36,
          "time": 335.0625,
          "velocity": 0.8346456692913385,
          "duration": 0.5546875
        },
        {
          "name": "F#2",
          "midi": 42,
          "time": 335.25,
          "velocity": 0.7874015748031497,
          "duration": 0.3671875
        },
        {
          "name": "D2",
          "midi": 38,
          "time": 335.625,
          "velocity": 1,
          "duration": 0.3671875
        },
        {
          "name": "F#2",
          "midi": 42,
          "time": 335.625,
          "velocity": 0.8503937007874016,
          "duration": 0.3671875
        },
        {
          "name": "D2",
          "midi": 38,
          "time": 336,
          "velocity": 0.9133858267716536,
          "duration": 0.1796875
        },
        {
          "name": "F#2",
          "midi": 42,
          "time": 336,
          "velocity": 0.9133858267716536,
          "duration": 0.3671875
        },
        {
          "name": "D2",
          "midi": 38,
          "time": 336.1875,
          "velocity": 0.9133858267716536,
          "duration": 0.1796875
        },
        {
          "name": "C2",
          "midi": 36,
          "time": 336.375,
          "velocity": 0.8661417322834646,
          "duration": 0.1796875
        },
        {
          "name": "C#3",
          "midi": 49,
          "time": 336.375,
          "velocity": 0.9133858267716536,
          "duration": 0.3671875
        },
        {
          "name": "C2",
          "midi": 36,
          "time": 336.5625,
          "velocity": 0.8346456692913385,
          "duration": 0.5546875
        },
        {
          "name": "F#2",
          "midi": 42,
          "time": 336.75,
          "velocity": 0.7874015748031497,
          "duration": 0.3671875
        },
        {
          "name": "D2",
          "midi": 38,
          "time": 337.125,
          "velocity": 1,
          "duration": 0.7421875
        },
        {
          "name": "F#2",
          "midi": 42,
          "time": 337.125,
          "velocity": 0.8503937007874016,
          "duration": 0.3671875
        },
        {
          "name": "F#2",
          "midi": 42,
          "time": 337.5,
          "velocity": 0.9133858267716536,
          "duration": 0.3671875
        },
        {
          "name": "C2",
          "midi": 36,
          "time": 337.875,
          "velocity": 0.8661417322834646,
          "duration": 0.1796875
        },
        {
          "name": "F#2",
          "midi": 42,
          "time": 337.875,
          "velocity": 0.9133858267716536,
          "duration": 0.3671875
        },
        {
          "name": "C2",
          "midi": 36,
          "time": 338.0625,
          "velocity": 0.8346456692913385,
          "duration": 0.5546875
        },
        {
          "name": "F#2",
          "midi": 42,
          "time": 338.25,
          "velocity": 0.7874015748031497,
          "duration": 0.3671875
        },
        {
          "name": "D2",
          "midi": 38,
          "time": 338.625,
          "velocity": 1,
          "duration": 0.7421875
        },
        {
          "name": "F#2",
          "midi": 42,
          "time": 338.625,
          "velocity": 0.8503937007874016,
          "duration": 0.3671875
        },
        {
          "name": "F#2",
          "midi": 42,
          "time": 339,
          "velocity": 0.9133858267716536,
          "duration": 0.3671875
        },
        {
          "name": "C2",
          "midi": 36,
          "time": 339.375,
          "velocity": 0.8661417322834646,
          "duration": 0.1796875
        },
        {
          "name": "F#2",
          "midi": 42,
          "time": 339.375,
          "velocity": 0.9133858267716536,
          "duration": 0.3671875
        },
        {
          "name": "C2",
          "midi": 36,
          "time": 339.5625,
          "velocity": 0.8346456692913385,
          "duration": 0.5546875
        },
        {
          "name": "F#2",
          "midi": 42,
          "time": 339.75,
          "velocity": 0.7874015748031497,
          "duration": 0.3671875
        },
        {
          "name": "D2",
          "midi": 38,
          "time": 340.125,
          "velocity": 1,
          "duration": 0.7421875
        },
        {
          "name": "F#2",
          "midi": 42,
          "time": 340.125,
          "velocity": 0.8503937007874016,
          "duration": 0.3671875
        },
        {
          "name": "F#2",
          "midi": 42,
          "time": 340.5,
          "velocity": 0.9133858267716536,
          "duration": 0.3671875
        },
        {
          "name": "C2",
          "midi": 36,
          "time": 340.875,
          "velocity": 0.8661417322834646,
          "duration": 0.1796875
        },
        {
          "name": "F#2",
          "midi": 42,
          "time": 340.875,
          "velocity": 0.9133858267716536,
          "duration": 0.3671875
        },
        {
          "name": "C2",
          "midi": 36,
          "time": 341.0625,
          "velocity": 0.8346456692913385,
          "duration": 0.5546875
        },
        {
          "name": "F#2",
          "midi": 42,
          "time": 341.25,
          "velocity": 0.7874015748031497,
          "duration": 0.3671875
        },
        {
          "name": "D2",
          "midi": 38,
          "time": 341.625,
          "velocity": 1,
          "duration": 0.7421875
        },
        {
          "name": "F#2",
          "midi": 42,
          "time": 341.625,
          "velocity": 0.8503937007874016,
          "duration": 0.3671875
        },
        {
          "name": "F#2",
          "midi": 42,
          "time": 342,
          "velocity": 0.9133858267716536,
          "duration": 0.3671875
        },
        {
          "name": "C2",
          "midi": 36,
          "time": 342.375,
          "velocity": 0.8661417322834646,
          "duration": 0.1796875
        },
        {
          "name": "F#2",
          "midi": 42,
          "time": 342.375,
          "velocity": 0.9133858267716536,
          "duration": 0.3671875
        },
        {
          "name": "C2",
          "midi": 36,
          "time": 342.5625,
          "velocity": 0.8346456692913385,
          "duration": 0.5546875
        },
        {
          "name": "F#2",
          "midi": 42,
          "time": 342.75,
          "velocity": 0.7874015748031497,
          "duration": 0.3671875
        },
        {
          "name": "D2",
          "midi": 38,
          "time": 343.125,
          "velocity": 1,
          "duration": 0.7421875
        },
        {
          "name": "F#2",
          "midi": 42,
          "time": 343.125,
          "velocity": 0.8503937007874016,
          "duration": 0.3671875
        },
        {
          "name": "F#2",
          "midi": 42,
          "time": 343.5,
          "velocity": 0.9133858267716536,
          "duration": 0.3671875
        },
        {
          "name": "C2",
          "midi": 36,
          "time": 343.875,
          "velocity": 0.8661417322834646,
          "duration": 0.1796875
        },
        {
          "name": "F#2",
          "midi": 42,
          "time": 343.875,
          "velocity": 0.9133858267716536,
          "duration": 0.3671875
        },
        {
          "name": "C2",
          "midi": 36,
          "time": 344.0625,
          "velocity": 0.8346456692913385,
          "duration": 0.5546875
        },
        {
          "name": "F#2",
          "midi": 42,
          "time": 344.25,
          "velocity": 0.7874015748031497,
          "duration": 0.3671875
        },
        {
          "name": "D2",
          "midi": 38,
          "time": 344.625,
          "velocity": 1,
          "duration": 0.7421875
        },
        {
          "name": "F#2",
          "midi": 42,
          "time": 344.625,
          "velocity": 0.8503937007874016,
          "duration": 0.3671875
        },
        {
          "name": "F#2",
          "midi": 42,
          "time": 345,
          "velocity": 0.9133858267716536,
          "duration": 0.3671875
        },
        {
          "name": "C2",
          "midi": 36,
          "time": 345.375,
          "velocity": 0.8661417322834646,
          "duration": 0.1796875
        },
        {
          "name": "F#2",
          "midi": 42,
          "time": 345.375,
          "velocity": 0.9133858267716536,
          "duration": 0.3671875
        },
        {
          "name": "C2",
          "midi": 36,
          "time": 345.5625,
          "velocity": 0.8346456692913385,
          "duration": 0.5546875
        },
        {
          "name": "F#2",
          "midi": 42,
          "time": 345.75,
          "velocity": 0.7874015748031497,
          "duration": 0.3671875
        },
        {
          "name": "D2",
          "midi": 38,
          "time": 346.125,
          "velocity": 1,
          "duration": 0.7421875
        },
        {
          "name": "F#2",
          "midi": 42,
          "time": 346.125,
          "velocity": 0.8503937007874016,
          "duration": 0.3671875
        },
        {
          "name": "F#2",
          "midi": 42,
          "time": 346.5,
          "velocity": 0.9133858267716536,
          "duration": 0.3671875
        },
        {
          "name": "C2",
          "midi": 36,
          "time": 346.875,
          "velocity": 0.8661417322834646,
          "duration": 0.1796875
        },
        {
          "name": "F#2",
          "midi": 42,
          "time": 346.875,
          "velocity": 0.9133858267716536,
          "duration": 0.3671875
        },
        {
          "name": "C2",
          "midi": 36,
          "time": 347.0625,
          "velocity": 0.8346456692913385,
          "duration": 0.5546875
        },
        {
          "name": "F#2",
          "midi": 42,
          "time": 347.25,
          "velocity": 0.7874015748031497,
          "duration": 0.3671875
        },
        {
          "name": "D2",
          "midi": 38,
          "time": 347.625,
          "velocity": 1,
          "duration": 0.7421875
        },
        {
          "name": "F#2",
          "midi": 42,
          "time": 347.625,
          "velocity": 0.8503937007874016,
          "duration": 0.3671875
        },
        {
          "name": "F#2",
          "midi": 42,
          "time": 348,
          "velocity": 0.9133858267716536,
          "duration": 0.3671875
        },
        {
          "name": "C2",
          "midi": 36,
          "time": 348.375,
          "velocity": 0.8661417322834646,
          "duration": 0.1796875
        },
        {
          "name": "F#2",
          "midi": 42,
          "time": 348.375,
          "velocity": 0.9133858267716536,
          "duration": 0.3671875
        },
        {
          "name": "C2",
          "midi": 36,
          "time": 348.5625,
          "velocity": 0.8346456692913385,
          "duration": 0.5546875
        },
        {
          "name": "F#2",
          "midi": 42,
          "time": 348.75,
          "velocity": 0.7874015748031497,
          "duration": 0.3671875
        },
        {
          "name": "D2",
          "midi": 38,
          "time": 349.125,
          "velocity": 1,
          "duration": 0.7421875
        },
        {
          "name": "F#2",
          "midi": 42,
          "time": 349.125,
          "velocity": 0.8503937007874016,
          "duration": 0.3671875
        },
        {
          "name": "F#2",
          "midi": 42,
          "time": 349.5,
          "velocity": 0.9133858267716536,
          "duration": 0.3671875
        },
        {
          "name": "C2",
          "midi": 36,
          "time": 349.875,
          "velocity": 0.8661417322834646,
          "duration": 0.1796875
        },
        {
          "name": "F#2",
          "midi": 42,
          "time": 349.875,
          "velocity": 0.9133858267716536,
          "duration": 0.3671875
        },
        {
          "name": "C2",
          "midi": 36,
          "time": 350.0625,
          "velocity": 0.8346456692913385,
          "duration": 0.5546875
        },
        {
          "name": "F#2",
          "midi": 42,
          "time": 350.25,
          "velocity": 0.7874015748031497,
          "duration": 0.3671875
        },
        {
          "name": "D2",
          "midi": 38,
          "time": 350.625,
          "velocity": 1,
          "duration": 0.7421875
        },
        {
          "name": "F#2",
          "midi": 42,
          "time": 350.625,
          "velocity": 0.8503937007874016,
          "duration": 0.3671875
        },
        {
          "name": "F#2",
          "midi": 42,
          "time": 351,
          "velocity": 0.9133858267716536,
          "duration": 0.3671875
        },
        {
          "name": "C2",
          "midi": 36,
          "time": 351.375,
          "velocity": 0.8661417322834646,
          "duration": 0.1796875
        },
        {
          "name": "F#2",
          "midi": 42,
          "time": 351.375,
          "velocity": 0.9133858267716536,
          "duration": 0.3671875
        },
        {
          "name": "C2",
          "midi": 36,
          "time": 351.5625,
          "velocity": 0.8346456692913385,
          "duration": 0.5546875
        },
        {
          "name": "F#2",
          "midi": 42,
          "time": 351.75,
          "velocity": 0.7874015748031497,
          "duration": 0.3671875
        },
        {
          "name": "D2",
          "midi": 38,
          "time": 352.125,
          "velocity": 1,
          "duration": 0.7421875
        },
        {
          "name": "F#2",
          "midi": 42,
          "time": 352.125,
          "velocity": 0.8503937007874016,
          "duration": 0.3671875
        },
        {
          "name": "F#2",
          "midi": 42,
          "time": 352.5,
          "velocity": 0.9133858267716536,
          "duration": 0.3671875
        },
        {
          "name": "C2",
          "midi": 36,
          "time": 352.875,
          "velocity": 0.8661417322834646,
          "duration": 0.1796875
        },
        {
          "name": "F#2",
          "midi": 42,
          "time": 352.875,
          "velocity": 0.9133858267716536,
          "duration": 0.3671875
        },
        {
          "name": "C2",
          "midi": 36,
          "time": 353.0625,
          "velocity": 0.8346456692913385,
          "duration": 0.5546875
        },
        {
          "name": "F#2",
          "midi": 42,
          "time": 353.25,
          "velocity": 0.7874015748031497,
          "duration": 0.3671875
        },
        {
          "name": "D2",
          "midi": 38,
          "time": 353.625,
          "velocity": 1,
          "duration": 0.7421875
        },
        {
          "name": "F#2",
          "midi": 42,
          "time": 353.625,
          "velocity": 0.8503937007874016,
          "duration": 0.3671875
        },
        {
          "name": "F#2",
          "midi": 42,
          "time": 354,
          "velocity": 0.9133858267716536,
          "duration": 0.3671875
        },
        {
          "name": "C2",
          "midi": 36,
          "time": 354.375,
          "velocity": 0.8661417322834646,
          "duration": 0.1796875
        },
        {
          "name": "F#2",
          "midi": 42,
          "time": 354.375,
          "velocity": 0.9133858267716536,
          "duration": 0.3671875
        },
        {
          "name": "C2",
          "midi": 36,
          "time": 354.5625,
          "velocity": 0.8346456692913385,
          "duration": 0.5546875
        },
        {
          "name": "F#2",
          "midi": 42,
          "time": 354.75,
          "velocity": 0.7874015748031497,
          "duration": 0.3671875
        },
        {
          "name": "D2",
          "midi": 38,
          "time": 355.125,
          "velocity": 1,
          "duration": 0.7421875
        },
        {
          "name": "F#2",
          "midi": 42,
          "time": 355.125,
          "velocity": 0.8503937007874016,
          "duration": 0.3671875
        },
        {
          "name": "F#2",
          "midi": 42,
          "time": 355.5,
          "velocity": 0.9133858267716536,
          "duration": 0.3671875
        },
        {
          "name": "C2",
          "midi": 36,
          "time": 355.875,
          "velocity": 0.8661417322834646,
          "duration": 0.1796875
        },
        {
          "name": "F#2",
          "midi": 42,
          "time": 355.875,
          "velocity": 0.9133858267716536,
          "duration": 0.3671875
        },
        {
          "name": "C2",
          "midi": 36,
          "time": 356.0625,
          "velocity": 0.8346456692913385,
          "duration": 0.5546875
        },
        {
          "name": "F#2",
          "midi": 42,
          "time": 356.25,
          "velocity": 0.7874015748031497,
          "duration": 0.3671875
        },
        {
          "name": "D2",
          "midi": 38,
          "time": 356.625,
          "velocity": 1,
          "duration": 0.7421875
        },
        {
          "name": "F#2",
          "midi": 42,
          "time": 356.625,
          "velocity": 0.8503937007874016,
          "duration": 0.3671875
        },
        {
          "name": "F#2",
          "midi": 42,
          "time": 357,
          "velocity": 0.9133858267716536,
          "duration": 0.3671875
        },
        {
          "name": "C2",
          "midi": 36,
          "time": 357.375,
          "velocity": 0.8661417322834646,
          "duration": 0.1796875
        },
        {
          "name": "F#2",
          "midi": 42,
          "time": 357.375,
          "velocity": 0.9133858267716536,
          "duration": 0.3671875
        },
        {
          "name": "C2",
          "midi": 36,
          "time": 357.5625,
          "velocity": 0.8346456692913385,
          "duration": 0.5546875
        },
        {
          "name": "F#2",
          "midi": 42,
          "time": 357.75,
          "velocity": 0.7874015748031497,
          "duration": 0.3671875
        },
        {
          "name": "D2",
          "midi": 38,
          "time": 358.125,
          "velocity": 1,
          "duration": 0.7421875
        },
        {
          "name": "F#2",
          "midi": 42,
          "time": 358.125,
          "velocity": 0.8503937007874016,
          "duration": 0.3671875
        },
        {
          "name": "F#2",
          "midi": 42,
          "time": 358.5,
          "velocity": 0.9133858267716536,
          "duration": 0.3671875
        },
        {
          "name": "C2",
          "midi": 36,
          "time": 358.875,
          "velocity": 0.8661417322834646,
          "duration": 0.1796875
        },
        {
          "name": "F#2",
          "midi": 42,
          "time": 358.875,
          "velocity": 0.9133858267716536,
          "duration": 0.3671875
        },
        {
          "name": "C2",
          "midi": 36,
          "time": 359.0625,
          "velocity": 0.8346456692913385,
          "duration": 0.5546875
        },
        {
          "name": "F#2",
          "midi": 42,
          "time": 359.25,
          "velocity": 0.7874015748031497,
          "duration": 0.3671875
        },
        {
          "name": "D2",
          "midi": 38,
          "time": 359.625,
          "velocity": 1,
          "duration": 0.7421875
        },
        {
          "name": "F#2",
          "midi": 42,
          "time": 359.625,
          "velocity": 0.8503937007874016,
          "duration": 0.3671875
        },
        {
          "name": "F#2",
          "midi": 42,
          "time": 360,
          "velocity": 0.9133858267716536,
          "duration": 0.3671875
        },
        {
          "name": "C2",
          "midi": 36,
          "time": 360.375,
          "velocity": 0.8661417322834646,
          "duration": 0.1796875
        },
        {
          "name": "F#2",
          "midi": 42,
          "time": 360.375,
          "velocity": 0.9133858267716536,
          "duration": 0.3671875
        },
        {
          "name": "C2",
          "midi": 36,
          "time": 360.5625,
          "velocity": 0.8346456692913385,
          "duration": 0.5546875
        },
        {
          "name": "F#2",
          "midi": 42,
          "time": 360.75,
          "velocity": 0.7874015748031497,
          "duration": 0.3671875
        },
        {
          "name": "D2",
          "midi": 38,
          "time": 361.125,
          "velocity": 1,
          "duration": 0.7421875
        },
        {
          "name": "F#2",
          "midi": 42,
          "time": 361.125,
          "velocity": 0.8503937007874016,
          "duration": 0.3671875
        },
        {
          "name": "F#2",
          "midi": 42,
          "time": 361.5,
          "velocity": 0.9133858267716536,
          "duration": 0.3671875
        },
        {
          "name": "C2",
          "midi": 36,
          "time": 361.875,
          "velocity": 0.8661417322834646,
          "duration": 0.1796875
        },
        {
          "name": "F#2",
          "midi": 42,
          "time": 361.875,
          "velocity": 0.9133858267716536,
          "duration": 0.3671875
        },
        {
          "name": "C2",
          "midi": 36,
          "time": 362.0625,
          "velocity": 0.8346456692913385,
          "duration": 0.5546875
        },
        {
          "name": "F#2",
          "midi": 42,
          "time": 362.25,
          "velocity": 0.7874015748031497,
          "duration": 0.3671875
        },
        {
          "name": "D2",
          "midi": 38,
          "time": 362.625,
          "velocity": 1,
          "duration": 0.3671875
        },
        {
          "name": "F#2",
          "midi": 42,
          "time": 362.625,
          "velocity": 0.8503937007874016,
          "duration": 0.3671875
        },
        {
          "name": "D2",
          "midi": 38,
          "time": 363,
          "velocity": 0.9133858267716536,
          "duration": 0.1796875
        },
        {
          "name": "F#2",
          "midi": 42,
          "time": 363,
          "velocity": 0.9133858267716536,
          "duration": 0.3671875
        },
        {
          "name": "D2",
          "midi": 38,
          "time": 363.1875,
          "velocity": 0.9133858267716536,
          "duration": 0.1796875
        },
        {
          "name": "C2",
          "midi": 36,
          "time": 363.375,
          "velocity": 0.8661417322834646,
          "duration": 0.1796875
        },
        {
          "name": "C#3",
          "midi": 49,
          "time": 363.375,
          "velocity": 0.9133858267716536,
          "duration": 0.3671875
        },
        {
          "name": "C2",
          "midi": 36,
          "time": 363.5625,
          "velocity": 0.8346456692913385,
          "duration": 0.5546875
        },
        {
          "name": "F#2",
          "midi": 42,
          "time": 363.75,
          "velocity": 0.7874015748031497,
          "duration": 0.3671875
        },
        {
          "name": "D2",
          "midi": 38,
          "time": 364.125,
          "velocity": 1,
          "duration": 0.7421875
        },
        {
          "name": "F#2",
          "midi": 42,
          "time": 364.125,
          "velocity": 0.8503937007874016,
          "duration": 0.3671875
        },
        {
          "name": "F#2",
          "midi": 42,
          "time": 364.5,
          "velocity": 0.9133858267716536,
          "duration": 0.3671875
        },
        {
          "name": "C2",
          "midi": 36,
          "time": 364.875,
          "velocity": 0.8661417322834646,
          "duration": 0.1796875
        },
        {
          "name": "F#2",
          "midi": 42,
          "time": 364.875,
          "velocity": 0.9133858267716536,
          "duration": 0.3671875
        },
        {
          "name": "C2",
          "midi": 36,
          "time": 365.0625,
          "velocity": 0.8346456692913385,
          "duration": 0.5546875
        },
        {
          "name": "F#2",
          "midi": 42,
          "time": 365.25,
          "velocity": 0.7874015748031497,
          "duration": 0.3671875
        },
        {
          "name": "D2",
          "midi": 38,
          "time": 365.625,
          "velocity": 1,
          "duration": 0.7421875
        },
        {
          "name": "F#2",
          "midi": 42,
          "time": 365.625,
          "velocity": 0.8503937007874016,
          "duration": 0.3671875
        },
        {
          "name": "F#2",
          "midi": 42,
          "time": 366,
          "velocity": 0.9133858267716536,
          "duration": 0.3671875
        },
        {
          "name": "C2",
          "midi": 36,
          "time": 366.375,
          "velocity": 0.8661417322834646,
          "duration": 0.1796875
        },
        {
          "name": "F#2",
          "midi": 42,
          "time": 366.375,
          "velocity": 0.9133858267716536,
          "duration": 0.3671875
        },
        {
          "name": "C2",
          "midi": 36,
          "time": 366.5625,
          "velocity": 0.8346456692913385,
          "duration": 0.5546875
        },
        {
          "name": "F#2",
          "midi": 42,
          "time": 366.75,
          "velocity": 0.7874015748031497,
          "duration": 0.3671875
        },
        {
          "name": "D2",
          "midi": 38,
          "time": 367.125,
          "velocity": 1,
          "duration": 0.7421875
        },
        {
          "name": "F#2",
          "midi": 42,
          "time": 367.125,
          "velocity": 0.8503937007874016,
          "duration": 0.3671875
        },
        {
          "name": "F#2",
          "midi": 42,
          "time": 367.5,
          "velocity": 0.9133858267716536,
          "duration": 0.3671875
        },
        {
          "name": "C2",
          "midi": 36,
          "time": 367.875,
          "velocity": 0.8661417322834646,
          "duration": 0.1796875
        },
        {
          "name": "F#2",
          "midi": 42,
          "time": 367.875,
          "velocity": 0.9133858267716536,
          "duration": 0.3671875
        },
        {
          "name": "C2",
          "midi": 36,
          "time": 368.0625,
          "velocity": 0.8346456692913385,
          "duration": 0.5546875
        },
        {
          "name": "F#2",
          "midi": 42,
          "time": 368.25,
          "velocity": 0.7874015748031497,
          "duration": 0.3671875
        },
        {
          "name": "D2",
          "midi": 38,
          "time": 368.625,
          "velocity": 1,
          "duration": 0.7421875
        },
        {
          "name": "F#2",
          "midi": 42,
          "time": 368.625,
          "velocity": 0.8503937007874016,
          "duration": 0.3671875
        },
        {
          "name": "F#2",
          "midi": 42,
          "time": 369,
          "velocity": 0.9133858267716536,
          "duration": 0.3671875
        },
        {
          "name": "C2",
          "midi": 36,
          "time": 369.375,
          "velocity": 0.8661417322834646,
          "duration": 0.1796875
        },
        {
          "name": "F#2",
          "midi": 42,
          "time": 369.375,
          "velocity": 0.9133858267716536,
          "duration": 0.3671875
        },
        {
          "name": "C2",
          "midi": 36,
          "time": 369.5625,
          "velocity": 0.8346456692913385,
          "duration": 0.5546875
        },
        {
          "name": "F#2",
          "midi": 42,
          "time": 369.75,
          "velocity": 0.7874015748031497,
          "duration": 0.3671875
        },
        {
          "name": "D2",
          "midi": 38,
          "time": 370.125,
          "velocity": 1,
          "duration": 0.7421875
        },
        {
          "name": "F#2",
          "midi": 42,
          "time": 370.125,
          "velocity": 0.8503937007874016,
          "duration": 0.3671875
        },
        {
          "name": "F#2",
          "midi": 42,
          "time": 370.5,
          "velocity": 0.9133858267716536,
          "duration": 0.3671875
        },
        {
          "name": "C2",
          "midi": 36,
          "time": 370.875,
          "velocity": 0.8661417322834646,
          "duration": 0.1796875
        },
        {
          "name": "F#2",
          "midi": 42,
          "time": 370.875,
          "velocity": 0.9133858267716536,
          "duration": 0.3671875
        },
        {
          "name": "C2",
          "midi": 36,
          "time": 371.0625,
          "velocity": 0.8346456692913385,
          "duration": 0.5546875
        },
        {
          "name": "F#2",
          "midi": 42,
          "time": 371.25,
          "velocity": 0.7874015748031497,
          "duration": 0.3671875
        },
        {
          "name": "D2",
          "midi": 38,
          "time": 371.625,
          "velocity": 1,
          "duration": 0.7421875
        },
        {
          "name": "F#2",
          "midi": 42,
          "time": 371.625,
          "velocity": 0.8503937007874016,
          "duration": 0.3671875
        },
        {
          "name": "F#2",
          "midi": 42,
          "time": 372,
          "velocity": 0.9133858267716536,
          "duration": 0.3671875
        },
        {
          "name": "C2",
          "midi": 36,
          "time": 372.375,
          "velocity": 0.8661417322834646,
          "duration": 0.1796875
        },
        {
          "name": "F#2",
          "midi": 42,
          "time": 372.375,
          "velocity": 0.9133858267716536,
          "duration": 0.3671875
        },
        {
          "name": "C2",
          "midi": 36,
          "time": 372.5625,
          "velocity": 0.8346456692913385,
          "duration": 0.5546875
        },
        {
          "name": "F#2",
          "midi": 42,
          "time": 372.75,
          "velocity": 0.7874015748031497,
          "duration": 0.3671875
        },
        {
          "name": "D2",
          "midi": 38,
          "time": 373.125,
          "velocity": 1,
          "duration": 0.7421875
        },
        {
          "name": "F#2",
          "midi": 42,
          "time": 373.125,
          "velocity": 0.8503937007874016,
          "duration": 0.3671875
        },
        {
          "name": "F#2",
          "midi": 42,
          "time": 373.5,
          "velocity": 0.9133858267716536,
          "duration": 0.3671875
        },
        {
          "name": "C2",
          "midi": 36,
          "time": 373.875,
          "velocity": 0.8661417322834646,
          "duration": 0.1796875
        },
        {
          "name": "F#2",
          "midi": 42,
          "time": 373.875,
          "velocity": 0.9133858267716536,
          "duration": 0.3671875
        },
        {
          "name": "C2",
          "midi": 36,
          "time": 374.0625,
          "velocity": 0.8346456692913385,
          "duration": 0.5546875
        },
        {
          "name": "F#2",
          "midi": 42,
          "time": 374.25,
          "velocity": 0.7874015748031497,
          "duration": 0.3671875
        },
        {
          "name": "D2",
          "midi": 38,
          "time": 374.625,
          "velocity": 1,
          "duration": 0.7421875
        },
        {
          "name": "F#2",
          "midi": 42,
          "time": 374.625,
          "velocity": 0.8503937007874016,
          "duration": 0.3671875
        },
        {
          "name": "F#2",
          "midi": 42,
          "time": 375,
          "velocity": 0.9133858267716536,
          "duration": 0.3671875
        },
        {
          "name": "C2",
          "midi": 36,
          "time": 375.375,
          "velocity": 0.8661417322834646,
          "duration": 0.1796875
        },
        {
          "name": "F#2",
          "midi": 42,
          "time": 375.375,
          "velocity": 0.9133858267716536,
          "duration": 0.3671875
        },
        {
          "name": "C2",
          "midi": 36,
          "time": 375.5625,
          "velocity": 0.8346456692913385,
          "duration": 0.5546875
        },
        {
          "name": "F#2",
          "midi": 42,
          "time": 375.75,
          "velocity": 0.7874015748031497,
          "duration": 0.3671875
        },
        {
          "name": "D2",
          "midi": 38,
          "time": 376.125,
          "velocity": 1,
          "duration": 0.7421875
        },
        {
          "name": "F#2",
          "midi": 42,
          "time": 376.125,
          "velocity": 0.8503937007874016,
          "duration": 0.3671875
        },
        {
          "name": "F#2",
          "midi": 42,
          "time": 376.5,
          "velocity": 0.9133858267716536,
          "duration": 0.3671875
        },
        {
          "name": "C2",
          "midi": 36,
          "time": 376.875,
          "velocity": 0.8661417322834646,
          "duration": 0.1796875
        },
        {
          "name": "F#2",
          "midi": 42,
          "time": 376.875,
          "velocity": 0.9133858267716536,
          "duration": 0.3671875
        },
        {
          "name": "C2",
          "midi": 36,
          "time": 377.0625,
          "velocity": 0.8346456692913385,
          "duration": 0.5546875
        },
        {
          "name": "F#2",
          "midi": 42,
          "time": 377.25,
          "velocity": 0.7874015748031497,
          "duration": 0.3671875
        },
        {
          "name": "D2",
          "midi": 38,
          "time": 377.625,
          "velocity": 1,
          "duration": 0.7421875
        },
        {
          "name": "F#2",
          "midi": 42,
          "time": 377.625,
          "velocity": 0.8503937007874016,
          "duration": 0.3671875
        },
        {
          "name": "F#2",
          "midi": 42,
          "time": 378,
          "velocity": 0.9133858267716536,
          "duration": 0.3671875
        },
        {
          "name": "C2",
          "midi": 36,
          "time": 378.375,
          "velocity": 0.8661417322834646,
          "duration": 0.1796875
        },
        {
          "name": "F#2",
          "midi": 42,
          "time": 378.375,
          "velocity": 0.9133858267716536,
          "duration": 0.3671875
        },
        {
          "name": "C2",
          "midi": 36,
          "time": 378.5625,
          "velocity": 0.8346456692913385,
          "duration": 0.5546875
        },
        {
          "name": "F#2",
          "midi": 42,
          "time": 378.75,
          "velocity": 0.7874015748031497,
          "duration": 0.3671875
        },
        {
          "name": "D2",
          "midi": 38,
          "time": 379.125,
          "velocity": 1,
          "duration": 0.7421875
        },
        {
          "name": "F#2",
          "midi": 42,
          "time": 379.125,
          "velocity": 0.8503937007874016,
          "duration": 0.3671875
        },
        {
          "name": "F#2",
          "midi": 42,
          "time": 379.5,
          "velocity": 0.9133858267716536,
          "duration": 0.3671875
        },
        {
          "name": "C2",
          "midi": 36,
          "time": 379.875,
          "velocity": 0.8661417322834646,
          "duration": 0.1796875
        },
        {
          "name": "F#2",
          "midi": 42,
          "time": 379.875,
          "velocity": 0.9133858267716536,
          "duration": 0.3671875
        },
        {
          "name": "C2",
          "midi": 36,
          "time": 380.0625,
          "velocity": 0.8346456692913385,
          "duration": 0.5546875
        },
        {
          "name": "F#2",
          "midi": 42,
          "time": 380.25,
          "velocity": 0.7874015748031497,
          "duration": 0.3671875
        },
        {
          "name": "D2",
          "midi": 38,
          "time": 380.625,
          "velocity": 1,
          "duration": 0.7421875
        },
        {
          "name": "F#2",
          "midi": 42,
          "time": 380.625,
          "velocity": 0.8503937007874016,
          "duration": 0.3671875
        },
        {
          "name": "F#2",
          "midi": 42,
          "time": 381,
          "velocity": 0.9133858267716536,
          "duration": 0.3671875
        },
        {
          "name": "C2",
          "midi": 36,
          "time": 381.375,
          "velocity": 0.8661417322834646,
          "duration": 0.1796875
        },
        {
          "name": "C#3",
          "midi": 49,
          "time": 381.375,
          "velocity": 0.9133858267716536,
          "duration": 0.3671875
        },
        {
          "name": "C2",
          "midi": 36,
          "time": 381.5625,
          "velocity": 0.8346456692913385,
          "duration": 0.5546875
        },
        {
          "name": "F#2",
          "midi": 42,
          "time": 381.75,
          "velocity": 0.7874015748031497,
          "duration": 0.3671875
        },
        {
          "name": "D2",
          "midi": 38,
          "time": 382.125,
          "velocity": 1,
          "duration": 0.7421875
        },
        {
          "name": "F#2",
          "midi": 42,
          "time": 382.125,
          "velocity": 0.8503937007874016,
          "duration": 0.3671875
        },
        {
          "name": "F#2",
          "midi": 42,
          "time": 382.5,
          "velocity": 0.9133858267716536,
          "duration": 0.3671875
        },
        {
          "name": "C2",
          "midi": 36,
          "time": 382.875,
          "velocity": 0.8661417322834646,
          "duration": 0.1796875
        },
        {
          "name": "F#2",
          "midi": 42,
          "time": 382.875,
          "velocity": 0.9133858267716536,
          "duration": 0.3671875
        },
        {
          "name": "C2",
          "midi": 36,
          "time": 383.0625,
          "velocity": 0.8346456692913385,
          "duration": 0.5546875
        },
        {
          "name": "F#2",
          "midi": 42,
          "time": 383.25,
          "velocity": 0.7874015748031497,
          "duration": 0.3671875
        },
        {
          "name": "D2",
          "midi": 38,
          "time": 383.625,
          "velocity": 1,
          "duration": 0.7421875
        },
        {
          "name": "F#2",
          "midi": 42,
          "time": 383.625,
          "velocity": 0.8503937007874016,
          "duration": 0.3671875
        },
        {
          "name": "F#2",
          "midi": 42,
          "time": 384,
          "velocity": 0.9133858267716536,
          "duration": 0.3671875
        },
        {
          "name": "C2",
          "midi": 36,
          "time": 384.375,
          "velocity": 0.8661417322834646,
          "duration": 0.1796875
        },
        {
          "name": "F#2",
          "midi": 42,
          "time": 384.375,
          "velocity": 0.9133858267716536,
          "duration": 0.3671875
        },
        {
          "name": "C2",
          "midi": 36,
          "time": 384.5625,
          "velocity": 0.8346456692913385,
          "duration": 0.5546875
        },
        {
          "name": "F#2",
          "midi": 42,
          "time": 384.75,
          "velocity": 0.7874015748031497,
          "duration": 0.3671875
        },
        {
          "name": "D2",
          "midi": 38,
          "time": 385.125,
          "velocity": 1,
          "duration": 0.7421875
        },
        {
          "name": "F#2",
          "midi": 42,
          "time": 385.125,
          "velocity": 0.8503937007874016,
          "duration": 0.3671875
        },
        {
          "name": "F#2",
          "midi": 42,
          "time": 385.5,
          "velocity": 0.9133858267716536,
          "duration": 0.3671875
        },
        {
          "name": "C2",
          "midi": 36,
          "time": 385.875,
          "velocity": 0.8661417322834646,
          "duration": 0.1796875
        },
        {
          "name": "F#2",
          "midi": 42,
          "time": 385.875,
          "velocity": 0.9133858267716536,
          "duration": 0.3671875
        },
        {
          "name": "C2",
          "midi": 36,
          "time": 386.0625,
          "velocity": 0.8346456692913385,
          "duration": 0.5546875
        },
        {
          "name": "F#2",
          "midi": 42,
          "time": 386.25,
          "velocity": 0.7874015748031497,
          "duration": 0.3671875
        },
        {
          "name": "D2",
          "midi": 38,
          "time": 386.625,
          "velocity": 1,
          "duration": 0.7421875
        },
        {
          "name": "F#2",
          "midi": 42,
          "time": 386.625,
          "velocity": 0.8503937007874016,
          "duration": 0.3671875
        },
        {
          "name": "F#2",
          "midi": 42,
          "time": 387,
          "velocity": 0.9133858267716536,
          "duration": 0.3671875
        },
        {
          "name": "C2",
          "midi": 36,
          "time": 387.375,
          "velocity": 0.8661417322834646,
          "duration": 0.1796875
        },
        {
          "name": "F#2",
          "midi": 42,
          "time": 387.375,
          "velocity": 0.9133858267716536,
          "duration": 0.3671875
        },
        {
          "name": "C2",
          "midi": 36,
          "time": 387.5625,
          "velocity": 0.8346456692913385,
          "duration": 0.5546875
        },
        {
          "name": "F#2",
          "midi": 42,
          "time": 387.75,
          "velocity": 0.7874015748031497,
          "duration": 0.3671875
        },
        {
          "name": "D2",
          "midi": 38,
          "time": 388.125,
          "velocity": 1,
          "duration": 0.7421875
        },
        {
          "name": "F#2",
          "midi": 42,
          "time": 388.125,
          "velocity": 0.8503937007874016,
          "duration": 0.3671875
        },
        {
          "name": "F#2",
          "midi": 42,
          "time": 388.5,
          "velocity": 0.9133858267716536,
          "duration": 0.3671875
        },
        {
          "name": "C2",
          "midi": 36,
          "time": 388.875,
          "velocity": 0.8661417322834646,
          "duration": 0.1796875
        },
        {
          "name": "F#2",
          "midi": 42,
          "time": 388.875,
          "velocity": 0.9133858267716536,
          "duration": 0.3671875
        },
        {
          "name": "C2",
          "midi": 36,
          "time": 389.0625,
          "velocity": 0.8346456692913385,
          "duration": 0.5546875
        },
        {
          "name": "F#2",
          "midi": 42,
          "time": 389.25,
          "velocity": 0.7874015748031497,
          "duration": 0.3671875
        },
        {
          "name": "D2",
          "midi": 38,
          "time": 389.625,
          "velocity": 1,
          "duration": 0.7421875
        },
        {
          "name": "F#2",
          "midi": 42,
          "time": 389.625,
          "velocity": 0.8503937007874016,
          "duration": 0.3671875
        },
        {
          "name": "F#2",
          "midi": 42,
          "time": 390,
          "velocity": 0.9133858267716536,
          "duration": 0.3671875
        },
        {
          "name": "C2",
          "midi": 36,
          "time": 390.375,
          "velocity": 1,
          "duration": 0.1796875
        },
        {
          "name": "C#3",
          "midi": 49,
          "time": 390.375,
          "velocity": 1,
          "duration": 0.7421875
        },
        {
          "name": "C2",
          "midi": 36,
          "time": 390.5625,
          "velocity": 1,
          "duration": 0.5546875
        },
        {
          "name": "D2",
          "midi": 38,
          "time": 391.125,
          "velocity": 1,
          "duration": 0.7421875
        },
        {
          "name": "F#2",
          "midi": 42,
          "time": 391.125,
          "velocity": 0.8661417322834646,
          "duration": 0.3671875
        },
        {
          "name": "F#2",
          "midi": 42,
          "time": 391.5,
          "velocity": 1,
          "duration": 0.3671875
        },
        {
          "name": "C2",
          "midi": 36,
          "time": 391.875,
          "velocity": 1,
          "duration": 0.1796875
        },
        {
          "name": "F#2",
          "midi": 42,
          "time": 391.875,
          "velocity": 1,
          "duration": 0.3671875
        },
        {
          "name": "C2",
          "midi": 36,
          "time": 392.0625,
          "velocity": 1,
          "duration": 0.5546875
        },
        {
          "name": "F#2",
          "midi": 42,
          "time": 392.25,
          "velocity": 0.8346456692913385,
          "duration": 0.3671875
        },
        {
          "name": "D2",
          "midi": 38,
          "time": 392.625,
          "velocity": 1,
          "duration": 0.7421875
        },
        {
          "name": "F#2",
          "midi": 42,
          "time": 392.625,
          "velocity": 0.8661417322834646,
          "duration": 0.3671875
        },
        {
          "name": "F#2",
          "midi": 42,
          "time": 393,
          "velocity": 1,
          "duration": 0.3671875
        },
        {
          "name": "C2",
          "midi": 36,
          "time": 393.375,
          "velocity": 1,
          "duration": 0.1796875
        },
        {
          "name": "F#2",
          "midi": 42,
          "time": 393.375,
          "velocity": 1,
          "duration": 0.3671875
        },
        {
          "name": "C2",
          "midi": 36,
          "time": 393.5625,
          "velocity": 1,
          "duration": 0.5546875
        },
        {
          "name": "F#2",
          "midi": 42,
          "time": 393.75,
          "velocity": 0.8661417322834646,
          "duration": 0.3671875
        },
        {
          "name": "D2",
          "midi": 38,
          "time": 394.125,
          "velocity": 1,
          "duration": 0.7421875
        },
        {
          "name": "F#2",
          "midi": 42,
          "time": 394.125,
          "velocity": 1,
          "duration": 0.3671875
        },
        {
          "name": "F#2",
          "midi": 42,
          "time": 394.5,
          "velocity": 1,
          "duration": 0.3671875
        },
        {
          "name": "C2",
          "midi": 36,
          "time": 394.875,
          "velocity": 1,
          "duration": 0.1796875
        },
        {
          "name": "F#2",
          "midi": 42,
          "time": 394.875,
          "velocity": 1,
          "duration": 0.3671875
        },
        {
          "name": "C2",
          "midi": 36,
          "time": 395.0625,
          "velocity": 1,
          "duration": 0.5546875
        },
        {
          "name": "F#2",
          "midi": 42,
          "time": 395.25,
          "velocity": 1,
          "duration": 0.3671875
        },
        {
          "name": "D2",
          "midi": 38,
          "time": 395.625,
          "velocity": 1,
          "duration": 0.7421875
        },
        {
          "name": "F#2",
          "midi": 42,
          "time": 395.625,
          "velocity": 0.9606299212598425,
          "duration": 0.3671875
        },
        {
          "name": "F#2",
          "midi": 42,
          "time": 396,
          "velocity": 1,
          "duration": 0.3671875
        },
        {
          "name": "C2",
          "midi": 36,
          "time": 396.375,
          "velocity": 1,
          "duration": 0.1796875
        },
        {
          "name": "C#3",
          "midi": 49,
          "time": 396.375,
          "velocity": 0.9133858267716536,
          "duration": 0.3671875
        },
        {
          "name": "C2",
          "midi": 36,
          "time": 396.5625,
          "velocity": 1,
          "duration": 0.5546875
        },
        {
          "name": "F#2",
          "midi": 42,
          "time": 396.75,
          "velocity": 1,
          "duration": 0.3671875
        },
        {
          "name": "D2",
          "midi": 38,
          "time": 397.125,
          "velocity": 1,
          "duration": 0.7421875
        },
        {
          "name": "F#2",
          "midi": 42,
          "time": 397.125,
          "velocity": 0.9133858267716536,
          "duration": 0.3671875
        },
        {
          "name": "F#2",
          "midi": 42,
          "time": 397.5,
          "velocity": 1,
          "duration": 0.3671875
        },
        {
          "name": "C2",
          "midi": 36,
          "time": 397.875,
          "velocity": 1,
          "duration": 0.1796875
        },
        {
          "name": "F#2",
          "midi": 42,
          "time": 397.875,
          "velocity": 1,
          "duration": 0.3671875
        },
        {
          "name": "C2",
          "midi": 36,
          "time": 398.0625,
          "velocity": 1,
          "duration": 0.5546875
        },
        {
          "name": "F#2",
          "midi": 42,
          "time": 398.25,
          "velocity": 1,
          "duration": 0.3671875
        },
        {
          "name": "D2",
          "midi": 38,
          "time": 398.625,
          "velocity": 1,
          "duration": 0.7421875
        },
        {
          "name": "F#2",
          "midi": 42,
          "time": 398.625,
          "velocity": 1,
          "duration": 0.3671875
        },
        {
          "name": "F#2",
          "midi": 42,
          "time": 399,
          "velocity": 1,
          "duration": 0.3671875
        },
        {
          "name": "C2",
          "midi": 36,
          "time": 399.375,
          "velocity": 1,
          "duration": 0.1796875
        },
        {
          "name": "F#2",
          "midi": 42,
          "time": 399.375,
          "velocity": 1,
          "duration": 0.3671875
        },
        {
          "name": "C2",
          "midi": 36,
          "time": 399.5625,
          "velocity": 1,
          "duration": 0.5546875
        },
        {
          "name": "F#2",
          "midi": 42,
          "time": 399.75,
          "velocity": 1,
          "duration": 0.3671875
        },
        {
          "name": "D2",
          "midi": 38,
          "time": 400.125,
          "velocity": 1,
          "duration": 0.7421875
        },
        {
          "name": "F#2",
          "midi": 42,
          "time": 400.125,
          "velocity": 1,
          "duration": 0.3671875
        },
        {
          "name": "F#2",
          "midi": 42,
          "time": 400.5,
          "velocity": 1,
          "duration": 0.3671875
        },
        {
          "name": "C2",
          "midi": 36,
          "time": 400.875,
          "velocity": 1,
          "duration": 0.3671875
        },
        {
          "name": "F#2",
          "midi": 42,
          "time": 400.875,
          "velocity": 1,
          "duration": 0.7421875
        },
        {
          "name": "D2",
          "midi": 38,
          "time": 401.25,
          "velocity": 0.9606299212598425,
          "duration": 0.1796875
        },
        {
          "name": "D2",
          "midi": 38,
          "time": 401.4375,
          "velocity": 1,
          "duration": 0.1796875
        },
        {
          "name": "D2",
          "midi": 38,
          "time": 401.625,
          "velocity": 1,
          "duration": 0.3671875
        },
        {
          "name": "C2",
          "midi": 36,
          "time": 402,
          "velocity": 1,
          "duration": 0.3671875
        },
        {
          "name": "C#3",
          "midi": 49,
          "time": 402,
          "velocity": 1,
          "duration": 0.3671875
        },
        {
          "name": "C2",
          "midi": 36,
          "time": 402.375,
          "velocity": 1,
          "duration": 0.3671875
        },
        {
          "name": "C#3",
          "midi": 49,
          "time": 402.375,
          "velocity": 1,
          "duration": 0.7421875
        },
        {
          "name": "C2",
          "midi": 36,
          "time": 402.75,
          "velocity": 1,
          "duration": 0.3671875
        },
        {
          "name": "D2",
          "midi": 38,
          "time": 403.125,
          "velocity": 1,
          "duration": 0.7421875
        },
        {
          "name": "F#2",
          "midi": 42,
          "time": 403.125,
          "velocity": 0.8661417322834646,
          "duration": 0.3671875
        },
        {
          "name": "F#2",
          "midi": 42,
          "time": 403.5,
          "velocity": 1,
          "duration": 0.3671875
        },
        {
          "name": "C2",
          "midi": 36,
          "time": 403.875,
          "velocity": 1,
          "duration": 0.3671875
        },
        {
          "name": "F#2",
          "midi": 42,
          "time": 403.875,
          "velocity": 1,
          "duration": 0.3671875
        },
        {
          "name": "C2",
          "midi": 36,
          "time": 404.25,
          "velocity": 1,
          "duration": 0.3671875
        },
        {
          "name": "F#2",
          "midi": 42,
          "time": 404.25,
          "velocity": 1,
          "duration": 0.3671875
        },
        {
          "name": "D2",
          "midi": 38,
          "time": 404.625,
          "velocity": 1,
          "duration": 0.3671875
        },
        {
          "name": "F#2",
          "midi": 42,
          "time": 404.625,
          "velocity": 1,
          "duration": 0.3671875
        },
        {
          "name": "C2",
          "midi": 36,
          "time": 405,
          "velocity": 1,
          "duration": 0.7421875
        },
        {
          "name": "F#2",
          "midi": 42,
          "time": 405,
          "velocity": 1,
          "duration": 0.3671875
        },
        {
          "name": "F#2",
          "midi": 42,
          "time": 405.375,
          "velocity": 0.9133858267716536,
          "duration": 0.3671875
        },
        {
          "name": "C2",
          "midi": 36,
          "time": 405.75,
          "velocity": 1,
          "duration": 0.3671875
        },
        {
          "name": "F#2",
          "midi": 42,
          "time": 405.75,
          "velocity": 0.9133858267716536,
          "duration": 0.3671875
        },
        {
          "name": "D2",
          "midi": 38,
          "time": 406.125,
          "velocity": 1,
          "duration": 0.7421875
        },
        {
          "name": "F#2",
          "midi": 42,
          "time": 406.125,
          "velocity": 0.9133858267716536,
          "duration": 0.3671875
        },
        {
          "name": "F#2",
          "midi": 42,
          "time": 406.5,
          "velocity": 1,
          "duration": 0.3671875
        },
        {
          "name": "C2",
          "midi": 36,
          "time": 406.875,
          "velocity": 1,
          "duration": 0.3671875
        },
        {
          "name": "F#2",
          "midi": 42,
          "time": 406.875,
          "velocity": 1,
          "duration": 0.3671875
        },
        {
          "name": "C2",
          "midi": 36,
          "time": 407.25,
          "velocity": 1,
          "duration": 0.3671875
        },
        {
          "name": "F#2",
          "midi": 42,
          "time": 407.25,
          "velocity": 1,
          "duration": 0.3671875
        },
        {
          "name": "D2",
          "midi": 38,
          "time": 407.625,
          "velocity": 1,
          "duration": 0.3671875
        },
        {
          "name": "G3",
          "midi": 55,
          "time": 407.625,
          "velocity": 1,
          "duration": 0.3671875
        },
        {
          "name": "D2",
          "midi": 38,
          "time": 408,
          "velocity": 1,
          "duration": 0.1796875
        },
        {
          "name": "G3",
          "midi": 55,
          "time": 408,
          "velocity": 1,
          "duration": 0.3671875
        },
        {
          "name": "D2",
          "midi": 38,
          "time": 408.1875,
          "velocity": 1,
          "duration": 0.1796875
        },
        {
          "name": "C2",
          "midi": 36,
          "time": 408.375,
          "velocity": 1,
          "duration": 0.7421875
        },
        {
          "name": "C#3",
          "midi": 49,
          "time": 408.375,
          "velocity": 0.9606299212598425,
          "duration": 0.3671875
        },
        {
          "name": "F#2",
          "midi": 42,
          "time": 408.75,
          "velocity": 0.9133858267716536,
          "duration": 0.3671875
        },
        {
          "name": "D2",
          "midi": 38,
          "time": 409.125,
          "velocity": 1,
          "duration": 0.7421875
        },
        {
          "name": "F#2",
          "midi": 42,
          "time": 409.125,
          "velocity": 0.9133858267716536,
          "duration": 0.3671875
        },
        {
          "name": "F#2",
          "midi": 42,
          "time": 409.5,
          "velocity": 1,
          "duration": 0.3671875
        },
        {
          "name": "C2",
          "midi": 36,
          "time": 409.875,
          "velocity": 1,
          "duration": 0.3671875
        },
        {
          "name": "F#2",
          "midi": 42,
          "time": 409.875,
          "velocity": 1,
          "duration": 0.3671875
        },
        {
          "name": "C2",
          "midi": 36,
          "time": 410.25,
          "velocity": 1,
          "duration": 0.3671875
        },
        {
          "name": "F#2",
          "midi": 42,
          "time": 410.25,
          "velocity": 0.9133858267716536,
          "duration": 0.3671875
        },
        {
          "name": "D2",
          "midi": 38,
          "time": 410.625,
          "velocity": 1,
          "duration": 0.7421875
        },
        {
          "name": "F#2",
          "midi": 42,
          "time": 410.625,
          "velocity": 1,
          "duration": 0.3671875
        },
        {
          "name": "F#2",
          "midi": 42,
          "time": 411,
          "velocity": 1,
          "duration": 0.3671875
        },
        {
          "name": "C2",
          "midi": 36,
          "time": 411.375,
          "velocity": 1,
          "duration": 0.3671875
        },
        {
          "name": "F#2",
          "midi": 42,
          "time": 411.375,
          "velocity": 0.9606299212598425,
          "duration": 0.3671875
        },
        {
          "name": "C2",
          "midi": 36,
          "time": 411.75,
          "velocity": 1,
          "duration": 0.3671875
        },
        {
          "name": "F#2",
          "midi": 42,
          "time": 411.75,
          "velocity": 1,
          "duration": 0.3671875
        },
        {
          "name": "D2",
          "midi": 38,
          "time": 412.125,
          "velocity": 1,
          "duration": 0.3671875
        },
        {
          "name": "G3",
          "midi": 55,
          "time": 412.125,
          "velocity": 1,
          "duration": 0.3671875
        },
        {
          "name": "D2",
          "midi": 38,
          "time": 412.5,
          "velocity": 1,
          "duration": 0.3671875
        },
        {
          "name": "G3",
          "midi": 55,
          "time": 412.5,
          "velocity": 1,
          "duration": 0.3671875
        },
        {
          "name": "C2",
          "midi": 36,
          "time": 412.875,
          "velocity": 1,
          "duration": 0.1796875
        },
        {
          "name": "F#2",
          "midi": 42,
          "time": 412.875,
          "velocity": 0.9606299212598425,
          "duration": 0.7421875
        },
        {
          "name": "D2",
          "midi": 38,
          "time": 413.0625,
          "velocity": 1,
          "duration": 0.1796875
        },
        {
          "name": "D2",
          "midi": 38,
          "time": 413.25,
          "velocity": 0.9606299212598425,
          "duration": 0.3671875
        },
        {
          "name": "D2",
          "midi": 38,
          "time": 413.625,
          "velocity": 1,
          "duration": 0.3671875
        },
        {
          "name": "F#2",
          "midi": 42,
          "time": 413.625,
          "velocity": 1,
          "duration": 0.7421875
        },
        {
          "name": "D2",
          "midi": 38,
          "time": 414,
          "velocity": 1,
          "duration": 0.1796875
        },
        {
          "name": "D2",
          "midi": 38,
          "time": 414.1875,
          "velocity": 1,
          "duration": 0.1796875
        },
        {
          "name": "C2",
          "midi": 36,
          "time": 414.375,
          "velocity": 1,
          "duration": 0.7421875
        },
        {
          "name": "C#3",
          "midi": 49,
          "time": 414.375,
          "velocity": 1,
          "duration": 0.7421875
        },
        {
          "name": "D2",
          "midi": 38,
          "time": 415.125,
          "velocity": 1,
          "duration": 0.7421875
        },
        {
          "name": "F#2",
          "midi": 42,
          "time": 415.125,
          "velocity": 0.9606299212598425,
          "duration": 0.3671875
        },
        {
          "name": "F#2",
          "midi": 42,
          "time": 415.5,
          "velocity": 0.9606299212598425,
          "duration": 0.3671875
        },
        {
          "name": "C2",
          "midi": 36,
          "time": 415.875,
          "velocity": 1,
          "duration": 0.3671875
        },
        {
          "name": "F#2",
          "midi": 42,
          "time": 415.875,
          "velocity": 1,
          "duration": 0.3671875
        },
        {
          "name": "C2",
          "midi": 36,
          "time": 416.25,
          "velocity": 1,
          "duration": 0.3671875
        },
        {
          "name": "F#2",
          "midi": 42,
          "time": 416.25,
          "velocity": 1,
          "duration": 0.3671875
        },
        {
          "name": "D2",
          "midi": 38,
          "time": 416.625,
          "velocity": 1,
          "duration": 0.3671875
        },
        {
          "name": "F#2",
          "midi": 42,
          "time": 416.625,
          "velocity": 1,
          "duration": 0.3671875
        },
        {
          "name": "C2",
          "midi": 36,
          "time": 417,
          "velocity": 1,
          "duration": 0.7421875
        },
        {
          "name": "C#3",
          "midi": 49,
          "time": 417,
          "velocity": 1,
          "duration": 0.3671875
        },
        {
          "name": "F#2",
          "midi": 42,
          "time": 417.375,
          "velocity": 1,
          "duration": 0.3671875
        },
        {
          "name": "C2",
          "midi": 36,
          "time": 417.75,
          "velocity": 1,
          "duration": 0.3671875
        },
        {
          "name": "F#2",
          "midi": 42,
          "time": 417.75,
          "velocity": 1,
          "duration": 0.3671875
        },
        {
          "name": "D2",
          "midi": 38,
          "time": 418.125,
          "velocity": 1,
          "duration": 0.7421875
        },
        {
          "name": "F#2",
          "midi": 42,
          "time": 418.125,
          "velocity": 1,
          "duration": 0.3671875
        },
        {
          "name": "F#2",
          "midi": 42,
          "time": 418.5,
          "velocity": 1,
          "duration": 0.3671875
        },
        {
          "name": "C2",
          "midi": 36,
          "time": 418.875,
          "velocity": 1,
          "duration": 0.3671875
        },
        {
          "name": "F#2",
          "midi": 42,
          "time": 418.875,
          "velocity": 1,
          "duration": 0.3671875
        },
        {
          "name": "C2",
          "midi": 36,
          "time": 419.25,
          "velocity": 1,
          "duration": 0.3671875
        },
        {
          "name": "F#2",
          "midi": 42,
          "time": 419.25,
          "velocity": 1,
          "duration": 0.3671875
        },
        {
          "name": "D2",
          "midi": 38,
          "time": 419.625,
          "velocity": 1,
          "duration": 0.3671875
        },
        {
          "name": "G3",
          "midi": 55,
          "time": 419.625,
          "velocity": 1,
          "duration": 0.3671875
        },
        {
          "name": "D2",
          "midi": 38,
          "time": 420,
          "velocity": 1,
          "duration": 0.3671875
        },
        {
          "name": "G3",
          "midi": 55,
          "time": 420,
          "velocity": 1,
          "duration": 0.3671875
        },
        {
          "name": "C2",
          "midi": 36,
          "time": 420.375,
          "velocity": 1,
          "duration": 0.3671875
        },
        {
          "name": "C#3",
          "midi": 49,
          "time": 420.375,
          "velocity": 1,
          "duration": 0.3671875
        },
        {
          "name": "C2",
          "midi": 36,
          "time": 420.75,
          "velocity": 1,
          "duration": 0.3671875
        },
        {
          "name": "F#2",
          "midi": 42,
          "time": 420.75,
          "velocity": 1,
          "duration": 0.3671875
        },
        {
          "name": "D2",
          "midi": 38,
          "time": 421.125,
          "velocity": 1,
          "duration": 0.7421875
        },
        {
          "name": "F#2",
          "midi": 42,
          "time": 421.125,
          "velocity": 1,
          "duration": 0.3671875
        },
        {
          "name": "G3",
          "midi": 55,
          "time": 421.5,
          "velocity": 1,
          "duration": 0.3671875
        },
        {
          "name": "C2",
          "midi": 36,
          "time": 421.875,
          "velocity": 1,
          "duration": 0.3671875
        },
        {
          "name": "G3",
          "midi": 55,
          "time": 421.875,
          "velocity": 0.9606299212598425,
          "duration": 0.3671875
        },
        {
          "name": "C2",
          "midi": 36,
          "time": 422.25,
          "velocity": 1,
          "duration": 0.3671875
        },
        {
          "name": "G3",
          "midi": 55,
          "time": 422.25,
          "velocity": 1,
          "duration": 0.3671875
        },
        {
          "name": "D2",
          "midi": 38,
          "time": 422.625,
          "velocity": 1,
          "duration": 0.7421875
        },
        {
          "name": "G3",
          "midi": 55,
          "time": 422.625,
          "velocity": 1,
          "duration": 0.1171875
        },
        {
          "name": "G3",
          "midi": 55,
          "time": 422.75,
          "velocity": 1,
          "duration": 0.1171875
        },
        {
          "name": "G3",
          "midi": 55,
          "time": 422.875,
          "velocity": 1,
          "duration": 0.1171875
        },
        {
          "name": "G3",
          "midi": 55,
          "time": 423,
          "velocity": 1,
          "duration": 0.1171875
        },
        {
          "name": "G3",
          "midi": 55,
          "time": 423.125,
          "velocity": 1,
          "duration": 0.1171875
        },
        {
          "name": "G3",
          "midi": 55,
          "time": 423.25,
          "velocity": 1,
          "duration": 0.1171875
        },
        {
          "name": "C2",
          "midi": 36,
          "time": 423.375,
          "velocity": 1,
          "duration": 0.3671875
        },
        {
          "name": "G3",
          "midi": 55,
          "time": 423.375,
          "velocity": 1,
          "duration": 0.1171875
        },
        {
          "name": "G3",
          "midi": 55,
          "time": 423.5,
          "velocity": 1,
          "duration": 0.1171875
        },
        {
          "name": "G3",
          "midi": 55,
          "time": 423.625,
          "velocity": 1,
          "duration": 0.1171875
        },
        {
          "name": "C2",
          "midi": 36,
          "time": 423.75,
          "velocity": 1,
          "duration": 0.3671875
        },
        {
          "name": "G3",
          "midi": 55,
          "time": 423.75,
          "velocity": 1,
          "duration": 0.1171875
        },
        {
          "name": "G3",
          "midi": 55,
          "time": 423.875,
          "velocity": 1,
          "duration": 0.1171875
        },
        {
          "name": "G3",
          "midi": 55,
          "time": 424,
          "velocity": 1,
          "duration": 0.1171875
        },
        {
          "name": "D2",
          "midi": 38,
          "time": 424.125,
          "velocity": 1,
          "duration": 0.1796875
        },
        {
          "name": "G3",
          "midi": 55,
          "time": 424.125,
          "velocity": 1,
          "duration": 0.1171875
        },
        {
          "name": "G3",
          "midi": 55,
          "time": 424.25,
          "velocity": 1,
          "duration": 0.1171875
        },
        {
          "name": "C2",
          "midi": 36,
          "time": 424.3125,
          "velocity": 1,
          "duration": 0.3671875
        },
        {
          "name": "G3",
          "midi": 55,
          "time": 424.375,
          "velocity": 1,
          "duration": 0.1171875
        },
        {
          "name": "G3",
          "midi": 55,
          "time": 424.5,
          "velocity": 1,
          "duration": 0.1171875
        },
        {
          "name": "G3",
          "midi": 55,
          "time": 424.625,
          "velocity": 1,
          "duration": 0.1171875
        },
        {
          "name": "D2",
          "midi": 38,
          "time": 424.6875,
          "velocity": 1,
          "duration": 0.1796875
        },
        {
          "name": "G3",
          "midi": 55,
          "time": 424.75,
          "velocity": 1,
          "duration": 0.1171875
        },
        {
          "name": "C2",
          "midi": 36,
          "time": 424.875,
          "velocity": 1,
          "duration": 0.5546875
        },
        {
          "name": "G3",
          "midi": 55,
          "time": 424.875,
          "velocity": 1,
          "duration": 0.1171875
        },
        {
          "name": "G3",
          "midi": 55,
          "time": 425,
          "velocity": 1,
          "duration": 0.1171875
        },
        {
          "name": "G3",
          "midi": 55,
          "time": 425.125,
          "velocity": 1,
          "duration": 0.1171875
        },
        {
          "name": "G3",
          "midi": 55,
          "time": 425.25,
          "velocity": 1,
          "duration": 0.1171875
        },
        {
          "name": "G3",
          "midi": 55,
          "time": 425.375,
          "velocity": 1,
          "duration": 0.1171875
        },
        {
          "name": "C2",
          "midi": 36,
          "time": 425.4375,
          "velocity": 1,
          "duration": 0.1796875
        },
        {
          "name": "G3",
          "midi": 55,
          "time": 425.5,
          "velocity": 1,
          "duration": 0.1171875
        },
        {
          "name": "D2",
          "midi": 38,
          "time": 425.625,
          "velocity": 1,
          "duration": 0.3671875
        },
        {
          "name": "G3",
          "midi": 55,
          "time": 425.625,
          "velocity": 1,
          "duration": 0.1171875
        },
        {
          "name": "G3",
          "midi": 55,
          "time": 425.75,
          "velocity": 1,
          "duration": 0.1171875
        },
        {
          "name": "G3",
          "midi": 55,
          "time": 425.875,
          "velocity": 1,
          "duration": 0.1171875
        },
        {
          "name": "C2",
          "midi": 36,
          "time": 426,
          "velocity": 1,
          "duration": 0.3671875
        },
        {
          "name": "C#3",
          "midi": 49,
          "time": 426,
          "velocity": 1,
          "duration": 0.3671875
        },
        {
          "name": "C2",
          "midi": 36,
          "time": 426.375,
          "velocity": 1,
          "duration": 0.7421875
        },
        {
          "name": "C#3",
          "midi": 49,
          "time": 426.375,
          "velocity": 1,
          "duration": 0.3671875
        },
        {
          "name": "F#2",
          "midi": 42,
          "time": 426.75,
          "velocity": 0.8661417322834646,
          "duration": 0.3671875
        },
        {
          "name": "D2",
          "midi": 38,
          "time": 427.125,
          "velocity": 1,
          "duration": 0.7421875
        },
        {
          "name": "F#2",
          "midi": 42,
          "time": 427.125,
          "velocity": 0.9133858267716536,
          "duration": 0.3671875
        },
        {
          "name": "F#2",
          "midi": 42,
          "time": 427.5,
          "velocity": 0.8661417322834646,
          "duration": 0.3671875
        },
        {
          "name": "C2",
          "midi": 36,
          "time": 427.875,
          "velocity": 1,
          "duration": 0.3671875
        },
        {
          "name": "F#2",
          "midi": 42,
          "time": 427.875,
          "velocity": 1,
          "duration": 0.3671875
        },
        {
          "name": "C2",
          "midi": 36,
          "time": 428.25,
          "velocity": 1,
          "duration": 0.3671875
        },
        {
          "name": "F#2",
          "midi": 42,
          "time": 428.25,
          "velocity": 0.8661417322834646,
          "duration": 0.3671875
        },
        {
          "name": "D2",
          "midi": 38,
          "time": 428.625,
          "velocity": 1,
          "duration": 0.3671875
        },
        {
          "name": "F#2",
          "midi": 42,
          "time": 428.625,
          "velocity": 0.9133858267716536,
          "duration": 0.3671875
        },
        {
          "name": "C2",
          "midi": 36,
          "time": 429,
          "velocity": 0.9133858267716536,
          "duration": 0.7421875
        },
        {
          "name": "F#2",
          "midi": 42,
          "time": 429,
          "velocity": 0.9133858267716536,
          "duration": 0.3671875
        },
        {
          "name": "F#2",
          "midi": 42,
          "time": 429.375,
          "velocity": 0.8661417322834646,
          "duration": 0.3671875
        },
        {
          "name": "C2",
          "midi": 36,
          "time": 429.75,
          "velocity": 0.9133858267716536,
          "duration": 0.3671875
        },
        {
          "name": "F#2",
          "midi": 42,
          "time": 429.75,
          "velocity": 0.8503937007874016,
          "duration": 0.3671875
        },
        {
          "name": "D2",
          "midi": 38,
          "time": 430.125,
          "velocity": 1,
          "duration": 0.7421875
        },
        {
          "name": "F#2",
          "midi": 42,
          "time": 430.125,
          "velocity": 0.9133858267716536,
          "duration": 0.3671875
        },
        {
          "name": "F#2",
          "midi": 42,
          "time": 430.5,
          "velocity": 0.8503937007874016,
          "duration": 0.3671875
        },
        {
          "name": "C2",
          "midi": 36,
          "time": 430.875,
          "velocity": 0.9606299212598425,
          "duration": 0.3671875
        },
        {
          "name": "F#2",
          "midi": 42,
          "time": 430.875,
          "velocity": 1,
          "duration": 0.3671875
        },
        {
          "name": "C2",
          "midi": 36,
          "time": 431.25,
          "velocity": 1,
          "duration": 0.3671875
        },
        {
          "name": "F#2",
          "midi": 42,
          "time": 431.25,
          "velocity": 1,
          "duration": 0.3671875
        },
        {
          "name": "D2",
          "midi": 38,
          "time": 431.625,
          "velocity": 0.8661417322834646,
          "duration": 0.3671875
        },
        {
          "name": "F#2",
          "midi": 42,
          "time": 431.625,
          "velocity": 0.9133858267716536,
          "duration": 0.3671875
        },
        {
          "name": "C2",
          "midi": 36,
          "time": 432,
          "velocity": 1,
          "duration": 0.3671875
        },
        {
          "name": "F#2",
          "midi": 42,
          "time": 432,
          "velocity": 1,
          "duration": 0.3671875
        },
        {
          "name": "C2",
          "midi": 36,
          "time": 432.375,
          "velocity": 1,
          "duration": 0.7421875
        },
        {
          "name": "C#3",
          "midi": 49,
          "time": 432.375,
          "velocity": 0.9133858267716536,
          "duration": 0.3671875
        },
        {
          "name": "F#2",
          "midi": 42,
          "time": 432.75,
          "velocity": 0.9133858267716536,
          "duration": 0.3671875
        },
        {
          "name": "D2",
          "midi": 38,
          "time": 433.125,
          "velocity": 1,
          "duration": 0.7421875
        },
        {
          "name": "F#2",
          "midi": 42,
          "time": 433.125,
          "velocity": 0.9606299212598425,
          "duration": 0.3671875
        },
        {
          "name": "F#2",
          "midi": 42,
          "time": 433.5,
          "velocity": 1,
          "duration": 0.3671875
        },
        {
          "name": "C2",
          "midi": 36,
          "time": 433.875,
          "velocity": 1,
          "duration": 0.3671875
        },
        {
          "name": "F#2",
          "midi": 42,
          "time": 433.875,
          "velocity": 1,
          "duration": 0.3671875
        },
        {
          "name": "C2",
          "midi": 36,
          "time": 434.25,
          "velocity": 1,
          "duration": 0.3671875
        },
        {
          "name": "F#2",
          "midi": 42,
          "time": 434.25,
          "velocity": 1,
          "duration": 0.3671875
        },
        {
          "name": "D2",
          "midi": 38,
          "time": 434.625,
          "velocity": 1,
          "duration": 0.3671875
        },
        {
          "name": "G3",
          "midi": 55,
          "time": 434.625,
          "velocity": 0.9606299212598425,
          "duration": 0.3671875
        },
        {
          "name": "D2",
          "midi": 38,
          "time": 435,
          "velocity": 1,
          "duration": 0.3671875
        },
        {
          "name": "G3",
          "midi": 55,
          "time": 435,
          "velocity": 1,
          "duration": 0.3671875
        },
        {
          "name": "C2",
          "midi": 36,
          "time": 435.375,
          "velocity": 1,
          "duration": 0.2421875
        },
        {
          "name": "C#3",
          "midi": 49,
          "time": 435.375,
          "velocity": 0.9606299212598425,
          "duration": 0.7421875
        },
        {
          "name": "D2",
          "midi": 38,
          "time": 435.625,
          "velocity": 1,
          "duration": 0.1171875
        },
        {
          "name": "D2",
          "midi": 38,
          "time": 435.75,
          "velocity": 1,
          "duration": 0.1171875
        },
        {
          "name": "D2",
          "midi": 38,
          "time": 435.875,
          "velocity": 1,
          "duration": 0.1171875
        },
        {
          "name": "D2",
          "midi": 38,
          "time": 436,
          "velocity": 1,
          "duration": 0.1171875
        },
        {
          "name": "D2",
          "midi": 38,
          "time": 436.125,
          "velocity": 1,
          "duration": 0.1171875
        },
        {
          "name": "F#2",
          "midi": 42,
          "time": 436.125,
          "velocity": 1,
          "duration": 0.7421875
        },
        {
          "name": "D2",
          "midi": 38,
          "time": 436.25,
          "velocity": 1,
          "duration": 0.1171875
        },
        {
          "name": "D2",
          "midi": 38,
          "time": 436.375,
          "velocity": 1,
          "duration": 0.1171875
        },
        {
          "name": "D2",
          "midi": 38,
          "time": 436.5,
          "velocity": 1,
          "duration": 0.1171875
        },
        {
          "name": "D2",
          "midi": 38,
          "time": 436.625,
          "velocity": 1,
          "duration": 0.1171875
        },
        {
          "name": "D2",
          "midi": 38,
          "time": 436.75,
          "velocity": 1,
          "duration": 0.1171875
        },
        {
          "name": "D3",
          "midi": 50,
          "time": 436.875,
          "velocity": 1,
          "duration": 0.1171875
        },
        {
          "name": "F#2",
          "midi": 42,
          "time": 436.875,
          "velocity": 1,
          "duration": 0.7421875
        },
        {
          "name": "D3",
          "midi": 50,
          "time": 437,
          "velocity": 1,
          "duration": 0.1171875
        },
        {
          "name": "D3",
          "midi": 50,
          "time": 437.125,
          "velocity": 1,
          "duration": 0.1171875
        },
        {
          "name": "D3",
          "midi": 50,
          "time": 437.25,
          "velocity": 1,
          "duration": 0.1171875
        },
        {
          "name": "D3",
          "midi": 50,
          "time": 437.375,
          "velocity": 1,
          "duration": 0.1171875
        },
        {
          "name": "D3",
          "midi": 50,
          "time": 437.5,
          "velocity": 1,
          "duration": 0.1171875
        },
        {
          "name": "F#2",
          "midi": 42,
          "time": 437.625,
          "velocity": 1,
          "duration": 0.7421875
        },
        {
          "name": "B2",
          "midi": 47,
          "time": 437.625,
          "velocity": 1,
          "duration": 0.1171875
        },
        {
          "name": "B2",
          "midi": 47,
          "time": 437.75,
          "velocity": 1,
          "duration": 0.1171875
        },
        {
          "name": "B2",
          "midi": 47,
          "time": 437.875,
          "velocity": 1,
          "duration": 0.1171875
        },
        {
          "name": "B2",
          "midi": 47,
          "time": 438,
          "velocity": 1,
          "duration": 0.1171875
        },
        {
          "name": "B2",
          "midi": 47,
          "time": 438.125,
          "velocity": 1,
          "duration": 0.1171875
        },
        {
          "name": "B2",
          "midi": 47,
          "time": 438.25,
          "velocity": 1,
          "duration": 0.1171875
        },
        {
          "name": "C2",
          "midi": 36,
          "time": 438.375,
          "velocity": 1,
          "duration": 0.7421875
        },
        {
          "name": "C#3",
          "midi": 49,
          "time": 438.375,
          "velocity": 1,
          "duration": 0.3671875
        },
        {
          "name": "F#2",
          "midi": 42,
          "time": 438.75,
          "velocity": 0.8661417322834646,
          "duration": 0.3671875
        },
        {
          "name": "D2",
          "midi": 38,
          "time": 439.125,
          "velocity": 1,
          "duration": 0.7421875
        },
        {
          "name": "F#2",
          "midi": 42,
          "time": 439.125,
          "velocity": 0.9133858267716536,
          "duration": 0.3671875
        },
        {
          "name": "F#2",
          "midi": 42,
          "time": 439.5,
          "velocity": 0.8661417322834646,
          "duration": 0.3671875
        },
        {
          "name": "C2",
          "midi": 36,
          "time": 439.875,
          "velocity": 1,
          "duration": 0.3671875
        },
        {
          "name": "F#2",
          "midi": 42,
          "time": 439.875,
          "velocity": 1,
          "duration": 0.3671875
        },
        {
          "name": "C2",
          "midi": 36,
          "time": 440.25,
          "velocity": 1,
          "duration": 0.3671875
        },
        {
          "name": "F#2",
          "midi": 42,
          "time": 440.25,
          "velocity": 0.8661417322834646,
          "duration": 0.3671875
        },
        {
          "name": "D2",
          "midi": 38,
          "time": 440.625,
          "velocity": 1,
          "duration": 0.3671875
        },
        {
          "name": "F#2",
          "midi": 42,
          "time": 440.625,
          "velocity": 0.9133858267716536,
          "duration": 0.3671875
        },
        {
          "name": "C2",
          "midi": 36,
          "time": 441,
          "velocity": 0.9133858267716536,
          "duration": 0.7421875
        },
        {
          "name": "F#2",
          "midi": 42,
          "time": 441,
          "velocity": 0.9133858267716536,
          "duration": 0.3671875
        },
        {
          "name": "F#2",
          "midi": 42,
          "time": 441.375,
          "velocity": 0.8661417322834646,
          "duration": 0.3671875
        },
        {
          "name": "C2",
          "midi": 36,
          "time": 441.75,
          "velocity": 0.9133858267716536,
          "duration": 0.3671875
        },
        {
          "name": "F#2",
          "midi": 42,
          "time": 441.75,
          "velocity": 0.8503937007874016,
          "duration": 0.3671875
        },
        {
          "name": "D2",
          "midi": 38,
          "time": 442.125,
          "velocity": 1,
          "duration": 0.7421875
        },
        {
          "name": "F#2",
          "midi": 42,
          "time": 442.125,
          "velocity": 0.9133858267716536,
          "duration": 0.3671875
        },
        {
          "name": "F#2",
          "midi": 42,
          "time": 442.5,
          "velocity": 0.8503937007874016,
          "duration": 0.3671875
        },
        {
          "name": "C2",
          "midi": 36,
          "time": 442.875,
          "velocity": 0.9606299212598425,
          "duration": 0.3671875
        },
        {
          "name": "F#2",
          "midi": 42,
          "time": 442.875,
          "velocity": 1,
          "duration": 0.3671875
        },
        {
          "name": "C2",
          "midi": 36,
          "time": 443.25,
          "velocity": 1,
          "duration": 0.3671875
        },
        {
          "name": "F#2",
          "midi": 42,
          "time": 443.25,
          "velocity": 1,
          "duration": 0.3671875
        },
        {
          "name": "D2",
          "midi": 38,
          "time": 443.625,
          "velocity": 0.8661417322834646,
          "duration": 0.3671875
        },
        {
          "name": "F#2",
          "midi": 42,
          "time": 443.625,
          "velocity": 0.9133858267716536,
          "duration": 0.3671875
        },
        {
          "name": "C2",
          "midi": 36,
          "time": 444,
          "velocity": 1,
          "duration": 0.3671875
        },
        {
          "name": "F#2",
          "midi": 42,
          "time": 444,
          "velocity": 1,
          "duration": 0.3671875
        },
        {
          "name": "C2",
          "midi": 36,
          "time": 444.375,
          "velocity": 1,
          "duration": 0.7421875
        },
        {
          "name": "C#3",
          "midi": 49,
          "time": 444.375,
          "velocity": 0.9133858267716536,
          "duration": 0.3671875
        },
        {
          "name": "F#2",
          "midi": 42,
          "time": 444.75,
          "velocity": 0.9133858267716536,
          "duration": 0.3671875
        },
        {
          "name": "D2",
          "midi": 38,
          "time": 445.125,
          "velocity": 1,
          "duration": 0.7421875
        },
        {
          "name": "F#2",
          "midi": 42,
          "time": 445.125,
          "velocity": 0.9606299212598425,
          "duration": 0.3671875
        },
        {
          "name": "F#2",
          "midi": 42,
          "time": 445.5,
          "velocity": 1,
          "duration": 0.3671875
        },
        {
          "name": "C2",
          "midi": 36,
          "time": 445.875,
          "velocity": 1,
          "duration": 0.3671875
        },
        {
          "name": "F#2",
          "midi": 42,
          "time": 445.875,
          "velocity": 1,
          "duration": 0.3671875
        },
        {
          "name": "C2",
          "midi": 36,
          "time": 446.25,
          "velocity": 1,
          "duration": 0.3671875
        },
        {
          "name": "F#2",
          "midi": 42,
          "time": 446.25,
          "velocity": 1,
          "duration": 0.3671875
        },
        {
          "name": "D2",
          "midi": 38,
          "time": 446.625,
          "velocity": 1,
          "duration": 0.3671875
        },
        {
          "name": "G3",
          "midi": 55,
          "time": 446.625,
          "velocity": 0.9606299212598425,
          "duration": 0.3671875
        },
        {
          "name": "D2",
          "midi": 38,
          "time": 447,
          "velocity": 1,
          "duration": 0.3671875
        },
        {
          "name": "G3",
          "midi": 55,
          "time": 447,
          "velocity": 1,
          "duration": 0.3671875
        },
        {
          "name": "C2",
          "midi": 36,
          "time": 447.375,
          "velocity": 1,
          "duration": 0.2421875
        },
        {
          "name": "C#3",
          "midi": 49,
          "time": 447.375,
          "velocity": 0.9606299212598425,
          "duration": 0.7421875
        },
        {
          "name": "D2",
          "midi": 38,
          "time": 447.625,
          "velocity": 1,
          "duration": 0.1171875
        },
        {
          "name": "D2",
          "midi": 38,
          "time": 447.75,
          "velocity": 1,
          "duration": 0.1171875
        },
        {
          "name": "D2",
          "midi": 38,
          "time": 447.875,
          "velocity": 1,
          "duration": 0.1171875
        },
        {
          "name": "D2",
          "midi": 38,
          "time": 448,
          "velocity": 1,
          "duration": 0.1171875
        },
        {
          "name": "D2",
          "midi": 38,
          "time": 448.125,
          "velocity": 1,
          "duration": 0.1171875
        },
        {
          "name": "F#2",
          "midi": 42,
          "time": 448.125,
          "velocity": 1,
          "duration": 0.7421875
        },
        {
          "name": "D2",
          "midi": 38,
          "time": 448.25,
          "velocity": 1,
          "duration": 0.1171875
        },
        {
          "name": "D2",
          "midi": 38,
          "time": 448.375,
          "velocity": 1,
          "duration": 0.1171875
        },
        {
          "name": "D2",
          "midi": 38,
          "time": 448.5,
          "velocity": 1,
          "duration": 0.1171875
        },
        {
          "name": "D2",
          "midi": 38,
          "time": 448.625,
          "velocity": 1,
          "duration": 0.1171875
        },
        {
          "name": "D2",
          "midi": 38,
          "time": 448.75,
          "velocity": 1,
          "duration": 0.1171875
        },
        {
          "name": "D3",
          "midi": 50,
          "time": 448.875,
          "velocity": 1,
          "duration": 0.1171875
        },
        {
          "name": "F#2",
          "midi": 42,
          "time": 448.875,
          "velocity": 1,
          "duration": 0.7421875
        },
        {
          "name": "D3",
          "midi": 50,
          "time": 449,
          "velocity": 1,
          "duration": 0.1171875
        },
        {
          "name": "D3",
          "midi": 50,
          "time": 449.125,
          "velocity": 1,
          "duration": 0.1171875
        },
        {
          "name": "D3",
          "midi": 50,
          "time": 449.25,
          "velocity": 1,
          "duration": 0.1171875
        },
        {
          "name": "D3",
          "midi": 50,
          "time": 449.375,
          "velocity": 1,
          "duration": 0.1171875
        },
        {
          "name": "D3",
          "midi": 50,
          "time": 449.5,
          "velocity": 1,
          "duration": 0.1171875
        },
        {
          "name": "F#2",
          "midi": 42,
          "time": 449.625,
          "velocity": 1,
          "duration": 0.7421875
        },
        {
          "name": "B2",
          "midi": 47,
          "time": 449.625,
          "velocity": 1,
          "duration": 0.1171875
        },
        {
          "name": "B2",
          "midi": 47,
          "time": 449.75,
          "velocity": 1,
          "duration": 0.1171875
        },
        {
          "name": "B2",
          "midi": 47,
          "time": 449.875,
          "velocity": 1,
          "duration": 0.1171875
        },
        {
          "name": "B2",
          "midi": 47,
          "time": 450,
          "velocity": 1,
          "duration": 0.1171875
        },
        {
          "name": "B2",
          "midi": 47,
          "time": 450.125,
          "velocity": 1,
          "duration": 0.1171875
        },
        {
          "name": "B2",
          "midi": 47,
          "time": 450.25,
          "velocity": 1,
          "duration": 0.1171875
        },
        {
          "name": "C2",
          "midi": 36,
          "time": 450.375,
          "velocity": 1,
          "duration": 0.7421875
        },
        {
          "name": "C#3",
          "midi": 49,
          "time": 450.375,
          "velocity": 1,
          "duration": 0.3671875
        },
        {
          "name": "F#2",
          "midi": 42,
          "time": 450.75,
          "velocity": 0.8661417322834646,
          "duration": 0.3671875
        },
        {
          "name": "D2",
          "midi": 38,
          "time": 451.125,
          "velocity": 1,
          "duration": 0.7421875
        },
        {
          "name": "F#2",
          "midi": 42,
          "time": 451.125,
          "velocity": 0.9133858267716536,
          "duration": 0.3671875
        },
        {
          "name": "F#2",
          "midi": 42,
          "time": 451.5,
          "velocity": 0.8661417322834646,
          "duration": 0.3671875
        },
        {
          "name": "C2",
          "midi": 36,
          "time": 451.875,
          "velocity": 1,
          "duration": 0.3671875
        },
        {
          "name": "F#2",
          "midi": 42,
          "time": 451.875,
          "velocity": 1,
          "duration": 0.3671875
        },
        {
          "name": "C2",
          "midi": 36,
          "time": 452.25,
          "velocity": 1,
          "duration": 0.3671875
        },
        {
          "name": "F#2",
          "midi": 42,
          "time": 452.25,
          "velocity": 0.8661417322834646,
          "duration": 0.3671875
        },
        {
          "name": "D2",
          "midi": 38,
          "time": 452.625,
          "velocity": 1,
          "duration": 0.3671875
        },
        {
          "name": "F#2",
          "midi": 42,
          "time": 452.625,
          "velocity": 0.9133858267716536,
          "duration": 0.3671875
        },
        {
          "name": "C2",
          "midi": 36,
          "time": 453,
          "velocity": 0.9133858267716536,
          "duration": 0.7421875
        },
        {
          "name": "F#2",
          "midi": 42,
          "time": 453,
          "velocity": 0.9133858267716536,
          "duration": 0.3671875
        },
        {
          "name": "F#2",
          "midi": 42,
          "time": 453.375,
          "velocity": 0.8661417322834646,
          "duration": 0.3671875
        },
        {
          "name": "C2",
          "midi": 36,
          "time": 453.75,
          "velocity": 0.9133858267716536,
          "duration": 0.3671875
        },
        {
          "name": "F#2",
          "midi": 42,
          "time": 453.75,
          "velocity": 0.8503937007874016,
          "duration": 0.3671875
        },
        {
          "name": "D2",
          "midi": 38,
          "time": 454.125,
          "velocity": 1,
          "duration": 0.7421875
        },
        {
          "name": "F#2",
          "midi": 42,
          "time": 454.125,
          "velocity": 0.9133858267716536,
          "duration": 0.3671875
        },
        {
          "name": "F#2",
          "midi": 42,
          "time": 454.5,
          "velocity": 0.8503937007874016,
          "duration": 0.3671875
        },
        {
          "name": "C2",
          "midi": 36,
          "time": 454.875,
          "velocity": 0.9606299212598425,
          "duration": 0.3671875
        },
        {
          "name": "F#2",
          "midi": 42,
          "time": 454.875,
          "velocity": 1,
          "duration": 0.3671875
        },
        {
          "name": "C2",
          "midi": 36,
          "time": 455.25,
          "velocity": 1,
          "duration": 0.3671875
        },
        {
          "name": "F#2",
          "midi": 42,
          "time": 455.25,
          "velocity": 1,
          "duration": 0.3671875
        },
        {
          "name": "D2",
          "midi": 38,
          "time": 455.625,
          "velocity": 0.8661417322834646,
          "duration": 0.3671875
        },
        {
          "name": "F#2",
          "midi": 42,
          "time": 455.625,
          "velocity": 0.9133858267716536,
          "duration": 0.3671875
        },
        {
          "name": "C2",
          "midi": 36,
          "time": 456,
          "velocity": 1,
          "duration": 0.3671875
        },
        {
          "name": "F#2",
          "midi": 42,
          "time": 456,
          "velocity": 1,
          "duration": 0.3671875
        },
        {
          "name": "C2",
          "midi": 36,
          "time": 456.375,
          "velocity": 1,
          "duration": 0.7421875
        },
        {
          "name": "C#3",
          "midi": 49,
          "time": 456.375,
          "velocity": 0.9133858267716536,
          "duration": 0.3671875
        },
        {
          "name": "F#2",
          "midi": 42,
          "time": 456.75,
          "velocity": 0.9133858267716536,
          "duration": 0.3671875
        },
        {
          "name": "D2",
          "midi": 38,
          "time": 457.125,
          "velocity": 1,
          "duration": 0.7421875
        },
        {
          "name": "F#2",
          "midi": 42,
          "time": 457.125,
          "velocity": 0.9606299212598425,
          "duration": 0.3671875
        },
        {
          "name": "F#2",
          "midi": 42,
          "time": 457.5,
          "velocity": 1,
          "duration": 0.3671875
        },
        {
          "name": "C2",
          "midi": 36,
          "time": 457.875,
          "velocity": 1,
          "duration": 0.3671875
        },
        {
          "name": "F#2",
          "midi": 42,
          "time": 457.875,
          "velocity": 1,
          "duration": 0.3671875
        },
        {
          "name": "C2",
          "midi": 36,
          "time": 458.25,
          "velocity": 1,
          "duration": 0.3671875
        },
        {
          "name": "F#2",
          "midi": 42,
          "time": 458.25,
          "velocity": 1,
          "duration": 0.3671875
        },
        {
          "name": "D2",
          "midi": 38,
          "time": 458.625,
          "velocity": 1,
          "duration": 0.3671875
        },
        {
          "name": "G3",
          "midi": 55,
          "time": 458.625,
          "velocity": 0.9606299212598425,
          "duration": 0.3671875
        },
        {
          "name": "D2",
          "midi": 38,
          "time": 459,
          "velocity": 1,
          "duration": 0.3671875
        },
        {
          "name": "G3",
          "midi": 55,
          "time": 459,
          "velocity": 1,
          "duration": 0.3671875
        },
        {
          "name": "C2",
          "midi": 36,
          "time": 459.375,
          "velocity": 1,
          "duration": 0.2421875
        },
        {
          "name": "C#3",
          "midi": 49,
          "time": 459.375,
          "velocity": 0.9606299212598425,
          "duration": 0.7421875
        },
        {
          "name": "D2",
          "midi": 38,
          "time": 459.625,
          "velocity": 1,
          "duration": 0.1171875
        },
        {
          "name": "D2",
          "midi": 38,
          "time": 459.75,
          "velocity": 1,
          "duration": 0.1171875
        },
        {
          "name": "D2",
          "midi": 38,
          "time": 459.875,
          "velocity": 1,
          "duration": 0.1171875
        },
        {
          "name": "D2",
          "midi": 38,
          "time": 460,
          "velocity": 1,
          "duration": 0.1171875
        },
        {
          "name": "D2",
          "midi": 38,
          "time": 460.125,
          "velocity": 1,
          "duration": 0.1171875
        },
        {
          "name": "F#2",
          "midi": 42,
          "time": 460.125,
          "velocity": 1,
          "duration": 0.7421875
        },
        {
          "name": "D2",
          "midi": 38,
          "time": 460.25,
          "velocity": 1,
          "duration": 0.1171875
        },
        {
          "name": "D2",
          "midi": 38,
          "time": 460.375,
          "velocity": 1,
          "duration": 0.1171875
        },
        {
          "name": "D2",
          "midi": 38,
          "time": 460.5,
          "velocity": 1,
          "duration": 0.1171875
        },
        {
          "name": "D2",
          "midi": 38,
          "time": 460.625,
          "velocity": 1,
          "duration": 0.1171875
        },
        {
          "name": "D2",
          "midi": 38,
          "time": 460.75,
          "velocity": 1,
          "duration": 0.1171875
        },
        {
          "name": "D3",
          "midi": 50,
          "time": 460.875,
          "velocity": 1,
          "duration": 0.1171875
        },
        {
          "name": "F#2",
          "midi": 42,
          "time": 460.875,
          "velocity": 1,
          "duration": 0.7421875
        },
        {
          "name": "D3",
          "midi": 50,
          "time": 461,
          "velocity": 1,
          "duration": 0.1171875
        },
        {
          "name": "D3",
          "midi": 50,
          "time": 461.125,
          "velocity": 1,
          "duration": 0.1171875
        },
        {
          "name": "D3",
          "midi": 50,
          "time": 461.25,
          "velocity": 1,
          "duration": 0.1171875
        },
        {
          "name": "D3",
          "midi": 50,
          "time": 461.375,
          "velocity": 1,
          "duration": 0.1171875
        },
        {
          "name": "D3",
          "midi": 50,
          "time": 461.5,
          "velocity": 1,
          "duration": 0.1171875
        },
        {
          "name": "F#2",
          "midi": 42,
          "time": 461.625,
          "velocity": 1,
          "duration": 0.7421875
        },
        {
          "name": "B2",
          "midi": 47,
          "time": 461.625,
          "velocity": 1,
          "duration": 0.1171875
        },
        {
          "name": "B2",
          "midi": 47,
          "time": 461.75,
          "velocity": 1,
          "duration": 0.1171875
        },
        {
          "name": "B2",
          "midi": 47,
          "time": 461.875,
          "velocity": 1,
          "duration": 0.1171875
        },
        {
          "name": "B2",
          "midi": 47,
          "time": 462,
          "velocity": 1,
          "duration": 0.1171875
        },
        {
          "name": "B2",
          "midi": 47,
          "time": 462.125,
          "velocity": 1,
          "duration": 0.1171875
        },
        {
          "name": "B2",
          "midi": 47,
          "time": 462.25,
          "velocity": 1,
          "duration": 0.1171875
        },
        {
          "name": "C2",
          "midi": 36,
          "time": 462.375,
          "velocity": 1,
          "duration": 0.7421875
        },
        {
          "name": "C#3",
          "midi": 49,
          "time": 462.375,
          "velocity": 1,
          "duration": 0.3671875
        },
        {
          "name": "F#2",
          "midi": 42,
          "time": 462.75,
          "velocity": 0.8661417322834646,
          "duration": 0.3671875
        },
        {
          "name": "D2",
          "midi": 38,
          "time": 463.125,
          "velocity": 1,
          "duration": 0.7421875
        },
        {
          "name": "F#2",
          "midi": 42,
          "time": 463.125,
          "velocity": 0.9133858267716536,
          "duration": 0.3671875
        },
        {
          "name": "F#2",
          "midi": 42,
          "time": 463.5,
          "velocity": 0.8661417322834646,
          "duration": 0.3671875
        },
        {
          "name": "C2",
          "midi": 36,
          "time": 463.875,
          "velocity": 1,
          "duration": 0.3671875
        },
        {
          "name": "F#2",
          "midi": 42,
          "time": 463.875,
          "velocity": 1,
          "duration": 0.3671875
        },
        {
          "name": "C2",
          "midi": 36,
          "time": 464.25,
          "velocity": 1,
          "duration": 0.3671875
        },
        {
          "name": "F#2",
          "midi": 42,
          "time": 464.25,
          "velocity": 0.8661417322834646,
          "duration": 0.3671875
        },
        {
          "name": "D2",
          "midi": 38,
          "time": 464.625,
          "velocity": 1,
          "duration": 0.3671875
        },
        {
          "name": "F#2",
          "midi": 42,
          "time": 464.625,
          "velocity": 0.9133858267716536,
          "duration": 0.3671875
        },
        {
          "name": "C2",
          "midi": 36,
          "time": 465,
          "velocity": 0.9133858267716536,
          "duration": 0.7421875
        },
        {
          "name": "F#2",
          "midi": 42,
          "time": 465,
          "velocity": 0.9133858267716536,
          "duration": 0.3671875
        },
        {
          "name": "F#2",
          "midi": 42,
          "time": 465.375,
          "velocity": 0.8661417322834646,
          "duration": 0.3671875
        },
        {
          "name": "C2",
          "midi": 36,
          "time": 465.75,
          "velocity": 0.9133858267716536,
          "duration": 0.3671875
        },
        {
          "name": "F#2",
          "midi": 42,
          "time": 465.75,
          "velocity": 0.8503937007874016,
          "duration": 0.3671875
        },
        {
          "name": "D2",
          "midi": 38,
          "time": 466.125,
          "velocity": 1,
          "duration": 0.7421875
        },
        {
          "name": "F#2",
          "midi": 42,
          "time": 466.125,
          "velocity": 0.9133858267716536,
          "duration": 0.3671875
        },
        {
          "name": "F#2",
          "midi": 42,
          "time": 466.5,
          "velocity": 0.8503937007874016,
          "duration": 0.3671875
        },
        {
          "name": "C2",
          "midi": 36,
          "time": 466.875,
          "velocity": 0.9606299212598425,
          "duration": 0.3671875
        },
        {
          "name": "F#2",
          "midi": 42,
          "time": 466.875,
          "velocity": 1,
          "duration": 0.3671875
        },
        {
          "name": "C2",
          "midi": 36,
          "time": 467.25,
          "velocity": 1,
          "duration": 0.3671875
        },
        {
          "name": "F#2",
          "midi": 42,
          "time": 467.25,
          "velocity": 1,
          "duration": 0.3671875
        },
        {
          "name": "D2",
          "midi": 38,
          "time": 467.625,
          "velocity": 0.8661417322834646,
          "duration": 0.3671875
        },
        {
          "name": "F#2",
          "midi": 42,
          "time": 467.625,
          "velocity": 0.9133858267716536,
          "duration": 0.3671875
        },
        {
          "name": "C2",
          "midi": 36,
          "time": 468,
          "velocity": 1,
          "duration": 0.3671875
        },
        {
          "name": "F#2",
          "midi": 42,
          "time": 468,
          "velocity": 1,
          "duration": 0.3671875
        },
        {
          "name": "C2",
          "midi": 36,
          "time": 468.375,
          "velocity": 1,
          "duration": 0.7421875
        },
        {
          "name": "C#3",
          "midi": 49,
          "time": 468.375,
          "velocity": 0.9133858267716536,
          "duration": 0.3671875
        },
        {
          "name": "F#2",
          "midi": 42,
          "time": 468.75,
          "velocity": 0.9133858267716536,
          "duration": 0.3671875
        },
        {
          "name": "D2",
          "midi": 38,
          "time": 469.125,
          "velocity": 1,
          "duration": 0.7421875
        },
        {
          "name": "F#2",
          "midi": 42,
          "time": 469.125,
          "velocity": 0.9606299212598425,
          "duration": 0.3671875
        },
        {
          "name": "F#2",
          "midi": 42,
          "time": 469.5,
          "velocity": 1,
          "duration": 0.3671875
        },
        {
          "name": "C2",
          "midi": 36,
          "time": 469.875,
          "velocity": 1,
          "duration": 0.3671875
        },
        {
          "name": "F#2",
          "midi": 42,
          "time": 469.875,
          "velocity": 1,
          "duration": 0.3671875
        },
        {
          "name": "C2",
          "midi": 36,
          "time": 470.25,
          "velocity": 1,
          "duration": 0.3671875
        },
        {
          "name": "F#2",
          "midi": 42,
          "time": 470.25,
          "velocity": 1,
          "duration": 0.3671875
        },
        {
          "name": "D2",
          "midi": 38,
          "time": 470.625,
          "velocity": 1,
          "duration": 0.3671875
        },
        {
          "name": "G3",
          "midi": 55,
          "time": 470.625,
          "velocity": 0.9606299212598425,
          "duration": 0.3671875
        },
        {
          "name": "D2",
          "midi": 38,
          "time": 471,
          "velocity": 1,
          "duration": 0.3671875
        },
        {
          "name": "G3",
          "midi": 55,
          "time": 471,
          "velocity": 1,
          "duration": 0.3671875
        },
        {
          "name": "C2",
          "midi": 36,
          "time": 471.375,
          "velocity": 1,
          "duration": 0.2421875
        },
        {
          "name": "C#3",
          "midi": 49,
          "time": 471.375,
          "velocity": 0.9606299212598425,
          "duration": 0.7421875
        },
        {
          "name": "D2",
          "midi": 38,
          "time": 471.625,
          "velocity": 1,
          "duration": 0.1171875
        },
        {
          "name": "D2",
          "midi": 38,
          "time": 471.75,
          "velocity": 1,
          "duration": 0.1171875
        },
        {
          "name": "D2",
          "midi": 38,
          "time": 471.875,
          "velocity": 1,
          "duration": 0.1171875
        },
        {
          "name": "D2",
          "midi": 38,
          "time": 472,
          "velocity": 1,
          "duration": 0.1171875
        },
        {
          "name": "D2",
          "midi": 38,
          "time": 472.125,
          "velocity": 1,
          "duration": 0.1171875
        },
        {
          "name": "F#2",
          "midi": 42,
          "time": 472.125,
          "velocity": 1,
          "duration": 0.7421875
        },
        {
          "name": "D2",
          "midi": 38,
          "time": 472.25,
          "velocity": 1,
          "duration": 0.1171875
        },
        {
          "name": "D2",
          "midi": 38,
          "time": 472.375,
          "velocity": 1,
          "duration": 0.1171875
        },
        {
          "name": "D2",
          "midi": 38,
          "time": 472.5,
          "velocity": 1,
          "duration": 0.1171875
        },
        {
          "name": "D2",
          "midi": 38,
          "time": 472.625,
          "velocity": 1,
          "duration": 0.1171875
        },
        {
          "name": "D2",
          "midi": 38,
          "time": 472.75,
          "velocity": 1,
          "duration": 0.1171875
        },
        {
          "name": "D3",
          "midi": 50,
          "time": 472.875,
          "velocity": 1,
          "duration": 0.1171875
        },
        {
          "name": "F#2",
          "midi": 42,
          "time": 472.875,
          "velocity": 1,
          "duration": 0.7421875
        },
        {
          "name": "D3",
          "midi": 50,
          "time": 473,
          "velocity": 1,
          "duration": 0.1171875
        },
        {
          "name": "D3",
          "midi": 50,
          "time": 473.125,
          "velocity": 1,
          "duration": 0.1171875
        },
        {
          "name": "D3",
          "midi": 50,
          "time": 473.25,
          "velocity": 1,
          "duration": 0.1171875
        },
        {
          "name": "D3",
          "midi": 50,
          "time": 473.375,
          "velocity": 1,
          "duration": 0.1171875
        },
        {
          "name": "D3",
          "midi": 50,
          "time": 473.5,
          "velocity": 1,
          "duration": 0.1171875
        },
        {
          "name": "F#2",
          "midi": 42,
          "time": 473.625,
          "velocity": 1,
          "duration": 0.7421875
        },
        {
          "name": "B2",
          "midi": 47,
          "time": 473.625,
          "velocity": 1,
          "duration": 0.1171875
        },
        {
          "name": "B2",
          "midi": 47,
          "time": 473.75,
          "velocity": 1,
          "duration": 0.1171875
        },
        {
          "name": "B2",
          "midi": 47,
          "time": 473.875,
          "velocity": 1,
          "duration": 0.1171875
        },
        {
          "name": "B2",
          "midi": 47,
          "time": 474,
          "velocity": 1,
          "duration": 0.1171875
        },
        {
          "name": "B2",
          "midi": 47,
          "time": 474.125,
          "velocity": 1,
          "duration": 0.1171875
        },
        {
          "name": "B2",
          "midi": 47,
          "time": 474.25,
          "velocity": 1,
          "duration": 0.1171875
        },
        {
          "name": "C2",
          "midi": 36,
          "time": 474.375,
          "velocity": 1,
          "duration": 0.7421875
        },
        {
          "name": "C#3",
          "midi": 49,
          "time": 474.375,
          "velocity": 1,
          "duration": 0.3671875
        },
        {
          "name": "F#2",
          "midi": 42,
          "time": 474.75,
          "velocity": 0.8661417322834646,
          "duration": 0.3671875
        },
        {
          "name": "D2",
          "midi": 38,
          "time": 475.125,
          "velocity": 1,
          "duration": 0.7421875
        },
        {
          "name": "F#2",
          "midi": 42,
          "time": 475.125,
          "velocity": 0.9133858267716536,
          "duration": 0.3671875
        },
        {
          "name": "F#2",
          "midi": 42,
          "time": 475.5,
          "velocity": 0.8661417322834646,
          "duration": 0.3671875
        },
        {
          "name": "C2",
          "midi": 36,
          "time": 475.875,
          "velocity": 1,
          "duration": 0.3671875
        },
        {
          "name": "F#2",
          "midi": 42,
          "time": 475.875,
          "velocity": 1,
          "duration": 0.3671875
        },
        {
          "name": "C2",
          "midi": 36,
          "time": 476.25,
          "velocity": 1,
          "duration": 0.3671875
        },
        {
          "name": "F#2",
          "midi": 42,
          "time": 476.25,
          "velocity": 0.8661417322834646,
          "duration": 0.3671875
        },
        {
          "name": "D2",
          "midi": 38,
          "time": 476.625,
          "velocity": 1,
          "duration": 0.3671875
        },
        {
          "name": "F#2",
          "midi": 42,
          "time": 476.625,
          "velocity": 0.9133858267716536,
          "duration": 0.3671875
        },
        {
          "name": "C2",
          "midi": 36,
          "time": 477,
          "velocity": 0.9133858267716536,
          "duration": 0.7421875
        },
        {
          "name": "F#2",
          "midi": 42,
          "time": 477,
          "velocity": 0.9133858267716536,
          "duration": 0.3671875
        },
        {
          "name": "F#2",
          "midi": 42,
          "time": 477.375,
          "velocity": 0.8661417322834646,
          "duration": 0.3671875
        },
        {
          "name": "C2",
          "midi": 36,
          "time": 477.75,
          "velocity": 0.9133858267716536,
          "duration": 0.3671875
        },
        {
          "name": "F#2",
          "midi": 42,
          "time": 477.75,
          "velocity": 0.8503937007874016,
          "duration": 0.3671875
        },
        {
          "name": "D2",
          "midi": 38,
          "time": 478.125,
          "velocity": 1,
          "duration": 0.7421875
        },
        {
          "name": "F#2",
          "midi": 42,
          "time": 478.125,
          "velocity": 0.9133858267716536,
          "duration": 0.3671875
        },
        {
          "name": "F#2",
          "midi": 42,
          "time": 478.5,
          "velocity": 0.8503937007874016,
          "duration": 0.3671875
        },
        {
          "name": "C2",
          "midi": 36,
          "time": 478.875,
          "velocity": 0.9606299212598425,
          "duration": 0.3671875
        },
        {
          "name": "F#2",
          "midi": 42,
          "time": 478.875,
          "velocity": 1,
          "duration": 0.3671875
        },
        {
          "name": "C2",
          "midi": 36,
          "time": 479.25,
          "velocity": 1,
          "duration": 0.3671875
        },
        {
          "name": "F#2",
          "midi": 42,
          "time": 479.25,
          "velocity": 1,
          "duration": 0.3671875
        },
        {
          "name": "D2",
          "midi": 38,
          "time": 479.625,
          "velocity": 0.8661417322834646,
          "duration": 0.3671875
        },
        {
          "name": "F#2",
          "midi": 42,
          "time": 479.625,
          "velocity": 0.9133858267716536,
          "duration": 0.3671875
        },
        {
          "name": "C2",
          "midi": 36,
          "time": 480,
          "velocity": 1,
          "duration": 0.3671875
        },
        {
          "name": "F#2",
          "midi": 42,
          "time": 480,
          "velocity": 1,
          "duration": 0.3671875
        },
        {
          "name": "C2",
          "midi": 36,
          "time": 480.375,
          "velocity": 1,
          "duration": 0.7421875
        },
        {
          "name": "C#3",
          "midi": 49,
          "time": 480.375,
          "velocity": 0.9133858267716536,
          "duration": 0.3671875
        },
        {
          "name": "F#2",
          "midi": 42,
          "time": 480.75,
          "velocity": 0.9133858267716536,
          "duration": 0.3671875
        },
        {
          "name": "D2",
          "midi": 38,
          "time": 481.125,
          "velocity": 1,
          "duration": 0.7421875
        },
        {
          "name": "F#2",
          "midi": 42,
          "time": 481.125,
          "velocity": 0.9606299212598425,
          "duration": 0.3671875
        },
        {
          "name": "F#2",
          "midi": 42,
          "time": 481.5,
          "velocity": 1,
          "duration": 0.3671875
        },
        {
          "name": "C2",
          "midi": 36,
          "time": 481.875,
          "velocity": 1,
          "duration": 0.3671875
        },
        {
          "name": "F#2",
          "midi": 42,
          "time": 481.875,
          "velocity": 1,
          "duration": 0.3671875
        },
        {
          "name": "C2",
          "midi": 36,
          "time": 482.25,
          "velocity": 1,
          "duration": 0.3671875
        },
        {
          "name": "F#2",
          "midi": 42,
          "time": 482.25,
          "velocity": 1,
          "duration": 0.3671875
        },
        {
          "name": "D2",
          "midi": 38,
          "time": 482.625,
          "velocity": 1,
          "duration": 0.3671875
        },
        {
          "name": "G3",
          "midi": 55,
          "time": 482.625,
          "velocity": 0.9606299212598425,
          "duration": 0.3671875
        },
        {
          "name": "D2",
          "midi": 38,
          "time": 483,
          "velocity": 1,
          "duration": 0.3671875
        },
        {
          "name": "G3",
          "midi": 55,
          "time": 483,
          "velocity": 1,
          "duration": 0.3671875
        },
        {
          "name": "C2",
          "midi": 36,
          "time": 483.375,
          "velocity": 1,
          "duration": 0.2421875
        },
        {
          "name": "C#3",
          "midi": 49,
          "time": 483.375,
          "velocity": 0.9606299212598425,
          "duration": 0.7421875
        },
        {
          "name": "D2",
          "midi": 38,
          "time": 483.625,
          "velocity": 1,
          "duration": 0.1171875
        },
        {
          "name": "D2",
          "midi": 38,
          "time": 483.75,
          "velocity": 1,
          "duration": 0.1171875
        },
        {
          "name": "D2",
          "midi": 38,
          "time": 483.875,
          "velocity": 1,
          "duration": 0.1171875
        },
        {
          "name": "D2",
          "midi": 38,
          "time": 484,
          "velocity": 1,
          "duration": 0.1171875
        },
        {
          "name": "D2",
          "midi": 38,
          "time": 484.125,
          "velocity": 1,
          "duration": 0.1171875
        },
        {
          "name": "F#2",
          "midi": 42,
          "time": 484.125,
          "velocity": 1,
          "duration": 0.7421875
        },
        {
          "name": "D2",
          "midi": 38,
          "time": 484.25,
          "velocity": 1,
          "duration": 0.1171875
        },
        {
          "name": "D2",
          "midi": 38,
          "time": 484.375,
          "velocity": 1,
          "duration": 0.1171875
        },
        {
          "name": "D2",
          "midi": 38,
          "time": 484.5,
          "velocity": 1,
          "duration": 0.1171875
        },
        {
          "name": "D2",
          "midi": 38,
          "time": 484.625,
          "velocity": 1,
          "duration": 0.1171875
        },
        {
          "name": "D2",
          "midi": 38,
          "time": 484.75,
          "velocity": 1,
          "duration": 0.1171875
        },
        {
          "name": "D3",
          "midi": 50,
          "time": 484.875,
          "velocity": 1,
          "duration": 0.1171875
        },
        {
          "name": "F#2",
          "midi": 42,
          "time": 484.875,
          "velocity": 1,
          "duration": 0.7421875
        },
        {
          "name": "D3",
          "midi": 50,
          "time": 485,
          "velocity": 1,
          "duration": 0.1171875
        },
        {
          "name": "D3",
          "midi": 50,
          "time": 485.125,
          "velocity": 1,
          "duration": 0.1171875
        },
        {
          "name": "D3",
          "midi": 50,
          "time": 485.25,
          "velocity": 1,
          "duration": 0.1171875
        },
        {
          "name": "D3",
          "midi": 50,
          "time": 485.375,
          "velocity": 1,
          "duration": 0.1171875
        },
        {
          "name": "D3",
          "midi": 50,
          "time": 485.5,
          "velocity": 1,
          "duration": 0.1171875
        },
        {
          "name": "F#2",
          "midi": 42,
          "time": 485.625,
          "velocity": 1,
          "duration": 0.7421875
        },
        {
          "name": "B2",
          "midi": 47,
          "time": 485.625,
          "velocity": 1,
          "duration": 0.1171875
        },
        {
          "name": "B2",
          "midi": 47,
          "time": 485.75,
          "velocity": 1,
          "duration": 0.1171875
        },
        {
          "name": "B2",
          "midi": 47,
          "time": 485.875,
          "velocity": 1,
          "duration": 0.1171875
        },
        {
          "name": "B2",
          "midi": 47,
          "time": 486,
          "velocity": 1,
          "duration": 0.1171875
        },
        {
          "name": "B2",
          "midi": 47,
          "time": 486.125,
          "velocity": 1,
          "duration": 0.1171875
        },
        {
          "name": "B2",
          "midi": 47,
          "time": 486.25,
          "velocity": 1,
          "duration": 0.1171875
        }
      ],
      "controlChanges": {},
      "id": 8,
      "name": "Drums               ",
      "instrumentNumber": 0,
      "instrument": "standard kit",
      "instrumentFamily": "drums",
      "channelNumber": 9,
      "isPercussion": true
    },
    {
      "startTime": 0,
      "duration": 0,
      "length": 0,
      "notes": [],
      "controlChanges": {},
      "id": 9,
      "name": "===================="
    },
    {
      "startTime": 0,
      "duration": 0,
      "length": 0,
      "notes": [],
      "controlChanges": {},
      "id": 10,
      "name": "Kashmir             "
    },
    {
      "startTime": 0,
      "duration": 0,
      "length": 0,
      "notes": [],
      "controlChanges": {},
      "id": 11,
      "name": "by Led Zeppelin     "
    }
  ]
}